<?xml version="1.0" encoding="utf-8" ?>
<svg baseProfile="full" height="300mm" version="1.1" viewBox="0,0,200,300" width="200mm" xmlns="http://www.w3.org/2000/svg" xmlns:ev="http://www.w3.org/2001/xml-events" xmlns:xlink="http://www.w3.org/1999/xlink"><defs /><rect fill="#222222" height="300" width="200" x="0" y="0" /><text fill="#FFFFFF" style="font-size:12px; font-family:Arial; font-weight:bold;" x="10" y="20">Over 10km Runs</text><text fill="#FFFFFF" style="font-size:4px; font-family:Arial" x="10" y="280">ATHLETE</text><text fill="#FFFFFF" style="font-size:9px; font-family:Arial" x="10" y="290">Abuqi</text><text fill="#FFFFFF" style="font-size:4px; font-family:Arial" x="120" y="280">STATISTICS</text><text fill="#FFFFFF" style="font-size:3px; font-family:Arial" x="120" y="285">Number: 8</text><text fill="#FFFFFF" style="font-size:3px; font-family:Arial" x="120" y="290">Weekly: 1.1</text><text fill="#FFFFFF" style="font-size:3px; font-family:Arial" x="141" y="285">Total: 106.7 km</text><text fill="#FFFFFF" style="font-size:3px; font-family:Arial" x="141" y="290">Avg: 13.3 km</text><text fill="#FFFFFF" style="font-size:3px; font-family:Arial" x="167" y="285">Min: 10.0 km</text><text fill="#FFFFFF" style="font-size:3px; font-family:Arial" x="167" y="290">Max: 21.6 km</text><polyline fill="none" points="64.90760059619788,78.60899471960875 61.192250372609124,77.71313960814587 58.804769001493696,76.23151869465073 56.72578241437441,75.64575664442964 55.008941877866164,74.64650903279107 50.69001490320079,73.0614788537423 47.85991058126092,72.28618488071515 41.77049180329777,71.70040395647084 38.77943368110573,70.37377209138504 37.73323397920467,69.08158437802922 34.82265275710961,66.35933096775261 32.70342771982541,65.23939901783888 27.08345752611058,61.1730984300375 25.406855439650826,58.98482145459275 23.51564828614937,57.4512812085668 22.938897168496624,56.124494934141694 21.32935916550923,53.849970722301805 18.80774962750729,51.489245596530964 17.03725782415131,48.68044033590559 15.159463487332687,46.69872913543077 14.301043219165877,45.06163916171499 13.0,41.32209888023499 15.467958271270618,47.077841586011345 17.131147540931124,48.61151178921864 18.874813710921444,51.472013858903665 21.32935916550923,53.71211941182992 23.676602086459752,57.60635918518528 25.540983606595546,59.10543616470386 27.056631892744917,61.12140729902603 32.6095380030456,65.1015605313878 34.68852459016489,66.10088604243356 38.87332339788554,70.25316848180228 42.078986587235704,71.57980165361369 44.27868852461688,71.71763284716144 46.39791356190108,72.25172725690936 47.81967213121243,72.21726962332468 50.73025335324928,73.00979274156998 59.39493293594569,76.38657288590184 61.25931445608148,77.73036765289726 64.196721311484,78.40225950635067 67.0,78.69513428875507 64.26378539501457,78.47117128288664 61.192250372609124,77.78205177249765 59.16691505216295,76.3176599362123 50.54247391957324,72.95810660763527 47.95380029809894,72.30341368903464 41.918032786867116,71.63148836936307 38.85991058120271,70.39100116878399 34.608047690067906,66.11811572108127 32.5692995529389,65.15324998203869 26.882265275751706,61.155868055495375 25.634873323433567,59.2777426872417 23.59612518636277,57.62359005937469 22.831594634859357,55.9866461848942 21.12816691509215,53.60873082707985 18.968703427759465,51.644331126059114 16.88971684052376,48.54258320371446 15.320417287643068,47.02614450277906 13.885245901590679,44.06214188678132 13.040238450106699,41.304865711252205 14.207153502269648,44.54465883162629 15.454545454587787,47.04337686625513 17.1982116245199,48.76660096466367 18.834575260814745,51.36862338218634 21.181818181823473,53.488110701197 23.019374068593606,56.072801671332854 23.5692995529389,57.39958850607218 25.701937406905927,59.208820107378415 26.922503725800198,60.94910337125475 32.97168405371485,65.23939901783888 34.74217585695442,66.06642667784035 38.91356184805045,70.25316848180228 42.159463487390894,71.54534383096325 48.678092399437446,72.38955769405584 54.36512667668285,74.38808159920882 48.383010432182346,72.38955769405584 46.4113263785257,72.26895606998733 44.23845007456839,71.78654838584043 42.266766020911746,71.76931950474682 38.64530551421922,70.235939385042 34.80923994042678,66.32487167593354 32.59612518630456,65.17047979404015 27.48584202688653,61.44878409364901 32.944858420290984,65.30831820287858 34.72876304027159,66.15257507112983 39.315946348709986,70.442688386378 42.038748137129005,71.59703056126455 43.31296572287101,71.59703056126455 46.4918032787391,72.25172725690936 47.91356184799224,72.21726962332468 50.11326378543163,72.78581933689566 59.16691505216295,76.26597519853385 61.272727272764314,77.71313960814587 64.10283159470418,78.28166380412586" stroke="#ff0000" stroke-linecap="round" stroke-linejoin="round" stroke-width="0.5"><title>2023-05-14 21.6km</title></polyline><polyline fill="none" points="182.61467015952803,77.52846901079465 179.38675875210902,76.9172949155909 177.4577280304511,75.61234498267731 174.62848297209712,74.73686411321978 173.2781614669948,73.8778954058289 168.841390807298,72.07734445230017 166.75803762802389,71.63133215054404 165.12479161698138,71.61481314383127 163.0285782329156,71.06968461946235 160.81662300549215,71.0036082626466 157.9230769230635,69.79770821853162 156.98428197187604,68.64135407646245 153.78209097404033,65.68433953663043 152.34174803522183,65.08962370515655 150.61848059057957,63.75150206810213 149.4996427720762,63.23937740555266 146.49035484640626,60.89348749030614 145.30721600377,59.1588204304644 143.3781852821703,57.60585864808672 140.9347463681479,53.73988582288439 138.13122171949362,51.2616311377933 136.81948082882445,49.04767936418648 135.43057870917255,47.791986663098214 134.10597761365352,45.23099280157476 133.0,42.025541089744365 135.1733746129321,47.2137026114724 135.81638485356234,48.12243341332214 136.92236246727407,49.03115717901528 138.65849011664977,51.74076445740502 140.9347463681479,53.72336429825373 142.5937127887155,56.118961092048266 143.18528221006272,57.45716974008974 145.05001190758776,58.97709192166076 146.56751607521437,61.04217204550514 152.1617051679059,64.97398416583746 154.10359609429725,66.03125571359851 158.01309835672146,69.89682375788834 160.94522505352506,71.05316553371085 164.9318885448738,71.69740815402474 166.75803762802389,71.71392714903777 169.12431531312177,72.42424173776817 177.3805668015848,75.61234498267731 179.50250059535028,76.98336794415809 182.03596094303066,77.56150535779307 185.54679685633164,77.97445891025563 187.0,77.54498718545801 186.96141938556684,77.29721432191582 186.16408668726217,77.42935991421837 186.0997856631875,77.82579579868616 185.30245296499925,77.82579579868616 179.59252202906646,76.98336794415809 176.82757799472893,75.36456804042245 169.70302452961914,72.50683617846516 166.5908549654414,71.59829413485568 164.89330793044064,71.58177512353723 163.1957608954399,71.18531815426832 161.11240771610755,71.20183722140791 157.58871159801492,69.74815041749389 153.8721124076983,66.01473591889953 152.07168373418972,65.12266355260363 146.3746130031068,60.992610547997174 144.9599904739298,59.10925813776703 143.1081209811964,57.572816684813006 142.50369135505753,56.28417286174226 140.80614432005677,53.7564073452304 138.55560847820016,51.757286261090485 136.89664205757435,49.17985676170065 135.37913789000595,47.74241957030608 133.99023577041226,44.98315172006551 133.12860204814933,42.223818993763416" stroke="#4dd2ff" stroke-linecap="round" stroke-linejoin="round" stroke-width="0.5"><title>2023-05-07 13.6km</title></polyline><polyline fill="none" points="13.0,111.11959260783624 34.1239669425413,124.10625540046021 38.735537190921605,139.19354606163688 47.06611570343375,136.32888350030407 59.56198347080499,142.24917947279755 65.21487603336573,138.62061403261032 63.280991735868156,128.88073258416262 48.851239670068026,121.05058120144531 37.545454545877874,109.20977879012935 31.743801653385162,112.45646068337373 29.3636363632977,118.94980120379478 35.31404958758503,124.87017287721392 40.371900827623904,139.00256874621846 46.32231405004859,136.13790578197222 58.81818181835115,142.24917947279755 63.280991735868156,140.9123407008592 66.10743801668286,135.56497246411163 61.347107438370585,127.16192273015622 46.91735537163913,120.28666157810949 36.35537190083414,110.16468603454996 29.958677685819566,118.75882104341872 37.099173554219306,127.16192273015622 39.62809917423874,138.81159140274394 49.89256198424846,137.4747492497554 59.710743801668286,142.44015633279923 65.80991735588759,139.5755006141262 66.55371900834143,135.94692803604994 62.83471074420959,128.49877502652816 46.61983471084386,120.4776415239321 36.35537190083414,110.35566740273498 31.148760330863297,114.55725071718916 29.661157025024295,120.4776415239321 36.35537190083414,126.20702742773574 40.52066115755588,139.76647784980014 47.95867768675089,137.4747492497554 58.07438016589731,142.8221099723596 64.91735537257046,140.72136362595484 66.55371900834143,135.1830167856533 62.983471075072885,128.11681736179162 49.44628099165857,121.62352063704748 37.099173554219306,109.97370463912375 30.851239670068026,118.37686064105947 37.2479338850826,126.77996468963102 40.81818181835115,139.19354606163688 47.21487603336573,137.4747492497554 60.157024793326855,142.44015633279923 65.95867768581957,138.81159140274394 66.40495867747813,135.37399463844486 61.49586776923388,126.97094372322317 48.851239670068026,121.24156104004942 36.80165289249271,109.97370463912375 32.6363636367023,112.83842274942435 30.107438017614186,120.09568160492927 36.652892561629415,125.63408992404584 39.776859504170716,138.81159140274394 47.80991735588759,137.28377169161104 60.90082644671202,142.44015633279923 64.32231405004859,140.9123407008592 65.95867768581957,134.4191051053349 60.305785125121474,126.58898562891409 49.1487603308633,121.43254085164517 35.9090909101069,110.16468603454996 29.809917355887592,119.71372157905716 36.652892561629415,125.2521314539481 41.11570248007774,139.76647784980014 47.95867768675089,136.7108388574561 61.049586777575314,142.24917947279755 66.25619834754616,138.62061403261032 67.0,134.80106099927798 62.983471075072885,127.54388066357933 50.041322314180434,120.85960133571643 36.05785124003887,109.40076029265765 30.107438017614186,118.37686064105947 37.69421487674117,127.9258384888526 39.33057851251215,139.19354606163688 48.70247933920473,136.7108388574561 60.00826446246356,142.24917947279755 65.512396694161,138.62061403261032 66.55371900834143,134.99203890550416 63.57851239666343,127.9258384888526 46.17355371918529,118.75882104341872 37.3966942159459,109.20977879012935 29.661157025024295,119.1407813380938 36.35537190083414,124.29723480995744 39.776859504170716,140.148432240705 47.80991735588759,136.90181649569422 59.56198347080499,142.05820258602034 65.3636363632977,138.23865921248216 66.10743801668286,134.80106099927798 60.603305785916746,126.20702742773574 46.17355371918529,118.75882104341872 37.84297520760447,109.01879726059269 32.041322315111756,113.02940374228638 29.661157025024295,120.28666157810949 36.20661157090217,123.72429650148842 40.371900827623904,140.53038652404211 48.40495867840946,137.66572678100783 61.64462810009718,141.4852717644535 65.06611570250243,139.38452335132752 66.40495867747813,133.6551929957932 62.537190082482994,127.35290171008091 47.36363636422902,120.09568160492927 23.71074380259961,97.55985638673883 16.272727272473276,111.88351738359779 33.52892562095076,122.57841915963218 40.07438016589731,140.53038652404211 46.024793388321996,136.90181649569422 61.49586776923388,141.67624873109162 66.25619834754616,137.85670428490266 65.6611570250243,131.1724756746553 58.07438016589731,124.10625540046021 43.793388430029154,116.84901795955375 34.71900826506317,105.39014310378116 23.26446281094104,97.55985638673883 15.677685950882733,109.78272321715485 37.2479338850826,124.67919354815967 40.22314049676061,139.5755006141262 46.61983471084386,135.94692803604994 61.94214876089245,141.29429476999212 66.40495867747813,133.6551929957932 63.42975206673145,128.30779620737303 49.297520661726594,121.24156104004942 34.86776859499514,105.00817894469947 24.305785125121474,97.55985638673883 15.677685950882733,110.73763005936053 35.01652892678976,122.76939878345001 39.62809917423874,139.38452335132752 50.19008264504373,137.09279410727322 60.157024793326855,142.05820258602034 65.80991735588759,138.429636635934 65.95867768581957,132.31834577128757 62.090909090824425,126.97094372322317 43.94214876089245,117.0399983888492 35.31404958758503,105.77210715552792 23.413223141804338,97.17789002764039 15.380165290087461,110.54664874449372 34.71900826506317,122.57841915963218 40.371900827623904,139.95745505893137 46.91735537163913,136.90181649569422 62.23966942168772,141.29429476999212 66.55371900834143,134.61008306557778 61.049586777575314,126.77996468963102 45.727272727526724,119.1407813380938 35.01652892678976,106.15407109993976 22.96694215014577,97.75083952664863 15.528925620019436,109.97370463912375 36.50413223169744,122.3874395089224 38.88429752085358,138.23865921248216 47.06611570343375,136.13790578197222 61.19834710750729,141.10331774840597 64.47107438091189,139.76647784980014 66.25619834754616,134.4191051053349 60.305785125121474,126.58898562891409 47.661157025024295,120.09568160492927 37.099173554219306,109.59174176852684 32.487603305839,112.0744985108031 29.958677685819566,118.94980120379478 36.652892561629415,122.3874395089224 39.776859504170716,138.81159140274394 47.51239669509232,136.32888350030407 62.23966942168772,141.29429476999212 66.7024793382734,134.03714910452254 61.94214876089245,126.97094372322317 47.21487603336573,119.3317614448024 23.26446281094104,98.32378878432792 15.677685950882733,109.78272321715485 35.9090909101069,122.0054801265942 39.925619835965335,139.19354606163688 48.10743801668286,136.51986119290814 60.90082644671202,142.05820258602034 65.80991735588759,139.19354606163688 65.512396694161,132.50932402699254 61.19834710750729,126.77996468963102 47.51239669509232,119.52274152543396 35.31404958758503,105.58112514263485 23.71074380259961,98.13280572521035 17.462809917517006,105.19916103722062 17.01652892678976,111.11959260783624 35.7603305792436,121.62352063704748 40.22314049676061,139.5755006141262 46.76859504263848,137.28377169161104 56.586776859126985,141.4852717644535 63.42975206673145,141.29429476999212 66.7024793382734,136.7108388574561 65.6611570250243,132.12736748857424 57.479338843375444,124.10625540046021 46.61983471084386,120.09568160492927 36.652892561629415,110.35566740273498 31.595041322521865,114.17528913437854 29.3636363632977,120.09568160492927 35.01652892678976,122.19645983097143 40.07438016589731,140.148432240705 47.95867768675089,137.28377169161104 60.305785125121474,142.05820258602034 65.95867768581957,139.00256874621846 65.95867768581957,132.89128045691177 60.157024793326855,126.3980065418873 45.87603305839002,119.1407813380938 23.859504132531583,98.32378878432792 15.975206611678004,111.3105738417944 36.05785124003887,123.34233749494888 40.371900827623904,140.53038652404211 46.471074379980564,136.7108388574561 61.49586776923388,141.8672256715363 66.25619834754616,138.62061403261032 65.95867768581957,132.89128045691177 59.85950413253158,126.3980065418873 47.21487603336573,120.4776415239321 35.462809917517006,106.53603493643459 23.71074380259961,99.27870367735159 16.272727272473276,108.63683412177488 36.20661157090217,124.87017287721392" stroke="#4dd2ff" stroke-linecap="round" stroke-linejoin="round" stroke-width="0.5"><title>2023-05-01 14.7km</title></polyline><polyline fill="none" points="133.0,111.01348835625686 154.84615384601057,123.06157850392628 159.76923076994717,139.84972863656003 168.07692307699472,137.28214219247457 181.30769230797887,142.0222981175175 186.69230769202113,136.6896215772722 184.38461538497359,129.97437048866414 166.0769230760634,121.08648883563 156.5384615380317,109.63091402908321 154.23076923098415,109.82842473045457 147.92307692300528,120.69147056876682 155.76923076901585,125.431682442897 160.38461538404226,140.6397542906925 167.30769230797887,137.4796490080189 178.53846153896302,142.61481648415793 182.84615384601057,142.0222981175175 186.69230769202113,135.8995937028667 184.07692307699472,129.1843388399575 154.5384615380317,109.43340330023784 147.61538461502641,120.0989429608453 154.5384615380317,124.24663097294979 160.38461538404226,140.6397542906925 167.0,137.08463534805924 180.5384615380317,142.8123225508025 186.53846153896302,137.08463534805924 182.53846153896302,128.1967986538075 169.61538461502641,121.67901602736674 156.69230769202113,108.64336010580882 151.92307692300528,111.60601979447529 147.76923076901585,119.9014337026747 157.30769230704755,127.40676600579172 159.30769230797887,140.24474151886534 168.38461538497359,137.4796490080189 181.0,142.417310390505 184.5384615380317,140.6397542906925 186.23076923005283,135.30707250523847 179.61538461595774,126.02420780318789 168.53846153896302,120.8889797157608 156.23076923098415,108.84087094583083 149.76923076808453,114.76618324662559 148.0769230760634,121.08648883563 156.07692307699472,125.03666539734695 159.4615384619683,139.6522221530322 167.30769230797887,137.08463534805924 181.30769230797887,142.2198042679811 186.23076923005283,139.45471564214677 186.69230769202113,136.09710071305744 183.0,128.98683085793164 164.23076923098415,117.92633959348314 155.92307692300528,109.03838175837882 150.53846153896302,114.17365314008202 148.69230769202113,121.48150699143298 155.76923076901585,124.24663097294979 160.38461538404226,140.04723509098403 169.0,137.67715579632204 179.9230769239366,142.8123225508025 185.0,140.44224791880697 186.69230769202113,134.91205823479686 183.0,128.1967986538075 165.4615384619683,118.91388699482195 159.76923076994717,110.61846725898795 154.69230769202113,108.44584923819639 147.92307692300528,120.29645219107624 155.92307692300528,125.23417393420823 159.61538461502641,140.44224791880697 169.0,137.67715579632204 181.92307692300528,142.61481648415793 186.69230769202113,138.26967599487398 186.53846153896302,134.1220293608494 179.0,125.03666539734695 164.69230769202113,118.71637757017743 154.84615384601057,109.03838175837882 148.5384615380317,119.50641510239802 158.0769230760634,127.60427420958877 159.0,139.6522221530322 166.8461538469419,137.87466255691834 180.0769230760634,143.00982859055512 185.15384615398943,141.2322732405737 187.0,136.09710071305744 182.23076923191547,127.40676600579172 165.76923076901585,119.30890576110687 155.0,109.43340330023784 148.84615384507924,120.0989429608453 156.07692307699472,126.02420780318789 159.0,140.44224791880697 167.46153846103698,137.08463534805924 181.92307692300528,142.2198042679811 187.0,136.09710071305744 181.15384615398943,126.2217162012821 168.69230769202113,120.49396139406599 155.0,108.64336010580882 149.76923076808453,120.49396139406599 156.38461538404226,124.24663097294979 159.61538461502641,141.03476695145946 168.23076923098415,138.26967599487398 178.23076923098415,142.61481648415793 184.69230769202113,140.04723509098403 186.53846153896302,136.09710071305744 180.38461538404226,125.82669937773608 166.69230769202113,119.30890576110687 157.15384615398943,109.03838175837882 154.5384615380317,109.23589254310355 149.30769230704755,120.29645219107624 156.69230769202113,126.02420780318789 158.23076923005283,139.6522221530322 166.0769230760634,137.08463534805924 182.23076923191547,142.417310390505 187.0,138.07216928945854 187.0,134.5170438538771 179.61538461595774,124.24663097294979 168.38461538497359,120.0989429608453 157.0,108.64336010580882 154.69230769202113,109.23589254310355 148.84615384507924,120.8889797157608 156.5384615380317,127.01174951496068 158.69230769202113,140.04723509098403 167.92307692300528,137.08463534805924 176.8461538469419,141.62728573440108 183.61538461595774,141.2322732405737 186.38461538497359,138.66468932188582 185.4615384619683,130.36938614665996 167.0,119.1113963915268 143.0,96.99017140944488 135.92307692300528,106.8657612951938 135.46153846103698,110.22344605007675 156.5384615380317,125.82669937773608 159.61538461502641,139.6522221530322 167.15384615398943,136.6896215772722 176.38461538497359,141.03476695145946 183.61538461595774,141.03476695145946 186.53846153896302,137.4796490080189 184.07692307699472,129.1843388399575 154.69230769202113,108.84087094583083 149.76923076808453,117.13630117254797 156.23076923098415,125.431682442897 159.76923076994717,140.04723509098403 167.61538461595774,136.2946076951921 176.69230769202113,141.42977950093336 183.30769230797887,141.42977950093336 186.38461538497359,137.08463534805924 185.0,129.97437048866414 169.92307692300528,121.48150699143298 159.92307692300528,110.61846725898795 154.84615384601057,109.63091402908321 150.07692307699472,114.76618324662559 149.15384615398943,121.28399792755954 156.5384615380317,127.40676600579172 160.07692307699472,140.6397542906925 167.92307692300528,136.6896215772722 180.69230769202113,142.417310390505 185.92307692300528,138.66468932188582 184.38461538497359,129.1843388399575 165.92307692300528,118.71637757017743 157.76923076901585,108.44584923819639 154.38461538497359,109.82842473045457 149.76923076808453,119.30890576110687 155.61538461595774,123.6541048635263 158.69230769202113,132.54197028127965 163.76923076901585,130.96190942509566 171.0,121.28399792755954" stroke="#4dd2ff" stroke-linecap="round" stroke-linejoin="round" stroke-width="0.5"><title>2023-04-20 10.0km</title></polyline><polyline fill="none" points="14.509909356303979,186.17988745784533 14.244430788152386,185.83895519568614 13.124443078791955,185.4554045669356 13.0,185.17839457182708 13.207405131368432,184.85876639580965 14.028729451529216,184.42193904107262 15.082347518822644,184.26212352589937 19.097710861911764,184.26212352589937 20.508065755100688,183.96380032882735 31.26824396988377,178.38067805958417 33.34229528342257,177.54956742098875 34.935166692273924,177.33646066017536 36.4450760485779,177.42170343642647 54.47273006607429,180.33055568778946 56.64633584266994,180.56496382639307 57.857581809774274,180.51168931315624 59.6910431709839,180.09614682388928 61.00184360117419,179.47815634201834 62.23797818404273,178.4872300460629 64.86787524964893,175.29060525033128 66.24504532184801,174.76847705019463 66.96681517898105,174.81109989533434 67.0,174.9389682868059 66.65985558458488,174.99224671956472 64.68535873407382,174.1824104974221 64.28714088187553,173.82011254215467 63.19204178827931,176.1323961980961 61.748502074042335,178.18888410616637 59.989706560154445,179.54208662566816 58.911199877096806,180.01090705719253 57.73313873098232,180.30924582106672 56.206636964168865,180.40514017422538 54.414656629262026,180.245316184868 38.83438316176762,177.7200523979409 35.92241511750035,177.30449459431838 34.487171608547214,177.29383923605928 33.21785220465972,177.5176014450626 31.691350437846268,178.0290554407402 20.416807497298578,183.8146382897612 18.898601935768966,184.0490356478549 14.592871408793144,184.03838123821333 13.16592410512385,184.51782818836364" stroke="#4dd2ff" stroke-linecap="round" stroke-linejoin="round" stroke-width="0.5"><title>2023-03-17 12.5km</title></polyline><polyline fill="none" points="134.36183300014818,186.13227305416513 133.0,185.35379996079428 133.1494694756111,185.0445413083944 133.74734737811377,184.70328891788813 135.22543441486778,184.43668441922637 139.07842534215888,184.43668441922637 140.4319544825412,184.13808626788523 151.2435798862134,178.53915319934458 153.29463324617245,177.71794158218108 155.1879132707836,177.49397323374433 156.37536521605216,177.5686294234256 172.22743349222583,180.17088495238568 174.90127633401426,180.55481673213217 177.7245886513847,180.6721288326371 179.82546516993898,180.1815497503194 181.22051360909245,179.4563400752013 182.42457327386364,178.3898426578162 185.01537751808064,175.35024271144357 186.4104259572341,174.795635891016 186.97508842070238,174.8916258233221 187.0,175.05160877380695 186.3190834999259,175.05160877380695 184.5005382131203,174.17703118945064 184.33446101800655,174.05970903866546 184.34276487774332,173.86772694583487 183.01414731665864,176.57676261845336 181.47793326157262,178.53915319934458 179.96663078575511,179.62697826987278 177.99031216363073,180.3201919866624 176.3959710902418,180.46949872688128 174.6106412424997,180.30952720823552 157.12271259419504,177.5366339225584 155.52006766106933,177.36599102332548 154.28279255723464,177.42998215556145 152.81300938027562,177.7286067251116 151.47608795939595,178.27252702604892 140.40704290327267,183.94612969255104 139.02860218362184,184.24472859975504 134.31200984158204,184.23406437333324 133.1245578963135,184.68196059247566" stroke="#4dd2ff" stroke-linecap="round" stroke-linejoin="round" stroke-width="0.5"><title>2023-03-11 12.5km</title></polyline><polyline fill="none" points="21.780487805604935,229.28518217499368 22.65853658504784,245.07549370080233 44.60975609719753,235.48852626606822 40.219512194395065,224.77365316916257 22.65853658504784,224.2097116857767 20.02439024299383,243.3836775838863 44.60975609719753,235.48852626606822 40.219512194395065,225.90153589844704 20.02439024299383,225.90153589844704 16.07317073084414,234.92458629002795 22.219512194395065,242.81973871891387 37.14634146541357,240.5639824704267 41.53658536635339,229.28518217499368 17.390243902802467,226.46547714271583 20.902439024299383,244.51155507401563 39.34146341495216,241.1279216511175 43.73170731589198,230.97700424259529 19.146341463550925,225.33759457361884 15.195121951401234,232.66882559587248 22.65853658504784,243.94761636923067 39.34146341495216,240.5639824704267 43.73170731589198,229.84912294498645 34.512195121496916,223.08182848314755 18.70731707289815,225.33759457361884 24.85365853458643,244.51155507401563 44.60975609719753,232.66882559587248 38.02439024485648,223.64577012439258 20.463414633646607,224.2097116857767 22.65853658504784,243.94761636923067 33.19512195326388,243.94761636923067 44.1707317084074,232.66882559587248 22.219512194395065,223.08182848314755 14.756097560748458,226.46547714271583 18.70731707289815,238.3082249504514 43.29268292710185,234.92458629002795 41.53658536635339,227.0294183071237 23.536585366353393,222.51788676343858 15.195121951401234,240.5639824704267 40.658536586910486,240.00004320894368 45.04878048785031,232.66882559587248 24.4146341457963,223.08182848314755 13.878048779442906,233.7967061032541 23.975609755143523,242.81973871891387 39.78048780374229,238.87216444918886 41.53658536635339,226.46547714271583 17.829268293455243,225.33759457361884 13.439024390652776,233.2327658890281 21.34146341495216,242.25579977640882 40.658536586910486,238.3082249504514 43.73170731589198,230.4130636334885 23.536585366353393,223.08182848314755 14.756097560748458,231.54094477253966 17.829268293455243,244.51155507401563 43.29268292710185,238.3082249504514 40.219512194395065,224.77365316916257 26.609756097197533,223.08182848314755 15.63414634205401,230.4130636334885 16.95121951214969,240.00004320894368 32.75609756074846,241.6918607535772 43.29268292710185,234.3606462359894 41.09756097570062,225.33759457361884 22.65853658504784,223.08182848314755 13.439024390652776,233.7967061032541 16.95121951214969,241.6918607535772 32.75609756074846,242.81973871891387 45.487804878503084,230.97700424259529 23.975609755143523,224.2097116857767 15.195121951401234,232.66882559587248 20.902439024299383,243.3836775838863 42.4146341457963,236.61640597693622 42.853658536449075,228.1573003998492 23.975609755143523,223.64577012439258 14.317073170095682,236.0524661608506 20.463414633646607,242.81973871891387 38.02439024485648,240.5639824704267 44.60975609719753,230.97700424259529 21.780487805604935,224.77365316916257 14.756097560748458,229.28518217499368 19.5853658542037,242.81973871891387 44.60975609719753,233.2327658890281 38.90243902429938,224.77365316916257 21.780487805604935,224.77365316916257 15.195121951401234,230.4130636334885 19.146341463550925,242.25579977640882 35.39024390280247,241.6918607535772 44.60975609719753,229.84912294498645 20.02439024299383,224.77365316916257 14.756097560748458,230.4130636334885 21.780487805604935,242.25579977640882 42.4146341457963,239.43610386946239 45.926829267293215,231.54094477253966 23.536585366353393,223.08182848314755 16.07317073084414,227.593359392602 17.390243902802467,241.6918607535772 43.73170731589198,234.92458629002795 36.70731707289815,223.64577012439258 18.70731707289815,224.77365316916257 20.463414633646607,242.81973871891387 39.34146341495216,238.87216444918886 44.60975609719753,229.28518217499368 17.390243902802467,226.46547714271583 22.219512194395065,243.3836775838863 44.1707317084074,232.66882559587248 36.70731707289815,223.64577012439258 17.390243902802467,226.46547714271583 15.63414634205401,236.61640597693622 26.170731706544757,243.94761636923067 45.487804878503084,231.54094477253966 35.8292682915926,223.08182848314755 16.512195121496916,225.90153589844704 18.268292682245374,242.81973871891387 33.19512195326388,243.94761636923067 44.60975609719753,232.1048852247186 21.34146341495216,223.64577012439258 14.756097560748458,234.92458629002795 19.5853658542037,242.81973871891387 42.4146341457963,238.87216444918886 45.04878048785031,232.1048852247186 22.65853658504784,224.77365316916257 16.512195121496916,228.72124132653698 20.463414633646607,242.81973871891387 37.585365852341056,243.3836775838863 45.04878048785031,235.48852626606822 43.29268292710185,227.593359392602 27.04878048785031,223.08182848314755 18.268292682245374,226.46547714271583 17.829268293455243,240.5639824704267 43.29268292710185,235.48852626606822 36.268292682245374,223.64577012439258 17.829268293455243,225.90153589844704 17.829268293455243,241.1279216511175 43.73170731589198,237.18034571548924 40.219512194395065,224.77365316916257 22.65853658504784,223.08182848314755 16.07317073084414,228.1573003998492 19.5853658542037,242.25579977640882 42.4146341457963,241.1279216511175 38.02439024485648,223.64577012439258 17.829268293455243,225.33759457361884 14.756097560748458,235.48852626606822 35.39024390280247,242.25579977640882 43.73170731589198,235.48852626606822 37.14634146541357,223.08182848314755 14.756097560748458,231.54094477253966 21.780487805604935,243.94761636923067 38.02439024485648,242.25579977640882 44.60975609719753,230.97700424259529 31.878048779442906,223.64577012439258 18.70731707289815,225.33759457361884 14.756097560748458,238.3082249504514 41.09756097570062,238.3082249504514 43.29268292710185,227.593359392602 34.95121951214969,222.51788676343858 16.512195121496916,225.90153589844704 15.195121951401234,237.18034571548924 25.29268292710185,242.25579977640882 42.853658536449075,235.48852626606822 43.73170731589198,228.1573003998492 32.31707317195833,223.08182848314755 17.829268293455243,226.46547714271583 17.390243902802467,240.00004320894368 41.97560975514352,238.3082249504514 41.97560975514352,227.0294183071237 22.219512194395065,223.08182848314755 14.756097560748458,236.61640597693622 37.585365852341056,241.1279216511175 43.29268292710185,236.0524661608506 39.78048780374229,223.64577012439258 22.219512194395065,222.51788676343858 13.439024390652776,234.3606462359894 21.34146341495216,243.3836775838863 42.4146341457963,239.43610386946239 42.4146341457963,225.90153589844704 34.512195121496916,222.51788676343858 16.95121951214969,225.33759457361884 16.07317073084414,237.74428537278436 38.46341463364661,241.1279216511175 44.1707317084074,230.97700424259529 37.585365852341056,223.64577012439258 19.5853658542037,223.08182848314755 15.195121951401234,235.48852626606822 37.585365852341056,241.6918607535772 44.60975609719753,230.97700424259529 33.634146340191364,223.08182848314755 20.902439024299383,223.64577012439258 15.195121951401234,235.48852626606822 20.02439024299383,241.6918607535772 41.09756097570062,240.5639824704267 45.926829267293215,233.7967061032541 38.46341463364661,222.51788676343858 14.317073170095682,230.97700424259529 20.902439024299383,242.81973871891387 38.90243902429938,241.1279216511175 44.1707317084074,228.72124132653698 37.585365852341056,222.51788676343858 18.268292682245374,225.33759457361884 14.317073170095682,232.1048852247186 17.390243902802467,240.00004320894368 36.70731707289815,241.6918607535772 43.73170731589198,234.3606462359894 37.585365852341056,224.2097116857767 19.146341463550925,224.77365316916257 13.878048779442906,234.92458629002795 18.70731707289815,242.25579977640882 37.585365852341056,241.6918607535772 43.29268292710185,236.61640597693622 36.268292682245374,223.08182848314755 20.02439024299383,224.2097116857767 13.0,234.92458629002795 34.95121951214969,242.25579977640882 42.853658536449075,237.74428537278436 40.658536586910486,224.77365316916257 23.975609755143523,222.51788676343858 13.0,229.84912294498645 18.268292682245374,240.00004320894368 35.8292682915926,240.5639824704267 44.1707317084074,228.72124132653698 38.90243902429938,223.08182848314755 13.878048779442906,227.0294183071237 17.390243902802467,240.00004320894368 35.39024390280247,241.1279216511175 44.1707317084074,234.3606462359894 40.219512194395065,223.64577012439258 15.63414634205401,229.28518217499368 20.02439024299383,240.5639824704267 34.512195121496916,241.1279216511175 42.853658536449075,238.3082249504514 40.658536586910486,224.77365316916257 20.463414633646607,223.08182848314755 13.0,230.97700424259529 20.02439024299383,241.6918607535772 37.14634146541357,241.6918607535772 44.1707317084074,232.66882559587248 34.512195121496916,224.2097116857767 22.65853658504784,223.64577012439258 13.878048779442906,232.66882559587248 17.829268293455243,240.00004320894368 34.95121951214969,240.00004320894368 43.29268292710185,236.61640597693622 40.219512194395065,224.2097116857767 19.146341463550925,224.2097116857767 14.317073170095682,230.4130636334885 20.02439024299383,241.1279216511175 38.46341463364661,240.00004320894368 44.1707317084074,233.7967061032541 38.90243902429938,223.08182848314755 20.02439024299383,222.51788676343858 14.317073170095682,230.4130636334885 21.34146341495216,241.1279216511175 38.46341463364661,240.00004320894368 45.04878048785031,232.66882559587248 37.585365852341056,223.64577012439258 14.317073170095682,229.84912294498645 21.34146341495216,240.5639824704267 39.78048780374229,238.87216444918886 44.60975609719753,232.66882559587248 37.14634146541357,221.95394496200606 17.390243902802467,224.2097116857767 14.756097560748458,237.74428537278436 42.4146341457963,238.3082249504514 41.97560975514352,225.90153589844704 34.073170732706785,222.51788676343858 17.829268293455243,224.77365316916257 13.878048779442906,233.2327658890281 23.536585366353393,242.81973871891387 43.29268292710185,238.87216444918886 40.658536586910486,225.90153589844704 23.536585366353393,223.64577012439258 16.07317073084414,225.90153589844704 15.195121951401234,238.87216444918886 41.97560975514352,238.3082249504514 43.73170731589198,230.4130636334885 30.12195121869445,223.64577012439258 18.70731707289815,224.77365316916257 13.439024390652776,236.0524661608506 38.46341463364661,240.5639824704267 43.73170731589198,229.28518217499368 31.878048779442906,222.51788676343858 19.146341463550925,224.2097116857767 13.878048779442906,237.18034571548924 26.609756097197533,242.81973871891387 42.853658536449075,237.74428537278436 39.78048780374229,224.77365316916257 31.439024390652776,223.08182848314755 15.63414634205401,227.593359392602 15.195121951401234,238.3082249504514 40.219512194395065,241.1279216511175 43.29268292710185,227.593359392602 37.14634146541357,222.51788676343858 16.07317073084414,226.46547714271583 14.756097560748458,236.0524661608506 40.658536586910486,238.3082249504514 42.4146341457963,225.90153589844704 35.8292682915926,221.39000308187678 18.70731707289815,223.64577012439258 14.317073170095682,235.48852626606822 37.585365852341056,241.6918607535772 44.1707317084074,229.84912294498645 39.34146341495216,223.64577012439258 17.390243902802467,224.77365316916257 13.0,234.3606462359894 23.536585366353393,242.25579977640882 40.219512194395065,240.5639824704267 45.04878048785031,230.4130636334885 34.073170732706785,221.95394496200606 16.512195121496916,225.90153589844704 14.756097560748458,235.48852626606822 39.78048780374229,241.1279216511175 44.60975609719753,229.84912294498645 38.90243902429938,223.64577012439258 21.780487805604935,223.64577012439258 13.878048779442906,234.3606462359894 38.02439024485648,241.6918607535772 44.1707317084074,236.0524661608506 37.14634146541357,224.2097116857767 13.878048779442906,233.2327658890281 23.097560977563262,242.81973871891387 39.78048780374229,241.1279216511175 44.60975609719753,234.3606462359894 38.02439024485648,223.64577012439258 20.02439024299383,224.2097116857767 14.317073170095682,234.92458629002795 21.34146341495216,242.25579977640882 38.02439024485648,241.1279216511175 44.1707317084074,230.4130636334885 37.585365852341056,224.2097116857767 17.829268293455243,224.77365316916257 13.0,234.3606462359894 38.02439024485648,240.5639824704267 43.73170731589198,236.61640597693622 38.02439024485648,223.64577012439258 13.878048779442906,228.72124132653698 17.829268293455243,240.5639824704267 37.585365852341056,241.1279216511175 43.29268292710185,236.0524661608506 37.585365852341056,223.64577012439258 18.70731707289815,223.64577012439258 14.756097560748458,236.61640597693622 41.53658536635339,238.3082249504514 45.487804878503084,232.1048852247186 34.95121951214969,222.51788676343858 13.878048779442906,231.54094477253966 16.512195121496916,238.87216444918886 32.75609756074846,240.5639824704267 42.4146341457963,236.0524661608506 39.34146341495216,224.2097116857767 14.756097560748458,227.0294183071237 18.70731707289815,240.00004320894368 35.8292682915926,241.1279216511175 45.04878048785031,230.97700424259529 34.95121951214969,221.95394496200606 16.512195121496916,225.33759457361884 14.317073170095682,234.92458629002795 25.29268292710185,243.3836775838863 42.853658536449075,238.3082249504514 34.95121951214969,223.08182848314755 22.65853658504784,223.08182848314755 14.317073170095682,234.3606462359894 38.02439024485648,241.1279216511175 43.73170731589198,230.97700424259529 38.90243902429938,224.2097116857767 14.756097560748458,229.28518217499368 21.780487805604935,241.6918607535772 39.78048780374229,241.1279216511175 42.853658536449075,227.0294183071237 35.8292682915926,222.51788676343858 17.829268293455243,224.2097116857767 15.195121951401234,237.74428537278436 38.90243902429938,241.1279216511175 43.73170731589198,233.7967061032541 37.585365852341056,223.64577012439258 19.5853658542037,223.64577012439258 13.439024390652776,233.7967061032541 21.780487805604935,242.25579977640882 41.09756097570062,239.43610386946239 36.70731707289815,223.08182848314755 28.365853656083345,223.08182848314755 33.19512195326388,232.66882559587248 50.31707317009568,243.3836775838863 54.26829268410802,256.9181865162682 67.0,258.6099969181232" stroke="#4dd2ff" stroke-linecap="round" stroke-linejoin="round" stroke-width="0.5"><title>2021-06-01 11.4km</title></polyline><polyline fill="none" points="181.59999999776483,245.20238403324038 163.375,224.39297406189144 135.69999999925494,236.5318050836213 135.69999999925494,251.27178203407675 172.82499999925494,246.06944125611335 165.39999999850988,221.79179287469015 148.52499999850988,224.39297406189144 133.0,246.93649835698307 148.52499999850988,261.67645041504875 176.875,249.5376689294353 176.875,226.9941541524604 163.375,221.79179287469015 138.39999999850988,246.93649835698307 173.5,246.06944125611335 180.92500000074506,235.6647465187125 167.42500000074506,218.3235495854169 139.07499999925494,239.13298005005345 147.84999999776483,255.6070626634173 173.5,250.40472554368898 181.59999999776483,238.26592184929177 168.10000000149012,220.92473223386332 143.125,230.46239256160334 139.07499999925494,250.40472554368898 175.52500000223517,244.33532668510452 180.92500000074506,233.06357008963823 164.72499999776483,218.3235495854169 138.39999999850988,232.19651103531942 139.07499999925494,245.20238403324038 177.55000000074506,250.40472554368898 184.29999999701977,228.7282736026682 174.84999999776483,222.65885339444503 143.80000000074506,234.7976878322661 153.25,258.20822957577184 180.92500000074506,246.93649835698307 183.625,230.46239256160334 148.52499999850988,222.65885339444503 135.69999999925494,234.7976878322661 170.79999999701977,244.33532668510452 182.27499999850988,240.00003812927753 176.19999999925494,220.0576714728959 145.14999999850988,220.92473223386332 137.72500000149012,239.13298005005345 175.52500000223517,245.20238403324038 183.625,234.7976878322661 173.5,220.0576714728959 137.72500000149012,232.19651103531942 147.17500000074506,252.1388384043239 176.875,246.06944125611335 182.94999999925494,225.26003421237692 173.5,219.1906105875969 142.44999999925494,224.39297406189144 137.72500000149012,236.5318050836213 151.89999999850988,248.67061219504103 180.92500000074506,240.86709608323872 180.92500000074506,223.52591378847137 168.10000000149012,219.1906105875969 143.80000000074506,224.39297406189144 141.77499999850988,246.93649835698307 178.89999999850988,246.93649835698307 185.64999999850988,233.93062902381644 170.79999999701977,219.1906105875969 140.42500000074506,226.12709424318746 143.125,248.67061219504103 181.59999999776483,240.00003812927753 184.29999999701977,228.7282736026682 166.07499999925494,220.0576714728959 147.17500000074506,221.79179287469015 138.39999999850988,240.86709608323872 152.57500000298023,251.27178203407675 181.59999999776483,240.00003812927753 168.10000000149012,219.1906105875969 142.44999999925494,225.26003421237692 138.39999999850988,239.13298005005345 152.57500000298023,251.27178203407675 174.17500000447035,246.93649835698307 184.29999999701977,239.13298005005345 177.55000000074506,221.79179287469015 139.07499999925494,232.19651103531942 144.47500000149012,250.40472554368898 176.19999999925494,244.33532668510452 184.29999999701977,236.5318050836213 174.17500000447035,219.1906105875969 146.5,221.79179287469015 139.07499999925494,233.93062902381644 151.89999999850988,252.1388384043239 178.22499999776483,246.06944125611335 184.97500000149012,237.39886352838948 172.82499999925494,221.79179287469015 142.44999999925494,224.39297406189144 138.39999999850988,233.93062902381644 143.80000000074506,249.5376689294353 172.82499999925494,250.40472554368898 182.94999999925494,245.20238403324038 178.89999999850988,224.39297406189144 151.22499999776483,221.79179287469015 139.75,232.19651103531942 144.47500000149012,249.5376689294353 173.5,250.40472554368898 185.64999999850988,233.06357008963823 178.22499999776483,224.39297406189144 149.19999999925494,222.65885339444503 139.07499999925494,234.7976878322661 143.125,249.5376689294353 177.55000000074506,246.06944125611335 182.27499999850988,226.12709424318746 171.47500000149012,221.79179287469015 139.75,227.86121393926442 139.07499999925494,240.00003812927753 146.5,253.00589465210214 172.82499999925494,250.40472554368898 183.625,243.46826921822503 176.875,224.39297406189144 139.07499999925494,232.19651103531942 147.84999999776483,253.00589465210214 174.17500000447035,249.5376689294353 184.29999999701977,241.73415391659364 174.17500000447035,220.92473223386332 143.125,225.26003421237692 139.75,237.39886352838948 153.25,253.87295077601448 180.92500000074506,246.93649835698307 175.52500000223517,220.0576714728959 143.125,225.26003421237692 140.42500000074506,240.00003812927753 145.14999999850988,251.27178203407675 172.82499999925494,252.1388384043239 184.97500000149012,232.19651103531942 176.875,222.65885339444503 141.10000000149012,227.86121393926442 148.52499999850988,254.74000678071752 174.17500000447035,253.87295077601448 183.625,246.93649835698307 179.57500000298023,226.9941541524604 139.75,231.32945186039433 149.19999999925494,256.4741184222512 172.14999999850988,253.87295077601448 182.94999999925494,246.93649835698307 180.92500000074506,227.86121393926442 149.875,222.65885339444503 139.07499999925494,235.6647465187125 143.80000000074506,251.27178203407675 177.55000000074506,249.5376689294353 185.64999999850988,231.32945186039433 174.84999999776483,221.79179287469015 143.80000000074506,224.39297406189144 141.10000000149012,234.7976878322661 150.55000000074506,256.4741184222512 174.17500000447035,253.87295077601448 182.27499999850988,229.59533314267173 141.10000000149012,230.46239256160334 143.80000000074506,248.67061219504103 159.32499999925494,254.74000678071752 182.94999999925494,246.06944125611335 179.57500000298023,225.26003421237692 137.05000000074506,231.32945186039433 148.52499999850988,255.6070626634173 163.375,254.74000678071752 178.89999999850988,250.40472554368898 183.625,228.7282736026682 142.44999999925494,229.59533314267173 143.80000000074506,251.27178203407675 168.10000000149012,255.6070626634173 184.97500000149012,244.33532668510452 176.19999999925494,226.12709424318746 145.14999999850988,225.26003421237692 137.05000000074506,235.6647465187125 153.25,251.27178203407675 174.84999999776483,249.5376689294353 183.625,228.7282736026682 174.84999999776483,220.92473223386332 139.07499999925494,231.32945186039433 144.47500000149012,247.80355533631518 164.05000000074506,254.74000678071752 184.97500000149012,240.86709608323872 181.59999999776483,227.86121393926442 141.77499999850988,228.7282736026682 144.47500000149012,252.1388384043239 170.125,255.6070626634173 184.29999999701977,236.5318050836213 176.875,226.9941541524604 155.27499999850988,224.39297406189144 138.39999999850988,237.39886352838948 151.89999999850988,254.74000678071752 173.5,253.87295077601448 185.64999999850988,235.6647465187125 177.55000000074506,224.39297406189144 143.125,227.86121393926442 145.14999999850988,249.5376689294353 162.69999999925494,253.87295077601448 182.27499999850988,246.06944125611335 178.89999999850988,226.9941541524604 140.42500000074506,229.59533314267173 147.17500000074506,253.87295077601448 176.875,253.87295077601448 185.64999999850988,237.39886352838948 166.75,222.65885339444503 148.52499999850988,223.52591378847137 140.42500000074506,242.60121162980795 146.5,253.87295077601448 176.19999999925494,253.00589465210214 178.22499999776483,226.12709424318746 150.55000000074506,222.65885339444503 138.39999999850988,241.73415391659364 154.59999999776483,253.87295077601448 177.55000000074506,251.27178203407675 176.19999999925494,224.39297406189144 148.52499999850988,223.52591378847137 139.75,233.93062902381644 145.82499999925494,253.00589465210214 172.14999999850988,253.87295077601448 183.625,234.7976878322661 176.19999999925494,226.12709424318746 148.52499999850988,222.65885339444503 137.05000000074506,239.13298005005345 149.875,253.00589465210214 178.89999999850988,249.5376689294353 181.59999999776483,226.9941541524604 170.125,222.65885339444503 151.89999999850988,221.79179287469015 139.07499999925494,242.60121162980795 173.5,251.27178203407675 184.97500000149012,233.06357008963823 171.47500000149012,220.92473223386332 142.44999999925494,226.9941541524604 141.77499999850988,246.93649835698307 178.89999999850988,250.40472554368898 184.97500000149012,240.00003812927753 171.47500000149012,222.65885339444503 137.72500000149012,236.5318050836213 147.17500000074506,251.27178203407675 176.875,250.40472554368898 184.29999999701977,230.46239256160334 174.17500000447035,225.26003421237692 139.07499999925494,234.7976878322661 147.84999999776483,252.1388384043239 175.52500000223517,249.5376689294353 184.29999999701977,240.86709608323872 178.22499999776483,223.52591378847137 141.10000000149012,226.9941541524604 136.375,240.00003812927753 147.84999999776483,253.00589465210214 174.84999999776483,248.67061219504103 182.94999999925494,228.7282736026682 172.82499999925494,222.65885339444503 143.80000000074506,223.52591378847137 137.72500000149012,234.7976878322661 149.19999999925494,252.1388384043239 177.55000000074506,248.67061219504103 183.625,229.59533314267173 174.17500000447035,225.26003421237692 148.52499999850988,223.52591378847137 137.72500000149012,237.39886352838948 149.19999999925494,253.00589465210214 176.19999999925494,250.40472554368898 184.97500000149012,241.73415391659364 174.17500000447035,221.79179287469015 144.47500000149012,223.52591378847137 139.75,233.93062902381644 151.89999999850988,252.1388384043239 181.59999999776483,248.67061219504103 187.0,238.26592184929177 174.84999999776483,224.39297406189144 143.80000000074506,226.12709424318746 139.07499999925494,238.26592184929177 153.25,253.87295077601448 179.57500000298023,248.67061219504103 186.32499999925494,237.39886352838948 171.47500000149012,221.79179287469015 143.125,226.12709424318746 138.39999999850988,241.73415391659364 150.55000000074506,253.87295077601448 178.89999999850988,248.67061219504103 177.55000000074506,224.39297406189144 151.22499999776483,222.65885339444503 138.39999999850988,240.00003812927753 147.17500000074506,252.1388384043239 181.59999999776483,246.06944125611335 180.92500000074506,226.9941541524604 168.10000000149012,221.79179287469015 149.19999999925494,222.65885339444503 139.75,242.60121162980795 160.0,253.00589465210214 180.92500000074506,247.80355533631518 175.52500000223517,222.65885339444503 140.42500000074506,230.46239256160334 154.59999999776483,253.87295077601448 178.22499999776483,250.40472554368898 187.0,241.73415391659364 177.55000000074506,223.52591378847137 147.84999999776483,223.52591378847137 140.42500000074506,240.86709608323872 150.55000000074506,252.1388384043239 179.57500000298023,250.40472554368898 186.32499999925494,240.00003812927753 171.47500000149012,223.52591378847137 143.125,226.9941541524604 139.07499999925494,238.26592184929177 153.25,253.87295077601448 181.59999999776483,248.67061219504103 186.32499999925494,238.26592184929177 171.47500000149012,222.65885339444503 142.44999999925494,226.9941541524604 143.80000000074506,248.67061219504103 184.29999999701977,246.06944125611335 180.25,226.12709424318746 167.42500000074506,221.79179287469015 144.47500000149012,224.39297406189144 138.39999999850988,241.73415391659364 148.52499999850988,252.1388384043239 182.27499999850988,246.93649835698307 185.64999999850988,235.6647465187125 168.10000000149012,222.65885339444503 141.10000000149012,228.7282736026682 142.44999999925494,248.67061219504103 180.92500000074506,248.67061219504103 179.57500000298023,226.12709424318746 165.39999999850988,223.52591378847137 146.5,224.39297406189144 137.05000000074506,240.86709608323872 174.17500000447035,252.1388384043239 183.625,233.93062902381644 176.19999999925494,226.12709424318746 145.14999999850988,225.26003421237692 137.72500000149012,243.46826921822503 175.52500000223517,252.1388384043239 185.64999999850988,234.7976878322661 165.39999999850988,222.65885339444503 149.19999999925494,223.52591378847137 139.07499999925494,243.46826921822503 157.97500000149012,254.74000678071752 181.59999999776483,249.5376689294353 179.57500000298023,226.12709424318746 167.42500000074506,222.65885339444503 141.77499999850988,230.46239256160334 139.07499999925494,244.33532668510452 154.59999999776483,253.00589465210214 184.29999999701977,243.46826921822503 174.17500000447035,223.52591378847137 159.32499999925494,222.65885339444503 143.80000000074506,226.12709424318746 139.75,246.93649835698307 179.57500000298023,249.5376689294353 180.25,226.9941541524604 167.42500000074506,221.79179287469015 140.42500000074506,227.86121393926442 143.125,250.40472554368898 182.94999999925494,246.06944125611335 179.57500000298023,226.12709424318746 167.42500000074506,222.65885339444503 147.17500000074506,225.26003421237692 138.39999999850988,246.06944125611335 179.57500000298023,250.40472554368898 182.94999999925494,230.46239256160334 157.97500000149012,222.65885339444503 143.80000000074506,226.12709424318746 141.77499999850988,246.93649835698307 183.625,245.20238403324038" stroke="#4dd2ff" stroke-linecap="round" stroke-linejoin="round" stroke-width="0.5"><title>2020-11-29 10.4km</title></polyline></svg>