<?xml version="1.0" encoding="utf-8" ?>
<svg baseProfile="full" height="300mm" version="1.1" viewBox="0,0,200,300" width="200mm" xmlns="http://www.w3.org/2000/svg" xmlns:ev="http://www.w3.org/2001/xml-events" xmlns:xlink="http://www.w3.org/1999/xlink"><defs /><rect fill="#222222" height="300" width="200" x="0" y="0" /><text fill="#FFFFFF" style="font-size:12px; font-family:Arial; font-weight:bold;" x="10" y="20">Over 10km Runs</text><text fill="#FFFFFF" style="font-size:4px; font-family:Arial" x="10" y="280">ATHLETE</text><text fill="#FFFFFF" style="font-size:9px; font-family:Arial" x="10" y="290">Abuqi</text><text fill="#FFFFFF" style="font-size:4px; font-family:Arial" x="120" y="280">STATISTICS</text><text fill="#FFFFFF" style="font-size:3px; font-family:Arial" x="120" y="285">Number: 15</text><text fill="#FFFFFF" style="font-size:3px; font-family:Arial" x="120" y="290">Weekly: 1.1</text><text fill="#FFFFFF" style="font-size:3px; font-family:Arial" x="141" y="285">Total: 205.1 km</text><text fill="#FFFFFF" style="font-size:3px; font-family:Arial" x="141" y="290">Avg: 13.7 km</text><text fill="#FFFFFF" style="font-size:3px; font-family:Arial" x="167" y="285">Min: 10.0 km</text><text fill="#FFFFFF" style="font-size:3px; font-family:Arial" x="167" y="290">Max: 21.6 km</text><polyline fill="none" points="20.444965552538633,74.54155538700434 22.03486178786261,75.59999999999854 23.496163474745117,75.09447561809793 32.53285310632782,69.62832934936887 34.637127535475884,66.92674164386699 37.454517187783495,62.06053910827177 35.43207565310877,61.27054872658482 30.089556685939897,59.95915085465822 29.738844281062484,59.53254782365548 29.90251006995095,58.69513655843912 30.907885630556848,58.45813209140033 31.621000853716396,57.699714005684655 31.726214575232007,57.1150961216772 31.375502170354594,56.24606319332088 31.433954237785656,55.70883904367656 30.919576044019777,54.99780262362765 30.311674542317633,55.01360348815069 29.621940146083944,54.39736791430914 29.423203116690274,53.86013378918142 29.540107251668815,53.40190239158983 30.042795031913556,52.75405440322356 30.627315706689842,50.66827126890712 31.130003486934584,49.893992165569216 32.486091452417895,49.26192312702915 32.86018468416296,48.83527425742068 33.678513628896326,46.89162849095737 33.79541776381666,46.14892455955851 33.60837114788592,45.45362224022392 33.86556024476886,44.995352147387166 34.34486719808774,44.66350007352594 35.1982673832681,44.93214231382444 36.4140703867306,44.61609254407085 36.77647320507094,45.48522699649766 39.909504021692555,45.45362224022392 40.26021642651176,45.01115459947323 40.44726304250071,43.82596372978878 41.96701679681428,43.52571313599037 44.79609686258482,40.41253518360463 45.85992449062178,39.78040594121558 46.29246978997253,38.0894404864448 45.684568288270384,37.030597025157476 45.76640118268551,36.4932691694994 45.439069604850374,35.21315288565529 47.55503444740316,34.10686629242991 47.06403708062135,32.71608855878003 47.16925080207875,32.46321779202117 46.97051377268508,32.400000000001455 47.44982072600396,34.05945373511349 45.53259291278664,35.22895689075813 45.53259291278664,35.750487651646836 45.88330531766405,36.38264248620544 45.813162836653646,37.09381187631516 46.39768351142993,38.13685112421808 46.000209452584386,39.60656969586853 44.85454893007409,40.38092881684861 43.32310476229759,42.30889882608608 41.791660594404675,43.746950503431435 40.423882215458434,43.99979260699911 40.47064386942657,42.76718128621724 40.13162187807029,42.119264087523334 39.593862857320346,41.771599461877486 38.70539143169299,42.13506699617574 39.31329293345334,41.629372674135084 38.646939364261925,40.93403878665413 39.091175077075604,39.891028848462156 38.728772258677054,40.93403878665413 39.38343541446375,41.676781625945296 38.61186812375672,42.087658262644254 37.536350082198624,41.83481130230939 35.759407231002115,40.602173173560004 34.99953035375802,38.70577701651928 34.46177133300807,38.13685112421808 33.86556024476886,37.662743730063085 33.52653825347079,37.94720843759569 33.959083552705124,39.19568281813554 34.48515216005035,39.95424188308971 38.10918034345377,42.609153090030304 37.94551455456531,46.59138714333676 40.540786350436974,52.21681141046429 41.49940025701653,53.291294496877526 42.20082506671315,53.67052105287439 38.75215308566112,60.32255199492647 34.052606860757805,68.2696452789678 32.86018468416296,69.50194091554295 31.609310440253466,70.3550597307185 22.946714040474035,75.44202390628925 21.95302889344748,75.59999999999854" stroke="#4dd2ff" stroke-linecap="round" stroke-linejoin="round" stroke-width="0.5"><title>2023-08-13 11.1km</title></polyline><polyline fill="none" points="86.29467641655356,32.39999999999418 82.59807514469139,38.89156560465926 79.49432502011769,46.32312662497861 82.38883356330916,47.66616133003845 84.96947973407805,45.78591115793097 86.53879159502685,42.29398854635656 89.39842654112726,41.0404685313988 92.57192385941744,42.11491456037038 93.86224694503471,45.24869478525943 93.09502781298943,47.08418031941983 90.8631176110357,49.14349296799628 90.27026646374725,53.038243547518505 87.2013899362646,55.366117717378074 84.65561736188829,59.35032443376258 84.72536455607042,61.23049457324669 86.1551820288878,62.707763329468435 90.65387602965347,64.05072898362414 92.85091263474897,69.33300564915407 94.3853508986067,70.00447522423929 97.14036505389959,69.7806521897437 98.74455051170662,70.63117888465058 100.52310395380482,73.76467870068154 102.0226686205715,74.92854221421294 107.53269693162292,74.21231901660212 111.26417180034332,71.61599643231602 111.40366618800908,66.02040170598775 112.44987409515306,61.40955781750381 119.94769742945209,47.08418031941983 119.66870865412056,45.159158635127824 118.09939679363742,42.96551509728306 119.91282383259386,43.905649891123176 120.71491656149738,45.74114316146006 120.50567498011515,47.93476759188343 112.90323085477576,62.439169519464485 111.99651733529754,71.83981817794847 110.04359590867534,73.80944276059745 107.84655930357985,74.88377831139951 105.3007867296692,75.60000000000582 102.05754221742973,75.24188935698476 100.52310395380482,74.34661098875222 99.09328648052178,71.52646769018611 97.6634690077044,70.27306265814696 94.28073010779917,70.31782720854972 92.57192385941744,69.64635829356848 90.40976085141301,64.67744435209897 89.01481697522104,63.3792468640313 85.5274572847411,62.75252894242294 84.48124937759712,61.49908940191381 84.58587016817182,58.992195530445315 87.06189554836601,54.918450928409584 89.92153049493209,53.17254444267019 90.58412883593701,49.053957912139595 93.12990140984766,46.6812697663845 93.47863737912849,44.17425932284095 92.39755587512627,42.607367779593915 89.67741531645879,41.44338621679344 87.16651633940637,42.47306243158528 85.7018252692651,46.18882284301799 82.24933917587623,48.919655281177256 81.65648802835494,52.63534052268369 82.1447183850687,48.42721181712113 85.49258368788287,45.74114316146006 86.71315957955085,42.38352550150012 88.14297705260105,41.398617610306246 90.47950804512948,41.26431175280595 93.09502781298943,42.9207467045926 93.86224694503471,44.890550033713225 93.68787896027789,46.14405490324134 90.79337041731924,49.3225630040688 89.85178330074996,53.575446788425324 87.09676914545707,55.58995087596122 84.72536455607042,59.21602614221047 84.69049095897935,61.45432361282292 85.94594044750556,62.707763329468435 88.9799433783628,63.11065361998044 90.8282440144103,64.36408682190813 92.25806148722768,68.52724029155797 93.47863737912849,69.8701814225642 97.69834260456264,70.13876896954025 101.42981747328304,74.65995870367624 104.84742996981367,74.97330611053621 108.61377843562514,73.94373490253929 111.54316057544202,71.3026457245578 111.36879259115085,66.33375760752824 112.17088531982154,61.63338673135149 119.45946707297117,48.24814127778518 119.91282383259386,46.6812697663845 119.52921426668763,44.80101378291147 120.19181260792539,44.93531814959715 120.57542217383161,47.57662585913204 113.00785164535046,61.857215487922076 112.20575891667977,66.96046848635888 112.31037970725447,71.07882360188523 111.36879259115085,72.69033937732456 108.05580088496208,74.83901440253248 103.8012220626697,75.60000000000582 100.76721913204528,74.74948656567722 97.8727105888538,70.45212082169019 92.8857862316072,69.91494602937018 90.30514006083831,64.45361757630599 86.29467641655356,63.11065361998044 84.51612297445536,61.63338673135149 84.58587016817182,58.85789708796074 87.23626353312284,54.87368421498104 89.57279452565126,53.620213684189366 90.40976085141301,51.784765797143336 90.47950804512948,49.053957912139595 93.0601542161312,46.815573340660194 93.51351097598672,44.98008625928196 92.50217666570097,42.607367779593915 89.99127768864855,41.398617610306246 87.96860906807706,41.93584047380136 85.10897412197664,45.830679147999035 81.69136162521318,47.93476759188343 79.28508343873546,46.41266244809958 80.22667055530474,44.53240487957373" stroke="#4dd2ff" stroke-linecap="round" stroke-linejoin="round" stroke-width="0.5"><title>2023-07-20 10.9km</title></polyline><polyline fill="none" points="147.70025751064532,34.19809522017022 144.39999999990687,42.57621019848739 146.1799141629599,44.004277313448256 147.7744206006173,43.9566751732782 150.14763948484324,42.481005510053365 151.33424892672338,39.19642738069524 153.89287553634495,37.29230953779188 157.9718454934191,38.529987352958415 159.3438626609277,41.29094464876107 158.97304721013643,43.00463096486055 156.15484978538007,45.86075556508149 155.52446351922117,50.04969476372935 152.22420600848272,52.810558194993064 149.55433476367034,56.76140983897494 149.77682403405197,59.046218682517065 151.4454935619142,60.42661655988195 155.59862660919316,61.759409174876055 156.97064377670176,63.56819076757529 157.60103004262783,66.42414204639499 159.01012875535525,67.94730621989584 162.60703862644732,67.56651581835467 164.53527896967717,68.6612870694662 166.64892703853548,72.32636508296127 167.94678111560643,73.18313085046248 174.4360515018925,72.23116875288542 177.62506437767297,69.94644880783744 179.0341630897019,58.903418581117876 187.0066952786874,43.52825561063946 186.3392274675425,40.57690612561419 184.93012875528075,39.00601607793942 186.30214592255652,39.38683857637807 187.52583690965548,41.052931974845706 187.5999999998603,44.57550247426843 179.84995708125643,59.37941868507187 178.8487553645391,64.09178363729734 178.77459227433428,69.70845626093796 176.40137339034118,72.18357057787944 172.69321888382547,73.80190477985889 167.90969957062043,73.61151292195427 166.01854077237658,72.04077601246536 164.1273819738999,68.6612870694662 158.19433476380073,67.80450986948563 155.85819742479362,62.330604405055055 154.11536480672657,60.99781403684756 151.07467811135575,60.902614524180535 149.55433476367034,59.23661872415687 149.36892703850754,56.28540605746093 152.2983690984547,51.71573573278147 155.0794849784579,50.00209347292548 156.19193133036606,45.05152270605322 158.63931330433115,42.95702868429362 159.15845493529923,41.10053452296415 158.3055793987587,39.29163299186621 154.89407725306228,37.81594301131554 153.4108154505957,38.00635498279007 152.0017167381011,39.19642738069524 150.29596566502005,43.38544896928943 147.7373390556313,45.05152270605322 147.88566523580812,44.480298347683856 150.6296995705925,42.29059605303337 151.48257510713302,39.101221742719645 153.81871244614013,37.33991261420306 155.33905579382554,37.33991261420306 158.7505579397548,39.38683857637807 159.04721030034125,42.9094263970328 156.3773390557617,45.76555179973366 155.45030042901635,50.525707305176184 152.26128755346872,52.66775546580902 149.88806866924278,56.523408031847794 149.73974248906597,58.617818197846645 150.6667811155785,59.950617927039275 154.56034334748983,61.09301352270995 155.8952789697796,62.14020610207808 158.37974248919636,67.66171345880139 163.60824034316465,68.28049747017212 165.16566523583606,69.42286498422618 167.16806866927072,73.04033670638455 170.76497854059562,73.70670886425069 174.51021459209733,72.75474823749391 177.2542489268817,70.70802383450791 178.99708154494874,58.617818197846645 186.74712446308695,44.242287914210465 186.0796566521749,40.529303503833944 187.0066952786874,41.38614967139438 187.48875536443666,43.147437766747316 187.08085836889222,44.81351267383434 179.62746781110764,58.379817694512894 178.55210300418548,62.61620165916975 178.14420600840822,69.75605478385114 176.40137339034118,71.6599902108428 173.58317596558481,73.1355328092177 170.28291845461354,73.75430682551814 167.39055793965235,73.32592493444099 164.57236051466316,69.23247066600015 162.42163090105169,68.2328987402434 159.12137339031324,68.37569491012255 157.67519313283265,67.51891698819236 155.33905579382554,62.28300483938074 150.11055793985724,60.37901672674343 149.0722746779211,58.52261801651912 149.36892703850754,56.28540605746093 151.74214592250064,52.33454886355321 154.9682403432671,50.09729604804306 155.7840343345888,45.81315368573996 158.7505579397548,42.766619494825136 158.8988841199316,40.91012429035618 157.89768240321428,39.19642738069524" stroke="#4dd2ff" stroke-linecap="round" stroke-linejoin="round" stroke-width="0.5"><title>2023-07-11 10.1km</title></polyline><polyline fill="none" points="30.103849056642503,97.10385961047723 28.2780377358431,98.90357420913642 27.788981132092886,102.79594301758334 24.88724528311286,104.72118191048503 22.963622641400434,107.94383656329592 22.63758490572218,109.49237250362057 23.126641509588808,110.45497186933062 27.984603773569688,112.33830945959198 30.886339622666128,117.69529351466917 34.440150943468325,117.56974030315178 35.90732075471897,118.19750583177665 37.79833962279372,121.67111784935696 38.972075471654534,122.50812673865585 43.60181132075377,122.08962258775136 47.123018868034706,120.29004804143915 47.77509433962405,118.69971730242833 47.80769811326172,113.97052574151894 48.62279245280661,110.1201550513797 55.5347924529342,97.0201516902016 54.850113207590766,93.79737887263764 53.708981132134795,92.4161798498244 26.387018868117593,81.19893241781392 25.506716981180944,82.0360550195619 23.25705660379026,87.93770261041936 18.529509434010834,95.05300879123388 18.170867924578488,96.14121710663312 20.192301886738278,98.02464518210036 19.605433962424286,102.08443853902281 16.24724528309889,107.44160696235485 16.116830188664608,112.63127201475436 13.801962264231406,114.01237732343725 12.758641509455629,115.85384110966697 13.280301886843517,117.4860381327453 14.617056603776291,118.99267360265367 17.160150943440385,119.11822621454485 18.627320754691027,120.16449592314893 14.454037735937163,119.1600770734949 12.465207547065802,117.06752692788723 12.400000000023283,115.51903035864234 13.247698113205843,114.09608046969515 15.692981132073328,112.17090215583448 15.88860377355013,107.23234437868814 19.377207547193393,101.66590569910477 20.192301886738278,97.94093752032495 23.159245282993652,95.68082176585449 24.26777358481195,92.75101656457991 25.37630188697949,91.7883599952329 26.810867924592458,91.24424838434788 29.777811320731416,92.20690671191551 30.918943396303803,93.96479650092078 30.918943396303803,97.1457135618839 29.0931320755044,98.73615935625276 27.72377358493395,103.04706183966482 25.44150943402201,104.42821157720755 22.963622641400434,108.15309864716255 22.963622641400434,109.95274650133797 24.30037735856604,111.1246043764404 27.788981132092886,112.25460581947118 28.897509433911182,113.3846029767883 30.20166037743911,117.15122921590228 31.47320754721295,117.9045487496769 34.2771320756292,117.69529351466917 36.23335849063005,119.36933127971133 37.6027169812005,121.83851981526823 38.67864150938112,122.42442595545435 42.94973584904801,122.17332346504554 47.31864150951151,119.66228692157893 47.70988679246511,113.21719626089907 48.55758490576409,109.99459864766686 55.46958490565885,97.18756750744069 55.11094339611009,94.38334015998407 53.54596226417925,92.45803445976344 26.419622641522437,81.11522002835409 25.474113207426853,81.91048677929211 18.040452830144204,95.38784254231723 18.236075471621007,96.3086334176187 19.96407547185663,97.81537598394789 19.312000000150874,101.79146561271045 15.692981132073328,107.86013168859063 15.823396226391196,112.42201307616779 13.671547169913538,114.01237732343725 12.693433962296695,115.85384110966697 12.758641509455629,117.0256757751049 14.714867924456485,119.11822621454485 17.6492075471906,119.70413770398591 14.486641509342007,119.03452447912423 12.595622641500086,116.90012228139676 12.400000000023283,115.72828712203773 13.215094339568168,114.05422889947658 15.56256603775546,112.25460581947118 15.921207547187805,107.10678675796953 17.94264150946401,104.63747613041778 19.34460377355572,101.70775900949957 20.15969811321702,98.02464518210036 23.517886792425998,95.22042571386555 24.822037735953927,92.08134275866905 26.973886792548,91.03497442329535 30.26686792448163,92.7091619958519 31.27758490573615,95.84823833580595 28.832301886752248,98.98728160033352 27.886792452889495,102.79594301758334 25.311094339587726,104.34450571474736 22.800603773561306,108.06939383133431 23.0288301887922,110.41311978764134 28.2780377358431,112.58942023882992 30.658113207668066,117.56974030315178 35.35305660380982,118.61601544939913 37.43969811336137,122.00592168714502 38.613433962338604,122.88477997164591 44.05826415098272,122.1314730294398 47.253433962352574,119.87154077514424 48.0359245283762,111.25016030398547 49.43788679246791,107.60901692329207 55.43698113213759,97.10385961047723 54.850113207590766,94.17406840389594 53.93720754724927,93.00214385369327 49.177056603715755,90.74199063080596 26.25660377368331,81.3245009581151 25.311094339587726,81.95234286520281 17.747018867987208,95.72267591723357 18.170867924578488,96.81088178636855 19.898867924581282,97.85722983529558 19.605433962424286,100.74513138143811 17.94264150946401,104.21894687699387 15.56256603775546,107.48345946133486 15.399547169916332,108.7808840169746 19.70324528310448,101.07995873535401 20.5835471698083,97.64796051941812 23.354867924470454,95.59711344566313 25.115471698110923,91.95577875254094 27.625962264137343,91.32795792765683 30.592905660392717,93.25327093119267 31.212377358577214,96.05750891577918 28.701886792550795,99.53137906952179 28.115018868003972,102.29370473846211 24.985056603793055,104.84674053653725 22.83320754719898,108.23680343956221 23.126641509588808,110.53867601507227 27.886792452889495,112.33830945959198 30.071245283121243,117.06752692788723 31.342792452778667,117.82084667333402 34.374943396425806,117.9045487496769 35.972528301994316,119.20192792656599 38.124377358471975,122.54997712135082 44.02566037746146,122.08962258775136 45.884075471782126,121.16891138712526 47.449056603829376,119.57858533898252 47.70988679246511,114.05422889947658 48.62279245280661,109.95274650133797 55.27396226429846,97.68981439442723 55.59999999997672,95.97380070129293 54.98052830202505,94.13221403508214 54.035018867929466,92.87658023563563 32.58173584914766,84.08699545197305 32.94037735846359,84.37998578962288 32.19049056607764,86.93317510696943 30.006037735845894,91.45352219854249 31.47320754721295,94.38334015998407 30.886339622666128,97.27127538074274 31.57101886800956,94.04850527975941 29.582188679254614,90.57457119150786 32.67954716994427,83.83586064755218 26.64784905675333,81.15707622599439 25.669735849136487,81.99419894538005 18.138264150940813,95.97380070129293 20.15969811321702,98.15020663040923 19.57283018878661,101.66590569910477 16.05162264162209,107.65086939893081 15.95381132082548,112.38016127076116 12.726037735817954,115.60273308170144 12.986867924570106,117.31863372135558 14.356226415140554,118.9089718319592 13.01947169797495,117.73714457347523 12.595622641500086,115.1842192314507 15.823396226391196,112.25460581947118 16.019018867868,107.60901692329207 19.670641509466805,101.49849239838659 20.15969811321702,98.48503690052894 23.583094339701347,95.55525927685085 24.985056603793055,92.20690671191551 26.64784905675333,91.36981269053649 30.071245283121243,92.83472568454454 30.951547169825062,94.17406840389594 30.78852830186952,96.09936301407288 28.701886792550795,98.10835282021435 30.69071698107291,97.43869105679914" stroke="#ff0a00" stroke-linecap="round" stroke-linejoin="round" stroke-width="0.5"><title>2023-07-01 21.2km</title></polyline><polyline fill="none" points="94.45642620965373,80.86609711826895 98.17076028580777,83.08901012295973 99.25992591725662,86.10066781775095 100.74007408285979,85.63458026127773 102.77876872615889,86.60260731101152 103.9517163290875,85.99310922640143 104.00757097697351,85.09678586910013 103.16975126054604,83.69851514446782 100.74007408285979,82.65877040757914 98.7013794395607,80.39999999999418 97.08159465447534,82.19267656398006 98.53381549636833,83.55510232926463 98.98065267829224,86.1365206714836 98.25454225763679,83.4833958914096 94.48435353359673,80.97365787078161 93.25555128289852,80.93780429169419 89.54121720674448,87.67818861454725 89.31779861578252,89.2556996588246 84.70979017543141,96.67704120950657 84.54222623223905,98.3261989101884 83.3972059530206,100.3697056232777 85.65931918739807,101.44522889936343 87.67008650687058,100.26215304626385 88.75925213820301,97.82428247731877 90.96551072469447,96.35437867359724 93.56275184568949,96.82044665009016 94.84740874392446,97.96768727316521 95.12668198288884,99.97534595278557 92.50151353818364,102.87925288302358 92.1105310037965,106.03407728168531 89.70878115005326,107.7548741515493 87.55837721121497,110.94548764522187 87.4745952396188,111.84172021431732 88.703397490317,113.52662892368971 91.10514734417666,114.02851447410649 93.00420536810998,115.39077027849271 94.42849888594355,118.97561922878958 99.23199859331362,119.97936791132088 100.34909154847264,122.23778801356093 101.85716703801882,123.38491438032361 106.0462656202726,122.73965643343399 108.14081491122488,121.5208314160991 109.14619857096113,120.01521600552951 109.14619857096113,116.10774409695296 110.45878279337194,110.87378890370019 115.65326503501274,101.44522889936343 115.40191912010778,98.57715675630607 116.6027940469794,100.08289865069673 116.21181151270866,101.98298883749521 110.34707349783275,112.70210051964386 109.36961716192309,120.98311264623771 107.44263181416318,122.66796100517968 104.09135294845328,123.60000000000582 100.96349267393816,122.99059027328622 99.31578056502622,120.19445640116464 97.80770507548004,119.33410135420854 94.37264423817396,119.11901213935926 92.44565889029764,115.10398018703563 90.99343804863747,113.99266553891357 88.56376087083481,113.52662892368971 87.72594115452375,112.59455314013758 87.55837721121497,110.62284314981662 89.51328988280147,107.36052589380415 91.85918508889154,105.81897685703007 92.38980424252804,102.77170136370114 94.45642620965373,100.47725815483136 94.79155409627128,99.22247579903342 94.37264423817396,97.8959848852246 93.61860649334267,97.21481119593955 91.44027523056138,96.60533845899045 89.70878115005326,97.28651377520873 88.39619692775887,100.33385476926924 85.79895580676384,102.3773454054026 85.3800459485501,104.99442354982602 84.29088031721767,106.78692733999924 85.74310115911067,102.26979367466993 88.1448510128539,100.40555647210567 89.23401664406992,97.78843126571155 90.32318227540236,96.74874393976643 92.1105310037965,96.49778429541038 94.23300761869177,97.4657701352262 95.01497268734965,98.57715675630607 94.59606282913592,100.79991547763348 92.641150157433,102.62829926758423 92.22224029933568,105.7114265767741 89.70878115005326,107.71902433517971 87.80972312623635,110.87378890370019 87.69801383058075,112.20021236070897 88.36826960381586,113.38323287086678 91.4682025546208,114.10021232924191 92.66907748137601,114.99643381976057 94.45642620965373,119.15486035437789 95.51766451715957,119.54919038782828 97.55635916045867,119.19070856444887 99.3437078888528,119.97936791132088 100.37701887241565,122.45287460004329 101.4382571799215,123.31321913344436 105.62735576194245,123.13398092816351 108.95070730382577,120.94726468800218 109.42547180969268,119.76427924024756 109.36961716192309,115.92850083106896 110.90561997541226,110.5152948940231 115.9883929216303,101.3018260577519 115.65326503501274,98.72056112904102 116.0163202455733,99.29417781409575 114.75959067093208,97.60917513250024 115.9604655978037,99.07907170828548 116.23973883665167,101.05087089110748 115.87668362609111,98.57715675630607 113.92177095450461,96.64118983680964 97.05366733064875,89.43496166038676 98.67345211561769,86.63846009419649 99.9301816902589,85.67043318055221 103.19767858448904,86.53090172962402 104.25891689176206,85.77799190784572" stroke="#4dd2ff" stroke-linecap="round" stroke-linejoin="round" stroke-width="0.5"><title>2023-06-23 11.0km</title></polyline><polyline fill="none" points="186.05292215867667,116.75390477750625 183.00174086051993,116.14672485242772 181.77697090274887,115.23594791713549 179.17702064168407,114.39416171390621 177.90927629946964,113.67656777061347 175.09445411589695,112.61396709589462 172.408555085829,111.86875975484872 167.67062919674208,111.37195171514759 165.0062173588667,110.2265235892919 161.77239492663648,106.96957051805657 160.2682914697798,106.26572322607535 155.670032330323,102.9810357342576 154.12295448890654,101.00741008421755 152.83372295449954,100.06888884643558 152.2320815718267,98.79911052108218 150.97508082573768,96.94962136969843 148.90156677440973,95.05868967898277 147.44043770205462,92.73983315497753 146.72061676200246,92.2153222883353 146.10823178314604,91.37333845083049 145.29171847796533,89.81357879532152 144.40000000002328,87.1218997917531 146.29087291716132,91.51136908367334 147.76274558570003,93.029693219607 148.89082317834254,94.90686146528606 151.06102959468262,96.991028225013 152.30728674458805,98.73010035840707 152.97338970407145,100.11029438458354 154.42377518030116,101.28344403294614 155.72375031089177,102.9672342942431 160.31126585428137,106.21051930325484 161.81536931119626,106.96957051805657 164.92026858992176,109.97811572456703 166.10206416319124,110.66813601758622 165.11365332006244,110.28172525162518 161.69718975381693,106.91436699147744 159.87077841331484,105.97590228456829 155.358468042803,102.67740360433527 154.33782641135622,101.24203899018903 152.704799801053,99.87566277065343 152.12464561057277,98.61968399705802 150.95359363342868,96.9082144969434 148.91231037059333,95.00347944662644 148.37513056455646,94.2167302583839 149.38502859981963,95.41755543116597 151.03954240237363,96.86680760668969 152.33951753296424,98.77150646183873 152.9089281273773,100.01368143508444 154.359313603607,101.15922885217151 155.58408356131986,102.81541832540097 159.86003481724765,105.89309614401282 161.7294205421931,106.87296432611038 165.0384481472429,110.15752146777231 167.58468042773893,111.19254819343769 171.33419547381345,111.785958589644 172.2366575478809,111.71695756528788 174.29942800302524,112.31036478863825 181.5620989804156,115.07035120205546 183.10917682171566,116.21572276046936 183.78602337726625,116.14672485242772 185.38681919925148,116.58831062525132 187.60000000003492,116.75390477750625 186.6438199453405,116.87810020823963 185.9884605819825,116.80910276613577 186.22481969662476,116.74010527550854" stroke="#4dd2ff" stroke-linecap="round" stroke-linejoin="round" stroke-width="0.5"><title>2023-05-28 13.0km</title></polyline><polyline fill="none" points="30.997746055596508,142.20934829243924 30.60826446278952,144.66761249591946 28.33628850488458,146.70920626132283 28.04417731030844,149.7924028604757 24.89586776867509,152.66724648838863 22.78617580770515,155.83370866961195 22.656348610064015,157.54191765064024 23.662509391549975,159.0418003515515 26.87573253212031,159.70841245068004 28.33628850488458,160.79165391621063 30.54335086408537,165.66619155404624 35.022389181074686,166.0411526695534 38.20315552235115,170.20735539359157 40.18302028556354,170.7489574495412 44.72697220148984,169.79073775443248 47.68054094677791,166.95772228986607 48.07002253946848,160.12504425176303 50.04988730279729,154.79211299921735 55.47017280256841,145.04260015964974 55.59999999997672,143.4176501930633 54.91840721271001,141.834357046464 53.782419233815745,140.70938046369702 35.152216378832236,132.5427558560914 26.161682945210487,129.45937991855317 22.753719008294865,136.87609487818554 20.092261457582936,140.16772354999557 18.307137490599416,143.8343048793031 20.708940646145493,144.91760432437877 23.0782870023977,143.29265367303742 24.246731780702248,140.45938508800464 25.577460556058213,139.25107113455306 28.141547708539292,138.75107771382318 29.95912847481668,139.5010675287631 31.354770848993212,141.417699550424 31.549511645454913,143.79263943704427 29.472276483895257,146.75087129394524 28.271374906180426,150.83401608970598 25.28534936136566,152.79223905759864 23.175657400628552,156.20868221556884 23.467768595088273,158.45851353585022 28.109090909245424,160.16670739962137 29.050338091677986,161.29161018130253 29.861758076702245,164.29133007509517 30.932832456892356,165.5412044103432 34.697821187088266,165.62452917860355 36.1259203607915,166.29112648323644 38.722464312566444,170.24901712534484 41.35146506386809,170.4573256962176 44.791885800193995,169.74907595835975 47.48580015031621,167.58265449781902 47.810368144186214,161.49992504302645 48.654244928620756,158.12520626900368 55.47017280256841,144.83427373840823 55.34034560492728,142.75100147738704 54.13944402709603,141.0427073033643 26.583621337427758,129.33437751533347 25.31780616089236,130.7510683350556 18.307137490599416,143.87597031579935 20.67648384673521,145.16759594206815 22.98091660416685,143.50098117714515 25.350262960186228,139.29273721494246 26.778362133773044,138.626079226844 29.30999248684384,138.87607614792068 31.354770848993212,140.50105099851498 31.64688204356935,143.70930853500613 29.147708489908837,147.334181135142 28.823140495922416,149.91739664110355 27.914350112783723,151.20899595684023 25.415176559239626,152.58391807987937 23.175657400628552,155.87537242047256 23.110743801807985,157.79189862756175 24.084447783767246,159.00013704560115 28.693313298281282,160.74999085607124 30.77054845984094,165.4162172137003 34.860105184139684,165.66619155404624 36.710142749827355,167.12437100731768 38.268069121055305,169.9990466471936 39.793538692756556,170.5406490835885 42.48745304287877,170.4573256962176 45.019083395949565,169.49910505893058 47.58317054854706,167.04104666024796 47.84282494371291,161.33327316542272 48.751615326851606,157.54191765064024 55.535086401272565,144.87593903430388 55.437716003041714,143.25098815455567 54.204357625800185,141.20937058288837 41.83831705490593,135.4177666993346 26.22659654414747,129.37604498895234 18.177310293074697,143.8343048793031 20.51419984968379,145.16759594206815 22.916003005346283,143.4176501930633 24.279188580112532,140.45938508800464 26.09676934638992,138.9594084082346 29.017881292267703,138.91774228098802 31.38722764851991,140.4177191715862 31.7442524418002,142.83433264881023 31.28985725028906,144.54261650281842 29.27753568754997,146.83420134152402 28.433658903231844,150.41737123698113 25.31780616089236,152.66724648838863 23.110743801807985,156.16701851168182 23.110743801807985,158.04187939374242 24.246731780702248,159.08346365165198 26.421337340492755,159.54175956637482 28.498572501935996,160.83331697055837 30.575807663379237,165.4162172137003 35.21712997753639,165.79117864527507 36.74259954923764,167.12437100731768 38.43035311799031,170.12403191253543 42.29271224653348,170.41566399359726 45.27873779123183,169.58242871548282 47.71299774595536,167.16603317207773 47.84282494371291,161.4165991160553 48.71915852755774,157.87522557302145 55.437716003041714,145.29259167198325 55.30788880540058,142.62600467633456 53.87978963193018,140.75104633910814 26.32396694214549,129.2510425504588 18.047483095433563,144.08429741015425 20.12471825699322,145.20926119116484 22.52652141265571,143.87597031579935 24.3116453794064,140.08439162917784 26.09676934638992,138.9594084082346 29.30999248684384,139.08440675461316 31.22494365158491,140.45938508800464 31.61442524427548,143.37598469224758 30.96528925630264,144.9592696085747 28.952967693447135,146.9175313655578 28.563486100756563,150.41737123698113 25.123065364547074,152.8755674077256 22.98091660416685,156.16701851168182 23.045830202871002,157.79189862756175 23.922163786715828,158.95847373388824 26.551164538017474,159.45843308910844 28.271374906180426,160.5416754676262 30.932832456892356,165.5412044103432 35.282043576356955,165.83284099740558 36.83996994746849,167.37434390810085 37.58647633367218,169.62409053504234 38.56018031551503,170.24901712534484 42.58482344110962,170.41566399359726 45.31119459064212,169.58242871548282 47.550713749136776,167.41600603770348 48.199849737109616,158.50017691779067 55.437716003041714,144.58428183969227 55.04823441023473,142.20934829243924 53.652592036058195,140.54271690329188 34.34079639380798,132.2510865321965 26.22659654414747,129.37604498895234 18.209767092368565,143.7509739889647 18.469421487650834,144.66761249591946 20.319459053571336,146.00089981249766 19.962434260058217,149.04243907012278 15.970247933990322,155.7920449131052 16.164988730219193,160.12504425176303 12.951765589765273,163.58306561392965 13.341247182688676,165.4995420172636 14.671975957928225,166.95772228986607 17.495717505691573,167.16603317207773 18.988730278098956,168.3742334045819 14.477235161699355,166.9993844779965 13.016679188702255,165.5412044103432 12.400000000023283,163.91636674743495 13.633358377264813,161.70823975859093 15.80796393705532,160.29169680835912 16.03516153281089,155.37540702530532 19.8001502630068,149.25076253546285 19.962434260058217,146.50088101092842 20.741397445555776,145.20926119116484 23.208114199806005,143.7509739889647 24.3116453794064,140.8343780724099 25.22043576266151,139.87606172516826 27.038016529055312,139.12607285831473 29.40736288507469,139.87606172516826 30.900375657365657,141.25103638818837 31.38722764851991,142.87599822576158 29.115251690498553,147.334181135142 28.271374906180426,150.58402924836264 25.28534936136566,152.83390323549975" stroke="#ff0800" stroke-linecap="round" stroke-linejoin="round" stroke-width="0.5"><title>2023-05-21 21.2km</title></polyline><polyline fill="none" points="119.9260804769001,164.88719577569282 116.95380029809894,164.1705116865196 115.0438152012066,162.98521495571913 113.38062593148788,162.51660531554808 112.007153502258,161.71720722623286 108.55201192252571,160.44918308299384 106.2879284649971,159.82894790457067 101.4163934426033,159.36032316517958 99.02354694489622,158.29901767310366 98.18658718332881,157.26526750242192 95.85812220571097,155.0874647742021 94.16274217586033,154.19151921426965 89.66676602087682,150.93847874402854 88.32548435172066,149.1878571636771 86.81251862889621,147.9610249668549 86.35111773473909,146.89959594731772 85.06348733237246,145.0799765778429 83.04619970195927,143.19139647722477 81.62980625929777,140.94435226872884 80.12757078988943,139.35898330834607 79.4408345753327,138.04931132937054 78.40000000002328,135.05767910418945 80.37436661700485,139.662273268812 81.7049180327449,140.88920943137782 83.0998509687488,143.17761108712875 85.06348733237246,144.96969552946393 86.94128166913288,148.08508734815405 88.43278688524151,149.28434893176018 89.64530551416101,150.89712583922665 94.0876304024132,154.0812484251146 95.75081967213191,154.8807088339454 99.09865871828515,158.20253478544328 101.66318926977692,159.2638413228924 103.42295081971679,159.37410627772624 105.11833084950922,159.80138180552603 106.25573770492338,159.77381569865975 108.58420268259943,160.40783419325453 115.51594634872163,163.10925830872293 117.00745156488847,164.1842941223149 119.35737704922212,164.7218076050849 121.59999999997672,164.95610743100406 119.41102831601165,164.77693702631223 116.95380029809894,164.22564141800103 115.33353204175364,163.05412794896984 108.43397913564695,160.36648528610385 106.36304023850244,159.84273095122626 101.53442622948205,159.30519069549337 99.08792846498545,158.312800935033 95.68643815204268,154.89449257686647 94.05543964233948,154.1225999856324 89.50581222056644,150.92469444439485 88.50789865874685,149.42219414979627 86.87690014910186,148.09887204749975 86.26527570787584,146.7893169479139 84.90253353206208,144.88698466166534 83.17496274219593,143.31546490084293 81.51177347241901,140.83406656297302 80.2563338301261,139.62091560222325 79.10819672129583,137.2497135094236 78.4321907600388,135.04389256900322 79.36572280176915,137.6357270653025 80.36363636364695,139.63470149300701 81.75856929959264,141.01328077173093 83.06766020867508,143.09489870574907 84.9454545454355,144.79048856095324 86.41549925482832,146.85824133706774 86.85543964232784,147.91967080485483 88.56154992553638,149.36705608590273 89.53800298064016,150.7592826970067 94.37734724296024,154.19151921426965 95.79374068556353,154.8531413422752 99.13084947841708,158.20253478544328 101.72757078986615,159.23627506476623 106.94247391953832,159.91164615524758 111.49210134131135,161.51046527936705 106.7064083457808,159.91164615524758 105.12906110280892,159.81516485598695 103.39076005964307,159.42923870866798 101.81341281667119,159.41545560379745 98.91624441137537,158.18875150803797 95.84739195229486,155.05989734074683 94.07690014905529,154.13638383523357 89.98867362149758,151.15902727492357 94.35588673624443,154.24665456230287 95.78301043220563,154.9220600569024 99.45275707897963,158.35415070910676 101.6309985097032,159.277624449016 102.65037257829681,159.277624449016 105.19344262301456,159.80138180552603 106.33084947837051,159.77381569865975 108.09061102836858,160.22865546951653 115.33353204175364,163.01278015882417 117.01818181818817,164.1705116865196 119.28226527571678,164.62533104330214" stroke="#ff0000" stroke-linecap="round" stroke-linejoin="round" stroke-width="0.5"><title>2023-05-14 21.6km</title></polyline><polyline fill="none" points="184.09173612762243,164.02277520863572 181.50940700166393,163.53383593247418 179.9661824243958,162.48987598614622 177.70278637768934,161.78949129057582 176.6225291736191,161.10231632466457 173.07311264588498,159.66187556184013 171.4064301024191,159.30506572044396 170.0998332935851,159.29185051506647 168.42286258633249,158.8557476955757 166.653298404417,158.8028866101231 164.33846153848572,157.83816657482384 163.58742557751248,156.91308326116996 161.0256727792439,154.54747162931017 159.87339842820074,154.0716989641296 158.49478447251022,153.00120165448607 157.5997142176493,152.5915019244494 155.19228387711337,150.71478999224928 154.24577280302765,149.32705634437298 152.70254822575953,148.0846869184752 150.74779709451832,144.99190865831042 148.50497737561818,143.00930491024337 147.45558466308285,141.238143491355 146.34446296736132,140.2335893304844 145.28478209092282,138.18479424126417 144.40000000002328,135.6204328718013 146.13869969034567,139.77096208917646 146.6531078828266,140.49794673066208 147.53788997384254,141.2249257432195 148.92679209331982,143.39261156592693 150.74779709451832,144.9786914386059 152.07497023098404,146.89516887364152 152.5482257680269,147.96573579208052 154.0400095260702,149.18167353733588 155.25401286018314,150.83373763640702 159.72936413431307,153.9791873326758 161.28287687542615,154.82500457088463 164.41047868540045,157.91745900631213 166.75618004286662,158.84253242697014 169.94551083591068,159.35792652322561 171.4064301024191,159.37114171923167 173.29945225053234,159.93939339021745 179.90445344126783,162.48987598614622 181.60200047626859,163.58669435533375 183.62876875448273,164.04920428623882 186.4374374850886,164.37956712820596 187.60000000003492,164.03598974837223 187.56913550850004,163.83777145753265 186.93126934982138,163.9434879313776 186.87982853059657,164.2606366389591 186.24196237197611,164.2606366389591 181.67401762324153,163.58669435533375 179.46206239581807,162.29165443234524 173.76241962373024,160.00546894277795 171.2726839723764,159.27863530789182 169.9146463443758,159.26542009883997 168.5566087163752,158.94825452342047 166.88992617290933,158.96146977713215 164.0709692784003,157.79852033399948 161.09768992621684,154.81178873512545 159.65734698739834,154.09813084208872 155.0996904025087,150.79408843840793 153.96799237915548,149.28740651021508 152.48649678495713,148.05825334785186 152.0029530840693,147.0273382893938 150.6449154560687,145.00512587618869 148.84448678256012,143.4058290088724 147.5173136460944,141.34388540936925 146.30331031198148,140.1939356562507 145.19218861631816,137.98652137605677 144.5028816385311,135.77905519501655" stroke="#4dd2ff" stroke-linecap="round" stroke-linejoin="round" stroke-width="0.5"><title>2023-05-07 13.6km</title></polyline><polyline fill="none" points="12.399999999906868,190.89567408629227 29.299173553474247,201.2850043203216 32.98842975217849,213.35483684926294 39.652892562095076,211.0631068001967 49.64958677627146,215.7993435781682 54.171900826040655,212.8964912260417 52.62479338794947,205.10458606726024 41.08099173521623,198.84046496113297 32.036363636143506,189.3678230320802 27.3950413223356,191.96516854665242 25.49090909026563,197.15984096296597 30.25123966904357,201.8961383018177 34.29752066126093,213.20205499697477 39.05785124003887,210.9103246255545 49.05454545421526,215.7993435781682 52.62479338794947,214.72987256059423 54.885950413066894,210.45197797124274 51.07768594985828,203.72953818412498 39.53388429712504,198.22932926239446 31.084297520574182,190.13174882763997 25.966942148283124,197.00705683464184 31.679338843096048,203.72953818412498 33.70247933873907,213.04927312210202 41.91404958674684,211.97979939973447 49.7685950412415,215.95212506619282 54.64793388452381,213.66040049132425 55.24297520658001,210.75754242879339 52.26776859443635,204.79902002122253 39.29586776858196,198.3821132191224 31.084297520574182,190.28453392209485 26.91900826431811,193.64580057375133 25.72892561974004,198.3821132191224 31.084297520574182,202.9656219421886 34.416528925299644,213.81318227981683 40.36694214865565,211.97979939973447 48.459504132159054,216.2576879778644 53.93388429749757,214.5770909007406 55.24297520658001,210.14641342847608 52.38677685940638,204.49345388938673 41.55702479276806,199.29881650966126 31.679338843096048,189.9789637111826 26.680991735309362,196.701488512801 31.79834710713476,203.4239717517048 34.65454545430839,213.35483684926294 39.77190082613379,211.97979939973447 50.125619834288955,215.95212506619282 54.76694214809686,213.04927312210202 55.12396694160998,210.29919571068604 51.19669421482831,203.5767549785087 41.08099173521623,198.99324883206282 31.4413223140873,189.9789637111826 28.109090908896178,192.27073819946963 26.08595041325316,198.07654528389685 31.322314049117267,202.5072719391901 33.82148760324344,213.04927312210202 40.24793388415128,211.82701735326555 50.72066115634516,215.95212506619282 53.45785123948008,214.72987256059423 54.76694214809686,209.53528408426791 50.24462809925899,203.27118850301486 41.319008264224976,199.14603268133942 30.727272727526724,190.13174882763997 25.847933884244412,197.77097726322245 31.322314049117267,202.2017051631119 34.89256198331714,213.81318227981683 40.36694214865565,211.36867108591832 50.83966942131519,215.7993435781682 55.004958677105606,212.8964912260417 55.60000000009313,209.84084879932925 52.38677685940638,204.03510453086346 42.033057851251215,198.68768106843345 30.846280992031097,189.52060823410284 26.08595041325316,196.701488512801 32.15537190064788,204.34067079110537 33.46446280973032,213.35483684926294 40.96198347071186,211.36867108591832 50.00661156978458,215.7993435781682 54.40991735458374,212.8964912260417 55.24297520658001,209.99363112438004 52.86280991695821,204.34067079110537 38.93884297506884,197.00705683464184 31.917355372104794,189.3678230320802 25.72892561974004,197.31262507045176 31.084297520574182,201.43778784794267 33.82148760324344,214.11874579254072 40.24793388415128,211.5214531965321 49.64958677627146,215.64656206883956 54.29090909054503,212.5909273698926 54.885950413066894,209.84084879932925 50.482644627802074,202.9656219421886 38.93884297506884,197.00705683464184 32.27438016561791,189.2150378084043 27.633057851344347,192.42352299380582 25.72892561974004,198.22932926239446 30.96528925606981,200.97943720116746 34.29752066126093,214.4243092192337 40.72396694216877,212.13258142478298 51.31570247979835,215.18821741151623 54.052892562001944,213.507618681062 55.12396694160998,208.92415439663455 52.0297520654276,203.88232136808801 39.89090909063816,198.07654528389685 20.96859504142776,180.04788510932121 15.018181817606091,191.50681390683167 28.823140495922416,200.0627353276359 34.05950413225219,214.4243092192337 38.8198347100988,211.5214531965321 51.19669421482831,215.3409989848733 55.004958677105606,212.2853634279454 54.528925619553775,206.9379805396311 48.459504132159054,201.2850043203216 37.03471074346453,195.47921436757315 29.77520661149174,186.31211448297836 20.611570247914642,180.04788510932121 14.542148760519922,189.82617857365403 31.79834710713476,201.7433548384579 34.17851239675656,213.66040049132425 39.29586776858196,210.75754242879339 51.55371900834143,215.03543581592385 55.12396694160998,208.92415439663455 52.7438016529195,204.646236965782 41.43801652872935,198.99324883206282 29.894214875996113,186.00654315564316 21.444628099445254,180.04788510932121 14.542148760519922,190.59010404744186 30.013223140500486,200.21551902673673 33.70247933873907,213.507618681062 42.15206611575559,211.67423528572544 50.125619834288955,215.64656206883956 54.64793388452381,212.74370930867735 54.76694214809686,207.8546766169602 51.67272727238014,203.5767549785087 37.1537190079689,195.6319987110328 30.25123966904357,186.61768572439905 20.730578512884676,179.74231202201918 14.304132231976837,190.43731899559498 29.77520661149174,200.0627353276359 34.29752066126093,213.96596404712182 39.53388429712504,211.5214531965321 51.79173553688452,215.03543581592385 55.24297520658001,209.68806645239238 50.83966942131519,203.4239717517048 38.58181818155572,197.31262507045176 30.013223140500486,186.92325687990524 20.373553719371557,180.20067162124906 14.423140495549887,189.9789637111826 31.203305785078555,199.90995160711464 33.1074380162172,212.5909273698926 39.652892562095076,210.9103246255545 50.958677685819566,214.8826541986782 53.57685950398445,213.81318227981683 55.004958677105606,209.53528408426791 50.24462809925899,203.27118850301486 40.12892561964691,198.07654528389685 31.679338843096048,189.67339341482148 27.990082644391805,191.6595988086192 25.966942148283124,197.15984096296597 31.322314049117267,199.90995160711464 33.82148760324344,213.04927312210202 40.009917355608195,211.0631068001967 51.79173553688452,215.03543581592385 55.36198347015306,209.2297192835249 51.55371900834143,203.5767549785087 39.77190082613379,197.46540915581863 20.611570247914642,180.65903102746233 14.542148760519922,189.82617857365403 30.727272727526724,199.6043841012288 33.94049586774781,213.35483684926294 40.485950413160026,211.21588895423338 50.72066115634516,215.64656206883956 54.64793388452381,213.35483684926294 54.40991735458374,208.0074592215242 50.958677685819566,203.4239717517048 40.009917355608195,197.61819322034717 30.25123966904357,186.46490011410788 20.96859504142776,180.506244580145 15.970247933641076,186.15932882972993 15.613223140593618,190.89567408629227 30.60826446255669,199.29881650966126 34.17851239675656,213.66040049132425 39.41487603308633,211.82701735326555 47.26942148711532,215.18821741151623 52.7438016529195,215.03543581592385 55.36198347015306,211.36867108591832 54.528925619553775,207.7018939908594 47.9834710736759,201.2850043203216 39.29586776858196,198.07654528389685 31.322314049117267,190.28453392209485 27.276033057365566,193.340231307433 25.49090909026563,198.07654528389685 30.013223140500486,199.7571678647073 34.05950413225219,214.11874579254072 40.36694214865565,211.82701735326555 50.24462809925899,215.64656206883956 54.76694214809686,213.20205499697477 54.76694214809686,208.31302436545957 50.125619834288955,203.11840523348656 38.70082644606009,197.31262507045176 21.087603305466473,180.65903102746233 14.780165289063007,191.04845907341223 30.846280992031097,200.67386999586597 34.29752066126093,214.4243092192337 39.17685950361192,211.36867108591832 51.19669421482831,215.49378053715918 55.004958677105606,212.8964912260417 54.76694214809686,208.31302436545957 49.88760330528021,203.11840523348656 39.77190082613379,198.3821132191224 30.370247933547944,187.22882794914767 20.96859504142776,181.42296294192784 15.018181817606091,188.90946729737334 30.96528925606981,201.8961383018177" stroke="#4dd2ff" stroke-linecap="round" stroke-linejoin="round" stroke-width="0.5"><title>2023-05-01 14.7km</title></polyline><polyline fill="none" points="78.39999999990687,190.81079068488907 95.87692307680845,200.44926280307118 99.81538461521268,213.87978290917818 106.46153846150264,211.8257137539331 117.04615384619683,215.61783849389758 121.35384615324438,211.35169726179447 119.50769230769947,205.9794963907916 104.86153846094385,198.86919106845744 97.23076923051849,189.70473122317344 95.38461538450792,189.8627397842938 90.3384615383111,198.5531764549669 96.61538461502641,202.3453459541779 100.30769230704755,214.51180343248416 105.84615384601057,211.9837192062987 114.83076923061162,216.09185318730306 118.27692307671532,215.61783849389758 121.35384615324438,210.7196749622235 119.26153846178204,205.34747107187286 95.63076923042536,189.54672264005058 90.09230769146234,198.0791543686064 95.63076923042536,201.39730477833655 100.30769230704755,214.51180343248416 105.59999999962747,211.66770827840082 116.4307692302391,216.24985804059543 121.23076923098415,211.66770827840082 118.03076923079789,204.557438923046 107.69230769202113,199.3432128218701 97.35384615324438,188.91468808462378 93.53846153849736,191.28481583553366 90.21538461511955,197.9211469620932 97.8461538455449,203.9254128044704 99.4461538461037,214.19579321495257 106.70769230742007,211.9837192062987 116.79999999934807,215.93384831235744 119.63076923042536,214.51180343248416 120.9846153841354,210.24565800419077 115.69230769202113,202.81936624250375 106.83076923061162,198.7111837725388 96.98461538460106,189.07269675657153 91.81538461474702,193.81294659723062 90.46153846103698,198.86919106845744 96.86153846094385,202.02933231776115 99.56923076882958,213.7217777223559 105.84615384601057,211.66770827840082 117.04615384619683,215.7758434143616 120.9846153841354,213.56377251364756 121.35384615324438,210.87768057035282 118.39999999990687,205.18946468632203 103.38461538450792,196.34107167471666 96.73846153821796,189.2307054066332 92.43076923070475,193.33892251201905 90.95384615333751,199.1852055931231 96.61538461502641,201.39730477833655 100.30769230704755,214.03778807271738 107.1999999997206,212.14172463701107 115.93846153840423,216.24985804059543 119.99999999953434,214.35379833495244 121.35384615324438,209.9296465876978 118.39999999990687,204.557438923046 104.36923076910898,197.13110959576443 99.81538461521268,190.4947738071205 95.7538461536169,188.7566793904407 90.3384615383111,198.23716175276786 96.73846153821796,202.18733914732002 99.69230769202113,214.35379833495244 107.1999999997206,212.14172463701107 117.5384615380317,216.09185318730306 121.35384615324438,212.61574079585262 121.23076923098415,209.2976234885864 115.20000000018626,202.02933231776115 103.75384615315124,196.9731020560721 95.87692307680845,189.2307054066332 90.83076923014596,197.60513208177872 98.46153846057132,204.0834193675546 99.1999999997206,213.7217777223559 105.47692307690158,212.2997300454881 116.06153846113011,216.40786287246738 120.12307692319155,214.98581859236583 121.59999999962747,210.87768057035282 117.78461538488045,203.9254128044704 104.61538461502641,197.44712460890878 95.99999999953434,189.54672264005058 91.0769230760634,198.0791543686064 96.86153846094385,202.81936624250375 99.1999999997206,214.35379833495244 105.96923076873645,211.66770827840082 117.5384615380317,215.7758434143616 121.59999999962747,210.87768057035282 116.92307692300528,202.9773729610024 106.95384615333751,198.39516911515966 95.99999999953434,188.91468808462378 91.81538461474702,198.39516911515966 97.10769230686128,201.39730477833655 99.69230769202113,214.82781356107444 106.58461538469419,212.61574079585262 114.58461538422853,216.09185318730306 119.75384615315124,214.03778807271738 121.23076923098415,210.87768057035282 116.30769230751321,202.661359502119 105.35384615371004,197.44712460890878 97.72307692328468,189.2307054066332 95.63076923042536,189.38871403434314 91.44615384563804,198.23716175276786 97.35384615324438,202.81936624250375 98.58461538422853,213.7217777223559 104.86153846094385,211.66770827840082 117.78461538488045,215.93384831235744 121.59999999962747,212.45773543149699 121.59999999962747,209.613635082962 115.69230769202113,201.39730477833655 106.70769230742007,198.0791543686064 97.59999999962747,188.91468808462378 95.7538461536169,189.38871403434314 91.0769230760634,198.7111837725388 97.23076923051849,203.60939961194526 98.95384615333751,214.03778807271738 106.3384615383111,211.66770827840082 113.47692307690158,215.30182858742774 118.8923076922074,214.98581859236583 121.1076923077926,212.93175145739224 120.36923076910898,206.2955089173047 105.59999999962747,197.28911711310502 86.3999999994412,179.5921371274162 80.7384615377523,187.49260903603863 80.36923076864332,190.17875683994498 97.23076923051849,202.661359502119 99.69230769202113,213.7217777223559 105.72307692281902,211.35169726179447 113.1076923077926,214.82781356107444 118.8923076922074,214.82781356107444 121.23076923098415,211.9837192062987 119.26153846178204,205.34747107187286 95.7538461536169,189.07269675657153 91.81538461474702,195.70904093806166 96.98461538460106,202.3453459541779 99.81538461521268,214.03778807271738 106.09230769239366,211.0356861561304 113.35384615371004,215.143823600607 118.6461538458243,215.143823600607 121.1076923077926,211.66770827840082 119.99999999953434,205.9794963907916 107.93846153840423,199.1852055931231 99.93846153840423,190.4947738071205 95.87692307680845,189.70473122317344 92.06153846159577,193.81294659723062 91.32307692291215,199.02719834202435 97.23076923051849,203.9254128044704 100.06153846113011,214.51180343248416 106.3384615383111,211.35169726179447 116.5538461538963,215.93384831235744 120.73846153821796,212.93175145739224 119.50769230769947,205.34747107187286 104.73846153821796,196.9731020560721 98.21538461465389,188.7566793904407 95.50769230723381,189.8627397842938 91.81538461474702,197.44712460890878 96.49230769230053,200.92328389082104 98.95384615333751,208.03357622493058 103.01538461493328,206.76952754007652 108.79999999981374,199.02719834202435" stroke="#4dd2ff" stroke-linecap="round" stroke-linejoin="round" stroke-width="0.5"><title>2023-04-20 10.0km</title></polyline><polyline fill="none" points="145.607927485049,202.94390996627772 145.39554463050445,202.6711641565489 144.49955446302192,202.36432365354995 144.39999999999418,202.1427156574573 144.56592410508892,201.88701311664408 145.22298356122337,201.53755123285737 146.06587801504065,201.40969882071659 149.27816868951777,201.40969882071659 150.40645260407473,201.1710402630597 159.01459517591866,196.70454244766734 160.6738362267497,196.03965393678664 161.94813335381332,195.86916852813738 163.15606083886814,195.93736274914045 177.57818405286525,198.2644445502301 179.31706867413595,198.451971061113 180.2860654478427,198.40935145052572 181.75283453677548,198.07691745911143 182.801474880951,197.5825250736125 183.79038254724583,196.7897840368496 185.89430019969586,194.23248420026357 186.9960362574784,193.81478164015425 187.5734521431732,193.84887991626601 187.60000000000582,193.95117462944472 187.3278844676679,193.9937973756496 185.7482869872474,193.3459283979355 185.42971270548878,193.05609003372228 184.55363343062345,194.9059169584798 183.39880165923387,196.5511072849331 181.99176524812356,197.63366930053598 181.12895990165998,198.00872564575184 180.18651098478585,198.2473966568541 178.96530957132927,198.3241121393803 177.53172530341544,198.19625294789148 165.06750652941992,196.17604191835198 162.73793209402356,195.84359567545107 161.5897372868494,195.83507138884306 160.57428176372196,196.01408115604863 159.35308035026537,196.4232443525907 150.3334459978505,201.05171063180387 149.11888154860935,201.2392285182832 145.6742971270287,201.23070499056848 144.53273928409908,201.6142625506909" stroke="#4dd2ff" stroke-linecap="round" stroke-linejoin="round" stroke-width="0.5"><title>2023-03-17 12.5km</title></polyline><polyline fill="none" points="13.489466400118545,250.90581844333428 12.39999999999418,250.28303996863906 12.51957558048889,250.03563304671843 12.997877902496839,249.76263113431196 14.180347531917505,249.54934753538328 17.262740273727104,249.54934753538328 18.34556358604459,249.31046901431182 26.99486390897073,244.83132255947567 28.635706596949603,244.17435326574923 30.15033061662689,243.9951785869962 31.100292172835907,244.05490353874484 43.78194679378066,246.13670796191218 45.921021067217225,246.4438533857101 48.179670921119396,246.53770306611113 49.86037213593954,246.14523980025479 50.97641088726232,245.5650720601625 51.9396586191142,244.7118741262566 54.01230201445287,242.28019416915413 55.12834076580475,241.83650871281498 55.580070736585185,241.91330065865986 55.60000000000582,242.04128701904847 55.05526679995819,242.04128701904847 53.600430570484605,241.34162495156488 53.46756881440524,241.247767230936 53.47421190221212,241.09418155666935 52.41131785331527,243.26141009476487 51.182346609275555,244.83132255947567 49.973304628627375,245.70158261589677 48.39224973091041,246.2561535893292 47.11677687219344,246.37559898150357 45.68851299400558,246.24762176658987 31.69817007536767,244.02930713804744 30.416054128843825,243.89279281866402 29.426234045793535,243.9439857244506 28.250407504237955,244.18288538009074 27.180870367534226,244.61802162084132 18.325634322623955,249.15690375404301 17.222881746885832,249.3957828798084 13.449607873277273,249.3872514986724 12.499646317068255,249.74556847398344" stroke="#4dd2ff" stroke-linecap="round" stroke-linejoin="round" stroke-width="0.5"><title>2023-03-11 12.5km</title></polyline><polyline fill="none" points="85.42439024336636,237.4281457401812 86.12682926654816,250.06039496068843 103.68780487775803,242.39082101290114 100.17560975439847,233.81892253551632 86.12682926654816,233.36776934866793 84.01951219327748,248.70694206724875 103.68780487775803,242.39082101290114 100.17560975439847,234.72122871875763 84.01951219327748,234.72122871875763 80.85853658430278,241.9396690321155 85.77560975402594,248.25579097517766 97.71707317046821,246.45118597638793 101.22926829196513,237.4281457401812 81.91219512186944,235.17238171421923 84.72195121832192,249.60924405930564 99.47317073121667,246.90233732084744 102.98536585271358,238.78160339407623 83.31707317009568,234.27007565880194 80.15609755925834,240.13506047683768 86.12682926654816,249.15809309552424 99.47317073121667,246.45118597638793 102.98536585271358,237.87929835612886 95.60975609719753,232.46546278661117 82.96585365757346,234.27007565880194 87.88292682729661,249.60924405930564 103.68780487775803,240.13506047683768 98.41951219551265,232.91661609965377 84.3707317057997,233.36776934866793 86.12682926654816,249.15809309552424 94.55609756149352,249.15809309552424 103.3365853652358,240.13506047683768 85.77560975402594,232.46546278661117 79.80487804859877,235.17238171421923 82.96585365757346,244.64657996036112 102.63414634019136,241.9396690321155 101.22926829196513,235.6235346456524 86.8292682915926,232.01430941093713 80.15609755925834,246.45118597638793 100.52682926878333,246.0000345672015 104.0390243884176,240.13506047683768 87.53170731663704,232.46546278661117 79.10243902355433,241.03736488264985 87.18048780411482,248.25579097517766 99.82439024187624,245.09773155930452 101.22926829196513,235.17238171421923 82.26341463439167,234.27007565880194 78.7512195110321,240.58621271140873 85.07317073084414,247.80463982117362 100.52682926878333,244.64657996036112 102.98536585271358,238.33045090688393 86.8292682915926,232.46546278661117 79.80487804859877,239.23275581817143 82.26341463439167,249.60924405930564 102.63414634019136,244.64657996036112 100.17560975439847,233.81892253551632 89.2878048773855,232.46546278661117 80.50731707364321,238.33045090688393 81.56097560934722,246.0000345672015 94.20487804710865,247.35348860314116 102.63414634019136,241.48851698893122 100.8780487794429,234.27007565880194 86.12682926654816,232.46546278661117 78.7512195110321,241.03736488264985 81.56097560934722,247.35348860314116 94.20487804710865,248.25579097517766 104.39024390280247,238.78160339407623 87.18048780411482,233.36776934866793 80.15609755925834,240.13506047683768 84.72195121832192,248.70694206724875 101.93170731514692,243.29312478168868 102.28292682766914,236.52584031992592 87.18048780411482,232.91661609965377 79.45365853607655,242.84197292895988 84.3707317057997,248.25579097517766 98.41951219551265,246.45118597638793 103.68780487775803,238.78160339407623 85.42439024336636,233.81892253551632 79.80487804859877,237.4281457401812 83.6682926826179,248.25579097517766 103.68780487775803,240.58621271140873 99.12195121869445,233.81892253551632 85.42439024336636,233.81892253551632 80.15609755925834,238.33045090688393 83.31707317009568,247.80463982117362 96.31219512224197,247.35348860314116 103.68780487775803,237.87929835612886 84.01951219327748,233.81892253551632 79.80487804859877,238.33045090688393 85.42439024336636,247.80463982117362 101.93170731514692,245.54888309561647 104.74146341346204,239.23275581817143 86.8292682915926,232.46546278661117 80.85853658430278,236.0746875142213 81.91219512186944,247.35348860314116 102.98536585271358,241.9396690321155 97.36585365794599,232.91661609965377 82.96585365757346,233.81892253551632 84.3707317057997,248.25579097517766 99.47317073121667,245.09773155930452 103.68780487775803,237.4281457401812 81.91219512186944,235.17238171421923 85.77560975402594,248.70694206724875 103.3365853652358,240.13506047683768 97.36585365794599,232.91661609965377 81.91219512186944,235.17238171421923 80.50731707364321,243.29312478168868 88.93658536486328,249.15809309552424 104.39024390280247,239.23275581817143 96.66341463290155,232.46546278661117 81.209756096825,234.72122871875763 82.61463414505124,248.25579097517766 94.55609756149352,249.15809309552424 103.68780487775803,239.683908179868 85.07317073084414,232.91661609965377 79.80487804859877,241.9396690321155 83.6682926826179,248.25579097517766 101.93170731514692,245.09773155930452 104.0390243884176,239.683908179868 86.12682926654816,233.81892253551632 81.209756096825,236.97699306136928 84.3707317057997,248.25579097517766 98.06829268112779,248.70694206724875 104.0390243884176,242.39082101290114 102.63414634019136,236.0746875142213 89.63902438990772,232.46546278661117 82.61463414505124,235.17238171421923 82.26341463439167,246.45118597638793 102.63414634019136,242.39082101290114 97.01463414542377,232.91661609965377 82.26341463439167,234.72122871875763 82.26341463439167,246.90233732084744 102.98536585271358,243.74427657248452 100.17560975439847,233.81892253551632 86.12682926654816,232.46546278661117 80.85853658430278,236.52584031992592 83.6682926826179,247.80463982117362 101.93170731514692,246.90233732084744 98.41951219551265,232.91661609965377 82.26341463439167,234.27007565880194 79.80487804859877,242.39082101290114 96.31219512224197,247.80463982117362 102.98536585271358,242.39082101290114 97.71707317046821,232.46546278661117 79.80487804859877,239.23275581817143 85.42439024336636,249.15809309552424 98.41951219551265,247.80463982117362 103.68780487775803,238.78160339407623 93.50243902206421,232.91661609965377 82.96585365757346,234.27007565880194 79.80487804859877,244.64657996036112 100.8780487794429,244.64657996036112 102.63414634019136,236.0746875142213 95.96097560785711,232.01430941093713 81.209756096825,234.72122871875763 80.15609755925834,243.74427657248452 88.23414634168148,247.80463982117362 102.28292682766914,242.39082101290114 102.98536585271358,236.52584031992592 93.85365853644907,232.46546278661117 82.26341463439167,235.17238171421923 81.91219512186944,246.0000345672015 101.58048780448735,244.64657996036112 101.58048780448735,235.6235346456524 85.77560975402594,232.46546278661117 79.80487804859877,243.29312478168868 98.06829268112779,246.90233732084744 102.63414634019136,242.84197292895988 99.82439024187624,232.91661609965377 85.77560975402594,232.01430941093713 78.7512195110321,241.48851698893122 85.07317073084414,248.70694206724875 101.93170731514692,245.54888309561647 101.93170731514692,234.72122871875763 95.60975609719753,232.01430941093713 81.56097560934722,234.27007565880194 80.85853658430278,244.19542829832062 98.77073170617223,246.90233732084744 103.3365853652358,238.78160339407623 98.06829268112779,232.91661609965377 83.6682926826179,232.46546278661117 80.15609755925834,242.39082101290114 98.06829268112779,247.35348860314116 103.68780487775803,238.78160339407623 94.90731707215309,232.46546278661117 84.72195121832192,232.91661609965377 80.15609755925834,242.39082101290114 84.01951219327748,247.35348860314116 100.8780487794429,246.45118597638793 104.74146341346204,241.03736488264985 98.77073170617223,232.01430941093713 79.45365853607655,238.78160339407623 84.72195121832192,248.25579097517766 99.12195121869445,246.90233732084744 103.3365853652358,236.97699306136928 98.06829268112779,232.01430941093713 82.61463414505124,234.27007565880194 79.45365853607655,239.683908179868 81.91219512186944,246.0000345672015 97.36585365794599,247.35348860314116 102.98536585271358,241.48851698893122 98.06829268112779,233.36776934866793 83.31707317009568,233.81892253551632 79.10243902355433,241.9396690321155 82.96585365757346,247.80463982117362 98.06829268112779,247.35348860314116 102.63414634019136,243.29312478168868 97.01463414542377,232.46546278661117 84.01951219327748,233.36776934866793 78.40000000037253,241.9396690321155 95.96097560785711,247.80463982117362 102.28292682766914,244.19542829832062 100.52682926878333,233.81892253551632 87.18048780411482,232.01430941093713 78.40000000037253,237.87929835612886 82.61463414505124,246.0000345672015 96.66341463290155,246.45118597638793 103.3365853652358,236.97699306136928 99.12195121869445,232.46546278661117 79.10243902355433,235.6235346456524 81.91219512186944,246.0000345672015 96.31219512224197,246.90233732084744 103.3365853652358,241.48851698893122 100.17560975439847,232.91661609965377 80.50731707364321,237.4281457401812 84.01951219327748,246.45118597638793 95.60975609719753,246.90233732084744 102.28292682766914,244.64657996036112 100.52682926878333,233.81892253551632 84.3707317057997,232.46546278661117 78.40000000037253,238.78160339407623 84.01951219327748,247.35348860314116 97.71707317046821,247.35348860314116 103.3365853652358,240.13506047683768 95.60975609719753,233.36776934866793 86.12682926654816,232.91661609965377 79.10243902355433,240.13506047683768 82.26341463439167,246.0000345672015 95.96097560785711,246.0000345672015 102.63414634019136,243.29312478168868 100.17560975439847,233.36776934866793 83.31707317009568,233.36776934866793 79.45365853607655,238.33045090688393 84.01951219327748,246.90233732084744 98.77073170617223,246.0000345672015 103.3365853652358,241.03736488264985 99.12195121869445,232.46546278661117 84.01951219327748,232.01430941093713 79.45365853607655,238.33045090688393 85.07317073084414,246.90233732084744 98.77073170617223,246.0000345672015 104.0390243884176,240.13506047683768 98.06829268112779,232.91661609965377 79.45365853607655,237.87929835612886 85.07317073084414,246.45118597638793 99.82439024187624,245.09773155930452 103.68780487775803,240.13506047683768 97.71707317046821,231.56315596983768 81.91219512186944,233.36776934866793 79.80487804859877,244.19542829832062 101.93170731514692,244.64657996036112 101.58048780448735,234.72122871875763 95.25853658467531,232.01430941093713 82.26341463439167,233.81892253551632 79.10243902355433,240.58621271140873 86.8292682915926,248.25579097517766 102.63414634019136,245.09773155930452 100.52682926878333,234.72122871875763 86.8292682915926,232.91661609965377 80.85853658430278,234.72122871875763 80.15609755925834,245.09773155930452 101.58048780448735,244.64657996036112 102.98536585271358,238.33045090688393 92.09756097383797,232.91661609965377 82.96585365757346,233.81892253551632 78.7512195110321,242.84197292895988 98.77073170617223,246.45118597638793 102.98536585271358,237.4281457401812 93.50243902206421,232.01430941093713 83.31707317009568,233.36776934866793 79.10243902355433,243.74427657248452 89.2878048773855,248.25579097517766 102.28292682766914,244.19542829832062 99.82439024187624,233.81892253551632 93.15121951140463,232.46546278661117 80.50731707364321,236.0746875142213 80.15609755925834,244.64657996036112 100.17560975439847,246.90233732084744 102.63414634019136,236.0746875142213 97.71707317046821,232.01430941093713 80.85853658430278,235.17238171421923 79.80487804859877,242.84197292895988 100.52682926878333,244.64657996036112 101.93170731514692,234.72122871875763 96.66341463290155,231.11200246564113 82.96585365757346,232.91661609965377 79.45365853607655,242.39082101290114 98.06829268112779,247.35348860314116 103.3365853652358,237.87929835612886 99.47317073121667,232.91661609965377 81.91219512186944,233.81892253551632 78.40000000037253,241.48851698893122 86.8292682915926,247.80463982117362 100.17560975439847,246.45118597638793 104.0390243884176,238.33045090688393 95.25853658467531,231.56315596983768 81.209756096825,234.72122871875763 79.80487804859877,242.39082101290114 99.82439024187624,246.90233732084744 103.68780487775803,237.87929835612886 99.12195121869445,232.91661609965377 85.42439024336636,232.91661609965377 79.10243902355433,241.48851698893122 98.41951219551265,247.35348860314116 103.3365853652358,242.84197292895988 97.71707317046821,233.36776934866793 79.10243902355433,240.58621271140873 86.47804878093302,248.25579097517766 99.82439024187624,246.90233732084744 103.68780487775803,241.48851698893122 98.41951219551265,232.91661609965377 84.01951219327748,233.36776934866793 79.45365853607655,241.9396690321155 85.07317073084414,247.80463982117362 98.41951219551265,246.90233732084744 103.3365853652358,238.33045090688393 98.06829268112779,233.36776934866793 82.26341463439167,233.81892253551632 78.40000000037253,241.48851698893122 98.41951219551265,246.45118597638793 102.98536585271358,243.29312478168868 98.41951219551265,232.91661609965377 79.10243902355433,236.97699306136928 82.26341463439167,246.45118597638793 98.06829268112779,246.90233732084744 102.63414634019136,242.84197292895988 98.06829268112779,232.91661609965377 82.96585365757346,232.91661609965377 79.80487804859877,243.29312478168868 101.22926829196513,244.64657996036112 104.39024390280247,239.683908179868 95.96097560785711,232.01430941093713 79.10243902355433,239.23275581817143 81.209756096825,245.09773155930452 94.20487804710865,246.45118597638793 101.93170731514692,242.84197292895988 99.47317073121667,233.36776934866793 79.80487804859877,235.6235346456524 82.96585365757346,246.0000345672015 96.66341463290155,246.90233732084744 104.0390243884176,238.78160339407623 95.96097560785711,231.56315596983768 81.209756096825,234.27007565880194 79.45365853607655,241.9396690321155 88.23414634168148,248.70694206724875 102.28292682766914,244.64657996036112 95.96097560785711,232.46546278661117 86.12682926654816,232.46546278661117 79.45365853607655,241.48851698893122 98.41951219551265,246.90233732084744 102.98536585271358,238.78160339407623 99.12195121869445,233.36776934866793 79.80487804859877,237.4281457401812 85.42439024336636,247.35348860314116 99.82439024187624,246.90233732084744 102.28292682766914,235.6235346456524 96.66341463290155,232.01430941093713 82.26341463439167,233.36776934866793 80.15609755925834,244.19542829832062 99.12195121869445,246.90233732084744 102.98536585271358,241.03736488264985 98.06829268112779,232.91661609965377 83.6682926826179,232.91661609965377 78.7512195110321,241.03736488264985 85.42439024336636,247.80463982117362 100.8780487794429,245.54888309561647 97.36585365794599,232.46546278661117 90.69268292374909,232.46546278661117 94.55609756149352,240.13506047683768 108.25365853495896,248.70694206724875 111.4146341457963,259.5345492132474 121.59999999962747,260.8879975345917" stroke="#4dd2ff" stroke-linecap="round" stroke-linejoin="round" stroke-width="0.5"><title>2021-06-01 11.4km</title></polyline><polyline fill="none" points="183.27999999932945,250.1619072263129 168.69999999925494,233.51437924895436 146.5599999986589,243.22544406633824 146.5599999986589,255.017425626982 176.25999999977648,250.85555300442502 170.32000000029802,231.43343429919332 156.81999999843538,233.51437924895436 144.40000000037253,251.54919868521392 156.81999999843538,263.34116033185273 179.5,253.63013514317572 179.5,235.59532332140952 168.69999999925494,231.43343429919332 148.72000000067055,251.54919868521392 176.80000000074506,250.85555300442502 182.74000000022352,242.5317972144112 171.93999999947846,228.6588396676816 149.25999999977648,245.3063840395771 156.27999999932945,258.4856501305476 176.80000000074506,254.3237804346718 183.27999999932945,244.61273747915402 172.48000000230968,230.73978578671813 152.5,238.369914048817 149.25999999977648,254.3237804346718 178.42000000178814,249.46826134761795 182.74000000022352,240.4508560714312 169.77999999932945,228.6588396676816 148.72000000067055,239.75720882741734 149.25999999977648,250.1619072263129 180.04000000096858,254.3237804346718 185.43999999947846,236.9826188813895 177.87999999895692,232.12708271527663 153.04000000096858,241.83815026516095 160.60000000149012,260.56658365996554 182.74000000022352,251.54919868521392 184.90000000037253,238.369914048817 156.81999999843538,232.12708271527663 146.5599999986589,241.83815026516095 174.6399999987334,249.46826134761795 183.81999999843538,246.00003050314263 178.96000000089407,230.04613717785105 154.11999999918044,230.73978578671813 148.18000000156462,245.3063840395771 178.42000000178814,250.1619072263129 184.90000000037253,241.83815026516095 176.80000000074506,230.04613717785105 148.18000000156462,239.75720882741734 155.74000000022352,255.71107072290033 179.5,250.85555300442502 184.3600000012666,234.2080273698084 176.80000000074506,229.35248846979812 151.96000000089407,233.51437924895436 148.18000000156462,243.22544406633824 159.51999999955297,252.93648975528777 182.74000000022352,246.69367686612532 182.74000000022352,232.82073103031144 172.48000000230968,229.35248846979812 153.04000000096858,233.51437924895436 151.41999999806285,251.54919868521392 181.11999999918044,251.54919868521392 186.51999999955297,241.1445032185875 174.6399999987334,229.35248846979812 150.339999999851,234.90167539427057 152.5,252.93648975528777 183.27999999932945,246.00003050314263 185.43999999947846,236.9826188813895 170.85999999940395,230.04613717785105 155.74000000022352,231.43343429919332 148.72000000067055,246.69367686612532 160.0600000023842,255.017425626982 183.27999999932945,246.00003050314263 172.48000000230968,229.35248846979812 151.96000000089407,234.2080273698084 148.72000000067055,245.3063840395771 160.0600000023842,255.017425626982 177.34000000171363,251.54919868521392 185.43999999947846,245.3063840395771 180.04000000096858,231.43343429919332 149.25999999977648,239.75720882741734 153.5800000000745,254.3237804346718 178.96000000089407,249.46826134761795 185.43999999947846,243.22544406633824 177.34000000171363,229.35248846979812 155.2000000011176,231.43343429919332 149.25999999977648,241.1445032185875 159.51999999955297,255.71107072290033 180.57999999821186,250.85555300442502 185.98000000044703,243.91909082233906 176.25999999977648,231.43343429919332 151.96000000089407,233.51437924895436 148.72000000067055,241.1445032185875 153.04000000096858,253.63013514317572 176.25999999977648,254.3237804346718 184.3600000012666,250.1619072263129 181.11999999918044,233.51437924895436 158.9799999985844,231.43343429919332 149.80000000074506,239.75720882741734 153.5800000000745,253.63013514317572 176.80000000074506,254.3237804346718 186.51999999955297,240.4508560714312 180.57999999821186,233.51437924895436 157.3600000012666,232.12708271527663 149.25999999977648,241.83815026516095 152.5,253.63013514317572 180.04000000096858,250.85555300442502 183.81999999843538,234.90167539427057 175.18000000156462,231.43343429919332 149.80000000074506,236.28897115122527 149.25999999977648,246.00003050314263 155.2000000011176,256.4047157210298 176.25999999977648,254.3237804346718 184.90000000037253,248.7746153739281 179.5,233.51437924895436 149.25999999977648,239.75720882741734 156.27999999932945,256.4047157210298 177.34000000171363,253.63013514317572 185.43999999947846,247.38732313271612 177.34000000171363,230.73978578671813 152.5,234.2080273698084 149.80000000074506,243.91909082233906 160.60000000149012,257.09836062043905 182.74000000022352,251.54919868521392 178.42000000178814,230.04613717785105 152.5,234.2080273698084 150.339999999851,246.00003050314263 154.11999999918044,255.017425626982 176.25999999977648,255.71107072290033 185.98000000044703,239.75720882741734 179.5,232.12708271527663 150.8800000026822,236.28897115122527 156.81999999843538,257.79200542438775 177.34000000171363,257.09836062043905 184.90000000037253,251.54919868521392 181.66000000201166,235.59532332140952 149.80000000074506,239.06356148794293 157.3600000012666,259.1792947370559 175.72000000067055,257.09836062043905 184.3600000012666,251.54919868521392 182.74000000022352,236.28897115122527 157.90000000037253,232.12708271527663 149.25999999977648,242.5317972144112 153.04000000096858,255.017425626982 180.04000000096858,253.63013514317572 186.51999999955297,239.06356148794293 177.87999999895692,231.43343429919332 153.04000000096858,233.51437924895436 150.8800000026822,241.83815026516095 158.4400000013411,259.1792947370559 177.34000000171363,257.09836062043905 183.81999999843538,237.67626651376486 150.8800000026822,238.369914048817 153.04000000096858,252.93648975528777 165.45999999903142,257.79200542438775 184.3600000012666,250.85555300442502 181.66000000201166,234.2080273698084 147.64000000059605,239.06356148794293 156.81999999843538,258.4856501305476 168.69999999925494,257.79200542438775 181.11999999918044,254.3237804346718 184.90000000037253,236.9826188813895 151.96000000089407,237.67626651376486 153.04000000096858,255.017425626982 172.48000000230968,258.4856501305476 185.98000000044703,249.46826134761795 178.96000000089407,234.90167539427057 154.11999999918044,234.2080273698084 147.64000000059605,242.5317972144112 160.60000000149012,255.017425626982 177.87999999895692,253.63013514317572 184.90000000037253,236.9826188813895 177.87999999895692,230.73978578671813 149.25999999977648,239.06356148794293 153.5800000000745,252.24284426867962 169.24000000208616,257.79200542438775 185.98000000044703,246.69367686612532 183.27999999932945,236.28897115122527 151.41999999806285,236.9826188813895 153.5800000000745,255.71107072290033 174.09999999962747,258.4856501305476 185.43999999947846,243.22544406633824 179.5,235.59532332140952 162.2199999988079,233.51437924895436 148.72000000067055,243.91909082233906 159.51999999955297,257.79200542438775 176.80000000074506,257.09836062043905 186.51999999955297,242.5317972144112 180.04000000096858,233.51437924895436 152.5,236.28897115122527 154.11999999918044,253.63013514317572 168.160000000149,257.09836062043905 183.81999999843538,250.85555300442502 181.11999999918044,235.59532332140952 150.339999999851,237.67626651376486 155.74000000022352,257.09836062043905 179.5,257.09836062043905 186.51999999955297,243.91909082233906 171.40000000037253,232.12708271527663 156.81999999843538,232.82073103031144 150.339999999851,248.0809693033807 155.2000000011176,257.09836062043905 178.96000000089407,256.4047157210298 180.57999999821186,234.90167539427057 158.4400000013411,232.12708271527663 148.72000000067055,247.38732313271612 161.67999999970198,257.09836062043905 180.04000000096858,255.017425626982 178.96000000089407,233.51437924895436 156.81999999843538,232.82073103031144 149.80000000074506,241.1445032185875 154.660000000149,256.4047157210298 175.72000000067055,257.09836062043905 184.90000000037253,241.83815026516095 178.96000000089407,234.90167539427057 156.81999999843538,232.12708271527663 147.64000000059605,245.3063840395771 157.90000000037253,256.4047157210298 181.11999999918044,253.63013514317572 183.27999999932945,235.59532332140952 174.09999999962747,232.12708271527663 159.51999999955297,231.43343429919332 149.25999999977648,248.0809693033807 176.80000000074506,255.017425626982 185.98000000044703,240.4508560714312 175.18000000156462,230.73978578671813 151.96000000089407,235.59532332140952 151.41999999806285,251.54919868521392 181.11999999918044,254.3237804346718 185.98000000044703,246.00003050314263 175.18000000156462,232.12708271527663 148.18000000156462,243.22544406633824 155.74000000022352,255.017425626982 179.5,254.3237804346718 185.43999999947846,238.369914048817 177.34000000171363,234.2080273698084 149.25999999977648,241.83815026516095 156.27999999932945,255.71107072290033 178.42000000178814,253.63013514317572 185.43999999947846,246.69367686612532 180.57999999821186,232.82073103031144 150.8800000026822,235.59532332140952 147.09999999962747,246.00003050314263 156.27999999932945,256.4047157210298 177.87999999895692,252.93648975528777 184.3600000012666,236.9826188813895 176.25999999977648,232.12708271527663 153.04000000096858,232.82073103031144 148.18000000156462,241.83815026516095 157.3600000012666,255.71107072290033 180.04000000096858,252.93648975528777 184.90000000037253,237.67626651376486 177.34000000171363,234.2080273698084 156.81999999843538,232.82073103031144 148.18000000156462,243.91909082233906 157.3600000012666,256.4047157210298 178.96000000089407,254.3237804346718 185.98000000044703,247.38732313271612 177.34000000171363,231.43343429919332 153.5800000000745,232.82073103031144 149.80000000074506,241.1445032185875 159.51999999955297,255.71107072290033 183.27999999932945,252.93648975528777 187.60000000149012,244.61273747915402 177.87999999895692,233.51437924895436 153.04000000096858,234.90167539427057 149.25999999977648,244.61273747915402 160.60000000149012,257.09836062043905 181.66000000201166,252.93648975528777 187.0599999986589,243.91909082233906 175.18000000156462,231.43343429919332 152.5,234.90167539427057 148.72000000067055,247.38732313271612 158.4400000013411,257.09836062043905 181.11999999918044,252.93648975528777 180.04000000096858,233.51437924895436 158.9799999985844,232.12708271527663 148.72000000067055,246.00003050314263 155.74000000022352,255.71107072290033 183.27999999932945,250.85555300442502 182.74000000022352,235.59532332140952 172.48000000230968,231.43343429919332 157.3600000012666,232.12708271527663 149.80000000074506,248.0809693033807 166.0,256.4047157210298 182.74000000022352,252.24284426867962 178.42000000178814,232.12708271527663 150.339999999851,238.369914048817 161.67999999970198,257.09836062043905 180.57999999821186,254.3237804346718 187.60000000149012,247.38732313271612 180.04000000096858,232.82073103031144 156.27999999932945,232.82073103031144 150.339999999851,246.69367686612532 158.4400000013411,255.71107072290033 181.66000000201166,254.3237804346718 187.0599999986589,246.00003050314263 175.18000000156462,232.82073103031144 152.5,235.59532332140952 149.25999999977648,244.61273747915402 160.60000000149012,257.09836062043905 183.27999999932945,252.93648975528777 187.0599999986589,244.61273747915402 175.18000000156462,232.12708271527663 151.96000000089407,235.59532332140952 153.04000000096858,252.93648975528777 185.43999999947846,250.85555300442502 182.2000000011176,234.90167539427057 171.93999999947846,231.43343429919332 153.5800000000745,233.51437924895436 148.72000000067055,247.38732313271612 156.81999999843538,255.71107072290033 183.81999999843538,251.54919868521392 186.51999999955297,242.5317972144112 172.48000000230968,232.12708271527663 150.8800000026822,236.9826188813895 151.96000000089407,252.93648975528777 182.74000000022352,252.93648975528777 181.66000000201166,234.90167539427057 170.32000000029802,232.82073103031144 155.2000000011176,233.51437924895436 147.64000000059605,246.69367686612532 177.34000000171363,255.71107072290033 184.90000000037253,241.1445032185875 178.96000000089407,234.90167539427057 154.11999999918044,234.2080273698084 148.18000000156462,248.7746153739281 178.42000000178814,255.71107072290033 186.51999999955297,241.83815026516095 170.32000000029802,232.12708271527663 157.3600000012666,232.82073103031144 149.25999999977648,248.7746153739281 164.38000000081956,257.79200542438775 183.27999999932945,253.63013514317572 181.66000000201166,234.90167539427057 171.93999999947846,232.12708271527663 151.41999999806285,238.369914048817 149.25999999977648,249.46826134761795 161.67999999970198,256.4047157210298 185.43999999947846,248.7746153739281 177.34000000171363,232.82073103031144 165.45999999903142,232.12708271527663 153.04000000096858,234.90167539427057 149.80000000074506,251.54919868521392 181.66000000201166,253.63013514317572 182.2000000011176,235.59532332140952 171.93999999947846,231.43343429919332 150.339999999851,236.28897115122527 152.5,254.3237804346718 184.3600000012666,250.85555300442502 181.66000000201166,234.90167539427057 171.93999999947846,232.12708271527663 155.74000000022352,234.2080273698084 148.72000000067055,250.85555300442502 181.66000000201166,254.3237804346718 184.3600000012666,238.369914048817 164.38000000081956,232.12708271527663 153.04000000096858,234.90167539427057 151.41999999806285,251.54919868521392 184.90000000037253,250.1619072263129" stroke="#4dd2ff" stroke-linecap="round" stroke-linejoin="round" stroke-width="0.5"><title>2020-11-29 10.4km</title></polyline></svg>