<?xml version="1.0" encoding="utf-8" ?>
<svg baseProfile="full" height="300mm" version="1.1" viewBox="0,0,200,300" width="200mm" xmlns="http://www.w3.org/2000/svg" xmlns:ev="http://www.w3.org/2001/xml-events" xmlns:xlink="http://www.w3.org/1999/xlink"><defs /><rect fill="#222222" height="300" width="200" x="0" y="0" /><text fill="#FFFFFF" style="font-size:12px; font-family:Arial; font-weight:bold;" x="10" y="20">Over 10km Runs</text><text fill="#FFFFFF" style="font-size:4px; font-family:Arial" x="10" y="280">ATHLETE</text><text fill="#FFFFFF" style="font-size:9px; font-family:Arial" x="10" y="290">Abuqi</text><text fill="#FFFFFF" style="font-size:4px; font-family:Arial" x="120" y="280">STATISTICS</text><text fill="#FFFFFF" style="font-size:3px; font-family:Arial" x="120" y="285">Number: 7</text><text fill="#FFFFFF" style="font-size:3px; font-family:Arial" x="120" y="290">Weekly: 1.2</text><text fill="#FFFFFF" style="font-size:3px; font-family:Arial" x="141" y="285">Total: 85.1 km</text><text fill="#FFFFFF" style="font-size:3px; font-family:Arial" x="141" y="290">Avg: 12.2 km</text><text fill="#FFFFFF" style="font-size:3px; font-family:Arial" x="167" y="285">Min: 10.0 km</text><text fill="#FFFFFF" style="font-size:3px; font-family:Arial" x="167" y="290">Max: 14.7 km</text><polyline fill="none" points="62.61467015952803,77.52846901079465 59.38675875210902,76.9172949155909 57.45772803045111,75.61234498267731 54.62848297209712,74.73686411321978 53.27816146699479,73.8778954058289 48.84139080729801,72.07734445230017 46.758037628023885,71.63133215054404 45.12479161698138,71.61481314383127 43.028578232915606,71.06968461946235 40.81662300549215,71.0036082626466 37.92307692306349,69.79770821853162 36.984281971876044,68.64135407646245 33.78209097404033,65.68433953663043 32.341748035221826,65.08962370515655 30.618480590579566,63.75150206810213 29.499642772076186,63.23937740555266 26.490354846406262,60.89348749030614 25.30721600377001,59.1588204304644 23.378185282170307,57.60585864808672 20.9347463681479,53.73988582288439 18.131221719493624,51.2616311377933 16.819480828824453,49.04767936418648 15.43057870917255,47.791986663098214 14.105977613653522,45.23099280157476 13.0,42.025541089744365 15.173374612932093,47.2137026114724 15.81638485356234,48.12243341332214 16.92236246727407,49.03115717901528 18.658490116649773,51.74076445740502 20.9347463681479,53.72336429825373 22.593712788715493,56.118961092048266 23.185282210062724,57.45716974008974 25.05001190758776,58.97709192166076 26.56751607521437,61.04217204550514 32.16170516790589,64.97398416583746 34.103596094297245,66.03125571359851 38.01309835672146,69.89682375788834 40.945225053525064,71.05316553371085 44.9318885448738,71.69740815402474 46.758037628023885,71.71392714903777 49.12431531312177,72.42424173776817 57.38056680158479,75.61234498267731 59.502500595350284,76.98336794415809 62.03596094303066,77.56150535779307 65.54679685633164,77.97445891025563 67.0,77.54498718545801 66.96141938556684,77.29721432191582 66.16408668726217,77.42935991421837 66.0997856631875,77.82579579868616 65.30245296499925,77.82579579868616 59.59252202906646,76.98336794415809 56.82757799472893,75.36456804042245 49.70302452961914,72.50683617846516 46.590854965441395,71.59829413485568 44.89330793044064,71.58177512353723 43.19576089543989,71.18531815426832 41.112407716107555,71.20183722140791 37.588711598014925,69.74815041749389 33.872112407698296,66.01473591889953 32.07168373418972,65.12266355260363 26.374613003106788,60.992610547997174 24.959990473929793,59.10925813776703 23.108120981196407,57.572816684813006 22.503691355057526,56.28417286174226 20.806144320056774,53.7564073452304 18.555608478200156,51.757286261090485 16.896642057574354,49.17985676170065 15.37913789000595,47.74241957030608 13.990235770412255,44.98315172006551 13.128602048149332,42.223818993763416" stroke="#4dd2ff" stroke-linecap="round" stroke-linejoin="round" stroke-width="0.5"><title>2023-05-07 13.6km</title></polyline><polyline fill="none" points="133.0,51.11959260783624 154.1239669425413,64.10625540046021 158.7355371909216,79.19354606163688 167.06611570343375,76.32888350030407 179.561983470805,82.24917947279755 185.21487603336573,78.62061403261032 183.28099173586816,68.88073258416262 168.85123967006803,61.05058120144531 157.54545454587787,49.20977879012935 151.74380165338516,52.456460683373734 149.3636363632977,58.94980120379478 155.31404958758503,64.87017287721392 160.3719008276239,79.00256874621846 166.3223140500486,76.13790578197222 178.81818181835115,82.24917947279755 183.28099173586816,80.9123407008592 186.10743801668286,75.56497246411163 181.34710743837059,67.16192273015622 166.91735537163913,60.28666157810949 156.35537190083414,50.16468603454996 149.95867768581957,58.75882104341872 157.0991735542193,67.16192273015622 159.62809917423874,78.81159140274394 169.89256198424846,77.4747492497554 179.7107438016683,82.44015633279923 185.8099173558876,79.57550061412621 186.55371900834143,75.94692803604994 182.8347107442096,68.49877502652816 166.61983471084386,60.47764152393211 156.35537190083414,50.35566740273498 151.1487603308633,54.55725071718916 149.6611570250243,60.47764152393211 156.35537190083414,66.20702742773574 160.52066115755588,79.76647784980014 167.9586776867509,77.4747492497554 178.0743801658973,82.82210997235961 184.91735537257046,80.72136362595484 186.55371900834143,75.18301678565331 182.98347107507288,68.11681736179162 169.44628099165857,61.62352063704748 157.0991735542193,49.97370463912375 150.85123967006803,58.376860641059466 157.2479338850826,66.77996468963102 160.81818181835115,79.19354606163688 167.21487603336573,77.4747492497554 180.15702479332685,82.44015633279923 185.95867768581957,78.81159140274394 186.40495867747813,75.37399463844486 181.49586776923388,66.97094372322317 168.85123967006803,61.24156104004942 156.8016528924927,49.97370463912375 152.6363636367023,52.83842274942435 150.1074380176142,60.09568160492927 156.65289256162941,65.63408992404584 159.77685950417072,78.81159140274394 167.8099173558876,77.28377169161104 180.90082644671202,82.44015633279923 184.3223140500486,80.9123407008592 185.95867768581957,74.41910510533489 180.30578512512147,66.58898562891409 169.1487603308633,61.43254085164517 155.9090909101069,50.16468603454996 149.8099173558876,59.713721579057164 156.65289256162941,65.2521314539481 161.11570248007774,79.76647784980014 167.9586776867509,76.71083885745611 181.0495867775753,82.24917947279755 186.25619834754616,78.62061403261032 187.0,74.80106099927798 182.98347107507288,67.54388066357933 170.04132231418043,60.859601335716434 156.05785124003887,49.40076029265765 150.1074380176142,58.376860641059466 157.69421487674117,67.9258384888526 159.33057851251215,79.19354606163688 168.70247933920473,76.71083885745611 180.00826446246356,82.24917947279755 185.512396694161,78.62061403261032 186.55371900834143,74.99203890550416 183.57851239666343,67.9258384888526 166.1735537191853,58.75882104341872 157.3966942159459,49.20977879012935 149.6611570250243,59.1407813380938 156.35537190083414,64.29723480995744 159.77685950417072,80.148432240705 167.8099173558876,76.90181649569422 179.561983470805,82.05820258602034 185.3636363632977,78.23865921248216 186.10743801668286,74.80106099927798 180.60330578591675,66.20702742773574 166.1735537191853,58.75882104341872 157.84297520760447,49.01879726059269 152.04132231511176,53.02940374228638 149.6611570250243,60.28666157810949 156.20661157090217,63.724296501488425 160.3719008276239,80.53038652404211 168.40495867840946,77.66572678100783 181.64462810009718,81.4852717644535 185.06611570250243,79.38452335132752 186.40495867747813,73.65519299579319 182.537190082483,67.35290171008091 167.36363636422902,60.09568160492927 143.7107438025996,37.55985638673883 136.27272727247328,51.88351738359779 153.52892562095076,62.578419159632176 160.0743801658973,80.53038652404211 166.024793388322,76.90181649569422 181.49586776923388,81.67624873109162 186.25619834754616,77.85670428490266 185.6611570250243,71.17247567465529 178.0743801658973,64.10625540046021 163.79338843002915,56.84901795955375 154.71900826506317,45.390143103781156 143.26446281094104,37.55985638673883 135.67768595088273,49.78272321715485 157.2479338850826,64.67919354815967 160.2231404967606,79.57550061412621 166.61983471084386,75.94692803604994 181.94214876089245,81.29429476999212 186.40495867747813,73.65519299579319 183.42975206673145,68.30779620737303 169.2975206617266,61.24156104004942 154.86776859499514,45.008178944699466 144.30578512512147,37.55985638673883 135.67768595088273,50.73763005936053 155.01652892678976,62.769398783450015 159.62809917423874,79.38452335132752 170.19008264504373,77.09279410727322 180.15702479332685,82.05820258602034 185.8099173558876,78.429636635934 185.95867768581957,72.31834577128757 182.09090909082443,66.97094372322317 163.94214876089245,57.0399983888492 155.31404958758503,45.77210715552792 143.41322314180434,37.17789002764039 135.38016529008746,50.54664874449372 154.71900826506317,62.578419159632176 160.3719008276239,79.95745505893137 166.91735537163913,76.90181649569422 182.23966942168772,81.29429476999212 186.55371900834143,74.61008306557778 181.0495867775753,66.77996468963102 165.72727272752672,59.1407813380938 155.01652892678976,46.154071099939756 142.96694215014577,37.75083952664863 135.52892562001944,49.97370463912375 156.50413223169744,62.3874395089224 158.88429752085358,78.23865921248216 167.06611570343375,76.13790578197222 181.1983471075073,81.10331774840597 184.4710743809119,79.76647784980014 186.25619834754616,74.41910510533489 180.30578512512147,66.58898562891409 167.6611570250243,60.09568160492927 157.0991735542193,49.591741768526845 152.487603305839,52.074498510803096 149.95867768581957,58.94980120379478 156.65289256162941,62.3874395089224 159.77685950417072,78.81159140274394 167.51239669509232,76.32888350030407 182.23966942168772,81.29429476999212 186.7024793382734,74.03714910452254 181.94214876089245,66.97094372322317 167.21487603336573,59.331761444802396 143.26446281094104,38.32378878432792 135.67768595088273,49.78272321715485 155.9090909101069,62.00548012659419 159.92561983596534,79.19354606163688 168.10743801668286,76.51986119290814 180.90082644671202,82.05820258602034 185.8099173558876,79.19354606163688 185.512396694161,72.50932402699254 181.1983471075073,66.77996468963102 167.51239669509232,59.52274152543396 155.31404958758503,45.581125142634846 143.7107438025996,38.132805725210346 137.462809917517,45.19916103722062 137.01652892678976,51.11959260783624 155.7603305792436,61.62352063704748 160.2231404967606,79.57550061412621 166.76859504263848,77.28377169161104 176.58677685912699,81.4852717644535 183.42975206673145,81.29429476999212 186.7024793382734,76.71083885745611 185.6611570250243,72.12736748857424 177.47933884337544,64.10625540046021 166.61983471084386,60.09568160492927 156.65289256162941,50.35566740273498 151.59504132252187,54.175289134378545 149.3636363632977,60.09568160492927 155.01652892678976,62.196459830971435 160.0743801658973,80.148432240705 167.9586776867509,77.28377169161104 180.30578512512147,82.05820258602034 185.95867768581957,79.00256874621846 185.95867768581957,72.89128045691177 180.15702479332685,66.3980065418873 165.87603305839002,59.1407813380938 143.85950413253158,38.32378878432792 135.975206611678,51.310573841794394 156.05785124003887,63.34233749494888 160.3719008276239,80.53038652404211 166.47107437998056,76.71083885745611 181.49586776923388,81.86722567153629 186.25619834754616,78.62061403261032 185.95867768581957,72.89128045691177 179.85950413253158,66.3980065418873 167.21487603336573,60.47764152393211 155.462809917517,46.53603493643459 143.7107438025996,39.27870367735159 136.27272727247328,48.63683412177488 156.20661157090217,64.87017287721392" stroke="#4dd2ff" stroke-linecap="round" stroke-linejoin="round" stroke-width="0.5"><title>2023-05-01 14.7km</title></polyline><polyline fill="none" points="13.0,111.01348835625686 34.846153846010566,123.06157850392628 39.76923076994717,139.84972863656003 48.07692307699472,137.28214219247457 61.30769230797887,142.0222981175175 66.69230769202113,136.6896215772722 64.38461538497359,129.97437048866414 46.076923076063395,121.08648883563 36.5384615380317,109.63091402908321 34.23076923098415,109.82842473045457 27.923076923005283,120.69147056876682 35.76923076901585,125.431682442897 40.38461538404226,140.6397542906925 47.30769230797887,137.4796490080189 58.53846153896302,142.61481648415793 62.846153846010566,142.0222981175175 66.69230769202113,135.8995937028667 64.07692307699472,129.1843388399575 34.5384615380317,109.43340330023784 27.615384615026414,120.0989429608453 34.5384615380317,124.24663097294979 40.38461538404226,140.6397542906925 47.0,137.08463534805924 60.5384615380317,142.8123225508025 66.53846153896302,137.08463534805924 62.53846153896302,128.1967986538075 49.615384615026414,121.67901602736674 36.69230769202113,108.64336010580882 31.923076923005283,111.60601979447529 27.76923076901585,119.9014337026747 37.307692307047546,127.40676600579172 39.30769230797887,140.24474151886534 48.384615384973586,137.4796490080189 61.0,142.417310390505 64.5384615380317,140.6397542906925 66.23076923005283,135.30707250523847 59.61538461595774,126.02420780318789 48.53846153896302,120.8889797157608 36.23076923098415,108.84087094583083 29.769230768084526,114.76618324662559 28.076923076063395,121.08648883563 36.07692307699472,125.03666539734695 39.4615384619683,139.6522221530322 47.30769230797887,137.08463534805924 61.30769230797887,142.2198042679811 66.23076923005283,139.45471564214677 66.69230769202113,136.09710071305744 63.0,128.98683085793164 44.23076923098415,117.92633959348314 35.92307692300528,109.03838175837882 30.53846153896302,114.17365314008202 28.69230769202113,121.48150699143298 35.76923076901585,124.24663097294979 40.38461538404226,140.04723509098403 49.0,137.67715579632204 59.923076923936605,142.8123225508025 65.0,140.44224791880697 66.69230769202113,134.91205823479686 63.0,128.1967986538075 45.4615384619683,118.91388699482195 39.76923076994717,110.61846725898795 34.69230769202113,108.44584923819639 27.923076923005283,120.29645219107624 35.92307692300528,125.23417393420823 39.615384615026414,140.44224791880697 49.0,137.67715579632204 61.92307692300528,142.61481648415793 66.69230769202113,138.26967599487398 66.53846153896302,134.1220293608494 59.0,125.03666539734695 44.69230769202113,118.71637757017743 34.846153846010566,109.03838175837882 28.538461538031697,119.50641510239802 38.076923076063395,127.60427420958877 39.0,139.6522221530322 46.84615384694189,137.87466255691834 60.076923076063395,143.00982859055512 65.15384615398943,141.2322732405737 67.0,136.09710071305744 62.230769231915474,127.40676600579172 45.76923076901585,119.30890576110687 35.0,109.43340330023784 28.846153845079243,120.0989429608453 36.07692307699472,126.02420780318789 39.0,140.44224791880697 47.46153846103698,137.08463534805924 61.92307692300528,142.2198042679811 67.0,136.09710071305744 61.153846153989434,126.2217162012821 48.69230769202113,120.49396139406599 35.0,108.64336010580882 29.769230768084526,120.49396139406599 36.38461538404226,124.24663097294979 39.615384615026414,141.03476695145946 48.23076923098415,138.26967599487398 58.23076923098415,142.61481648415793 64.69230769202113,140.04723509098403 66.53846153896302,136.09710071305744 60.38461538404226,125.82669937773608 46.69230769202113,119.30890576110687 37.153846153989434,109.03838175837882 34.5384615380317,109.23589254310355 29.307692307047546,120.29645219107624 36.69230769202113,126.02420780318789 38.23076923005283,139.6522221530322 46.076923076063395,137.08463534805924 62.230769231915474,142.417310390505 67.0,138.07216928945854 67.0,134.5170438538771 59.61538461595774,124.24663097294979 48.384615384973586,120.0989429608453 37.0,108.64336010580882 34.69230769202113,109.23589254310355 28.846153845079243,120.8889797157608 36.5384615380317,127.01174951496068 38.69230769202113,140.04723509098403 47.92307692300528,137.08463534805924 56.84615384694189,141.62728573440108 63.61538461595774,141.2322732405737 66.38461538497359,138.66468932188582 65.4615384619683,130.36938614665996 47.0,119.1113963915268 23.0,96.99017140944488 15.923076923005283,106.8657612951938 15.46153846103698,110.22344605007675 36.5384615380317,125.82669937773608 39.615384615026414,139.6522221530322 47.153846153989434,136.6896215772722 56.384615384973586,141.03476695145946 63.61538461595774,141.03476695145946 66.53846153896302,137.4796490080189 64.07692307699472,129.1843388399575 34.69230769202113,108.84087094583083 29.769230768084526,117.13630117254797 36.23076923098415,125.431682442897 39.76923076994717,140.04723509098403 47.61538461595774,136.2946076951921 56.69230769202113,141.42977950093336 63.30769230797887,141.42977950093336 66.38461538497359,137.08463534805924 65.0,129.97437048866414 49.92307692300528,121.48150699143298 39.92307692300528,110.61846725898795 34.846153846010566,109.63091402908321 30.076923076994717,114.76618324662559 29.153846153989434,121.28399792755954 36.5384615380317,127.40676600579172 40.07692307699472,140.6397542906925 47.92307692300528,136.6896215772722 60.69230769202113,142.417310390505 65.92307692300528,138.66468932188582 64.38461538497359,129.1843388399575 45.92307692300528,118.71637757017743 37.76923076901585,108.44584923819639 34.384615384973586,109.82842473045457 29.769230768084526,119.30890576110687 35.61538461595774,123.6541048635263 38.69230769202113,132.54197028127965 43.76923076901585,130.96190942509566 51.0,121.28399792755954" stroke="#4dd2ff" stroke-linecap="round" stroke-linejoin="round" stroke-width="0.5"><title>2023-04-20 10.0km</title></polyline><polyline fill="none" points="134.50990935630398,126.17988745784533 134.24443078815239,125.83895519568614 133.12444307879196,125.45540456693561 133.0,125.17839457182708 133.20740513136843,124.85876639580965 134.02872945152922,124.42193904107262 135.08234751882264,124.26212352589937 139.09771086191176,124.26212352589937 140.5080657551007,123.96380032882735 151.26824396988377,118.38067805958417 153.34229528342257,117.54956742098875 154.93516669227392,117.33646066017536 156.4450760485779,117.42170343642647 174.4727300660743,120.33055568778946 176.64633584266994,120.56496382639307 177.85758180977427,120.51168931315624 179.6910431709839,120.09614682388928 181.0018436011742,119.47815634201834 182.23797818404273,118.4872300460629 184.86787524964893,115.29060525033128 186.245045321848,114.76847705019463 186.96681517898105,114.81109989533434 187.0,114.9389682868059 186.65985558458488,114.99224671956472 184.68535873407382,114.1824104974221 184.28714088187553,113.82011254215467 183.1920417882793,116.1323961980961 181.74850207404234,118.18888410616637 179.98970656015445,119.54208662566816 178.9111998770968,120.01090705719253 177.73313873098232,120.30924582106672 176.20663696416887,120.40514017422538 174.41465662926203,120.24531618486799 158.83438316176762,117.72005239794089 155.92241511750035,117.30449459431838 154.48717160854721,117.29383923605928 153.21785220465972,117.51760144506261 151.69135043784627,118.0290554407402 140.41680749729858,123.8146382897612 138.89860193576897,124.04903564785491 134.59287140879314,124.03838123821333 133.16592410512385,124.51782818836364" stroke="#4dd2ff" stroke-linecap="round" stroke-linejoin="round" stroke-width="0.5"><title>2023-03-17 12.5km</title></polyline><polyline fill="none" points="14.36183300014818,186.13227305416513 13.0,185.35379996079428 13.149469475611113,185.0445413083944 13.747347378113773,184.70328891788813 15.225434414867777,184.43668441922637 19.07842534215888,184.43668441922637 20.431954482541187,184.13808626788523 31.24357988621341,178.53915319934458 33.29463324617245,177.71794158218108 35.18791327078361,177.49397323374433 36.37536521605216,177.5686294234256 52.22743349222583,180.17088495238568 54.901276334014256,180.55481673213217 57.72458865138469,180.6721288326371 59.82546516993898,180.1815497503194 61.22051360909245,179.4563400752013 62.42457327386364,178.3898426578162 65.01537751808064,175.35024271144357 66.41042595723411,174.795635891016 66.97508842070238,174.8916258233221 67.0,175.05160877380695 66.31908349992591,175.05160877380695 64.50053821312031,174.17703118945064 64.33446101800655,174.05970903866546 64.34276487774332,173.86772694583487 63.01414731665864,176.57676261845336 61.477933261572616,178.53915319934458 59.966630785755115,179.62697826987278 57.99031216363073,180.3201919866624 56.3959710902418,180.46949872688128 54.610641242499696,180.30952720823552 37.122712594195036,177.5366339225584 35.520067661069334,177.36599102332548 34.28279255723464,177.42998215556145 32.813009380275616,177.7286067251116 31.476087959395954,178.27252702604892 20.407042903272668,183.94612969255104 19.028602183621842,184.24472859975504 14.31200984158204,184.23406437333324 13.12455789631349,184.68196059247566" stroke="#4dd2ff" stroke-linecap="round" stroke-linejoin="round" stroke-width="0.5"><title>2023-03-11 12.5km</title></polyline><polyline fill="none" points="141.78048780560493,169.28518217499368 142.65853658504784,185.07549370080233 164.60975609719753,175.48852626606822 160.21951219439507,164.77365316916257 142.65853658504784,164.2097116857767 140.02439024299383,183.3836775838863 164.60975609719753,175.48852626606822 160.21951219439507,165.90153589844704 140.02439024299383,165.90153589844704 136.07317073084414,174.92458629002795 142.21951219439507,182.81973871891387 157.14634146541357,180.5639824704267 161.5365853663534,169.28518217499368 137.39024390280247,166.46547714271583 140.90243902429938,184.51155507401563 159.34146341495216,181.1279216511175 163.73170731589198,170.97700424259529 139.14634146355093,165.33759457361884 135.19512195140123,172.66882559587248 142.65853658504784,183.94761636923067 159.34146341495216,180.5639824704267 163.73170731589198,169.84912294498645 154.51219512149692,163.08182848314755 138.70731707289815,165.33759457361884 144.85365853458643,184.51155507401563 164.60975609719753,172.66882559587248 158.02439024485648,163.64577012439258 140.4634146336466,164.2097116857767 142.65853658504784,183.94761636923067 153.19512195326388,183.94761636923067 164.1707317084074,172.66882559587248 142.21951219439507,163.08182848314755 134.75609756074846,166.46547714271583 138.70731707289815,178.3082249504514 163.29268292710185,174.92458629002795 161.5365853663534,167.0294183071237 143.5365853663534,162.51788676343858 135.19512195140123,180.5639824704267 160.6585365869105,180.00004320894368 165.0487804878503,172.66882559587248 144.4146341457963,163.08182848314755 133.8780487794429,173.7967061032541 143.97560975514352,182.81973871891387 159.7804878037423,178.87216444918886 161.5365853663534,166.46547714271583 137.82926829345524,165.33759457361884 133.43902439065278,173.2327658890281 141.34146341495216,182.25579977640882 160.6585365869105,178.3082249504514 163.73170731589198,170.4130636334885 143.5365853663534,163.08182848314755 134.75609756074846,171.54094477253966 137.82926829345524,184.51155507401563 163.29268292710185,178.3082249504514 160.21951219439507,164.77365316916257 146.60975609719753,163.08182848314755 135.634146342054,170.4130636334885 136.9512195121497,180.00004320894368 152.75609756074846,181.6918607535772 163.29268292710185,174.3606462359894 161.09756097570062,165.33759457361884 142.65853658504784,163.08182848314755 133.43902439065278,173.7967061032541 136.9512195121497,181.6918607535772 152.75609756074846,182.81973871891387 165.48780487850308,170.97700424259529 143.97560975514352,164.2097116857767 135.19512195140123,172.66882559587248 140.90243902429938,183.3836775838863 162.4146341457963,176.61640597693622 162.85365853644907,168.1573003998492 143.97560975514352,163.64577012439258 134.31707317009568,176.0524661608506 140.4634146336466,182.81973871891387 158.02439024485648,180.5639824704267 164.60975609719753,170.97700424259529 141.78048780560493,164.77365316916257 134.75609756074846,169.28518217499368 139.5853658542037,182.81973871891387 164.60975609719753,173.2327658890281 158.90243902429938,164.77365316916257 141.78048780560493,164.77365316916257 135.19512195140123,170.4130636334885 139.14634146355093,182.25579977640882 155.39024390280247,181.6918607535772 164.60975609719753,169.84912294498645 140.02439024299383,164.77365316916257 134.75609756074846,170.4130636334885 141.78048780560493,182.25579977640882 162.4146341457963,179.43610386946239 165.92682926729321,171.54094477253966 143.5365853663534,163.08182848314755 136.07317073084414,167.593359392602 137.39024390280247,181.6918607535772 163.73170731589198,174.92458629002795 156.70731707289815,163.64577012439258 138.70731707289815,164.77365316916257 140.4634146336466,182.81973871891387 159.34146341495216,178.87216444918886 164.60975609719753,169.28518217499368 137.39024390280247,166.46547714271583 142.21951219439507,183.3836775838863 164.1707317084074,172.66882559587248 156.70731707289815,163.64577012439258 137.39024390280247,166.46547714271583 135.634146342054,176.61640597693622 146.17073170654476,183.94761636923067 165.48780487850308,171.54094477253966 155.8292682915926,163.08182848314755 136.51219512149692,165.90153589844704 138.26829268224537,182.81973871891387 153.19512195326388,183.94761636923067 164.60975609719753,172.1048852247186 141.34146341495216,163.64577012439258 134.75609756074846,174.92458629002795 139.5853658542037,182.81973871891387 162.4146341457963,178.87216444918886 165.0487804878503,172.1048852247186 142.65853658504784,164.77365316916257 136.51219512149692,168.72124132653698 140.4634146336466,182.81973871891387 157.58536585234106,183.3836775838863 165.0487804878503,175.48852626606822 163.29268292710185,167.593359392602 147.0487804878503,163.08182848314755 138.26829268224537,166.46547714271583 137.82926829345524,180.5639824704267 163.29268292710185,175.48852626606822 156.26829268224537,163.64577012439258 137.82926829345524,165.90153589844704 137.82926829345524,181.1279216511175 163.73170731589198,177.18034571548924 160.21951219439507,164.77365316916257 142.65853658504784,163.08182848314755 136.07317073084414,168.1573003998492 139.5853658542037,182.25579977640882 162.4146341457963,181.1279216511175 158.02439024485648,163.64577012439258 137.82926829345524,165.33759457361884 134.75609756074846,175.48852626606822 155.39024390280247,182.25579977640882 163.73170731589198,175.48852626606822 157.14634146541357,163.08182848314755 134.75609756074846,171.54094477253966 141.78048780560493,183.94761636923067 158.02439024485648,182.25579977640882 164.60975609719753,170.97700424259529 151.8780487794429,163.64577012439258 138.70731707289815,165.33759457361884 134.75609756074846,178.3082249504514 161.09756097570062,178.3082249504514 163.29268292710185,167.593359392602 154.9512195121497,162.51788676343858 136.51219512149692,165.90153589844704 135.19512195140123,177.18034571548924 145.29268292710185,182.25579977640882 162.85365853644907,175.48852626606822 163.73170731589198,168.1573003998492 152.31707317195833,163.08182848314755 137.82926829345524,166.46547714271583 137.39024390280247,180.00004320894368 161.97560975514352,178.3082249504514 161.97560975514352,167.0294183071237 142.21951219439507,163.08182848314755 134.75609756074846,176.61640597693622 157.58536585234106,181.1279216511175 163.29268292710185,176.0524661608506 159.7804878037423,163.64577012439258 142.21951219439507,162.51788676343858 133.43902439065278,174.3606462359894 141.34146341495216,183.3836775838863 162.4146341457963,179.43610386946239 162.4146341457963,165.90153589844704 154.51219512149692,162.51788676343858 136.9512195121497,165.33759457361884 136.07317073084414,177.74428537278436 158.4634146336466,181.1279216511175 164.1707317084074,170.97700424259529 157.58536585234106,163.64577012439258 139.5853658542037,163.08182848314755 135.19512195140123,175.48852626606822 157.58536585234106,181.6918607535772 164.60975609719753,170.97700424259529 153.63414634019136,163.08182848314755 140.90243902429938,163.64577012439258 135.19512195140123,175.48852626606822 140.02439024299383,181.6918607535772 161.09756097570062,180.5639824704267 165.92682926729321,173.7967061032541 158.4634146336466,162.51788676343858 134.31707317009568,170.97700424259529 140.90243902429938,182.81973871891387 158.90243902429938,181.1279216511175 164.1707317084074,168.72124132653698 157.58536585234106,162.51788676343858 138.26829268224537,165.33759457361884 134.31707317009568,172.1048852247186 137.39024390280247,180.00004320894368 156.70731707289815,181.6918607535772 163.73170731589198,174.3606462359894 157.58536585234106,164.2097116857767 139.14634146355093,164.77365316916257 133.8780487794429,174.92458629002795 138.70731707289815,182.25579977640882 157.58536585234106,181.6918607535772 163.29268292710185,176.61640597693622 156.26829268224537,163.08182848314755 140.02439024299383,164.2097116857767 133.0,174.92458629002795 154.9512195121497,182.25579977640882 162.85365853644907,177.74428537278436 160.6585365869105,164.77365316916257 143.97560975514352,162.51788676343858 133.0,169.84912294498645 138.26829268224537,180.00004320894368 155.8292682915926,180.5639824704267 164.1707317084074,168.72124132653698 158.90243902429938,163.08182848314755 133.8780487794429,167.0294183071237 137.39024390280247,180.00004320894368 155.39024390280247,181.1279216511175 164.1707317084074,174.3606462359894 160.21951219439507,163.64577012439258 135.634146342054,169.28518217499368 140.02439024299383,180.5639824704267 154.51219512149692,181.1279216511175 162.85365853644907,178.3082249504514 160.6585365869105,164.77365316916257 140.4634146336466,163.08182848314755 133.0,170.97700424259529 140.02439024299383,181.6918607535772 157.14634146541357,181.6918607535772 164.1707317084074,172.66882559587248 154.51219512149692,164.2097116857767 142.65853658504784,163.64577012439258 133.8780487794429,172.66882559587248 137.82926829345524,180.00004320894368 154.9512195121497,180.00004320894368 163.29268292710185,176.61640597693622 160.21951219439507,164.2097116857767 139.14634146355093,164.2097116857767 134.31707317009568,170.4130636334885 140.02439024299383,181.1279216511175 158.4634146336466,180.00004320894368 164.1707317084074,173.7967061032541 158.90243902429938,163.08182848314755 140.02439024299383,162.51788676343858 134.31707317009568,170.4130636334885 141.34146341495216,181.1279216511175 158.4634146336466,180.00004320894368 165.0487804878503,172.66882559587248 157.58536585234106,163.64577012439258 134.31707317009568,169.84912294498645 141.34146341495216,180.5639824704267 159.7804878037423,178.87216444918886 164.60975609719753,172.66882559587248 157.14634146541357,161.95394496200606 137.39024390280247,164.2097116857767 134.75609756074846,177.74428537278436 162.4146341457963,178.3082249504514 161.97560975514352,165.90153589844704 154.07317073270679,162.51788676343858 137.82926829345524,164.77365316916257 133.8780487794429,173.2327658890281 143.5365853663534,182.81973871891387 163.29268292710185,178.87216444918886 160.6585365869105,165.90153589844704 143.5365853663534,163.64577012439258 136.07317073084414,165.90153589844704 135.19512195140123,178.87216444918886 161.97560975514352,178.3082249504514 163.73170731589198,170.4130636334885 150.12195121869445,163.64577012439258 138.70731707289815,164.77365316916257 133.43902439065278,176.0524661608506 158.4634146336466,180.5639824704267 163.73170731589198,169.28518217499368 151.8780487794429,162.51788676343858 139.14634146355093,164.2097116857767 133.8780487794429,177.18034571548924 146.60975609719753,182.81973871891387 162.85365853644907,177.74428537278436 159.7804878037423,164.77365316916257 151.43902439065278,163.08182848314755 135.634146342054,167.593359392602 135.19512195140123,178.3082249504514 160.21951219439507,181.1279216511175 163.29268292710185,167.593359392602 157.14634146541357,162.51788676343858 136.07317073084414,166.46547714271583 134.75609756074846,176.0524661608506 160.6585365869105,178.3082249504514 162.4146341457963,165.90153589844704 155.8292682915926,161.39000308187678 138.70731707289815,163.64577012439258 134.31707317009568,175.48852626606822 157.58536585234106,181.6918607535772 164.1707317084074,169.84912294498645 159.34146341495216,163.64577012439258 137.39024390280247,164.77365316916257 133.0,174.3606462359894 143.5365853663534,182.25579977640882 160.21951219439507,180.5639824704267 165.0487804878503,170.4130636334885 154.07317073270679,161.95394496200606 136.51219512149692,165.90153589844704 134.75609756074846,175.48852626606822 159.7804878037423,181.1279216511175 164.60975609719753,169.84912294498645 158.90243902429938,163.64577012439258 141.78048780560493,163.64577012439258 133.8780487794429,174.3606462359894 158.02439024485648,181.6918607535772 164.1707317084074,176.0524661608506 157.14634146541357,164.2097116857767 133.8780487794429,173.2327658890281 143.09756097756326,182.81973871891387 159.7804878037423,181.1279216511175 164.60975609719753,174.3606462359894 158.02439024485648,163.64577012439258 140.02439024299383,164.2097116857767 134.31707317009568,174.92458629002795 141.34146341495216,182.25579977640882 158.02439024485648,181.1279216511175 164.1707317084074,170.4130636334885 157.58536585234106,164.2097116857767 137.82926829345524,164.77365316916257 133.0,174.3606462359894 158.02439024485648,180.5639824704267 163.73170731589198,176.61640597693622 158.02439024485648,163.64577012439258 133.8780487794429,168.72124132653698 137.82926829345524,180.5639824704267 157.58536585234106,181.1279216511175 163.29268292710185,176.0524661608506 157.58536585234106,163.64577012439258 138.70731707289815,163.64577012439258 134.75609756074846,176.61640597693622 161.5365853663534,178.3082249504514 165.48780487850308,172.1048852247186 154.9512195121497,162.51788676343858 133.8780487794429,171.54094477253966 136.51219512149692,178.87216444918886 152.75609756074846,180.5639824704267 162.4146341457963,176.0524661608506 159.34146341495216,164.2097116857767 134.75609756074846,167.0294183071237 138.70731707289815,180.00004320894368 155.8292682915926,181.1279216511175 165.0487804878503,170.97700424259529 154.9512195121497,161.95394496200606 136.51219512149692,165.33759457361884 134.31707317009568,174.92458629002795 145.29268292710185,183.3836775838863 162.85365853644907,178.3082249504514 154.9512195121497,163.08182848314755 142.65853658504784,163.08182848314755 134.31707317009568,174.3606462359894 158.02439024485648,181.1279216511175 163.73170731589198,170.97700424259529 158.90243902429938,164.2097116857767 134.75609756074846,169.28518217499368 141.78048780560493,181.6918607535772 159.7804878037423,181.1279216511175 162.85365853644907,167.0294183071237 155.8292682915926,162.51788676343858 137.82926829345524,164.2097116857767 135.19512195140123,177.74428537278436 158.90243902429938,181.1279216511175 163.73170731589198,173.7967061032541 157.58536585234106,163.64577012439258 139.5853658542037,163.64577012439258 133.43902439065278,173.7967061032541 141.78048780560493,182.25579977640882 161.09756097570062,179.43610386946239 156.70731707289815,163.08182848314755 148.36585365608335,163.08182848314755 153.19512195326388,172.66882559587248 170.31707317009568,183.3836775838863 174.26829268410802,196.91818651626818 187.0,198.60999691812322" stroke="#4dd2ff" stroke-linecap="round" stroke-linejoin="round" stroke-width="0.5"><title>2021-06-01 11.4km</title></polyline><polyline fill="none" points="61.599999997764826,245.20238403324038 43.375,224.39297406189144 15.699999999254942,236.5318050836213 15.699999999254942,251.27178203407675 52.82499999925494,246.06944125611335 45.399999998509884,221.79179287469015 28.524999998509884,224.39297406189144 13.0,246.93649835698307 28.524999998509884,261.67645041504875 56.875,249.5376689294353 56.875,226.9941541524604 43.375,221.79179287469015 18.399999998509884,246.93649835698307 53.5,246.06944125611335 60.92500000074506,235.6647465187125 47.42500000074506,218.3235495854169 19.074999999254942,239.13298005005345 27.849999997764826,255.6070626634173 53.5,250.40472554368898 61.599999997764826,238.26592184929177 48.100000001490116,220.92473223386332 23.125,230.46239256160334 19.074999999254942,250.40472554368898 55.525000002235174,244.33532668510452 60.92500000074506,233.06357008963823 44.724999997764826,218.3235495854169 18.399999998509884,232.19651103531942 19.074999999254942,245.20238403324038 57.55000000074506,250.40472554368898 64.29999999701977,228.7282736026682 54.849999997764826,222.65885339444503 23.800000000745058,234.7976878322661 33.25,258.20822957577184 60.92500000074506,246.93649835698307 63.625,230.46239256160334 28.524999998509884,222.65885339444503 15.699999999254942,234.7976878322661 50.79999999701977,244.33532668510452 62.274999998509884,240.00003812927753 56.19999999925494,220.0576714728959 25.149999998509884,220.92473223386332 17.725000001490116,239.13298005005345 55.525000002235174,245.20238403324038 63.625,234.7976878322661 53.5,220.0576714728959 17.725000001490116,232.19651103531942 27.175000000745058,252.1388384043239 56.875,246.06944125611335 62.94999999925494,225.26003421237692 53.5,219.1906105875969 22.449999999254942,224.39297406189144 17.725000001490116,236.5318050836213 31.899999998509884,248.67061219504103 60.92500000074506,240.86709608323872 60.92500000074506,223.52591378847137 48.100000001490116,219.1906105875969 23.800000000745058,224.39297406189144 21.774999998509884,246.93649835698307 58.899999998509884,246.93649835698307 65.64999999850988,233.93062902381644 50.79999999701977,219.1906105875969 20.425000000745058,226.12709424318746 23.125,248.67061219504103 61.599999997764826,240.00003812927753 64.29999999701977,228.7282736026682 46.07499999925494,220.0576714728959 27.175000000745058,221.79179287469015 18.399999998509884,240.86709608323872 32.57500000298023,251.27178203407675 61.599999997764826,240.00003812927753 48.100000001490116,219.1906105875969 22.449999999254942,225.26003421237692 18.399999998509884,239.13298005005345 32.57500000298023,251.27178203407675 54.17500000447035,246.93649835698307 64.29999999701977,239.13298005005345 57.55000000074506,221.79179287469015 19.074999999254942,232.19651103531942 24.475000001490116,250.40472554368898 56.19999999925494,244.33532668510452 64.29999999701977,236.5318050836213 54.17500000447035,219.1906105875969 26.5,221.79179287469015 19.074999999254942,233.93062902381644 31.899999998509884,252.1388384043239 58.224999997764826,246.06944125611335 64.97500000149012,237.39886352838948 52.82499999925494,221.79179287469015 22.449999999254942,224.39297406189144 18.399999998509884,233.93062902381644 23.800000000745058,249.5376689294353 52.82499999925494,250.40472554368898 62.94999999925494,245.20238403324038 58.899999998509884,224.39297406189144 31.224999997764826,221.79179287469015 19.75,232.19651103531942 24.475000001490116,249.5376689294353 53.5,250.40472554368898 65.64999999850988,233.06357008963823 58.224999997764826,224.39297406189144 29.199999999254942,222.65885339444503 19.074999999254942,234.7976878322661 23.125,249.5376689294353 57.55000000074506,246.06944125611335 62.274999998509884,226.12709424318746 51.475000001490116,221.79179287469015 19.75,227.86121393926442 19.074999999254942,240.00003812927753 26.5,253.00589465210214 52.82499999925494,250.40472554368898 63.625,243.46826921822503 56.875,224.39297406189144 19.074999999254942,232.19651103531942 27.849999997764826,253.00589465210214 54.17500000447035,249.5376689294353 64.29999999701977,241.73415391659364 54.17500000447035,220.92473223386332 23.125,225.26003421237692 19.75,237.39886352838948 33.25,253.87295077601448 60.92500000074506,246.93649835698307 55.525000002235174,220.0576714728959 23.125,225.26003421237692 20.425000000745058,240.00003812927753 25.149999998509884,251.27178203407675 52.82499999925494,252.1388384043239 64.97500000149012,232.19651103531942 56.875,222.65885339444503 21.100000001490116,227.86121393926442 28.524999998509884,254.74000678071752 54.17500000447035,253.87295077601448 63.625,246.93649835698307 59.57500000298023,226.9941541524604 19.75,231.32945186039433 29.199999999254942,256.4741184222512 52.149999998509884,253.87295077601448 62.94999999925494,246.93649835698307 60.92500000074506,227.86121393926442 29.875,222.65885339444503 19.074999999254942,235.6647465187125 23.800000000745058,251.27178203407675 57.55000000074506,249.5376689294353 65.64999999850988,231.32945186039433 54.849999997764826,221.79179287469015 23.800000000745058,224.39297406189144 21.100000001490116,234.7976878322661 30.550000000745058,256.4741184222512 54.17500000447035,253.87295077601448 62.274999998509884,229.59533314267173 21.100000001490116,230.46239256160334 23.800000000745058,248.67061219504103 39.32499999925494,254.74000678071752 62.94999999925494,246.06944125611335 59.57500000298023,225.26003421237692 17.050000000745058,231.32945186039433 28.524999998509884,255.6070626634173 43.375,254.74000678071752 58.899999998509884,250.40472554368898 63.625,228.7282736026682 22.449999999254942,229.59533314267173 23.800000000745058,251.27178203407675 48.100000001490116,255.6070626634173 64.97500000149012,244.33532668510452 56.19999999925494,226.12709424318746 25.149999998509884,225.26003421237692 17.050000000745058,235.6647465187125 33.25,251.27178203407675 54.849999997764826,249.5376689294353 63.625,228.7282736026682 54.849999997764826,220.92473223386332 19.074999999254942,231.32945186039433 24.475000001490116,247.80355533631518 44.05000000074506,254.74000678071752 64.97500000149012,240.86709608323872 61.599999997764826,227.86121393926442 21.774999998509884,228.7282736026682 24.475000001490116,252.1388384043239 50.125,255.6070626634173 64.29999999701977,236.5318050836213 56.875,226.9941541524604 35.274999998509884,224.39297406189144 18.399999998509884,237.39886352838948 31.899999998509884,254.74000678071752 53.5,253.87295077601448 65.64999999850988,235.6647465187125 57.55000000074506,224.39297406189144 23.125,227.86121393926442 25.149999998509884,249.5376689294353 42.69999999925494,253.87295077601448 62.274999998509884,246.06944125611335 58.899999998509884,226.9941541524604 20.425000000745058,229.59533314267173 27.175000000745058,253.87295077601448 56.875,253.87295077601448 65.64999999850988,237.39886352838948 46.75,222.65885339444503 28.524999998509884,223.52591378847137 20.425000000745058,242.60121162980795 26.5,253.87295077601448 56.19999999925494,253.00589465210214 58.224999997764826,226.12709424318746 30.550000000745058,222.65885339444503 18.399999998509884,241.73415391659364 34.599999997764826,253.87295077601448 57.55000000074506,251.27178203407675 56.19999999925494,224.39297406189144 28.524999998509884,223.52591378847137 19.75,233.93062902381644 25.824999999254942,253.00589465210214 52.149999998509884,253.87295077601448 63.625,234.7976878322661 56.19999999925494,226.12709424318746 28.524999998509884,222.65885339444503 17.050000000745058,239.13298005005345 29.875,253.00589465210214 58.899999998509884,249.5376689294353 61.599999997764826,226.9941541524604 50.125,222.65885339444503 31.899999998509884,221.79179287469015 19.074999999254942,242.60121162980795 53.5,251.27178203407675 64.97500000149012,233.06357008963823 51.475000001490116,220.92473223386332 22.449999999254942,226.9941541524604 21.774999998509884,246.93649835698307 58.899999998509884,250.40472554368898 64.97500000149012,240.00003812927753 51.475000001490116,222.65885339444503 17.725000001490116,236.5318050836213 27.175000000745058,251.27178203407675 56.875,250.40472554368898 64.29999999701977,230.46239256160334 54.17500000447035,225.26003421237692 19.074999999254942,234.7976878322661 27.849999997764826,252.1388384043239 55.525000002235174,249.5376689294353 64.29999999701977,240.86709608323872 58.224999997764826,223.52591378847137 21.100000001490116,226.9941541524604 16.375,240.00003812927753 27.849999997764826,253.00589465210214 54.849999997764826,248.67061219504103 62.94999999925494,228.7282736026682 52.82499999925494,222.65885339444503 23.800000000745058,223.52591378847137 17.725000001490116,234.7976878322661 29.199999999254942,252.1388384043239 57.55000000074506,248.67061219504103 63.625,229.59533314267173 54.17500000447035,225.26003421237692 28.524999998509884,223.52591378847137 17.725000001490116,237.39886352838948 29.199999999254942,253.00589465210214 56.19999999925494,250.40472554368898 64.97500000149012,241.73415391659364 54.17500000447035,221.79179287469015 24.475000001490116,223.52591378847137 19.75,233.93062902381644 31.899999998509884,252.1388384043239 61.599999997764826,248.67061219504103 67.0,238.26592184929177 54.849999997764826,224.39297406189144 23.800000000745058,226.12709424318746 19.074999999254942,238.26592184929177 33.25,253.87295077601448 59.57500000298023,248.67061219504103 66.32499999925494,237.39886352838948 51.475000001490116,221.79179287469015 23.125,226.12709424318746 18.399999998509884,241.73415391659364 30.550000000745058,253.87295077601448 58.899999998509884,248.67061219504103 57.55000000074506,224.39297406189144 31.224999997764826,222.65885339444503 18.399999998509884,240.00003812927753 27.175000000745058,252.1388384043239 61.599999997764826,246.06944125611335 60.92500000074506,226.9941541524604 48.100000001490116,221.79179287469015 29.199999999254942,222.65885339444503 19.75,242.60121162980795 40.0,253.00589465210214 60.92500000074506,247.80355533631518 55.525000002235174,222.65885339444503 20.425000000745058,230.46239256160334 34.599999997764826,253.87295077601448 58.224999997764826,250.40472554368898 67.0,241.73415391659364 57.55000000074506,223.52591378847137 27.849999997764826,223.52591378847137 20.425000000745058,240.86709608323872 30.550000000745058,252.1388384043239 59.57500000298023,250.40472554368898 66.32499999925494,240.00003812927753 51.475000001490116,223.52591378847137 23.125,226.9941541524604 19.074999999254942,238.26592184929177 33.25,253.87295077601448 61.599999997764826,248.67061219504103 66.32499999925494,238.26592184929177 51.475000001490116,222.65885339444503 22.449999999254942,226.9941541524604 23.800000000745058,248.67061219504103 64.29999999701977,246.06944125611335 60.25,226.12709424318746 47.42500000074506,221.79179287469015 24.475000001490116,224.39297406189144 18.399999998509884,241.73415391659364 28.524999998509884,252.1388384043239 62.274999998509884,246.93649835698307 65.64999999850988,235.6647465187125 48.100000001490116,222.65885339444503 21.100000001490116,228.7282736026682 22.449999999254942,248.67061219504103 60.92500000074506,248.67061219504103 59.57500000298023,226.12709424318746 45.399999998509884,223.52591378847137 26.5,224.39297406189144 17.050000000745058,240.86709608323872 54.17500000447035,252.1388384043239 63.625,233.93062902381644 56.19999999925494,226.12709424318746 25.149999998509884,225.26003421237692 17.725000001490116,243.46826921822503 55.525000002235174,252.1388384043239 65.64999999850988,234.7976878322661 45.399999998509884,222.65885339444503 29.199999999254942,223.52591378847137 19.074999999254942,243.46826921822503 37.975000001490116,254.74000678071752 61.599999997764826,249.5376689294353 59.57500000298023,226.12709424318746 47.42500000074506,222.65885339444503 21.774999998509884,230.46239256160334 19.074999999254942,244.33532668510452 34.599999997764826,253.00589465210214 64.29999999701977,243.46826921822503 54.17500000447035,223.52591378847137 39.32499999925494,222.65885339444503 23.800000000745058,226.12709424318746 19.75,246.93649835698307 59.57500000298023,249.5376689294353 60.25,226.9941541524604 47.42500000074506,221.79179287469015 20.425000000745058,227.86121393926442 23.125,250.40472554368898 62.94999999925494,246.06944125611335 59.57500000298023,226.12709424318746 47.42500000074506,222.65885339444503 27.175000000745058,225.26003421237692 18.399999998509884,246.06944125611335 59.57500000298023,250.40472554368898 62.94999999925494,230.46239256160334 37.975000001490116,222.65885339444503 23.800000000745058,226.12709424318746 21.774999998509884,246.93649835698307 63.625,245.20238403324038" stroke="#4dd2ff" stroke-linecap="round" stroke-linejoin="round" stroke-width="0.5"><title>2020-11-29 10.4km</title></polyline></svg>