<?xml version="1.0" encoding="utf-8" ?>
<svg baseProfile="full" height="300mm" version="1.1" viewBox="0,0,200,300" width="200mm" xmlns="http://www.w3.org/2000/svg" xmlns:ev="http://www.w3.org/2001/xml-events" xmlns:xlink="http://www.w3.org/1999/xlink"><defs /><rect fill="#222222" height="300" width="200" x="0" y="0" /><text fill="#FFFFFF" style="font-size:12px; font-family:Arial; font-weight:bold;" x="10" y="20">Over 10km Runs</text><text fill="#FFFFFF" style="font-size:4px; font-family:Arial" x="10" y="280">ATHLETE</text><text fill="#FFFFFF" style="font-size:9px; font-family:Arial" x="10" y="290">Abuqi</text><text fill="#FFFFFF" style="font-size:4px; font-family:Arial" x="120" y="280">STATISTICS</text><text fill="#FFFFFF" style="font-size:3px; font-family:Arial" x="120" y="285">Number: 4</text><text fill="#FFFFFF" style="font-size:3px; font-family:Arial" x="120" y="290">Weekly: 1.0</text><text fill="#FFFFFF" style="font-size:3px; font-family:Arial" x="141" y="285">Total: 46.7 km</text><text fill="#FFFFFF" style="font-size:3px; font-family:Arial" x="141" y="290">Avg: 11.7 km</text><text fill="#FFFFFF" style="font-size:3px; font-family:Arial" x="167" y="285">Min: 10.4 km</text><text fill="#FFFFFF" style="font-size:3px; font-family:Arial" x="167" y="290">Max: 12.5 km</text><polyline fill="none" points="16.764864034426864,84.26983118677163 16.366646182199474,83.75843279353285 14.686664618202485,83.1831068504107 14.5,82.76759185773699 14.811107697081752,82.28814959371084 16.04309417726472,81.6329085616162 17.62352127826307,81.39318528884178 23.646566292853095,81.39318528884178 25.76209863263648,80.94570049324102 41.902365954825655,72.57101708937262 45.013442925177515,71.32435113147949 47.40275003842544,71.0046909902594 49.6676140728523,71.1325551546397 76.70909509912599,75.49583353168418 79.96950376406312,75.84744573959324 81.78637271467596,75.767533969738 84.53656475647585,75.14422023583757 86.50276540179038,74.21723451302387 88.35696727607865,72.730845069098 92.3018128744443,67.93590787549329 94.36756798281567,67.15271557529195 95.45022276847158,67.2166498430015 95.5,67.40845243020885 94.98978337686276,67.48837007934344 92.02803810109617,66.27361574613315 91.4307113228133,65.73016881322837 89.78806268243352,69.19859429715143 87.6227531110635,72.28332615925319 84.98455984023167,74.31312993850588 83.3667998156161,75.01636058578151 81.59970809647348,75.46386873160372 79.3099554462824,75.60771026134171 76.62198494392214,75.3679742772947 53.25157474266598,71.58007859691133 48.883622676250525,70.95674189147394 46.730757412849925,70.94075885408529 44.82677830697503,71.27640216759755 42.53702565678395,72.04358316111029 25.62521124596242,80.72195743463817 23.347902903682552,81.07355347178236 16.889307113189716,81.05757185731636 14.748886157700326,81.7767422825491" stroke="#4dd2ff" stroke-linecap="round" stroke-linejoin="round" stroke-width="0.5"><title>2023-03-17 12.5km</title></polyline><polyline fill="none" points="106.54274950025138,84.19840958125133 104.5,83.03069994119141 104.72420421341667,82.5668119625916 105.62102106719976,82.05493337683583 107.83815162233077,81.65502662883955 113.61763801326742,81.65502662883955 115.64793172379723,81.20712940183148 131.86536982934922,72.80872979901324 134.94194986927323,71.57691237327526 137.78186990617542,71.24095985061285 139.56304782407824,71.35294413514202 163.3411502383533,75.25632742857852 167.3519145010505,75.83222509820189 171.58688297710614,76.00819324895565 174.73819775489392,75.27232462547545 176.83077041362412,74.1845101127983 178.63685991085367,72.58476398672065 182.52306627709186,68.02536406715808 184.61563893588027,67.19345383652399 185.46263263106812,67.33743873498315 185.5,67.57741316071042 184.47862524993252,67.57741316071042 181.75080731970957,66.26554678417597 181.50169152702438,66.08956355800183 181.51414731662953,65.80159041875595 179.5212209749734,69.86514392768004 177.21689989237348,72.80872979901324 174.94994617864722,74.44046740480553 171.98546824546065,75.48028797998995 169.5939566353918,75.70424809031829 166.9159618637641,75.46429081234965 140.684068891278,71.30495088383759 138.280101491604,71.04898653498822 136.42418883589562,71.14497323334217 134.21951407042798,71.5929100876674 132.21413193910848,72.40879053907702 115.61056435492355,80.91919453882292 113.54290327540366,81.36709289963619 106.46801476238761,81.35109656000714 104.68683684448479,82.02294088871713" stroke="#4dd2ff" stroke-linecap="round" stroke-linejoin="round" stroke-width="0.5"><title>2023-03-11 12.5km</title></polyline><polyline fill="none" points="27.67073170468211,208.92777326283976 28.987804874777794,232.6132405512035 61.91463414207101,218.23278939910233 55.32926828786731,202.16047975374386 28.987804874777794,201.31456752913073 25.036585360765457,230.07551637571305 61.91463414207101,218.23278939910233 55.32926828786731,203.85230384767056 25.036585360765457,203.85230384767056 19.109756093472242,217.38687943527475 28.329268287867308,229.22960807848722 50.719512194395065,225.84597370540723 57.304878044873476,208.92777326283976 21.08536585047841,204.69821571419016 26.35365853458643,231.76733261113986 54.012195121496916,226.69188247667626 60.59756097197533,211.46550636412576 23.719512194395065,203.00639186054468 17.79268292337656,214.00323839392513 28.987804874777794,230.92142455419526 54.012195121496916,225.84597370540723 60.59756097197533,209.77368441782892 46.76829268038273,199.62274272507057 23.06097560748458,203.00639186054468 32.280487801879644,231.76733261113986 61.91463414207101,214.00323839392513 52.03658536449075,200.4686551867053 25.695121947675943,201.31456752913073 28.987804874777794,230.92142455419526 44.79268292710185,230.92142455419526 61.25609755888581,214.00323839392513 28.329268287867308,199.62274272507057 17.134146340191364,204.69821571419016 23.06097560748458,222.46233742590994 59.93902438506484,217.38687943527475 57.304878044873476,205.54412746056914 30.304878044873476,198.77683014515787 17.79268292337656,225.84597370540723 55.987804874777794,225.00006481353194 62.573170728981495,214.00323839392513 31.621951214969158,199.62274272507057 15.817073166370392,215.695059155114 30.963414631783962,229.22960807848722 54.67073170095682,223.30824667401612 57.304878044873476,204.69821571419016 21.743902437388897,203.00639186054468 15.158536583185196,214.84914883365855 27.012195117771626,228.38369966484606 55.987804874777794,222.46233742590994 60.59756097197533,210.61959545034915 30.304878044873476,199.62274272507057 17.134146340191364,212.31141715915874 21.743902437388897,231.76733261113986 59.93902438506484,222.46233742590994 55.32926828786731,202.16047975374386 34.91463414207101,199.62274272507057 18.451219510287046,210.61959545034915 20.426829263567924,225.00006481353194 44.134146340191364,227.53779113059863 59.93902438506484,216.54096935410053 56.64634146168828,203.00639186054468 28.987804874777794,199.62274272507057 15.158536583185196,215.695059155114 20.426829263567924,227.53779113059863 44.134146340191364,229.22960807848722 63.23170731589198,211.46550636412576 30.963414631783962,201.31456752913073 17.79268292337656,214.00323839392513 26.35365853458643,230.07551637571305 58.62195121496916,219.92460896540433 59.280487801879644,207.2359505998902 30.963414631783962,200.4686551867053 16.475609753280878,219.07869924139231 25.695121947675943,229.22960807848722 52.03658536449075,225.84597370540723 61.91463414207101,211.46550636412576 27.67073170468211,202.16047975374386 17.134146340191364,208.92777326283976 24.37804877758026,229.22960807848722 61.91463414207101,214.84914883365855 53.35365853458643,202.16047975374386 27.67073170468211,202.16047975374386 17.79268292337656,210.61959545034915 23.719512194395065,228.38369966484606 48.08536585047841,227.53779113059863 61.91463414207101,209.77368441782892 25.036585360765457,202.16047975374386 17.134146340191364,210.61959545034915 27.67073170468211,228.38369966484606 58.62195121496916,224.15415580431 63.89024389907718,212.31141715915874 30.304878044873476,199.62274272507057 19.109756093472242,206.39003908913583 21.08536585047841,227.53779113059863 60.59756097197533,217.38687943527475 50.06097560748458,200.4686551867053 23.06097560748458,202.16047975374386 25.695121947675943,229.22960807848722 54.012195121496916,223.30824667401612 61.91463414207101,208.92777326283976 21.08536585047841,204.69821571419016 28.329268287867308,230.07551637571305 61.25609755888581,214.00323839392513 50.06097560748458,200.4686551867053 21.08536585047841,204.69821571419016 18.451219510287046,219.92460896540433 34.25609755516052,230.92142455419526 63.23170731589198,212.31141715915874 48.7439024373889,199.62274272507057 19.76829268038273,203.85230384767056 22.402439020574093,229.22960807848722 44.79268292710185,230.92142455419526 61.91463414207101,213.15732783684507 27.012195117771626,200.4686551867053 17.134146340191364,217.38687943527475 24.37804877758026,229.22960807848722 58.62195121496916,223.30824667401612 62.573170728981495,213.15732783684507 28.987804874777794,202.16047975374386 19.76829268038273,208.0818619900383 25.695121947675943,229.22960807848722 51.37804877758026,230.07551637571305 62.573170728981495,218.23278939910233 59.93902438506484,206.39003908913583 35.573170728981495,199.62274272507057 22.402439020574093,204.69821571419016 21.743902437388897,225.84597370540723 59.93902438506484,218.23278939910233 49.40243902057409,200.4686551867053 21.743902437388897,203.85230384767056 21.743902437388897,226.69188247667626 60.59756097197533,220.7705185734667 55.32926828786731,202.16047975374386 28.987804874777794,199.62274272507057 19.109756093472242,207.2359505998902 24.37804877758026,228.38369966484606 58.62195121496916,226.69188247667626 52.03658536449075,200.4686551867053 21.743902437388897,203.00639186054468 17.134146340191364,218.23278939910233 48.08536585047841,228.38369966484606 60.59756097197533,218.23278939910233 50.719512194395065,199.62274272507057 17.134146340191364,212.31141715915874 27.67073170468211,230.92142455419526 52.03658536449075,228.38369966484606 61.91463414207101,211.46550636412576 42.81707316637039,200.4686551867053 23.06097560748458,203.00639186054468 17.134146340191364,222.46233742590994 56.64634146168828,222.46233742590994 59.93902438506484,206.39003908913583 47.426829263567924,198.77683014515787 19.76829268038273,203.85230384767056 17.79268292337656,220.7705185734667 32.93902438879013,228.38369966484606 59.280487801879644,218.23278939910233 60.59756097197533,207.2359505998902 43.47560975328088,199.62274272507057 21.743902437388897,204.69821571419016 21.08536585047841,225.00006481353194 57.96341463178396,222.46233742590994 57.96341463178396,205.54412746056914 28.329268287867308,199.62274272507057 17.134146340191364,219.92460896540433 51.37804877758026,226.69188247667626 59.93902438506484,219.07869924139231 54.67073170095682,200.4686551867053 28.329268287867308,198.77683014515787 15.158536583185196,216.54096935410053 27.012195117771626,230.07551637571305 58.62195121496916,224.15415580431 58.62195121496916,203.85230384767056 46.76829268038273,198.77683014515787 20.426829263567924,203.00639186054468 19.109756093472242,221.61642805906013 52.69512194767594,226.69188247667626 61.25609755888581,211.46550636412576 51.37804877758026,200.4686551867053 24.37804877758026,199.62274272507057 17.79268292337656,218.23278939910233 51.37804877758026,227.53779113059863 61.91463414207101,211.46550636412576 45.451219506561756,199.62274272507057 26.35365853458643,200.4686551867053 17.79268292337656,218.23278939910233 25.036585360765457,227.53779113059863 56.64634146168828,225.84597370540723 63.89024389907718,215.695059155114 52.69512194767594,198.77683014515787 16.475609753280878,211.46550636412576 26.35365853458643,229.22960807848722 53.35365853458643,226.69188247667626 61.25609755888581,208.0818619900383 51.37804877758026,198.77683014515787 22.402439020574093,203.00639186054468 16.475609753280878,213.15732783684507 21.08536585047841,225.00006481353194 50.06097560748458,227.53779113059863 60.59756097197533,216.54096935410053 51.37804877758026,201.31456752913073 23.719512194395065,202.16047975374386 15.817073166370392,217.38687943527475 23.06097560748458,228.38369966484606 51.37804877758026,227.53779113059863 59.93902438506484,219.92460896540433 49.40243902057409,199.62274272507057 25.036585360765457,201.31456752913073 14.5,217.38687943527475 47.426829263567924,228.38369966484606 59.280487801879644,221.61642805906013 55.987804874777794,202.16047975374386 30.963414631783962,198.77683014515787 14.5,209.77368441782892 22.402439020574093,225.00006481353194 48.7439024373889,225.84597370540723 61.25609755888581,208.0818619900383 53.35365853458643,199.62274272507057 15.817073166370392,205.54412746056914 21.08536585047841,225.00006481353194 48.08536585047841,226.69188247667626 61.25609755888581,216.54096935410053 55.32926828786731,200.4686551867053 18.451219510287046,208.92777326283976 25.036585360765457,225.84597370540723 46.76829268038273,226.69188247667626 59.280487801879644,222.46233742590994 55.987804874777794,202.16047975374386 25.695121947675943,199.62274272507057 14.5,211.46550636412576 25.036585360765457,227.53779113059863 50.719512194395065,227.53779113059863 61.25609755888581,214.00323839392513 46.76829268038273,201.31456752913073 28.987804874777794,200.4686551867053 15.817073166370392,214.00323839392513 21.743902437388897,225.00006481353194 47.426829263567924,225.00006481353194 59.93902438506484,219.92460896540433 55.32926828786731,201.31456752913073 23.719512194395065,201.31456752913073 16.475609753280878,210.61959545034915 25.036585360765457,226.69188247667626 52.69512194767594,225.00006481353194 61.25609755888581,215.695059155114 53.35365853458643,199.62274272507057 25.036585360765457,198.77683014515787 16.475609753280878,210.61959545034915 27.012195117771626,226.69188247667626 52.69512194767594,225.00006481353194 62.573170728981495,214.00323839392513 51.37804877758026,200.4686551867053 16.475609753280878,209.77368441782892 27.012195117771626,225.84597370540723 54.67073170095682,223.30824667401612 61.91463414207101,214.00323839392513 50.719512194395065,197.93091744324192 21.08536585047841,201.31456752913073 17.134146340191364,221.61642805906013 58.62195121496916,222.46233742590994 57.96341463178396,203.85230384767056 46.10975609347224,198.77683014515787 21.743902437388897,202.16047975374386 15.817073166370392,214.84914883365855 30.304878044873476,229.22960807848722 59.93902438506484,223.30824667401612 55.987804874777794,203.85230384767056 30.304878044873476,200.4686551867053 19.109756093472242,203.85230384767056 17.79268292337656,223.30824667401612 57.96341463178396,222.46233742590994 60.59756097197533,210.61959545034915 40.18292682617903,200.4686551867053 23.06097560748458,202.16047975374386 15.158536583185196,219.07869924139231 52.69512194767594,225.84597370540723 60.59756097197533,208.92777326283976 42.81707316637039,198.77683014515787 23.719512194395065,201.31456752913073 15.817073166370392,220.7705185734667 34.91463414207101,229.22960807848722 59.280487801879644,221.61642805906013 54.67073170095682,202.16047975374386 42.158536583185196,199.62274272507057 18.451219510287046,206.39003908913583 17.79268292337656,222.46233742590994 55.32926828786731,226.69188247667626 59.93902438506484,206.39003908913583 50.719512194395065,198.77683014515787 19.109756093472242,204.69821571419016 17.134146340191364,219.07869924139231 55.987804874777794,222.46233742590994 58.62195121496916,203.85230384767056 48.7439024373889,197.085004623048 23.06097560748458,200.4686551867053 16.475609753280878,218.23278939910233 51.37804877758026,227.53779113059863 61.25609755888581,209.77368441782892 54.012195121496916,200.4686551867053 21.08536585047841,202.16047975374386 14.5,216.54096935410053 30.304878044873476,228.38369966484606 55.32926828786731,225.84597370540723 62.573170728981495,210.61959545034915 46.10975609347224,197.93091744324192 19.76829268038273,203.85230384767056 17.134146340191364,218.23278939910233 54.67073170095682,226.69188247667626 61.91463414207101,209.77368441782892 53.35365853458643,200.4686551867053 27.67073170468211,200.4686551867053 15.817073166370392,216.54096935410053 52.03658536449075,227.53779113059863 61.25609755888581,219.07869924139231 50.719512194395065,201.31456752913073 15.817073166370392,214.84914883365855 29.64634146168828,229.22960807848722 54.67073170095682,226.69188247667626 61.91463414207101,216.54096935410053 52.03658536449075,200.4686551867053 25.036585360765457,201.31456752913073 16.475609753280878,217.38687943527475 27.012195117771626,228.38369966484606 52.03658536449075,226.69188247667626 61.25609755888581,210.61959545034915 51.37804877758026,201.31456752913073 21.743902437388897,202.16047975374386 14.5,216.54096935410053 52.03658536449075,225.84597370540723 60.59756097197533,219.92460896540433 52.03658536449075,200.4686551867053 15.817073166370392,208.0818619900383 21.743902437388897,225.84597370540723 51.37804877758026,226.69188247667626 59.93902438506484,219.07869924139231 51.37804877758026,200.4686551867053 23.06097560748458,200.4686551867053 17.134146340191364,219.92460896540433 57.304878044873476,222.46233742590994 63.23170731589198,213.15732783684507 47.426829263567924,198.77683014515787 15.817073166370392,212.31141715915874 19.76829268038273,223.30824667401612 44.134146340191364,225.84597370540723 58.62195121496916,219.07869924139231 54.012195121496916,201.31456752913073 17.134146340191364,205.54412746056914 23.06097560748458,225.00006481353194 48.7439024373889,226.69188247667626 62.573170728981495,211.46550636412576 47.426829263567924,197.93091744324192 19.76829268038273,203.00639186054468 16.475609753280878,217.38687943527475 32.93902438879013,230.07551637571305 59.280487801879644,222.46233742590994 47.426829263567924,199.62274272507057 28.987804874777794,199.62274272507057 16.475609753280878,216.54096935410053 52.03658536449075,226.69188247667626 60.59756097197533,211.46550636412576 53.35365853458643,201.31456752913073 17.134146340191364,208.92777326283976 27.67073170468211,227.53779113059863 54.67073170095682,226.69188247667626 59.280487801879644,205.54412746056914 48.7439024373889,198.77683014515787 21.743902437388897,201.31456752913073 17.79268292337656,221.61642805906013 53.35365853458643,226.69188247667626 60.59756097197533,215.695059155114 51.37804877758026,200.4686551867053 24.37804877758026,200.4686551867053 15.158536583185196,215.695059155114 27.67073170468211,228.38369966484606 56.64634146168828,224.15415580431 50.06097560748458,199.62274272507057 37.54878048226237,199.62274272507057 44.79268292710185,214.00323839392513 70.47560975328088,230.07551637571305 76.40243902057409,250.3772797747515 95.5,252.91499537741765" stroke="#4dd2ff" stroke-linecap="round" stroke-linejoin="round" stroke-width="0.5"><title>2021-06-01 11.4km</title></polyline><polyline fill="none" points="177.39999999850988,232.8035760493949 150.0625,201.58946109283715 108.54999999701977,219.79770762473345 108.54999999701977,241.90767305064946 164.23750000074506,234.10416188370436 153.10000000149012,197.6876893118024 127.78749999776483,201.58946109283715 104.5,235.4047475354746 127.78749999776483,257.51467562280595 170.3125,239.3065033936873 170.3125,205.49123122822493 150.0625,197.6876893118024 112.60000000149012,235.4047475354746 165.25,234.10416188370436 176.38749999925494,218.4971197778359 156.13749999925494,192.48532437719405 113.61250000074506,223.69947007484734 126.77499999850988,248.41059399489313 165.25,240.60708831530064 177.39999999850988,222.39888277370483 157.15000000223517,196.38709835056216 119.6875,210.69358884170651 113.61250000074506,240.60708831530064 168.28750000149012,231.5029900269583 176.38749999925494,214.59535513445735 152.08749999850988,192.48532437719405 112.60000000149012,213.2947665527463 113.61250000074506,232.8035760493949 171.32500000298023,240.60708831530064 181.44999999925494,208.0924104033038 167.27499999850988,198.98828009143472 120.70000000298023,217.19653174839914 134.875,252.31234436295927 176.38749999925494,235.4047475354746 180.4375,210.69358884170651 127.78749999776483,198.98828009143472 108.54999999701977,217.19653174839914 161.19999999925494,231.5029900269583 178.41249999776483,225.00005719438195 169.30000000074506,195.08650720864534 122.72500000149012,196.38709835056216 111.58750000223517,223.69947007484734 168.28750000149012,232.8035760493949 180.4375,217.19653174839914 165.25,195.08650720864534 111.58750000223517,213.2947665527463 125.76249999925494,243.20825760625303 170.3125,234.10416188370436 179.42500000074506,202.89005131833255 165.25,193.78591588139534 118.67500000074506,201.58946109283715 111.58750000223517,219.79770762473345 132.85000000149012,238.00591829232872 176.38749999925494,226.30064412485808 176.38749999925494,200.2888706829399 157.15000000223517,193.78591588139534 120.70000000298023,201.58946109283715 117.66249999776483,235.4047475354746 173.35000000149012,235.4047475354746 183.47500000149012,215.89594353549182 161.19999999925494,193.78591588139534 115.63749999925494,204.1906413640827 119.6875,238.00591829232872 177.39999999850988,225.00005719438195 181.44999999925494,208.0924104033038 154.11250000074506,195.08650720864534 125.76249999925494,197.6876893118024 112.60000000149012,226.30064412485808 133.86250000447035,241.90767305064946 177.39999999850988,225.00005719438195 157.15000000223517,193.78591588139534 118.67500000074506,202.89005131833255 112.60000000149012,223.69947007484734 133.86250000447035,241.90767305064946 166.26250000298023,235.4047475354746 181.44999999925494,223.69947007484734 171.32500000298023,197.6876893118024 113.61250000074506,213.2947665527463 121.71250000223517,240.60708831530064 169.30000000074506,231.5029900269583 181.44999999925494,219.79770762473345 166.26250000298023,193.78591588139534 124.75,197.6876893118024 113.61250000074506,215.89594353549182 132.85000000149012,243.20825760625303 172.33749999850988,234.10416188370436 182.46250000223517,221.09829529281706 164.23750000074506,197.6876893118024 118.67500000074506,201.58946109283715 112.60000000149012,215.89594353549182 120.70000000298023,239.3065033936873 164.23750000074506,240.60708831530064 179.42500000074506,232.8035760493949 173.35000000149012,201.58946109283715 131.83749999850988,197.6876893118024 114.625,213.2947665527463 121.71250000223517,239.3065033936873 165.25,240.60708831530064 183.47500000149012,214.59535513445735 172.33749999850988,201.58946109283715 128.80000000074506,198.98828009143472 113.61250000074506,217.19653174839914 119.6875,239.3065033936873 171.32500000298023,234.10416188370436 178.41249999776483,204.1906413640827 162.21250000223517,197.6876893118024 114.625,206.79182090889663 113.61250000074506,225.00005719438195 124.75,244.50884197745472 164.23750000074506,240.60708831530064 180.4375,230.20240382663906 170.3125,201.58946109283715 113.61250000074506,213.2947665527463 126.77499999850988,244.50884197745472 166.26250000298023,239.3065033936873 181.44999999925494,227.60123087465763 166.26250000298023,196.38709835056216 119.6875,202.89005131833255 114.625,221.09829529281706 134.875,245.80942616425455 176.38749999925494,235.4047475354746 168.28750000149012,195.08650720864534 119.6875,202.89005131833255 115.63749999925494,225.00005719438195 122.72500000149012,241.90767305064946 164.23750000074506,243.20825760625303 182.46250000223517,213.2947665527463 170.3125,198.98828009143472 116.65000000223517,206.79182090889663 127.78749999776483,247.1100101713091 166.26250000298023,245.80942616425455 180.4375,235.4047475354746 174.36250000447035,205.49123122822493 114.625,211.99417779035866 128.80000000074506,249.71117763314396 163.22500000149012,245.80942616425455 179.42500000074506,235.4047475354746 176.38749999925494,206.79182090889663 129.8125,198.98828009143472 113.61250000074506,218.4971197778359 120.70000000298023,241.90767305064946 171.32500000298023,239.3065033936873 183.47500000149012,211.99417779035866 167.27499999850988,197.6876893118024 120.70000000298023,201.58946109283715 116.65000000223517,217.19653174839914 130.82500000298023,249.71117763314396 166.26250000298023,245.80942616425455 178.41249999776483,209.39299971424043 116.65000000223517,210.69358884170651 120.70000000298023,238.00591829232872 143.98750000074506,247.1100101713091 179.42500000074506,234.10416188370436 174.36250000447035,202.89005131833255 110.57500000298023,211.99417779035866 127.78749999776483,248.41059399489313 150.0625,247.1100101713091 173.35000000149012,240.60708831530064 180.4375,208.0924104033038 118.67500000074506,209.39299971424043 120.70000000298023,241.90767305064946 157.15000000223517,248.41059399489313 182.46250000223517,231.5029900269583 169.30000000074506,204.1906413640827 122.72500000149012,202.89005131833255 110.57500000298023,218.4971197778359 134.875,241.90767305064946 167.27499999850988,239.3065033936873 180.4375,208.0924104033038 167.27499999850988,196.38709835056216 113.61250000074506,211.99417779035866 121.71250000223517,236.70533300377429 151.07500000298023,247.1100101713091 182.46250000223517,226.30064412485808 177.39999999850988,206.79182090889663 117.66249999776483,208.0924104033038 121.71250000223517,243.20825760625303 160.1875,248.41059399489313 181.44999999925494,219.79770762473345 170.3125,205.49123122822493 137.91249999776483,201.58946109283715 112.60000000149012,221.09829529281706 132.85000000149012,247.1100101713091 165.25,245.80942616425455 183.47500000149012,218.4971197778359 171.32500000298023,201.58946109283715 119.6875,206.79182090889663 122.72500000149012,239.3065033936873 149.05000000074506,245.80942616425455 178.41249999776483,234.10416188370436 173.35000000149012,205.49123122822493 115.63749999925494,209.39299971424043 125.76249999925494,245.80942616425455 170.3125,245.80942616425455 183.47500000149012,221.09829529281706 155.125,198.98828009143472 127.78749999776483,200.2888706829399 115.63749999925494,228.90181744471192 124.75,245.80942616425455 169.30000000074506,244.50884197745472 172.33749999850988,204.1906413640827 130.82500000298023,198.98828009143472 112.60000000149012,227.60123087465763 136.89999999850988,245.80942616425455 171.32500000298023,241.90767305064946 169.30000000074506,201.58946109283715 127.78749999776483,200.2888706829399 114.625,215.89594353549182 123.73750000074506,244.50884197745472 163.22500000149012,245.80942616425455 180.4375,217.19653174839914 169.30000000074506,204.1906413640827 127.78749999776483,198.98828009143472 110.57500000298023,223.69947007484734 129.8125,244.50884197745472 173.35000000149012,239.3065033936873 177.39999999850988,205.49123122822493 160.1875,198.98828009143472 132.85000000149012,197.6876893118024 113.61250000074506,228.90181744471192 165.25,241.90767305064946 182.46250000223517,214.59535513445735 162.21250000223517,196.38709835056216 118.67500000074506,205.49123122822493 117.66249999776483,235.4047475354746 173.35000000149012,240.60708831530064 182.46250000223517,225.00005719438195 162.21250000223517,198.98828009143472 111.58750000223517,219.79770762473345 125.76249999925494,241.90767305064946 170.3125,240.60708831530064 181.44999999925494,210.69358884170651 166.26250000298023,202.89005131833255 113.61250000074506,217.19653174839914 126.77499999850988,243.20825760625303 168.28750000149012,239.3065033936873 181.44999999925494,226.30064412485808 172.33749999850988,200.2888706829399 116.65000000223517,205.49123122822493 109.5625,225.00005719438195 126.77499999850988,244.50884197745472 167.27499999850988,238.00591829232872 179.42500000074506,208.0924104033038 164.23750000074506,198.98828009143472 120.70000000298023,200.2888706829399 111.58750000223517,217.19653174839914 128.80000000074506,243.20825760625303 171.32500000298023,238.00591829232872 180.4375,209.39299971424043 166.26250000298023,202.89005131833255 127.78749999776483,200.2888706829399 111.58750000223517,221.09829529281706 128.80000000074506,244.50884197745472 169.30000000074506,240.60708831530064 182.46250000223517,227.60123087465763 166.26250000298023,197.6876893118024 121.71250000223517,200.2888706829399 114.625,215.89594353549182 132.85000000149012,243.20825760625303 177.39999999850988,238.00591829232872 185.5,222.39888277370483 167.27499999850988,201.58946109283715 120.70000000298023,204.1906413640827 113.61250000074506,222.39888277370483 134.875,245.80942616425455 174.36250000447035,238.00591829232872 184.48750000074506,221.09829529281706 162.21250000223517,197.6876893118024 119.6875,204.1906413640827 112.60000000149012,227.60123087465763 130.82500000298023,245.80942616425455 173.35000000149012,238.00591829232872 171.32500000298023,201.58946109283715 131.83749999850988,198.98828009143472 112.60000000149012,225.00005719438195 125.76249999925494,243.20825760625303 177.39999999850988,234.10416188370436 176.38749999925494,205.49123122822493 157.15000000223517,197.6876893118024 128.80000000074506,198.98828009143472 114.625,228.90181744471192 145.0,244.50884197745472 176.38749999925494,236.70533300377429 168.28750000149012,198.98828009143472 115.63749999925494,210.69358884170651 136.89999999850988,245.80942616425455 172.33749999850988,240.60708831530064 185.5,227.60123087465763 171.32500000298023,200.2888706829399 126.77499999850988,200.2888706829399 115.63749999925494,226.30064412485808 130.82500000298023,243.20825760625303 174.36250000447035,240.60708831530064 184.48750000074506,225.00005719438195 162.21250000223517,200.2888706829399 119.6875,205.49123122822493 113.61250000074506,222.39888277370483 134.875,245.80942616425455 177.39999999850988,238.00591829232872 184.48750000074506,222.39888277370483 162.21250000223517,198.98828009143472 118.67500000074506,205.49123122822493 120.70000000298023,238.00591829232872 181.44999999925494,234.10416188370436 175.375,204.1906413640827 156.13749999925494,197.6876893118024 121.71250000223517,201.58946109283715 112.60000000149012,227.60123087465763 127.78749999776483,243.20825760625303 178.41249999776483,235.4047475354746 183.47500000149012,218.4971197778359 157.15000000223517,198.98828009143472 116.65000000223517,208.0924104033038 118.67500000074506,238.00591829232872 176.38749999925494,238.00591829232872 174.36250000447035,204.1906413640827 153.10000000149012,200.2888706829399 124.75,201.58946109283715 110.57500000298023,226.30064412485808 166.26250000298023,243.20825760625303 180.4375,215.89594353549182 169.30000000074506,204.1906413640827 122.72500000149012,202.89005131833255 111.58750000223517,230.20240382663906 168.28750000149012,243.20825760625303 183.47500000149012,217.19653174839914 153.10000000149012,198.98828009143472 128.80000000074506,200.2888706829399 113.61250000074506,230.20240382663906 141.96250000223517,247.1100101713091 177.39999999850988,239.3065033936873 174.36250000447035,204.1906413640827 156.13749999925494,198.98828009143472 117.66249999776483,210.69358884170651 113.61250000074506,231.5029900269583 136.89999999850988,244.50884197745472 181.44999999925494,230.20240382663906 166.26250000298023,200.2888706829399 143.98750000074506,198.98828009143472 120.70000000298023,204.1906413640827 114.625,235.4047475354746 174.36250000447035,239.3065033936873 175.375,205.49123122822493 156.13749999925494,197.6876893118024 115.63749999925494,206.79182090889663 119.6875,240.60708831530064 179.42500000074506,234.10416188370436 174.36250000447035,204.1906413640827 156.13749999925494,198.98828009143472 125.76249999925494,202.89005131833255 112.60000000149012,234.10416188370436 174.36250000447035,240.60708831530064 179.42500000074506,210.69358884170651 141.96250000223517,198.98828009143472 120.70000000298023,204.1906413640827 117.66249999776483,235.4047475354746 180.4375,232.8035760493949" stroke="#4dd2ff" stroke-linecap="round" stroke-linejoin="round" stroke-width="0.5"><title>2020-11-29 10.4km</title></polyline></svg>