<?xml version="1.0" encoding="utf-8" ?>
<svg baseProfile="full" height="300mm" version="1.1" viewBox="0,0,200,300" width="200mm" xmlns="http://www.w3.org/2000/svg" xmlns:ev="http://www.w3.org/2001/xml-events" xmlns:xlink="http://www.w3.org/1999/xlink"><defs /><rect fill="#222222" height="300" width="200" x="0" y="0" /><text fill="#FFFFFF" style="font-size:12px; font-family:Arial; font-weight:bold;" x="10" y="20">Over 10km Runs</text><text fill="#FFFFFF" style="font-size:4px; font-family:Arial" x="10" y="280">ATHLETE</text><text fill="#FFFFFF" style="font-size:9px; font-family:Arial" x="10" y="290">Abuqi</text><text fill="#FFFFFF" style="font-size:4px; font-family:Arial" x="120" y="280">STATISTICS</text><text fill="#FFFFFF" style="font-size:3px; font-family:Arial" x="120" y="285">Number: 18</text><text fill="#FFFFFF" style="font-size:3px; font-family:Arial" x="120" y="290">Weekly: 1.2</text><text fill="#FFFFFF" style="font-size:3px; font-family:Arial" x="141" y="285">Total: 242.5 km</text><text fill="#FFFFFF" style="font-size:3px; font-family:Arial" x="141" y="290">Avg: 13.5 km</text><text fill="#FFFFFF" style="font-size:3px; font-family:Arial" x="167" y="285">Min: 10.0 km</text><text fill="#FFFFFF" style="font-size:3px; font-family:Arial" x="167" y="290">Max: 21.6 km</text><polyline fill="none" points="52.75,65.96212880555686 51.93863142648479,66.12535715683043 51.0881607530755,65.91190463741805 49.9346488052397,65.89934859096684 47.168175235332455,65.28410015071131 45.8289283128106,64.25449123207363 39.729000724095386,61.83109652885469 37.529507603205275,61.26604685222992 36.35644460533513,61.26604685222992 33.29670528601855,60.788891005620826 30.970130340312608,59.80945785357471 28.008146270818543,56.871093895948434 26.756879073160235,56.293455413207994 22.543627805949654,53.27962876504171 21.88866763218539,52.664293310845096 21.39011585805565,51.79779333314946 19.884685010882095,50.55453953624237 18.359703113674186,47.8544842511692 16.443700217292644,46.159058937257214 15.104453294770792,44.111946917764726 14.097574221610557,43.22024540044367 13.032041998580098,41.19818499480607 12.25,38.874642843176844 13.364409847941715,41.73824288093601 14.05847212165827,43.019297349055705 15.172881969599985,44.0240330797169 16.4241491673165,46.04602943739883 18.19351918902248,47.65354663762264 19.395908761769533,49.39917704361142 20.021542360656895,50.629888744348136 21.35101375816157,51.67221292810427 22.445872556127142,53.15405044556974 26.56136857351521,56.067421945561364 28.15477914555231,56.88365121273819 30.98968139034696,59.771787133053294 33.37490948586492,60.7512206985557 36.42487328022253,61.22837674654875 37.64681390300393,61.26604685222992 39.48461259959731,61.75575677866436 45.99511223746231,64.25449123207363 47.36368573497748,65.27154401599546 49.514301230956335,65.74867589571659 52.43718320055632,65.97468484317505 52.04616220126627,66.07513308056514 49.62183200579602,65.77378802925523 47.353910209960304,65.27154401599546 45.78005068789935,64.11637205884472 43.78584359161323,63.45088577360002 42.75941346847685,62.81050749320275 38.88830557570327,61.49206715219043 37.881426502543036,61.22837674654875 33.22827661113115,60.6884368181054 31.175416364974808,59.84712855820544 27.94949312094832,56.657619240104395 26.60047067340929,56.09253680360416 25.691346850129776,55.251185212036944 24.58671252714703,54.71120911552134 23.26701665460132,53.54334266066144 22.387219406256918,53.0535876627182 21.331462708185427,51.54663234628242 19.65007241134299,50.165234280662844 19.425235336704645,49.36150192781497 18.63341781316558,48.14333127774444 17.998008689377457,47.36469802536885 16.385047067364212,45.970676357981574 15.329290369350929,44.0240330797169 14.341962346166838,43.30816003058135 15.319514844333753,44.250097059688414 16.57078204199206,46.19673540534859 18.222845763957594,47.66610525175929 19.454561911697965,49.424293778633 20.00199131068075,50.579655946043204 21.223931933403946,51.54663234628242 22.318790731369518,52.9907983660014 26.522266473562922,56.02974964529858 28.04724837077083,56.82086461111612 31.05811006517615,59.78434404164727 33.41401158581721,60.77633423838415 37.783671252720524,61.29116024712857 39.76810282404767,61.81853990820673 45.8289283128106,64.15404094547557 47.30503258504905,65.17109487415291 48.56607530772453,65.43477363034617" stroke="#4dd2ff" stroke-linecap="round" stroke-linejoin="round" stroke-width="0.5"><title>2023-08-20 17.0km</title></polyline><polyline fill="none" points="70.3891620291397,32.25 69.6535581011558,34.453537364679505 69.95324859034736,35.81762214854825 69.27213384199422,37.11174695666705 69.32662302185781,38.51079323509475 67.03807746816892,41.83349663327681 64.55881978478283,48.338871710016974 62.678943079779856,51.66144393195282 59.92723949730862,54.17957439206657 61.94333915179595,52.325953055071295 63.27832405816298,50.2624715592101 65.5396250220947,51.871289109883946 65.26717912289314,54.56428652496834 62.16129587125033,60.16003215612727 62.07956210151315,63.86714437496266 60.30866375635378,65.05620641357382 59.40959228866268,66.66492836775433 60.60835424531251,69.04302004257625 63.46903618774377,69.88234109277255 64.58606437465642,70.93148842689698 63.46903618774377,70.02222765953047 60.60835424531251,69.46268092135142 59.2733693390619,67.85397704444767 59.21888015919831,65.93051311296585 61.80711620207876,63.86714437496266 61.888849972048774,59.67040943450411 65.04922240343876,54.529312719241716 65.48513584234752,51.731392344270716 67.9916381156072,50.05262502528785 68.91795417305548,47.5344528202113 70.03498235996813,46.485206883444334 71.1792551369872,46.10048226527579 73.63126823038328,46.834956020480604 74.74829641729593,49.388109834035276 74.28513838851359,50.68216409657907 72.26903873414267,52.745642113543 71.77863611537032,55.75339299537882 69.84427023050375,57.187307949890965 67.66470303642564,60.12505913649511 67.69194762618281,62.048567919788184 68.6182636837475,63.02780304632324 70.85232005792204,63.517419165262254 72.40526168362703,64.46167610416887 74.14891543891281,68.3086118024512 78.09938097826671,68.97307649397408 81.25975340988953,72.36531596718123 83.46656519384123,72.54017241937981 86.00031205709092,72.05057404370746 88.4523251503706,69.9522843859304 88.69752645981498,65.40592946170364 89.62384251726326,61.41905759027577 95.31796181201935,50.577241028498975 95.04551591258496,49.00338970206212 93.71053100633435,47.1147549761954 95.37245099176653,48.618668975512264 95.78111984068528,50.717138442676514 90.41393562511075,60.82451859529829 89.29690743808169,64.74145525009953 89.16068448848091,69.53262433240889 88.5340589202242,70.65171623670904 85.15572976926342,72.54017241937981 81.88637897814624,72.75 80.14272522274405,72.05057404370746 77.74520130921155,68.90313292574137 74.14891543891281,68.55341478984337 73.35882233106531,67.81900510564446 71.88761447509751,64.32178641318751 70.93405382765923,63.55239170839195 68.8362204033183,63.30758380367479 67.55572467669845,62.048567919788184 67.39225713722408,59.98516700894106 69.5173351514386,56.767626379049034 71.72414693550672,55.158840470176074 71.99659283470828,52.325953055071295 73.93095871945843,50.43734353571199 74.44860592810437,49.17826256300032 73.76749117986765,46.90490578878962 71.47894562606234,46.17043224007648 70.25293907930609,46.52018181922904 69.08142171252985,47.604402392025804 68.40030696429312,49.807803845382296 65.86656010127626,51.76636654297181 65.23993453290313,54.914024311787216 62.215785051113926,60.02014004817465 62.07956210151315,63.86714437496266 60.03621785691939,65.54581854345452 59.436836878652684,66.69990046878229 59.51857064838987,68.02883666506386 60.744577195029706,69.56759603059618 63.33281323814299,70.05719928890176 64.53157519490924,71.07137440399674 63.305568648152985,70.19708575721597 60.7173326050397,69.84736943888129 59.382347698672675,67.85397704444767 59.2733693390619,66.42012352358142 59.92723949730862,65.30101259885123 61.80711620207876,63.93708935796167 61.99782833165955,60.19500517086999 65.04922240343876,54.63423412163684 65.59411420195829,51.62646971842332 68.23683942493517,49.8427783142979 65.6758479719283,51.66144393195282 63.55076995748095,50.43734353571199 64.17739552585408,46.59013167618832 68.94519876304548,38.475817174010444 68.59101909387391,37.77629491937114 69.29937843210064,36.13240988328471" stroke="#4dd2ff" stroke-linecap="round" stroke-linejoin="round" stroke-width="0.5"><title>2023-08-19 10.1km</title></polyline><polyline fill="none" points="114.65022442443296,32.75194310469669 109.95840454031713,41.36205514741596 108.42454034730326,46.07240586949047 107.19143383938354,47.6939833383658 109.50726801296696,49.62442023048061 109.29673763364553,52.75169921890483 106.13878194231074,58.27261106009246 105.62749387801159,62.98267195431981 102.61991702916566,66.10979894566117 102.860523177078,67.49962174336542 104.00340237957425,68.69640796541353 107.40196421882138,69.81597745532054 108.30423727352172,70.6266973426682 103.82294776872732,69.08246692534885 102.31915934418794,67.1521667028137 102.68006856611464,65.14464009000221 105.32673619315028,62.86685175288585 105.50719080411363,58.31121844469453 109.11628302268218,52.520050143793924 109.20651032810565,50.242157172149746 109.77794992935378,49.16111661310424 112.57499639876187,47.46233000000939 113.95848174928688,44.37360016335151 115.9434824695345,43.67863116573426 119.25181700324174,45.53187792029348 119.61272622505203,47.616765580605716 117.2968920514686,50.47380816718214 116.99613436649088,52.98334809861262 116.21416438592132,54.41184520945535 114.04870905471034,55.95615805793204 111.79302641795948,59.276401297567645 112.06370833446272,61.32257773575839 112.84567831514869,62.0561089758412 116.69537668162957,63.13709881374962 119.07136239227839,68.271742483048 123.43234882317483,69.00525517674396 126.6203802828677,72.40255159666413 129.23697214142885,72.59557854165905 132.57538244361058,71.63044246128993 134.74083777482156,69.58434276262415 135.73333813482895,61.39979164270335 142.10940105444752,49.23833393689711 141.8387191380607,46.767368813510984 140.36500648211222,45.26161354701617 142.1996283599874,46.92180478462251 142.68084065581206,49.00668190032593 136.3047777361935,60.78207977980492 135.5228077553911,64.06365814807941 135.1919743020553,69.97040047548944 133.08667050790973,71.90068090546993 130.16932096448727,72.75 125.71810722828377,71.97789184065186 123.91356111888308,69.1982845076709 122.59022730553988,68.4261663708021 119.22174123476725,68.31034846312832 118.10893780074548,67.30659121944336 116.60514937632252,63.63898550759768 113.41711791662965,62.44217726311763 111.67272334417794,60.975114886066876 111.73287488112692,58.65868466219399 113.86825444374699,55.33843396001612 116.39461899688467,53.60107749016606 116.87583129259292,50.35798269396764 119.011210855213,48.3889421816275 119.49242315127049,47.15345857857028 118.77060470741708,45.0299581582949 115.88333093258552,43.71724060061388 114.13893636013381,44.45081883226521 113.05620869470295,47.385112177202245 110.49976837309077,49.23833393689711 109.62757108698133,50.51241664745612 109.62757108698133,52.59726652377867 105.77787272038404,59.199186794110574 105.9583273314638,62.67381797530106 103.43196277832612,64.68136263545603 102.64999279752374,66.34143656661035 103.01090201945044,67.84707634465303 103.8830993056763,68.81222571030958 107.01097922842018,69.58434276262415 108.27416150493082,70.54948602773948 106.80044884898234,69.62294855827349 104.03347814804874,69.0438610536803 102.37931088113692,67.1521667028137 102.74022010306362,65.14464009000221 105.50719080411363,62.67381797530106 105.50719080411363,58.92893586109858 109.08620725409128,52.75169921890483 109.44711647601798,50.01050598171423 110.37946529919282,48.65920347944484 112.30431448237505,47.53954780116328 113.80810290679801,44.14194402610883 115.16151248873211,43.369755491643446 116.39461899688467,43.369755491643446 118.83075624436606,44.37360016335151 119.58265045657754,45.763532885786844 119.4021958457306,48.08007180155255 116.99613436649088,50.66685051389504 116.63522514468059,53.79411764035467 115.76302785868756,54.79792423520121 116.63522514468059,52.906131827039644 116.75552821869496,50.66685051389504 119.49242315127049,47.15345857857028 119.22174123476725,44.952739652013406 118.28939241170883,43.369755491643446 123.76318227651063,32.25" stroke="#4dd2ff" stroke-linecap="round" stroke-linejoin="round" stroke-width="0.5"><title>2023-08-16 10.2km</title></polyline><polyline fill="none" points="154.79215520550497,71.75770817531156 156.282682926103,72.75 157.65265325753717,72.27607089196681 166.12454978720052,67.15155876503559 168.09730706445407,64.61882029112166 170.73860986356158,60.05675541399978 168.8425709247822,59.31613943116827 163.83395939308684,58.08670392623753 163.50516651349608,57.686763584679284 163.65860319061903,56.901690523533034 164.6011427786434,56.67949883568508 165.26968830038095,55.96848188032891 165.36832616425818,55.42040261407237 165.03953328472562,54.60568424373196 165.09433209791314,54.10203660344996 164.61210254125763,53.43543995964865 164.04219488339731,53.45025327014446 163.3955688868882,52.87253241966391 163.2092529218644,52.36887542735349 163.31885054841405,51.9392834921091 163.79012034245534,51.33192600301845 164.338108475029,49.376504314597696 164.8093782690121,48.65061765522114 166.08071073662722,48.0580529315921 166.43142314138822,47.65806961632916 167.1986065270612,45.835901710270264 167.30820415361086,45.13961677458428 167.13284795114305,44.48777085020993 167.3739627294708,44.05814263816865 167.82331299822545,43.747031318933296 168.6233756717993,43.99888341921178 169.76319098751992,43.70258676006779 170.1029436297249,44.51740030921792 173.04016002034768,44.48777085020993 173.36895289982203,44.07295743700524 173.54430910234805,42.961840996671526 174.96907824696973,42.68035606499325 177.62134080863325,39.7617517346298 178.61867920996156,39.16913056989142 179.0241904280847,37.58385045603791 178.45428277022438,36.59118471108377 178.53100110875675,36.08743984640023 178.22412775451085,34.887330830300925 180.20784479443682,33.8501871491535 179.74753476306796,32.54633302385628 179.8461726269452,32.30926668002212 179.65985666186316,32.25 180.1092069306178,33.80573787666799 178.31180585571565,34.902147085085744 178.31180585571565,35.39108217341709 178.6405987353064,35.98372733082215 178.57484015933005,36.65044863404182 179.12282829196192,37.62829792895354 178.75019636179786,39.00615908986947 177.67613962193718,39.732120765795116 176.24041071464308,41.539592649460246 174.80468180723256,42.887766096966516 173.5223895770032,43.124805569066666 173.5662286275765,41.969232455827296 173.24839551071636,41.361810082053125 172.7442464287742,41.035874495508324 171.91130446724128,41.376625308919756 172.4812121251016,40.90253688200028 171.85650565399555,40.250661362486426 172.2729766347329,39.27283954543236 171.93322399246972,40.250661362486426 172.54697070101975,40.94698277432326 171.82362636603648,41.332179621225805 170.81532820203574,41.09513559591869 169.1494442790281,39.93953735021205 168.43705970665906,38.161665952990006 167.9329106246587,37.62829792895354 167.3739627294708,37.18382224693778 167.05612961261068,37.450507910245506 167.4616408306756,38.62095264199888 167.95483015006175,39.33210176539433 171.3523565719952,41.8210810219025 171.19891989487223,45.55442544687685 173.63198720349465,50.828260697308 174.53068774094572,51.835588590824045 175.18827350001084,52.19111348706792 171.95514351781458,58.42739249524311 167.54931893193861,65.87779244903504 166.43142314138822,67.0330696083256 165.25872853770852,67.8328684975495 157.13754441292258,72.60189741214708 156.20596458757063,72.75" stroke="#4dd2ff" stroke-linecap="round" stroke-linejoin="round" stroke-width="0.5"><title>2023-08-13 11.1km</title></polyline><polyline fill="none" points="19.651259140344337,81.0 16.185695447959006,87.0858427543717 13.275929706171155,94.05293121089926 15.989531465456821,95.3120262468874 18.408887250581756,93.54929171054391 19.880117120221257,90.27561426220927 22.561024882132187,89.10043924817 25.536178618087433,90.10773240032722 26.74585651070811,93.04565136117162 26.02658857451752,94.76641904943972 23.934172760229558,96.69702465747832 23.378374809515662,100.34835332579678 20.501303064986132,102.53073536002194 18.114641276653856,106.26592915662332 18.18002927105408,108.02858866238967 19.52048315189313,109.41352812136756 23.738008777610958,110.67255842214217 25.797730594757013,115.62469279606012 27.23626646725461,116.25419552269159 29.81909223785624,116.0443614278629 31.323016104404815,116.84173020435264 32.990409956430085,119.77938628187985 34.39625183166936,120.87050832581008 39.56190337310545,120.19904907804448 43.06016106263269,117.76499665528536 43.19093705108389,112.51912659933441 44.17175696394406,108.19646045390982 51.200966340024024,94.76641904943972 50.939414363121614,92.96171122041414 49.46818449383136,90.90517040368286 51.16827234288212,91.78654677292798 51.920234276214615,93.50732171387062 51.724070293596014,95.56384461736889 44.59677892620675,109.16172142449068 43.74673500168137,117.97482954181032 41.91587116406299,119.82135258804192 39.856149346916936,120.8285421669134 37.46948755881749,121.5 34.42894582869485,121.16427127213683 32.990409956430085,120.32494780194247 31.64995607524179,117.68106345954584 30.30950219440274,116.50599624199094 27.138184475828893,116.54796300799353 25.536178618087433,115.9184609001968 23.509150797966868,111.26010408008005 22.201390914036892,110.04304393500206 18.93199120427016,109.45549588350696 17.95117129117716,108.28039631427964 18.04925328248646,105.93018330977065 20.37052707641851,102.11104774536216 23.051434838678688,100.47426041497965 23.672620783443563,96.61308554260177 26.059282571543008,94.38869040596182 26.386222542612813,92.03836811514338 25.37270863261074,90.5694072933693 22.822576858918183,89.47817457822384 20.468609067844227,90.44349602959119 19.095461189746857,93.92702141532209 15.858755477122031,96.48717682610732 15.30295752629172,99.97063173999777 15.760673485812731,96.02551107853651 18.899297207128257,93.50732171387062 20.043587105581537,90.35955515762907 21.384040986537002,89.43620400963118 23.574538792134263,89.31029226825922 26.02658857451752,90.86320003555738 26.74585651070811,92.70989065658068 26.582386525114998,93.88505147176329 23.868784766062163,96.8649028162763 22.986046844278462,100.85198136413237 20.403221073676832,102.74057894619182 18.18002927105408,106.1400245083205 18.14733527379576,108.23842838700511 19.324319169390947,109.41352812136756 22.168696916894987,109.79123776871711 23.901478763320483,110.96633139552432 25.241932644159533,114.8692877733265 26.386222542612813,116.12829508364666 30.342196191544645,116.38009590891306 33.840453880955465,120.61871128468192 37.0444655965548,120.91247447862406 40.57541728310753,119.94725147113786 43.32171303930227,117.47123036676203 43.15824305394199,112.812897757045 43.91020498704165,108.40630006062565 50.74325038061943,95.85763244790724 51.16827234288212,94.38869040596182 50.80863837490324,92.62595042146859 51.429824319668114,92.75186076524551 51.78945828776341,95.22808674292173 44.69486091739964,108.61613951993058 43.94289898429997,113.4004392059287 44.04098097549286,117.26139712674194 43.15824305394199,118.77219316622359 40.05231332953554,120.78657600237057 36.063645683578216,121.5 33.219267936074175,120.70264365529874 30.505666176904924,116.67386327032 25.830424592015333,116.1702619025018 23.411068806773983,111.05026647777413 19.651259140344337,109.79123776871711 17.98386528843548,108.40630006062565 18.04925328248646,105.8042785199359 20.533997062128037,102.06907895152108 22.724494867608882,100.89395032892935 23.509150797966868,99.17321793478914 23.574538792134263,96.61308554260177 25.993894577375613,94.51460000686347 26.41891653975472,92.79383086806047 25.470790623803623,90.5694072933693 23.116822832846083,89.43620400963118 21.220571001060307,89.93985044417786 18.53966323903296,93.59126170122181 15.335651523433626,95.56384461736889 13.07976572366897,94.13687104507699 13.962503645336255,92.37412957460037" stroke="#4dd2ff" stroke-linecap="round" stroke-linejoin="round" stroke-width="0.5"><title>2023-07-20 10.9km</title></polyline><polyline fill="none" points="60.34399141627364,82.6857142689114 57.25,90.54019706105464 58.918669527745806,91.87900998134864 60.41351931320969,91.83438297495013 62.638412017025985,90.45094266565866 63.75085836893413,87.3716506694036 66.1495708153816,85.58654019166715 69.97360515012406,86.74686314337305 71.25987124466337,89.33526060820441 70.91223175951745,90.94184152956586 68.27017167385202,93.61945834226208 67.67918454937171,97.54658884101082 64.58519313298166,100.13489830782055 62.08218884107191,103.8388217240281 62.290772532112896,105.98083001485793 63.85515021439642,107.27495302489842 67.74871244630776,108.52444610145176 69.03497854073066,110.22017884461093 69.62596566509455,112.89763316849712 70.9469957081601,114.32559958114871 74.31909871229436,113.96860857971478 76.12682403426152,114.99495662763366 78.10836909862701,118.43096726527438 79.32510729599744,119.23418517230311 85.40879828319885,118.34172070582281 88.39849785412662,116.19979575733305 89.71952789684292,105.84695491980528 97.19377682392951,91.43273963496904 96.56802575092297,88.66584949276876 95.24699570820667,87.19314007306821 96.53326180239674,87.55016116533079 97.68047210294753,89.11212372640148 97.75,92.41453356962302 90.48433476383798,106.29320501725306 89.54570815444458,110.71104715997353 89.47618025739212,115.97667774462025 87.2512875534594,118.29709741676925 83.77489270374645,119.8142857311177 79.29034334758762,119.63579336434486 77.5173819741467,118.16322751168627 75.74442060070578,114.99495662763366 70.18218884116504,114.19172800262459 67.99206008575857,109.05994162973366 66.35815450630616,107.81045065954095 63.507510729599744,107.72120111639379 62.08218884107191,106.15933005389525 61.908369098673575,103.39256817888236 64.65472102991771,99.10850224949536 67.26201716728974,97.501962630864 68.30493562226184,92.86080253694672 70.59935622301418,90.89721439153072 71.0860515020322,89.15675111528253 70.28648068651091,87.46090592988185 67.0881974248914,86.07744657312287 65.69763948500622,86.25595779635478 64.37660944194067,87.3716506694036 62.7774678110145,91.29885840872885 60.37875536479987,92.86080253694672 60.51781115878839,92.32527970094816 63.09034334751777,90.2724337997206 63.889914163039066,87.28239538380876 66.08004291844554,85.63116807580809 67.50536480685696,85.63116807580809 70.70364806859288,87.55016116533079 70.98175965656992,90.85258724720916 68.47875536477659,93.53020481223939 67.60965665231925,97.99285059858812 64.6199570816243,100.00102074918686 62.39506437757518,103.61569502984639 62.25600858358666,105.57920456049033 63.12510729604401,106.82870430659386 66.77532188838813,107.8997001775424 68.02682403416838,108.88144322071457 70.3560085836798,114.05785636763903 75.25772532168776,114.63796637830092 76.71781115874182,115.70893592271022 78.59506437752862,119.10031566221733 81.9671673818957,119.72503956023138 85.4783261801349,118.83257647263235 88.0508583689807,116.91377234485117 89.68476394854952,105.57920456049033 96.95042918436229,92.10214491956867 96.32467811147217,88.62122203485342 97.19377682392951,89.42451531693223 97.64570815430488,91.07572290633107 97.26330472086556,92.63766813170514 90.27575107291341,105.3560790886113 89.26759656646755,109.32768905546982 88.88519313302822,116.02130135986954 87.2512875534594,117.80624082268332 84.60922746779397,119.18956200862885 81.51523605140392,119.76966264890507 78.80364806845319,119.36805462604389 76.16158798267134,115.5304412493715 74.14527896989603,114.59334256898728 71.05128755350597,114.72721397824353 69.69549356214702,113.92398467642488 67.50536480685696,109.0153170369158 62.60364806861617,107.23032818132197 61.63025751069654,105.48995439050486 61.908369098673575,103.39256817888236 64.13326180237345,99.68863955957931 67.15772532182746,97.59121504501672 67.9225321887061,93.57483158036484 70.70364806859288,90.71870577640948 70.84270386269782,88.97824152218527 69.904077253188,87.3716506694036" stroke="#4dd2ff" stroke-linecap="round" stroke-linejoin="round" stroke-width="0.5"><title>2023-07-11 10.1km</title></polyline><polyline fill="none" points="118.84735849057324,96.65986838482786 117.13566037733108,98.34710082106176 116.6771698113298,101.99619657898438 113.95679245295469,103.80110804107971 112.15339622634929,106.82234677806264 111.84773584909271,108.27409922212246 112.3062264152104,109.17653612748836 116.86056603770703,110.94216511838022 119.58094339619856,115.96433767001145 122.91264150943607,115.84663153422298 124.28811320755631,116.43516171726515 126.06094339629635,119.69167298375396 127.16132075467613,120.47636881750077 131.501698113163,120.08402117600781 134.80283018876798,118.39692003882374 135.41415094328113,116.90598497103201 135.44471698114648,112.47236788267037 136.20886792452075,108.86264536064118 142.68886792461853,96.58139220956946 142.0469811320072,93.56004269307596 140.97716981137637,92.26516860921402 115.36283018882386,81.74899914170965 114.5375471698353,82.53380158080836 112.42849056597333,88.06659619725542 107.99641509435605,94.73719574179268 107.66018867923412,95.75739103744854 109.55528301885352,97.52310485823546 109.00509433972184,101.32916113032843 105.85679245297797,106.35150652719312 105.7345283018658,111.21681751383585 103.56433962262236,112.51160374071333 102.58622641500551,114.23797604031279 103.07528301887214,115.76816074945964 104.32849056599662,117.18063150250237 106.71264150948264,117.29833707612124 108.08811320760287,118.27921492795576 104.17566037736833,117.3375722563942 102.31113207538147,115.3758064948779 102.25,113.92409096119809 103.0447169811232,112.59007544035558 105.33716981124599,110.78522077109665 105.52056603773963,106.15532285501831 108.79113207547925,100.9367865929089 109.55528301885352,97.44462892532465 112.33679245272651,95.3257704054995 113.37603773572482,92.57907802928821 114.41528301907238,91.67658749551629 115.76018867921084,91.16648286033887 118.54169811320025,92.06897504240624 119.61150943406392,93.71699671962415 119.61150943406392,96.69910646424978 117.89981132082175,98.19014939648332 116.61603773583192,102.23162047468941 114.47641509445384,103.52644835363026 112.15339622634929,107.01852998169488 112.15339622634929,108.70569984501344 113.40660377359018,109.80431660290924 116.6771698113298,110.86369295575423 117.7164150942117,111.92306529072812 118.93905660382006,115.45427738988656 120.13113207556307,116.16051445281482 122.7598113209242,115.96433767001145 124.5937735849293,117.53374807472574 125.87754716991913,119.8486123268085 126.88622641505208,120.39789933321299 130.89037735841703,120.1624907484802 134.9862264151452,117.80839398896205 135.35301886789966,111.76612149458379 136.14773584913928,108.74493623219314 142.62773584912065,96.73834453820018 142.2915094338823,94.10938139996142 140.82433962263167,92.30440730601549 115.39339622633997,81.6705187765765 114.50698113196995,82.41608135559363 107.53792452823836,95.05110238341149 107.72132075461559,95.91434382900479 109.34132075484376,97.3269149849657 108.73000000009779,101.05449901189422 105.33716981124599,106.74387345806463 105.45943396224175,111.0206372589164 103.44207547174301,112.51160374071333 102.52509433962405,114.23797604031279 102.58622641500551,115.3365710391663 104.42018867924344,117.29833707612124 107.17113207548391,117.84762909749406 104.20622641500086,117.21986669916078 102.43339622637723,115.21886463882402 102.25,114.12026917689946 103.01415094337426,112.55083959325566 105.21490566036664,110.86369295575423 105.55113207548857,106.0376125855837 107.44622641510796,103.72263387223938 108.7605660376139,100.97602407139493 109.52471698110458,97.52310485823546 112.67301886784844,94.8941491067526 113.8956603774568,91.95125883622677 115.91301886795554,90.97028852184303 119.00018867920153,92.53983937110752 119.94773584906943,95.4827234398108 117.65528301883023,98.42557650030358 116.76886792457663,101.99619657898438 114.35415094334166,103.44797410754836 112.000566037721,106.94005671687773 112.21452830196358,109.13729980090284 117.13566037733108,111.17758147392306 119.36698113218881,115.84663153422298 123.76849056605715,116.82751448379713 125.72471698129084,120.00555158167845 126.82509433967061,120.8294812234235 131.92962264153175,120.12325596509618 134.92509433964733,118.00456947667408 135.65867924527265,109.92202528499183 136.97301886801142,106.50845336556085 142.5971698113717,96.65986838482786 142.0469811320072,93.91318912862334 141.19113207550254,92.81450986283016 136.7284905660199,90.69561621636967 115.24056603771169,81.866719648242 114.35415094334166,82.45532143613673 107.26283018873073,95.36500867237919 107.66018867923412,96.38520167471142 109.28018867934588,97.36615297058597 109.00509433972184,100.07356067010551 107.44622641510796,103.33026269718539 105.21490566036664,106.39074324499234 105.06207547173835,107.60707876592642 109.09679245285224,100.38746131438529 109.92207547172438,97.16996298692538 112.52018867922015,95.24729385529645 114.17075471696444,91.83354258048348 116.5243396225851,91.24496055717464 119.30584905657452,93.0499414979713 119.88660377368797,95.67891460855026 117.5330188680673,98.93566787766758 116.98283018870279,101.52534819228458 114.04849056596868,103.91881925301277 112.03113207558636,107.09700322456774 112.3062264152104,109.25500876409933 116.76886792457663,110.94216511838022 118.8167924528243,115.3758064948779 120.0088679244509,116.08204375623609 122.8515094340546,116.16051445281482 124.34924528305419,117.37680743113742 126.36660377355292,120.51560355126276 131.89905660389923,120.08402117600781 133.64132075477391,119.22085442542448 135.10849056614097,117.72992375530885 135.35301886789966,112.55083959325566 136.20886792452075,108.70569984501344 142.44433962274343,97.20920099478099 142.75,95.60043815744575 142.16924528311938,93.87395065787132 141.28283018874936,92.69679397091386 121.17037735856138,84.456558236212 121.5066037735669,84.73123667776235 120.80358490569051,87.12485166278202 118.75566037732642,91.3626770611445 120.13113207556307,94.10938139996142 119.58094339619856,96.81682066942449 120.2228301888099,93.79547369977809 118.35830188682303,90.53866049202043 121.2620754718082,84.22111935706926 115.60735849069897,81.70975896186428 114.69037735858001,82.49456151129561 107.62962264148518,95.60043815744575 109.52471698110458,97.64081871599774 108.9745283019729,100.9367865929089 105.67339622648433,106.54769006150309 105.58169811323751,110.98140119135496 102.55566037737299,114.00256226406782 102.80018867936451,115.61121911377995 104.08396226412151,117.10216109245084 102.83075471688062,116.00357303765486 102.43339622637723,113.61020552946138 105.45943396224175,110.86369295575423 105.64283018861897,106.50845336556085 109.0662264151033,100.77983662346378 109.52471698110458,97.95472209423315 112.73415094346274,95.2080555720313 114.04849056596868,92.06897504240624 115.60735849069897,91.28419939737068 118.8167924528243,92.65755532926414 119.64207547169644,93.91318912862334 119.48924528295174,95.7181528256915 117.5330188680673,97.60158076894004 119.39754716982134,96.9737728657492" stroke="#ff0a00" stroke-linecap="round" stroke-linejoin="round" stroke-width="0.5"><title>2023-07-01 21.2km</title></polyline><polyline fill="none" points="162.3028995716013,81.43696604837896 165.78508776798844,83.52094699027657 166.8061805474572,86.34437607915606 168.19381945277564,85.90741899496061 170.10509568080306,86.81494435408968 171.20473405858502,86.2435398997477 171.25709779094905,85.40323675228865 170.47164180676918,84.09235794794222 168.19381945277564,83.11759725710726 166.2825432246318,81.0 164.7639949885197,82.68063427871675 166.12545202788897,83.95790843367286 166.54436188586988,86.37798812953406 165.8636333665345,83.89068364819104 162.32908143778332,81.53780425385048 161.17707932775375,81.50419152347604 157.6948911313666,87.82330182613805 157.48543620225973,89.30221843016625 153.16542828944512,96.25972613391059 153.00833709270228,97.80581147830526 151.93488058098592,99.72159902182466 154.05561173823662,100.72990209313866 155.94070610019844,99.620768480876 156.96179887955077,97.33526482248271 159.03016630443744,95.95723000651924 161.46507985540666,96.39416873447772 162.66944569756743,97.46970681859239 162.93126435903832,99.35188683074375 160.4701689420035,102.07429957782733 160.1036228161538,105.03194745158544 157.85198232822586,106.64519451708475 155.8359786355868,109.63639466738096 155.75743303715717,110.47661270093522 156.90943514718674,112.05621461595001 159.1610756352311,112.52673231948575 160.94144253258128,113.80384713607782 162.27671770565212,117.16464302697568 166.77999868127517,118.1056574168615 167.8272733266931,120.22292626272247 169.24109409819357,121.29835723155702 173.16837401897646,120.69342790634255 175.1320139792515,119.55077945259109 176.0745611602906,118.13926500518573 176.0745611602906,114.47601009088976 177.3051088687498,109.56917709721893 182.174935970339,100.72990209313866 181.93929917516652,98.04108445903694 183.06511941901408,99.45271748502273 182.69857329316437,101.23405203515722 177.20038140425459,111.28321923717158 176.28401608939748,119.04666810584604 174.47746732574888,120.62621344235959 171.33564338926226,121.5 168.4032743817661,120.9286783812131 166.8585442797048,118.30730287609913 165.44472350832075,117.50072001955414 162.2243539732881,117.29907388064021 160.4178052097559,113.53498142534227 159.05634817061946,112.49312394273875 156.7785258165095,112.05621461595001 155.99306983244605,111.18239356888807 155.8359786355868,109.33391545295308 157.6687092651846,106.27549302544503 159.86798602086492,104.83029080348206 160.36544147739187,101.97347002846072 162.3028995716013,99.82242952015076 162.6170819653198,98.64607106159383 162.2243539732881,97.40248582989443 161.51744358753785,96.76388549619878 159.47525802871678,96.192504805309 157.85198232822586,96.83110666426364 156.62143461988308,99.68798884618445 154.18652106891386,101.60376131755766 153.79379307676572,104.05727207796008 152.7727002974134,105.73774438124383 154.13415733666625,101.50293156999396 156.3857978245942,99.75520919261908 157.40689060394652,97.30165431159548 158.42798338318244,96.32694744353648 160.1036228161538,96.09167277695087 162.09344464249443,96.99915950176364 162.82653689442668,98.04108445903694 162.43380890239496,100.12492076029594 160.60107827268075,101.83903056338022 160.20835028064903,104.72946241573663 157.85198232822586,106.61158531424007 156.07161543087568,109.56917709721893 155.96688796626404,110.81269908817194 156.59525275358465,111.92178081643942 159.5014398948988,112.59394905866066 160.62726013874635,113.43415670601826 162.3028995716013,117.33268158223655 163.29781048488803,117.70236598858901 165.20908671303187,117.36628927917627 166.88472614588682,118.1056574168615 167.85345519299153,120.42456993754604 168.84836610627826,121.23114293759863 172.77564602682833,121.0631071201642 175.89128809736576,119.01306064501114 176.33637982152868,117.90401178771572 176.28401608939748,114.30796952913806 177.72401872696355,109.23308896315575 182.4891183640575,100.59546192914422 182.174935970339,98.1755260584614 182.51530023035593,98.71329170071112 181.33711625402793,97.13360168672807 182.4629364979919,98.51162972651946 182.7247551593464,100.36019146042236 182.38439089944586,98.04108445903694 180.55166026984807,96.22611547200358 164.7378131224541,89.4702765566035 166.2563613584498,86.84855633832922 167.43454533454496,85.94103110676224 170.4978236729512,86.74772037152434 171.49273458612151,86.04186741360172" stroke="#4dd2ff" stroke-linecap="round" stroke-linejoin="round" stroke-width="0.5"><title>2023-06-23 11.0km</title></polyline><polyline fill="none" points="51.29961452377029,163.83178572891484 48.43913205678109,163.26255454915372 47.29091022134526,162.4087011723168 44.85345685161883,161.61952660679526 43.66494653071277,160.94678228495468 41.02605073369341,159.95059415240394 38.50802039296832,159.25196227017295 34.066214871942066,158.7862047329545 31.56832877395209,157.71236586496525 28.536620243743528,154.65897236068122 27.126523252925836,153.99911552444973 22.81565530964872,150.9197210008715 21.3652698333608,149.0694469539594 20.15661526983604,148.18958329353336 19.592576473543886,146.99916611352091 18.414138274092693,145.26527003409865 16.470218850998208,143.49252157405135 15.100410345708951,141.31859358279326 14.425578214402776,140.82686464532162 13.851467296713963,140.03750479765586 13.085986073128879,138.57523012061574 12.25,136.05178105477535 14.02269335987512,140.16690851594467 15.402573986561038,141.59033739338338 16.460146729717962,143.3501826237116 18.49471524497494,145.3040889609547 19.66308132308768,146.9344690860089 20.287552847585175,148.22840098555025 21.64728923153598,149.32822878089064 22.8660159164574,150.9067821508579 27.166811738396063,153.9473618468037 28.576908729213756,154.65897236068122 31.48775180306984,157.47948349178478 32.59568515297724,158.12637751649163 31.66904998756945,157.76411742340133 28.466115394199733,154.6072190545092 26.753854762529954,153.72740839178732 22.523563790135086,150.63506587906886 21.56671226065373,149.2894115533054 20.035749813483562,148.0084338474917 19.491855259926524,146.83095374724508 18.39399403135758,145.22645109088626 16.48029097239487,143.44076198121184 15.97668490424985,142.70318461723946 16.923464312334545,143.8289582167199 18.474571002239827,145.18763213127386 19.693297687161248,146.97328730797744 20.227120119379833,148.1378263453953 21.586856503388844,149.21177704891306 22.735078338708263,150.76445468006568 26.7437826411915,153.6497776350152 28.4963317582733,154.56840405573166 31.598545138083864,157.64767637603654 33.98563790100161,158.61801393135102 37.50080825667828,159.17433617779898 38.346866451145615,159.10964771746512 40.28071375284344,159.66596698934882 47.08946779411053,162.25345425193518 48.53985327039845,163.3272400879432 49.1743969162344,163.26255454915372 50.67514299927279,163.67654121117084 52.75,163.83178572891484 51.853581198782194,163.94821894522465 51.239181795564946,163.88353384325455 51.46076846559299,163.81884869579517" stroke="#4dd2ff" stroke-linecap="round" stroke-linejoin="round" stroke-width="0.5"><title>2023-05-28 13.0km</title></polyline><polyline fill="none" points="74.68538692721631,142.69626402415452 74.32024793385062,145.00088671492995 72.19027047336567,146.91488086999743 71.91641622851603,149.80537768168142 68.9648760331329,152.50054358286434 66.98703981982544,155.46910187776666 66.86532682192046,157.07054779748432 67.8086025546072,158.47668782956316 70.82099924888462,159.1016366725089 72.19027047336567,160.11717554644565 74.25939143507276,164.68705458191107 78.4584898572648,165.0385806277045 81.44045830215327,168.94439568149392 83.29658151778858,169.45214760894305 87.5565364388749,168.553816644795 90.32550713757519,165.89786464674398 90.69064613082446,159.49222898602602 92.54676934634335,154.49260593677172 97.62828700244427,145.3524376496498 97.75,143.8290470560023 97.11100676190108,142.34470973108546 96.0460180316586,141.29004418471595 78.58020285516977,133.63383361508022 70.15157776116394,130.7431686736527 66.95661157032009,137.69633894829894 64.46149511658587,140.78224082812085 62.78794139740057,144.21966082433937 65.0396318557905,145.23525405410328 67.2608940647915,143.7118628184835 68.35631104442291,141.05567351999343 69.60386927134823,139.92287918864167 72.00770097679924,139.45413535670377 73.71168294514064,140.15725080823177 75.02009767096024,141.9540933285316 75.20266716752667,144.18059947225265 73.25525920360815,146.9539418380591 72.12941397447139,150.7818900840939 69.33001502626576,152.61772411648417 67.35217881307472,155.82063957711216 67.62603305792436,157.92985643987777 71.97727272741031,159.53128818713594 72.85969196096994,160.5858845449984 73.62039819697384,163.39812194538536 74.62453042832203,164.56987913468038 78.1542073629098,164.64799610496266 79.49305033823475,165.27293107804144 81.9273102930747,168.9834535550035 84.39199849741999,169.17874284018762 87.61739293776918,168.51475871095317 90.14293764100876,166.48373859171988 90.44722013524733,160.78117972784094 91.23835462064017,157.61738087717094 97.62828700244427,145.15713162976317 97.50657400453929,143.20406388503034 96.38072877540253,141.6025380968931 70.54714500391856,130.62597892060876 69.3604432757711,131.95412656411645 62.78794139740057,144.25872217107099 65.00920360628515,145.4696211956907 67.16960931639187,143.90716985356994 69.39087152516004,139.96194113898673 70.72971450036857,139.33694927516626 73.10311795643065,139.57132138867746 75.02009767096024,141.09473531111144 75.2939519159263,144.10247675154824 72.95097670925315,147.50079481420107 72.64669421489816,149.92255935104913 71.79470323072746,151.13343370956136 69.45172802428715,152.422423199896 67.35217881307472,155.50816164418939 67.29132231418043,157.3049049633264 68.20416979724541,158.43762848025654 72.52498121722601,160.07811642758315 74.47238918114454,164.45270363785676 78.30634861020371,164.68705458191107 80.04075882793404,166.05409781937487 81.50131480093114,168.74910623175674 82.9314425245393,169.25685851587332 85.45698722777888,169.17874284018762 87.83039068372454,168.28041099276743 90.23422238929197,165.97598124397337 90.47764838475268,160.62494359258562 91.32963936892338,157.07054779748432 97.68914350122213,145.19619284465443 97.59785875293892,143.67280139488867 96.44158527429681,141.75878492146148 84.8484222390689,136.32915628061164 70.21243426005822,130.66504217713373 62.666228399728425,144.21966082433937 64.85706235910766,145.4696211956907 67.10875281749759,143.8290470560023 68.38673929392826,141.05567351999343 70.09072126226965,139.64944538273267 72.829263711581,139.61038338844082 75.05052592046559,141.0166117233457 75.38523666420951,143.2821868582687 74.95924117218237,144.88370297139045 73.07268970715813,147.0320637576806 72.2815552217653,150.39128553468618 69.3604432757711,152.50054358286434 67.29132231418043,155.78157985472353 67.29132231418043,157.5392619316408 68.35631104442291,158.51574717342737 70.39500375674106,158.94539959347458 72.34241172054317,160.15623465989484 74.28981968446169,164.45270363785676 78.64105935394764,164.8042299799272 80.07118707743939,166.05409781937487 81.65345604810864,168.86627991800196 85.27441773109604,169.13968499400653 88.07381667930167,168.35852692078333 90.3559353868477,166.0931560988247 90.47764838475268,160.7030616712873 91.29921111965086,157.38302397471853 97.59785875293892,145.58680469248793 97.47614575503394,143.08687938406365 96.13730278005823,141.32910594291752 70.30371900834143,130.54785239105695 62.54451540205628,144.45402882204507 64.4919233659748,145.5086823667225 66.74361382436473,144.25872217107099 68.41716754320078,140.70411715234513 70.09072126226965,139.64944538273267 73.10311795643065,139.76663133242982 74.89838467328809,141.05567351999343 75.26352366653737,143.78998564896756 74.65495867782738,145.2743152580515 72.76840721268672,147.11018565521226 72.40326821943745,150.39128553468618 69.17787377932109,152.6958444447373 67.16960931639187,155.78157985472353 67.23046581528615,157.3049049633264 68.05202855006792,158.3985691255075 70.5167167542968,158.86728102102643 72.12941397447139,159.88282075090683 74.62453042832203,164.56987913468038 78.70191585284192,164.84328843504773 80.16247182583902,166.28844741385547 80.86232156283222,168.39758487659856 81.77516904578079,168.9834535550035 85.5482719760621,169.13968499400653 88.1042449286906,168.35852692078333 90.20379413978662,166.32750566035975 90.81235912849661,157.96891586043057 97.59785875293892,144.92276422469877 97.23271975957323,142.69626402415452 95.92430503387004,141.13379709684523 77.81949661916588,133.36039362393785 70.21243426005822,130.66504217713373 62.69665664911736,144.1415381146653 62.940082644694485,145.00088671492995 64.67449286265764,146.25084357420565 64.3397821187973,149.10228662824375 60.59710743802134,155.43004210604704 60.77967693458777,159.49222898602602 57.76728024042677,162.73412401304813 58.13241923379246,164.530820641201 59.37997746060137,165.89786464674398 62.027235161629505,166.0931560988247 63.42693463573232,167.2258438167919 59.19740796403494,165.936922948109 57.82813673932105,164.56987913468038 57.25,163.04659382571117 58.40627347875852,160.97647477369173 60.44496619096026,159.6484657578403 60.65796393703204,155.0394440862292 64.1876408716198,149.29758987700916 64.3397821187973,146.71957594773266 65.07006010529585,145.5086823667225 67.38260706234723,144.1415381146653 68.41716754320078,141.407229442877 69.26915852748789,140.50880786732887 70.9731404959457,139.80569330466096 73.19440270471387,140.50880786732887 74.59410217881668,141.7978466139175 75.05052592046559,143.32124833666603 72.92054845986422,147.50079481420107 72.12941397447139,150.54752742033452 69.33001502626576,152.6567842832883" stroke="#ff0800" stroke-linecap="round" stroke-linejoin="round" stroke-width="0.5"><title>2023-05-21 21.2km</title></polyline><polyline fill="none" points="141.1807004471193,163.95674603970838 138.39418777945684,163.28485470611486 136.60357675113482,162.1736390209844 135.04433681076625,161.73431748332223 133.75670640839962,160.98488177459512 130.5175111774006,159.79610914031218 128.3949329359457,159.21463866053818 123.82786885247333,158.77530296735495 121.58457526087295,157.7803290685406 120.7999254844035,156.81118828352191 118.61698956787586,154.7694982258181 117.02757078985451,153.9295492633828 112.81259314459749,150.87982382252812 111.55514157976722,149.23861609094456 110.13673621462658,148.08846090642328 109.70417287637247,147.0933712006081 108.49701937410282,145.3874780417318 106.60581222060136,143.61693419740186 105.27794336812804,141.51033025193465 103.86959761549952,140.0240468515767 103.22578241437441,138.7962293712917 102.25,135.99157416017988 104.10096870345296,140.30838118951215 105.3483606557129,141.45863384191762 106.65611028322019,143.60401039418502 108.49701937410282,145.28408955887426 110.25745156483026,148.20476938889624 111.65573770494666,149.32907712352608 112.79247391957324,150.84105547427316 116.95715350226965,153.82617039854813 118.51639344263822,154.57566453182517 121.65499254845781,157.6898763613499 124.05923994042678,158.6848512402139 125.70901639346266,158.78822463536926 127.29843517142581,159.18879544268566 128.36475409840932,159.1629522174917 130.54769001493696,159.7573445561793 137.04619970195927,162.28992966443184 138.44448584207566,163.29777573967294 140.64754098362755,163.80169462976482 142.75,164.02135071656812 140.69783904624637,163.85337846216862 138.39418777945684,163.33653882937506 136.87518628913676,162.23824495216104 130.40685543970903,159.71857995572645 128.46535022358876,159.22756026677962 123.93852459016489,158.72361627702048 121.64493293594569,157.79325087659527 118.45603576756548,154.5885867908146 116.92697466473328,153.86493748653447 112.66169895679923,150.8669010416197 111.72615499258973,149.4583070154331 110.19709388981573,148.21769254453102 109.62369597615907,146.98998463866883 108.34612518630456,145.2065481203099 106.72652757080505,143.73324834454252 105.16728763037827,141.40693740278948 103.9903129657614,140.26960837708612 102.91393442620756,138.04660641508963 102.28017883759458,135.97864928343915 103.15536512673134,138.40849412372336 104.09090909094084,140.28253264968953 105.39865871838992,141.5749507235014 106.62593144562561,143.52646753664158 108.38636363641126,145.11608302589593 109.7645305514452,147.0546012535051 110.17697466467507,148.04969137955777 111.77645305520855,149.40661508053017 112.6918777943938,150.7118275284447 117.22876304027159,153.9295492633828 118.55663189274492,154.54982000838208 121.68517138605239,157.6898763613499 124.11959761555772,158.6590078732188 129.00856929959264,159.29216827054915 133.2738450075267,160.79106119940843 128.7872578241513,159.29216827054915 127.30849478393793,159.2017170524923 125.6788375559263,158.83991128938214 124.2000745156547,158.82698962856375 121.48397913569352,157.67695453878696 118.60692995530553,154.74365375695197 116.94709388975753,153.87785984553193 113.114381520194,151.0865880702404 117.20864381524734,153.98123865215894 118.5465722802328,154.614431303351 121.9869597615907,157.83201628978713 124.02906110289041,158.69777292095387 124.98472429218236,158.69777292095387 127.36885245906888,159.18879544268566 128.43517138599418,159.1629522174917 130.08494783908827,159.58936450267356 136.87518628913676,162.1994813989004 138.4545454545878,163.28485470611486 140.5771236960427,163.71124785309803" stroke="#ff0000" stroke-linecap="round" stroke-linejoin="round" stroke-width="0.5"><title>2023-05-14 21.6km</title></polyline><polyline fill="none" points="184.46100261958782,163.14635175809235 182.040069064009,162.68797118669318 180.59329602279468,161.70925873701344 178.47136222902918,161.05264808491484 177.45862110023154,160.40842155436985 174.1310431054444,159.05800833922694 172.5685282209888,158.72349911290803 171.34359371272149,158.71110985787527 169.77143367461395,158.30226346459676 168.11246725404635,158.25270619698858 165.94230769225396,157.3482811638969 165.23821147886338,156.4810155573432 162.83656823047204,154.26325465247646 161.75631102640182,153.8172177788656 160.46386044292012,152.8136265510766 159.62473207898438,152.4295330541645 157.36776613479014,150.6701156177296 156.4804120028275,149.36911532285012 155.03363896161318,148.20439398606686 153.20105977606727,145.30491436716693 151.09841628954746,143.4462233533486 150.11461062158924,141.78575952313986 149.07293403183576,140.84398999732366 148.0794832102256,138.92324460118107 147.25,136.51915581730282 148.88003095966997,140.41027695860248 149.36228864011355,141.09182505999343 150.19177185039734,141.77336788426328 151.49386758747278,143.80557334305195 153.20105977606727,145.29252322368848 154.44528459152207,147.08922081903438 154.88896165747428,148.09287730506912 156.28750893066172,149.23281894124375 157.42563705641078,150.78162903412885 161.62127887585666,153.73048812437628 163.07769707066473,154.52344178519706 166.00982376746833,157.4226178184108 168.20891879010014,158.2898741502795 171.1989164085826,158.77305611551856 172.5685282209888,158.7854453617765 174.34323648479767,159.3181813033225 180.53542510117404,161.70925873701344 182.12687544646906,162.73752595811675 184.02697070722934,163.1711290183448 186.66009764221963,163.4808441826899 187.75,163.15874038909533 187.72106453916058,162.97291074143868 187.12306501541752,163.0720199356656 187.07483924739063,163.36934684901644 186.47683972370578,163.36934684901644 182.19439152174164,162.73752595811675 180.12068349600304,161.52342603031866 174.77726839721436,159.3801271338525 172.4431412240374,158.69872060113994 171.16998094780138,158.68633134265838 169.89682067156537,158.38898861570487 168.33430578705156,158.4013779160523 165.69153369846754,157.31111281312042 162.90408430574462,154.51105193917465 161.5537628006423,153.8419976644509 157.28095975227188,150.74445791100152 156.21999285538914,149.33194360331981 154.83109073585365,148.17961251360975 154.3777685162495,147.21312964630488 153.10460824001348,145.31730550892098 151.41670635860646,143.81796469581604 150.17248154315166,141.88489257128094 149.0343534174608,140.80681467772956 147.99267682776554,138.73736379005277 147.3464515360538,136.6678642453262" stroke="#4dd2ff" stroke-linecap="round" stroke-linejoin="round" stroke-width="0.5"><title>2023-05-07 13.6km</title></polyline><polyline fill="none" points="12.25,192.0896944559645 28.092975206207484,201.82969155034516 31.55165289249271,213.14515954628587 37.79958677664399,210.99666262534447 47.17148760287091,215.43688460462727 51.411157024558634,212.71546052454505 49.960743801202625,205.41054943820927 39.1384297516197,199.5379359012004 30.659090908709913,190.65733409265522 26.30785123957321,193.0923455125885 24.522727272007614,197.9623509029625 28.985537189990282,202.40262965799775 32.778925620019436,213.00192655972205 37.24173553753644,210.85342933656648 46.6136363632977,215.43688460462727 49.960743801202625,214.4342555257026 52.080578512046486,210.42372934822924 48.51033057831228,204.12144204776268 37.68801652872935,198.96499618364032 29.766528925392777,191.373514526058 24.969008264131844,197.81911578262225 30.32438016543165,204.12144204776268 32.221074379980564,212.85869355208706 39.91942148748785,211.85606193740387 47.28305785078555,215.58011724962853 51.85743801668286,213.43162546074018 52.415289256256074,210.71019602706656 49.6260330574587,205.12408126995433 37.464876032900065,199.10823114297818 29.766528925392777,191.51675055210944 25.861570247914642,194.6679380380083 24.74586776876822,199.10823114297818 29.766528925392777,203.40527057088912 32.89049586746842,213.57485838746652 38.469008264597505,211.85606193740387 46.05578512372449,215.86658247932792 51.18801652872935,214.29102271946613 52.415289256256074,210.1372625892982 49.737603305839,204.83761302137282 39.584710743278265,199.96764047793113 30.32438016543165,191.23027847940102 25.638429752085358,197.53264548094012 30.43595041334629,203.83497351733968 33.1136363632977,213.14515954628587 37.911157024558634,211.85606193740387 47.61776859499514,215.58011724962853 51.969008264131844,212.85869355208706 52.30371900787577,210.28049597889185 48.62190082622692,203.9782077925047 39.1384297516197,199.6811707802117 30.101239669136703,191.23027847940102 26.977272727526724,193.37881706212647 25.080578512512147,198.82176120381337 29.98966942122206,202.9755674431799 32.332644627895206,212.85869355208706 38.3574380162172,211.71282876876649 48.17561983410269,215.58011724962853 50.74173553660512,214.4342555257026 51.969008264131844,209.56432882905938 47.72933884290978,203.69173922168557 39.36157024791464,199.8244056388503 29.43181818211451,191.373514526058 24.857438016217202,198.53529118432198 29.98966942122206,202.68909859051928 33.336776859592646,213.57485838746652 38.469008264597505,211.2831291431794 48.287190082482994,215.43688460462727 52.19214875996113,212.71546052454505 52.75,209.8507957495749 49.737603305839,204.4079104977427 40.030991735402495,199.39470100181643 29.543388430029154,190.80057021952234 25.080578512512147,197.53264548094012 30.770661157090217,204.69437886669766 31.99793388415128,213.14515954628587 39.026859504170716,211.2831291431794 47.50619834661484,215.43688460462727 51.63429751992226,212.71546052454505 52.415289256256074,209.99402917921543 50.18388429749757,204.69437886669766 37.13016528915614,197.81911578262225 30.547520661260933,190.65733409265522 24.74586776876822,198.10558600362856 29.766528925392777,201.97292610746808 32.332644627895206,213.86132418061607 38.3574380162172,211.42636237188708 47.17148760287091,215.29365193960257 51.522727272473276,212.42899440939073 52.080578512046486,209.8507957495749 47.95247933873907,203.40527057088912 37.13016528915614,197.81911578262225 30.88223140500486,190.51409794553183 26.530991735868156,193.5220528068021 24.74586776876822,198.96499618364032 29.654958677478135,201.54322237614542 32.778925620019436,214.1477898930898 38.80371900834143,211.9992950859014 48.73347107460722,214.86395382345654 51.29958677664399,213.28839251364116 52.30371900787577,208.9913947469322 49.402892561629415,204.264676282648 38.022727272473276,198.82176120381337 20.283057851251215,181.91989229014143 14.704545454122126,192.66263803781476 27.646694215014577,200.68381436984055 32.55578512419015,214.1477898930898 37.018595040775836,211.42636237188708 48.62190082622692,215.00718654843513 52.19214875996113,212.1425282137934 51.74586776830256,207.12935675610788 46.05578512372449,201.82969155034516 35.345041322056204,196.38676346978173 28.539256198331714,187.79260732792318 19.94834710750729,181.91989229014143 14.258264462929219,191.08704241295345 30.43595041334629,202.25939516117796 32.66735537163913,213.43162546074018 37.464876032900065,210.71019602706656 48.95661157043651,214.7207210775232 52.30371900787577,208.9913947469322 50.07231404958293,204.98084715555888 39.473140495829284,199.6811707802117 28.650826446246356,187.5061342085246 20.729338843375444,181.91989229014143 14.258264462929219,191.8032225446077 28.762396694160998,200.82704908773303 32.221074379980564,213.28839251364116 40.14256198331714,211.56959558057133 47.61776859499514,215.29365193960257 51.85743801668286,212.57222747709602 51.969008264131844,207.98875932849478 49.06818181788549,203.9782077925047 35.456611569970846,196.52999879175331 28.985537189990282,188.07908036664594 20.059917355887592,181.6334175207885 14.035123967565596,191.6599865584867 28.539256198331714,200.68381436984055 32.778925620019436,213.71809129428584 37.68801652872935,211.42636237188708 49.17975206580013,214.7207210775232 52.415289256256074,209.70756229932886 48.287190082482994,203.83497351733968 36.79545454541221,198.10558600362856 28.762396694160998,188.36555332504213 19.725206611678004,182.0631296450738 14.146694214548916,191.23027847940102 29.87809917377308,200.5405796318082 31.663223140407354,212.42899440939073 37.79958677664399,210.85342933656648 48.398760330397636,214.57748831145 50.85330578498542,213.57485838746652 52.19214875996113,209.56432882905938 47.72933884290978,203.69173922168557 38.24586776830256,198.82176120381337 30.32438016543165,190.94380632648245 26.86570247914642,192.80587388318963 24.969008264131844,197.9623509029625 29.98966942122206,200.5405796318082 32.332644627895206,212.85869355208706 38.13429752085358,210.99666262534447 49.17975206580013,214.7207210775232 52.52685950323939,209.2778618284501 48.95661157043651,203.9782077925047 37.911157024558634,198.2488210836891 19.94834710750729,182.49284158833325 14.258264462929219,191.08704241295345 29.43181818211451,200.25411009497475 32.44421487627551,213.14515954628587 38.58057851251215,211.13989589479752 48.17561983410269,215.29365193960257 51.85743801668286,213.14515954628587 51.63429751992226,208.13199302030262 48.398760330397636,203.83497351733968 38.13429752085358,198.39205614419188 28.985537189990282,187.93584385712165 20.283057851251215,182.34960429405328 15.597107437904924,187.64937077800278 15.26239669462666,192.0896944559645 29.32024793373421,199.96764047793113 32.66735537163913,213.43162546074018 37.57644628128037,211.71282876876649 44.94008264411241,214.86395382345654 50.07231404958293,214.7207210775232 52.52685950323939,211.2831291431794 51.74586776830256,207.8455256165471 45.60950413160026,201.82969155034516 37.464876032900065,198.82176120381337 29.98966942122206,191.51675055210944 26.196280991192907,194.38146685087122 24.522727272007614,198.82176120381337 28.762396694160998,200.39734487328678 32.55578512419015,213.86132418061607 38.469008264597505,211.71282876876649 47.72933884290978,215.29365193960257 51.969008264131844,213.00192655972205 51.969008264131844,208.41846034268383 47.61776859499514,203.54850490647368 36.907024793326855,198.10558600362856 20.394628099165857,182.49284158833325 14.481404958758503,192.2329303814331 29.543388430029154,201.25675312126987 32.778925620019436,214.1477898930898 37.35330578451976,211.2831291431794 48.62190082622692,215.15041925373953 52.19214875996113,212.71546052454505 51.969008264131844,208.41846034268383 47.394628098700196,203.54850490647368 37.911157024558634,199.10823114297818 29.097107437904924,188.65202620241325 20.283057851251215,183.209027758101 14.704545454122126,190.22762559144758 29.654958677478135,202.40262965799775" stroke="#4dd2ff" stroke-linecap="round" stroke-linejoin="round" stroke-width="0.5"><title>2023-05-01 14.7km</title></polyline><polyline fill="none" points="57.25,192.01011626725085 73.63461538450792,201.04618387797382 77.32692307699472,213.63729647744913 83.55769230797887,211.71160664432682 93.48076923144981,215.26672358810902 97.51923076901585,211.26721618301235 95.78846153849736,206.2307778665563 82.05769230751321,199.5648666267516 74.90384615352377,190.9731855217833 73.17307692300528,191.12131854787003 68.44230769248679,199.26860292663332 74.32692307699472,202.82376183220185 77.7884615380317,214.22981571801938 82.98076923098415,211.85973675607238 91.40384615398943,215.71111236314755 94.63461538450792,215.26672358810902 97.51923076901585,210.67469527723733 95.55769230797887,205.6382541299099 73.40384615352377,190.82505247520749 68.21153846103698,198.8242072206922 73.40384615352377,201.93497322977055 77.7884615380317,214.22981571801938 82.75,211.56347651104443 92.90384615352377,215.85924191307276 97.4038461544551,211.56347651104443 94.40384615398943,204.89759899035562 84.71153846150264,200.00926202058326 75.01923076901585,190.23252007935662 71.44230769248679,192.45451484585647 68.32692307652906,198.67607527703512 75.48076923051849,204.3050745043438 76.98076923098415,213.9335561391199 83.78846153849736,211.85973675607238 93.25,215.56298279296607 95.90384615398943,214.22981571801938 97.17307692300528,210.23030437901616 92.21153846150264,203.26815585244913 83.90384615398943,199.4167347868206 74.67307692347094,190.38065320940223 69.82692307652906,194.8246374350274 68.55769230704755,199.5648666267516 74.55769230751321,202.52749904803932 77.09615384601057,213.48916661483236 82.98076923098415,211.56347651104443 93.48076923144981,215.41485320101492 97.17307692300528,213.34103673161007 97.51923076901585,210.8228255348513 94.75000000046566,205.49012314353604 80.67307692300528,197.19475469517056 74.44230769248679,190.52878631884232 70.40384615398943,194.38023985514883 69.01923076901585,199.86113024363294 74.32692307699472,201.93497322977055 77.7884615380317,213.78542631829623 84.25,212.00786684721243 92.44230769248679,215.85924191307276 96.25,214.08168593910523 97.51923076901585,209.93404367612675 94.75000000046566,204.89759899035562 81.59615384647623,197.93541524617467 77.32692307699472,191.71385044429917 73.51923076948151,190.08438692858908 68.44230769248679,198.97233914327808 74.44230769248679,202.67563045071438 77.21153846150264,214.08168593910523 84.25,212.00786684721243 93.94230769202113,215.71111236314755 97.51923076901585,212.4522569961846 97.4038461544551,209.34152202063706 91.75,202.52749904803932 81.01923076901585,197.78728317772038 73.63461538450792,190.52878631884232 68.90384615352377,198.3798113267403 76.05769230704755,204.45320565719157 76.75,213.48916661483236 82.63461538497359,212.15599691774696 92.55769230751321,216.00737144297455 96.36538461549208,214.67420493043028 97.75,210.8228255348513 94.17307692347094,204.3050745043438 81.82692307699472,198.23167932091746 73.75,190.82505247520749 69.13461538404226,198.8242072206922 74.55769230751321,203.26815585244913 76.75,214.08168593910523 83.09615384601057,211.56347651104443 93.94230769202113,215.41485320101492 97.75,210.8228255348513 93.36538461549208,203.4162871510489 84.01923076901585,199.12047104549129 73.75,190.23252007935662 69.82692307652906,199.12047104549129 74.7884615380317,201.93497322977055 77.21153846150264,214.5260752135655 83.67307692300528,212.4522569961846 91.17307692300528,215.71111236314755 96.01923076901585,213.78542631829623 97.4038461544551,210.8228255348513 92.78846153849736,203.12002453336027 82.51923076948151,198.23167932091746 75.36538461549208,190.52878631884232 73.40384615352377,190.67691940732766 69.48076923051849,198.97233914327808 75.01923076901585,203.26815585244913 76.17307692300528,213.48916661483236 82.05769230751321,211.56347651104443 94.17307692347094,215.56298279296607 97.75,212.3041269670939 97.75,209.63778289046604 92.21153846150264,201.93497322977055 83.78846153849736,198.8242072206922 75.25,190.23252007935662 73.51923076948151,190.67691940732766 69.13461538404226,199.4167347868206 74.90384615352377,204.00881213624962 76.51923076901585,213.78542631829623 83.44230769202113,211.56347651104443 90.13461538497359,214.97046430082992 95.2115384619683,214.67420493043028 97.28846153849736,212.74851699138526 96.59615384601057,206.52703961008228 82.75,198.0835472936742 64.75,181.49262855702545 59.44230769202113,188.89932097145356 59.096153846010566,191.41758453752846 74.90384615352377,203.12002453336027 77.21153846150264,213.48916661483236 82.86538461549208,211.26721618301235 89.78846153849736,214.5260752135655 95.2115384619683,214.5260752135655 97.4038461544551,211.85973675607238 95.55769230797887,205.6382541299099 73.51923076948151,190.38065320940223 69.82692307652906,196.60222587944008 74.67307692347094,202.82376183220185 77.32692307699472,213.78542631829623 83.21153846150264,210.97095577139407 90.01923076901585,214.82233462564182 94.98076923098415,214.82233462564182 97.28846153849736,211.56347651104443 96.25,206.2307778665563 84.94230769248679,199.86113024363294 77.44230769248679,191.71385044429917 73.63461538450792,190.9731855217833 70.05769230797887,194.8246374350274 69.36538461549208,199.71299844572786 74.90384615352377,204.3050745043438 77.55769230751321,214.22981571801938 83.44230769202113,211.26721618301235 93.01923076948151,215.56298279296607 96.94230769248679,212.74851699138526 95.78846153849736,205.6382541299099 81.94230769202113,197.78728317772038 75.82692307652906,190.08438692858908 73.28846153849736,191.12131854787003 69.82692307652906,198.23167932091746 74.2115384619683,201.49057864770293 76.51923076901585,208.15647771104705 80.32692307699472,206.97143206885085 85.75,199.71299844572786" stroke="#4dd2ff" stroke-linecap="round" stroke-linejoin="round" stroke-width="0.5"><title>2023-04-20 10.0km</title></polyline><polyline fill="none" points="103.38243201721343,203.3849155933858 103.18332309109974,203.12921639676642 102.34333230910124,202.84155342520535 102.25,202.6337959288685 102.40555384854088,202.39407479685542 103.02154708863236,202.0664542808081 103.81176063913153,201.9465926444209 106.82328314642655,201.9465926444209 107.88104931631824,201.7228502466205 115.95118297741283,197.5355085446863 117.50672146258876,196.91217556573974 118.70137501921272,196.7523454951297 119.83380703642615,196.81627757731985 133.354547549563,198.9979167658421 134.98475188203156,199.17372286979662 135.89318635733798,199.133766984869 137.26828237823793,198.82211011791878 138.2513827008952,198.35861725651193 139.17848363803932,197.615422534549 141.15090643722215,195.21795393774664 142.18378399140784,194.82635778764597 142.7251113842358,194.85832492150075 142.75,194.95422621510443 142.49489168843138,194.99418503967172 141.0140190505481,194.38680787306657 140.71535566140665,194.1150844066142 139.89403134121676,195.84929714857572 138.81137655553175,197.3916630796266 137.49227992011583,198.40656496925294 136.68339990780805,198.75818029289076 135.79985404823674,198.98193436580186 134.6549777231412,199.05385513067085 133.31099247196107,198.93398713864735 121.62578737133299,197.04003929845567 119.44181133812526,196.72837094573697 118.36537870642496,196.72037942704264 117.41338915348751,196.88820108379878 116.26851282839198,197.27179158055515 107.81260562298121,201.61097871731909 106.67395145184128,201.78677673589118 103.44465355659486,201.77878592865818 102.37444307885016,202.13837114127455" stroke="#4dd2ff" stroke-linecap="round" stroke-linejoin="round" stroke-width="0.5"><title>2023-03-17 12.5km</title></polyline><polyline fill="none" points="148.2713747501257,203.34920479062566 147.25,202.7653499705957 147.36210210670833,202.5334059812958 147.81051053359988,202.27746668841792 148.91907581116538,202.07751331441978 151.8088190066337,202.07751331441978 152.8239658618986,201.85356470091574 160.9326849146746,197.65436489950662 162.47097493463662,197.03845618663763 163.8909349530877,196.87047992530643 164.78152391203912,196.926472067571 176.67057511917665,198.87816371428926 178.67595725052524,199.16611254910094 180.79344148855307,199.25409662447782 182.36909887744696,198.88616231273772 183.41538520681206,198.34225505639915 184.31842995542684,197.54238199336032 186.26153313854593,195.26268203357904 187.30781946794013,194.846726918262 187.73131631553406,194.91871936749158 187.75,195.0387065803552 187.23931262496626,195.0387065803552 185.87540365985478,194.38277339208798 185.7508457635122,194.2947817790009 185.75707365831477,194.15079520937797 184.7606104874867,196.18257196384002 183.60844994618674,197.65436489950662 182.4749730893236,198.47023370240277 180.99273412273033,198.99014398999498 179.7969783176959,199.10212404515914 178.45798093188205,198.98214540617482 165.342034445639,196.9024754419188 164.140050745802,196.7744932674941 163.2120944179478,196.82248661667109 162.109757035214,197.0464550438337 161.10706596955424,197.4543952695385 152.80528217746178,201.70959726941146 151.77145163770183,201.9335464498181 148.2340073811938,201.92554828000357 147.3434184222424,202.26147044435857" stroke="#4dd2ff" stroke-linecap="round" stroke-linejoin="round" stroke-width="0.5"><title>2023-03-11 12.5km</title></polyline><polyline fill="none" points="18.835365852341056,239.46388663141988 19.493902437388897,251.30662027560174 35.957317071035504,244.11639469955117 32.664634143933654,236.08023987687193 19.493902437388897,235.65728376456536 17.51829268038273,250.03775818785653 35.957317071035504,244.11639469955117 32.664634143933654,236.92615192383528 17.51829268038273,236.92615192383528 14.554878046736121,243.69343971763737 19.164634143933654,249.6148040392436 30.359756097197533,247.92298685270362 33.65243902243674,239.46388663141988 15.542682925239205,237.34910785709508 18.176829267293215,250.88366630556993 32.00609756074846,248.34594123833813 35.29878048598766,240.73275318206288 16.859756097197533,236.50319593027234 13.89634146168828,242.00161919696257 19.493902437388897,250.46071227709763 32.00609756074846,247.92298685270362 35.29878048598766,239.88684220891446 28.384146340191364,234.81137136253528 16.53048780374229,236.50319593027234 21.140243900939822,250.88366630556993 35.957317071035504,242.00161919696257 31.018292682245374,235.23432759335265 17.84756097383797,235.65728376456536 19.493902437388897,250.46071227709763 27.396341463550925,250.46071227709763 35.628048779442906,242.00161919696257 19.164634143933654,234.81137136253528 13.567073170095682,237.34910785709508 16.53048780374229,246.23116871295497 34.96951219253242,243.69343971763737 33.65243902243674,237.77206373028457 20.152439022436738,234.38841507257894 13.89634146168828,247.92298685270362 32.9939024373889,247.50003240676597 36.28658536449075,242.00161919696257 20.81097560748458,234.81137136253528 12.908536583185196,242.847529577557 20.48170731589198,249.6148040392436 32.33536585047841,246.65412333700806 33.65243902243674,237.34910785709508 15.871951218694448,236.50319593027234 12.579268291592598,242.42457441682927 18.506097558885813,249.19184983242303 32.9939024373889,246.23116871295497 35.29878048598766,240.30979772517458 20.152439022436738,234.81137136253528 13.567073170095682,241.15570857957937 15.871951218694448,250.88366630556993 34.96951219253242,246.23116871295497 32.664634143933654,236.08023987687193 22.457317071035504,234.81137136253528 14.225609755143523,240.30979772517458 15.213414631783962,247.50003240676597 27.067073170095682,248.76889556529932 34.96951219253242,243.27048467705026 33.32317073084414,236.50319593027234 19.493902437388897,234.81137136253528 12.579268291592598,242.847529577557 15.213414631783962,248.76889556529932 27.067073170095682,249.6148040392436 36.61585365794599,240.73275318206288 20.48170731589198,235.65728376456536 13.89634146168828,242.00161919696257 18.176829267293215,250.03775818785653 34.31097560748458,244.96230448270217 34.64024390093982,238.6179752999451 20.48170731589198,235.23432759335265 13.237804876640439,244.53934962069616 17.84756097383797,249.6148040392436 31.018292682245374,247.92298685270362 35.957317071035504,240.73275318206288 18.835365852341056,236.08023987687193 13.567073170095682,239.46388663141988 17.18902438879013,249.6148040392436 35.957317071035504,242.42457441682927 31.676829267293215,236.08023987687193 18.835365852341056,236.08023987687193 13.89634146168828,240.30979772517458 16.859756097197533,249.19184983242303 29.042682925239205,248.76889556529932 35.957317071035504,239.88684220891446 17.51829268038273,236.08023987687193 13.567073170095682,240.30979772517458 18.835365852341056,249.19184983242303 34.31097560748458,247.077077902155 36.94512194953859,241.15570857957937 20.152439022436738,234.81137136253528 14.554878046736121,238.1950195445679 15.542682925239205,248.76889556529932 35.29878048598766,243.69343971763737 30.03048780374229,235.23432759335265 16.53048780374229,236.08023987687193 17.84756097383797,249.6148040392436 32.00609756074846,246.65412333700806 35.957317071035504,239.46388663141988 15.542682925239205,237.34910785709508 19.164634143933654,250.03775818785653 35.628048779442906,242.00161919696257 30.03048780374229,235.23432759335265 15.542682925239205,237.34910785709508 14.225609755143523,244.96230448270217 22.12804877758026,250.46071227709763 36.61585365794599,241.15570857957937 29.37195121869445,234.81137136253528 14.884146340191364,236.92615192383528 16.201219510287046,249.6148040392436 27.396341463550925,250.46071227709763 35.957317071035504,241.57866391842254 18.506097558885813,235.23432759335265 13.567073170095682,243.69343971763737 17.18902438879013,249.6148040392436 34.31097560748458,246.65412333700806 36.28658536449075,241.57866391842254 19.493902437388897,236.08023987687193 14.884146340191364,239.04093099501915 17.84756097383797,249.6148040392436 30.68902438879013,250.03775818785653 36.28658536449075,244.11639469955117 34.96951219253242,238.1950195445679 22.786585364490747,234.81137136253528 16.201219510287046,237.34910785709508 15.871951218694448,247.92298685270362 34.96951219253242,244.11639469955117 29.701219510287046,235.23432759335265 15.871951218694448,236.92615192383528 15.871951218694448,248.34594123833813 35.29878048598766,245.38525928673334 32.664634143933654,236.08023987687193 19.493902437388897,234.81137136253528 14.554878046736121,238.6179752999451 17.18902438879013,249.19184983242303 34.31097560748458,248.34594123833813 31.018292682245374,235.23432759335265 15.871951218694448,236.50319593027234 13.567073170095682,244.11639469955117 29.042682925239205,249.19184983242303 35.29878048598766,244.11639469955117 30.359756097197533,234.81137136253528 13.567073170095682,241.15570857957937 18.835365852341056,250.46071227709763 31.018292682245374,249.19184983242303 35.957317071035504,240.73275318206288 26.408536583185196,235.23432759335265 16.53048780374229,236.50319593027234 13.567073170095682,246.23116871295497 33.32317073084414,246.23116871295497 34.96951219253242,238.1950195445679 28.713414631783962,234.38841507257894 14.884146340191364,236.92615192383528 13.89634146168828,245.38525928673334 21.469512194395065,249.19184983242303 34.64024390093982,244.11639469955117 35.29878048598766,238.6179752999451 26.73780487664044,234.81137136253528 15.871951218694448,237.34910785709508 15.542682925239205,247.50003240676597 33.98170731589198,246.23116871295497 33.98170731589198,237.77206373028457 19.164634143933654,234.81137136253528 13.567073170095682,244.96230448270217 30.68902438879013,248.34594123833813 34.96951219253242,244.53934962069616 32.33536585047841,235.23432759335265 19.164634143933654,234.38841507257894 12.579268291592598,243.27048467705026 18.506097558885813,250.03775818785653 34.31097560748458,247.077077902155 34.31097560748458,236.92615192383528 28.384146340191364,234.38841507257894 15.213414631783962,236.50319593027234 14.554878046736121,245.80821402953006 31.34756097383797,248.34594123833813 35.628048779442906,240.73275318206288 30.68902438879013,235.23432759335265 17.18902438879013,234.81137136253528 13.89634146168828,244.11639469955117 30.68902438879013,248.76889556529932 35.957317071035504,240.73275318206288 27.725609753280878,234.81137136253528 18.176829267293215,235.23432759335265 13.89634146168828,244.11639469955117 17.51829268038273,248.76889556529932 33.32317073084414,247.92298685270362 36.94512194953859,242.847529577557 31.34756097383797,234.38841507257894 13.237804876640439,240.73275318206288 18.176829267293215,249.6148040392436 31.676829267293215,248.34594123833813 35.628048779442906,239.04093099501915 30.68902438879013,234.38841507257894 16.201219510287046,236.50319593027234 13.237804876640439,241.57866391842254 15.542682925239205,247.50003240676597 30.03048780374229,248.76889556529932 35.29878048598766,243.27048467705026 30.68902438879013,235.65728376456536 16.859756097197533,236.08023987687193 12.908536583185196,243.69343971763737 16.53048780374229,249.19184983242303 30.68902438879013,248.76889556529932 34.96951219253242,244.96230448270217 29.701219510287046,234.81137136253528 17.51829268038273,235.65728376456536 12.25,243.69343971763737 28.713414631783962,249.19184983242303 34.64024390093982,245.80821402953006 32.9939024373889,236.08023987687193 20.48170731589198,234.38841507257894 12.25,239.88684220891446 16.201219510287046,247.50003240676597 29.37195121869445,247.92298685270362 35.628048779442906,239.04093099501915 31.676829267293215,234.81137136253528 12.908536583185196,237.77206373028457 15.542682925239205,247.50003240676597 29.042682925239205,248.34594123833813 35.628048779442906,243.27048467705026 32.664634143933654,235.23432759335265 14.225609755143523,239.46388663141988 17.51829268038273,247.92298685270362 28.384146340191364,248.34594123833813 34.64024390093982,246.23116871295497 32.9939024373889,236.08023987687193 17.84756097383797,234.81137136253528 12.25,240.73275318206288 17.51829268038273,248.76889556529932 30.359756097197533,248.76889556529932 35.628048779442906,242.00161919696257 28.384146340191364,235.65728376456536 19.493902437388897,235.23432759335265 12.908536583185196,242.00161919696257 15.871951218694448,247.50003240676597 28.713414631783962,247.50003240676597 34.96951219253242,244.96230448270217 32.664634143933654,235.65728376456536 16.859756097197533,235.65728376456536 13.237804876640439,240.30979772517458 17.51829268038273,248.34594123833813 31.34756097383797,247.50003240676597 35.628048779442906,242.847529577557 31.676829267293215,234.81137136253528 17.51829268038273,234.38841507257894 13.237804876640439,240.30979772517458 18.506097558885813,248.34594123833813 31.34756097383797,247.50003240676597 36.28658536449075,242.00161919696257 30.68902438879013,235.23432759335265 13.237804876640439,239.88684220891446 18.506097558885813,247.92298685270362 32.33536585047841,246.65412333700806 35.957317071035504,242.00161919696257 30.359756097197533,233.96545872162096 15.542682925239205,235.65728376456536 13.567073170095682,245.80821402953006 34.31097560748458,246.23116871295497 33.98170731589198,236.92615192383528 28.05487804673612,234.38841507257894 15.871951218694448,236.08023987687193 12.908536583185196,242.42457441682927 20.152439022436738,249.6148040392436 34.96951219253242,246.65412333700806 32.9939024373889,236.92615192383528 20.152439022436738,235.23432759335265 14.554878046736121,236.92615192383528 13.89634146168828,246.65412333700806 33.98170731589198,246.23116871295497 35.29878048598766,240.30979772517458 25.091463413089514,235.23432759335265 16.53048780374229,236.08023987687193 12.579268291592598,244.53934962069616 31.34756097383797,247.92298685270362 35.29878048598766,239.46388663141988 26.408536583185196,234.38841507257894 16.859756097197533,235.65728376456536 12.908536583185196,245.38525928673334 22.457317071035504,249.6148040392436 34.64024390093982,245.80821402953006 32.33536585047841,236.08023987687193 26.079268291592598,234.81137136253528 14.225609755143523,238.1950195445679 13.89634146168828,246.23116871295497 32.664634143933654,248.34594123833813 34.96951219253242,238.1950195445679 30.359756097197533,234.38841507257894 14.554878046736121,237.34910785709508 13.567073170095682,244.53934962069616 32.9939024373889,246.23116871295497 34.31097560748458,236.92615192383528 29.37195121869445,233.542502311524 16.53048780374229,235.23432759335265 13.237804876640439,244.11639469955117 30.68902438879013,248.76889556529932 35.628048779442906,239.88684220891446 32.00609756074846,235.23432759335265 15.542682925239205,236.08023987687193 12.25,243.27048467705026 20.152439022436738,249.19184983242303 32.664634143933654,247.92298685270362 36.28658536449075,240.30979772517458 28.05487804673612,233.96545872162096 14.884146340191364,236.92615192383528 13.567073170095682,244.11639469955117 32.33536585047841,248.34594123833813 35.957317071035504,239.88684220891446 31.676829267293215,235.23432759335265 18.835365852341056,235.23432759335265 12.908536583185196,243.27048467705026 31.018292682245374,248.76889556529932 35.628048779442906,244.53934962069616 30.359756097197533,235.65728376456536 12.908536583185196,242.42457441682927 19.82317073084414,249.6148040392436 32.33536585047841,248.34594123833813 35.957317071035504,243.27048467705026 31.018292682245374,235.23432759335265 17.51829268038273,235.65728376456536 13.237804876640439,243.69343971763737 18.506097558885813,249.19184983242303 31.018292682245374,248.34594123833813 35.628048779442906,240.30979772517458 30.68902438879013,235.65728376456536 15.871951218694448,236.08023987687193 12.25,243.27048467705026 31.018292682245374,247.92298685270362 35.29878048598766,244.96230448270217 31.018292682245374,235.23432759335265 12.908536583185196,239.04093099501915 15.871951218694448,247.92298685270362 30.68902438879013,248.34594123833813 34.96951219253242,244.53934962069616 30.68902438879013,235.23432759335265 16.53048780374229,235.23432759335265 13.567073170095682,244.96230448270217 33.65243902243674,246.23116871295497 36.61585365794599,241.57866391842254 28.713414631783962,234.38841507257894 12.908536583185196,241.15570857957937 14.884146340191364,246.65412333700806 27.067073170095682,247.92298685270362 34.31097560748458,244.53934962069616 32.00609756074846,235.65728376456536 13.567073170095682,237.77206373028457 16.53048780374229,247.50003240676597 29.37195121869445,248.34594123833813 36.28658536449075,240.73275318206288 28.713414631783962,233.96545872162096 14.884146340191364,236.50319593027234 13.237804876640439,243.69343971763737 21.469512194395065,250.03775818785653 34.64024390093982,246.23116871295497 28.713414631783962,234.81137136253528 19.493902437388897,234.81137136253528 13.237804876640439,243.27048467705026 31.018292682245374,248.34594123833813 35.29878048598766,240.73275318206288 31.676829267293215,235.65728376456536 13.567073170095682,239.46388663141988 18.835365852341056,248.76889556529932 32.33536585047841,248.34594123833813 34.64024390093982,237.77206373028457 29.37195121869445,234.38841507257894 15.871951218694448,235.65728376456536 13.89634146168828,245.80821402953006 31.676829267293215,248.34594123833813 35.29878048598766,242.847529577557 30.68902438879013,235.23432759335265 17.18902438879013,235.23432759335265 12.579268291592598,242.847529577557 18.835365852341056,249.19184983242303 33.32317073084414,247.077077902155 30.03048780374229,234.81137136253528 23.774390241131186,234.81137136253528 27.396341463550925,242.00161919696257 40.23780487664044,250.03775818785653 43.201219510287046,260.18863988737576 52.75,261.4574976887088" stroke="#4dd2ff" stroke-linecap="round" stroke-linejoin="round" stroke-width="0.5"><title>2021-06-01 11.4km</title></polyline><polyline fill="none" points="93.69999999925494,251.40178802469745 80.03125,235.79473054641858 59.274999998509884,244.89885381236672 59.274999998509884,255.95383652532473 87.11875000037253,252.05208094185218 81.55000000074506,233.8438446559012 68.89374999888241,235.79473054641858 57.25,252.7023737677373 68.89374999888241,263.757337811403 90.15625,254.65325169684365 90.15625,237.74561561411247 80.03125,233.8438446559012 61.30000000074506,252.7023737677373 87.625,252.05208094185218 93.19374999962747,244.24855988891795 83.06874999962747,231.24266218859702 61.80625000037253,246.84973503742367 68.38749999925494,259.20529699744657 87.625,255.30354415765032 93.69999999925494,246.1994413868524 83.57500000111759,233.19354917528108 64.84375,240.34679442085326 61.80625000037253,255.30354415765032 89.14375000074506,250.75149501347914 93.19374999962747,242.29767756722867 81.04374999925494,231.24266218859702 61.30000000074506,241.64738327637315 61.80625000037253,251.40178802469745 90.66250000149012,255.30354415765032 95.72499999962747,239.0462052016519 88.63749999925494,234.49414004571736 65.35000000149012,243.59826587419957 72.4375,261.15617218147963 93.19374999962747,252.7023737677373 95.21875,240.34679442085326 68.89374999888241,234.49414004571736 59.274999998509884,243.59826587419957 85.59999999962747,250.75149501347914 94.20624999888241,247.50002859719098 89.65000000037253,232.54325360432267 66.36250000074506,233.19354917528108 60.79375000111759,246.84973503742367 89.14375000074506,251.40178802469745 95.21875,243.59826587419957 87.625,232.54325360432267 60.79375000111759,241.64738327637315 67.88124999962747,256.6041288031265 90.15625,252.05208094185218 94.71250000037253,236.44502565916628 87.625,231.89295794069767 64.33750000037253,235.79473054641858 60.79375000111759,244.89885381236672 71.42500000074506,254.00295914616436 93.19374999962747,248.15032206242904 93.19374999962747,235.14443534146994 83.57500000111759,231.89295794069767 65.35000000149012,235.79473054641858 63.83124999888241,252.7023737677373 91.67500000074506,252.7023737677373 96.73750000074506,242.9479717677459 85.59999999962747,231.89295794069767 62.81874999962747,237.09532068204135 64.84375,254.00295914616436 93.69999999925494,247.50002859719098 95.72499999962747,239.0462052016519 82.05625000037253,232.54325360432267 67.88124999962747,233.8438446559012 61.30000000074506,248.15032206242904 71.93125000223517,255.95383652532473 93.69999999925494,247.50002859719098 83.57500000111759,231.89295794069767 64.33750000037253,236.44502565916628 61.30000000074506,246.84973503742367 71.93125000223517,255.95383652532473 88.13125000149012,252.7023737677373 95.72499999962747,246.84973503742367 90.66250000149012,233.8438446559012 61.80625000037253,241.64738327637315 65.85625000111759,255.30354415765032 89.65000000037253,250.75149501347914 95.72499999962747,244.89885381236672 88.13125000149012,231.89295794069767 67.375,233.8438446559012 61.80625000037253,242.9479717677459 71.42500000074506,256.6041288031265 91.16874999925494,252.05208094185218 96.23125000111759,245.54914764640853 87.11875000037253,233.8438446559012 64.33750000037253,235.79473054641858 61.30000000074506,242.9479717677459 65.35000000149012,254.65325169684365 87.11875000037253,255.30354415765032 94.71250000037253,251.40178802469745 91.67500000074506,235.79473054641858 70.91874999925494,233.8438446559012 62.3125,241.64738327637315 65.85625000111759,254.65325169684365 87.625,255.30354415765032 96.73750000074506,242.29767756722867 91.16874999925494,235.79473054641858 69.40000000037253,234.49414004571736 61.80625000037253,243.59826587419957 64.84375,254.65325169684365 90.66250000149012,252.05208094185218 94.20624999888241,237.09532068204135 86.10625000111759,233.8438446559012 62.3125,238.3959104544483 61.80625000037253,247.50002859719098 67.375,257.25442098872736 87.11875000037253,255.30354415765032 95.21875,250.10120191331953 90.15625,235.79473054641858 61.80625000037253,241.64738327637315 68.38749999925494,257.25442098872736 88.13125000149012,254.65325169684365 95.72499999962747,248.80061543732882 88.13125000149012,233.19354917528108 64.84375,236.44502565916628 62.3125,245.54914764640853 72.4375,257.9047130821273 93.19374999962747,252.7023737677373 89.14375000074506,232.54325360432267 64.84375,236.44502565916628 62.81874999962747,247.50002859719098 66.36250000074506,255.95383652532473 87.11875000037253,256.6041288031265 96.23125000111759,241.64738327637315 90.15625,234.49414004571736 63.32500000111759,238.3959104544483 68.89374999888241,258.55500508565456 88.13125000149012,257.9047130821273 95.21875,252.7023737677373 92.18125000223517,237.74561561411247 62.3125,240.99708889517933 69.40000000037253,259.855588816572 86.61250000074506,257.9047130821273 94.71250000037253,252.7023737677373 93.19374999962747,238.3959104544483 69.90625,234.49414004571736 61.80625000037253,244.24855988891795 65.35000000149012,255.95383652532473 90.66250000149012,254.65325169684365 96.73750000074506,240.99708889517933 88.63749999925494,233.8438446559012 65.35000000149012,235.79473054641858 63.32500000111759,243.59826587419957 70.41250000149012,259.855588816572 88.13125000149012,257.9047130821273 94.20624999888241,239.69649985712022 63.32500000111759,240.34679442085326 65.35000000149012,254.00295914616436 76.99375000037253,258.55500508565456 94.71250000037253,252.05208094185218 92.18125000223517,236.44502565916628 60.287500001490116,240.99708889517933 68.89374999888241,259.20529699744657 80.03125,258.55500508565456 91.67500000074506,255.30354415765032 95.21875,239.0462052016519 64.33750000037253,239.69649985712022 65.35000000149012,255.95383652532473 83.57500000111759,259.20529699744657 96.23125000111759,250.75149501347914 89.65000000037253,237.09532068204135 66.36250000074506,236.44502565916628 60.287500001490116,244.24855988891795 72.4375,255.95383652532473 88.63749999925494,254.65325169684365 95.21875,239.0462052016519 88.63749999925494,233.19354917528108 61.80625000037253,240.99708889517933 65.85625000111759,253.35266650188714 80.53750000149012,258.55500508565456 96.23125000111759,248.15032206242904 93.69999999925494,238.3959104544483 63.83124999888241,239.0462052016519 65.85625000111759,256.6041288031265 85.09375,259.20529699744657 95.72499999962747,244.89885381236672 90.15625,237.74561561411247 73.95624999888241,235.79473054641858 61.30000000074506,245.54914764640853 71.42500000074506,258.55500508565456 87.625,257.9047130821273 96.73750000074506,244.24855988891795 90.66250000149012,235.79473054641858 64.84375,238.3959104544483 66.36250000074506,254.65325169684365 79.52500000037253,257.9047130821273 94.20624999888241,252.05208094185218 91.67500000074506,237.74561561411247 62.81874999962747,239.69649985712022 67.88124999962747,257.9047130821273 90.15625,257.9047130821273 96.73750000074506,245.54914764640853 82.5625,234.49414004571736 68.89374999888241,235.14443534146994 62.81874999962747,249.45090872235596 67.375,257.9047130821273 89.65000000037253,257.25442098872736 91.16874999925494,237.09532068204135 70.41250000149012,234.49414004571736 61.30000000074506,248.80061543732882 73.44999999925494,257.9047130821273 90.66250000149012,255.95383652532473 89.65000000037253,235.79473054641858 68.89374999888241,235.14443534146994 62.3125,242.9479717677459 66.86875000037253,257.25442098872736 86.61250000074506,257.9047130821273 95.21875,243.59826587419957 89.65000000037253,237.09532068204135 68.89374999888241,234.49414004571736 60.287500001490116,246.84973503742367 69.90625,257.25442098872736 91.67500000074506,254.65325169684365 93.69999999925494,237.74561561411247 85.09375,234.49414004571736 71.42500000074506,233.8438446559012 61.80625000037253,249.45090872235596 87.625,255.95383652532473 96.23125000111759,242.29767756722867 86.10625000111759,233.19354917528108 64.33750000037253,237.74561561411247 63.83124999888241,252.7023737677373 91.67500000074506,255.30354415765032 96.23125000111759,247.50002859719098 86.10625000111759,234.49414004571736 60.79375000111759,244.89885381236672 67.88124999962747,255.95383652532473 90.15625,255.30354415765032 95.72499999962747,240.34679442085326 88.13125000149012,236.44502565916628 61.80625000037253,243.59826587419957 68.38749999925494,256.6041288031265 89.14375000074506,254.65325169684365 95.72499999962747,248.15032206242904 91.16874999925494,235.14443534146994 63.32500000111759,237.74561561411247 59.78125,247.50002859719098 68.38749999925494,257.25442098872736 88.63749999925494,254.00295914616436 94.71250000037253,239.0462052016519 87.11875000037253,234.49414004571736 65.35000000149012,235.14443534146994 60.79375000111759,243.59826587419957 69.40000000037253,256.6041288031265 90.66250000149012,254.00295914616436 95.21875,239.69649985712022 88.13125000149012,236.44502565916628 68.89374999888241,235.14443534146994 60.79375000111759,245.54914764640853 69.40000000037253,257.25442098872736 89.65000000037253,255.30354415765032 96.23125000111759,248.80061543732882 88.13125000149012,233.8438446559012 65.85625000111759,235.14443534146994 62.3125,242.9479717677459 71.42500000074506,256.6041288031265 93.69999999925494,254.00295914616436 97.75,246.1994413868524 88.63749999925494,235.79473054641858 65.35000000149012,237.09532068204135 61.80625000037253,246.1994413868524 72.4375,257.9047130821273 92.18125000223517,254.00295914616436 97.24375000037253,245.54914764640853 86.10625000111759,233.8438446559012 64.84375,237.09532068204135 61.30000000074506,248.80061543732882 70.41250000149012,257.9047130821273 91.67500000074506,254.00295914616436 90.66250000149012,235.79473054641858 70.91874999925494,234.49414004571736 61.30000000074506,247.50002859719098 67.88124999962747,256.6041288031265 93.69999999925494,252.05208094185218 93.19374999962747,237.74561561411247 83.57500000111759,233.8438446559012 69.40000000037253,234.49414004571736 62.3125,249.45090872235596 77.5,257.25442098872736 93.19374999962747,253.35266650188714 89.14375000074506,234.49414004571736 62.81874999962747,240.34679442085326 73.44999999925494,257.9047130821273 91.16874999925494,255.30354415765032 97.75,248.80061543732882 90.66250000149012,235.14443534146994 68.38749999925494,235.14443534146994 62.81874999962747,248.15032206242904 70.41250000149012,256.6041288031265 92.18125000223517,255.30354415765032 97.24375000037253,247.50002859719098 86.10625000111759,235.14443534146994 64.84375,237.74561561411247 61.80625000037253,246.1994413868524 72.4375,257.9047130821273 93.69999999925494,254.00295914616436 97.24375000037253,246.1994413868524 86.10625000111759,234.49414004571736 64.33750000037253,237.74561561411247 65.35000000149012,254.00295914616436 95.72499999962747,252.05208094185218 92.6875,237.09532068204135 83.06874999962747,233.8438446559012 65.85625000111759,235.79473054641858 61.30000000074506,248.80061543732882 68.89374999888241,256.6041288031265 94.20624999888241,252.7023737677373 96.73750000074506,244.24855988891795 83.57500000111759,234.49414004571736 63.32500000111759,239.0462052016519 64.33750000037253,254.00295914616436 93.19374999962747,254.00295914616436 92.18125000223517,237.09532068204135 81.55000000074506,235.14443534146994 67.375,235.79473054641858 60.287500001490116,248.15032206242904 88.13125000149012,256.6041288031265 95.21875,242.9479717677459 89.65000000037253,237.09532068204135 66.36250000074506,236.44502565916628 60.79375000111759,250.10120191331953 89.14375000074506,256.6041288031265 96.73750000074506,243.59826587419957 81.55000000074506,234.49414004571736 69.40000000037253,235.14443534146994 61.80625000037253,250.10120191331953 75.98125000111759,258.55500508565456 93.69999999925494,254.65325169684365 92.18125000223517,237.09532068204135 83.06874999962747,234.49414004571736 63.83124999888241,240.34679442085326 61.80625000037253,250.75149501347914 73.44999999925494,257.25442098872736 95.72499999962747,250.10120191331953 88.13125000149012,235.14443534146994 76.99375000037253,234.49414004571736 65.35000000149012,237.09532068204135 62.3125,252.7023737677373 92.18125000223517,254.65325169684365 92.6875,237.74561561411247 83.06874999962747,233.8438446559012 62.81874999962747,238.3959104544483 64.84375,255.30354415765032 94.71250000037253,252.05208094185218 92.18125000223517,237.09532068204135 83.06874999962747,234.49414004571736 67.88124999962747,236.44502565916628 61.30000000074506,252.05208094185218 92.18125000223517,255.30354415765032 94.71250000037253,240.34679442085326 75.98125000111759,234.49414004571736 65.35000000149012,237.09532068204135 63.83124999888241,252.7023737677373 95.21875,251.40178802469745" stroke="#4dd2ff" stroke-linecap="round" stroke-linejoin="round" stroke-width="0.5"><title>2020-11-29 10.4km</title></polyline></svg>