<?xml version="1.0" encoding="utf-8" ?>
<svg baseProfile="full" height="300mm" version="1.1" viewBox="0,0,200,300" width="200mm" xmlns="http://www.w3.org/2000/svg" xmlns:ev="http://www.w3.org/2001/xml-events" xmlns:xlink="http://www.w3.org/1999/xlink"><defs /><rect fill="#222222" height="300" width="200" x="0" y="0" /><text fill="#FFFFFF" style="font-size:12px; font-family:Arial; font-weight:bold;" x="10" y="20">Over 10km Runs</text><text fill="#FFFFFF" style="font-size:4px; font-family:Arial" x="10" y="280">ATHLETE</text><text fill="#FFFFFF" style="font-size:9px; font-family:Arial" x="10" y="290">Abuqi</text><text fill="#FFFFFF" style="font-size:4px; font-family:Arial" x="120" y="280">STATISTICS</text><text fill="#FFFFFF" style="font-size:3px; font-family:Arial" x="120" y="285">Number: 6</text><text fill="#FFFFFF" style="font-size:3px; font-family:Arial" x="120" y="290">Weekly: 1.0</text><text fill="#FFFFFF" style="font-size:3px; font-family:Arial" x="141" y="285">Total: 71.4 km</text><text fill="#FFFFFF" style="font-size:3px; font-family:Arial" x="141" y="290">Avg: 11.9 km</text><text fill="#FFFFFF" style="font-size:3px; font-family:Arial" x="167" y="285">Min: 10.0 km</text><text fill="#FFFFFF" style="font-size:3px; font-family:Arial" x="167" y="290">Max: 14.7 km</text><polyline fill="none" points="14.0,58.15945681044832 42.16528925579041,75.47500720061362 48.31404958665371,95.59139474888798 59.42148760333657,91.77184466714971 76.08264462742954,99.66557263035793 83.61983471084386,94.82748537673615 81.04132231418043,81.84097677888349 61.80165289249271,71.40077493526042 46.727272727526724,55.61303838691674 38.99173553753644,59.94194757787045 35.81818181741983,68.59973493847065 43.75206611584872,76.49356383632403 50.49586776923388,95.33675832825247 58.42975206673145,91.51720770925749 75.09090909082443,99.66557263035793 81.04132231418043,97.88312093447894 84.80991735588759,90.75329661881551 78.462809917517,79.54923030687496 59.223140495829284,70.38221543747932 45.14049586746842,56.88624804606661 36.6115702483803,68.3450947245583 46.13223140593618,79.54923030687496 49.50413223169744,95.08212187024765 63.19008264504373,93.29966566630173 76.28099173586816,99.9202084436547 84.41322314087301,96.10066748561803 85.40495867747813,91.26257071469445 80.44628099165857,81.33170003537089 58.82644628174603,70.63685536524281 45.14049586746842,57.140889870235696 38.19834710750729,62.74300095625222 36.21487603336573,70.63685536524281 45.14049586746842,78.27603657043073 50.69421487580985,96.35530379973352 60.6115702483803,93.29966566630173 74.0991735542193,100.42947996314615 83.22314049582928,97.62848483456764 85.40495867747813,90.24402238090988 80.64462809916586,80.82242314901669 62.595041322521865,72.16469418280758 46.13223140593618,56.63160618545953 37.80165289249271,67.83581418811809 46.33057851251215,79.03995291946921 51.090909090824425,95.59139474888798 59.61983471084386,93.29966566630173 76.87603305839002,99.9202084436547 84.61157024744898,95.08212187024765 85.20661156997085,90.49865951784886 78.6611570250243,79.29459163092542 61.80165289249271,71.6554147201823 45.73553718999028,56.63160618545953 40.18181818258017,60.45123033260461 36.80991735588759,70.12757547327783 45.537190082482994,77.5121198988054 49.70247933920473,95.08212187024765 60.413223140873015,93.04502892214805 77.86776859499514,99.9202084436547 82.42975206580013,97.88312093447894 84.61157024744898,89.22547347377986 77.07438016589731,78.78531417180784 62.19834710750729,71.91005446889903 44.545454545877874,56.88624804606661 36.413223140873015,69.61829543870408 45.537190082482994,77.00284193863627 51.487603305839,96.35530379973352 60.6115702483803,92.28111847664695 78.06611570250243,99.66557263035793 85.00826446246356,94.82748537673615 86.0,89.7347479989985 80.64462809916586,80.0585075514391 63.38842975255102,71.14613511424977 44.74380165338516,55.86768039024901 36.80991735588759,67.83581418811809 46.92561983503401,80.56778465188108 49.10743801668286,95.59139474888798 61.60330578498542,92.28111847664695 76.67768594995141,99.66557263035793 84.01652892492712,94.82748537673615 85.40495867747813,89.98938520741649 81.43801652919501,80.56778465188108 58.231404959224164,68.3450947245583 46.52892562095076,55.61303838691674 36.21487603336573,68.8543751174584 45.14049586746842,75.72964641323779 49.70247933920473,96.86457632097881 60.413223140873015,92.5357553276699 76.08264462742954,99.41093678132165 83.81818181741983,94.31821228330955 84.80991735588759,89.7347479989985 77.47107437998056,78.27603657043073 58.231404959224164,68.3450947245583 47.123966943472624,55.35839634749573 39.38842975255102,60.70587165642064 36.21487603336573,70.38221543747932 44.94214876089245,74.96572866861243 50.49586776923388,97.37384869880043 61.20661157090217,93.55430237471592 78.8595041334629,98.64702901931014 83.42148760333657,95.84603113518097 85.20661156997085,88.20692399446853 80.04958677664399,79.80386894685216 59.81818181835115,70.12757547327783 28.280991735868156,40.07980851561297 18.3636363632977,59.17802317813039 41.37190082669258,73.4378922128817 50.099173554219306,97.37384869880043 58.03305785078555,92.5357553276699 78.6611570250243,98.90166497475002 85.00826446246356,93.80893904657569 84.21487603336573,84.89663423283491 74.0991735542193,75.47500720061362 55.05785124003887,65.79869061266072 42.95867768675089,50.52019080496393 27.68595041334629,40.07980851561297 17.57024793419987,56.376964289462194 46.33057851251215,76.23892473091837 50.297520661726594,96.10066748561803 58.82644628174603,91.26257071469445 79.25619834754616,98.39239302661736 85.20661156997085,88.20692399446853 81.23966942168772,81.07706160971429 62.39669421501458,71.6554147201823 43.157024793326855,50.01090525952168 29.074380166828632,40.07980851561297 17.57024793419987,57.65017341240309 43.355371901765466,73.69253171130549 49.50413223169744,95.84603113518097 63.58677686005831,92.79039214306977 76.87603305839002,99.41093678132165 84.41322314087301,94.57284884795081 84.61157024744898,86.42446102830581 79.45454545505345,79.29459163092542 55.25619834661484,66.05333118513227 43.75206611584872,51.029476207331754 27.8842975217849,39.57052003685385 17.173553720116615,57.39553165936377 42.95867768675089,73.4378922128817 50.49586776923388,96.60994007857516 59.223140495829284,92.5357553276699 79.65289256162941,98.39239302661736 85.40495867747813,89.48011075414252 78.06611570250243,79.03995291946921 57.6363636367023,68.8543751174584 43.355371901765466,51.53876146650873 27.289256199263036,40.33445270219818 17.37190082669258,56.63160618545953 45.33884297590703,73.183252678602 48.512396694161,94.31821228330955 59.42148760333657,91.51720770925749 78.26446281000972,98.13775699795224 82.62809917423874,96.35530379973352 85.00826446246356,89.22547347377986 77.07438016589731,78.78531417180784 60.21487603336573,70.12757547327783 46.13223140593618,56.1223223580746 39.98347107414156,59.432664680993184 36.6115702483803,68.59973493847065 45.537190082482994,73.183252678602 49.70247933920473,95.08212187024765 60.01652892585844,91.77184466714971 79.65289256162941,98.39239302661736 85.6033057840541,88.71619880595244 79.25619834754616,79.29459163092542 59.61983471084386,69.10901525977533 27.68595041334629,41.098385045770556 17.57024793419987,56.376964289462194 44.545454545877874,72.67397350212559 49.90082644671202,95.59139474888798 60.80991735588759,92.02648159046657 77.86776859499514,99.41093678132165 84.41322314087301,95.59139474888798 84.01652892492712,86.67909870261792 78.26446281000972,79.03995291946921 60.01652892585844,69.36365536728408 43.75206611584872,50.77483352355193 28.280991735868156,40.84374096698593 19.95041322335601,50.2655480497051 19.355371901765466,58.15945681044832 44.347107438370585,72.16469418280758 50.297520661726594,96.10066748561803 59.02479338925332,93.04502892214805 72.11570247914642,98.64702901931014 81.23966942168772,98.39239302661736 85.6033057840541,92.28111847664695 84.21487603336573,86.16982331813779 73.30578512325883,75.47500720061362 58.82644628174603,70.12757547327783 45.537190082482994,57.140889870235696 38.79338842909783,62.233718845876865 35.81818181741983,70.12757547327783 43.355371901765466,72.92861310800072 50.099173554219306,96.86457632097881 60.6115702483803,93.04502892214805 77.07438016589731,99.41093678132165 84.61157024744898,95.33675832825247 84.61157024744898,87.18837394251022 76.87603305839002,78.53067538922187 57.83471074420959,68.8543751174584 28.479338843375444,41.098385045770556 17.966942149214447,58.41409845568705 44.74380165338516,74.45644999318756 50.49586776923388,97.37384869880043 58.62809917330742,92.28111847664695 78.6611570250243,99.1563008952653 85.00826446246356,94.82748537673615 84.61157024744898,87.18837394251022 76.47933884244412,78.53067538922187 59.61983471084386,70.63685536524281 43.95041322335601,52.048046581912786 28.280991735868156,42.37160490313545 18.3636363632977,54.84911216236651 44.94214876089245,76.49356383632403" stroke="#4dd2ff" stroke-linecap="round" stroke-linejoin="round" stroke-width="0.5"><title>2023-05-01 14.7km</title></polyline><polyline fill="none" points="114.0,58.01798447500914 143.1282051289454,74.08210467186291 149.69230769295245,96.46630484878551 160.76923076994717,93.04285625659395 178.41025641188025,99.3630641567288 185.5897435899824,92.25282876973506 182.51282051298767,83.29916065151338 158.10256410203874,71.44865178084001 145.38461538497359,56.17455203877762 142.30769230797887,56.437899640528485 133.89743589796126,70.92196075827815 144.35897435992956,77.24224325711839 150.51282051298767,97.51967238762882 159.74358974397182,93.30619867728092 174.7179487189278,100.1530886455439 180.4615384619683,99.3630641567288 185.5897435899824,91.19945827056654 182.1025641039014,82.2457851198269 142.71794871799648,55.91120440023951 133.48717948701233,70.13192394771613 142.71794871799648,75.66217463067733 150.51282051298767,97.51967238762882 159.3333333330229,92.77951379737351 177.38461538497359,100.41643006773666 185.3846153859049,92.77951379737351 180.0512820519507,80.92906487174332 162.82051282096654,72.23868803645018 145.5897435899824,54.85781347437296 139.23076923191547,58.80802639259491 133.69230769202113,69.86857827019412 146.4102564100176,79.8756880076835 149.07692307792604,96.99298869178165 161.17948717996478,93.30619867728092 178.0,99.88974718737882 182.71794871799648,97.51967238762882 184.97435897402465,90.40943000698462 176.15384615398943,78.03227707091719 161.3846153859049,71.18530628771987 144.97435897495598,55.12116126110777 136.35897435806692,63.021577662206255 134.10256410203874,71.44865178084001 144.76923076901585,76.71555386309046 149.28205128293484,96.20296287082601 159.74358974397182,92.77951379737351 178.41025641188025,99.62640569068026 184.97435897402465,95.93962085607927 185.5897435899824,91.46280095074326 180.66666666790843,81.98244114394765 155.64102564100176,67.23511945793871 144.56410256400704,55.38450901128817 137.38461538497359,62.231537520186976 134.92307692300528,71.97534265532158 144.35897435992956,75.66217463067733 150.51282051298767,96.72964678797871 162.0,93.56954106176272 176.56410256493837,100.41643006773666 183.33333333395422,97.2563305584481 185.5897435899824,89.88274431298487 180.66666666790843,80.92906487174332 157.28205128293484,68.55184932646807 149.69230769295245,57.49128967872821 142.9230769239366,54.59446565085091 133.89743589796126,70.39526958798524 144.56410256400704,76.97889857902192 149.48717948701233,97.2563305584481 162.0,93.56954106176272 179.23076923098415,100.1530886455439 185.5897435899824,94.35956799320411 185.3846153859049,88.82937248121016 175.33333333395422,76.71555386309046 156.25641025602818,68.28850342694204 143.1282051289454,55.38450901128817 134.71794871799648,69.34188680315856 147.43589743506163,80.13903227937408 148.6666666669771,96.20296287082601 159.1282051289454,93.83288340922445 176.76923076901585,100.6797714541899 183.53846153896302,98.30969765409827 186.0,91.46280095074326 179.6410256428644,79.8756880076835 157.69230769295245,69.07854101492558 143.3333333330229,55.91120440023951 135.12820512708277,70.13192394771613 144.76923076901585,78.03227707091719 148.6666666669771,97.2563305584481 159.94871794898063,92.77951379737351 179.23076923098415,99.62640569068026 186.0,91.46280095074326 178.20512820594013,78.29562160174828 161.5897435899824,70.65861519204918 143.3333333330229,54.85781347437296 136.35897435806692,70.65861519204918 145.17948717903346,75.66217463067733 149.48717948701233,98.04635593527928 160.97435897495598,94.35956799320411 174.30769230797887,100.1530886455439 182.92307692300528,96.72964678797871 185.3846153859049,91.46280095074326 177.17948717996478,77.7689325036481 158.9230769239366,69.07854101492558 146.20512820594013,55.38450901128817 142.71794871799648,55.647856724099256 135.74358974397182,70.39526958798524 145.5897435899824,78.03227707091719 147.64102564100176,96.20296287082601 158.10256410203874,92.77951379737351 179.6410256428644,99.88974718737882 186.0,94.09622571931686 186.0,89.35605847183615 176.15384615398943,75.66217463067733 161.17948717996478,70.13192394771613 146.0,54.85781347437296 142.9230769239366,55.647856724099256 135.12820512708277,71.18530628771987 145.38461538497359,79.34899935335852 148.25641025602818,96.72964678797871 160.56410256400704,92.77951379737351 172.4615384619683,98.83638097916264 181.48717948794365,98.30969765409827 185.17948717996478,94.8862524292199 183.94871794898063,83.82584819558542 159.3333333330229,68.8151951887412 127.33333333395422,39.320228545810096 117.89743589702994,52.487681726925075 117.28205128200352,56.96459473343566 145.38461538497359,77.7689325036481 149.48717948701233,96.20296287082601 159.53846153896302,92.25282876973506 171.8461538469419,98.04635593527928 181.48717948794365,98.04635593527928 185.3846153859049,93.30619867728092 182.1025641039014,82.2457851198269 142.9230769239366,55.12116126110777 136.35897435806692,66.18173489684705 144.97435897495598,77.24224325711839 149.69230769295245,96.72964678797871 160.15384615492076,91.72614359355066 172.2564102569595,98.57303933450021 181.07692307699472,98.57303933450021 185.17948717996478,92.77951379737351 183.33333333395422,83.29916065151338 163.23076923098415,71.97534265532158 149.89743589796126,57.49128967872821 143.1282051289454,56.17455203877762 136.76923076994717,63.021577662206255 135.53846153896302,71.71199723682366 145.38461538497359,79.8756880076835 150.10256410297006,97.51967238762882 160.56410256400704,92.25282876973506 177.5897435899824,99.88974718737882 184.56410256493837,94.8862524292199 182.51282051298767,82.2457851198269 157.89743589796126,68.28850342694204 147.02564102504402,54.59446565085091 142.51282051298767,56.437899640528485 136.35897435806692,69.07854101492558 144.15384615492076,74.87213981815148 148.25641025602818,86.722627041745 155.02564102597535,84.61587923346087 164.6666666669771,71.71199723682366" stroke="#4dd2ff" stroke-linecap="round" stroke-linejoin="round" stroke-width="0.5"><title>2023-04-20 10.0km</title></polyline><polyline fill="none" points="16.01321247505257,158.23984994379862 15.65924105088925,157.7852735942506 14.165924105094746,157.273872755919 14.0,156.9045260957646 14.276540175196715,156.47835519441287 15.371639268705621,155.895918721435 16.776463358430192,155.6828313678634 22.13028114923509,155.6828313678634 24.010754340153653,155.28506710510555 38.35765862651169,147.8409040794504 41.12306037789676,146.7327565613159 43.2468889230513,146.44861421356472 45.26010139810387,146.56227124857105 69.2969734214712,150.4407409170526 72.19511445693206,150.75328510186228 73.81010907975724,150.68225241754408 76.25472422799794,150.12819576518814 78.00245813489892,149.30420845602202 79.65063757874304,147.9829733947554 83.15716699953191,143.7208070004417 84.99339376250282,143.02463606693345 85.95575357199414,143.0814665271173 86.0,143.25195771574363 85.54647411277983,143.32299562608387 82.91381164541235,142.24321399656037 82.38285450916737,141.76015005620866 80.92272238439182,144.84319493079965 78.99800276540918,147.5851788082291 76.65294208022533,149.38944883422664 75.21493316948181,150.01454274292337 73.6441849746625,150.41232776142715 71.60884928557789,150.54018689897202 69.21954217238817,150.3270882464858 48.44584421569016,146.96006986392604 44.56322015670594,146.4059927924245 42.649562144768424,146.39178564807662 40.95713627291843,146.69013526008348 38.92180058383383,147.37207392098935 23.889076663122978,155.08618438634585 21.864802581025288,155.39871419714473 16.12382854509633,155.3845083176202 14.22123214014573,156.02377091781818" stroke="#4dd2ff" stroke-linecap="round" stroke-linejoin="round" stroke-width="0.5"><title>2023-03-17 12.5km</title></polyline><polyline fill="none" points="115.8157773335115,158.17636407222017 114.0,157.1383999477257 114.19929263414815,156.72605507785192 114.99646317085717,156.27105189051508 116.96724588650977,155.91557922562788 122.1045671228785,155.91557922562788 123.90927264338825,155.51744835717545 138.32477318163728,148.05220426578308 141.0595109949354,146.95725544290326 143.5838843610254,146.65863097831607 145.16715362138348,146.75817256456503 166.3032446563011,150.22784660317848 169.86836844537174,150.73975564284046 173.63278486853233,150.89617177683976 176.43395355989924,150.24206633375434 178.2940181454178,149.27512010026112 179.8994310318376,147.85312354374764 183.3538366907742,143.80032361525082 185.21390127635095,143.0608478546783 185.9667845609365,143.1888344310937 186.0,143.40214503173775 185.09211133321514,143.40214503173775 182.667384284141,142.23604158592934 182.44594802398933,142.07961205155152 182.4570198369911,141.82363592777256 180.68552975554485,145.43568349126872 178.6372443487635,148.05220426578308 176.62217438104562,149.50263769315643 173.98708288482158,150.42692264887592 171.86129478702787,150.6259983025011 169.480854990019,150.41270294430433 146.16361679224065,146.71551189673482 144.02675688144518,146.4879880310982 142.37705674301833,146.57330954074132 140.4173458403675,146.9714756334797 138.63478394586127,147.69670270139613 123.87605720432475,155.26150625672744 122.03813624480972,155.65963813300186 115.74934645544272,155.64541916444432 114.16607719508465,156.24261412330088" stroke="#4dd2ff" stroke-linecap="round" stroke-linejoin="round" stroke-width="0.5"><title>2023-03-11 12.5km</title></polyline><polyline fill="none" points="25.70731707289815,215.71357623348013 26.87804877758026,236.76732493424788 56.14634146168828,223.98470168793574 50.29268292337656,209.69820422539487 26.87804877758026,208.94628224801272 23.365853656083345,234.5115701118484 56.14634146168828,223.98470168793574 50.29268292337656,211.20204786444083 23.365853656083345,211.20204786444083 18.097560971975327,223.23278171988204 26.29268292337656,233.75965162506327 46.195121951401234,230.75197662692517 52.04878048598766,215.71357623348013 19.85365853458643,211.95396952377632 24.536585364490747,236.0154067655094 49.12195121869445,231.50389553466812 54.97560975328088,217.96933899028227 22.195121951401234,210.45012609800324 16.926829267293215,220.22510079434142 26.87804877758026,235.26348849246278 49.12195121869445,230.75197662692517 54.97560975328088,216.46549725998193 42.68292682617903,207.44243797753006 21.609756093472242,210.45012609800324 29.804878044873476,236.0154067655094 56.14634146168828,220.22510079434142 47.365853656083345,208.19436016585678 23.951219510287046,208.94628224801272 26.87804877758026,235.26348849246278 40.926829267293215,235.26348849246278 55.56097560748458,220.22510079434142 26.29268292337656,207.44243797753006 16.341463413089514,211.95396952377632 21.609756093472242,227.74429993377998 54.39024389907718,223.23278171988204 52.04878048598766,212.70589107600972 28.048780485987663,206.69051568442956 16.926829267293215,230.75197662692517 50.87804878130555,230.00005761208013 56.73170731216669,220.22510079434142 29.219512190669775,207.44243797753006 15.170731704682112,221.72894147085026 28.634146340191364,233.75965162506327 49.70731706917286,228.49621926574036 52.04878048598766,211.95396952377632 20.43902438879013,210.45012609800324 14.58536585047841,220.97702118521556 25.121951214969158,233.00773303536698 50.87804878130555,227.74429993377998 54.97560975328088,217.21741817798465 28.048780485987663,207.44243797753006 16.341463413089514,218.72125969687477 20.43902438879013,236.0154067655094 54.39024389907718,227.74429993377998 50.29268292337656,209.69820422539487 32.14634146168828,207.44243797753006 17.512195121496916,217.21741817798465 19.26829268038273,230.00005761208013 40.341463413089514,232.25581433810294 54.39024389907718,222.48086164798588 51.46341463178396,210.45012609800324 26.87804877758026,207.44243797753006 14.58536585047841,221.72894147085026 19.26829268038273,232.25581433810294 40.341463413089514,233.75965162506327 57.31707317009568,217.96933899028227 28.634146340191364,208.94628224801272 16.926829267293215,220.22510079434142 24.536585364490747,234.5115701118484 53.219512190669775,225.4885413022712 53.804878044873476,214.2097338666208 28.634146340191364,208.19436016585678 15.756097558885813,224.73662154795602 23.951219510287046,233.75965162506327 47.365853656083345,230.75197662692517 56.14634146168828,217.96933899028227 25.70731707289815,209.69820422539487 16.341463413089514,215.71357623348013 22.780487801879644,233.75965162506327 56.14634146168828,220.97702118521556 48.53658536449075,209.69820422539487 25.70731707289815,209.69820422539487 16.926829267293215,217.21741817798465 22.195121951401234,233.00773303536698 43.85365853458643,232.25581433810294 56.14634146168828,216.46549725998193 23.365853656083345,209.69820422539487 16.341463413089514,217.21741817798465 25.70731707289815,233.00773303536698 53.219512190669775,229.2481384924613 57.90243902057409,218.72125969687477 28.048780485987663,207.44243797753006 18.097560971975327,213.45781252346933 19.85365853458643,232.25581433810294 54.97560975328088,223.23278171988204 45.60975609719753,208.19436016585678 21.609756093472242,209.69820422539487 23.951219510287046,233.75965162506327 49.12195121869445,228.49621926574036 56.14634146168828,215.71357623348013 19.85365853458643,211.95396952377632 26.29268292337656,234.5115701118484 55.56097560748458,220.22510079434142 45.60975609719753,208.19436016585678 19.85365853458643,211.95396952377632 17.512195121496916,225.4885413022712 31.56097560748458,235.26348849246278 57.31707317009568,218.72125969687477 44.43902438879013,207.44243797753006 18.682926826179028,211.20204786444083 21.02439024299383,233.75965162506327 40.926829267293215,235.26348849246278 56.14634146168828,219.4731802996248 25.121951214969158,208.19436016585678 16.341463413089514,223.23278171988204 22.780487801879644,233.75965162506327 53.219512190669775,228.49621926574036 56.73170731216669,219.4731802996248 26.87804877758026,209.69820422539487 18.682926826179028,214.96165510220453 23.951219510287046,233.75965162506327 46.780487801879644,234.5115701118484 56.73170731216669,223.98470168793574 54.39024389907718,213.45781252346933 32.73170731589198,207.44243797753006 21.02439024299383,211.95396952377632 20.43902438879013,230.75197662692517 54.39024389907718,223.98470168793574 45.02439023926854,208.19436016585678 20.43902438879013,211.20204786444083 20.43902438879013,231.50389553466812 54.97560975328088,226.24046095414087 50.29268292337656,209.69820422539487 26.87804877758026,207.44243797753006 18.097560971975327,214.2097338666208 22.780487801879644,233.00773303536698 53.219512190669775,231.50389553466812 47.365853656083345,208.19436016585678 20.43902438879013,210.45012609800324 16.341463413089514,223.98470168793574 43.85365853458643,233.00773303536698 54.97560975328088,223.98470168793574 46.195121951401234,207.44243797753006 16.341463413089514,218.72125969687477 25.70731707289815,235.26348849246278 47.365853656083345,233.00773303536698 56.14634146168828,217.96933899028227 39.17073170468211,208.19436016585678 21.609756093472242,210.45012609800324 16.341463413089514,227.74429993377998 51.46341463178396,227.74429993377998 54.39024389907718,213.45781252346933 43.26829268038273,206.69051568442956 18.682926826179028,211.20204786444083 16.926829267293215,226.24046095414087 30.390243899077177,233.00773303536698 53.804878044873476,223.98470168793574 54.97560975328088,214.2097338666208 39.75609755888581,207.44243797753006 20.43902438879013,211.95396952377632 19.85365853458643,230.00005761208013 52.634146340191364,227.74429993377998 52.634146340191364,212.70589107600972 26.29268292337656,207.44243797753006 16.341463413089514,225.4885413022712 46.780487801879644,231.50389553466812 54.39024389907718,224.73662154795602 49.70731706917286,208.19436016585678 26.29268292337656,206.69051568442956 14.58536585047841,222.48086164798588 25.121951214969158,234.5115701118484 53.219512190669775,229.2481384924613 53.219512190669775,211.20204786444083 42.68292682617903,206.69051568442956 19.26829268038273,210.45012609800324 18.097560971975327,226.99238049704581 47.951219510287046,231.50389553466812 55.56097560748458,217.96933899028227 46.780487801879644,208.19436016585678 22.780487801879644,207.44243797753006 16.926829267293215,223.98470168793574 46.780487801879644,232.25581433810294 56.14634146168828,217.96933899028227 41.512195117771626,207.44243797753006 24.536585364490747,208.19436016585678 16.926829267293215,223.98470168793574 23.365853656083345,232.25581433810294 51.46341463178396,230.75197662692517 57.90243902057409,221.72894147085026 47.951219510287046,206.69051568442956 15.756097558885813,217.96933899028227 24.536585364490747,233.75965162506327 48.53658536449075,231.50389553466812 55.56097560748458,214.96165510220453 46.780487801879644,206.69051568442956 21.02439024299383,210.45012609800324 15.756097558885813,219.4731802996248 19.85365853458643,230.00005761208013 45.60975609719753,232.25581433810294 54.97560975328088,222.48086164798588 46.780487801879644,208.94628224801272 22.195121951401234,209.69820422539487 15.170731704682112,223.23278171988204 21.609756093472242,233.00773303536698 46.780487801879644,232.25581433810294 54.39024389907718,225.4885413022712 45.02439023926854,207.44243797753006 23.365853656083345,208.94628224801272 14.0,223.23278171988204 43.26829268038273,233.00773303536698 53.804878044873476,226.99238049704581 50.87804878130555,209.69820422539487 28.634146340191364,206.69051568442956 14.0,216.46549725998193 21.02439024299383,230.00005761208013 44.43902438879013,230.75197662692517 55.56097560748458,214.96165510220453 48.53658536449075,207.44243797753006 15.170731704682112,212.70589107600972 19.85365853458643,230.00005761208013 43.85365853458643,231.50389553466812 55.56097560748458,222.48086164798588 50.29268292337656,208.19436016585678 17.512195121496916,215.71357623348013 23.365853656083345,230.75197662692517 42.68292682617903,231.50389553466812 53.804878044873476,227.74429993377998 50.87804878130555,209.69820422539487 23.951219510287046,207.44243797753006 14.0,217.96933899028227 23.365853656083345,232.25581433810294 46.195121951401234,232.25581433810294 55.56097560748458,220.22510079434142 42.68292682617903,208.94628224801272 26.87804877758026,208.19436016585678 15.170731704682112,220.22510079434142 20.43902438879013,230.00005761208013 43.26829268038273,230.00005761208013 54.39024389907718,225.4885413022712 50.29268292337656,208.94628224801272 22.195121951401234,208.94628224801272 15.756097558885813,217.21741817798465 23.365853656083345,231.50389553466812 47.951219510287046,230.00005761208013 55.56097560748458,221.72894147085026 48.53658536449075,207.44243797753006 23.365853656083345,206.69051568442956 15.756097558885813,217.21741817798465 25.121951214969158,231.50389553466812 47.951219510287046,230.00005761208013 56.73170731216669,220.22510079434142 46.780487801879644,208.19436016585678 15.756097558885813,216.46549725998193 25.121951214969158,230.75197662692517 49.70731706917286,228.49621926574036 56.14634146168828,220.22510079434142 46.195121951401234,205.93859328282997 19.85365853458643,208.94628224801272 16.341463413089514,226.99238049704581 53.219512190669775,227.74429993377998 52.634146340191364,211.20204786444083 42.09756097197533,206.69051568442956 20.43902438879013,209.69820422539487 15.170731704682112,220.97702118521556 28.048780485987663,233.75965162506327 54.39024389907718,228.49621926574036 50.87804878130555,211.20204786444083 28.048780485987663,208.19436016585678 18.097560971975327,211.20204786444083 16.926829267293215,228.49621926574036 52.634146340191364,227.74429993377998 54.97560975328088,217.21741817798465 36.8292682915926,208.19436016585678 21.609756093472242,209.69820422539487 14.58536585047841,224.73662154795602 47.951219510287046,230.75197662692517 54.97560975328088,215.71357623348013 39.17073170468211,206.69051568442956 22.195121951401234,208.94628224801272 15.170731704682112,226.24046095414087 32.14634146168828,233.75965162506327 53.804878044873476,226.99238049704581 49.70731706917286,209.69820422539487 38.58536585047841,207.44243797753006 17.512195121496916,213.45781252346933 16.926829267293215,227.74429993377998 50.29268292337656,231.50389553466812 54.39024389907718,213.45781252346933 46.195121951401234,206.69051568442956 18.097560971975327,211.95396952377632 16.341463413089514,224.73662154795602 50.87804878130555,227.74429993377998 53.219512190669775,211.20204786444083 44.43902438879013,205.18667077552527 21.609756093472242,208.19436016585678 15.756097558885813,223.98470168793574 46.780487801879644,232.25581433810294 55.56097560748458,216.46549725998193 49.12195121869445,208.19436016585678 19.85365853458643,209.69820422539487 14.0,222.48086164798588 28.048780485987663,233.00773303536698 50.29268292337656,230.75197662692517 56.73170731216669,217.21741817798465 42.09756097197533,205.93859328282997 18.682926826179028,211.20204786444083 16.341463413089514,223.98470168793574 49.70731706917286,231.50389553466812 56.14634146168828,216.46549725998193 48.53658536449075,208.19436016585678 25.70731707289815,208.19436016585678 15.170731704682112,222.48086164798588 47.365853656083345,232.25581433810294 55.56097560748458,224.73662154795602 46.195121951401234,208.94628224801272 15.170731704682112,220.97702118521556 27.463414631783962,233.75965162506327 49.70731706917286,231.50389553466812 56.14634146168828,222.48086164798588 47.365853656083345,208.19436016585678 23.365853656083345,208.94628224801272 15.756097558885813,223.23278171988204 25.121951214969158,233.00773303536698 47.365853656083345,231.50389553466812 55.56097560748458,217.21741817798465 46.780487801879644,208.94628224801272 20.43902438879013,209.69820422539487 14.0,222.48086164798588 47.365853656083345,230.75197662692517 54.97560975328088,225.4885413022712 47.365853656083345,208.19436016585678 15.170731704682112,214.96165510220453 20.43902438879013,230.75197662692517 46.780487801879644,231.50389553466812 54.39024389907718,224.73662154795602 46.780487801879644,208.19436016585678 21.609756093472242,208.19436016585678 16.341463413089514,225.4885413022712 52.04878048598766,227.74429993377998 57.31707317009568,219.4731802996248 43.26829268038273,206.69051568442956 15.170731704682112,218.72125969687477 18.682926826179028,228.49621926574036 40.341463413089514,230.75197662692517 53.219512190669775,224.73662154795602 49.12195121869445,208.94628224801272 16.341463413089514,212.70589107600972 21.609756093472242,230.00005761208013 44.43902438879013,231.50389553466812 56.73170731216669,217.96933899028227 43.26829268038273,205.93859328282997 18.682926826179028,210.45012609800324 15.756097558885813,223.23278171988204 30.390243899077177,234.5115701118484 53.804878044873476,227.74429993377998 43.26829268038273,207.44243797753006 26.87804877758026,207.44243797753006 15.756097558885813,222.48086164798588 47.365853656083345,231.50389553466812 54.97560975328088,217.96933899028227 48.53658536449075,208.94628224801272 16.341463413089514,215.71357623348013 25.70731707289815,232.25581433810294 49.70731706917286,231.50389553466812 53.804878044873476,212.70589107600972 44.43902438879013,206.69051568442956 20.43902438879013,208.94628224801272 16.926829267293215,226.99238049704581 48.53658536449075,231.50389553466812 54.97560975328088,221.72894147085026 46.780487801879644,208.19436016585678 22.780487801879644,208.19436016585678 14.58536585047841,221.72894147085026 25.70731707289815,233.00773303536698 51.46341463178396,229.2481384924613 45.60975609719753,207.44243797753006 34.487804874777794,207.44243797753006 40.926829267293215,220.22510079434142 63.75609755888581,234.5115701118484 69.02439024299383,252.5575820216909 86.0,254.81332922447473" stroke="#4dd2ff" stroke-linecap="round" stroke-linejoin="round" stroke-width="0.5"><title>2021-06-01 11.4km</title></polyline><polyline fill="none" points="178.79999999701977,236.93651204369962 154.5,209.19063208252192 117.59999999776483,225.37574011087418 117.59999999776483,245.02904271148145 167.09999999776483,238.09258834086359 157.19999999925494,205.7223904998973 134.69999999552965,209.19063208252192 114.0,239.24866447597742 134.69999999552965,258.9019338870421 172.5,242.71689190529287 172.5,212.6588722029701 154.5,205.7223904998973 121.19999999925494,239.24866447597742 168.0,238.09258834086359 177.89999999850988,224.21966202463955 159.89999999850988,201.0980661129579 122.09999999776483,228.84397340007126 133.79999999701977,250.8094168845564 168.0,243.87296739127487 178.79999999701977,227.6878957990557 160.80000000074506,204.56630964484066 127.5,217.28319008182734 122.09999999776483,243.87296739127487 170.69999999925494,235.78043557982892 177.89999999850988,220.7514267861843 156.29999999701977,201.0980661129579 121.19999999925494,219.59534804616123 122.09999999776483,236.93651204369962 173.40000000223517,243.87296739127487 182.39999999850988,214.97103146929294 169.79999999701977,206.8784711919725 128.40000000223517,223.06358377542347 141.0,254.27763943374157 177.89999999850988,239.24866447597742 181.5,217.28319008182734 134.69999999552965,206.8784711919725 117.59999999776483,223.06358377542347 164.39999999850988,235.78043557982892 179.69999999552965,230.0000508390367 171.60000000149012,203.41022863052785 130.19999999925494,204.56630964484066 120.30000000074506,228.84397340007126 170.69999999925494,236.93651204369962 181.5,223.06358377542347 168.0,203.41022863052785 120.30000000074506,219.59534804616123 132.89999999850988,246.18511787243187 172.5,238.09258834086359 180.60000000149012,210.3467122828588 168.0,202.2541474495083 126.60000000149012,209.19063208252192 120.30000000074506,225.37574011087418 139.19999999925494,241.56081625912338 177.89999999850988,231.1561281112954 177.89999999850988,208.03455171734095 160.80000000074506,202.2541474495083 128.40000000223517,209.19063208252192 125.69999999552965,239.24866447597742 175.19999999925494,239.24866447597742 184.19999999925494,221.90750536415726 164.39999999850988,202.2541474495083 123.89999999850988,211.5027923239395 127.5,241.56081625912338 178.79999999701977,230.0000508390367 182.39999999850988,214.97103146929294 158.09999999776483,203.41022863052785 132.89999999850988,205.7223904998973 121.19999999925494,231.1561281112954 140.10000000149012,245.02904271148145 178.79999999701977,230.0000508390367 160.80000000074506,202.2541474495083 126.60000000149012,210.3467122828588 121.19999999925494,228.84397340007126 140.10000000149012,245.02904271148145 168.90000000223517,239.24866447597742 182.39999999850988,228.84397340007126 173.40000000223517,205.7223904998973 122.09999999776483,219.59534804616123 129.30000000074506,243.87296739127487 171.60000000149012,235.78043557982892 182.39999999850988,225.37574011087418 168.90000000223517,202.2541474495083 132.0,205.7223904998973 122.09999999776483,221.90750536415726 139.19999999925494,246.18511787243187 174.29999999701977,238.09258834086359 183.30000000074506,226.53181803785264 167.09999999776483,205.7223904998973 126.60000000149012,209.19063208252192 121.19999999925494,221.90750536415726 128.40000000223517,242.71689190529287 167.09999999776483,243.87296739127487 180.60000000149012,236.93651204369962 175.19999999925494,209.19063208252192 138.29999999701977,205.7223904998973 123.0,219.59534804616123 129.30000000074506,242.71689190529287 168.0,243.87296739127487 184.19999999925494,220.7514267861843 174.29999999701977,209.19063208252192 135.60000000149012,206.8784711919725 122.09999999776483,223.06358377542347 127.5,242.71689190529287 173.40000000223517,238.09258834086359 179.69999999552965,211.5027923239395 165.30000000074506,205.7223904998973 123.0,213.81495191901922 122.09999999776483,230.0000508390367 132.0,247.3411928685382 167.09999999776483,243.87296739127487 181.5,234.62435895670205 172.5,209.19063208252192 122.09999999776483,219.59534804616123 133.79999999701977,247.3411928685382 168.90000000223517,242.71689190529287 182.39999999850988,232.31220522150397 168.90000000223517,204.56630964484066 127.5,210.3467122828588 123.0,226.53181803785264 141.0,248.49726770073175 177.89999999850988,239.24866447597742 170.69999999925494,203.41022863052785 127.5,210.3467122828588 123.89999999850988,230.0000508390367 130.19999999925494,245.02904271148145 167.09999999776483,246.18511787243187 183.30000000074506,219.59534804616123 172.5,206.8784711919725 124.80000000074506,213.81495191901922 134.69999999552965,249.65334237366915 168.90000000223517,248.49726770073175 181.5,239.24866447597742 176.10000000149012,212.6588722029701 123.0,218.439269146882 135.60000000149012,251.96549122873694 166.19999999925494,248.49726770073175 180.60000000149012,239.24866447597742 177.89999999850988,213.81495191901922 136.5,206.8784711919725 122.09999999776483,224.21966202463955 128.40000000223517,245.02904271148145 173.40000000223517,242.71689190529287 184.19999999925494,218.439269146882 169.79999999701977,205.7223904998973 128.40000000223517,209.19063208252192 124.80000000074506,223.06358377542347 137.40000000223517,251.96549122873694 168.90000000223517,248.49726770073175 179.69999999552965,216.1271108565852 124.80000000074506,217.28319008182734 128.40000000223517,241.56081625912338 149.09999999776483,249.65334237366915 180.60000000149012,238.09258834086359 176.10000000149012,210.3467122828588 119.40000000223517,218.439269146882 134.69999999552965,250.8094168845564 154.5,249.65334237366915 175.19999999925494,243.87296739127487 181.5,214.97103146929294 126.60000000149012,216.1271108565852 128.40000000223517,245.02904271148145 160.80000000074506,250.8094168845564 183.30000000074506,235.78043557982892 171.60000000149012,211.5027923239395 130.19999999925494,210.3467122828588 119.40000000223517,224.21966202463955 141.0,245.02904271148145 169.79999999701977,242.71689190529287 181.5,214.97103146929294 169.79999999701977,204.56630964484066 122.09999999776483,218.439269146882 129.30000000074506,240.4047404481098 155.40000000223517,249.65334237366915 183.30000000074506,231.1561281112954 178.79999999701977,213.81495191901922 125.69999999552965,214.97103146929294 129.30000000074506,246.18511787243187 163.5,250.8094168845564 182.39999999850988,225.37574011087418 172.5,212.6588722029701 143.69999999552965,209.19063208252192 121.19999999925494,226.53181803785264 139.19999999925494,249.65334237366915 168.0,248.49726770073175 184.19999999925494,224.21966202463955 173.40000000223517,209.19063208252192 127.5,213.81495191901922 130.19999999925494,242.71689190529287 153.60000000149012,248.49726770073175 179.69999999552965,238.09258834086359 175.19999999925494,212.6588722029701 123.89999999850988,216.1271108565852 132.89999999850988,248.49726770073175 172.5,248.49726770073175 184.19999999925494,226.53181803785264 159.0,206.8784711919725 134.69999999552965,208.03455171734095 123.89999999850988,233.46828217245638 132.0,248.49726770073175 171.60000000149012,247.3411928685382 174.29999999701977,211.5027923239395 137.40000000223517,206.8784711919725 121.19999999925494,232.31220522150397 142.79999999701977,248.49726770073175 173.40000000223517,245.02904271148145 171.60000000149012,209.19063208252192 134.69999999552965,208.03455171734095 123.0,221.90750536415726 131.09999999776483,247.3411928685382 166.19999999925494,248.49726770073175 181.5,223.06358377542347 171.60000000149012,211.5027923239395 134.69999999552965,206.8784711919725 119.40000000223517,228.84397340007126 136.5,247.3411928685382 175.19999999925494,242.71689190529287 178.79999999701977,212.6588722029701 163.5,206.8784711919725 139.19999999925494,205.7223904998973 122.09999999776483,233.46828217245638 168.0,245.02904271148145 183.30000000074506,220.7514267861843 165.30000000074506,204.56630964484066 126.60000000149012,212.6588722029701 125.69999999552965,239.24866447597742 175.19999999925494,243.87296739127487 183.30000000074506,230.0000508390367 165.30000000074506,206.8784711919725 120.30000000074506,225.37574011087418 132.89999999850988,245.02904271148145 172.5,243.87296739127487 182.39999999850988,217.28319008182734 168.90000000223517,210.3467122828588 122.09999999776483,223.06358377542347 133.79999999701977,246.18511787243187 170.69999999925494,242.71689190529287 182.39999999850988,231.1561281112954 174.29999999701977,208.03455171734095 124.80000000074506,212.6588722029701 118.5,230.0000508390367 133.79999999701977,247.3411928685382 169.79999999701977,241.56081625912338 180.60000000149012,214.97103146929294 167.09999999776483,206.8784711919725 128.40000000223517,208.03455171734095 120.30000000074506,223.06358377542347 135.60000000149012,246.18511787243187 173.40000000223517,241.56081625912338 181.5,216.1271108565852 168.90000000223517,210.3467122828588 134.69999999552965,208.03455171734095 120.30000000074506,226.53181803785264 135.60000000149012,247.3411928685382 171.60000000149012,243.87296739127487 183.30000000074506,232.31220522150397 168.90000000223517,205.7223904998973 129.30000000074506,208.03455171734095 123.0,221.90750536415726 139.19999999925494,246.18511787243187 178.79999999701977,241.56081625912338 186.0,227.6878957990557 169.79999999701977,209.19063208252192 128.40000000223517,211.5027923239395 122.09999999776483,227.6878957990557 141.0,248.49726770073175 176.10000000149012,241.56081625912338 185.09999999776483,226.53181803785264 165.30000000074506,205.7223904998973 127.5,211.5027923239395 121.19999999925494,232.31220522150397 137.40000000223517,248.49726770073175 175.19999999925494,241.56081625912338 173.40000000223517,209.19063208252192 138.29999999701977,206.8784711919725 121.19999999925494,230.0000508390367 132.89999999850988,246.18511787243187 178.79999999701977,238.09258834086359 177.89999999850988,212.6588722029701 160.80000000074506,205.7223904998973 135.60000000149012,206.8784711919725 123.0,233.46828217245638 150.0,247.3411928685382 177.89999999850988,240.4047404481098 170.69999999925494,206.8784711919725 123.89999999850988,217.28319008182734 142.79999999701977,248.49726770073175 174.29999999701977,243.87296739127487 186.0,232.31220522150397 173.40000000223517,208.03455171734095 133.79999999701977,208.03455171734095 123.89999999850988,231.1561281112954 137.40000000223517,246.18511787243187 176.10000000149012,243.87296739127487 185.09999999776483,230.0000508390367 165.30000000074506,208.03455171734095 127.5,212.6588722029701 122.09999999776483,227.6878957990557 141.0,248.49726770073175 178.79999999701977,241.56081625912338 185.09999999776483,227.6878957990557 165.30000000074506,206.8784711919725 126.60000000149012,212.6588722029701 128.40000000223517,241.56081625912338 182.39999999850988,238.09258834086359 177.0,211.5027923239395 159.89999999850988,205.7223904998973 129.30000000074506,209.19063208252192 121.19999999925494,232.31220522150397 134.69999999552965,246.18511787243187 179.69999999552965,239.24866447597742 184.19999999925494,224.21966202463955 160.80000000074506,206.8784711919725 124.80000000074506,214.97103146929294 126.60000000149012,241.56081625912338 177.89999999850988,241.56081625912338 176.10000000149012,211.5027923239395 157.19999999925494,208.03455171734095 132.0,209.19063208252192 119.40000000223517,231.1561281112954 168.90000000223517,246.18511787243187 181.5,221.90750536415726 171.60000000149012,211.5027923239395 130.19999999925494,210.3467122828588 120.30000000074506,234.62435895670205 170.69999999925494,246.18511787243187 184.19999999925494,223.06358377542347 157.19999999925494,206.8784711919725 135.60000000149012,208.03455171734095 122.09999999776483,234.62435895670205 147.30000000074506,249.65334237366915 178.79999999701977,242.71689190529287 176.10000000149012,211.5027923239395 159.89999999850988,206.8784711919725 125.69999999552965,217.28319008182734 122.09999999776483,235.78043557982892 142.79999999701977,247.3411928685382 182.39999999850988,234.62435895670205 168.90000000223517,208.03455171734095 149.09999999776483,206.8784711919725 128.40000000223517,211.5027923239395 123.0,239.24866447597742 176.10000000149012,242.71689190529287 177.0,212.6588722029701 159.89999999850988,205.7223904998973 123.89999999850988,213.81495191901922 127.5,243.87296739127487 180.60000000149012,238.09258834086359 176.10000000149012,211.5027923239395 159.89999999850988,206.8784711919725 132.89999999850988,210.3467122828588 121.19999999925494,238.09258834086359 176.10000000149012,243.87296739127487 180.60000000149012,217.28319008182734 147.30000000074506,206.8784711919725 128.40000000223517,211.5027923239395 125.69999999552965,239.24866447597742 181.5,236.93651204369962" stroke="#4dd2ff" stroke-linecap="round" stroke-linejoin="round" stroke-width="0.5"><title>2020-11-29 10.4km</title></polyline></svg>