<?xml version="1.0" encoding="utf-8" ?>
<svg baseProfile="full" height="300mm" version="1.1" viewBox="0,0,200,300" width="200mm" xmlns="http://www.w3.org/2000/svg" xmlns:ev="http://www.w3.org/2001/xml-events" xmlns:xlink="http://www.w3.org/1999/xlink"><defs /><rect fill="#222222" height="300" width="200" x="0" y="0" /><text fill="#FFFFFF" style="font-size:12px; font-family:Arial; font-weight:bold;" x="10" y="20">Over 10km Runs</text><text fill="#FFFFFF" style="font-size:4px; font-family:Arial" x="10" y="280">ATHLETE</text><text fill="#FFFFFF" style="font-size:9px; font-family:Arial" x="10" y="290">Abuqi</text><text fill="#FFFFFF" style="font-size:4px; font-family:Arial" x="120" y="280">STATISTICS</text><text fill="#FFFFFF" style="font-size:3px; font-family:Arial" x="120" y="285">Number: 14</text><text fill="#FFFFFF" style="font-size:3px; font-family:Arial" x="120" y="290">Weekly: 1.1</text><text fill="#FFFFFF" style="font-size:3px; font-family:Arial" x="141" y="285">Total: 194.0 km</text><text fill="#FFFFFF" style="font-size:3px; font-family:Arial" x="141" y="290">Avg: 13.9 km</text><text fill="#FFFFFF" style="font-size:3px; font-family:Arial" x="167" y="285">Min: 10.0 km</text><text fill="#FFFFFF" style="font-size:3px; font-family:Arial" x="167" y="290">Max: 21.6 km</text><polyline fill="none" points="20.294676416553557,32.39999999999418 16.598075144691393,38.89156560465926 13.494325020117685,46.32312662497861 16.388833563309163,47.66616133003845 18.96947973407805,45.78591115793097 20.53879159502685,42.29398854635656 23.398426541127264,41.0404685313988 26.57192385941744,42.11491456037038 27.862246945034713,45.24869478525943 27.09502781298943,47.08418031941983 24.863117611035705,49.14349296799628 24.270266463747248,53.038243547518505 21.201389936264604,55.366117717378074 18.65561736188829,59.35032443376258 18.725364556070417,61.23049457324669 20.155182028887793,62.707763329468435 24.653876029653475,64.05072898362414 26.850912634748966,69.33300564915407 28.385350898606703,70.00447522423929 31.140365053899586,69.7806521897437 32.74455051170662,70.63117888465058 34.52310395380482,73.76467870068154 36.022668620571494,74.92854221421294 41.53269693162292,74.21231901660212 45.26417180034332,71.61599643231602 45.40366618800908,66.02040170598775 46.44987409515306,61.40955781750381 53.94769742945209,47.08418031941983 53.668708654120564,45.159158635127824 52.099396793637425,42.96551509728306 53.91282383259386,43.905649891123176 54.714916561497375,45.74114316146006 54.505674980115145,47.93476759188343 46.90323085477576,62.439169519464485 45.99651733529754,71.83981817794847 44.04359590867534,73.80944276059745 41.84655930357985,74.88377831139951 39.3007867296692,75.60000000000582 36.05754221742973,75.24188935698476 34.52310395380482,74.34661098875222 33.09328648052178,71.52646769018611 31.663469007704407,70.27306265814696 28.280730107799172,70.31782720854972 26.57192385941744,69.64635829356848 24.40976085141301,64.67744435209897 23.014816975221038,63.3792468640313 19.527457284741104,62.75252894242294 18.481249377597123,61.49908940191381 18.585870168171823,58.992195530445315 21.06189554836601,54.918450928409584 23.921530494932085,53.17254444267019 24.58412883593701,49.053957912139595 27.129901409847662,46.6812697663845 27.478637379128486,44.17425932284095 26.397555875126272,42.607367779593915 23.67741531645879,41.44338621679344 21.16651633940637,42.47306243158528 19.7018252692651,46.18882284301799 16.24933917587623,48.919655281177256 15.656488028354943,52.63534052268369 16.1447183850687,48.42721181712113 19.49258368788287,45.74114316146006 20.713159579550847,42.38352550150012 22.142977052601054,41.398617610306246 24.479508045129478,41.26431175280595 27.09502781298943,42.9207467045926 27.862246945034713,44.890550033713225 27.687878960277885,46.14405490324134 24.793370417319238,49.3225630040688 23.851783300749958,53.575446788425324 21.096769145457074,55.58995087596122 18.725364556070417,59.21602614221047 18.690490958979353,61.45432361282292 19.945940447505563,62.707763329468435 22.979943378362805,63.11065361998044 24.828244014410302,64.36408682190813 26.25806148722768,68.52724029155797 27.478637379128486,69.8701814225642 31.69834260456264,70.13876896954025 35.42981747328304,74.65995870367624 38.847429969813675,74.97330611053621 42.613778435625136,73.94373490253929 45.543160575442016,71.3026457245578 45.36879259115085,66.33375760752824 46.17088531982154,61.63338673135149 53.459467072971165,48.24814127778518 53.91282383259386,46.6812697663845 53.52921426668763,44.80101378291147 54.191812607925385,44.93531814959715 54.57542217383161,47.57662585913204 47.007851645350456,61.857215487922076 46.20575891667977,66.96046848635888 46.31037970725447,71.07882360188523 45.36879259115085,72.69033937732456 42.05580088496208,74.83901440253248 37.801222062669694,75.60000000000582 34.767219132045284,74.74948656567722 31.872710588853806,70.45212082169019 26.8857862316072,69.91494602937018 24.305140060838312,64.45361757630599 20.294676416553557,63.11065361998044 18.516122974455357,61.63338673135149 18.585870168171823,58.85789708796074 21.236263533122838,54.87368421498104 23.57279452565126,53.620213684189366 24.40976085141301,51.784765797143336 24.479508045129478,49.053957912139595 27.060154216131195,46.815573340660194 27.51351097598672,44.98008625928196 26.502176665700972,42.607367779593915 23.99127768864855,41.398617610306246 21.968609068077058,41.93584047380136 19.108974121976644,45.830679147999035 15.691361625213176,47.93476759188343 13.285083438735455,46.41266244809958 14.226670555304736,44.53240487957373" stroke="#4dd2ff" stroke-linecap="round" stroke-linejoin="round" stroke-width="0.5"><title>2023-07-20 10.9km</title></polyline><polyline fill="none" points="81.70025751064532,34.19809522017022 78.39999999990687,42.57621019848739 80.1799141629599,44.004277313448256 81.7744206006173,43.9566751732782 84.14763948484324,42.481005510053365 85.33424892672338,39.19642738069524 87.89287553634495,37.29230953779188 91.9718454934191,38.529987352958415 93.3438626609277,41.29094464876107 92.97304721013643,43.00463096486055 90.15484978538007,45.86075556508149 89.52446351922117,50.04969476372935 86.22420600848272,52.810558194993064 83.55433476367034,56.76140983897494 83.77682403405197,59.046218682517065 85.44549356191419,60.42661655988195 89.59862660919316,61.759409174876055 90.97064377670176,63.56819076757529 91.60103004262783,66.42414204639499 93.01012875535525,67.94730621989584 96.60703862644732,67.56651581835467 98.53527896967717,68.6612870694662 100.64892703853548,72.32636508296127 101.94678111560643,73.18313085046248 108.4360515018925,72.23116875288542 111.62506437767297,69.94644880783744 113.0341630897019,58.903418581117876 121.0066952786874,43.52825561063946 120.33922746754251,40.57690612561419 118.93012875528075,39.00601607793942 120.30214592255652,39.38683857637807 121.52583690965548,41.052931974845706 121.5999999998603,44.57550247426843 113.84995708125643,59.37941868507187 112.8487553645391,64.09178363729734 112.77459227433428,69.70845626093796 110.40137339034118,72.18357057787944 106.69321888382547,73.80190477985889 101.90969957062043,73.61151292195427 100.01854077237658,72.04077601246536 98.1273819738999,68.6612870694662 92.19433476380073,67.80450986948563 89.85819742479362,62.330604405055055 88.11536480672657,60.99781403684756 85.07467811135575,60.902614524180535 83.55433476367034,59.23661872415687 83.36892703850754,56.28540605746093 86.29836909845471,51.71573573278147 89.07948497845791,50.00209347292548 90.19193133036606,45.05152270605322 92.63931330433115,42.95702868429362 93.15845493529923,41.10053452296415 92.30557939875871,39.29163299186621 88.89407725306228,37.81594301131554 87.41081545059569,38.00635498279007 86.0017167381011,39.19642738069524 84.29596566502005,43.38544896928943 81.73733905563131,45.05152270605322 81.88566523580812,44.480298347683856 84.62969957059249,42.29059605303337 85.48257510713302,39.101221742719645 87.81871244614013,37.33991261420306 89.33905579382554,37.33991261420306 92.7505579397548,39.38683857637807 93.04721030034125,42.9094263970328 90.3773390557617,45.76555179973366 89.45030042901635,50.525707305176184 86.26128755346872,52.66775546580902 83.88806866924278,56.523408031847794 83.73974248906597,58.617818197846645 84.66678111557849,59.950617927039275 88.56034334748983,61.09301352270995 89.89527896977961,62.14020610207808 92.37974248919636,67.66171345880139 97.60824034316465,68.28049747017212 99.16566523583606,69.42286498422618 101.16806866927072,73.04033670638455 104.76497854059562,73.70670886425069 108.51021459209733,72.75474823749391 111.2542489268817,70.70802383450791 112.99708154494874,58.617818197846645 120.74712446308695,44.242287914210465 120.07965665217489,40.529303503833944 121.0066952786874,41.38614967139438 121.48875536443666,43.147437766747316 121.08085836889222,44.81351267383434 113.62746781110764,58.379817694512894 112.55210300418548,62.61620165916975 112.14420600840822,69.75605478385114 110.40137339034118,71.6599902108428 107.58317596558481,73.1355328092177 104.28291845461354,73.75430682551814 101.39055793965235,73.32592493444099 98.57236051466316,69.23247066600015 96.42163090105169,68.2328987402434 93.12137339031324,68.37569491012255 91.67519313283265,67.51891698819236 89.33905579382554,62.28300483938074 84.11055793985724,60.37901672674343 83.07227467792109,58.52261801651912 83.36892703850754,56.28540605746093 85.74214592250064,52.33454886355321 88.9682403432671,50.09729604804306 89.7840343345888,45.81315368573996 92.7505579397548,42.766619494825136 92.89888411993161,40.91012429035618 91.89768240321428,39.19642738069524" stroke="#4dd2ff" stroke-linecap="round" stroke-linejoin="round" stroke-width="0.5"><title>2023-07-11 10.1km</title></polyline><polyline fill="none" points="162.1038490566425,49.10385961047723 160.2780377358431,50.90357420913642 159.78898113209289,54.79594301758334 156.88724528311286,56.72118191048503 154.96362264140043,59.94383656329592 154.63758490572218,61.49237250362057 155.1266415095888,62.45497186933062 159.9846037735697,64.33830945959198 162.88633962266613,69.69529351466917 166.44015094346832,69.56974030315178 167.90732075471897,70.19750583177665 169.79833962279372,73.67111784935696 170.97207547165453,74.50812673865585 175.60181132075377,74.08962258775136 179.1230188680347,72.29004804143915 179.77509433962405,70.69971730242833 179.80769811326172,65.97052574151894 180.6227924528066,62.1201550513797 187.5347924529342,49.0201516902016 186.85011320759077,45.79737887263764 185.7089811321348,44.4161798498244 158.3870188681176,33.19893241781392 157.50671698118094,34.0360550195619 155.25705660379026,39.937702610419365 150.52950943401083,47.05300879123388 150.1708679245785,48.14121710663312 152.19230188673828,50.02464518210036 151.60543396242429,54.08443853902281 148.2472452830989,59.441606962354854 148.1168301886646,64.63127201475436 145.8019622642314,66.01237732343725 144.75864150945563,67.85384110966697 145.28030188684352,69.4860381327453 146.6170566037763,70.99267360265367 149.16015094344039,71.11822621454485 150.62732075469103,72.16449592314893 146.45403773593716,71.1600770734949 144.4652075470658,69.06752692788723 144.40000000002328,67.51903035864234 145.24769811320584,66.09608046969515 147.69298113207333,64.17090215583448 147.88860377355013,59.23234437868814 151.3772075471934,53.66590569910477 152.19230188673828,49.94093752032495 155.15924528299365,47.68082176585449 156.26777358481195,44.75101656457991 157.3763018869795,43.788359995232895 158.81086792459246,43.244248384347884 161.77781132073142,44.20690671191551 162.9189433963038,45.964796500920784 162.9189433963038,49.145713561883895 161.0931320755044,50.736159356252756 159.72377358493395,55.04706183966482 157.441509434022,56.42821157720755 154.96362264140043,60.15309864716255 154.96362264140043,61.95274650133797 156.30037735856604,63.1246043764404 159.78898113209289,64.25460581947118 160.89750943391118,65.3846029767883 162.2016603774391,69.15122921590228 163.47320754721295,69.9045487496769 166.2771320756292,69.69529351466917 168.23335849063005,71.36933127971133 169.6027169812005,73.83851981526823 170.67864150938112,74.42442595545435 174.949735849048,74.17332346504554 179.3186415095115,71.66228692157893 179.7098867924651,65.21719626089907 180.5575849057641,61.99459864766686 187.46958490565885,49.18756750744069 187.1109433961101,46.38334015998407 185.54596226417925,44.45803445976344 158.41962264152244,33.11522002835409 157.47411320742685,33.910486779292114 150.0404528301442,47.38784254231723 150.236075471621,48.308633417618694 151.96407547185663,49.81537598394789 151.31200000015087,53.791465612710454 147.69298113207333,59.86013168859063 147.8233962263912,64.42201307616779 145.67154716991354,66.01237732343725 144.6934339622967,67.85384110966697 144.75864150945563,69.0256757751049 146.71486792445648,71.11822621454485 149.6492075471906,71.70413770398591 146.486641509342,71.03452447912423 144.59562264150009,68.90012228139676 144.40000000002328,67.72828712203773 145.21509433956817,66.05422889947658 147.56256603775546,64.25460581947118 147.9212075471878,59.10678675796953 149.942641509464,56.63747613041778 151.34460377355572,53.70775900949957 152.15969811321702,50.02464518210036 155.517886792426,47.22042571386555 156.82203773595393,44.08134275866905 158.973886792548,43.03497442329535 162.26686792448163,44.7091619958519 163.27758490573615,47.848238335805945 160.83230188675225,50.98728160033352 159.8867924528895,54.79594301758334 157.31109433958773,56.344505714747356 154.8006037735613,60.06939383133431 155.0288301887922,62.413119787641335 160.2780377358431,64.58942023882992 162.65811320766807,69.56974030315178 167.35305660380982,70.61601544939913 169.43969811336137,74.00592168714502 170.6134339623386,74.88477997164591 176.05826415098272,74.1314730294398 179.25343396235257,71.87154077514424 180.0359245283762,63.25016030398547 181.4378867924679,59.609016923292074 187.4369811321376,49.10385961047723 186.85011320759077,46.174068403895944 185.93720754724927,45.00214385369327 181.17705660371576,42.74199063080596 158.2566037736833,33.324500958115095 157.31109433958773,33.95234286520281 149.7470188679872,47.72267591723357 150.1708679245785,48.810881786368554 151.89886792458128,49.857229835295584 151.60543396242429,52.745131381438114 149.942641509464,56.21894687699387 147.56256603775546,59.48345946133486 147.39954716991633,60.780884016974596 151.70324528310448,53.07995873535401 152.5835471698083,49.64796051941812 155.35486792447045,47.597113445663126 157.11547169811092,43.95577875254094 159.62596226413734,43.327957927656826 162.59290566039272,45.253270931192674 163.2123773585772,48.05750891577918 160.7018867925508,51.53137906952179 160.11501886800397,54.29370473846211 156.98505660379305,56.846740536537254 154.83320754719898,60.23680343956221 155.1266415095888,62.53867601507227 159.8867924528895,64.33830945959198 162.07124528312124,69.06752692788723 163.34279245277867,69.82084667333402 166.3749433964258,69.9045487496769 167.97252830199432,71.20192792656599 170.12437735847197,74.54997712135082 176.02566037746146,74.08962258775136 177.88407547178213,73.16891138712526 179.44905660382938,71.57858533898252 179.7098867924651,66.05422889947658 180.6227924528066,61.95274650133797 187.27396226429846,49.68981439442723 187.59999999997672,47.97380070129293 186.98052830202505,46.13221403508214 186.03501886792947,44.87658023563563 164.58173584914766,36.08699545197305 164.9403773584636,36.37998578962288 164.19049056607764,38.93317510696943 162.0060377358459,43.45352219854249 163.47320754721295,46.38334015998407 162.88633962266613,49.271275380742736 163.57101886800956,46.04850527975941 161.5821886792546,42.57457119150786 164.67954716994427,35.83586064755218 158.64784905675333,33.15707622599439 157.6697358491365,33.99419894538005 150.1382641509408,47.97380070129293 152.15969811321702,50.15020663040923 151.5728301887866,53.66590569910477 148.0516226416221,59.65086939893081 147.95381132082548,64.38016127076116 144.72603773581795,67.60273308170144 144.9868679245701,69.31863372135558 146.35622641514055,70.9089718319592 145.01947169797495,69.73714457347523 144.59562264150009,67.1842192314507 147.8233962263912,64.25460581947118 148.019018867868,59.609016923292074 151.6706415094668,53.49849239838659 152.15969811321702,50.48503690052894 155.58309433970135,47.55525927685085 156.98505660379305,44.20690671191551 158.64784905675333,43.36981269053649 162.07124528312124,44.83472568454454 162.95154716982506,46.174068403895944 162.78852830186952,48.09936301407288 160.7018867925508,50.10835282021435 162.6907169810729,49.438691056799144" stroke="#ff0a00" stroke-linecap="round" stroke-linejoin="round" stroke-width="0.5"><title>2023-07-01 21.2km</title></polyline><polyline fill="none" points="28.456426209653728,80.86609711826895 32.17076028580777,83.08901012295973 33.25992591725662,86.10066781775095 34.74007408285979,85.63458026127773 36.77876872615889,86.60260731101152 37.9517163290875,85.99310922640143 38.00757097697351,85.09678586910013 37.169751260546036,83.69851514446782 34.74007408285979,82.65877040757914 32.7013794395607,80.39999999999418 31.08159465447534,82.19267656398006 32.533815496368334,83.55510232926463 32.980652678292245,86.1365206714836 32.254542257636786,83.4833958914096 28.48435353359673,80.97365787078161 27.255551282898523,80.93780429169419 23.541217206744477,87.67818861454725 23.31779861578252,89.2556996588246 18.709790175431408,96.67704120950657 18.542226232239045,98.3261989101884 17.397205953020602,100.3697056232777 19.65931918739807,101.44522889936343 21.670086506870575,100.26215304626385 22.75925213820301,97.82428247731877 24.965510724694468,96.35437867359724 27.56275184568949,96.82044665009016 28.84740874392446,97.96768727316521 29.12668198288884,99.97534595278557 26.501513538183644,102.87925288302358 26.110531003796495,106.03407728168531 23.708781150053255,107.7548741515493 21.558377211214975,110.94548764522187 21.474595239618793,111.84172021431732 22.703397490317002,113.52662892368971 25.105147344176657,114.02851447410649 27.00420536810998,115.39077027849271 28.428498885943554,118.97561922878958 33.23199859331362,119.97936791132088 34.34909154847264,122.23778801356093 35.857167038018815,123.38491438032361 40.04626562027261,122.73965643343399 42.14081491122488,121.5208314160991 43.14619857096113,120.01521600552951 43.14619857096113,116.10774409695296 44.45878279337194,110.87378890370019 49.65326503501274,101.44522889936343 49.40191912010778,98.57715675630607 50.6027940469794,100.08289865069673 50.211811512708664,101.98298883749521 44.34707349783275,112.70210051964386 43.36961716192309,120.98311264623771 41.44263181416318,122.66796100517968 38.09135294845328,123.60000000000582 34.96349267393816,122.99059027328622 33.315780565026216,120.19445640116464 31.807705075480044,119.33410135420854 28.37264423817396,119.11901213935926 26.445658890297636,115.10398018703563 24.993438048637472,113.99266553891357 22.563760870834813,113.52662892368971 21.725941154523753,112.59455314013758 21.558377211214975,110.62284314981662 23.513289882801473,107.36052589380415 25.859185088891536,105.81897685703007 26.389804242528044,102.77170136370114 28.456426209653728,100.47725815483136 28.791554096271284,99.22247579903342 28.37264423817396,97.8959848852246 27.618606493342668,97.21481119593955 25.440275230561383,96.60533845899045 23.708781150053255,97.28651377520873 22.396196927758865,100.33385476926924 19.798955806763843,102.3773454054026 19.380045948550105,104.99442354982602 18.29088031721767,106.78692733999924 19.743101159110665,102.26979367466993 22.144851012853906,100.40555647210567 23.234016644069925,97.78843126571155 24.32318227540236,96.74874393976643 26.110531003796495,96.49778429541038 28.233007618691772,97.4657701352262 29.014972687349655,98.57715675630607 28.596062829135917,100.79991547763348 26.641150157433003,102.62829926758423 26.22224029933568,105.7114265767741 23.708781150053255,107.71902433517971 21.80972312623635,110.87378890370019 21.69801383058075,112.20021236070897 22.36826960381586,113.38323287086678 25.468202554620802,114.10021232924191 26.669077481376007,114.99643381976057 28.456426209653728,119.15486035437789 29.517664517159574,119.54919038782828 31.55635916045867,119.19070856444887 33.343707888852805,119.97936791132088 34.37701887241565,122.45287460004329 35.43825717992149,123.31321913344436 39.627355761942454,123.13398092816351 42.950707303825766,120.94726468800218 43.42547180969268,119.76427924024756 43.36961716192309,115.92850083106896 44.905619975412264,110.5152948940231 49.98839292163029,101.3018260577519 49.65326503501274,98.72056112904102 50.0163202455733,99.29417781409575 48.759590670932084,97.60917513250024 49.960465597803704,99.07907170828548 50.23973883665167,101.05087089110748 49.87668362609111,98.57715675630607 47.92177095450461,96.64118983680964 31.05366733064875,89.43496166038676 32.67345211561769,86.63846009419649 33.930181690258905,85.67043318055221 37.19767858448904,86.53090172962402 38.258916891762055,85.77799190784572" stroke="#4dd2ff" stroke-linecap="round" stroke-linejoin="round" stroke-width="0.5"><title>2023-06-23 11.0km</title></polyline><polyline fill="none" points="120.05292215867667,116.75390477750625 117.00174086051993,116.14672485242772 115.77697090274887,115.23594791713549 113.17702064168407,114.39416171390621 111.90927629946964,113.67656777061347 109.09445411589695,112.61396709589462 106.408555085829,111.86875975484872 101.67062919674208,111.37195171514759 99.0062173588667,110.2265235892919 95.77239492663648,106.96957051805657 94.2682914697798,106.26572322607535 89.67003233032301,102.9810357342576 88.12295448890654,101.00741008421755 86.83372295449954,100.06888884643558 86.23208157182671,98.79911052108218 84.97508082573768,96.94962136969843 82.90156677440973,95.05868967898277 81.44043770205462,92.73983315497753 80.72061676200246,92.2153222883353 80.10823178314604,91.37333845083049 79.29171847796533,89.81357879532152 78.40000000002328,87.1218997917531 80.29087291716132,91.51136908367334 81.76274558570003,93.029693219607 82.89082317834254,94.90686146528606 85.06102959468262,96.991028225013 86.30728674458805,98.73010035840707 86.97338970407145,100.11029438458354 88.42377518030116,101.28344403294614 89.72375031089177,102.9672342942431 94.31126585428137,106.21051930325484 95.81536931119626,106.96957051805657 98.92026858992176,109.97811572456703 100.10206416319124,110.66813601758622 99.11365332006244,110.28172525162518 95.69718975381693,106.91436699147744 93.87077841331484,105.97590228456829 89.358468042803,102.67740360433527 88.33782641135622,101.24203899018903 86.70479980105301,99.87566277065343 86.12464561057277,98.61968399705802 84.95359363342868,96.9082144969434 82.91231037059333,95.00347944662644 82.37513056455646,94.2167302583839 83.38502859981963,95.41755543116597 85.03954240237363,96.86680760668969 86.33951753296424,98.77150646183873 86.9089281273773,100.01368143508444 88.359313603607,101.15922885217151 89.58408356131986,102.81541832540097 93.86003481724765,105.89309614401282 95.72942054219311,106.87296432611038 99.03844814724289,110.15752146777231 101.58468042773893,111.19254819343769 105.33419547381345,111.785958589644 106.2366575478809,111.71695756528788 108.29942800302524,112.31036478863825 115.56209898041561,115.07035120205546 117.10917682171566,116.21572276046936 117.78602337726625,116.14672485242772 119.38681919925148,116.58831062525132 121.60000000003492,116.75390477750625 120.64381994534051,116.87810020823963 119.98846058198251,116.80910276613577 120.22481969662476,116.74010527550854" stroke="#4dd2ff" stroke-linecap="round" stroke-linejoin="round" stroke-width="0.5"><title>2023-05-28 13.0km</title></polyline><polyline fill="none" points="162.9977460555965,94.20934829243924 162.60826446278952,96.66761249591946 160.33628850488458,98.70920626132283 160.04417731030844,101.7924028604757 156.8958677686751,104.66724648838863 154.78617580770515,107.83370866961195 154.65634861006401,109.54191765064024 155.66250939154997,111.0418003515515 158.8757325321203,111.70841245068004 160.33628850488458,112.79165391621063 162.54335086408537,117.66619155404624 167.0223891810747,118.04115266955341 170.20315552235115,122.20735539359157 172.18302028556354,122.7489574495412 176.72697220148984,121.79073775443248 179.6805409467779,118.95772228986607 180.07002253946848,112.12504425176303 182.0498873027973,106.79211299921735 187.4701728025684,97.04260015964974 187.59999999997672,95.41765019306331 186.91840721271,93.83435704646399 185.78241923381574,92.70938046369702 167.15221637883224,84.54275585609139 158.1616829452105,81.45937991855317 154.75371900829487,88.87609487818554 152.09226145758294,92.16772354999557 150.30713749059942,95.83430487930309 152.7089406461455,96.91760432437877 155.0782870023977,95.29265367303742 156.24673178070225,92.45938508800464 157.5774605560582,91.25107113455306 160.1415477085393,90.75107771382318 161.95912847481668,91.50106752876309 163.3547708489932,93.417699550424 163.5495116454549,95.79263943704427 161.47227648389526,98.75087129394524 160.27137490618043,102.83401608970598 157.28534936136566,104.79223905759864 155.17565740062855,108.20868221556884 155.46776859508827,110.45851353585022 160.10909090924542,112.16670739962137 161.050338091678,113.29161018130253 161.86175807670224,116.29133007509517 162.93283245689236,117.5412044103432 166.69782118708827,117.62452917860355 168.1259203607915,118.29112648323644 170.72246431256644,122.24901712534484 173.3514650638681,122.4573256962176 176.791885800194,121.74907595835975 179.4858001503162,119.58265449781902 179.8103681441862,113.49992504302645 180.65424492862076,110.12520626900368 187.4701728025684,96.83427373840823 187.34034560492728,94.75100147738704 186.13944402709603,93.0427073033643 158.58362133742776,81.33437751533347 157.31780616089236,82.7510683350556 150.30713749059942,95.87597031579935 152.6764838467352,97.16759594206815 154.98091660416685,95.50098117714515 157.35026296018623,91.29273721494246 158.77836213377304,90.62607922684401 161.30999248684384,90.87607614792068 163.3547708489932,92.50105099851498 163.64688204356935,95.70930853500613 161.14770848990884,99.33418113514199 160.82314049592242,101.91739664110355 159.91435011278372,103.20899595684023 157.41517655923963,104.58391807987937 155.17565740062855,107.87537242047256 155.11074380180798,109.79189862756175 156.08444778376725,111.00013704560115 160.69331329828128,112.74999085607124 162.77054845984094,117.41621721370029 166.86010518413968,117.66619155404624 168.71014274982736,119.12437100731768 170.2680691210553,121.99904664719361 171.79353869275656,122.5406490835885 174.48745304287877,122.4573256962176 177.01908339594956,121.49910505893058 179.58317054854706,119.04104666024796 179.8428249437129,113.33327316542272 180.7516153268516,109.54191765064024 187.53508640127257,96.87593903430388 187.43771600304171,95.25098815455567 186.20435762580018,93.20937058288837 173.83831705490593,87.4177666993346 158.22659654414747,81.37604498895234 150.1773102930747,95.83430487930309 152.5141998496838,97.16759594206815 154.91600300534628,95.41765019306331 156.27918858011253,92.45938508800464 158.09676934638992,90.9594084082346 161.0178812922677,90.91774228098802 163.3872276485199,92.41771917158621 163.7442524418002,94.83433264881023 163.28985725028906,96.54261650281842 161.27753568754997,98.83420134152402 160.43365890323184,102.41737123698113 157.31780616089236,104.66724648838863 155.11074380180798,108.16701851168182 155.11074380180798,110.04187939374242 156.24673178070225,111.08346365165198 158.42133734049276,111.54175956637482 160.498572501936,112.83331697055837 162.57580766337924,117.41621721370029 167.2171299775364,117.79117864527507 168.74259954923764,119.12437100731768 170.4303531179903,122.12403191253543 174.29271224653348,122.41566399359726 177.27873779123183,121.58242871548282 179.71299774595536,119.16603317207773 179.8428249437129,113.4165991160553 180.71915852755774,109.87522557302145 187.43771600304171,97.29259167198325 187.30788880540058,94.62600467633456 185.87978963193018,92.75104633910814 158.3239669421455,81.2510425504588 150.04748309543356,96.08429741015425 152.12471825699322,97.20926119116484 154.5265214126557,95.87597031579935 156.3116453794064,92.08439162917784 158.09676934638992,90.9594084082346 161.30999248684384,91.08440675461316 163.2249436515849,92.45938508800464 163.61442524427548,95.37598469224758 162.96528925630264,96.95926960857469 160.95296769344714,98.9175313655578 160.56348610075656,102.41737123698113 157.12306536454707,104.87556740772561 154.98091660416685,108.16701851168182 155.045830202871,109.79189862756175 155.92216378671583,110.95847373388824 158.55116453801747,111.45843308910844 160.27137490618043,112.54167546762619 162.93283245689236,117.5412044103432 167.28204357635695,117.83284099740558 168.8399699474685,119.37434390810085 169.58647633367218,121.62409053504234 170.56018031551503,122.24901712534484 174.58482344110962,122.41566399359726 177.31119459064212,121.58242871548282 179.55071374913678,119.41600603770348 180.19984973710962,110.50017691779067 187.43771600304171,96.58428183969227 187.04823441023473,94.20934829243924 185.6525920360582,92.54271690329188 166.34079639380798,84.2510865321965 158.22659654414747,81.37604498895234 150.20976709236857,95.75097398896469 150.46942148765083,96.66761249591946 152.31945905357134,98.00089981249766 151.96243426005822,101.04243907012278 147.97024793399032,107.7920449131052 148.1649887302192,112.12504425176303 144.95176558976527,115.58306561392965 145.34124718268868,117.4995420172636 146.67197595792823,118.95772228986607 149.49571750569157,119.16603317207773 150.98873027809896,120.3742334045819 146.47723516169935,118.9993844779965 145.01667918870226,117.5412044103432 144.40000000002328,115.91636674743495 145.6333583772648,113.70823975859093 147.80796393705532,112.29169680835912 148.0351615328109,107.37540702530532 151.8001502630068,101.25076253546285 151.96243426005822,98.50088101092842 152.74139744555578,97.20926119116484 155.208114199806,95.75097398896469 156.3116453794064,92.83437807240989 157.2204357626615,91.87606172516826 159.0380165290553,91.12607285831473 161.4073628850747,91.87606172516826 162.90037565736566,93.25103638818837 163.3872276485199,94.87599822576158 161.11525169049855,99.33418113514199 160.27137490618043,102.58402924836264 157.28534936136566,104.83390323549975" stroke="#ff0800" stroke-linecap="round" stroke-linejoin="round" stroke-width="0.5"><title>2023-05-21 21.2km</title></polyline><polyline fill="none" points="53.9260804769001,164.88719577569282 50.95380029809894,164.1705116865196 49.0438152012066,162.98521495571913 47.380625931487884,162.51660531554808 46.00715350225801,161.71720722623286 42.55201192252571,160.44918308299384 40.287928464997094,159.82894790457067 35.416393442603294,159.36032316517958 33.023546944896225,158.29901767310366 32.18658718332881,157.26526750242192 29.85812220571097,155.0874647742021 28.16274217586033,154.19151921426965 23.66676602087682,150.93847874402854 22.32548435172066,149.1878571636771 20.812518628896214,147.9610249668549 20.35111773473909,146.89959594731772 19.06348733237246,145.0799765778429 17.046199701959267,143.19139647722477 15.629806259297766,140.94435226872884 14.127570789889432,139.35898330834607 13.440834575332701,138.04931132937054 12.400000000023283,135.05767910418945 14.374366617004853,139.662273268812 15.7049180327449,140.88920943137782 17.099850968748797,143.17761108712875 19.06348733237246,144.96969552946393 20.941281669132877,148.08508734815405 22.432786885241512,149.28434893176018 23.64530551416101,150.89712583922665 28.087630402413197,154.0812484251146 29.75081967213191,154.8807088339454 33.09865871828515,158.20253478544328 35.66318926977692,159.2638413228924 37.42295081971679,159.37410627772624 39.11833084950922,159.80138180552603 40.255737704923376,159.77381569865975 42.584202682599425,160.40783419325453 49.51594634872163,163.10925830872293 51.00745156488847,164.1842941223149 53.35737704922212,164.7218076050849 55.59999999997672,164.95610743100406 53.41102831601165,164.77693702631223 50.95380029809894,164.22564141800103 49.33353204175364,163.05412794896984 42.43397913564695,160.36648528610385 40.363040238502435,159.84273095122626 35.53442622948205,159.30519069549337 33.08792846498545,158.312800935033 29.686438152042683,154.89449257686647 28.05543964233948,154.1225999856324 23.50581222056644,150.92469444439485 22.507898658746853,149.42219414979627 20.876900149101857,148.09887204749975 20.265275707875844,146.7893169479139 18.90253353206208,144.88698466166534 17.17496274219593,143.31546490084293 15.511773472419009,140.83406656297302 14.256333830126096,139.62091560222325 13.108196721295826,137.2497135094236 12.432190760038793,135.04389256900322 13.365722801769152,137.6357270653025 14.363636363646947,139.63470149300701 15.758569299592637,141.01328077173093 17.06766020867508,143.09489870574907 18.945454545435496,144.79048856095324 20.41549925482832,146.85824133706774 20.855439642327838,147.91967080485483 22.561549925536383,149.36705608590273 23.538002980640158,150.7592826970067 28.37734724296024,154.19151921426965 29.793740685563534,154.8531413422752 33.130849478417076,158.20253478544328 35.72757078986615,159.23627506476623 40.942473919538315,159.91164615524758 45.492101341311354,161.51046527936705 40.7064083457808,159.91164615524758 39.12906110280892,159.81516485598695 37.39076005964307,159.42923870866798 35.81341281667119,159.41545560379745 32.916244411375374,158.18875150803797 29.847391952294856,155.05989734074683 28.07690014905529,154.13638383523357 23.988673621497583,151.15902727492357 28.35588673624443,154.24665456230287 29.78301043220563,154.9220600569024 33.45275707897963,158.35415070910676 35.630998509703204,159.277624449016 36.65037257829681,159.277624449016 39.19344262301456,159.80138180552603 40.33084947837051,159.77381569865975 42.090611028368585,160.22865546951653 49.33353204175364,163.01278015882417 51.01818181818817,164.1705116865196 53.28226527571678,164.62533104330214" stroke="#ff0000" stroke-linecap="round" stroke-linejoin="round" stroke-width="0.5"><title>2023-05-14 21.6km</title></polyline><polyline fill="none" points="118.09173612762243,164.02277520863572 115.50940700166393,163.53383593247418 113.96618242439581,162.48987598614622 111.70278637768934,161.78949129057582 110.62252917361911,161.10231632466457 107.07311264588498,159.66187556184013 105.40643010241911,159.30506572044396 104.0998332935851,159.29185051506647 102.42286258633249,158.8557476955757 100.653298404417,158.8028866101231 98.33846153848572,157.83816657482384 97.58742557751248,156.91308326116996 95.0256727792439,154.54747162931017 93.87339842820074,154.0716989641296 92.49478447251022,153.00120165448607 91.5997142176493,152.5915019244494 89.19228387711337,150.71478999224928 88.24577280302765,149.32705634437298 86.70254822575953,148.0846869184752 84.74779709451832,144.99190865831042 82.50497737561818,143.00930491024337 81.45558466308285,141.238143491355 80.34446296736132,140.2335893304844 79.28478209092282,138.18479424126417 78.40000000002328,135.6204328718013 80.13869969034567,139.77096208917646 80.65310788282659,140.49794673066208 81.53788997384254,141.2249257432195 82.92679209331982,143.39261156592693 84.74779709451832,144.9786914386059 86.07497023098404,146.89516887364152 86.5482257680269,147.96573579208052 88.04000952607021,149.18167353733588 89.25401286018314,150.83373763640702 93.72936413431307,153.9791873326758 95.28287687542615,154.82500457088463 98.41047868540045,157.91745900631213 100.75618004286662,158.84253242697014 103.94551083591068,159.35792652322561 105.40643010241911,159.37114171923167 107.29945225053234,159.93939339021745 113.90445344126783,162.48987598614622 115.60200047626859,163.58669435533375 117.62876875448273,164.04920428623882 120.4374374850886,164.37956712820596 121.60000000003492,164.03598974837223 121.56913550850004,163.83777145753265 120.93126934982138,163.9434879313776 120.87982853059657,164.2606366389591 120.24196237197611,164.2606366389591 115.67401762324153,163.58669435533375 113.46206239581807,162.29165443234524 107.76241962373024,160.00546894277795 105.2726839723764,159.27863530789182 103.9146463443758,159.26542009883997 102.5566087163752,158.94825452342047 100.88992617290933,158.96146977713215 98.0709692784003,157.79852033399948 95.09768992621684,154.81178873512545 93.65734698739834,154.09813084208872 89.09969040250871,150.79408843840793 87.96799237915548,149.28740651021508 86.48649678495713,148.05825334785186 86.0029530840693,147.0273382893938 84.6449154560687,145.00512587618869 82.84448678256012,143.4058290088724 81.51731364609441,141.34388540936925 80.30331031198148,140.1939356562507 79.19218861631816,137.98652137605677 78.50288163853111,135.77905519501655" stroke="#4dd2ff" stroke-linecap="round" stroke-linejoin="round" stroke-width="0.5"><title>2023-05-07 13.6km</title></polyline><polyline fill="none" points="144.39999999990687,142.89567408629227 161.29917355347425,153.2850043203216 164.9884297521785,165.35483684926294 171.65289256209508,163.0631068001967 181.64958677627146,167.7993435781682 186.17190082604066,164.8964912260417 184.62479338794947,157.10458606726024 173.08099173521623,150.84046496113297 164.0363636361435,141.3678230320802 159.3950413223356,143.96516854665242 157.49090909026563,149.15984096296597 162.25123966904357,153.8961383018177 166.29752066126093,165.20205499697477 171.05785124003887,162.9103246255545 181.05454545421526,167.7993435781682 184.62479338794947,166.72987256059423 186.8859504130669,162.45197797124274 183.07768594985828,155.72953818412498 171.53388429712504,150.22932926239446 163.08429752057418,142.13174882763997 157.96694214828312,149.00705683464184 163.67933884309605,155.72953818412498 165.70247933873907,165.04927312210202 173.91404958674684,163.97979939973447 181.7685950412415,167.95212506619282 186.6479338845238,165.66040049132425 187.24297520658,162.75754242879339 184.26776859443635,156.79902002122253 171.29586776858196,150.3821132191224 163.08429752057418,142.28453392209485 158.9190082643181,145.64580057375133 157.72892561974004,150.3821132191224 163.08429752057418,154.9656219421886 166.41652892529964,165.81318227981683 172.36694214865565,163.97979939973447 180.45950413215905,168.2576879778644 185.93388429749757,166.5770909007406 187.24297520658,162.14641342847608 184.38677685940638,156.49345388938673 173.55702479276806,151.29881650966126 163.67933884309605,141.9789637111826 158.68099173530936,148.701488512801 163.79834710713476,155.4239717517048 166.6545454543084,165.35483684926294 171.7719008261338,163.97979939973447 182.12561983428895,167.95212506619282 186.76694214809686,165.04927312210202 187.12396694160998,162.29919571068604 183.1966942148283,155.5767549785087 173.08099173521623,150.99324883206282 163.4413223140873,141.9789637111826 160.10909090889618,144.27073819946963 158.08595041325316,150.07654528389685 163.32231404911727,154.5072719391901 165.82148760324344,165.04927312210202 172.24793388415128,163.82701735326555 182.72066115634516,167.95212506619282 185.45785123948008,166.72987256059423 186.76694214809686,161.53528408426791 182.244628099259,155.27118850301486 173.31900826422498,151.14603268133942 162.72727272752672,142.13174882763997 157.8479338842444,149.77097726322245 163.32231404911727,154.2017051631119 166.89256198331714,165.81318227981683 172.36694214865565,163.36867108591832 182.8396694213152,167.7993435781682 187.0049586771056,164.8964912260417 187.60000000009313,161.84084879932925 184.38677685940638,156.03510453086346 174.03305785125121,150.68768106843345 162.8462809920311,141.52060823410284 158.08595041325316,148.701488512801 164.15537190064788,156.34067079110537 165.46446280973032,165.35483684926294 172.96198347071186,163.36867108591832 182.00661156978458,167.7993435781682 186.40991735458374,164.8964912260417 187.24297520658,161.99363112438004 184.8628099169582,156.34067079110537 170.93884297506884,149.00705683464184 163.9173553721048,141.3678230320802 157.72892561974004,149.31262507045176 163.08429752057418,153.43778784794267 165.82148760324344,166.11874579254072 172.24793388415128,163.5214531965321 181.64958677627146,167.64656206883956 186.29090909054503,164.5909273698926 186.8859504130669,161.84084879932925 182.48264462780207,154.9656219421886 170.93884297506884,149.00705683464184 164.2743801656179,141.2150378084043 159.63305785134435,144.42352299380582 157.72892561974004,150.22932926239446 162.9652892560698,152.97943720116746 166.29752066126093,166.4243092192337 172.72396694216877,164.13258142478298 183.31570247979835,167.18821741151623 186.05289256200194,165.507618681062 187.12396694160998,160.92415439663455 184.0297520654276,155.88232136808801 171.89090909063816,150.07654528389685 152.96859504142776,132.04788510932121 147.0181818176061,143.50681390683167 160.82314049592242,152.0627353276359 166.0595041322522,166.4243092192337 170.8198347100988,163.5214531965321 183.1966942148283,167.3409989848733 187.0049586771056,164.2853634279454 186.52892561955377,158.9379805396311 180.45950413215905,153.2850043203216 169.03471074346453,147.47921436757315 161.77520661149174,138.31211448297836 152.61157024791464,132.04788510932121 146.54214876051992,141.82617857365403 163.79834710713476,153.7433548384579 166.17851239675656,165.66040049132425 171.29586776858196,162.75754242879339 183.55371900834143,167.03543581592385 187.12396694160998,160.92415439663455 184.7438016529195,156.646236965782 173.43801652872935,150.99324883206282 161.8942148759961,138.00654315564316 153.44462809944525,132.04788510932121 146.54214876051992,142.59010404744186 162.0132231405005,152.21551902673673 165.70247933873907,165.507618681062 174.1520661157556,163.67423528572544 182.12561983428895,167.64656206883956 186.6479338845238,164.74370930867735 186.76694214809686,159.8546766169602 183.67272727238014,155.5767549785087 169.1537190079689,147.6319987110328 162.25123966904357,138.61768572439905 152.73057851288468,131.74231202201918 146.30413223197684,142.43731899559498 161.77520661149174,152.0627353276359 166.29752066126093,165.96596404712182 171.53388429712504,163.5214531965321 183.79173553688452,167.03543581592385 187.24297520658,161.68806645239238 182.8396694213152,155.4239717517048 170.58181818155572,149.31262507045176 162.0132231405005,138.92325687990524 152.37355371937156,132.20067162124906 146.4231404955499,141.9789637111826 163.20330578507856,151.90995160711464 165.1074380162172,164.5909273698926 171.65289256209508,162.9103246255545 182.95867768581957,166.8826541986782 185.57685950398445,165.81318227981683 187.0049586771056,161.53528408426791 182.244628099259,155.27118850301486 172.1289256196469,150.07654528389685 163.67933884309605,141.67339341482148 159.9900826443918,143.6595988086192 157.96694214828312,149.15984096296597 163.32231404911727,151.90995160711464 165.82148760324344,165.04927312210202 172.0099173556082,163.0631068001967 183.79173553688452,167.03543581592385 187.36198347015306,161.2297192835249 183.55371900834143,155.5767549785087 171.7719008261338,149.46540915581863 152.61157024791464,132.65903102746233 146.54214876051992,141.82617857365403 162.72727272752672,151.6043841012288 165.9404958677478,165.35483684926294 172.48595041316003,163.21588895423338 182.72066115634516,167.64656206883956 186.6479338845238,165.35483684926294 186.40991735458374,160.0074592215242 182.95867768581957,155.4239717517048 172.0099173556082,149.61819322034717 162.25123966904357,138.46490011410788 152.96859504142776,132.506244580145 147.97024793364108,138.15932882972993 147.61322314059362,142.89567408629227 162.6082644625567,151.29881650966126 166.17851239675656,165.66040049132425 171.41487603308633,163.82701735326555 179.26942148711532,167.18821741151623 184.7438016529195,167.03543581592385 187.36198347015306,163.36867108591832 186.52892561955377,159.7018939908594 179.9834710736759,153.2850043203216 171.29586776858196,150.07654528389685 163.32231404911727,142.28453392209485 159.27603305736557,145.340231307433 157.49090909026563,150.07654528389685 162.0132231405005,151.7571678647073 166.0595041322522,166.11874579254072 172.36694214865565,163.82701735326555 182.244628099259,167.64656206883956 186.76694214809686,165.20205499697477 186.76694214809686,160.31302436545957 182.12561983428895,155.11840523348656 170.7008264460601,149.31262507045176 153.08760330546647,132.65903102746233 146.780165289063,143.04845907341223 162.8462809920311,152.67386999586597 166.29752066126093,166.4243092192337 171.17685950361192,163.36867108591832 183.1966942148283,167.49378053715918 187.0049586771056,164.8964912260417 186.76694214809686,160.31302436545957 181.8876033052802,155.11840523348656 171.7719008261338,150.3821132191224 162.37024793354794,139.22882794914767 152.96859504142776,133.42296294192784 147.0181818176061,140.90946729737334 162.9652892560698,153.8961383018177" stroke="#4dd2ff" stroke-linecap="round" stroke-linejoin="round" stroke-width="0.5"><title>2023-05-01 14.7km</title></polyline><polyline fill="none" points="12.399999999906868,190.81079068488907 29.876923076808453,200.44926280307118 33.81538461521268,213.87978290917818 40.46153846150264,211.8257137539331 51.04615384619683,215.61783849389758 55.353846153244376,211.35169726179447 53.50769230769947,205.9794963907916 38.86153846094385,198.86919106845744 31.23076923051849,189.70473122317344 29.384615384507924,189.8627397842938 24.338461538311094,198.5531764549669 30.615384615026414,202.3453459541779 34.307692307047546,214.51180343248416 39.846153846010566,211.9837192062987 48.83076923061162,216.09185318730306 52.27692307671532,215.61783849389758 55.353846153244376,210.7196749622235 53.26153846178204,205.34747107187286 29.630769230425358,189.54672264005058 24.092307691462338,198.0791543686064 29.630769230425358,201.39730477833655 34.307692307047546,214.51180343248416 39.59999999962747,211.66770827840082 50.43076923023909,216.24985804059543 55.23076923098415,211.66770827840082 52.03076923079789,204.557438923046 41.69230769202113,199.3432128218701 31.353846153244376,188.91468808462378 27.53846153849736,191.28481583553366 24.215384615119547,197.9211469620932 31.846153845544904,203.9254128044704 33.4461538461037,214.19579321495257 40.707692307420075,211.9837192062987 50.799999999348074,215.93384831235744 53.63076923042536,214.51180343248416 54.984615384135395,210.24565800419077 49.69230769202113,202.81936624250375 40.83076923061162,198.7111837725388 30.984615384601057,189.07269675657153 25.815384614747018,193.81294659723062 24.46153846103698,198.86919106845744 30.861538460943848,202.02933231776115 33.569230768829584,213.7217777223559 39.846153846010566,211.66770827840082 51.04615384619683,215.7758434143616 54.984615384135395,213.56377251364756 55.353846153244376,210.87768057035282 52.39999999990687,205.18946468632203 37.384615384507924,196.34107167471666 30.738461538217962,189.2307054066332 26.430769230704755,193.33892251201905 24.95384615333751,199.1852055931231 30.615384615026414,201.39730477833655 34.307692307047546,214.03778807271738 41.1999999997206,212.14172463701107 49.938461538404226,216.24985804059543 53.99999999953434,214.35379833495244 55.353846153244376,209.9296465876978 52.39999999990687,204.557438923046 38.36923076910898,197.13110959576443 33.81538461521268,190.4947738071205 29.753846153616905,188.7566793904407 24.338461538311094,198.23716175276786 30.738461538217962,202.18733914732002 33.69230769202113,214.35379833495244 41.1999999997206,212.14172463701107 51.5384615380317,216.09185318730306 55.353846153244376,212.61574079585262 55.23076923098415,209.2976234885864 49.200000000186265,202.02933231776115 37.753846153151244,196.9731020560721 29.876923076808453,189.2307054066332 24.83076923014596,197.60513208177872 32.46153846057132,204.0834193675546 33.1999999997206,213.7217777223559 39.476923076901585,212.2997300454881 50.06153846113011,216.40786287246738 54.12307692319155,214.98581859236583 55.59999999962747,210.87768057035282 51.78461538488045,203.9254128044704 38.615384615026414,197.44712460890878 29.99999999953434,189.54672264005058 25.076923076063395,198.0791543686064 30.861538460943848,202.81936624250375 33.1999999997206,214.35379833495244 39.96923076873645,211.66770827840082 51.5384615380317,215.7758434143616 55.59999999962747,210.87768057035282 50.92307692300528,202.9773729610024 40.95384615333751,198.39516911515966 29.99999999953434,188.91468808462378 25.815384614747018,198.39516911515966 31.10769230686128,201.39730477833655 33.69230769202113,214.82781356107444 40.58461538469419,212.61574079585262 48.58461538422853,216.09185318730306 53.753846153151244,214.03778807271738 55.23076923098415,210.87768057035282 50.30769230751321,202.661359502119 39.35384615371004,197.44712460890878 31.72307692328468,189.2307054066332 29.630769230425358,189.38871403434314 25.446153845638037,198.23716175276786 31.353846153244376,202.81936624250375 32.58461538422853,213.7217777223559 38.86153846094385,211.66770827840082 51.78461538488045,215.93384831235744 55.59999999962747,212.45773543149699 55.59999999962747,209.613635082962 49.69230769202113,201.39730477833655 40.707692307420075,198.0791543686064 31.59999999962747,188.91468808462378 29.753846153616905,189.38871403434314 25.076923076063395,198.7111837725388 31.23076923051849,203.60939961194526 32.95384615333751,214.03778807271738 40.338461538311094,211.66770827840082 47.476923076901585,215.30182858742774 52.892307692207396,214.98581859236583 55.107692307792604,212.93175145739224 54.36923076910898,206.2955089173047 39.59999999962747,197.28911711310502 20.399999999441206,179.5921371274162 14.7384615377523,187.49260903603863 14.36923076864332,190.17875683994498 31.23076923051849,202.661359502119 33.69230769202113,213.7217777223559 39.72307692281902,211.35169726179447 47.107692307792604,214.82781356107444 52.892307692207396,214.82781356107444 55.23076923098415,211.9837192062987 53.26153846178204,205.34747107187286 29.753846153616905,189.07269675657153 25.815384614747018,195.70904093806166 30.984615384601057,202.3453459541779 33.81538461521268,214.03778807271738 40.09230769239366,211.0356861561304 47.35384615371004,215.143823600607 52.6461538458243,215.143823600607 55.107692307792604,211.66770827840082 53.99999999953434,205.9794963907916 41.938461538404226,199.1852055931231 33.938461538404226,190.4947738071205 29.876923076808453,189.70473122317344 26.061538461595774,193.81294659723062 25.32307692291215,199.02719834202435 31.23076923051849,203.9254128044704 34.06153846113011,214.51180343248416 40.338461538311094,211.35169726179447 50.5538461538963,215.93384831235744 54.73846153821796,212.93175145739224 53.50769230769947,205.34747107187286 38.73846153821796,196.9731020560721 32.215384614653885,188.7566793904407 29.50769230723381,189.8627397842938 25.815384614747018,197.44712460890878 30.49230769230053,200.92328389082104 32.95384615333751,208.03357622493058 37.01538461493328,206.76952754007652 42.799999999813735,199.02719834202435" stroke="#4dd2ff" stroke-linecap="round" stroke-linejoin="round" stroke-width="0.5"><title>2023-04-20 10.0km</title></polyline><polyline fill="none" points="79.607927485049,202.94390996627772 79.39554463050445,202.6711641565489 78.49955446302192,202.36432365354995 78.39999999999418,202.1427156574573 78.56592410508892,201.88701311664408 79.22298356122337,201.53755123285737 80.06587801504065,201.40969882071659 83.27816868951777,201.40969882071659 84.40645260407473,201.1710402630597 93.01459517591866,196.70454244766734 94.6738362267497,196.03965393678664 95.94813335381332,195.86916852813738 97.15606083886814,195.93736274914045 111.57818405286525,198.2644445502301 113.31706867413595,198.451971061113 114.2860654478427,198.40935145052572 115.75283453677548,198.07691745911143 116.80147488095099,197.5825250736125 117.79038254724583,196.7897840368496 119.89430019969586,194.23248420026357 120.99603625747841,193.81478164015425 121.5734521431732,193.84887991626601 121.60000000000582,193.95117462944472 121.3278844676679,193.9937973756496 119.74828698724741,193.3459283979355 119.42971270548878,193.05609003372228 118.55363343062345,194.9059169584798 117.39880165923387,196.5511072849331 115.99176524812356,197.63366930053598 115.12895990165998,198.00872564575184 114.18651098478585,198.2473966568541 112.96530957132927,198.3241121393803 111.53172530341544,198.19625294789148 99.06750652941992,196.17604191835198 96.73793209402356,195.84359567545107 95.58973728684941,195.83507138884306 94.57428176372196,196.01408115604863 93.35308035026537,196.4232443525907 84.3334459978505,201.05171063180387 83.11888154860935,201.2392285182832 79.6742971270287,201.23070499056848 78.53273928409908,201.6142625506909" stroke="#4dd2ff" stroke-linecap="round" stroke-linejoin="round" stroke-width="0.5"><title>2023-03-17 12.5km</title></polyline><polyline fill="none" points="145.48946640011854,202.90581844333428 144.39999999999418,202.28303996863906 144.5195755804889,202.03563304671843 144.99787790249684,201.76263113431196 146.1803475319175,201.54934753538328 149.2627402737271,201.54934753538328 150.3455635860446,201.31046901431182 158.99486390897073,196.83132255947567 160.6357065969496,196.17435326574923 162.1503306166269,195.9951785869962 163.1002921728359,196.05490353874484 175.78194679378066,198.13670796191218 177.92102106721723,198.4438533857101 180.1796709211194,198.53770306611113 181.86037213593954,198.14523980025479 182.97641088726232,197.5650720601625 183.9396586191142,196.7118741262566 186.01230201445287,194.28019416915413 187.12834076580475,193.83650871281498 187.58007073658518,193.91330065865986 187.60000000000582,194.04128701904847 187.0552667999582,194.04128701904847 185.6004305704846,193.34162495156488 185.46756881440524,193.247767230936 185.47421190221212,193.09418155666935 184.41131785331527,195.26141009476487 183.18234660927556,196.83132255947567 181.97330462862737,197.70158261589677 180.3922497309104,198.2561535893292 179.11677687219344,198.37559898150357 177.68851299400558,198.24762176658987 163.69817007536767,196.02930713804744 162.41605412884383,195.89279281866402 161.42623404579354,195.9439857244506 160.25040750423796,196.18288538009074 159.18087036753423,196.61802162084132 150.32563432262396,201.15690375404301 149.22288174688583,201.3957828798084 145.44960787327727,201.3872514986724 144.49964631706825,201.74556847398344" stroke="#4dd2ff" stroke-linecap="round" stroke-linejoin="round" stroke-width="0.5"><title>2023-03-11 12.5km</title></polyline><polyline fill="none" points="19.42439024336636,237.4281457401812 20.126829266548157,250.06039496068843 37.687804877758026,242.39082101290114 34.175609754398465,233.81892253551632 20.126829266548157,233.36776934866793 18.019512193277478,248.70694206724875 37.687804877758026,242.39082101290114 34.175609754398465,234.72122871875763 18.019512193277478,234.72122871875763 14.858536584302783,241.9396690321155 19.775609754025936,248.25579097517766 31.71707317046821,246.45118597638793 35.22926829196513,237.4281457401812 15.912195121869445,235.17238171421923 18.72195121832192,249.60924405930564 33.47317073121667,246.90233732084744 36.985365852713585,238.78160339407623 17.317073170095682,234.27007565880194 14.156097559258342,240.13506047683768 20.126829266548157,249.15809309552424 33.47317073121667,246.45118597638793 36.985365852713585,237.87929835612886 29.609756097197533,232.46546278661117 16.96585365757346,234.27007565880194 21.882926827296615,249.60924405930564 37.687804877758026,240.13506047683768 32.41951219551265,232.91661609965377 18.3707317057997,233.36776934866793 20.126829266548157,249.15809309552424 28.556097561493516,249.15809309552424 37.336585365235806,240.13506047683768 19.775609754025936,232.46546278661117 13.804878048598766,235.17238171421923 16.96585365757346,244.64657996036112 36.634146340191364,241.9396690321155 35.22926829196513,235.6235346456524 20.829268291592598,232.01430941093713 14.156097559258342,246.45118597638793 34.52682926878333,246.0000345672015 38.0390243884176,240.13506047683768 21.53170731663704,232.46546278661117 13.102439023554325,241.03736488264985 21.18048780411482,248.25579097517766 33.824390241876245,245.09773155930452 35.22926829196513,235.17238171421923 16.263414634391665,234.27007565880194 12.751219511032104,240.58621271140873 19.07317073084414,247.80463982117362 34.52682926878333,244.64657996036112 36.985365852713585,238.33045090688393 20.829268291592598,232.46546278661117 13.804878048598766,239.23275581817143 16.263414634391665,249.60924405930564 36.634146340191364,244.64657996036112 34.175609754398465,233.81892253551632 23.287804877385497,232.46546278661117 14.507317073643208,238.33045090688393 15.560975609347224,246.0000345672015 28.20487804710865,247.35348860314116 36.634146340191364,241.48851698893122 34.878048779442906,234.27007565880194 20.126829266548157,232.46546278661117 12.751219511032104,241.03736488264985 15.560975609347224,247.35348860314116 28.20487804710865,248.25579097517766 38.39024390280247,238.78160339407623 21.18048780411482,233.36776934866793 14.156097559258342,240.13506047683768 18.72195121832192,248.70694206724875 35.93170731514692,243.29312478168868 36.282926827669144,236.52584031992592 21.18048780411482,232.91661609965377 13.453658536076546,242.84197292895988 18.3707317057997,248.25579097517766 32.41951219551265,246.45118597638793 37.687804877758026,238.78160339407623 19.42439024336636,233.81892253551632 13.804878048598766,237.4281457401812 17.668292682617903,248.25579097517766 37.687804877758026,240.58621271140873 33.12195121869445,233.81892253551632 19.42439024336636,233.81892253551632 14.156097559258342,238.33045090688393 17.317073170095682,247.80463982117362 30.312195122241974,247.35348860314116 37.687804877758026,237.87929835612886 18.019512193277478,233.81892253551632 13.804878048598766,238.33045090688393 19.42439024336636,247.80463982117362 35.93170731514692,245.54888309561647 38.74146341346204,239.23275581817143 20.829268291592598,232.46546278661117 14.858536584302783,236.0746875142213 15.912195121869445,247.35348860314116 36.985365852713585,241.9396690321155 31.36585365794599,232.91661609965377 16.96585365757346,233.81892253551632 18.3707317057997,248.25579097517766 33.47317073121667,245.09773155930452 37.687804877758026,237.4281457401812 15.912195121869445,235.17238171421923 19.775609754025936,248.70694206724875 37.336585365235806,240.13506047683768 31.36585365794599,232.91661609965377 15.912195121869445,235.17238171421923 14.507317073643208,243.29312478168868 22.936585364863276,249.15809309552424 38.39024390280247,239.23275581817143 30.66341463290155,232.46546278661117 15.209756096825004,234.72122871875763 16.61463414505124,248.25579097517766 28.556097561493516,249.15809309552424 37.687804877758026,239.683908179868 19.07317073084414,232.91661609965377 13.804878048598766,241.9396690321155 17.668292682617903,248.25579097517766 35.93170731514692,245.09773155930452 38.0390243884176,239.683908179868 20.126829266548157,233.81892253551632 15.209756096825004,236.97699306136928 18.3707317057997,248.25579097517766 32.06829268112779,248.70694206724875 38.0390243884176,242.39082101290114 36.634146340191364,236.0746875142213 23.639024389907718,232.46546278661117 16.61463414505124,235.17238171421923 16.263414634391665,246.45118597638793 36.634146340191364,242.39082101290114 31.01463414542377,232.91661609965377 16.263414634391665,234.72122871875763 16.263414634391665,246.90233732084744 36.985365852713585,243.74427657248452 34.175609754398465,233.81892253551632 20.126829266548157,232.46546278661117 14.858536584302783,236.52584031992592 17.668292682617903,247.80463982117362 35.93170731514692,246.90233732084744 32.41951219551265,232.91661609965377 16.263414634391665,234.27007565880194 13.804878048598766,242.39082101290114 30.312195122241974,247.80463982117362 36.985365852713585,242.39082101290114 31.71707317046821,232.46546278661117 13.804878048598766,239.23275581817143 19.42439024336636,249.15809309552424 32.41951219551265,247.80463982117362 37.687804877758026,238.78160339407623 27.50243902206421,232.91661609965377 16.96585365757346,234.27007565880194 13.804878048598766,244.64657996036112 34.878048779442906,244.64657996036112 36.634146340191364,236.0746875142213 29.960975607857108,232.01430941093713 15.209756096825004,234.72122871875763 14.156097559258342,243.74427657248452 22.23414634168148,247.80463982117362 36.282926827669144,242.39082101290114 36.985365852713585,236.52584031992592 27.853658536449075,232.46546278661117 16.263414634391665,235.17238171421923 15.912195121869445,246.0000345672015 35.58048780448735,244.64657996036112 35.58048780448735,235.6235346456524 19.775609754025936,232.46546278661117 13.804878048598766,243.29312478168868 32.06829268112779,246.90233732084744 36.634146340191364,242.84197292895988 33.824390241876245,232.91661609965377 19.775609754025936,232.01430941093713 12.751219511032104,241.48851698893122 19.07317073084414,248.70694206724875 35.93170731514692,245.54888309561647 35.93170731514692,234.72122871875763 29.609756097197533,232.01430941093713 15.560975609347224,234.27007565880194 14.858536584302783,244.19542829832062 32.77073170617223,246.90233732084744 37.336585365235806,238.78160339407623 32.06829268112779,232.91661609965377 17.668292682617903,232.46546278661117 14.156097559258342,242.39082101290114 32.06829268112779,247.35348860314116 37.687804877758026,238.78160339407623 28.90731707215309,232.46546278661117 18.72195121832192,232.91661609965377 14.156097559258342,242.39082101290114 18.019512193277478,247.35348860314116 34.878048779442906,246.45118597638793 38.74146341346204,241.03736488264985 32.77073170617223,232.01430941093713 13.453658536076546,238.78160339407623 18.72195121832192,248.25579097517766 33.12195121869445,246.90233732084744 37.336585365235806,236.97699306136928 32.06829268112779,232.01430941093713 16.61463414505124,234.27007565880194 13.453658536076546,239.683908179868 15.912195121869445,246.0000345672015 31.36585365794599,247.35348860314116 36.985365852713585,241.48851698893122 32.06829268112779,233.36776934866793 17.317073170095682,233.81892253551632 13.102439023554325,241.9396690321155 16.96585365757346,247.80463982117362 32.06829268112779,247.35348860314116 36.634146340191364,243.29312478168868 31.01463414542377,232.46546278661117 18.019512193277478,233.36776934866793 12.400000000372529,241.9396690321155 29.960975607857108,247.80463982117362 36.282926827669144,244.19542829832062 34.52682926878333,233.81892253551632 21.18048780411482,232.01430941093713 12.400000000372529,237.87929835612886 16.61463414505124,246.0000345672015 30.66341463290155,246.45118597638793 37.336585365235806,236.97699306136928 33.12195121869445,232.46546278661117 13.102439023554325,235.6235346456524 15.912195121869445,246.0000345672015 30.312195122241974,246.90233732084744 37.336585365235806,241.48851698893122 34.175609754398465,232.91661609965377 14.507317073643208,237.4281457401812 18.019512193277478,246.45118597638793 29.609756097197533,246.90233732084744 36.282926827669144,244.64657996036112 34.52682926878333,233.81892253551632 18.3707317057997,232.46546278661117 12.400000000372529,238.78160339407623 18.019512193277478,247.35348860314116 31.71707317046821,247.35348860314116 37.336585365235806,240.13506047683768 29.609756097197533,233.36776934866793 20.126829266548157,232.91661609965377 13.102439023554325,240.13506047683768 16.263414634391665,246.0000345672015 29.960975607857108,246.0000345672015 36.634146340191364,243.29312478168868 34.175609754398465,233.36776934866793 17.317073170095682,233.36776934866793 13.453658536076546,238.33045090688393 18.019512193277478,246.90233732084744 32.77073170617223,246.0000345672015 37.336585365235806,241.03736488264985 33.12195121869445,232.46546278661117 18.019512193277478,232.01430941093713 13.453658536076546,238.33045090688393 19.07317073084414,246.90233732084744 32.77073170617223,246.0000345672015 38.0390243884176,240.13506047683768 32.06829268112779,232.91661609965377 13.453658536076546,237.87929835612886 19.07317073084414,246.45118597638793 33.824390241876245,245.09773155930452 37.687804877758026,240.13506047683768 31.71707317046821,231.56315596983768 15.912195121869445,233.36776934866793 13.804878048598766,244.19542829832062 35.93170731514692,244.64657996036112 35.58048780448735,234.72122871875763 29.258536584675312,232.01430941093713 16.263414634391665,233.81892253551632 13.102439023554325,240.58621271140873 20.829268291592598,248.25579097517766 36.634146340191364,245.09773155930452 34.52682926878333,234.72122871875763 20.829268291592598,232.91661609965377 14.858536584302783,234.72122871875763 14.156097559258342,245.09773155930452 35.58048780448735,244.64657996036112 36.985365852713585,238.33045090688393 26.09756097383797,232.91661609965377 16.96585365757346,233.81892253551632 12.751219511032104,242.84197292895988 32.77073170617223,246.45118597638793 36.985365852713585,237.4281457401812 27.50243902206421,232.01430941093713 17.317073170095682,233.36776934866793 13.102439023554325,243.74427657248452 23.287804877385497,248.25579097517766 36.282926827669144,244.19542829832062 33.824390241876245,233.81892253551632 27.151219511404634,232.46546278661117 14.507317073643208,236.0746875142213 14.156097559258342,244.64657996036112 34.175609754398465,246.90233732084744 36.634146340191364,236.0746875142213 31.71707317046821,232.01430941093713 14.858536584302783,235.17238171421923 13.804878048598766,242.84197292895988 34.52682926878333,244.64657996036112 35.93170731514692,234.72122871875763 30.66341463290155,231.11200246564113 16.96585365757346,232.91661609965377 13.453658536076546,242.39082101290114 32.06829268112779,247.35348860314116 37.336585365235806,237.87929835612886 33.47317073121667,232.91661609965377 15.912195121869445,233.81892253551632 12.400000000372529,241.48851698893122 20.829268291592598,247.80463982117362 34.175609754398465,246.45118597638793 38.0390243884176,238.33045090688393 29.258536584675312,231.56315596983768 15.209756096825004,234.72122871875763 13.804878048598766,242.39082101290114 33.824390241876245,246.90233732084744 37.687804877758026,237.87929835612886 33.12195121869445,232.91661609965377 19.42439024336636,232.91661609965377 13.102439023554325,241.48851698893122 32.41951219551265,247.35348860314116 37.336585365235806,242.84197292895988 31.71707317046821,233.36776934866793 13.102439023554325,240.58621271140873 20.478048780933022,248.25579097517766 33.824390241876245,246.90233732084744 37.687804877758026,241.48851698893122 32.41951219551265,232.91661609965377 18.019512193277478,233.36776934866793 13.453658536076546,241.9396690321155 19.07317073084414,247.80463982117362 32.41951219551265,246.90233732084744 37.336585365235806,238.33045090688393 32.06829268112779,233.36776934866793 16.263414634391665,233.81892253551632 12.400000000372529,241.48851698893122 32.41951219551265,246.45118597638793 36.985365852713585,243.29312478168868 32.41951219551265,232.91661609965377 13.102439023554325,236.97699306136928 16.263414634391665,246.45118597638793 32.06829268112779,246.90233732084744 36.634146340191364,242.84197292895988 32.06829268112779,232.91661609965377 16.96585365757346,232.91661609965377 13.804878048598766,243.29312478168868 35.22926829196513,244.64657996036112 38.39024390280247,239.683908179868 29.960975607857108,232.01430941093713 13.102439023554325,239.23275581817143 15.209756096825004,245.09773155930452 28.20487804710865,246.45118597638793 35.93170731514692,242.84197292895988 33.47317073121667,233.36776934866793 13.804878048598766,235.6235346456524 16.96585365757346,246.0000345672015 30.66341463290155,246.90233732084744 38.0390243884176,238.78160339407623 29.960975607857108,231.56315596983768 15.209756096825004,234.27007565880194 13.453658536076546,241.9396690321155 22.23414634168148,248.70694206724875 36.282926827669144,244.64657996036112 29.960975607857108,232.46546278661117 20.126829266548157,232.46546278661117 13.453658536076546,241.48851698893122 32.41951219551265,246.90233732084744 36.985365852713585,238.78160339407623 33.12195121869445,233.36776934866793 13.804878048598766,237.4281457401812 19.42439024336636,247.35348860314116 33.824390241876245,246.90233732084744 36.282926827669144,235.6235346456524 30.66341463290155,232.01430941093713 16.263414634391665,233.36776934866793 14.156097559258342,244.19542829832062 33.12195121869445,246.90233732084744 36.985365852713585,241.03736488264985 32.06829268112779,232.91661609965377 17.668292682617903,232.91661609965377 12.751219511032104,241.03736488264985 19.42439024336636,247.80463982117362 34.878048779442906,245.54888309561647 31.36585365794599,232.46546278661117 24.69268292374909,232.46546278661117 28.556097561493516,240.13506047683768 42.25365853495896,248.70694206724875 45.4146341457963,259.5345492132474 55.59999999962747,260.8879975345917" stroke="#4dd2ff" stroke-linecap="round" stroke-linejoin="round" stroke-width="0.5"><title>2021-06-01 11.4km</title></polyline><polyline fill="none" points="117.27999999932945,250.1619072263129 102.69999999925494,233.51437924895436 80.5599999986589,243.22544406633824 80.5599999986589,255.017425626982 110.25999999977648,250.85555300442502 104.32000000029802,231.43343429919332 90.81999999843538,233.51437924895436 78.40000000037253,251.54919868521392 90.81999999843538,263.34116033185273 113.5,253.63013514317572 113.5,235.59532332140952 102.69999999925494,231.43343429919332 82.72000000067055,251.54919868521392 110.80000000074506,250.85555300442502 116.74000000022352,242.5317972144112 105.93999999947846,228.6588396676816 83.25999999977648,245.3063840395771 90.27999999932945,258.4856501305476 110.80000000074506,254.3237804346718 117.27999999932945,244.61273747915402 106.48000000230968,230.73978578671813 86.5,238.369914048817 83.25999999977648,254.3237804346718 112.42000000178814,249.46826134761795 116.74000000022352,240.4508560714312 103.77999999932945,228.6588396676816 82.72000000067055,239.75720882741734 83.25999999977648,250.1619072263129 114.04000000096858,254.3237804346718 119.43999999947846,236.9826188813895 111.87999999895692,232.12708271527663 87.04000000096858,241.83815026516095 94.60000000149012,260.56658365996554 116.74000000022352,251.54919868521392 118.90000000037253,238.369914048817 90.81999999843538,232.12708271527663 80.5599999986589,241.83815026516095 108.6399999987334,249.46826134761795 117.81999999843538,246.00003050314263 112.96000000089407,230.04613717785105 88.11999999918044,230.73978578671813 82.18000000156462,245.3063840395771 112.42000000178814,250.1619072263129 118.90000000037253,241.83815026516095 110.80000000074506,230.04613717785105 82.18000000156462,239.75720882741734 89.74000000022352,255.71107072290033 113.5,250.85555300442502 118.3600000012666,234.2080273698084 110.80000000074506,229.35248846979812 85.96000000089407,233.51437924895436 82.18000000156462,243.22544406633824 93.51999999955297,252.93648975528777 116.74000000022352,246.69367686612532 116.74000000022352,232.82073103031144 106.48000000230968,229.35248846979812 87.04000000096858,233.51437924895436 85.41999999806285,251.54919868521392 115.11999999918044,251.54919868521392 120.51999999955297,241.1445032185875 108.6399999987334,229.35248846979812 84.33999999985099,234.90167539427057 86.5,252.93648975528777 117.27999999932945,246.00003050314263 119.43999999947846,236.9826188813895 104.85999999940395,230.04613717785105 89.74000000022352,231.43343429919332 82.72000000067055,246.69367686612532 94.06000000238419,255.017425626982 117.27999999932945,246.00003050314263 106.48000000230968,229.35248846979812 85.96000000089407,234.2080273698084 82.72000000067055,245.3063840395771 94.06000000238419,255.017425626982 111.34000000171363,251.54919868521392 119.43999999947846,245.3063840395771 114.04000000096858,231.43343429919332 83.25999999977648,239.75720882741734 87.5800000000745,254.3237804346718 112.96000000089407,249.46826134761795 119.43999999947846,243.22544406633824 111.34000000171363,229.35248846979812 89.20000000111759,231.43343429919332 83.25999999977648,241.1445032185875 93.51999999955297,255.71107072290033 114.57999999821186,250.85555300442502 119.98000000044703,243.91909082233906 110.25999999977648,231.43343429919332 85.96000000089407,233.51437924895436 82.72000000067055,241.1445032185875 87.04000000096858,253.63013514317572 110.25999999977648,254.3237804346718 118.3600000012666,250.1619072263129 115.11999999918044,233.51437924895436 92.97999999858439,231.43343429919332 83.80000000074506,239.75720882741734 87.5800000000745,253.63013514317572 110.80000000074506,254.3237804346718 120.51999999955297,240.4508560714312 114.57999999821186,233.51437924895436 91.3600000012666,232.12708271527663 83.25999999977648,241.83815026516095 86.5,253.63013514317572 114.04000000096858,250.85555300442502 117.81999999843538,234.90167539427057 109.18000000156462,231.43343429919332 83.80000000074506,236.28897115122527 83.25999999977648,246.00003050314263 89.20000000111759,256.4047157210298 110.25999999977648,254.3237804346718 118.90000000037253,248.7746153739281 113.5,233.51437924895436 83.25999999977648,239.75720882741734 90.27999999932945,256.4047157210298 111.34000000171363,253.63013514317572 119.43999999947846,247.38732313271612 111.34000000171363,230.73978578671813 86.5,234.2080273698084 83.80000000074506,243.91909082233906 94.60000000149012,257.09836062043905 116.74000000022352,251.54919868521392 112.42000000178814,230.04613717785105 86.5,234.2080273698084 84.33999999985099,246.00003050314263 88.11999999918044,255.017425626982 110.25999999977648,255.71107072290033 119.98000000044703,239.75720882741734 113.5,232.12708271527663 84.88000000268221,236.28897115122527 90.81999999843538,257.79200542438775 111.34000000171363,257.09836062043905 118.90000000037253,251.54919868521392 115.66000000201166,235.59532332140952 83.80000000074506,239.06356148794293 91.3600000012666,259.1792947370559 109.72000000067055,257.09836062043905 118.3600000012666,251.54919868521392 116.74000000022352,236.28897115122527 91.90000000037253,232.12708271527663 83.25999999977648,242.5317972144112 87.04000000096858,255.017425626982 114.04000000096858,253.63013514317572 120.51999999955297,239.06356148794293 111.87999999895692,231.43343429919332 87.04000000096858,233.51437924895436 84.88000000268221,241.83815026516095 92.4400000013411,259.1792947370559 111.34000000171363,257.09836062043905 117.81999999843538,237.67626651376486 84.88000000268221,238.369914048817 87.04000000096858,252.93648975528777 99.45999999903142,257.79200542438775 118.3600000012666,250.85555300442502 115.66000000201166,234.2080273698084 81.64000000059605,239.06356148794293 90.81999999843538,258.4856501305476 102.69999999925494,257.79200542438775 115.11999999918044,254.3237804346718 118.90000000037253,236.9826188813895 85.96000000089407,237.67626651376486 87.04000000096858,255.017425626982 106.48000000230968,258.4856501305476 119.98000000044703,249.46826134761795 112.96000000089407,234.90167539427057 88.11999999918044,234.2080273698084 81.64000000059605,242.5317972144112 94.60000000149012,255.017425626982 111.87999999895692,253.63013514317572 118.90000000037253,236.9826188813895 111.87999999895692,230.73978578671813 83.25999999977648,239.06356148794293 87.5800000000745,252.24284426867962 103.24000000208616,257.79200542438775 119.98000000044703,246.69367686612532 117.27999999932945,236.28897115122527 85.41999999806285,236.9826188813895 87.5800000000745,255.71107072290033 108.09999999962747,258.4856501305476 119.43999999947846,243.22544406633824 113.5,235.59532332140952 96.2199999988079,233.51437924895436 82.72000000067055,243.91909082233906 93.51999999955297,257.79200542438775 110.80000000074506,257.09836062043905 120.51999999955297,242.5317972144112 114.04000000096858,233.51437924895436 86.5,236.28897115122527 88.11999999918044,253.63013514317572 102.16000000014901,257.09836062043905 117.81999999843538,250.85555300442502 115.11999999918044,235.59532332140952 84.33999999985099,237.67626651376486 89.74000000022352,257.09836062043905 113.5,257.09836062043905 120.51999999955297,243.91909082233906 105.40000000037253,232.12708271527663 90.81999999843538,232.82073103031144 84.33999999985099,248.0809693033807 89.20000000111759,257.09836062043905 112.96000000089407,256.4047157210298 114.57999999821186,234.90167539427057 92.4400000013411,232.12708271527663 82.72000000067055,247.38732313271612 95.67999999970198,257.09836062043905 114.04000000096858,255.017425626982 112.96000000089407,233.51437924895436 90.81999999843538,232.82073103031144 83.80000000074506,241.1445032185875 88.66000000014901,256.4047157210298 109.72000000067055,257.09836062043905 118.90000000037253,241.83815026516095 112.96000000089407,234.90167539427057 90.81999999843538,232.12708271527663 81.64000000059605,245.3063840395771 91.90000000037253,256.4047157210298 115.11999999918044,253.63013514317572 117.27999999932945,235.59532332140952 108.09999999962747,232.12708271527663 93.51999999955297,231.43343429919332 83.25999999977648,248.0809693033807 110.80000000074506,255.017425626982 119.98000000044703,240.4508560714312 109.18000000156462,230.73978578671813 85.96000000089407,235.59532332140952 85.41999999806285,251.54919868521392 115.11999999918044,254.3237804346718 119.98000000044703,246.00003050314263 109.18000000156462,232.12708271527663 82.18000000156462,243.22544406633824 89.74000000022352,255.017425626982 113.5,254.3237804346718 119.43999999947846,238.369914048817 111.34000000171363,234.2080273698084 83.25999999977648,241.83815026516095 90.27999999932945,255.71107072290033 112.42000000178814,253.63013514317572 119.43999999947846,246.69367686612532 114.57999999821186,232.82073103031144 84.88000000268221,235.59532332140952 81.09999999962747,246.00003050314263 90.27999999932945,256.4047157210298 111.87999999895692,252.93648975528777 118.3600000012666,236.9826188813895 110.25999999977648,232.12708271527663 87.04000000096858,232.82073103031144 82.18000000156462,241.83815026516095 91.3600000012666,255.71107072290033 114.04000000096858,252.93648975528777 118.90000000037253,237.67626651376486 111.34000000171363,234.2080273698084 90.81999999843538,232.82073103031144 82.18000000156462,243.91909082233906 91.3600000012666,256.4047157210298 112.96000000089407,254.3237804346718 119.98000000044703,247.38732313271612 111.34000000171363,231.43343429919332 87.5800000000745,232.82073103031144 83.80000000074506,241.1445032185875 93.51999999955297,255.71107072290033 117.27999999932945,252.93648975528777 121.60000000149012,244.61273747915402 111.87999999895692,233.51437924895436 87.04000000096858,234.90167539427057 83.25999999977648,244.61273747915402 94.60000000149012,257.09836062043905 115.66000000201166,252.93648975528777 121.0599999986589,243.91909082233906 109.18000000156462,231.43343429919332 86.5,234.90167539427057 82.72000000067055,247.38732313271612 92.4400000013411,257.09836062043905 115.11999999918044,252.93648975528777 114.04000000096858,233.51437924895436 92.97999999858439,232.12708271527663 82.72000000067055,246.00003050314263 89.74000000022352,255.71107072290033 117.27999999932945,250.85555300442502 116.74000000022352,235.59532332140952 106.48000000230968,231.43343429919332 91.3600000012666,232.12708271527663 83.80000000074506,248.0809693033807 100.0,256.4047157210298 116.74000000022352,252.24284426867962 112.42000000178814,232.12708271527663 84.33999999985099,238.369914048817 95.67999999970198,257.09836062043905 114.57999999821186,254.3237804346718 121.60000000149012,247.38732313271612 114.04000000096858,232.82073103031144 90.27999999932945,232.82073103031144 84.33999999985099,246.69367686612532 92.4400000013411,255.71107072290033 115.66000000201166,254.3237804346718 121.0599999986589,246.00003050314263 109.18000000156462,232.82073103031144 86.5,235.59532332140952 83.25999999977648,244.61273747915402 94.60000000149012,257.09836062043905 117.27999999932945,252.93648975528777 121.0599999986589,244.61273747915402 109.18000000156462,232.12708271527663 85.96000000089407,235.59532332140952 87.04000000096858,252.93648975528777 119.43999999947846,250.85555300442502 116.20000000111759,234.90167539427057 105.93999999947846,231.43343429919332 87.5800000000745,233.51437924895436 82.72000000067055,247.38732313271612 90.81999999843538,255.71107072290033 117.81999999843538,251.54919868521392 120.51999999955297,242.5317972144112 106.48000000230968,232.12708271527663 84.88000000268221,236.9826188813895 85.96000000089407,252.93648975528777 116.74000000022352,252.93648975528777 115.66000000201166,234.90167539427057 104.32000000029802,232.82073103031144 89.20000000111759,233.51437924895436 81.64000000059605,246.69367686612532 111.34000000171363,255.71107072290033 118.90000000037253,241.1445032185875 112.96000000089407,234.90167539427057 88.11999999918044,234.2080273698084 82.18000000156462,248.7746153739281 112.42000000178814,255.71107072290033 120.51999999955297,241.83815026516095 104.32000000029802,232.12708271527663 91.3600000012666,232.82073103031144 83.25999999977648,248.7746153739281 98.38000000081956,257.79200542438775 117.27999999932945,253.63013514317572 115.66000000201166,234.90167539427057 105.93999999947846,232.12708271527663 85.41999999806285,238.369914048817 83.25999999977648,249.46826134761795 95.67999999970198,256.4047157210298 119.43999999947846,248.7746153739281 111.34000000171363,232.82073103031144 99.45999999903142,232.12708271527663 87.04000000096858,234.90167539427057 83.80000000074506,251.54919868521392 115.66000000201166,253.63013514317572 116.20000000111759,235.59532332140952 105.93999999947846,231.43343429919332 84.33999999985099,236.28897115122527 86.5,254.3237804346718 118.3600000012666,250.85555300442502 115.66000000201166,234.90167539427057 105.93999999947846,232.12708271527663 89.74000000022352,234.2080273698084 82.72000000067055,250.85555300442502 115.66000000201166,254.3237804346718 118.3600000012666,238.369914048817 98.38000000081956,232.12708271527663 87.04000000096858,234.90167539427057 85.41999999806285,251.54919868521392 118.90000000037253,250.1619072263129" stroke="#4dd2ff" stroke-linecap="round" stroke-linejoin="round" stroke-width="0.5"><title>2020-11-29 10.4km</title></polyline></svg>