<?xml version="1.0" encoding="utf-8" ?>
<svg baseProfile="full" height="300mm" version="1.1" viewBox="0,0,200,300" width="200mm" xmlns="http://www.w3.org/2000/svg" xmlns:ev="http://www.w3.org/2001/xml-events" xmlns:xlink="http://www.w3.org/1999/xlink"><defs /><rect fill="#222222" height="300" width="200" x="0" y="0" /><text fill="#FFFFFF" style="font-size:12px; font-family:Arial; font-weight:bold;" x="10" y="20">Over 10km Runs</text><text fill="#FFFFFF" style="font-size:4px; font-family:Arial" x="10" y="280">ATHLETE</text><text fill="#FFFFFF" style="font-size:9px; font-family:Arial" x="10" y="290">Abuqi</text><text fill="#FFFFFF" style="font-size:4px; font-family:Arial" x="120" y="280">STATISTICS</text><text fill="#FFFFFF" style="font-size:3px; font-family:Arial" x="120" y="285">Number: 9</text><text fill="#FFFFFF" style="font-size:3px; font-family:Arial" x="120" y="290">Weekly: 1.1</text><text fill="#FFFFFF" style="font-size:3px; font-family:Arial" x="141" y="285">Total: 127.9 km</text><text fill="#FFFFFF" style="font-size:3px; font-family:Arial" x="141" y="290">Avg: 14.2 km</text><text fill="#FFFFFF" style="font-size:3px; font-family:Arial" x="167" y="285">Min: 10.0 km</text><text fill="#FFFFFF" style="font-size:3px; font-family:Arial" x="167" y="290">Max: 21.6 km</text><polyline fill="none" points="36.24718256946653,50.26168536551995 35.76033057831228,53.33451561987749 32.92036063107662,55.88650782665354 32.55522163794376,59.740503575565526 28.61983471084386,63.334058110485785 25.982719759689644,67.29213583702222 25.820435762405396,69.42739706329303 27.078136739321053,71.30225043941755 31.09466566494666,72.1355155633064 32.92036063107662,73.48956739524147 35.6791885800194,79.58273944252869 41.27798647619784,80.05144083691994 45.25394440279342,85.25919424195308 47.72877535689622,85.93619681193377 53.4087152518332,84.7384221930115 57.10067618335597,81.1971528622962 57.587528174277395,72.65630531468196 60.062359128380194,65.99014124902897 66.83771600318141,53.80325019953307 67.0,51.77206274130731 66.14800901571289,49.79294630809454 64.72802404221147,48.38672557959217 41.44027047348209,38.17844482007786 30.202103681396693,34.324224898184184 25.94214876019396,43.595118597731926 22.615326822036877,47.70965443746536 20.383921863278374,52.29288109909976 23.38617580756545,53.64700540545164 26.347858752822503,51.615817091282224 27.808414725819603,48.07423135996214 29.471825695130974,46.563838918169495 32.67693463573232,45.9388471422717 34.94891059352085,46.87633441094658 36.6934635611251,49.27212443802273 36.936889556702226,52.240799296298064 34.340345604810864,55.938589117402444 32.83921863255091,61.0425201121252 29.106686701532453,63.49029882196919 26.469571750611067,67.76085276945378 26.834710743743926,70.57314191979822 32.63636363646947,72.70838424950489 33.812922614626586,74.11451272663544 34.82719759573229,77.86416259384714 36.16604057117365,79.42650551290717 40.872276483802125,79.53066147325444 42.65740045090206,80.36390810404555 45.90308039076626,85.31127140665194 49.18933132989332,85.57165712025017 53.48985725012608,84.68634494792786 56.857250187778845,81.97831812227378 57.26296018017456,74.37490630376851 58.317806160775945,70.15650783621822 66.83771600318141,53.54284217298846 66.67543200613,50.938751846697414 65.17430503387004,48.803384129161714 30.7295266718138,34.16797189414501 29.14725770102814,35.93883541881223 20.383921863278374,52.34496289474191 23.345604808302596,53.95949492757791 26.22614575526677,51.87622647138778 29.187828700290993,46.615921518648975 30.972952667158097,45.782599033555016 34.13749060849659,46.095095184864476 36.6934635611251,48.126313748100074 37.05860255449079,52.13663566872128 33.93463561218232,56.66772641890566 33.528925619786605,59.89674580137944 32.39293764089234,61.51124494604301 29.2689706988167,63.229897599841934 26.469571750611067,67.34421552557615 26.388429752085358,69.73987328444491 27.60555972950533,71.25017130700871 33.36664162273519,73.43748857008177 35.96318557485938,79.27027151710354 41.0751314801164,79.58273944252869 43.38767843716778,81.4054637591471 45.33508640131913,84.99880830899929 47.2419233659748,85.67581135447836 50.609316303627566,85.57165712025017 53.77385424496606,84.3738813236705 56.97896318556741,81.30130832528812 57.303531179670244,74.16659145677113 58.43951915856451,69.42739706329303 66.91885800147429,53.594923792843474 66.79714500368573,51.563735193165485 65.25544703216292,49.01171322859591 49.79789631860331,41.772208374139154 30.283245680155233,34.2200562361686 20.221637866226956,52.29288109909976 23.142749811988324,53.95949492757791 26.14500375650823,51.77206274130731 27.848985725082457,48.07423135996214 30.120961682870984,46.19926051030052 33.77235161536373,46.14717785123503 36.734034560620785,48.02214896446094 37.18031555227935,51.042915811005514 36.61232156283222,53.178270628501195 34.09691960946657,56.04275167686865 33.04207362886518,60.52171404621913 29.14725770102814,63.334058110485785 26.388429752085358,67.70877313960227 26.388429752085358,70.05234924214892 27.808414725819603,71.35432956455043 30.52667167549953,71.9271994579467 33.12321562739089,73.54164621318341 35.719759579282254,79.27027151710354 41.521412471774966,79.73897330655018 43.42824943643063,81.4054637591471 45.53794139740057,85.15503989066929 50.36589030805044,85.5195799919893 54.098422239068896,84.47803589433897 57.141247182385996,81.45754146506079 57.303531179670244,74.27074889504001 58.398948159534484,69.84403196626226 66.79714500368573,54.115739589964505 66.63486100663431,50.7825058454182 64.84973704000004,48.43880792387063 30.404958677710965,34.06380318806623 20.05935386917554,52.60537176267826 22.6558978210669,54.011576488934224 25.65815176581964,52.34496289474191 27.88955672411248,47.60548953645048 30.120961682870984,46.19926051030052 34.13749060849659,46.355508443230065 36.53117956430651,48.07423135996214 37.018031555227935,51.71998086528038 36.20661157020368,53.69908701069653 33.69120961683802,56.14691420691088 33.2043576259166,60.52171404621913 28.903831705683842,63.59445925964974 26.22614575526677,67.70877313960227 26.30728775355965,69.73987328444491 27.402704733191058,71.19809216732392 30.688955672318116,71.82304136134917 32.83921863255091,73.17709433453274 36.16604057117365,79.42650551290717 41.602554470300674,79.7910512467206 43.549962434219196,81.71792988511152 44.48309541703202,84.53011316878838 45.70022539421916,85.31127140665194 50.73102930141613,85.5195799919893 54.13899323833175,84.47803589433897 56.938392186304554,81.77000754710753 57.74981217132881,70.62522114723106 66.79714500368573,53.23035229960806 66.3102930127643,50.26168536551995 64.56574004492722,48.17839612910757 40.42599549214356,37.81385816523107 30.283245680155233,34.2200562361686 20.26220886548981,52.18871748622041 20.586776859592646,53.33451561987749 22.89932381687686,55.001124765578425 22.45304282498546,58.803048837638926 17.462809917284176,67.24005614136695 17.706235912628472,72.65630531468196 13.689706987235695,76.97883201739751 14.176558978157118,79.37442752157222 15.83996994746849,81.1971528622962 19.369646881939843,81.45754146506079 21.235912847565487,82.96779175568372 15.596543952124193,81.24923059745925 13.770848985761404,79.42650551290717 13.0,77.39545843427186 14.541697971522808,74.63529969821684 17.259954921202734,72.86462101043435 17.543951915809885,66.71925878160982 22.250187828671187,59.06345316930674 22.45304282498546,55.62610126362415 23.426746806828305,54.011576488934224 26.51014274964109,52.18871748622041 27.88955672411248,48.54297259048326 29.025544703239575,47.34507715643849 31.297520661260933,46.40759107287158 34.259203606285155,47.34507715643849 36.12546957167797,49.06379548521363 36.734034560620785,51.09499778220197 33.894064613152295,56.66772641890566 32.83921863255091,60.73003656041692 29.106686701532453,63.542379044374684" stroke="#ff0800" stroke-linecap="round" stroke-linejoin="round" stroke-width="0.5"><title>2023-05-21 21.2km</title></polyline><polyline fill="none" points="124.90760059619788,78.60899471960875 121.19225037260912,77.71313960814587 118.8047690014937,76.23151869465073 116.72578241437441,75.64575664442964 115.00894187786616,74.64650903279107 110.69001490320079,73.0614788537423 107.85991058126092,72.28618488071515 101.77049180329777,71.70040395647084 98.77943368110573,70.37377209138504 97.73323397920467,69.08158437802922 94.82265275710961,66.35933096775261 92.70342771982541,65.23939901783888 87.08345752611058,61.1730984300375 85.40685543965083,58.98482145459275 83.51564828614937,57.4512812085668 82.93889716849662,56.124494934141694 81.32935916550923,53.849970722301805 78.80774962750729,51.489245596530964 77.03725782415131,48.68044033590559 75.15946348733269,46.69872913543077 74.30104321916588,45.06163916171499 73.0,41.32209888023499 75.46795827127062,47.077841586011345 77.13114754093112,48.61151178921864 78.87481371092144,51.472013858903665 81.32935916550923,53.71211941182992 83.67660208645975,57.60635918518528 85.54098360659555,59.10543616470386 87.05663189274492,61.12140729902603 92.6095380030456,65.1015605313878 94.68852459016489,66.10088604243356 98.87332339788554,70.25316848180228 102.0789865872357,71.57980165361369 104.27868852461688,71.71763284716144 106.39791356190108,72.25172725690936 107.81967213121243,72.21726962332468 110.73025335324928,73.00979274156998 119.39493293594569,76.38657288590184 121.25931445608148,77.73036765289726 124.196721311484,78.40225950635067 127.0,78.69513428875507 124.26378539501457,78.47117128288664 121.19225037260912,77.78205177249765 119.16691505216295,76.3176599362123 110.54247391957324,72.95810660763527 107.95380029809894,72.30341368903464 101.91803278686712,71.63148836936307 98.85991058120271,70.39100116878399 94.6080476900679,66.11811572108127 92.5692995529389,65.15324998203869 86.8822652757517,61.155868055495375 85.63487332343357,59.2777426872417 83.59612518636277,57.62359005937469 82.83159463485936,55.9866461848942 81.12816691509215,53.60873082707985 78.96870342775946,51.644331126059114 76.88971684052376,48.54258320371446 75.32041728764307,47.02614450277906 73.88524590159068,44.06214188678132 73.0402384501067,41.304865711252205 74.20715350226965,44.54465883162629 75.45454545458779,47.04337686625513 77.1982116245199,48.76660096466367 78.83457526081474,51.36862338218634 81.18181818182347,53.488110701197 83.0193740685936,56.072801671332854 83.5692995529389,57.39958850607218 85.70193740690593,59.208820107378415 86.9225037258002,60.94910337125475 92.97168405371485,65.23939901783888 94.74217585695442,66.06642667784035 98.91356184805045,70.25316848180228 102.1594634873909,71.54534383096325 108.67809239943745,72.38955769405584 114.36512667668285,74.38808159920882 108.38301043218235,72.38955769405584 106.4113263785257,72.26895606998733 104.23845007456839,71.78654838584043 102.26676602091175,71.76931950474682 98.64530551421922,70.235939385042 94.80923994042678,66.32487167593354 92.59612518630456,65.17047979404015 87.48584202688653,61.44878409364901 92.94485842029098,65.30831820287858 94.72876304027159,66.15257507112983 99.31594634870999,70.442688386378 102.038748137129,71.59703056126455 103.31296572287101,71.59703056126455 106.4918032787391,72.25172725690936 107.91356184799224,72.21726962332468 110.11326378543163,72.78581933689566 119.16691505216295,76.26597519853385 121.27272727276431,77.71313960814587 124.10283159470418,78.28166380412586" stroke="#ff0000" stroke-linecap="round" stroke-linejoin="round" stroke-width="0.5"><title>2023-05-14 21.6km</title></polyline><polyline fill="none" points="182.61467015952803,77.52846901079465 179.38675875210902,76.9172949155909 177.4577280304511,75.61234498267731 174.62848297209712,74.73686411321978 173.2781614669948,73.8778954058289 168.841390807298,72.07734445230017 166.75803762802389,71.63133215054404 165.12479161698138,71.61481314383127 163.0285782329156,71.06968461946235 160.81662300549215,71.0036082626466 157.9230769230635,69.79770821853162 156.98428197187604,68.64135407646245 153.78209097404033,65.68433953663043 152.34174803522183,65.08962370515655 150.61848059057957,63.75150206810213 149.4996427720762,63.23937740555266 146.49035484640626,60.89348749030614 145.30721600377,59.1588204304644 143.3781852821703,57.60585864808672 140.9347463681479,53.73988582288439 138.13122171949362,51.2616311377933 136.81948082882445,49.04767936418648 135.43057870917255,47.791986663098214 134.10597761365352,45.23099280157476 133.0,42.025541089744365 135.1733746129321,47.2137026114724 135.81638485356234,48.12243341332214 136.92236246727407,49.03115717901528 138.65849011664977,51.74076445740502 140.9347463681479,53.72336429825373 142.5937127887155,56.118961092048266 143.18528221006272,57.45716974008974 145.05001190758776,58.97709192166076 146.56751607521437,61.04217204550514 152.1617051679059,64.97398416583746 154.10359609429725,66.03125571359851 158.01309835672146,69.89682375788834 160.94522505352506,71.05316553371085 164.9318885448738,71.69740815402474 166.75803762802389,71.71392714903777 169.12431531312177,72.42424173776817 177.3805668015848,75.61234498267731 179.50250059535028,76.98336794415809 182.03596094303066,77.56150535779307 185.54679685633164,77.97445891025563 187.0,77.54498718545801 186.96141938556684,77.29721432191582 186.16408668726217,77.42935991421837 186.0997856631875,77.82579579868616 185.30245296499925,77.82579579868616 179.59252202906646,76.98336794415809 176.82757799472893,75.36456804042245 169.70302452961914,72.50683617846516 166.5908549654414,71.59829413485568 164.89330793044064,71.58177512353723 163.1957608954399,71.18531815426832 161.11240771610755,71.20183722140791 157.58871159801492,69.74815041749389 153.8721124076983,66.01473591889953 152.07168373418972,65.12266355260363 146.3746130031068,60.992610547997174 144.9599904739298,59.10925813776703 143.1081209811964,57.572816684813006 142.50369135505753,56.28417286174226 140.80614432005677,53.7564073452304 138.55560847820016,51.757286261090485 136.89664205757435,49.17985676170065 135.37913789000595,47.74241957030608 133.99023577041226,44.98315172006551 133.12860204814933,42.223818993763416" stroke="#4dd2ff" stroke-linecap="round" stroke-linejoin="round" stroke-width="0.5"><title>2023-05-07 13.6km</title></polyline><polyline fill="none" points="13.0,141.11959260783624 34.1239669425413,154.1062554004602 38.735537190921605,169.19354606163688 47.06611570343375,166.32888350030407 59.56198347080499,172.24917947279755 65.21487603336573,168.62061403261032 63.280991735868156,158.88073258416262 48.851239670068026,151.0505812014453 37.545454545877874,139.20977879012935 31.743801653385162,142.45646068337373 29.3636363632977,148.94980120379478 35.31404958758503,154.87017287721392 40.371900827623904,169.00256874621846 46.32231405004859,166.13790578197222 58.81818181835115,172.24917947279755 63.280991735868156,170.9123407008592 66.10743801668286,165.56497246411163 61.347107438370585,157.16192273015622 46.91735537163913,150.2866615781095 36.35537190083414,140.16468603454996 29.958677685819566,148.75882104341872 37.099173554219306,157.16192273015622 39.62809917423874,168.81159140274394 49.89256198424846,167.4747492497554 59.710743801668286,172.44015633279923 65.80991735588759,169.5755006141262 66.55371900834143,165.94692803604994 62.83471074420959,158.49877502652816 46.61983471084386,150.4776415239321 36.35537190083414,140.35566740273498 31.148760330863297,144.55725071718916 29.661157025024295,150.4776415239321 36.35537190083414,156.20702742773574 40.52066115755588,169.76647784980014 47.95867768675089,167.4747492497554 58.07438016589731,172.8221099723596 64.91735537257046,170.72136362595484 66.55371900834143,165.1830167856533 62.983471075072885,158.11681736179162 49.44628099165857,151.62352063704748 37.099173554219306,139.97370463912375 30.851239670068026,148.37686064105947 37.2479338850826,156.77996468963102 40.81818181835115,169.19354606163688 47.21487603336573,167.4747492497554 60.157024793326855,172.44015633279923 65.95867768581957,168.81159140274394 66.40495867747813,165.37399463844486 61.49586776923388,156.97094372322317 48.851239670068026,151.24156104004942 36.80165289249271,139.97370463912375 32.6363636367023,142.83842274942435 30.107438017614186,150.09568160492927 36.652892561629415,155.63408992404584 39.776859504170716,168.81159140274394 47.80991735588759,167.28377169161104 60.90082644671202,172.44015633279923 64.32231405004859,170.9123407008592 65.95867768581957,164.4191051053349 60.305785125121474,156.5889856289141 49.1487603308633,151.43254085164517 35.9090909101069,140.16468603454996 29.809917355887592,149.71372157905716 36.652892561629415,155.2521314539481 41.11570248007774,169.76647784980014 47.95867768675089,166.7108388574561 61.049586777575314,172.24917947279755 66.25619834754616,168.62061403261032 67.0,164.80106099927798 62.983471075072885,157.54388066357933 50.041322314180434,150.85960133571643 36.05785124003887,139.40076029265765 30.107438017614186,148.37686064105947 37.69421487674117,157.9258384888526 39.33057851251215,169.19354606163688 48.70247933920473,166.7108388574561 60.00826446246356,172.24917947279755 65.512396694161,168.62061403261032 66.55371900834143,164.99203890550416 63.57851239666343,157.9258384888526 46.17355371918529,148.75882104341872 37.3966942159459,139.20977879012935 29.661157025024295,149.1407813380938 36.35537190083414,154.29723480995744 39.776859504170716,170.148432240705 47.80991735588759,166.90181649569422 59.56198347080499,172.05820258602034 65.3636363632977,168.23865921248216 66.10743801668286,164.80106099927798 60.603305785916746,156.20702742773574 46.17355371918529,148.75882104341872 37.84297520760447,139.0187972605927 32.041322315111756,143.02940374228638 29.661157025024295,150.2866615781095 36.20661157090217,153.72429650148842 40.371900827623904,170.53038652404211 48.40495867840946,167.66572678100783 61.64462810009718,171.4852717644535 65.06611570250243,169.38452335132752 66.40495867747813,163.6551929957932 62.537190082482994,157.3529017100809 47.36363636422902,150.09568160492927 23.71074380259961,127.55985638673883 16.272727272473276,141.8835173835978 33.52892562095076,152.57841915963218 40.07438016589731,170.53038652404211 46.024793388321996,166.90181649569422 61.49586776923388,171.67624873109162 66.25619834754616,167.85670428490266 65.6611570250243,161.1724756746553 58.07438016589731,154.1062554004602 43.793388430029154,146.84901795955375 34.71900826506317,135.39014310378116 23.26446281094104,127.55985638673883 15.677685950882733,139.78272321715485 37.2479338850826,154.67919354815967 40.22314049676061,169.5755006141262 46.61983471084386,165.94692803604994 61.94214876089245,171.29429476999212 66.40495867747813,163.6551929957932 63.42975206673145,158.30779620737303 49.297520661726594,151.24156104004942 34.86776859499514,135.00817894469947 24.305785125121474,127.55985638673883 15.677685950882733,140.73763005936053 35.01652892678976,152.76939878345001 39.62809917423874,169.38452335132752 50.19008264504373,167.09279410727322 60.157024793326855,172.05820258602034 65.80991735588759,168.429636635934 65.95867768581957,162.31834577128757 62.090909090824425,156.97094372322317 43.94214876089245,147.0399983888492 35.31404958758503,135.77210715552792 23.413223141804338,127.17789002764039 15.380165290087461,140.54664874449372 34.71900826506317,152.57841915963218 40.371900827623904,169.95745505893137 46.91735537163913,166.90181649569422 62.23966942168772,171.29429476999212 66.55371900834143,164.61008306557778 61.049586777575314,156.77996468963102 45.727272727526724,149.1407813380938 35.01652892678976,136.15407109993976 22.96694215014577,127.75083952664863 15.528925620019436,139.97370463912375 36.50413223169744,152.3874395089224 38.88429752085358,168.23865921248216 47.06611570343375,166.13790578197222 61.19834710750729,171.10331774840597 64.47107438091189,169.76647784980014 66.25619834754616,164.4191051053349 60.305785125121474,156.5889856289141 47.661157025024295,150.09568160492927 37.099173554219306,139.59174176852684 32.487603305839,142.0744985108031 29.958677685819566,148.94980120379478 36.652892561629415,152.3874395089224 39.776859504170716,168.81159140274394 47.51239669509232,166.32888350030407 62.23966942168772,171.29429476999212 66.7024793382734,164.03714910452254 61.94214876089245,156.97094372322317 47.21487603336573,149.3317614448024 23.26446281094104,128.32378878432792 15.677685950882733,139.78272321715485 35.9090909101069,152.0054801265942 39.925619835965335,169.19354606163688 48.10743801668286,166.51986119290814 60.90082644671202,172.05820258602034 65.80991735588759,169.19354606163688 65.512396694161,162.50932402699254 61.19834710750729,156.77996468963102 47.51239669509232,149.52274152543396 35.31404958758503,135.58112514263485 23.71074380259961,128.13280572521035 17.462809917517006,135.19916103722062 17.01652892678976,141.11959260783624 35.7603305792436,151.62352063704748 40.22314049676061,169.5755006141262 46.76859504263848,167.28377169161104 56.586776859126985,171.4852717644535 63.42975206673145,171.29429476999212 66.7024793382734,166.7108388574561 65.6611570250243,162.12736748857424 57.479338843375444,154.1062554004602 46.61983471084386,150.09568160492927 36.652892561629415,140.35566740273498 31.595041322521865,144.17528913437854 29.3636363632977,150.09568160492927 35.01652892678976,152.19645983097143 40.07438016589731,170.148432240705 47.95867768675089,167.28377169161104 60.305785125121474,172.05820258602034 65.95867768581957,169.00256874621846 65.95867768581957,162.89128045691177 60.157024793326855,156.3980065418873 45.87603305839002,149.1407813380938 23.859504132531583,128.32378878432792 15.975206611678004,141.3105738417944 36.05785124003887,153.34233749494888 40.371900827623904,170.53038652404211 46.471074379980564,166.7108388574561 61.49586776923388,171.8672256715363 66.25619834754616,168.62061403261032 65.95867768581957,162.89128045691177 59.85950413253158,156.3980065418873 47.21487603336573,150.4776415239321 35.462809917517006,136.5360349364346 23.71074380259961,129.2787036773516 16.272727272473276,138.63683412177488 36.20661157090217,154.87017287721392" stroke="#4dd2ff" stroke-linecap="round" stroke-linejoin="round" stroke-width="0.5"><title>2023-05-01 14.7km</title></polyline><polyline fill="none" points="73.0,141.01348835625686 94.84615384601057,153.06157850392628 99.76923076994717,169.84972863656003 108.07692307699472,167.28214219247457 121.30769230797887,172.0222981175175 126.69230769202113,166.6896215772722 124.38461538497359,159.97437048866414 106.0769230760634,151.08648883563 96.5384615380317,139.63091402908321 94.23076923098415,139.82842473045457 87.92307692300528,150.69147056876682 95.76923076901585,155.431682442897 100.38461538404226,170.6397542906925 107.30769230797887,167.4796490080189 118.53846153896302,172.61481648415793 122.84615384601057,172.0222981175175 126.69230769202113,165.8995937028667 124.07692307699472,159.1843388399575 94.5384615380317,139.43340330023784 87.61538461502641,150.0989429608453 94.5384615380317,154.2466309729498 100.38461538404226,170.6397542906925 107.0,167.08463534805924 120.5384615380317,172.8123225508025 126.53846153896302,167.08463534805924 122.53846153896302,158.1967986538075 109.61538461502641,151.67901602736674 96.69230769202113,138.64336010580882 91.92307692300528,141.6060197944753 87.76923076901585,149.9014337026747 97.30769230704755,157.40676600579172 99.30769230797887,170.24474151886534 108.38461538497359,167.4796490080189 121.0,172.417310390505 124.5384615380317,170.6397542906925 126.23076923005283,165.30707250523847 119.61538461595774,156.0242078031879 108.53846153896302,150.8889797157608 96.23076923098415,138.84087094583083 89.76923076808453,144.7661832466256 88.0769230760634,151.08648883563 96.07692307699472,155.03666539734695 99.4615384619683,169.6522221530322 107.30769230797887,167.08463534805924 121.30769230797887,172.2198042679811 126.23076923005283,169.45471564214677 126.69230769202113,166.09710071305744 123.0,158.98683085793164 104.23076923098415,147.92633959348314 95.92307692300528,139.03838175837882 90.53846153896302,144.17365314008202 88.69230769202113,151.48150699143298 95.76923076901585,154.2466309729498 100.38461538404226,170.04723509098403 109.0,167.67715579632204 119.9230769239366,172.8123225508025 125.0,170.44224791880697 126.69230769202113,164.91205823479686 123.0,158.1967986538075 105.4615384619683,148.91388699482195 99.76923076994717,140.61846725898795 94.69230769202113,138.4458492381964 87.92307692300528,150.29645219107624 95.92307692300528,155.23417393420823 99.61538461502641,170.44224791880697 109.0,167.67715579632204 121.92307692300528,172.61481648415793 126.69230769202113,168.26967599487398 126.53846153896302,164.1220293608494 119.0,155.03666539734695 104.69230769202113,148.71637757017743 94.84615384601057,139.03838175837882 88.5384615380317,149.50641510239802 98.0769230760634,157.60427420958877 99.0,169.6522221530322 106.84615384694189,167.87466255691834 120.0769230760634,173.00982859055512 125.15384615398943,171.2322732405737 127.0,166.09710071305744 122.23076923191547,157.40676600579172 105.76923076901585,149.30890576110687 95.0,139.43340330023784 88.84615384507924,150.0989429608453 96.07692307699472,156.0242078031879 99.0,170.44224791880697 107.46153846103698,167.08463534805924 121.92307692300528,172.2198042679811 127.0,166.09710071305744 121.15384615398943,156.2217162012821 108.69230769202113,150.493961394066 95.0,138.64336010580882 89.76923076808453,150.493961394066 96.38461538404226,154.2466309729498 99.61538461502641,171.03476695145946 108.23076923098415,168.26967599487398 118.23076923098415,172.61481648415793 124.69230769202113,170.04723509098403 126.53846153896302,166.09710071305744 120.38461538404226,155.82669937773608 106.69230769202113,149.30890576110687 97.15384615398943,139.03838175837882 94.5384615380317,139.23589254310355 89.30769230704755,150.29645219107624 96.69230769202113,156.0242078031879 98.23076923005283,169.6522221530322 106.0769230760634,167.08463534805924 122.23076923191547,172.417310390505 127.0,168.07216928945854 127.0,164.5170438538771 119.61538461595774,154.2466309729498 108.38461538497359,150.0989429608453 97.0,138.64336010580882 94.69230769202113,139.23589254310355 88.84615384507924,150.8889797157608 96.5384615380317,157.01174951496068 98.69230769202113,170.04723509098403 107.92307692300528,167.08463534805924 116.84615384694189,171.62728573440108 123.61538461595774,171.2322732405737 126.38461538497359,168.66468932188582 125.4615384619683,160.36938614665996 107.0,149.1113963915268 83.0,126.99017140944488 75.92307692300528,136.8657612951938 75.46153846103698,140.22344605007675 96.5384615380317,155.82669937773608 99.61538461502641,169.6522221530322 107.15384615398943,166.6896215772722 116.38461538497359,171.03476695145946 123.61538461595774,171.03476695145946 126.53846153896302,167.4796490080189 124.07692307699472,159.1843388399575 94.69230769202113,138.84087094583083 89.76923076808453,147.13630117254797 96.23076923098415,155.431682442897 99.76923076994717,170.04723509098403 107.61538461595774,166.2946076951921 116.69230769202113,171.42977950093336 123.30769230797887,171.42977950093336 126.38461538497359,167.08463534805924 125.0,159.97437048866414 109.92307692300528,151.48150699143298 99.92307692300528,140.61846725898795 94.84615384601057,139.63091402908321 90.07692307699472,144.7661832466256 89.15384615398943,151.28399792755954 96.5384615380317,157.40676600579172 100.07692307699472,170.6397542906925 107.92307692300528,166.6896215772722 120.69230769202113,172.417310390505 125.92307692300528,168.66468932188582 124.38461538497359,159.1843388399575 105.92307692300528,148.71637757017743 97.76923076901585,138.4458492381964 94.38461538497359,139.82842473045457 89.76923076808453,149.30890576110687 95.61538461595774,153.6541048635263 98.69230769202113,162.54197028127965 103.76923076901585,160.96190942509566 111.0,151.28399792755954" stroke="#4dd2ff" stroke-linecap="round" stroke-linejoin="round" stroke-width="0.5"><title>2023-04-20 10.0km</title></polyline><polyline fill="none" points="134.50990935630398,156.17988745784533 134.24443078815239,155.83895519568614 133.12444307879196,155.4554045669356 133.0,155.17839457182708 133.20740513136843,154.85876639580965 134.02872945152922,154.42193904107262 135.08234751882264,154.26212352589937 139.09771086191176,154.26212352589937 140.5080657551007,153.96380032882735 151.26824396988377,148.38067805958417 153.34229528342257,147.54956742098875 154.93516669227392,147.33646066017536 156.4450760485779,147.42170343642647 174.4727300660743,150.33055568778946 176.64633584266994,150.56496382639307 177.85758180977427,150.51168931315624 179.6910431709839,150.09614682388928 181.0018436011742,149.47815634201834 182.23797818404273,148.4872300460629 184.86787524964893,145.29060525033128 186.245045321848,144.76847705019463 186.96681517898105,144.81109989533434 187.0,144.9389682868059 186.65985558458488,144.99224671956472 184.68535873407382,144.1824104974221 184.28714088187553,143.82011254215467 183.1920417882793,146.1323961980961 181.74850207404234,148.18888410616637 179.98970656015445,149.54208662566816 178.9111998770968,150.01090705719253 177.73313873098232,150.30924582106672 176.20663696416887,150.40514017422538 174.41465662926203,150.245316184868 158.83438316176762,147.7200523979409 155.92241511750035,147.30449459431838 154.48717160854721,147.29383923605928 153.21785220465972,147.5176014450626 151.69135043784627,148.0290554407402 140.41680749729858,153.8146382897612 138.89860193576897,154.0490356478549 134.59287140879314,154.03838123821333 133.16592410512385,154.51782818836364" stroke="#4dd2ff" stroke-linecap="round" stroke-linejoin="round" stroke-width="0.5"><title>2023-03-17 12.5km</title></polyline><polyline fill="none" points="14.36183300014818,246.13227305416513 13.0,245.35379996079428 13.149469475611113,245.0445413083944 13.747347378113773,244.70328891788813 15.225434414867777,244.43668441922637 19.07842534215888,244.43668441922637 20.431954482541187,244.13808626788523 31.24357988621341,238.53915319934458 33.29463324617245,237.71794158218108 35.18791327078361,237.49397323374433 36.37536521605216,237.5686294234256 52.22743349222583,240.17088495238568 54.901276334014256,240.55481673213217 57.72458865138469,240.6721288326371 59.82546516993898,240.1815497503194 61.22051360909245,239.4563400752013 62.42457327386364,238.3898426578162 65.01537751808064,235.35024271144357 66.41042595723411,234.795635891016 66.97508842070238,234.8916258233221 67.0,235.05160877380695 66.31908349992591,235.05160877380695 64.50053821312031,234.17703118945064 64.33446101800655,234.05970903866546 64.34276487774332,233.86772694583487 63.01414731665864,236.57676261845336 61.477933261572616,238.53915319934458 59.966630785755115,239.62697826987278 57.99031216363073,240.3201919866624 56.3959710902418,240.46949872688128 54.610641242499696,240.30952720823552 37.122712594195036,237.5366339225584 35.520067661069334,237.36599102332548 34.28279255723464,237.42998215556145 32.813009380275616,237.7286067251116 31.476087959395954,238.27252702604892 20.407042903272668,243.94612969255104 19.028602183621842,244.24472859975504 14.31200984158204,244.23406437333324 13.12455789631349,244.68196059247566" stroke="#4dd2ff" stroke-linecap="round" stroke-linejoin="round" stroke-width="0.5"><title>2023-03-11 12.5km</title></polyline><polyline fill="none" points="81.78048780560493,229.28518217499368 82.65853658504784,245.07549370080233 104.60975609719753,235.48852626606822 100.21951219439507,224.77365316916257 82.65853658504784,224.2097116857767 80.02439024299383,243.3836775838863 104.60975609719753,235.48852626606822 100.21951219439507,225.90153589844704 80.02439024299383,225.90153589844704 76.07317073084414,234.92458629002795 82.21951219439507,242.81973871891387 97.14634146541357,240.5639824704267 101.53658536635339,229.28518217499368 77.39024390280247,226.46547714271583 80.90243902429938,244.51155507401563 99.34146341495216,241.1279216511175 103.73170731589198,230.97700424259529 79.14634146355093,225.33759457361884 75.19512195140123,232.66882559587248 82.65853658504784,243.94761636923067 99.34146341495216,240.5639824704267 103.73170731589198,229.84912294498645 94.51219512149692,223.08182848314755 78.70731707289815,225.33759457361884 84.85365853458643,244.51155507401563 104.60975609719753,232.66882559587248 98.02439024485648,223.64577012439258 80.46341463364661,224.2097116857767 82.65853658504784,243.94761636923067 93.19512195326388,243.94761636923067 104.1707317084074,232.66882559587248 82.21951219439507,223.08182848314755 74.75609756074846,226.46547714271583 78.70731707289815,238.3082249504514 103.29268292710185,234.92458629002795 101.53658536635339,227.0294183071237 83.53658536635339,222.51788676343858 75.19512195140123,240.5639824704267 100.65853658691049,240.00004320894368 105.04878048785031,232.66882559587248 84.4146341457963,223.08182848314755 73.8780487794429,233.7967061032541 83.97560975514352,242.81973871891387 99.78048780374229,238.87216444918886 101.53658536635339,226.46547714271583 77.82926829345524,225.33759457361884 73.43902439065278,233.2327658890281 81.34146341495216,242.25579977640882 100.65853658691049,238.3082249504514 103.73170731589198,230.4130636334885 83.53658536635339,223.08182848314755 74.75609756074846,231.54094477253966 77.82926829345524,244.51155507401563 103.29268292710185,238.3082249504514 100.21951219439507,224.77365316916257 86.60975609719753,223.08182848314755 75.63414634205401,230.4130636334885 76.95121951214969,240.00004320894368 92.75609756074846,241.6918607535772 103.29268292710185,234.3606462359894 101.09756097570062,225.33759457361884 82.65853658504784,223.08182848314755 73.43902439065278,233.7967061032541 76.95121951214969,241.6918607535772 92.75609756074846,242.81973871891387 105.48780487850308,230.97700424259529 83.97560975514352,224.2097116857767 75.19512195140123,232.66882559587248 80.90243902429938,243.3836775838863 102.4146341457963,236.61640597693622 102.85365853644907,228.1573003998492 83.97560975514352,223.64577012439258 74.31707317009568,236.0524661608506 80.46341463364661,242.81973871891387 98.02439024485648,240.5639824704267 104.60975609719753,230.97700424259529 81.78048780560493,224.77365316916257 74.75609756074846,229.28518217499368 79.5853658542037,242.81973871891387 104.60975609719753,233.2327658890281 98.90243902429938,224.77365316916257 81.78048780560493,224.77365316916257 75.19512195140123,230.4130636334885 79.14634146355093,242.25579977640882 95.39024390280247,241.6918607535772 104.60975609719753,229.84912294498645 80.02439024299383,224.77365316916257 74.75609756074846,230.4130636334885 81.78048780560493,242.25579977640882 102.4146341457963,239.43610386946239 105.92682926729321,231.54094477253966 83.53658536635339,223.08182848314755 76.07317073084414,227.593359392602 77.39024390280247,241.6918607535772 103.73170731589198,234.92458629002795 96.70731707289815,223.64577012439258 78.70731707289815,224.77365316916257 80.46341463364661,242.81973871891387 99.34146341495216,238.87216444918886 104.60975609719753,229.28518217499368 77.39024390280247,226.46547714271583 82.21951219439507,243.3836775838863 104.1707317084074,232.66882559587248 96.70731707289815,223.64577012439258 77.39024390280247,226.46547714271583 75.63414634205401,236.61640597693622 86.17073170654476,243.94761636923067 105.48780487850308,231.54094477253966 95.8292682915926,223.08182848314755 76.51219512149692,225.90153589844704 78.26829268224537,242.81973871891387 93.19512195326388,243.94761636923067 104.60975609719753,232.1048852247186 81.34146341495216,223.64577012439258 74.75609756074846,234.92458629002795 79.5853658542037,242.81973871891387 102.4146341457963,238.87216444918886 105.04878048785031,232.1048852247186 82.65853658504784,224.77365316916257 76.51219512149692,228.72124132653698 80.46341463364661,242.81973871891387 97.58536585234106,243.3836775838863 105.04878048785031,235.48852626606822 103.29268292710185,227.593359392602 87.04878048785031,223.08182848314755 78.26829268224537,226.46547714271583 77.82926829345524,240.5639824704267 103.29268292710185,235.48852626606822 96.26829268224537,223.64577012439258 77.82926829345524,225.90153589844704 77.82926829345524,241.1279216511175 103.73170731589198,237.18034571548924 100.21951219439507,224.77365316916257 82.65853658504784,223.08182848314755 76.07317073084414,228.1573003998492 79.5853658542037,242.25579977640882 102.4146341457963,241.1279216511175 98.02439024485648,223.64577012439258 77.82926829345524,225.33759457361884 74.75609756074846,235.48852626606822 95.39024390280247,242.25579977640882 103.73170731589198,235.48852626606822 97.14634146541357,223.08182848314755 74.75609756074846,231.54094477253966 81.78048780560493,243.94761636923067 98.02439024485648,242.25579977640882 104.60975609719753,230.97700424259529 91.8780487794429,223.64577012439258 78.70731707289815,225.33759457361884 74.75609756074846,238.3082249504514 101.09756097570062,238.3082249504514 103.29268292710185,227.593359392602 94.95121951214969,222.51788676343858 76.51219512149692,225.90153589844704 75.19512195140123,237.18034571548924 85.29268292710185,242.25579977640882 102.85365853644907,235.48852626606822 103.73170731589198,228.1573003998492 92.31707317195833,223.08182848314755 77.82926829345524,226.46547714271583 77.39024390280247,240.00004320894368 101.97560975514352,238.3082249504514 101.97560975514352,227.0294183071237 82.21951219439507,223.08182848314755 74.75609756074846,236.61640597693622 97.58536585234106,241.1279216511175 103.29268292710185,236.0524661608506 99.78048780374229,223.64577012439258 82.21951219439507,222.51788676343858 73.43902439065278,234.3606462359894 81.34146341495216,243.3836775838863 102.4146341457963,239.43610386946239 102.4146341457963,225.90153589844704 94.51219512149692,222.51788676343858 76.95121951214969,225.33759457361884 76.07317073084414,237.74428537278436 98.46341463364661,241.1279216511175 104.1707317084074,230.97700424259529 97.58536585234106,223.64577012439258 79.5853658542037,223.08182848314755 75.19512195140123,235.48852626606822 97.58536585234106,241.6918607535772 104.60975609719753,230.97700424259529 93.63414634019136,223.08182848314755 80.90243902429938,223.64577012439258 75.19512195140123,235.48852626606822 80.02439024299383,241.6918607535772 101.09756097570062,240.5639824704267 105.92682926729321,233.7967061032541 98.46341463364661,222.51788676343858 74.31707317009568,230.97700424259529 80.90243902429938,242.81973871891387 98.90243902429938,241.1279216511175 104.1707317084074,228.72124132653698 97.58536585234106,222.51788676343858 78.26829268224537,225.33759457361884 74.31707317009568,232.1048852247186 77.39024390280247,240.00004320894368 96.70731707289815,241.6918607535772 103.73170731589198,234.3606462359894 97.58536585234106,224.2097116857767 79.14634146355093,224.77365316916257 73.8780487794429,234.92458629002795 78.70731707289815,242.25579977640882 97.58536585234106,241.6918607535772 103.29268292710185,236.61640597693622 96.26829268224537,223.08182848314755 80.02439024299383,224.2097116857767 73.0,234.92458629002795 94.95121951214969,242.25579977640882 102.85365853644907,237.74428537278436 100.65853658691049,224.77365316916257 83.97560975514352,222.51788676343858 73.0,229.84912294498645 78.26829268224537,240.00004320894368 95.8292682915926,240.5639824704267 104.1707317084074,228.72124132653698 98.90243902429938,223.08182848314755 73.8780487794429,227.0294183071237 77.39024390280247,240.00004320894368 95.39024390280247,241.1279216511175 104.1707317084074,234.3606462359894 100.21951219439507,223.64577012439258 75.63414634205401,229.28518217499368 80.02439024299383,240.5639824704267 94.51219512149692,241.1279216511175 102.85365853644907,238.3082249504514 100.65853658691049,224.77365316916257 80.46341463364661,223.08182848314755 73.0,230.97700424259529 80.02439024299383,241.6918607535772 97.14634146541357,241.6918607535772 104.1707317084074,232.66882559587248 94.51219512149692,224.2097116857767 82.65853658504784,223.64577012439258 73.8780487794429,232.66882559587248 77.82926829345524,240.00004320894368 94.95121951214969,240.00004320894368 103.29268292710185,236.61640597693622 100.21951219439507,224.2097116857767 79.14634146355093,224.2097116857767 74.31707317009568,230.4130636334885 80.02439024299383,241.1279216511175 98.46341463364661,240.00004320894368 104.1707317084074,233.7967061032541 98.90243902429938,223.08182848314755 80.02439024299383,222.51788676343858 74.31707317009568,230.4130636334885 81.34146341495216,241.1279216511175 98.46341463364661,240.00004320894368 105.04878048785031,232.66882559587248 97.58536585234106,223.64577012439258 74.31707317009568,229.84912294498645 81.34146341495216,240.5639824704267 99.78048780374229,238.87216444918886 104.60975609719753,232.66882559587248 97.14634146541357,221.95394496200606 77.39024390280247,224.2097116857767 74.75609756074846,237.74428537278436 102.4146341457963,238.3082249504514 101.97560975514352,225.90153589844704 94.07317073270679,222.51788676343858 77.82926829345524,224.77365316916257 73.8780487794429,233.2327658890281 83.53658536635339,242.81973871891387 103.29268292710185,238.87216444918886 100.65853658691049,225.90153589844704 83.53658536635339,223.64577012439258 76.07317073084414,225.90153589844704 75.19512195140123,238.87216444918886 101.97560975514352,238.3082249504514 103.73170731589198,230.4130636334885 90.12195121869445,223.64577012439258 78.70731707289815,224.77365316916257 73.43902439065278,236.0524661608506 98.46341463364661,240.5639824704267 103.73170731589198,229.28518217499368 91.8780487794429,222.51788676343858 79.14634146355093,224.2097116857767 73.8780487794429,237.18034571548924 86.60975609719753,242.81973871891387 102.85365853644907,237.74428537278436 99.78048780374229,224.77365316916257 91.43902439065278,223.08182848314755 75.63414634205401,227.593359392602 75.19512195140123,238.3082249504514 100.21951219439507,241.1279216511175 103.29268292710185,227.593359392602 97.14634146541357,222.51788676343858 76.07317073084414,226.46547714271583 74.75609756074846,236.0524661608506 100.65853658691049,238.3082249504514 102.4146341457963,225.90153589844704 95.8292682915926,221.39000308187678 78.70731707289815,223.64577012439258 74.31707317009568,235.48852626606822 97.58536585234106,241.6918607535772 104.1707317084074,229.84912294498645 99.34146341495216,223.64577012439258 77.39024390280247,224.77365316916257 73.0,234.3606462359894 83.53658536635339,242.25579977640882 100.21951219439507,240.5639824704267 105.04878048785031,230.4130636334885 94.07317073270679,221.95394496200606 76.51219512149692,225.90153589844704 74.75609756074846,235.48852626606822 99.78048780374229,241.1279216511175 104.60975609719753,229.84912294498645 98.90243902429938,223.64577012439258 81.78048780560493,223.64577012439258 73.8780487794429,234.3606462359894 98.02439024485648,241.6918607535772 104.1707317084074,236.0524661608506 97.14634146541357,224.2097116857767 73.8780487794429,233.2327658890281 83.09756097756326,242.81973871891387 99.78048780374229,241.1279216511175 104.60975609719753,234.3606462359894 98.02439024485648,223.64577012439258 80.02439024299383,224.2097116857767 74.31707317009568,234.92458629002795 81.34146341495216,242.25579977640882 98.02439024485648,241.1279216511175 104.1707317084074,230.4130636334885 97.58536585234106,224.2097116857767 77.82926829345524,224.77365316916257 73.0,234.3606462359894 98.02439024485648,240.5639824704267 103.73170731589198,236.61640597693622 98.02439024485648,223.64577012439258 73.8780487794429,228.72124132653698 77.82926829345524,240.5639824704267 97.58536585234106,241.1279216511175 103.29268292710185,236.0524661608506 97.58536585234106,223.64577012439258 78.70731707289815,223.64577012439258 74.75609756074846,236.61640597693622 101.53658536635339,238.3082249504514 105.48780487850308,232.1048852247186 94.95121951214969,222.51788676343858 73.8780487794429,231.54094477253966 76.51219512149692,238.87216444918886 92.75609756074846,240.5639824704267 102.4146341457963,236.0524661608506 99.34146341495216,224.2097116857767 74.75609756074846,227.0294183071237 78.70731707289815,240.00004320894368 95.8292682915926,241.1279216511175 105.04878048785031,230.97700424259529 94.95121951214969,221.95394496200606 76.51219512149692,225.33759457361884 74.31707317009568,234.92458629002795 85.29268292710185,243.3836775838863 102.85365853644907,238.3082249504514 94.95121951214969,223.08182848314755 82.65853658504784,223.08182848314755 74.31707317009568,234.3606462359894 98.02439024485648,241.1279216511175 103.73170731589198,230.97700424259529 98.90243902429938,224.2097116857767 74.75609756074846,229.28518217499368 81.78048780560493,241.6918607535772 99.78048780374229,241.1279216511175 102.85365853644907,227.0294183071237 95.8292682915926,222.51788676343858 77.82926829345524,224.2097116857767 75.19512195140123,237.74428537278436 98.90243902429938,241.1279216511175 103.73170731589198,233.7967061032541 97.58536585234106,223.64577012439258 79.5853658542037,223.64577012439258 73.43902439065278,233.7967061032541 81.78048780560493,242.25579977640882 101.09756097570062,239.43610386946239 96.70731707289815,223.08182848314755 88.36585365608335,223.08182848314755 93.19512195326388,232.66882559587248 110.31707317009568,243.3836775838863 114.26829268410802,256.9181865162682 127.0,258.6099969181232" stroke="#4dd2ff" stroke-linecap="round" stroke-linejoin="round" stroke-width="0.5"><title>2021-06-01 11.4km</title></polyline><polyline fill="none" points="181.59999999776483,245.20238403324038 163.375,224.39297406189144 135.69999999925494,236.5318050836213 135.69999999925494,251.27178203407675 172.82499999925494,246.06944125611335 165.39999999850988,221.79179287469015 148.52499999850988,224.39297406189144 133.0,246.93649835698307 148.52499999850988,261.67645041504875 176.875,249.5376689294353 176.875,226.9941541524604 163.375,221.79179287469015 138.39999999850988,246.93649835698307 173.5,246.06944125611335 180.92500000074506,235.6647465187125 167.42500000074506,218.3235495854169 139.07499999925494,239.13298005005345 147.84999999776483,255.6070626634173 173.5,250.40472554368898 181.59999999776483,238.26592184929177 168.10000000149012,220.92473223386332 143.125,230.46239256160334 139.07499999925494,250.40472554368898 175.52500000223517,244.33532668510452 180.92500000074506,233.06357008963823 164.72499999776483,218.3235495854169 138.39999999850988,232.19651103531942 139.07499999925494,245.20238403324038 177.55000000074506,250.40472554368898 184.29999999701977,228.7282736026682 174.84999999776483,222.65885339444503 143.80000000074506,234.7976878322661 153.25,258.20822957577184 180.92500000074506,246.93649835698307 183.625,230.46239256160334 148.52499999850988,222.65885339444503 135.69999999925494,234.7976878322661 170.79999999701977,244.33532668510452 182.27499999850988,240.00003812927753 176.19999999925494,220.0576714728959 145.14999999850988,220.92473223386332 137.72500000149012,239.13298005005345 175.52500000223517,245.20238403324038 183.625,234.7976878322661 173.5,220.0576714728959 137.72500000149012,232.19651103531942 147.17500000074506,252.1388384043239 176.875,246.06944125611335 182.94999999925494,225.26003421237692 173.5,219.1906105875969 142.44999999925494,224.39297406189144 137.72500000149012,236.5318050836213 151.89999999850988,248.67061219504103 180.92500000074506,240.86709608323872 180.92500000074506,223.52591378847137 168.10000000149012,219.1906105875969 143.80000000074506,224.39297406189144 141.77499999850988,246.93649835698307 178.89999999850988,246.93649835698307 185.64999999850988,233.93062902381644 170.79999999701977,219.1906105875969 140.42500000074506,226.12709424318746 143.125,248.67061219504103 181.59999999776483,240.00003812927753 184.29999999701977,228.7282736026682 166.07499999925494,220.0576714728959 147.17500000074506,221.79179287469015 138.39999999850988,240.86709608323872 152.57500000298023,251.27178203407675 181.59999999776483,240.00003812927753 168.10000000149012,219.1906105875969 142.44999999925494,225.26003421237692 138.39999999850988,239.13298005005345 152.57500000298023,251.27178203407675 174.17500000447035,246.93649835698307 184.29999999701977,239.13298005005345 177.55000000074506,221.79179287469015 139.07499999925494,232.19651103531942 144.47500000149012,250.40472554368898 176.19999999925494,244.33532668510452 184.29999999701977,236.5318050836213 174.17500000447035,219.1906105875969 146.5,221.79179287469015 139.07499999925494,233.93062902381644 151.89999999850988,252.1388384043239 178.22499999776483,246.06944125611335 184.97500000149012,237.39886352838948 172.82499999925494,221.79179287469015 142.44999999925494,224.39297406189144 138.39999999850988,233.93062902381644 143.80000000074506,249.5376689294353 172.82499999925494,250.40472554368898 182.94999999925494,245.20238403324038 178.89999999850988,224.39297406189144 151.22499999776483,221.79179287469015 139.75,232.19651103531942 144.47500000149012,249.5376689294353 173.5,250.40472554368898 185.64999999850988,233.06357008963823 178.22499999776483,224.39297406189144 149.19999999925494,222.65885339444503 139.07499999925494,234.7976878322661 143.125,249.5376689294353 177.55000000074506,246.06944125611335 182.27499999850988,226.12709424318746 171.47500000149012,221.79179287469015 139.75,227.86121393926442 139.07499999925494,240.00003812927753 146.5,253.00589465210214 172.82499999925494,250.40472554368898 183.625,243.46826921822503 176.875,224.39297406189144 139.07499999925494,232.19651103531942 147.84999999776483,253.00589465210214 174.17500000447035,249.5376689294353 184.29999999701977,241.73415391659364 174.17500000447035,220.92473223386332 143.125,225.26003421237692 139.75,237.39886352838948 153.25,253.87295077601448 180.92500000074506,246.93649835698307 175.52500000223517,220.0576714728959 143.125,225.26003421237692 140.42500000074506,240.00003812927753 145.14999999850988,251.27178203407675 172.82499999925494,252.1388384043239 184.97500000149012,232.19651103531942 176.875,222.65885339444503 141.10000000149012,227.86121393926442 148.52499999850988,254.74000678071752 174.17500000447035,253.87295077601448 183.625,246.93649835698307 179.57500000298023,226.9941541524604 139.75,231.32945186039433 149.19999999925494,256.4741184222512 172.14999999850988,253.87295077601448 182.94999999925494,246.93649835698307 180.92500000074506,227.86121393926442 149.875,222.65885339444503 139.07499999925494,235.6647465187125 143.80000000074506,251.27178203407675 177.55000000074506,249.5376689294353 185.64999999850988,231.32945186039433 174.84999999776483,221.79179287469015 143.80000000074506,224.39297406189144 141.10000000149012,234.7976878322661 150.55000000074506,256.4741184222512 174.17500000447035,253.87295077601448 182.27499999850988,229.59533314267173 141.10000000149012,230.46239256160334 143.80000000074506,248.67061219504103 159.32499999925494,254.74000678071752 182.94999999925494,246.06944125611335 179.57500000298023,225.26003421237692 137.05000000074506,231.32945186039433 148.52499999850988,255.6070626634173 163.375,254.74000678071752 178.89999999850988,250.40472554368898 183.625,228.7282736026682 142.44999999925494,229.59533314267173 143.80000000074506,251.27178203407675 168.10000000149012,255.6070626634173 184.97500000149012,244.33532668510452 176.19999999925494,226.12709424318746 145.14999999850988,225.26003421237692 137.05000000074506,235.6647465187125 153.25,251.27178203407675 174.84999999776483,249.5376689294353 183.625,228.7282736026682 174.84999999776483,220.92473223386332 139.07499999925494,231.32945186039433 144.47500000149012,247.80355533631518 164.05000000074506,254.74000678071752 184.97500000149012,240.86709608323872 181.59999999776483,227.86121393926442 141.77499999850988,228.7282736026682 144.47500000149012,252.1388384043239 170.125,255.6070626634173 184.29999999701977,236.5318050836213 176.875,226.9941541524604 155.27499999850988,224.39297406189144 138.39999999850988,237.39886352838948 151.89999999850988,254.74000678071752 173.5,253.87295077601448 185.64999999850988,235.6647465187125 177.55000000074506,224.39297406189144 143.125,227.86121393926442 145.14999999850988,249.5376689294353 162.69999999925494,253.87295077601448 182.27499999850988,246.06944125611335 178.89999999850988,226.9941541524604 140.42500000074506,229.59533314267173 147.17500000074506,253.87295077601448 176.875,253.87295077601448 185.64999999850988,237.39886352838948 166.75,222.65885339444503 148.52499999850988,223.52591378847137 140.42500000074506,242.60121162980795 146.5,253.87295077601448 176.19999999925494,253.00589465210214 178.22499999776483,226.12709424318746 150.55000000074506,222.65885339444503 138.39999999850988,241.73415391659364 154.59999999776483,253.87295077601448 177.55000000074506,251.27178203407675 176.19999999925494,224.39297406189144 148.52499999850988,223.52591378847137 139.75,233.93062902381644 145.82499999925494,253.00589465210214 172.14999999850988,253.87295077601448 183.625,234.7976878322661 176.19999999925494,226.12709424318746 148.52499999850988,222.65885339444503 137.05000000074506,239.13298005005345 149.875,253.00589465210214 178.89999999850988,249.5376689294353 181.59999999776483,226.9941541524604 170.125,222.65885339444503 151.89999999850988,221.79179287469015 139.07499999925494,242.60121162980795 173.5,251.27178203407675 184.97500000149012,233.06357008963823 171.47500000149012,220.92473223386332 142.44999999925494,226.9941541524604 141.77499999850988,246.93649835698307 178.89999999850988,250.40472554368898 184.97500000149012,240.00003812927753 171.47500000149012,222.65885339444503 137.72500000149012,236.5318050836213 147.17500000074506,251.27178203407675 176.875,250.40472554368898 184.29999999701977,230.46239256160334 174.17500000447035,225.26003421237692 139.07499999925494,234.7976878322661 147.84999999776483,252.1388384043239 175.52500000223517,249.5376689294353 184.29999999701977,240.86709608323872 178.22499999776483,223.52591378847137 141.10000000149012,226.9941541524604 136.375,240.00003812927753 147.84999999776483,253.00589465210214 174.84999999776483,248.67061219504103 182.94999999925494,228.7282736026682 172.82499999925494,222.65885339444503 143.80000000074506,223.52591378847137 137.72500000149012,234.7976878322661 149.19999999925494,252.1388384043239 177.55000000074506,248.67061219504103 183.625,229.59533314267173 174.17500000447035,225.26003421237692 148.52499999850988,223.52591378847137 137.72500000149012,237.39886352838948 149.19999999925494,253.00589465210214 176.19999999925494,250.40472554368898 184.97500000149012,241.73415391659364 174.17500000447035,221.79179287469015 144.47500000149012,223.52591378847137 139.75,233.93062902381644 151.89999999850988,252.1388384043239 181.59999999776483,248.67061219504103 187.0,238.26592184929177 174.84999999776483,224.39297406189144 143.80000000074506,226.12709424318746 139.07499999925494,238.26592184929177 153.25,253.87295077601448 179.57500000298023,248.67061219504103 186.32499999925494,237.39886352838948 171.47500000149012,221.79179287469015 143.125,226.12709424318746 138.39999999850988,241.73415391659364 150.55000000074506,253.87295077601448 178.89999999850988,248.67061219504103 177.55000000074506,224.39297406189144 151.22499999776483,222.65885339444503 138.39999999850988,240.00003812927753 147.17500000074506,252.1388384043239 181.59999999776483,246.06944125611335 180.92500000074506,226.9941541524604 168.10000000149012,221.79179287469015 149.19999999925494,222.65885339444503 139.75,242.60121162980795 160.0,253.00589465210214 180.92500000074506,247.80355533631518 175.52500000223517,222.65885339444503 140.42500000074506,230.46239256160334 154.59999999776483,253.87295077601448 178.22499999776483,250.40472554368898 187.0,241.73415391659364 177.55000000074506,223.52591378847137 147.84999999776483,223.52591378847137 140.42500000074506,240.86709608323872 150.55000000074506,252.1388384043239 179.57500000298023,250.40472554368898 186.32499999925494,240.00003812927753 171.47500000149012,223.52591378847137 143.125,226.9941541524604 139.07499999925494,238.26592184929177 153.25,253.87295077601448 181.59999999776483,248.67061219504103 186.32499999925494,238.26592184929177 171.47500000149012,222.65885339444503 142.44999999925494,226.9941541524604 143.80000000074506,248.67061219504103 184.29999999701977,246.06944125611335 180.25,226.12709424318746 167.42500000074506,221.79179287469015 144.47500000149012,224.39297406189144 138.39999999850988,241.73415391659364 148.52499999850988,252.1388384043239 182.27499999850988,246.93649835698307 185.64999999850988,235.6647465187125 168.10000000149012,222.65885339444503 141.10000000149012,228.7282736026682 142.44999999925494,248.67061219504103 180.92500000074506,248.67061219504103 179.57500000298023,226.12709424318746 165.39999999850988,223.52591378847137 146.5,224.39297406189144 137.05000000074506,240.86709608323872 174.17500000447035,252.1388384043239 183.625,233.93062902381644 176.19999999925494,226.12709424318746 145.14999999850988,225.26003421237692 137.72500000149012,243.46826921822503 175.52500000223517,252.1388384043239 185.64999999850988,234.7976878322661 165.39999999850988,222.65885339444503 149.19999999925494,223.52591378847137 139.07499999925494,243.46826921822503 157.97500000149012,254.74000678071752 181.59999999776483,249.5376689294353 179.57500000298023,226.12709424318746 167.42500000074506,222.65885339444503 141.77499999850988,230.46239256160334 139.07499999925494,244.33532668510452 154.59999999776483,253.00589465210214 184.29999999701977,243.46826921822503 174.17500000447035,223.52591378847137 159.32499999925494,222.65885339444503 143.80000000074506,226.12709424318746 139.75,246.93649835698307 179.57500000298023,249.5376689294353 180.25,226.9941541524604 167.42500000074506,221.79179287469015 140.42500000074506,227.86121393926442 143.125,250.40472554368898 182.94999999925494,246.06944125611335 179.57500000298023,226.12709424318746 167.42500000074506,222.65885339444503 147.17500000074506,225.26003421237692 138.39999999850988,246.06944125611335 179.57500000298023,250.40472554368898 182.94999999925494,230.46239256160334 157.97500000149012,222.65885339444503 143.80000000074506,226.12709424318746 141.77499999850988,246.93649835698307 183.625,245.20238403324038" stroke="#4dd2ff" stroke-linecap="round" stroke-linejoin="round" stroke-width="0.5"><title>2020-11-29 10.4km</title></polyline></svg>