<?xml version="1.0" encoding="utf-8" ?>
<svg baseProfile="full" height="300mm" version="1.1" viewBox="0,0,200,300" width="200mm" xmlns="http://www.w3.org/2000/svg" xmlns:ev="http://www.w3.org/2001/xml-events" xmlns:xlink="http://www.w3.org/1999/xlink"><defs /><rect fill="#222222" height="300" width="200" x="0" y="0" /><text fill="#FFFFFF" style="font-size:12px; font-family:Arial; font-weight:bold;" x="10" y="20">Over 10km Runs</text><text fill="#FFFFFF" style="font-size:4px; font-family:Arial" x="10" y="280">ATHLETE</text><text fill="#FFFFFF" style="font-size:9px; font-family:Arial" x="10" y="290">Abuqi</text><text fill="#FFFFFF" style="font-size:4px; font-family:Arial" x="120" y="280">STATISTICS</text><text fill="#FFFFFF" style="font-size:3px; font-family:Arial" x="120" y="285">Number: 2</text><text fill="#FFFFFF" style="font-size:3px; font-family:Arial" x="120" y="290">Weekly: 1.0</text><text fill="#FFFFFF" style="font-size:3px; font-family:Arial" x="141" y="285">Total: 21.8 km</text><text fill="#FFFFFF" style="font-size:3px; font-family:Arial" x="141" y="290">Avg: 10.9 km</text><text fill="#FFFFFF" style="font-size:3px; font-family:Arial" x="167" y="285">Min: 10.4 km</text><text fill="#FFFFFF" style="font-size:3px; font-family:Arial" x="167" y="290">Max: 11.4 km</text><polyline fill="none" points="63.56097561120987,68.57036434998736 65.31707317009568,100.15098740160465 109.21951219439507,80.97705253213644 100.43902438879013,59.54730633832514 65.31707317009568,58.41942337155342 60.04878048598766,96.76735516777262 109.21951219439507,80.97705253213644 100.43902438879013,61.80307179689407 60.04878048598766,61.80307179689407 52.14634146168828,79.84917258005589 64.43902438879013,95.63947743782774 94.29268293082714,91.12796494085342 103.07317073270679,68.57036434998736 54.780487805604935,62.93095428543165 61.804878048598766,99.02311014803126 98.68292682990432,92.25584330223501 107.46341463178396,71.95400848519057 58.29268292710185,60.67518914723769 50.39024390280247,75.33765119174495 65.31707317009568,97.89523273846135 98.68292682990432,91.12796494085342 107.46341463178396,69.6982458899729 89.02439024299383,56.16365696629509 57.4146341457963,60.67518914723769 69.70731706917286,99.02311014803126 109.21951219439507,75.33765119174495 96.04878048971295,57.29154024878517 60.926829267293215,58.41942337155342 65.31707317009568,97.89523273846135 86.39024390652776,97.89523273846135 108.3414634168148,75.33765119174495 64.43902438879013,56.16365696629509 49.512195121496916,62.93095428543165 57.4146341457963,86.61644990090281 106.5853658542037,79.84917258005589 103.07317073270679,64.05883661424741 67.07317073270679,55.035773526877165 50.39024390280247,91.12796494085342 101.31707317382097,90.00008641788736 110.09756097570062,75.33765119174495 68.8292682915926,56.16365696629509 47.75609755888581,77.59341220650822 67.95121951028705,95.63947743782774 99.56097560748458,87.74432889837772 103.07317073270679,62.93095428543165 55.658536586910486,60.67518914723769 46.87804878130555,76.46553177805617 62.68292682990432,94.51159955281764 101.31707317382097,86.61644990090281 107.46341463178396,70.82612726697698 67.07317073270679,56.16365696629509 49.512195121496916,73.08188954507932 55.658536586910486,99.02311014803126 106.5853658542037,86.61644990090281 100.43902438879013,59.54730633832514 73.21951219439507,56.16365696629509 51.26829268410802,70.82612726697698 53.90243902429938,90.00008641788736 85.51219512149692,93.3837215071544 106.5853658542037,78.72129247197881 102.19512195140123,60.67518914723769 65.31707317009568,56.16365696629509 46.87804878130555,77.59341220650822 53.90243902429938,93.3837215071544 85.51219512149692,95.63947743782774 110.97560975700617,71.95400848519057 67.95121951028705,58.41942337155342 50.39024390280247,75.33765119174495 61.804878048598766,96.76735516777262 104.8292682915926,83.23281195387244 105.70731707289815,66.31460079969838 67.95121951028705,57.29154024878517 48.634146340191364,82.1049323217012 60.926829267293215,95.63947743782774 96.04878048971295,91.12796494085342 109.21951219439507,71.95400848519057 63.56097561120987,59.54730633832514 49.512195121496916,68.57036434998736 59.1707317084074,95.63947743782774 109.21951219439507,76.46553177805617 97.80487804859877,59.54730633832514 63.56097561120987,59.54730633832514 50.39024390280247,70.82612726697698 58.29268292710185,94.51159955281764 90.78048780560493,93.3837215071544 109.21951219439507,69.6982458899729 60.04878048598766,59.54730633832514 49.512195121496916,70.82612726697698 63.56097561120987,94.51159955281764 104.8292682915926,88.87220773892477 111.85365853458643,73.08188954507932 67.07317073270679,56.16365696629509 52.14634146168828,65.186718785204 54.780487805604935,93.3837215071544 107.46341463178396,79.84917258005589 93.4146341457963,57.29154024878517 57.4146341457963,59.54730633832514 60.926829267293215,95.63947743782774 98.68292682990432,87.74432889837772 109.21951219439507,68.57036434998736 54.780487805604935,62.93095428543165 64.43902438879013,96.76735516777262 108.3414634168148,75.33765119174495 93.4146341457963,57.29154024878517 54.780487805604935,62.93095428543165 51.26829268410802,83.23281195387244 72.34146341308951,97.89523273846135 110.97560975700617,73.08188954507932 91.6585365831852,56.16365696629509 53.02439024299383,61.80307179689407 56.53658536449075,95.63947743782774 86.39024390652776,97.89523273846135 109.21951219439507,74.2097704494372 62.68292682990432,57.29154024878517 49.512195121496916,79.84917258005589 59.1707317084074,95.63947743782774 104.8292682915926,87.74432889837772 110.09756097570062,74.2097704494372 65.31707317009568,59.54730633832514 53.02439024299383,67.44248265307397 60.926829267293215,95.63947743782774 95.17073170468211,96.76735516777262 110.09756097570062,80.97705253213644 106.5853658542037,65.186718785204 74.09756097570062,56.16365696629509 56.53658536449075,62.93095428543165 55.658536586910486,91.12796494085342 106.5853658542037,80.97705253213644 92.53658536449075,57.29154024878517 55.658536586910486,61.80307179689407 55.658536586910486,92.25584330223501 107.46341463178396,84.36069143097848 100.43902438879013,59.54730633832514 65.31707317009568,56.16365696629509 52.14634146168828,66.31460079969838 59.1707317084074,94.51159955281764 104.8292682915926,92.25584330223501 96.04878048971295,57.29154024878517 55.658536586910486,60.67518914723769 49.512195121496916,80.97705253213644 90.78048780560493,94.51159955281764 107.46341463178396,80.97705253213644 94.29268293082714,56.16365696629509 49.512195121496916,73.08188954507932 63.56097561120987,97.89523273846135 96.04878048971295,94.51159955281764 109.21951219439507,71.95400848519057 83.75609755888581,57.29154024878517 57.4146341457963,60.67518914723769 49.512195121496916,86.61644990090281 102.19512195140123,86.61644990090281 106.5853658542037,65.186718785204 89.90243902429938,55.035773526877165 53.02439024299383,61.80307179689407 50.39024390280247,84.36069143097848 70.5853658542037,94.51159955281764 105.70731707289815,80.97705253213644 107.46341463178396,66.31460079969838 84.63414634391665,56.16365696629509 55.658536586910486,62.93095428543165 54.780487805604935,90.00008641788736 103.95121951028705,86.61644990090281 103.95121951028705,64.05883661424741 64.43902438879013,56.16365696629509 49.512195121496916,83.23281195387244 95.17073170468211,92.25584330223501 106.5853658542037,82.1049323217012 99.56097560748458,57.29154024878517 64.43902438879013,55.035773526877165 46.87804878130555,78.72129247197881 62.68292682990432,96.76735516777262 104.8292682915926,88.87220773892477 104.8292682915926,61.80307179689407 89.02439024299383,55.035773526877165 53.90243902429938,60.67518914723769 52.14634146168828,85.48857074556872 96.92682926729321,92.25584330223501 108.3414634168148,71.95400848519057 95.17073170468211,57.29154024878517 59.1707317084074,56.16365696629509 50.39024390280247,80.97705253213644 95.17073170468211,93.3837215071544 109.21951219439507,71.95400848519057 87.26829268038273,56.16365696629509 61.804878048598766,57.29154024878517 50.39024390280247,80.97705253213644 60.04878048598766,93.3837215071544 102.19512195140123,91.12796494085342 111.85365853458643,77.59341220650822 96.92682926729321,55.035773526877165 48.634146340191364,71.95400848519057 61.804878048598766,95.63947743782774 97.80487804859877,92.25584330223501 108.3414634168148,67.44248265307397 95.17073170468211,55.035773526877165 56.53658536449075,60.67518914723769 48.634146340191364,74.2097704494372 54.780487805604935,90.00008641788736 93.4146341457963,93.3837215071544 107.46341463178396,78.72129247197881 95.17073170468211,58.41942337155342 58.29268292710185,59.54730633832514 47.75609755888581,79.84917258005589 57.4146341457963,94.51159955281764 95.17073170468211,93.3837215071544 106.5853658542037,83.23281195387244 92.53658536449075,56.16365696629509 60.04878048598766,58.41942337155342 46.0,79.84917258005589 89.90243902429938,94.51159955281764 105.70731707289815,85.48857074556872 101.31707317382097,59.54730633832514 67.95121951028705,55.035773526877165 46.0,69.6982458899729 56.53658536449075,90.00008641788736 91.6585365831852,91.12796494085342 108.3414634168148,67.44248265307397 97.80487804859877,56.16365696629509 47.75609755888581,64.05883661424741 54.780487805604935,90.00008641788736 90.78048780560493,92.25584330223501 108.3414634168148,78.72129247197881 100.43902438879013,57.29154024878517 51.26829268410802,68.57036434998736 60.04878048598766,91.12796494085342 89.02439024299383,92.25584330223501 105.70731707289815,86.61644990090281 101.31707317382097,59.54730633832514 60.926829267293215,56.16365696629509 46.0,71.95400848519057 60.04878048598766,93.3837215071544 94.29268293082714,93.3837215071544 108.3414634168148,75.33765119174495 89.02439024299383,58.41942337155342 65.31707317009568,57.29154024878517 47.75609755888581,75.33765119174495 55.658536586910486,90.00008641788736 89.90243902429938,90.00008641788736 106.5853658542037,83.23281195387244 100.43902438879013,58.41942337155342 58.29268292710185,58.41942337155342 48.634146340191364,70.82612726697698 60.04878048598766,92.25584330223501 96.92682926729321,90.00008641788736 108.3414634168148,77.59341220650822 97.80487804859877,56.16365696629509 60.04878048598766,55.035773526877165 48.634146340191364,70.82612726697698 62.68292682990432,92.25584330223501 96.92682926729321,90.00008641788736 110.09756097570062,75.33765119174495 95.17073170468211,57.29154024878517 48.634146340191364,69.6982458899729 62.68292682990432,91.12796494085342 99.56097560748458,87.74432889837772 109.21951219439507,75.33765119174495 94.29268293082714,53.907889924012125 54.780487805604935,58.41942337155342 49.512195121496916,85.48857074556872 104.8292682915926,86.61644990090281 103.95121951028705,61.80307179689407 88.14634146541357,55.035773526877165 55.658536586910486,59.54730633832514 47.75609755888581,76.46553177805617 67.07317073270679,95.63947743782774 106.5853658542037,87.74432889837772 101.31707317382097,61.80307179689407 67.07317073270679,57.29154024878517 52.14634146168828,61.80307179689407 50.39024390280247,87.74432889837772 103.95121951028705,86.61644990090281 107.46341463178396,70.82612726697698 80.2439024373889,57.29154024878517 57.4146341457963,59.54730633832514 46.87804878130555,82.1049323217012 96.92682926729321,91.12796494085342 107.46341463178396,68.57036434998736 83.75609755888581,55.035773526877165 58.29268292710185,58.41942337155342 47.75609755888581,84.36069143097848 73.21951219439507,95.63947743782774 105.70731707289815,85.48857074556872 99.56097560748458,59.54730633832514 82.87804878130555,56.16365696629509 51.26829268410802,65.186718785204 50.39024390280247,86.61644990090281 100.43902438879013,92.25584330223501 106.5853658542037,65.186718785204 94.29268293082714,55.035773526877165 52.14634146168828,62.93095428543165 49.512195121496916,82.1049323217012 101.31707317382097,86.61644990090281 104.8292682915926,61.80307179689407 91.6585365831852,52.78000616375357 57.4146341457963,57.29154024878517 48.634146340191364,80.97705253213644 95.17073170468211,93.3837215071544 108.3414634168148,69.6982458899729 98.68292682990432,57.29154024878517 54.780487805604935,59.54730633832514 46.0,78.72129247197881 67.07317073270679,94.51159955281764 100.43902438879013,91.12796494085342 110.09756097570062,70.82612726697698 88.14634146541357,53.907889924012125 53.02439024299383,61.80307179689407 49.512195121496916,80.97705253213644 99.56097560748458,92.25584330223501 109.21951219439507,69.6982458899729 97.80487804859877,57.29154024878517 63.56097561120987,57.29154024878517 47.75609755888581,78.72129247197881 96.04878048971295,93.3837215071544 108.3414634168148,82.1049323217012 94.29268293082714,58.41942337155342 47.75609755888581,76.46553177805617 66.19512195512652,95.63947743782774 99.56097560748458,92.25584330223501 109.21951219439507,78.72129247197881 96.04878048971295,57.29154024878517 60.04878048598766,58.41942337155342 48.634146340191364,79.84917258005589 62.68292682990432,94.51159955281764 96.04878048971295,92.25584330223501 108.3414634168148,70.82612726697698 95.17073170468211,58.41942337155342 55.658536586910486,59.54730633832514 46.0,78.72129247197881 96.04878048971295,91.12796494085342 107.46341463178396,83.23281195387244 96.04878048971295,57.29154024878517 47.75609755888581,67.44248265307397 55.658536586910486,91.12796494085342 95.17073170468211,92.25584330223501 106.5853658542037,82.1049323217012 95.17073170468211,57.29154024878517 57.4146341457963,57.29154024878517 49.512195121496916,83.23281195387244 103.07317073270679,86.61644990090281 110.97560975700617,74.2097704494372 89.90243902429938,55.035773526877165 47.75609755888581,73.08188954507932 53.02439024299383,87.74432889837772 85.51219512149692,91.12796494085342 104.8292682915926,82.1049323217012 98.68292682990432,58.41942337155342 49.512195121496916,64.05883661424741 57.4146341457963,90.00008641788736 91.6585365831852,92.25584330223501 110.09756097570062,71.95400848519057 89.90243902429938,53.907889924012125 53.02439024299383,60.67518914723769 48.634146340191364,79.84917258005589 70.5853658542037,96.76735516777262 105.70731707289815,86.61644990090281 89.90243902429938,56.16365696629509 65.31707317009568,56.16365696629509 48.634146340191364,78.72129247197881 96.04878048971295,92.25584330223501 107.46341463178396,71.95400848519057 97.80487804859877,58.41942337155342 49.512195121496916,68.57036434998736 63.56097561120987,93.3837215071544 99.56097560748458,92.25584330223501 105.70731707289815,64.05883661424741 91.6585365831852,55.035773526877165 55.658536586910486,58.41942337155342 50.39024390280247,85.48857074556872 97.80487804859877,92.25584330223501 107.46341463178396,77.59341220650822 95.17073170468211,57.29154024878517 59.1707317084074,57.29154024878517 46.87804878130555,77.59341220650822 63.56097561120987,94.51159955281764 102.19512195140123,88.87220773892477 93.4146341457963,56.16365696629509 76.73170731216669,56.16365696629509 86.39024390652776,75.33765119174495 120.63414634019136,96.76735516777262 128.53658536821604,123.83637303253636 154.0,127.21999383624643" stroke="#4dd2ff" stroke-linecap="round" stroke-linejoin="round" stroke-width="0.5"><title>2021-06-01 11.4km</title></polyline><polyline fill="none" points="143.19999999552965,220.40476806648076 106.75,178.78594812378287 51.399999998509884,203.0636101672426 51.399999998509884,232.5435640681535 125.64999999850988,222.1388825122267 110.79999999701977,173.5835857493803 77.04999999701977,178.78594812378287 46.0,223.87299671396613 77.04999999701977,253.3529008300975 133.75,229.07533785887063 133.75,183.9883083049208 106.75,173.5835857493803 56.79999999701977,223.87299671396613 127.0,222.1388825122267 141.85000000149012,201.32949303742498 114.85000000149012,166.64709917083383 58.149999998509884,208.2659601001069 75.69999999552965,241.21412532683462 127.0,230.80945108737797 143.19999999552965,206.53184369858354 116.20000000298023,171.84946446772665 66.25,190.92478512320668 58.149999998509884,230.80945108737797 131.05000000447035,218.67065337020904 141.85000000149012,196.12714017927647 109.44999999552965,166.64709917083383 56.79999999701977,194.39302207063884 58.149999998509884,220.40476806648076 135.10000000149012,230.80945108737797 148.59999999403954,187.4565472053364 129.69999999552965,175.31770678889006 67.60000000149012,199.59537566453218 86.5,246.41645915154368 141.85000000149012,223.87299671396613 147.25,190.92478512320668 77.04999999701977,175.31770678889006 51.399999998509884,199.59537566453218 121.59999999403954,218.67065337020904 144.54999999701977,210.00007625855505 132.39999999850988,170.11534294579178 70.29999999701977,171.84946446772665 55.45000000298023,208.2659601001069 131.05000000447035,220.40476806648076 147.25,199.59537566453218 127.0,170.11534294579178 55.45000000298023,194.39302207063884 74.35000000149012,234.2776768086478 133.75,222.1388825122267 145.89999999850988,180.52006842475384 127.0,168.3812211751938 64.89999999850988,178.78594812378287 55.45000000298023,203.0636101672426 83.79999999701977,227.34122439008206 141.85000000149012,211.73419216647744 141.85000000149012,177.05182757694274 116.20000000298023,168.3812211751938 67.60000000149012,178.78594812378287 63.54999999701977,223.87299671396613 137.79999999701977,223.87299671396613 151.29999999701977,197.86125804763287 121.59999999403954,168.3812211751938 60.850000001490116,182.25418848637491 66.25,227.34122439008206 143.19999999552965,210.00007625855505 148.59999999403954,187.4565472053364 112.14999999850988,170.11534294579178 74.35000000149012,173.5835857493803 56.79999999701977,211.73419216647744 85.15000000596046,232.5435640681535 143.19999999552965,210.00007625855505 116.20000000298023,168.3812211751938 64.89999999850988,180.52006842475384 56.79999999701977,208.2659601001069 85.15000000596046,232.5435640681535 128.3500000089407,223.87299671396613 148.59999999403954,208.2659601001069 135.10000000149012,173.5835857493803 58.149999998509884,194.39302207063884 68.95000000298023,230.80945108737797 132.39999999850988,218.67065337020904 148.59999999403954,203.0636101672426 128.3500000089407,168.3812211751938 73.0,173.5835857493803 58.149999998509884,197.86125804763287 83.79999999701977,234.2776768086478 136.44999999552965,222.1388825122267 149.95000000298023,204.79772705677897 125.64999999850988,173.5835857493803 64.89999999850988,178.78594812378287 56.79999999701977,197.86125804763287 67.60000000149012,229.07533785887063 125.64999999850988,230.80945108737797 145.89999999850988,220.40476806648076 137.79999999701977,178.78594812378287 82.44999999552965,173.5835857493803 59.5,194.39302207063884 68.95000000298023,229.07533785887063 127.0,230.80945108737797 151.29999999701977,196.12714017927647 136.44999999552965,178.78594812378287 78.39999999850988,175.31770678889006 58.149999998509884,199.59537566453218 66.25,229.07533785887063 135.10000000149012,222.1388825122267 144.54999999701977,182.25418848637491 122.95000000298023,173.5835857493803 59.5,185.72242787852883 58.149999998509884,210.00007625855505 73.0,236.01178930420429 125.64999999850988,230.80945108737797 147.25,216.93653843645006 133.75,178.78594812378287 58.149999998509884,194.39302207063884 75.69999999552965,236.01178930420429 128.3500000089407,229.07533785887063 148.59999999403954,213.46830783318728 128.3500000089407,171.84946446772665 66.25,180.52006842475384 59.5,204.79772705677897 86.5,237.74590155202895 141.85000000149012,223.87299671396613 131.05000000447035,170.11534294579178 66.25,180.52006842475384 60.850000001490116,210.00007625855505 70.29999999701977,232.5435640681535 125.64999999850988,234.2776768086478 149.95000000298023,194.39302207063884 133.75,175.31770678889006 62.20000000298023,185.72242787852883 77.04999999701977,239.48001356143504 128.3500000089407,237.74590155202895 147.25,223.87299671396613 139.15000000596046,183.9883083049208 59.5,192.65890372078866 78.39999999850988,242.9482368445024 124.29999999701977,237.74590155202895 145.89999999850988,223.87299671396613 141.85000000149012,185.72242787852883 79.75,175.31770678889006 58.149999998509884,201.32949303742498 67.60000000149012,232.5435640681535 135.10000000149012,229.07533785887063 151.29999999701977,192.65890372078866 129.69999999552965,173.5835857493803 67.60000000149012,178.78594812378287 62.20000000298023,199.59537566453218 81.10000000149012,242.9482368445024 128.3500000089407,237.74590155202895 144.54999999701977,189.19066628534347 62.20000000298023,190.92478512320668 67.60000000149012,227.34122439008206 98.64999999850988,239.48001356143504 145.89999999850988,222.1388825122267 139.15000000596046,180.52006842475384 54.100000001490116,192.65890372078866 77.04999999701977,241.21412532683462 106.75,239.48001356143504 137.79999999701977,230.80945108737797 147.25,187.4565472053364 64.89999999850988,189.19066628534347 67.60000000149012,232.5435640681535 116.20000000298023,241.21412532683462 149.95000000298023,218.67065337020904 132.39999999850988,182.25418848637491 70.29999999701977,180.52006842475384 54.100000001490116,201.32949303742498 86.5,232.5435640681535 129.69999999552965,229.07533785887063 147.25,187.4565472053364 129.69999999552965,171.84946446772665 58.149999998509884,192.65890372078866 68.95000000298023,225.60711067263037 108.10000000149012,239.48001356143504 149.95000000298023,211.73419216647744 143.19999999552965,185.72242787852883 63.54999999701977,187.4565472053364 68.95000000298023,234.2776768086478 120.25,241.21412532683462 148.59999999403954,203.0636101672426 133.75,183.9883083049208 90.54999999701977,178.78594812378287 56.79999999701977,204.79772705677897 83.79999999701977,239.48001356143504 127.0,237.74590155202895 151.29999999701977,201.32949303742498 135.10000000149012,178.78594812378287 66.25,185.72242787852883 70.29999999701977,229.07533785887063 105.39999999850988,237.74590155202895 144.54999999701977,222.1388825122267 137.79999999701977,183.9883083049208 60.850000001490116,189.19066628534347 74.35000000149012,237.74590155202895 133.75,237.74590155202895 151.29999999701977,204.79772705677897 113.5,175.31770678889006 77.04999999701977,177.05182757694274 60.850000001490116,215.2024232596159 73.0,237.74590155202895 132.39999999850988,236.01178930420429 136.44999999552965,182.25418848637491 81.10000000149012,175.31770678889006 56.79999999701977,213.46830783318728 89.19999999552965,237.74590155202895 135.10000000149012,232.5435640681535 132.39999999850988,178.78594812378287 77.04999999701977,177.05182757694274 59.5,197.86125804763287 71.64999999850988,236.01178930420429 124.29999999701977,237.74590155202895 147.25,199.59537566453218 132.39999999850988,182.25418848637491 77.04999999701977,175.31770678889006 54.100000001490116,208.2659601001069 79.75,236.01178930420429 137.79999999701977,229.07533785887063 143.19999999552965,183.9883083049208 120.25,175.31770678889006 83.79999999701977,173.5835857493803 58.149999998509884,215.2024232596159 127.0,232.5435640681535 149.95000000298023,196.12714017927647 122.95000000298023,171.84946446772665 64.89999999850988,183.9883083049208 63.54999999701977,223.87299671396613 137.79999999701977,230.80945108737797 149.95000000298023,210.00007625855505 122.95000000298023,175.31770678889006 55.45000000298023,203.0636101672426 74.35000000149012,232.5435640681535 133.75,230.80945108737797 148.59999999403954,190.92478512320668 128.3500000089407,180.52006842475384 58.149999998509884,199.59537566453218 75.69999999552965,234.2776768086478 131.05000000447035,229.07533785887063 148.59999999403954,211.73419216647744 136.44999999552965,177.05182757694274 62.20000000298023,183.9883083049208 52.75,210.00007625855505 75.69999999552965,236.01178930420429 129.69999999552965,227.34122439008206 145.89999999850988,187.4565472053364 125.64999999850988,175.31770678889006 67.60000000149012,177.05182757694274 55.45000000298023,199.59537566453218 78.39999999850988,234.2776768086478 135.10000000149012,227.34122439008206 147.25,189.19066628534347 128.3500000089407,180.52006842475384 77.04999999701977,177.05182757694274 55.45000000298023,204.79772705677897 78.39999999850988,236.01178930420429 132.39999999850988,230.80945108737797 149.95000000298023,213.46830783318728 128.3500000089407,173.5835857493803 68.95000000298023,177.05182757694274 59.5,197.86125804763287 83.79999999701977,234.2776768086478 143.19999999552965,227.34122439008206 154.0,206.53184369858354 129.69999999552965,178.78594812378287 67.60000000149012,182.25418848637491 58.149999998509884,206.53184369858354 86.5,237.74590155202895 139.15000000596046,227.34122439008206 152.64999999850988,204.79772705677897 122.95000000298023,173.5835857493803 66.25,182.25418848637491 56.79999999701977,213.46830783318728 81.10000000149012,237.74590155202895 137.79999999701977,227.34122439008206 135.10000000149012,178.78594812378287 82.44999999552965,175.31770678889006 56.79999999701977,210.00007625855505 74.35000000149012,234.2776768086478 143.19999999552965,222.1388825122267 141.85000000149012,183.9883083049208 116.20000000298023,173.5835857493803 78.39999999850988,175.31770678889006 59.5,215.2024232596159 100.0,236.01178930420429 141.85000000149012,225.60711067263037 131.05000000447035,175.31770678889006 60.850000001490116,190.92478512320668 89.19999999552965,237.74590155202895 136.44999999552965,230.80945108737797 154.0,213.46830783318728 135.10000000149012,177.05182757694274 75.69999999552965,177.05182757694274 60.850000001490116,211.73419216647744 81.10000000149012,234.2776768086478 139.15000000596046,230.80945108737797 152.64999999850988,210.00007625855505 122.95000000298023,177.05182757694274 66.25,183.9883083049208 58.149999998509884,206.53184369858354 86.5,237.74590155202895 143.19999999552965,227.34122439008206 152.64999999850988,206.53184369858354 122.95000000298023,175.31770678889006 64.89999999850988,183.9883083049208 67.60000000149012,227.34122439008206 148.59999999403954,222.1388825122267 140.5,182.25418848637491 114.85000000149012,173.5835857493803 68.95000000298023,178.78594812378287 56.79999999701977,213.46830783318728 77.04999999701977,234.2776768086478 144.54999999701977,223.87299671396613 151.29999999701977,201.32949303742498 116.20000000298023,175.31770678889006 62.20000000298023,187.4565472053364 64.89999999850988,227.34122439008206 141.85000000149012,227.34122439008206 139.15000000596046,182.25418848637491 110.79999999701977,177.05182757694274 73.0,178.78594812378287 54.100000001490116,211.73419216647744 128.3500000089407,234.2776768086478 147.25,197.86125804763287 132.39999999850988,182.25418848637491 70.29999999701977,180.52006842475384 55.45000000298023,216.93653843645006 131.05000000447035,234.2776768086478 151.29999999701977,199.59537566453218 110.79999999701977,175.31770678889006 78.39999999850988,177.05182757694274 58.149999998509884,216.93653843645006 95.95000000298023,239.48001356143504 143.19999999552965,229.07533785887063 139.15000000596046,182.25418848637491 114.85000000149012,175.31770678889006 63.54999999701977,190.92478512320668 58.149999998509884,218.67065337020904 89.19999999552965,236.01178930420429 148.59999999403954,216.93653843645006 128.3500000089407,177.05182757694274 98.64999999850988,175.31770678889006 67.60000000149012,182.25418848637491 59.5,223.87299671396613 139.15000000596046,229.07533785887063 140.5,183.9883083049208 114.85000000149012,173.5835857493803 60.850000001490116,185.72242787852883 66.25,230.80945108737797 145.89999999850988,222.1388825122267 139.15000000596046,182.25418848637491 114.85000000149012,175.31770678889006 74.35000000149012,180.52006842475384 56.79999999701977,222.1388825122267 139.15000000596046,230.80945108737797 145.89999999850988,190.92478512320668 95.95000000298023,175.31770678889006 67.60000000149012,182.25418848637491 63.54999999701977,223.87299671396613 147.25,220.40476806648076" stroke="#4dd2ff" stroke-linecap="round" stroke-linejoin="round" stroke-width="0.5"><title>2020-11-29 10.4km</title></polyline></svg>