<?xml version="1.0" encoding="utf-8" ?>
<svg baseProfile="full" height="200mm" version="1.1" viewBox="0,0,200,200" width="200mm" xmlns="http://www.w3.org/2000/svg" xmlns:ev="http://www.w3.org/2001/xml-events" xmlns:xlink="http://www.w3.org/1999/xlink"><defs /><rect fill="#1a1a1a" height="200" width="200" x="0" y="0" /><text alignment-baseline="middle" fill="#e1ed5e" style="dominant-baseline: central; font-size:9.0px; font-family:Arial;" text-anchor="middle" x="100.0" y="100.0">2022</text><line stroke="#e1ed5e" stroke-width="0.3" x1="100.0" x2="100.0" y1="15.0" y2="10.0" /><path d="M 100.0 14.0 a86.0,86.0 0 0,1 42.46469731375804,11.215312516191453" fill="none" id="id25" stroke="none" /><text fill="#e1ed5e" style="font-size:6.75px; font-family:Arial;" text-anchor="middle"><textPath startOffset="22.20632615414155" xlink:href="#id25">January</textPath></text><path d="M 102.16513564639614 79.11191278185805 l 5.9327495985282415 -57.236040274763226 a78.54269566272643,78.54269566272643 0 0,0 1.343578641816839,0.15096671534641565 l -6.917094943854806 57.12543760594621" fill="#3effba" stroke="none" /><path d="M 109.08828744355905 81.06846463323043 l 20.137233009957075 -41.947258081836075 a67.53042675370028,67.53042675370028 0 0,0 1.0435982777439614,0.5120891425914028 l -20.85630255471147 41.59441377910984" fill="#a6ff21" stroke="none" /><line stroke="#e1ed5e" stroke-width="0.3" x1="143.23703022742887" x2="145.7803849466894" y1="26.81831364943548" y2="22.513508569990506" /><path d="M 143.74570117128098 25.957352633546492 a86.0,86.0 0 0,1 28.547481713284135,27.462654790039103" fill="none" id="id26" stroke="none" /><text fill="#e1ed5e" style="font-size:6.75px; font-family:Arial;" text-anchor="middle"><textPath startOffset="19.985693538727396" xlink:href="#id26">February</textPath></text><path d="M 113.34407831869373 83.78471172551755 l 35.069342397172015 -42.61511982959799 a76.18973830578545,76.18973830578545 0 0,0 1.005495796785984,0.8420738132971709 l -35.79769573091711 42.005144858906995" fill="#38ff83" stroke="none" /><path d="M 116.82858285166822 87.43820079747576 l 45.75711463229092 -34.15567972443644 a78.09924690318508,78.09924690318508 0 0,0 0.7948918570352397,1.0842315996786305 l -46.33826910183979 33.362985681086315" fill="#3dffb0" stroke="none" /><line stroke="#e1ed5e" stroke-width="0.3" x1="172.23445277983987" x2="176.4835382374775" y1="55.19839476539836" y2="52.563006222186495" /><path d="M 173.08426987136738 54.67131705675599 a86.0,86.0 0 0,1 12.851231095245387,41.99856678651699" fill="none" id="id27" stroke="none" /><text fill="#e1ed5e" style="font-size:6.75px; font-family:Arial;" text-anchor="middle"><textPath startOffset="22.20632615414155" xlink:href="#id27">March</textPath></text><path d="M 117.84615892207809 88.93136811851018 l 48.3041903553151 -29.959460952403948 a77.84069058729963,77.84069058729963 0 0,0 0.6964302862782779,1.1447482766273487 l -48.8127364398796 29.123544902569517" fill="#3dffaa" stroke="none" /><line stroke="#e1ed5e" stroke-width="0.3" x1="184.98032266829074" x2="189.97916517819016" y1="98.17113171792111" y2="98.06355123074" /><path d="M 185.9800911702706 98.14961562048488 a86.0,86.0 0 0,1 -9.607161424134198,41.387399972396054" fill="none" id="id28" stroke="none" /><text fill="#e1ed5e" style="font-size:6.75px; font-family:Arial;" text-anchor="middle"><textPath startOffset="21.466115282336823" xlink:href="#id28">April</textPath></text><path d="M 120.13307415673323 105.97154293290107 l 35.7368868565885 10.599690464110086 a58.275709518875075,58.275709518875075 0 0,0 -0.2935242800145953,0.9592543302888785 l -35.54913580406777 -11.213271766951022" fill="#ff6209" stroke="none" /><path d="M 120.02730092923936 106.31721596034902 l 42.88981065172853 13.528742457246205 a65.97291107117286,65.97291107117286 0 0,0 -0.3509373995079066,1.0800742570445867 l -42.65058100120438 -14.265015614268586" fill="#cbff1d" stroke="none" /><path d="M 119.9155931802556 106.66101706037122 l 43.80404087271573 14.650804569337614 a67.18917699318179,67.18917699318179 0 0,0 -0.3762887274179193,1.0936711787254239 l -43.54536131435458 -15.40264845115234" fill="#aeff20" stroke="none" /><path d="M 119.41010516605496 108.01547362559984 l 51.133090729313196 21.115596058334763 a76.32143675313338,76.32143675313338 0 0,0 -0.5118952133653376,1.209969072994135 l -50.762044534755546 -21.99263965699506" fill="#39ff86" stroke="none" /><path d="M 119.26925614724726 108.34839909993367 l 32.961877546364114 14.28072296809968 a56.92247791944637,56.92247791944637 0 0,0 -0.3972617437277205,0.8957203580685384 l -32.711174717905116 -14.845991662660905" fill="#ff3a05" stroke="none" /><path d="M 118.81262510543309 109.33194174019688 l 30.486676422327303 15.122817077943502 a55.03141248394822,55.03141248394822 0 0,0 -0.42825269674606375,0.8449831990238511 l -30.22184505579497 -15.645354488670046" fill="#ff0000" stroke="none" /><line stroke="#e1ed5e" stroke-width="0.3" x1="174.80103733775053" x2="179.2010983576182" y1="140.37084112569926" y2="142.7455964860345" /><path d="M 175.68104954172406 140.8457921977663 a86.0,86.0 0 0,1 -30.038265399797805,32.042727171017184" fill="none" id="id29" stroke="none" /><text fill="#e1ed5e" style="font-size:6.75px; font-family:Arial;" text-anchor="middle"><textPath startOffset="22.206326154141568" xlink:href="#id29">May</textPath></text><line stroke="#e1ed5e" stroke-width="0.3" x1="143.8653032363475" x2="146.44561519142675" y1="172.8068346515853" y2="177.08958963109032" /><path d="M 144.38136562736335 173.6633856474863 a86.0,86.0 0 0,1 -40.68145358897372,12.25698825130547" fill="none" id="id30" stroke="none" /><text fill="#e1ed5e" style="font-size:6.75px; font-family:Arial;" text-anchor="middle"><textPath startOffset="21.466115282336833" xlink:href="#id30">June</textPath></text><path d="M 109.89434966115114 118.52300852407294 l 20.279048730234553 37.963990090736594 a64.04072909480942,64.04072909480942 0 0,0 -0.9768013399001714,0.5110162945533903 l -19.622556487807884 -38.30743580423471" fill="#fcff18" stroke="none" /><path d="M 109.57404056367764 118.69057910512821 l 16.385372283753643 31.98775843903814 a56.94018801886626,56.94018801886626 0 0,0 -0.8761904406716919,0.43934007636796135 l -15.83232793539919 -32.2650663563154" fill="#ff3b05" stroke="none" /><path d="M 108.92500713936063 119.00905698771935 l 14.8580719928441 31.645681939459333 a55.96014142931863,55.96014142931863 0 0,0 -0.8754617819482245,0.40188156540357534 l -14.311142215128454 -31.896750575196982" fill="#ff1d02" stroke="none" /><path d="M 108.59647513512805 119.15986991738527 l 18.53056247166241 41.30101708806311 a66.26760163764659,66.26760163764659 0 0,0 -1.0447539448686078,0.4579894269421416 l -17.81688785213605 -41.61387106829971" fill="#c4ff1e" stroke="none" /><path d="M 106.91757812671514 119.82793768551818 l 18.402556026969865 52.74746847424241 a76.86545890590143,76.86545890590143 0 0,0 -1.2530177654838022,0.42509165752554573 l -17.491868528548835 -53.05642311866608" fill="#3aff93" stroke="none" /><path d="M 106.2309692047433 120.05430185196036 l 16.54912453257253 53.26316466293051 a76.77488890804753,76.77488890804753 0 0,0 -1.265414780268821,0.3812590929392695 l -15.629834777863463 -53.540139124975504" fill="#3aff91" stroke="none" /><path d="M 105.88484417918355 120.15858648285463 l 9.736784947297117 33.35344410976018 a55.74560713374869,55.74560713374869 0 0,0 -0.9234361541388911,0.2609722811140807 l -9.16121762505362 -33.51610518421278" fill="#ff1602" stroke="none" /><path d="M 104.13013068566511 120.58985236759428 l 6.885168561121151 34.324483893820556 a56.00822390085218,56.00822390085218 0 0,0 -0.9468920635772204,0.18147411760667959 l -6.293308882972226 -34.4379152097757" fill="#ff1e03" stroke="none" /><path d="M 101.62511606390274 120.93702456842531 l 3.895264459365526 50.18426037239102 a71.33520710528896,71.33520710528896 0 0,0 -1.2250539118911734,0.08448689023724733 l -3.030847786695422 -50.24387560714456" fill="#4fff2b" stroke="none" /><path d="M 100.90346689309514 120.98055641714683 l 2.290024315376332 53.17957383119245 a74.22885762659446,74.22885762659446 0 0,0 -1.277017884710874,0.04398307800230955 l -1.374286078990806 -53.211113707620854" fill="#33ff53" stroke="none" /><line stroke="#e1ed5e" stroke-width="0.3" x1="102.19456741930631" x2="102.32365962044197" y1="184.97166512339345" y2="189.96999836594603" /><path d="M 102.22038585953345 185.97133177190398 a86.0,86.0 0 0,1 -42.740103519485714,-10.115201625700543" fill="none" id="id31" stroke="none" /><text fill="#e1ed5e" style="font-size:6.75px; font-family:Arial;" text-anchor="middle"><textPath startOffset="22.20632615414155" xlink:href="#id31">July</textPath></text><path d="M 99.81925306533755 120.99922214144158 l -0.502291511103056 58.35634801282651 a79.35850966359787,79.35850966359787 0 0,0 -1.3658744924984059,-0.023514768070179305 l 1.5067256934941295 -58.33905576747717" fill="#41ffcc" stroke="none" /><path d="M 99.09653310690486 120.98055641714683 l -2.54029366608772 58.991397454407746 a80.04606731640872,80.04606731640872 0 0,0 -1.3760754941809812,-0.07112738495476105 l 3.55535722868219 -58.93893026269079" fill="#42ffdb" stroke="none" /><path d="M 98.37488393609728 120.93702456842531 l -4.668873224478016 60.150973569855104 a81.33189868210394,81.33189868210394 0 0,0 -1.3948640694870929,-0.1203547411972557 l 5.703581611706651 -60.06169457637918" fill="#46fff6" stroke="none" /><path d="M 96.93821686468263 120.77559828337769 l -9.185349405952088 62.32679485013308 a84.0,84.0 0 0,0 -1.4286565455659315,-0.22312677061157693 l 10.256841815126537 -62.1594497721744" fill="#4dd2ff" stroke="none" /><line stroke="#e1ed5e" stroke-width="0.3" x1="58.666819895761336" x2="56.23545636021788" y1="174.27360380694188" y2="178.64263932499728" /><path d="M 58.180547188652646 175.14741091055294 a86.0,86.0 0 0,1 -31.652253787137756,-30.449443065178592" fill="none" id="id32" stroke="none" /><text fill="#e1ed5e" style="font-size:6.75px; font-family:Arial;" text-anchor="middle"><textPath startOffset="22.20632615414155" xlink:href="#id32">August</textPath></text><line stroke="#e1ed5e" stroke-width="0.3" x1="26.63291911575756" x2="22.317208475507996" y1="142.92168965132927" y2="145.44649492493687" /><path d="M 25.769776987707644 143.4266507060508 a86.0,86.0 0 0,1 -11.730757126820373,-40.83630448921669" fill="none" id="id33" stroke="none" /><text fill="#e1ed5e" style="font-size:6.75px; font-family:Arial;" text-anchor="middle"><textPath startOffset="21.46611528233685" xlink:href="#id33">September</textPath></text><line stroke="#e1ed5e" stroke-width="0.3" x1="15.007084014347285" x2="10.007500721073583" y1="101.09737516637583" y2="101.16192664675087" /><path d="M 14.007167355692545 101.11028546245083 a86.0,86.0 0 0,1 10.666146001902534,-42.60595125391555" fill="none" id="id34" stroke="none" /><text fill="#e1ed5e" style="font-size:6.75px; font-family:Arial;" text-anchor="middle"><textPath startOffset="22.20632615414155" xlink:href="#id34">October</textPath></text><line stroke="#e1ed5e" stroke-width="0.3" x1="26.266209847984243" x2="21.928928074336255" y1="57.711370442889674" y2="55.22380399835377" /><path d="M 25.398753493254645 57.213857153982495 a86.0,86.0 0 0,1 29.58750427330803,-30.492523968695096" fill="none" id="id35" stroke="none" /><text fill="#e1ed5e" style="font-size:6.75px; font-family:Arial;" text-anchor="middle"><textPath startOffset="21.46611528233685" xlink:href="#id35">November</textPath></text><line stroke="#e1ed5e" stroke-width="0.3" x1="56.762969772571076" x2="54.21961505331055" y1="26.818313649435495" y2="22.513508569990535" /><path d="M 56.25429882871897 25.957352633546506 a86.0,86.0 0 0,1 42.265352541879196,-11.944610805530505" fill="none" id="id36" stroke="none" /><text fill="#e1ed5e" style="font-size:6.75px; font-family:Arial;" text-anchor="middle"><textPath startOffset="22.20632615414155" xlink:href="#id36">December</textPath></text></svg>