<?xml version="1.0" encoding="utf-8" ?>
<svg baseProfile="full" height="200mm" version="1.1" viewBox="0,0,200,200" width="200mm" xmlns="http://www.w3.org/2000/svg" xmlns:ev="http://www.w3.org/2001/xml-events" xmlns:xlink="http://www.w3.org/1999/xlink"><defs /><rect fill="#1a1a1a" height="200" width="200" x="0" y="0" /><text alignment-baseline="middle" fill="#e1ed5e" style="dominant-baseline: central; font-size:9.0px; font-family:Arial;" text-anchor="middle" x="100.0" y="100.0">2023</text><line stroke="#e1ed5e" stroke-width="0.3" x1="100.0" x2="100.0" y1="15.0" y2="10.0" /><path d="M 100.0 14.0 a86.0,86.0 0 0,1 42.46469731375804,11.215312516191453" fill="none" id="id37" stroke="none" /><text fill="#e1ed5e" style="font-size:6.75px; font-family:Arial;" text-anchor="middle"><textPath startOffset="22.20632615414155" xlink:href="#id37">January</textPath></text><path d="M 105.71112130821622 79.79150937346287 l 8.29256521927427 -29.342788825473754 a51.49206280283879,51.49206280283879 0 0,0 0.8508690239135573,0.24839200044526846 l -8.796424460911254 29.195698496109785" fill="#f7ff18" stroke="none" /><path d="M 106.0581310904928 79.89281104454417 l 8.668605464285946 -28.771461932250155 a51.04898904146973,51.04898904146973 0 0,0 0.8391837012116954,0.2607384609034156 l -9.16257453820836 28.61798333646422" fill="#feff18" stroke="none" /><line stroke="#e1ed5e" stroke-width="0.3" x1="143.23703022742887" x2="145.7803849466894" y1="26.81831364943548" y2="22.513508569990506" /><path d="M 143.74570117128098 25.957352633546492 a86.0,86.0 0 0,1 28.547481713284135,27.462654790039103" fill="none" id="id38" stroke="none" /><text fill="#e1ed5e" style="font-size:6.75px; font-family:Arial;" text-anchor="middle"><textPath startOffset="19.985693538727396" xlink:href="#id38">February</textPath></text><path d="M 112.48926042617603 83.11751280151076 l 11.818691947412143 -15.976039308691503 a40.87247622569167,40.87247622569167 0 0,0 0.5620040340755962,0.4232897869002189 l -12.091942135246121 15.770232932285436" fill="#ff5407" stroke="none" /><path d="M 112.77801427241765 83.33499621200491 l 12.309916832764685 -16.054514126717585 a41.23070627226242,41.23070627226242 0 0,0 0.5594956673989843,0.4366952429781297 l -12.5844450553231 15.840240494516232" fill="#ff5a08" stroke="none" /><path d="M 114.94478906791727 85.2469230424477 l 17.785516296014055 -17.55736326905972 a45.99171052324168,45.99171052324168 0 0,0 0.551321767243891,0.5681855436963561 l -18.085102326961056 17.248613529813248" fill="#ffad10" stroke="none" /><path d="M 115.19652480421416 85.50635884689758 l 18.031633412407512 -17.197617708704854 a45.91782210335024,45.91782210335024 0 0,0 0.5405898156140548,0.5766635237622049 l -18.324990549992027 16.884684768064595" fill="#ffac0f" stroke="none" /><path d="M 115.4437574822437 85.77008943001954 l 21.98291799361607 -20.255106794834546 a50.89177202482653,50.89177202482653 0 0,0 0.5880577201020519,0.6493480221412289 l -22.32831935433416 19.87370598542377" fill="#fffd18" stroke="none" /><path d="M 115.9244219780498 86.31012108654704 l 18.928059940686065 -16.27204108329623 a45.96098503935061,45.96098503935061 0 0,0 0.510581428731328,0.6043673659451045 l -19.20535198290451 15.943814767722019" fill="#ffad10" stroke="none" /><path d="M 116.15771136456269 86.58626213691792 l 23.726271406040215 -19.696971800534246 a51.836774360236234,51.836774360236234 0 0,0 0.5640371955813774,0.6914429092740514 l -24.061807093698 19.285644721652094" fill="#f2ff19" stroke="none" /><path d="M 116.60985879189232 87.15038557335679 l 19.892432670703915 -15.389058572326652 a46.15018889195445,46.15018889195445 0 0,0 0.4806741273272523,0.632510807574786 l -20.15438273825528 15.044362988870834" fill="#ffb010" stroke="none" /><path d="M 117.65298651832404 88.62581576622439 l 15.589342968830179 -10.044536023801548 a39.54508878741922,39.54508878741922 0 0,0 0.3637628503682322,0.575385471445072 l -15.759933415444367 9.77470290464227" fill="#ff3c05" stroke="none" /><line stroke="#e1ed5e" stroke-width="0.3" x1="172.23445277983987" x2="176.4835382374775" y1="55.19839476539836" y2="52.563006222186495" /><path d="M 173.08426987136738 54.67131705675599 a86.0,86.0 0 0,1 12.851231095245387,41.99856678651699" fill="none" id="id39" stroke="none" /><text fill="#e1ed5e" style="font-size:6.75px; font-family:Arial;" text-anchor="middle"><textPath startOffset="22.20632615414155" xlink:href="#id39">March</textPath></text><path d="M 117.84615892207809 88.93136811851018 l 26.32749795734203 -16.328969417053756 a51.9801935261374,51.9801935261374 0 0,0 0.46505986502790075,0.7644361388478029 l -26.604673620656154 15.873365504998871" fill="#efff19" stroke="none" /><path d="M 118.03404312379186 89.2402003453031 l 13.16881334990604 -7.857017550776169 a36.33461345576954,36.33461345576954 0 0,0 0.31583486515290465,0.5398641639220607 l -13.302107889529273 7.629173974500212" fill="#ff0000" stroke="none" /><path d="M 118.3937258080291 89.86733742301442 l 32.92012056004474 -18.13490519049774 a58.5846926814125,58.5846926814125 0 0,0 0.478977011579705,0.8874716584562403 l -33.227405670842906 17.56555254870904" fill="#8dff24" stroke="none" /><path d="M 118.73160827565052 90.50648371742162 l 22.82423349528095 -11.56773241977781 a46.58824081453595,46.58824081453595 0 0,0 0.3563778286176456,0.718435956023302 l -23.019971336852006 11.173136875255558" fill="#ffb711" stroke="none" /><path d="M 118.89224826269711 90.83032412892265 l 23.537910866053263 -11.42452768579088 a47.16396531074123,47.16396531074123 0 0,0 0.3482088746362894,0.7334166943185242 l -23.73107793453131 11.017668575831815" fill="#ffc111" stroke="none" /><path d="M 119.04729006885535 91.15688171328212 l 22.707975310238638 -10.542670951846175 a46.03597518550673,46.03597518550673 0 0,0 0.32750800138321706,0.7216204682172263 l -22.886085628585203 10.150228474786886" fill="#ffae10" stroke="none" /><path d="M 119.196687751892 91.48605970444005 l 14.790665750893217 -6.5598215047425 a37.18008193825754,37.18008193825754 0 0,0 0.2544344373018075,0.5872697611076297 l -14.901390898037706 6.304252599048267" fill="#ff1001" stroke="none" /><path d="M 119.47837535516314 92.15188598940014 l 58.435126065489385 -23.54434203179955 a84.0,84.0 0 0,0 0.5288258004731983,1.3458039804168624 l -58.83174541584429 22.534989046486903" fill="#4dd2ff" stroke="none" /><path d="M 119.7369772167798 92.82701384747503 l 29.537175318161765 -10.734660491057927 a52.427339397952615,52.427339397952615 0 0,0 0.3009502021791277,0.8508267479504626 l -29.717578601150702 10.22463611668085" fill="#e9ff1a" stroke="none" /><line stroke="#e1ed5e" stroke-width="0.3" x1="184.98032266829074" x2="189.97916517819016" y1="98.17113171792111" y2="98.06355123074" /><path d="M 185.9800911702706 98.14961562048488 a86.0,86.0 0 0,1 -9.607161424134198,41.387399972396054" fill="none" id="id40" stroke="none" /><text fill="#e1ed5e" style="font-size:6.75px; font-family:Arial;" text-anchor="middle"><textPath startOffset="21.466115282336823" xlink:href="#id40">April</textPath></text><line stroke="#e1ed5e" stroke-width="0.3" x1="174.80103733775053" x2="179.2010983576182" y1="140.37084112569926" y2="142.7455964860345" /><path d="M 175.68104954172406 140.8457921977663 a86.0,86.0 0 0,1 -30.038265399797805,32.042727171017184" fill="none" id="id41" stroke="none" /><text fill="#e1ed5e" style="font-size:6.75px; font-family:Arial;" text-anchor="middle"><textPath startOffset="22.206326154141568" xlink:href="#id41">May</textPath></text><line stroke="#e1ed5e" stroke-width="0.3" x1="143.8653032363475" x2="146.44561519142675" y1="172.8068346515853" y2="177.08958963109032" /><path d="M 144.38136562736335 173.6633856474863 a86.0,86.0 0 0,1 -40.68145358897372,12.25698825130547" fill="none" id="id42" stroke="none" /><text fill="#e1ed5e" style="font-size:6.75px; font-family:Arial;" text-anchor="middle"><textPath startOffset="21.466115282336833" xlink:href="#id42">June</textPath></text><line stroke="#e1ed5e" stroke-width="0.3" x1="102.19456741930631" x2="102.32365962044197" y1="184.97166512339345" y2="189.96999836594603" /><path d="M 102.22038585953345 185.97133177190398 a86.0,86.0 0 0,1 -42.740103519485714,-10.115201625700543" fill="none" id="id43" stroke="none" /><text fill="#e1ed5e" style="font-size:6.75px; font-family:Arial;" text-anchor="middle"><textPath startOffset="22.20632615414155" xlink:href="#id43">July</textPath></text><line stroke="#e1ed5e" stroke-width="0.3" x1="58.666819895761336" x2="56.23545636021788" y1="174.27360380694188" y2="178.64263932499728" /><path d="M 58.180547188652646 175.14741091055294 a86.0,86.0 0 0,1 -31.652253787137756,-30.449443065178592" fill="none" id="id44" stroke="none" /><text fill="#e1ed5e" style="font-size:6.75px; font-family:Arial;" text-anchor="middle"><textPath startOffset="22.20632615414155" xlink:href="#id44">August</textPath></text><line stroke="#e1ed5e" stroke-width="0.3" x1="26.63291911575756" x2="22.317208475507996" y1="142.92168965132927" y2="145.44649492493687" /><path d="M 25.769776987707644 143.4266507060508 a86.0,86.0 0 0,1 -11.730757126820373,-40.83630448921669" fill="none" id="id45" stroke="none" /><text fill="#e1ed5e" style="font-size:6.75px; font-family:Arial;" text-anchor="middle"><textPath startOffset="21.46611528233685" xlink:href="#id45">September</textPath></text><line stroke="#e1ed5e" stroke-width="0.3" x1="15.007084014347285" x2="10.007500721073583" y1="101.09737516637583" y2="101.16192664675087" /><path d="M 14.007167355692545 101.11028546245083 a86.0,86.0 0 0,1 10.666146001902534,-42.60595125391555" fill="none" id="id46" stroke="none" /><text fill="#e1ed5e" style="font-size:6.75px; font-family:Arial;" text-anchor="middle"><textPath startOffset="22.20632615414155" xlink:href="#id46">October</textPath></text><line stroke="#e1ed5e" stroke-width="0.3" x1="26.266209847984243" x2="21.928928074336255" y1="57.711370442889674" y2="55.22380399835377" /><path d="M 25.398753493254645 57.213857153982495 a86.0,86.0 0 0,1 29.58750427330803,-30.492523968695096" fill="none" id="id47" stroke="none" /><text fill="#e1ed5e" style="font-size:6.75px; font-family:Arial;" text-anchor="middle"><textPath startOffset="21.46611528233685" xlink:href="#id47">November</textPath></text><line stroke="#e1ed5e" stroke-width="0.3" x1="56.762969772571076" x2="54.21961505331055" y1="26.818313649435495" y2="22.513508569990535" /><path d="M 56.25429882871897 25.957352633546506 a86.0,86.0 0 0,1 42.265352541879196,-11.944610805530505" fill="none" id="id48" stroke="none" /><text fill="#e1ed5e" style="font-size:6.75px; font-family:Arial;" text-anchor="middle"><textPath startOffset="22.20632615414155" xlink:href="#id48">December</textPath></text></svg>