<?xml version="1.0" encoding="utf-8" ?>
<svg baseProfile="full" height="200mm" version="1.1" viewBox="0,0,200,200" width="200mm" xmlns="http://www.w3.org/2000/svg" xmlns:ev="http://www.w3.org/2001/xml-events" xmlns:xlink="http://www.w3.org/1999/xlink"><defs /><rect fill="#1a1a1a" height="200" width="200" x="0" y="0" /><text alignment-baseline="middle" fill="#e1ed5e" style="dominant-baseline: central; font-size:9.0px; font-family:Arial;" text-anchor="middle" x="100.0" y="100.0">2022</text><line stroke="#e1ed5e" stroke-width="0.3" x1="100.0" x2="100.0" y1="15.0" y2="10.0" /><path d="M 100.0 14.0 a86.0,86.0 0 0,1 42.46469731375804,11.215312516191453" fill="none" id="id25" stroke="none" /><text fill="#e1ed5e" style="font-size:6.75px; font-family:Arial;" text-anchor="middle"><textPath startOffset="22.20632615414155" xlink:href="#id25">January</textPath></text><path d="M 102.16513564639614 79.11191278185805 l 4.817065857848208 -46.472511753130995 a67.72149903549484,67.72149903549484 0 0,0 1.158467492465894,0.13016732086235122 l -5.616300053823828 46.382708478798044" fill="#34ff5d" stroke="none" /><path d="M 109.08828744355905 81.06846463323043 l 16.3503239084727 -34.05886282247379 a58.78014331195769,58.78014331195769 0 0,0 0.9083735920940413,0.445734976617349 l -16.93416876757717 33.772372685721606" fill="#79ff26" stroke="none" /><line stroke="#e1ed5e" stroke-width="0.3" x1="143.23703022742887" x2="145.7803849466894" y1="26.81831364943548" y2="22.513508569990506" /><path d="M 143.74570117128098 25.957352633546492 a86.0,86.0 0 0,1 28.547481713284135,27.462654790039103" fill="none" id="id26" stroke="none" /><text fill="#e1ed5e" style="font-size:6.75px; font-family:Arial;" text-anchor="middle"><textPath startOffset="19.985693538727396" xlink:href="#id26">February</textPath></text><path d="M 113.34407831869373 83.78471172551755 l 28.474374168853064 -34.601129771293756 a65.81102727853667,65.81102727853667 0 0,0 0.8685252473916366,0.7273649172415306 l -29.065756953203817 34.1058636966584" fill="#31ff41" stroke="none" /><path d="M 116.82858285166822 87.43820079747576 l 37.152256468659054 -27.73253040933948 a67.36144307091786,67.36144307091786 0 0,0 0.6856028028233365,0.9351614525551041 l -37.62412188399602 27.08890651311288" fill="#34ff57" stroke="none" /><line stroke="#e1ed5e" stroke-width="0.3" x1="172.23445277983987" x2="176.4835382374775" y1="55.19839476539836" y2="52.563006222186495" /><path d="M 173.08426987136738 54.67131705675599 a86.0,86.0 0 0,1 12.851231095245387,41.99856678651699" fill="none" id="id27" stroke="none" /><text fill="#e1ed5e" style="font-size:6.75px; font-family:Arial;" text-anchor="middle"><textPath startOffset="22.20632615414155" xlink:href="#id27">March</textPath></text><path d="M 117.84615892207809 88.93136811851018 l 39.22034164551828 -24.325431922689397 a67.15150958545746,67.15150958545746 0 0,0 0.6007956082066027,0.9875500113229925 l -39.633253052011106 23.646714138159325" fill="#33ff54" stroke="none" /><line stroke="#e1ed5e" stroke-width="0.3" x1="184.98032266829074" x2="189.97916517819016" y1="98.17113171792111" y2="98.06355123074" /><path d="M 185.9800911702706 98.14961562048488 a86.0,86.0 0 0,1 -9.607161424134198,41.387399972396054" fill="none" id="id28" stroke="none" /><text fill="#e1ed5e" style="font-size:6.75px; font-family:Arial;" text-anchor="middle"><textPath startOffset="21.466115282336823" xlink:href="#id28">April</textPath></text><path d="M 120.13307415673323 105.97154293290107 l 29.016383497014928 8.606364753889228 a51.26582272998418,51.26582272998418 0 0,0 -0.25821673953709,0.8438672451277712 l -28.863939984971704 -9.104558971569055" fill="#e0ff1b" stroke="none" /><path d="M 120.02730092923936 106.31721596034902 l 34.82416358702695 10.984593620231138 a57.51552637629145,57.51552637629145 0 0,0 -0.3059490468148186,0.9416143445964349 l -34.62992228919588 -11.58240686480537" fill="#89ff24" stroke="none" /><path d="M 119.9155931802556 106.66101706037122 l 35.566468164456424 11.89564624444461 a58.50306730477204,58.50306730477204 0 0,0 -0.32764272061840394,0.9522831122749978 l -35.35643461289479 -12.506102059808908" fill="#7cff26" stroke="none" /><path d="M 119.41010516605496 108.01547362559984 l 41.517252914151754 17.14470080887139 a65.9179591629379,65.9179591629379 0 0,0 -0.4421180890431073,1.0450365629256937 l -41.215983843916334 -17.85681189746325" fill="#31ff42" stroke="none" /><path d="M 119.26925614724726 108.34839909993367 l 26.763228803479763 11.595160370848445 a50.16707321643882,50.16707321643882 0 0,0 -0.35011580156228983,0.7894187046507306 l -26.559671917186197 -12.054127411991864" fill="#f0ff19" stroke="none" /><path d="M 118.81262510543309 109.33194174019688 l 24.753501841657023 12.278894399776624 a48.63163225554696,48.63163225554696 0 0,0 -0.37844981112697473,0.7467173808964056 l -24.53847336074378 -12.703165992375723" fill="#fff717" stroke="none" /><line stroke="#e1ed5e" stroke-width="0.3" x1="174.80103733775053" x2="179.2010983576182" y1="140.37084112569926" y2="142.7455964860345" /><path d="M 175.68104954172406 140.8457921977663 a86.0,86.0 0 0,1 -30.038265399797805,32.042727171017184" fill="none" id="id29" stroke="none" /><text fill="#e1ed5e" style="font-size:6.75px; font-family:Arial;" text-anchor="middle"><textPath startOffset="22.206326154141568" xlink:href="#id29">May</textPath></text><line stroke="#e1ed5e" stroke-width="0.3" x1="143.8653032363475" x2="146.44561519142675" y1="172.8068346515853" y2="177.08958963109032" /><path d="M 144.38136562736335 173.6633856474863 a86.0,86.0 0 0,1 -40.68145358897372,12.25698825130547" fill="none" id="id30" stroke="none" /><text fill="#e1ed5e" style="font-size:6.75px; font-family:Arial;" text-anchor="middle"><textPath startOffset="21.466115282336833" xlink:href="#id30">June</textPath></text><path d="M 109.89434966115114 118.52300852407294 l 16.465470461164603 30.82466863916546 a55.9467010491954,55.9467010491954 0 0,0 -0.8533446342708447,0.446429581092376 l -15.932434924367262 -31.10352763920255" fill="#9eff22" stroke="none" /><path d="M 109.57404056367764 118.69057910512821 l 13.304019676775553 25.972297749429952 a50.181452841575165,50.181452841575165 0 0,0 -0.7721876377408023,0.38719091191564103 l -12.85497813135199 -26.197456502254898" fill="#f0ff19" stroke="none" /><path d="M 108.92500713936063 119.00905698771935 l 12.063935974633951 25.694550475669725 a49.38570899848737,49.38570899848737 0 0,0 -0.7726088551295258,0.35466683131860693 l -11.619859123737006 -25.898404377322407" fill="#fcff18" stroke="none" /><path d="M 108.59647513512805 119.15986991738527 l 15.045795937706872 33.534150734874835 a57.754798882709494,57.754798882709494 0 0,0 -0.910543802350694,0.39915564453480856 l -14.466331460698424 -33.7881709327041" fill="#86ff25" stroke="none" /><path d="M 106.91757812671514 119.82793768551818 l 14.941861756081215 42.82803871213954 a66.35967518254915,66.35967518254915 0 0,0 -1.0817583489257583,0.3669911650529529 l -14.20243367421823 -43.07889286409062" fill="#32ff49" stroke="none" /><path d="M 106.2309692047433 120.05430185196036 l 13.436977482230047 43.246755609304415 a66.28613733350262,66.28613733350262 0 0,0 -1.0925376656579033,0.3291726364395955 l -12.690564842131897 -43.47164361484973" fill="#32ff48" stroke="none" /><path d="M 105.88484417918355 120.15858648285463 l 7.905733008935795 27.08115928281064 a49.211518968491184,49.211518968491184 0 0,0 -0.8151977913984316,0.23038303863984416 l -7.438404049432758 -27.213231114789" fill="#ffff18" stroke="none" /><path d="M 104.13013068566511 120.58985236759428 l 5.590377589766178 27.86959009599883 a49.424749316663394,49.424749316663394 0 0,0 -0.8355898404328823,0.16014278163954346 l -5.109820134761591 -27.961690075986844" fill="#fbff18" stroke="none" /><path d="M 101.62511606390274 120.93702456842531 l 3.162740163372818 40.746854932353635 a61.869415364295136,61.869415364295136 0 0,0 -1.0624959594857633,0.07327594209140963 l -2.460881443108124 -40.795259218961334" fill="#51ff2b" stroke="none" /><path d="M 100.90346689309514 120.98055641714683 l 1.859373593987195 43.178884458684045 a64.21890018566418,64.21890018566418 0 0,0 -1.1048086511865411,0.03805184380308489 l -1.1158445911260015 -43.204493100913226" fill="#34ff2f" stroke="none" /><line stroke="#e1ed5e" stroke-width="0.3" x1="102.19456741930631" x2="102.32365962044197" y1="184.97166512339345" y2="189.96999836594603" /><path d="M 102.22038585953345 185.97133177190398 a86.0,86.0 0 0,1 -42.740103519485714,-10.115201625700543" fill="none" id="id31" stroke="none" /><text fill="#e1ed5e" style="font-size:6.75px; font-family:Arial;" text-anchor="middle"><textPath startOffset="22.20632615414155" xlink:href="#id31">July</textPath></text><path d="M 99.81925306533755 120.99922214144158 l -0.40783303738653437 47.38213992227647 a68.38389506362441,68.38389506362441 0 0,0 -1.176985535149698,-0.020262873370141165 l 1.2233782624289002 -47.36809957162717" fill="#35ff66" stroke="none" /><path d="M 99.09653310690486 120.98055641714683 l -2.0625785202286013 47.89776508600248 a68.94215400235983,68.94215400235983 0 0,0 -1.1851876278155542,-0.06126066266257479 l 2.8867542164576445 -47.8551646165777" fill="#36ff6e" stroke="none" /><path d="M 98.37488393609728 120.93702456842531 l -3.790867865017254 48.83927701441479 a69.98617823897641,69.98617823897641 0 0,0 -1.2002818939200293,-0.10356537233023463 l 4.6309940766788245 -48.7667873898059" fill="#38ff7d" stroke="none" /><path d="M 96.93821686468263 120.77559828337769 l -7.457997726179861 50.605924034981214 a72.15252953195954,72.15252953195954 0 0,0 -1.2271569475592046,-0.19165667745145915 l 8.327990537347583 -50.47004905018265" fill="#3bff9a" stroke="none" /><path d="M 96.22490169976321 120.6578951692458 l -8.563177409239255 46.85897085769195 a68.63497829519952,68.63497829519952 0 0,0 -1.16036381276022,-0.22238648640464076 l 9.36850883657117 -46.70462717293884" fill="#35ff6a" stroke="none" /><path d="M 95.86986931433489 120.58985236759428 l -2.5052775528275046 12.48950671987257 a33.738296343013985,33.738296343013985 0 0,0 -0.5684236820468592,-0.11911870925286162 l 2.7198926963037504 -12.444532029893168" fill="#ff0000" stroke="none" /><path d="M 95.16358092515715 120.4354850818985 l -9.94101315284473 42.00409907417218 a64.16443074497687,64.16443074497687 0 0,0 -1.0726053642545659,-0.26362030217491306 l 10.662571801842507 -41.82675751368324" fill="#35ff2f" stroke="none" /><path d="M 94.81253420990036 120.34920634021253 l -13.44526302221584 52.74259968319606 a75.42937551615339,75.42937551615339 0 0,0 -1.2553946493169839,-0.33156113698902734 l 14.351148114344314 -52.50334719690345" fill="#40ffc5" stroke="none" /><path d="M 94.46302465271185 120.25689768951611 l -12.065704024064589 44.14210225573172 a66.76140737730653,66.76140737730653 0 0,0 -1.105914895239792,-0.3125425960800736 l 12.823750087408996 -43.92787086631313" fill="#33ff4f" stroke="none" /><path d="M 92.40401165467489 119.57807347666478 l -21.188440268678086 54.611568840992916 a79.57792632292345,79.57792632292345 0 0,0 -1.2727880125792297,-0.5064686175562028 l 22.125349357299175 -54.23875337903065" fill="#46fff9" stroke="none" /><path d="M 92.06813273071674 119.44442032107085 l -21.79473593024951 53.42827758296702 a78.70261137723219,78.70261137723219 0 0,0 -1.249979386018413,-0.5224914847320283 l 22.711186775765384 -53.045201055215024" fill="#45ffee" stroke="none" /><line stroke="#e1ed5e" stroke-width="0.3" x1="58.666819895761336" x2="56.23545636021788" y1="174.27360380694188" y2="178.64263932499728" /><path d="M 58.180547188652646 175.14741091055294 a86.0,86.0 0 0,1 -31.652253787137756,-30.449443065178592" fill="none" id="id32" stroke="none" /><text fill="#e1ed5e" style="font-size:6.75px; font-family:Arial;" text-anchor="middle"><textPath startOffset="22.20632615414155" xlink:href="#id32">August</textPath></text><path d="M 89.7882731507175 118.34994917583269 l -14.513961148017446 26.080843459384507 a50.84736946129557,50.84736946129557 0 0,0 -0.7611396804272006,-0.4321949750719957 l 14.960749595365852 -25.827145318517875" fill="#e6ff1a" stroke="none" /><path d="M 87.65650970185807 116.9893568818739 l -27.33353869887673 37.621388487633105 a67.50259357864252,67.50259357864252 0 0,0 -0.9341556299848013,-0.6910660025557642 l 27.977079299280096 -37.14531253633758" fill="#34ff59" stroke="none" /><path d="M 87.36589467227662 116.77436683061367 l -33.177762560543584 44.050286535789425 a76.1470005749085,76.1470005749085 0 0,0 -1.0402088988729141,-0.7975878268727978 l 33.93110018790998 -43.472659367089264" fill="#41ffce" stroke="none" /><path d="M 87.07902340077011 116.55440617244103 l -33.9605153508942 43.510346189902506 a76.19480798465997,76.19480798465997 0 0,0 -1.0269699758998867,-0.8158870592686241 l 34.70444281951144 -42.91932521662875" fill="#41ffcf" stroke="none" /><path d="M 86.51685102203217 116.09983520530335 l -35.351410847080885 42.212089315559666 a76.05981050879029,76.05981050879029 0 0,0 -0.9965085579035905,-0.8492462118369222 l 36.07278488156153 -41.59731871349979" fill="#41ffcd" stroke="none" /><path d="M 85.18274418774928 114.88116024355367 l -19.495788239062648 19.57987042513044 a48.6307271878116,48.6307271878116 0 0,0 -0.5881061466529295,-0.5957484216046416 l 19.82993501077111 -19.241381509545132" fill="#fff717" stroke="none" /><path d="M 82.05923443525364 110.91462005526583 l -38.17966523886536 23.22735551142278 a65.6900087469878,65.6900087469878 0 0,0 -0.5793831378805985,-0.9710794651437114 l 38.57382925244419 -22.56671395239296" fill="#31ff3f" stroke="none" /><line stroke="#e1ed5e" stroke-width="0.3" x1="26.63291911575756" x2="22.317208475507996" y1="142.92168965132927" y2="145.44649492493687" /><path d="M 25.769776987707644 143.4266507060508 a86.0,86.0 0 0,1 -11.730757126820373,-40.83630448921669" fill="none" id="id33" stroke="none" /><text fill="#e1ed5e" style="font-size:6.75px; font-family:Arial;" text-anchor="middle"><textPath startOffset="21.46611528233685" xlink:href="#id33">September</textPath></text><path d="M 80.0844068197444 106.66101706037122 l -36.49158518878679 12.205063103190936 a59.47855707979908,59.47855707979908 0 0,0 -0.3163912249612325,-0.9737520643699016 l 36.69626866476427 -11.575112138843231" fill="#6fff27" stroke="none" /><path d="M 79.35854240842038 103.8639653848113 l -36.08727050165614 6.755335151699924 a57.71410689736977,57.71410689736977 0 0,0 -0.17438882904068947,-0.9780651649025144 l 36.19820577303602 -6.133151236064196" fill="#87ff25" stroke="none" /><path d="M 79.29508885075956 103.50808413554451 l -44.65864683105794 7.56662462029772 a66.29512716535474,66.29512716535474 0 0,0 -0.18094858969110805,-1.1267670407354653 l 44.78227717511034 -6.796778349869041" fill="#32ff48" stroke="none" /><path d="M 79.18660465613746 102.79330883721812 l -44.74543723322136 6.00516269372659 a66.1466070947782,66.1466070947782 0 0,0 -0.1417379756050832,-1.1297911228106416 l 44.84217671807329 -5.23405381662854" fill="#32ff46" stroke="none" /><path d="M 79.10278846688536 102.07522291339032 l -45.49860201649777 4.518293805957854 a66.72239893501447,66.72239893501447 0 0,0 -0.10365929536270883,-1.1438716865377399 l 45.569635908137556 -3.734440730871548" fill="#33ff4e" stroke="none" /><path d="M 79.07016306316243 101.71520430193888 l -44.98713573726612 3.686704725953118 a66.13794604963292,66.13794604963292 0 0,0 -0.08321867321446806,-1.1354526784676484 l 45.043930969144924 -2.911778910988709" fill="#32ff46" stroke="none" /><path d="M 79.0235259727143 100.99374915477108 l -45.00642394294635 2.132155084519659 a66.0569004863479,66.0569004863479 0 0,0 -0.04403122463187348,-1.1362502594000496 l 45.036457300429426 -1.3571275781056122" fill="#32ff44" stroke="none" /><line stroke="#e1ed5e" stroke-width="0.3" x1="15.007084014347285" x2="10.007500721073583" y1="101.09737516637583" y2="101.16192664675087" /><path d="M 14.007167355692545 101.11028546245083 a86.0,86.0 0 0,1 10.666146001902534,-42.60595125391555" fill="none" id="id34" stroke="none" /><text fill="#e1ed5e" style="font-size:6.75px; font-family:Arial;" text-anchor="middle"><textPath startOffset="22.20632615414155" xlink:href="#id34">October</textPath></text><path d="M 79.03285615573316 98.82574320788736 l -48.213581180392275 -2.7001829907620234 a69.2891333368272,69.2891333368272 0 0,0 0.07694198282053442,-1.1902584189059469 l 48.15995860656733 3.5297004739209816" fill="#36ff73" stroke="none" /><path d="M 79.21141760316559 97.0276538004421 l -44.52268492123183 -6.365842114366057 a65.97547574423555,65.97547574423555 0 0,0 0.17041813031728786,-1.1228425519687517 l 44.406510897475236 7.131283778726901" fill="#31ff43" stroke="none" /><path d="M 79.26566170972629 96.67025291283419 l -45.98769562958753 -7.385207737249932 a67.57691963453487,67.57691963453487 0 0,0 0.19432592290128817,-1.1469225971232093 l 45.853757845166015 8.17571612268897" fill="#34ff5a" stroke="none" /><path d="M 79.3925641242962 95.95851677861259 l -45.13855182030827 -8.852469609505539 a66.99842474065687,66.99842474065687 0 0,0 0.23168917986917853,-1.1297987237795608 l 44.9794833445241 9.628143989448501" fill="#33ff52" stroke="none" /><path d="M 79.46518482838121 95.60439243477599 l -43.84772511830607 -9.385883955472442 a65.8410282629215,65.8410282629215 0 0,0 0.2467646899928288,-1.106197719544611 l 43.67966604131121 10.139259844567013" fill="#31ff41" stroke="none" /><path d="M 79.71946130924805 94.55025226153421 l -43.618527839255144 -11.721087741894396 a66.16591489959063,66.16591489959063 0 0,0 0.3050350428505103,-1.0973733456415042 l 43.410306025838274 12.470172390954842" fill="#32ff46" stroke="none" /><path d="M 79.81627453868168 94.20196356495316 l -43.863564380717015 -12.60037672122642 a66.63750402572572,66.63750402572572 0 0,0 0.32618773547807106,-1.0997428874226536 l 43.64017074812724 13.353548995395611" fill="#32ff4d" stroke="none" /><path d="M 80.02781315780177 93.51064311812611 l -59.91656052659468 -19.468070645621676 a84.0,84.0 0 0,0 0.4586508249129104,-1.3713075883107113 l 59.572572407909995 20.496551336854708" fill="#4dd2ff" stroke="none" /><line stroke="#e1ed5e" stroke-width="0.3" x1="26.266209847984243" x2="21.928928074336255" y1="57.711370442889674" y2="55.22380399835377" /><path d="M 25.398753493254645 57.213857153982495 a86.0,86.0 0 0,1 29.58750427330803,-30.492523968695096" fill="none" id="id35" stroke="none" /><text fill="#e1ed5e" style="font-size:6.75px; font-family:Arial;" text-anchor="middle"><textPath startOffset="21.46611528233685" xlink:href="#id35">November</textPath></text><line stroke="#e1ed5e" stroke-width="0.3" x1="56.762969772571076" x2="54.21961505331055" y1="26.818313649435495" y2="22.513508569990535" /><path d="M 56.25429882871897 25.957352633546506 a86.0,86.0 0 0,1 42.265352541879196,-11.944610805530505" fill="none" id="id36" stroke="none" /><text fill="#e1ed5e" style="font-size:6.75px; font-family:Arial;" text-anchor="middle"><textPath startOffset="22.20632615414155" xlink:href="#id36">December</textPath></text></svg>