<?xml version="1.0" encoding="utf-8" ?>
<svg baseProfile="full" height="200mm" version="1.1" viewBox="0,0,200,200" width="200mm" xmlns="http://www.w3.org/2000/svg" xmlns:ev="http://www.w3.org/2001/xml-events" xmlns:xlink="http://www.w3.org/1999/xlink"><defs /><rect fill="#1a1a1a" height="200" width="200" x="0" y="0" /><text alignment-baseline="middle" fill="#e1ed5e" style="dominant-baseline: central; font-size:9.0px; font-family:Arial;" text-anchor="middle" x="100.0" y="100.0">2023</text><line stroke="#e1ed5e" stroke-width="0.3" x1="100.0" x2="100.0" y1="15.0" y2="10.0" /><path d="M 100.0 14.0 a86.0,86.0 0 0,1 42.46469731375804,11.215312516191453" fill="none" id="id37" stroke="none" /><text fill="#e1ed5e" style="font-size:6.75px; font-family:Arial;" text-anchor="middle"><textPath startOffset="22.20632615414155" xlink:href="#id37">January</textPath></text><path d="M 105.71112130821622 79.79150937346287 l 13.90011655124288 -49.184802751335766 a72.11123224718753,72.11123224718753 0 0,0 1.191585857228187,0.3478565871605511 l -14.744692626194494 48.93824783525651" fill="#34ff60" stroke="none" /><path d="M 106.0581310904928 79.89281104454417 l 14.530440593973493 -48.227136432811164 a71.368545664571,71.368545664571 0 0,0 1.1732126615129983,0.36452288483869316 l -15.35843862819721 47.96987341308995" fill="#33ff52" stroke="none" /><line stroke="#e1ed5e" stroke-width="0.3" x1="143.23703022742887" x2="145.7803849466894" y1="26.81831364943548" y2="22.513508569990506" /><path d="M 143.74570117128098 25.957352633546492 a86.0,86.0 0 0,1 28.547481713284135,27.462654790039103" fill="none" id="id38" stroke="none" /><text fill="#e1ed5e" style="font-size:6.75px; font-family:Arial;" text-anchor="middle"><textPath startOffset="19.985693538727396" xlink:href="#id38">February</textPath></text><path d="M 112.48926042617603 83.11751280151076 l 19.810660659071864 -26.779265829818108 a54.31052917821873,54.31052917821873 0 0,0 0.746779723410868,0.5624590053057714 l -20.268686536241116 26.43429023500649" fill="#ffae10" stroke="none" /><path d="M 112.77801427241765 83.33499621200491 l 20.634058845124216 -26.910806443374547 a54.91099951132107,54.91099951132107 0 0,0 0.7451355821134732,0.5815901409843233 l -21.09422698239712 26.551637913167" fill="#ffbb11" stroke="none" /><path d="M 114.94478906791727 85.2469230424477 l 29.81233706356796 -29.42990369315406 a62.8914630035776,62.8914630035776 0 0,0 0.7539061307616325,0.7769665379696846 l -30.3145074580327 28.91237295963426" fill="#a4ff21" stroke="none" /><path d="M 115.19652480421416 85.50635884689758 l 30.22488209790466 -28.826893034148064 a62.767610176241256,62.767610176241256 0 0,0 0.7389621122564833,0.7882732587119546 l -30.71661153213161 28.302350358558055" fill="#a6ff21" stroke="none" /><path d="M 115.4437574822437 85.77008943001954 l 36.84808188634534 -33.951900016616534 a71.10501625028314,71.10501625028314 0 0,0 0.8216230655824444,0.9072567102579424 l -37.42704859254383 33.31259051908904" fill="#32ff4d" stroke="none" /><path d="M 115.9244219780498 86.31012108654704 l 31.727485079396608 -27.275428242483525 a62.839960507560264,62.839960507560264 0 0,0 0.6980902778715484,0.8263186999915787 l -32.19228597075527 26.72525059286284" fill="#a5ff21" stroke="none" /><path d="M 116.15771136456269 86.58626213691792 l 39.770315837111106 -33.01634614794519 a72.68904269518353,72.68904269518353 0 0,0 0.7909312316843683,0.9695881692835021 l -40.332745560871885 32.32687380905359" fill="#36ff6b" stroke="none" /><path d="M 116.60985879189232 87.15038557335679 l 33.34398045707921 -25.795360315292676 a63.15710671426417,63.15710671426417 0 0,0 0.6578085135353694,0.8655988963653057 l -33.7830649108387 25.217576643046336" fill="#9fff22" stroke="none" /><path d="M 117.65298651832404 88.62581576622439 l 26.13107988832945 -16.836795098033395 a52.08554334901382,52.08554334901382 0 0,0 0.4791185528364036,0.7578504900178502 l -26.41702603741181 16.384496960301338" fill="#ff7e0b" stroke="none" /><line stroke="#e1ed5e" stroke-width="0.3" x1="172.23445277983987" x2="176.4835382374775" y1="55.19839476539836" y2="52.563006222186495" /><path d="M 173.08426987136738 54.67131705675599 a86.0,86.0 0 0,1 12.851231095245387,41.99856678651699" fill="none" id="id39" stroke="none" /><text fill="#e1ed5e" style="font-size:6.75px; font-family:Arial;" text-anchor="middle"><textPath startOffset="22.20632615414155" xlink:href="#id39">March</textPath></text><path d="M 117.84615892207809 88.93136811851018 l 44.130529026058106 -27.370852330612305 a72.92944395450371,72.92944395450371 0 0,0 0.6524900170867381,1.0725220273923206 l -44.59513484143107 26.607162530012904" fill="#36ff70" stroke="none" /><path d="M 118.03404312379186 89.2402003453031 l 22.073753484603493 -13.170045313253201 a46.704098631389265,46.704098631389265 0 0,0 0.40597054132113036,0.6939352524022719 l -22.29718370039495 12.788130648497035" fill="#ff0000" stroke="none" /><path d="M 118.3937258080291 89.86733742301442 l 55.1811774240873 -30.397987730956764 a84.0,84.0 0 0,0 0.6867676031261407,1.272476066670165 l -55.696253126431905 29.44363068095414" fill="#4dd2ff" stroke="none" /><line stroke="#e1ed5e" stroke-width="0.3" x1="184.98032266829074" x2="189.97916517819016" y1="98.17113171792111" y2="98.06355123074" /><path d="M 185.9800911702706 98.14961562048488 a86.0,86.0 0 0,1 -9.607161424134198,41.387399972396054" fill="none" id="id40" stroke="none" /><text fill="#e1ed5e" style="font-size:6.75px; font-family:Arial;" text-anchor="middle"><textPath startOffset="21.466115282336823" xlink:href="#id40">April</textPath></text><line stroke="#e1ed5e" stroke-width="0.3" x1="174.80103733775053" x2="179.2010983576182" y1="140.37084112569926" y2="142.7455964860345" /><path d="M 175.68104954172406 140.8457921977663 a86.0,86.0 0 0,1 -30.038265399797805,32.042727171017184" fill="none" id="id41" stroke="none" /><text fill="#e1ed5e" style="font-size:6.75px; font-family:Arial;" text-anchor="middle"><textPath startOffset="22.206326154141568" xlink:href="#id41">May</textPath></text><line stroke="#e1ed5e" stroke-width="0.3" x1="143.8653032363475" x2="146.44561519142675" y1="172.8068346515853" y2="177.08958963109032" /><path d="M 144.38136562736335 173.6633856474863 a86.0,86.0 0 0,1 -40.68145358897372,12.25698825130547" fill="none" id="id42" stroke="none" /><text fill="#e1ed5e" style="font-size:6.75px; font-family:Arial;" text-anchor="middle"><textPath startOffset="21.466115282336833" xlink:href="#id42">June</textPath></text><line stroke="#e1ed5e" stroke-width="0.3" x1="102.19456741930631" x2="102.32365962044197" y1="184.97166512339345" y2="189.96999836594603" /><path d="M 102.22038585953345 185.97133177190398 a86.0,86.0 0 0,1 -42.740103519485714,-10.115201625700543" fill="none" id="id43" stroke="none" /><text fill="#e1ed5e" style="font-size:6.75px; font-family:Arial;" text-anchor="middle"><textPath startOffset="22.20632615414155" xlink:href="#id43">July</textPath></text><line stroke="#e1ed5e" stroke-width="0.3" x1="58.666819895761336" x2="56.23545636021788" y1="174.27360380694188" y2="178.64263932499728" /><path d="M 58.180547188652646 175.14741091055294 a86.0,86.0 0 0,1 -31.652253787137756,-30.449443065178592" fill="none" id="id44" stroke="none" /><text fill="#e1ed5e" style="font-size:6.75px; font-family:Arial;" text-anchor="middle"><textPath startOffset="22.20632615414155" xlink:href="#id44">August</textPath></text><line stroke="#e1ed5e" stroke-width="0.3" x1="26.63291911575756" x2="22.317208475507996" y1="142.92168965132927" y2="145.44649492493687" /><path d="M 25.769776987707644 143.4266507060508 a86.0,86.0 0 0,1 -11.730757126820373,-40.83630448921669" fill="none" id="id45" stroke="none" /><text fill="#e1ed5e" style="font-size:6.75px; font-family:Arial;" text-anchor="middle"><textPath startOffset="21.46611528233685" xlink:href="#id45">September</textPath></text><line stroke="#e1ed5e" stroke-width="0.3" x1="15.007084014347285" x2="10.007500721073583" y1="101.09737516637583" y2="101.16192664675087" /><path d="M 14.007167355692545 101.11028546245083 a86.0,86.0 0 0,1 10.666146001902534,-42.60595125391555" fill="none" id="id46" stroke="none" /><text fill="#e1ed5e" style="font-size:6.75px; font-family:Arial;" text-anchor="middle"><textPath startOffset="22.20632615414155" xlink:href="#id46">October</textPath></text><line stroke="#e1ed5e" stroke-width="0.3" x1="26.266209847984243" x2="21.928928074336255" y1="57.711370442889674" y2="55.22380399835377" /><path d="M 25.398753493254645 57.213857153982495 a86.0,86.0 0 0,1 29.58750427330803,-30.492523968695096" fill="none" id="id47" stroke="none" /><text fill="#e1ed5e" style="font-size:6.75px; font-family:Arial;" text-anchor="middle"><textPath startOffset="21.46611528233685" xlink:href="#id47">November</textPath></text><line stroke="#e1ed5e" stroke-width="0.3" x1="56.762969772571076" x2="54.21961505331055" y1="26.818313649435495" y2="22.513508569990535" /><path d="M 56.25429882871897 25.957352633546506 a86.0,86.0 0 0,1 42.265352541879196,-11.944610805530505" fill="none" id="id48" stroke="none" /><text fill="#e1ed5e" style="font-size:6.75px; font-family:Arial;" text-anchor="middle"><textPath startOffset="22.20632615414155" xlink:href="#id48">December</textPath></text></svg>