<?xml version="1.0" encoding="utf-8" ?>
<svg baseProfile="full" height="200mm" version="1.1" viewBox="0,0,200,200" width="200mm" xmlns="http://www.w3.org/2000/svg" xmlns:ev="http://www.w3.org/2001/xml-events" xmlns:xlink="http://www.w3.org/1999/xlink"><defs /><rect fill="#1a1a1a" height="200" width="200" x="0" y="0" /><text alignment-baseline="middle" fill="#e1ed5e" style="dominant-baseline: central; font-size:9.0px; font-family:Arial;" text-anchor="middle" x="100.0" y="100.0">2024</text><line stroke="#e1ed5e" stroke-width="0.3" x1="100.0" x2="100.0" y1="15.0" y2="10.0" /><path d="M 100.0 14.0 a86.0,86.0 0 0,1 42.35913384403234,11.155469271406648" fill="none" id="id49" stroke="none" /><text fill="#e1ed5e" style="font-size:6.75px; font-family:Arial;" text-anchor="middle"><textPath startOffset="22.145653131862478" xlink:href="#id49">January</textPath></text><path d="M 101.08105385017728 79.02784411241856 l 0.6388545589543266 -12.393607772346515 a33.410062399612045,33.410062399612045 0 0,0 0.5725142690527263,0.03444103674786829 l -0.8515131801395153 12.380814757773955" fill="#ff980e" stroke="none" /><path d="M 101.80034050326958 79.07731436759882 l 0.3794069855728043 -4.409284283423188 a25.425577651871468,25.425577651871468 0 0,0 0.4345357581164251,0.04115098807874975 l -0.4550423070742423 4.4021215398392535" fill="#ff2a04" stroke="none" /><path d="M 102.15924093988457 79.11130261209362 l 1.6043138845129028 -15.520281516428698 a36.60297924722196,36.60297924722196 0 0,0 0.624453969463368,0.06997136976470733 l -1.8705037555770674 15.490454386157019" fill="#ffc212" stroke="none" /><path d="M 103.23170211078529 79.25015418208739 l 2.0434061615908354 -13.12013339808701 a34.278305958397915,34.278305958397915 0 0,0 0.5806459326967675,0.09554506726356207 l -2.2683295973406734 13.083122332327779" fill="#ffa40f" stroke="none" /><path d="M 103.94208987418118 79.37332000966035 l 2.5103781140217434 -13.135359077381379 a34.37309449480952,34.37309449480952 0 0,0 0.5786195098615087,0.11574010715678743 l -2.7354941094142093 13.090329573561732" fill="#ffa50f" stroke="none" /><path d="M 104.9986988182912 79.60360301121754 l 2.0637416397533417 -8.420770143755023 a29.669971128533692,29.669971128533692 0 0,0 0.4936443267840496,0.125482457487382 l -2.2079912597627858 8.384102454432373" fill="#ff6609" stroke="none" /><path d="M 106.38641147887787 79.99465700312896 l 4.311821599461163 -13.506719747674925 a35.17826801297717,35.17826801297717 0 0,0 0.5737027106370673,0.18858747617017657 l -4.543047047745972 13.430711350102726" fill="#ffb010" stroke="none" /><path d="M 108.07796709384702 80.6158196554323 l 3.9349159296590765 -9.44236577533504 a31.2294591650147,31.2294591650147 0 0,0 0.4930758705007726,0.21046476901314848 l -4.096426875330279 9.37342635666249" fill="#ff7b0b" stroke="none" /><path d="M 108.4095320186766 80.7573450057729 l 6.863093054275164 -15.70410000739568 a38.138284724963725,38.138284724963725 0 0,0 0.5976570638600646,0.2673244027736535 l -7.131663520990861 15.583971853712173" fill="#ffd614" stroke="none" /><path d="M 109.3889696526874 81.21577127319529 l 8.658513192318901 -17.32282649268347 a40.36621203016162,40.36621203016162 0 0,0 0.6171662783534643,0.3151294992111138 l -8.954606692385944 17.17163904179952" fill="#fff216" stroke="none" /><path d="M 109.71004243097381 81.37971332152246 l 2.9700513419805543 -5.69546506419628 a27.423357943590005,27.423357943590005 0 0,0 0.41554377173042073,0.22125365285042442 l -3.067383929497535 5.643640943623282" fill="#ff4606" stroke="none" /><path d="M 110.02825361518725 81.54914285379988 l 6.086573656562687 -11.198609982997128 a33.74579320513423,33.74579320513423 0 0,0 0.5065979730095689,0.2810013559132273 l -6.277915817728356 11.092475711650756" fill="#ff9d0e" stroke="none" /><line stroke="#e1ed5e" stroke-width="0.3" x1="143.13028292997686" x2="145.6673583964461" y1="26.7553504044142" y2="22.446841604673864" /><path d="M 143.63769802327073 25.89364864446614 a86.0,86.0 0 0,1 29.32050498858742,28.57503671076993" fill="none" id="id50" stroke="none" /><text fill="#e1ed5e" style="font-size:6.75px; font-family:Arial;" text-anchor="middle"><textPath startOffset="20.669276256404974" xlink:href="#id50">February</textPath></text><path d="M 110.96478420261332 82.08984904055464 l 4.170834547247121 -6.812744782543185 a28.988075631375775,28.988075631375775 0 0,0 0.4221711126395959,0.26346599792759784 l -4.287169788676429 6.740142987774042" fill="#ff5c08" stroke="none" /><path d="M 111.5731344415666 82.4767994020092 l 7.410840491318735 -11.220957052280824 a34.447320698075885,34.447320698075885 0 0,0 0.4906343564717859,0.33012069134984423 l -7.602371135887522 11.092086686873861" fill="#ffa60f" stroke="none" /><path d="M 112.16784306229584 82.88440491214696 l 7.73540786360542 -10.880819891827572 a34.35023506664655,34.35023506664655 0 0,0 0.47766290178946774,0.34579110458298284 l -7.921051775768856 10.746428015871516" fill="#ffa50f" stroke="none" /><path d="M 112.45986205192187 83.09580414077388 l 7.959491760636118 -10.798579237956808 a34.415022275272825,34.415022275272825 0 0,0 0.47254613379258653,0.3546074284121014 l -8.14369088333947 10.660352782280691" fill="#ffa60f" stroke="none" /><path d="M 113.31354834802062 83.75963576809568 l 8.805996849427125 -10.741884321241884 a34.89005612958647,34.89005612958647 0 0,0 0.45992681043817674,0.38368730313137933 l -8.989097994027194 10.589134834198633" fill="#ffac0f" stroke="none" /><path d="M 113.86319453409587 84.22622945171908 l 9.570117310412753 -10.889036737045775 a35.49683642715866,35.49683642715866 0 0,0 0.4542495897670242,0.40619278421164046 l -9.755631927003153 10.723148422950747" fill="#ffb410" stroke="none" /><path d="M 114.13192950727249 84.46653392183569 l 8.92900986379454 -9.81454597261264 a34.26847880490703,34.26847880490703 0 0,0 0.4317342511493714,0.3996067774457416 l -9.096173886257876 9.659821449034524" fill="#ffa40f" stroke="none" /><path d="M 114.91283532996326 85.21462403516908 l 9.879481197470815 -9.79504169462615 a34.91211668045679,34.91211668045679 0 0,0 0.4183023503126588,0.429215061846534 l -10.046170348934284 9.624003940711873" fill="#ffac0f" stroke="none" /><path d="M 116.57777611688842 87.10902102172516 l 16.898175432531072 -13.140123424036519 a42.405867806456946,42.405867806456946 0 0,0 0.4419257294294173,0.5784949658296034 l -17.121253139314796 12.848107544966034" fill="#f3ff19" stroke="none" /><path d="M 117.21940702142032 87.97951657250589 l 12.413923495409348 -8.665882713680086 a36.13945242593455,36.13945242593455 0 0,0 0.35074244334665533,0.5117437069076857 l -12.560855675571327 8.451504271702351" fill="#ffbc11" stroke="none" /><path d="M 117.62189284568427 88.57770195909679 l 6.643272323609192 -4.306088858424296 a28.91678396966077,28.91678396966077 0 0,0 0.2664231482478775,0.4188614407543712 l -6.71621316348296 4.191413742991253" fill="#ff5b08" stroke="none" /><line stroke="#e1ed5e" stroke-width="0.3" x1="172.87174338648825" x2="177.1583165268699" y1="56.24261187166439" y2="53.66864786411523" /><path d="M 173.72905801456457 55.72781907015455 a86.0,86.0 0 0,1 12.242430191666344,42.057860355516425" fill="none" id="id51" stroke="none" /><text fill="#e1ed5e" style="font-size:6.75px; font-family:Arial;" text-anchor="middle"><textPath startOffset="22.145653131862474" xlink:href="#id51">March</textPath></text><path d="M 118.00360718960297 89.18935116829356 l 13.07477888950808 -7.851029054239083 a36.250852442405716,36.250852442405716 0 0,0 0.31577304485345364,0.5362516647426672 l -13.207625644491301 7.62542622120286" fill="#ffbe11" stroke="none" /><path d="M 118.18653347947321 89.5 l 13.273287610007685 -7.663336174669263 a36.32667234933852,36.32667234933852 0 0,0 0.30716214138300324,0.5427260721158347 l -13.402883116412063 7.43435333245431" fill="#ffbf11" stroke="none" /><path d="M 118.53625476483649 90.13048839642627 l 13.395822941147715 -7.132521193433364 a36.17632797633721,36.17632797633721 0 0,0 0.28715723656054215,0.550661864205716 l -13.516288246683203 6.90151308612315" fill="#ffbd11" stroke="none" /><path d="M 118.8641267826498 90.77261029715802 l 11.337646403667081 -5.54581099274003 a33.621340877330795,33.621340877330795 0 0,0 0.24915133408156964,0.5206304627197837 l -11.431176995708563 5.3503680279551435" fill="#ff9b0e" stroke="none" /><path d="M 119.0197475246899 91.09779779509293 l 13.74783640861276 -6.434681608185525 a36.17920068108659,36.17920068108659 0 0,0 0.25844962625189016,0.5647590760917232 l -13.8562704997197 6.197733549879119" fill="#ffbd11" stroke="none" /><path d="M 119.71291397450082 92.76114493625339 l 11.898982228597646 -4.369471092418547 a33.6758848095099,33.6758848095099 0 0,0 0.1946142692429465,0.544370747893881 l -11.972236667884534 4.16456538814375" fill="#ff9c0e" stroke="none" /><path d="M 119.83427380445688 93.10060997987247 l 9.080070106513805 -3.158519726639171 a30.613736006505192,30.613736006505192 0 0,0 0.1683968004231599,0.4978352183005519 l -9.13295232850933 3.0021828338644574" fill="#ff730a" stroke="none" /><path d="M 120.05942366710727 93.78553927170692 l 12.132990681811222 -3.7588315277721525 a33.701900540434565,33.701900540434565 0 0,0 0.1664611974726483,0.5540951878160728 l -12.195728199287498 3.549998736365356" fill="#ff9c0e" stroke="none" /><path d="M 120.35273937422433 94.82641323984039 l 1.4935563272465042 -0.3796561778794762 a22.54105461164104,22.54105461164104 0 0,0 0.09210969767410851,0.3758389990217596 l -1.4998535514369038 0.35396135424962166" fill="#ff0000" stroke="none" /><path d="M 120.51834098615036 95.52812308129327 l 25.85614200996625 -5.635225807935318 a47.46310355090577,47.46310355090577 0 0,0 0.1666684717725674,0.7975689720977119 l -25.949068192563182 5.190540384552202" fill="#b8ff1f" stroke="none" /><path d="M 120.65975698304385 96.23510406497455 l 15.126824228698165 -2.75661127549621 a36.37594605122308,36.37594605122308 0 0,0 0.10667710840272437,0.6152852129285283 l -15.171916154593124 2.4965330296470896" fill="#ffbf11" stroke="none" /><path d="M 120.77682067341334 96.94652285012252 l 13.648674561154534 -2.0058851425679993 a34.79528515404745,34.79528515404745 0 0,0 0.0817780057322499,0.591704911810587 l -13.681097083441996 1.7712919225573267" fill="#ffab0f" stroke="none" /><path d="M 120.9064616781168 98.02013634271609 l 7.499689999138436 -0.7102284403167034 a28.53324462105219,28.53324462105219 0 0,0 0.04199329637694747,0.48802575799826436 l -7.510776918213124 0.5813816349427771" fill="#ff5608" stroke="none" /><path d="M 120.98066250479742 99.09900007780936 l 12.768375397169361 -0.548328978492454 a33.78014377664408,33.78014377664408 0 0,0 0.01990665964416396,0.5795606754689615 l -12.775906743810374 0.32906203845937243" fill="#ff9d0e" stroke="none" /><path d="M 120.99303781780057 99.45929381324524 l 15.471574931019479 -0.3984928887685186 a36.476705961817245,36.476705961817245 0 0,0 0.010749456661907271,0.62610195996317 l -15.476135819280051 0.13284401283628225" fill="#ffc111" stroke="none" /><line stroke="#e1ed5e" stroke-width="0.3" x1="184.99686870605535" x2="189.99668451229388" y1="99.2704041080226" y2="99.22748670261217" /><path d="M 185.99683186730306 99.26182062694052 a86.0,86.0 0 0,1 -10.086455211305974,41.156179273409016" fill="none" id="id52" stroke="none" /><text fill="#e1ed5e" style="font-size:6.75px; font-family:Arial;" text-anchor="middle"><textPath startOffset="21.40746469413373" xlink:href="#id52">April</textPath></text><path d="M 120.99922638620191 100.18025310272382 l 8.724263726518204 0.07488731140682084 a29.72458512934862,29.72458512934862 0 0,0 -0.008759648965437105,0.5102056372101714 l -8.721692645954098 -0.22463986458606328" fill="#ff6709" stroke="none" /><path d="M 120.98066250479742 100.90099992219065 l 12.77750763223769 0.5487211559598784 a33.78928442872745,33.78928442872745 0 0,0 -0.029860733923664777,0.5792902607599192 l -12.766205308857453 -0.7679832100965281" fill="#ff9e0e" stroke="none" /><path d="M 120.86939407059847 102.33845913500097 l 12.480009459670065 1.3984110907647074 a33.55811250515889,33.55811250515889 0 0,0 -0.06906245769221235,0.571936221719619 l -12.45416491571819 -1.6124409894077352" fill="#ff9a0e" stroke="none" /><path d="M 120.77682067341334 103.0534771498775 l 18.800272735342322 2.7629926691474624 a40.002220486380494,40.002220486380494 0 0,0 -0.10567921446382933,0.6785363660110747 l -18.750072028740227 -3.085317217089988" fill="#ffed16" stroke="none" /><path d="M 120.7213421655516 103.40968896794604 l 12.925755215063381 2.126928101811948 a34.09957904018353,34.09957904018353 0 0,0 -0.10000137136322304,0.5767813356927751 l -12.887339026207924 -2.348502470425311" fill="#ffa20e" stroke="none" /><path d="M 120.592083275326 104.11899336999214 l 30.939454698999672 6.188757449764833 a52.55234659804992,52.55234659804992 0 0,0 -0.1845395399853154,0.8830885028951913 l -30.828657448189993 -6.718962403945434" fill="#7fff26" stroke="none" /><path d="M 120.43855184770803 104.8234425847677 l 12.534651429594511 2.958143607297969 a33.87897899923878,33.87897899923878 0 0,0 -0.13843995176319748,0.5648822459432369 l -12.482023951315018 -3.1728816778493054" fill="#ff9f0e" stroke="none" /><path d="M 120.16314734710363 105.8691983318838 l 7.340643791518979 2.1367544240222576 a28.645310375815022,28.645310375815022 0 0,0 -0.1414855717532259,0.4709594526781623 l -7.302881899762124 -2.2624514802911433" fill="#ff5808" stroke="none" /><path d="M 119.94978838288452 106.5578916946017 l 7.3347729297434086 2.4110855491089063 a28.720895508684112,28.720895508684112 0 0,0 -0.15798486365475245,0.4670541773246776 l -7.292302644516291 -2.5366414009077443" fill="#ff5908" stroke="none" /><path d="M 119.31412917781788 108.2440532568976 l 11.887225507132303 5.073949710872873 a33.92482479285053,33.92482479285053 0 0,0 -0.23321882183802037,0.5336503050136835 l -11.798372803277315 -5.277262085662402" fill="#ff9f0e" stroke="none" /><path d="M 119.0197475246899 108.90220220490707 l 15.972699656736797 7.476029948238709 a38.63570690704747,38.63570690704747 0 0,0 -0.28631035133895627,0.5982785171451793 l -15.84201004743793 -7.7491209674489925" fill="#ffdc14" stroke="none" /><path d="M 118.70294669586154 109.54985784667822 l 7.042508079175504 3.5959548050837715 a28.907452877220155,28.907452877220155 0 0,0 -0.22945900671997557,0.4400179006896653 l -6.979741003480579 -3.7163189488779396" fill="#ff5b08" stroke="none" /><path d="M 118.5362547648365 109.86951160357373 l 2.850804727598497 1.5178929452313434 a24.229719273881404,24.229719273881404 0 0,0 -0.19863137383397791,0.36545935553662756 l -2.8243280041491805 -1.5666071342425743" fill="#ff1902" stroke="none" /><line stroke="#e1ed5e" stroke-width="0.3" x1="174.33088141563837" x2="178.70328620479359" y1="141.23008692659167" y2="143.65538615756765" /><path d="M 175.20536237346943 141.71514677278685 a86.0,86.0 0 0,1 -30.301960400862466,31.631185727798858" fill="none" id="id53" stroke="none" /><text fill="#e1ed5e" style="font-size:6.75px; font-family:Arial;" text-anchor="middle"><textPath startOffset="22.145653131862474" xlink:href="#id53">May</textPath></text><path d="M 117.81537515405839 111.11811171558189 l 24.045991532168475 15.006477149917506 a49.34438330985725,49.34438330985725 0 0,0 -0.4546316756232424,0.7147565063939308 l -23.784842164919343 -15.41704733099011" fill="#a2ff22" stroke="none" /><path d="M 117.423217284605 111.72311816256416 l 14.816532472436618 9.969224288290288 a38.85819328535241,38.85819328535241 0 0,0 -0.3771285047794679,0.5502417590951549 l -14.64321423084183 -10.222100782455486" fill="#ffdf14" stroke="none" /><path d="M 116.79662413953412 112.60449989151573 l 10.266328679773993 7.704044435090002 a33.83549006540036,33.83549006540036 0 0,0 -0.3526109569552831,0.46157906161825063 l -10.132565745464406 -7.87914440994913" fill="#ff9e0e" stroke="none" /><path d="M 116.1254893667686 113.45245675266167 l 15.732005983960514 13.124198920001708 a41.48757207604511,41.48757207604511 0 0,0 -0.4609179101062739,0.5429601391435906 l -15.504393510347125 -13.392325841594856" fill="#feff18" stroke="none" /><path d="M 115.16444852881244 114.52719865689866 l 6.37743765982266 6.109441014633849 a29.831589925727677,29.831589925727677 0 0,0 -0.357429607998557,0.36675426563636093 l -6.271621250673296 -6.218017972337948" fill="#ff6809" stroke="none" /><path d="M 114.65682725009322 115.03919595460226 l 21.95863642270386 22.53149541997976 a52.46188168887973,52.46188168887973 0 0,0 -0.650346249852103,0.6230169959309718 l -21.568617686986446 -22.90512454621631" fill="#80ff25" stroke="none" /><path d="M 113.59037401385872 116.0094264158162 l 8.55272180192871 10.075084777158947 a34.215762690368145,34.215762690368145 0 0,0 -0.4510381566152263,0.37627207197634915 l -8.37850931115159 -10.220419033047166" fill="#ffa30f" stroke="none" /><path d="M 112.45986205192187 116.90419585922612 l 16.080932621450216 21.816873533530302 a48.102995494108704,48.102995494108704 0 0,0 -0.6689041972464381,0.48423505438566333 l -15.704047413829809 -22.089709359289042" fill="#b0ff20" stroke="none" /><path d="M 110.96478420261333 117.91015095944535 l 4.041103892341273 6.6008395073916954 a28.739612578872332,28.739612578872332 0 0,0 -0.4229748970171092,0.25398427260287476 l -3.927196238766727 -6.669237780530494" fill="#ff5908" stroke="none" /><line stroke="#e1ed5e" stroke-width="0.3" x1="143.1302829299769" x2="145.66735839644613" y1="173.24464959558577" y2="177.55315839532614" /><path d="M 143.63769802327073 174.10635135553383 a86.0,86.0 0 0,1 -40.68552437913181,11.842963189579606" fill="none" id="id54" stroke="none" /><text fill="#e1ed5e" style="font-size:6.75px; font-family:Arial;" text-anchor="middle"><textPath startOffset="21.407464694133747" xlink:href="#id54">June</textPath></text><path d="M 110.34350942703117 118.27599006163325 l 6.34832418341007 11.216880547411035 a33.8887404020935,33.8887404020935 0 0,0 -0.508743922277588,0.28219167779795823 l -6.154836072976388 -11.324205140642137" fill="#ff9f0e" stroke="none" /><path d="M 109.06512990194946 118.94263497670748 l 5.662362572052197 11.832159987590355 a34.117254280881795,34.117254280881795 0 0,0 -0.5304604083058845,0.24828225560336675 l -5.458413449874806 -11.927618474764255" fill="#ffa20f" stroke="none" /><path d="M 108.4095320186766 119.2426549942271 l 8.804875772132869 20.14727887044121 a42.987239100123944,42.987239100123944 0 0,0 -0.6787171762315856,0.2897040035152387 l -8.457723520730852 -20.295457523615852" fill="#ecff1a" stroke="none" /><path d="M 108.07796709384702 119.3841803445677 l 2.9116289161454274 6.986849457459544 a28.56925678561224,28.56925678561224 0 0,0 -0.4543131357457111,0.1847651972164141 l -2.7912613192092754 -7.03580191125525" fill="#ff5708" stroke="none" /><path d="M 107.74402155503746 119.51999308798841 l 2.2390083500351516 5.6437636705962175 a27.071674131659968,27.071674131659968 0 0,0 -0.4334403687524037,0.16766404599305756 l -2.1417957187892185 -5.681367604727316" fill="#ff4106" stroke="none" /><path d="M 106.0420521117495 120.11202640906438 l 3.906002790720359 13.00181293174917 a34.575860831391694,34.575860831391694 0 0,0 -0.5699089542892004,0.16589219065148983 l -3.682233824049552 -13.066948816703178" fill="#ffa80f" stroke="none" /><path d="M 105.69591212413111 120.21278271476187 l 3.517923680672348 12.483870083475455 a33.970073218148336,33.970073218148336 0 0,0 -0.5626392036610566,0.15334981690322744 l -3.3031030760765963 -12.542420394522825" fill="#ffa00e" stroke="none" /><path d="M 104.9986988182912 120.39639698878246 l 2.3042033250222858 9.40193587740361 a30.680173097928204,30.680173097928204 0 0,0 -0.5126041075122747,0.12097317362427594 l -2.1424670637701317 -9.440105194674109" fill="#ff740a" stroke="none" /><path d="M 104.29559338865022 120.5559693870025 l 2.6539179338938066 12.699958042788644 a33.974290527363536,33.974290527363536 0 0,0 -0.5719062430007271,0.11439726576862408 l -2.4355152053621207 -12.743644705220131" fill="#ffa00e" stroke="none" /><path d="M 103.58742460773223 120.69131181640829 l 3.755206191582989 21.659031405838604 a42.982156740875226,42.982156740875226 0 0,0 -0.7280819104775408,0.11980560130141468 l -3.3828467780523757 -21.72030300563569" fill="#ecff1a" stroke="none" /><path d="M 102.15924093988457 120.88869738790638 l 1.34513938265305 13.01300331508947 a34.08234135150485,34.08234135150485 0 0,0 -0.5824841519960019,0.055161854800511174 l -1.1215556672720328 -13.034176925395165" fill="#ffa10e" stroke="none" /><path d="M 101.80034050326958 120.92268563240118 l 0.23378349275370292 2.7169185584878437 a23.726958227575146,23.726958227575146 0 0,0 -0.40610497365063447,0.03143509334791546 l -0.18710952432783265 -2.7205314188308125" fill="#ff1101" stroke="none" /><path d="M 101.08105385017728 120.97215588758144 l 0.6377576200480567 12.372327450614414 a33.38875382462483,33.38875382462483 0 0,0 -0.5726556672985901,0.02459229833948384 l -0.4252761921486371 -12.381452317379729" fill="#ff980e" stroke="none" /><path d="M 100.72087961077811 120.9876233191556 l 0.4678760408107103 13.621700430663966 a34.629733328730815,34.629733328730815 0 0,0 -0.5942902299502479,0.015306808230944902 l -0.23397249678971851 -13.627724956244956" fill="#ffa90f" stroke="none" /><line stroke="#e1ed5e" stroke-width="0.3" x1="101.45913802915013" x2="101.54496967792366" y1="184.9874750549273" y2="189.98673829345242" /><path d="M 101.47630435890484 185.9873277026323 a86.0,86.0 0 0,1 -42.54439059252881,-10.42667462771756" fill="none" id="id55" stroke="none" /><text fill="#e1ed5e" style="font-size:6.75px; font-family:Arial;" text-anchor="middle"><textPath startOffset="22.145653131862474" xlink:href="#id55">July</textPath></text><path d="M 99.63950707515114 120.99690560180557 l -0.1654961941966297 9.639323624622323 a30.640744210406975,30.640744210406975 0 0,0 -0.5258341076378386,-0.013543621350756915 l 0.3309436159052122 -9.635062285921519" fill="#ff730a" stroke="none" /><path d="M 98.91894614982273 120.97215588758144 l -0.28408195194376673 5.511113974605573 a26.518430917979586,26.518430917979586 0 0,0 -0.4544193875438338,-0.027336741931752485 l 0.37864569162004685 -5.505425254849129" fill="#ff3a05" stroke="none" /><path d="M 98.19965949673042 120.92268563240118 l -1.5213399674749333 17.68027649307357 a38.74560937719994,38.74560937719994 0 0,0 -0.6621817201138431,-0.06270929736251994 l 1.8246212509737916 -17.651555440205865" fill="#ffde14" stroke="none" /><path d="M 96.76829788921471 120.74984581791261 l -2.0085159032378916 12.89611291087858 a34.05158474453155,34.05158474453155 0 0,0 -0.5768054643011893,-0.09491311965053743 l 2.2295988705921443 -12.859733792732376" fill="#ffa10e" stroke="none" /><path d="M 96.05791012581884 120.62667999033965 l -3.3093174391070317 17.3157472258518 a38.629143028019605,38.629143028019605 0 0,0 -0.6502637057777246,-0.1300709528527564 l 3.6060776304157143 -17.256386876336183" fill="#ffdc14" stroke="none" /><path d="M 95.70440661134978 120.55596938700252 l -4.585495925232662 21.943257970449135 a43.417255479607775,43.417255479607775 0 0,0 -0.7282471022460285,-0.15871806642882372 l 4.961505444097827 -21.861308445886593" fill="#e7ff1a" stroke="none" /><path d="M 95.35216902796893 120.47920084513623 l -1.8872105187195225 8.315397759187794 a29.526863634154765,29.526863634154765 0 0,0 -0.4933346214348528,-0.11642562737809432 l 2.029677293894263 -8.281775988163472" fill="#ff6409" stroke="none" /><path d="M 94.6519064749342 120.30758222061772 l -3.2127301880015806 12.19925981842285 a33.6152120623588,33.6152120623588 0 0,0 -0.5567617127053703,-0.15174788060721006 l 3.421673301641646 -12.142311443671495" fill="#ff9b0e" stroke="none" /><path d="M 93.95794788825049 120.11202640906438 l -2.0533459726591086 6.83492092839766 a28.136692075526568,28.136692075526568 0 0,0 -0.4613873083911452,-0.14293896754527585 l 2.170373913921887 -6.798665373045735" fill="#ff5007" stroke="none" /><path d="M 93.27111125876986 119.89276391827306 l -4.473200129940607 13.224221348595123 a34.96028472772456,34.96028472772456 0 0,0 -0.5668464360691805,-0.19717861528571742 l 4.699552338054809 -13.145484300740815" fill="#ffad10" stroke="none" /><path d="M 92.59220618246901 119.65005319985036 l -3.312862208463896 8.78776059965805 a30.391474451286694,30.391474451286694 0 0,0 -0.4865931759162793,-0.18822469365639188 l 3.4632276468737033 -8.729596017863619" fill="#ff700a" stroke="none" /><path d="M 91.92203290615298 119.3841803445677 l -7.208848475117818 17.298612051141387 a39.740583641741324,39.740583641741324 0 0,0 -0.6274563632312931,-0.2678238106017716 l 7.504739913519542 -17.17231359088021" fill="#ffea16" stroke="none" /><path d="M 90.93487009805054 118.94263497670748 l -3.8247489448336274 7.992254266974144 a29.86029529750405,29.86029529750405 0 0,0 -0.46047383743355774,-0.22524082852700944 l 3.9613830315292544 -7.925419688349914" fill="#ff6809" stroke="none" /><path d="M 90.28995756902619 118.62028667847754 l -4.4031150966347115 8.443553770284424 a30.522658390696204,30.522658390696204 0 0,0 -0.46250720342122253,-0.24625903499996837 l 4.547411115842496 -8.366724267561883" fill="#ff710a" stroke="none" /><path d="M 89.97174638481275 118.45085714620012 l -4.859862398444861 8.941599435428843 a31.17695745276945,31.17695745276945 0 0,0 -0.4680341444093086,-0.2596106502585986 l 5.012640731010272 -8.856855869737098" fill="#ff7a0b" stroke="none" /><line stroke="#e1ed5e" stroke-width="0.3" x1="58.13341422392154" x2="55.67067388415222" y1="173.97424548756322" y2="178.32567169271397" /><path d="M 57.64086615596768 174.84453072859336 a86.0,86.0 0 0,1 -31.369924170532247,-30.572349798747897" fill="none" id="id56" stroke="none" /><text fill="#e1ed5e" style="font-size:6.75px; font-family:Arial;" text-anchor="middle"><textPath startOffset="22.145653131862474" xlink:href="#id56">August</textPath></text><path d="M 89.65649057296885 118.27599006163327 l -3.192725362479927 5.64123979446651 a27.48205844303298,27.48205844303298 0 0,0 -0.40857645926740915,-0.23589172874258463 l 3.289094289607736 -5.585601168447754" fill="#ff4706" stroke="none" /><path d="M 88.72937992617639 117.7192867562869 l -7.511320283938283 11.809043083488806 a34.99547894698847,34.99547894698847 0 0,0 -0.5041254851195879,-0.3267680487832001 l 7.712931401314881 -11.678361193001711" fill="#ffad10" stroke="none" /><path d="M 88.1277618465304 117.32195027204791 l -7.537979221540941 10.998136959466533 a34.33342219100433,34.33342219100433 0 0,0 -0.48329181602211685,-0.3373752219173795 l 7.725666128736823 -10.867116921744024" fill="#ffa50f" stroke="none" /><path d="M 87.83215693770417 117.11559508785305 l -6.005876946033045 8.448018061171298 a31.365305931460377,31.365305931460377 0 0,0 -0.4361554736865186,-0.31574292759802575 l 6.150013430093517 -8.343674362200208" fill="#ff7d0b" stroke="none" /><path d="M 85.60350026404147 115.28858382429668 l -6.488592820687804 6.890660720330313 a30.464831850349185,30.464831850349185 0 0,0 -0.3776587592444094,-0.36178854836939156 l 6.605924065797527 -6.778260041655339" fill="#ff710a" stroke="none" /><path d="M 84.83555147118756 114.52719865689866 l -1.2117007170706693 1.1607818771745781 a22.677984861113625,22.677984861113625 0 0,0 -0.2668919838591335,-0.2834300380023255 l 1.2314485346660557 -1.1398103792277625" fill="#ff0200" stroke="none" /><path d="M 83.64595745247003 113.17365903436017 l -5.241284469483335 4.22200775755529 a27.730260945528357,27.730260945528357 0 0,0 -0.2954376314563792,-0.3732757961591666 l 5.312988531581276 -4.131412017481443" fill="#ff4b07" stroke="none" /><path d="M 83.4222238831116 112.89097897827486 l -4.291563581739884 3.337145798451199 a26.436364599273723,26.436364599273723 0 0,0 -0.2755021961186651,-0.3606412184586344 l 4.348217755212843 -3.262983666751694" fill="#ff3805" stroke="none" /><path d="M 82.78059297857968 112.02048342749411 l -10.760563908713378 7.5117093157898625 a34.12309081270221,34.12309081270221 0 0,0 -0.3311731485338763,-0.4831915209403762 l 10.88792679406258 -7.325883059779435" fill="#ffa20f" stroke="none" /><path d="M 82.576782715395 111.72311816256416 l -10.901672654358073 7.335131888044497 a34.13965853733596,34.13965853733596 0 0,0 -0.32298646737904885,-0.48904267784115796 l 11.02598356065785 -7.146909331864278" fill="#ffa20f" stroke="none" /><path d="M 82.18462484594161 111.11811171558189 l -7.278805613938393 4.5425130412331765 a29.57994381655699,29.57994381655699 0 0,0 -0.26513776361358515,-0.43308261098629475 l 7.355711342007383 -4.4168933141223246" fill="#ff6509" stroke="none" /><path d="M 81.99639281039703 110.81064883170644 l -15.291927822558527 9.182363284672805 a38.83700793356461,38.83700793356461 0 0,0 -0.3383004652832219,-0.5745081495969349 l 15.44730199797152 -8.91850396678231" fill="#ffdf14" stroke="none" /><line stroke="#e1ed5e" stroke-width="0.3" x1="26.387840678322732" x2="22.057713659400548" y1="142.50000000000003" y2="145.00000000000006" /><path d="M 25.521815274538298 143.00000000000003 a86.0,86.0 0 0,1 -11.493303480769221,-40.785679425670985" fill="none" id="id57" stroke="none" /><text fill="#e1ed5e" style="font-size:6.75px; font-family:Arial;" text-anchor="middle"><textPath startOffset="21.40746469413373" xlink:href="#id57">September</textPath></text><path d="M 81.4637452351635 109.86951160357371 l -9.165455419518056 4.880088764563815 a31.383681399060492,31.383681399060492 0 0,0 -0.24911459309925524,-0.47771007925814374 l 9.24787808159226 -4.722032442201168" fill="#ff7d0b" stroke="none" /><path d="M 80.83023694016515 108.57439118712176 l -38.04962623238825 17.019113842040248 a62.68242186333196,62.68242186333196 0 0,0 -0.4309151385801889,-0.9860181666557204 l 38.336175252985406 -16.36343360560868" fill="#32ff4c" stroke="none" /><path d="M 80.28708602549918 107.23885506374661 l -6.689368812508506 2.4564288853658436 a28.126127839059663,28.126127839059663 0 0,0 -0.16254200437479024,-0.45465891493915084 l 6.7305509869272395 -2.3412350140457714" fill="#ff5007" stroke="none" /><path d="M 80.16572619554312 106.89939002012753 l -12.337693914812203 4.2916903893963525 a34.06282119352596,34.06282119352596 0 0,0 -0.18736916334409445,-0.5539236381083408 l 12.409548499728665 -4.079265076813851" fill="#ffa10e" stroke="none" /><path d="M 80.05021161711548 106.5578916946017 l -4.909855626170487 1.6139670664467123 a26.16832390252513,26.16832390252513 0 0,0 -0.1366176966041047,-0.4279529887867075 l 4.936838038551847 -1.5294450439686131" fill="#ff3505" stroke="none" /><path d="M 79.64726062577567 105.17358676015961 l -18.86616612932264 4.79570565450505 a40.466150547652006,40.466150547652006 0 0,0 -0.1653571652789553,-0.6747136626091481 l 18.94571082111789 -4.471136167287803" fill="#fff316" stroke="none" /><path d="M 79.2786578344484 103.40968896794605 l -11.267190876247799 1.8540119710176015 a32.418710550253834,32.418710550253834 0 0,0 -0.08564484229188032,-0.5499013249782858 l 11.297357210677948 -1.6603224641078658" fill="#ff8b0c" stroke="none" /><path d="M 79.22317932658666 103.0534771498775 l -12.23655408428705 1.7983520615077953 a33.36799603795261,33.36799603795261 0 0,0 -0.07842350362080493,-0.5674334055755283 l 12.265622104463068 -1.5880303477321813" fill="#ff980e" stroke="none" /><path d="M 79.13060592940153 102.33845913500099 l -12.87257995887106 1.4423994340238822 a33.95313980951342,33.95313980951342 0 0,0 -0.059931507641626795,-0.5797829709517563 l 12.895443858994353 -1.2212119407891944" fill="#ffa00e" stroke="none" /><path d="M 79.06263194458094 101.62068470465958 l -10.224751655305381 0.7914604439695623 a31.25533792944136,31.25533792944136 0 0,0 -0.03681586918198307,-0.535294657933417 l 10.236831485652429 -0.6158223618818021" fill="#ff7b0b" stroke="none" /><path d="M 79.03789590574601 101.26102812881392 l -20.279598182340475 1.2199702679648894 a41.316260233908835,41.316260233908835 0 0,0 -0.036512577120950525,-0.708334241733071 l 20.297552348918 -0.8716642328550877" fill="#fffe18" stroke="none" /><line stroke="#e1ed5e" stroke-width="0.3" x1="15.003131293944662" x2="10.003315487706104" y1="100.72959589197737" y2="100.7725132973878" /><path d="M 14.003168132696942 100.73817937305945 a86.0,86.0 0 0,1 10.791469493833604,-42.45332614584628" fill="none" id="id58" stroke="none" /><text fill="#e1ed5e" style="font-size:6.75px; font-family:Arial;" text-anchor="middle"><textPath startOffset="22.145653131862435" xlink:href="#id58">October</textPath></text><path d="M 79.00077361379809 99.81974689727619 l -9.051501636461346 -0.0776962552941424 a30.051835094772173,30.051835094772173 0 0,0 0.008856087479505064,-0.515822697176195 l 9.048834117383175 0.23306586843938976" fill="#ff6b09" stroke="none" /><path d="M 79.00696218219943 99.45929381324524 l -12.578321184969328 -0.32397293534785576 a33.582492690047,33.582492690047 0 0,0 0.019790183736443468,-0.5761696065021211 l 12.570906314236034 0.5398488064141155" fill="#ff9b0e" stroke="none" /><path d="M 79.01933749520258 99.09900007780938 l -10.3190529763749 -0.4431445349577854 a31.328563859903014,31.328563859903014 0 0,0 0.027686111897530168,-0.5371031744078112 l 10.3099252750208 0.6202195027423086" fill="#ff7c0b" stroke="none" /><path d="M 79.06263194458094 98.37931529534042 l -27.660940850340534 -2.141131761832763 a48.74368565903901,48.74368565903901 0 0,0 0.07173765428956509,-0.833700283907747 l 27.620109573353226 2.6156530931161908" fill="#a9ff21" stroke="none" /><path d="M 79.13060592940154 97.66154086499901 l -1.6050008748495803 -0.17984369573835718 a22.615045374955375,22.615045374955375 0 0,0 0.046541670488024205,-0.38543179696952035 l 1.6016771181018878 0.20736916963131377" fill="#ff0100" stroke="none" /><path d="M 79.22317932658666 96.9465228501225 l -13.344313467372212 -1.9611545430318913 a34.48765469075873,34.48765469075873 0 0,0 0.09111064866161776,-0.5849957227769298 l 13.308681326572326 2.1899384477402712" fill="#ffa70f" stroke="none" /><path d="M 79.2786578344484 96.59031103205396 l -13.314008647732575 -2.1908150564099067 a34.49305365302051,34.49305365302051 0 0,0 0.10115528592721056,-0.5834368082569851 l 13.27443854431313 2.4190448975874843" fill="#ffa70f" stroke="none" /><path d="M 79.407916724674 95.88100663000787 l -7.3493870443103795 -1.4700832404506325 a28.494973959990194,28.494973959990194 0 0,0 0.10006117189570164,-0.4788289300729142 l 7.323068161590311 1.5960286218089559" fill="#ff5507" stroke="none" /><path d="M 79.56144815229197 95.17655741523228 l -9.939019599485166 -2.345581562931216 a31.212045018864394,31.212045018864394 0 0,0 0.12754203740730513,-0.5204150364487896 l 9.89729003556156 2.5158524239881235" fill="#ff7b0b" stroke="none" /><path d="M 79.64726062577567 94.8264132398404 l -14.621164401840483 -3.7166428153292084 a36.08614868952264,36.08614868952264 0 0,0 0.1577660974734735,-0.5990635692985754 l 14.555208823562285 3.9670868890005684" fill="#ffbc11" stroke="none" /><path d="M 79.73907114497095 94.47779374421319 l -12.768080597499967 -3.479997143981059 a34.23383021903982,34.23383021903982 0 0,0 0.1594016924228788,-0.5656603724026853 l 12.706460413002507 3.6986654402867574" fill="#ffa30f" stroke="none" /><path d="M 80.05021161711548 93.44210830539832 l -12.26641568874712 -4.03221447886534 a33.91215347851445,33.91215347851445 0 0,0 0.18654038631637396,-0.5514735060899009 l 12.19538988085838 4.242189659429402" fill="#ff9f0e" stroke="none" /><path d="M 80.41425534168474 92.42381321644754 l -12.197658636853358 -4.7183163962866645 a34.078432086327126,34.078432086327126 0 0,0 0.21573485317300145,-0.543792758432582 l 12.114865108714225 4.927010171932829" fill="#ffa10e" stroke="none" /><path d="M 80.5471966667186 92.08871423366112 l -12.21707804979194 -4.968579285238996 a34.18877462800901,34.18877462800901 0 0,0 0.22576664037484853,-0.5417577494400355 l 12.129985564880615 5.177569544120296" fill="#ffa30f" stroke="none" /><path d="M 80.9802524753101 91.09779779509293 l -57.05924257406971 -26.706606614721213 a84.0,84.0 0 0,0 0.6224829681603801,-1.3007499917396512 l 56.59238034794942 27.68216910852595" fill="#4dd2ff" stroke="none" /><path d="M 81.63589988554816 89.8137432299009 l -5.5828662686644135 -3.096721808926945 a27.384205646411672,27.384205646411672 0 0,0 0.23154863086648322,-0.40912424417978654 l 5.528884272776561 3.192102823205837" fill="#ff4606" stroke="none" /><line stroke="#e1ed5e" stroke-width="0.3" x1="26.387840678322718" x2="22.05771365940052" y1="57.49999999999999" y2="54.99999999999999" /><path d="M 25.521815274538284 56.99999999999999 a86.0,86.0 0 0,1 29.574782752854787,-30.34633250058573" fill="none" id="id59" stroke="none" /><text fill="#e1ed5e" style="font-size:6.75px; font-family:Arial;" text-anchor="middle"><textPath startOffset="21.40746469413373" xlink:href="#id59">November</textPath></text><path d="M 81.81346652052679 89.5 l -8.849313628907746 -5.1091536057933125 a31.218307211586623,31.218307211586623 0 0,0 0.27193567210687114,-0.4618062220538912 l 8.760304246671096 5.260310996140777" fill="#ff7b0b" stroke="none" /><path d="M 82.18462484594161 88.88188828441811 l -11.834607370015167 -7.385670282666121 a34.950127494997126,34.950127494997126 0 0,0 0.32201101646197605,-0.5062548024864327 l 11.7060786619273 7.587738759831225" fill="#ffad10" stroke="none" /><path d="M 82.576782715395 88.27688183743585 l -8.184327567360564 -5.506780842254432 a30.86447428779043,30.86447428779043 0 0,0 0.2995474584595982,-0.4370486939768049 l 8.088590372085651 5.646464271301272" fill="#ff760a" stroke="none" /><path d="M 82.98947788004972 87.6856937992154 l -4.129928347857088 -2.98974963285614 a26.098520474176503,26.098520474176503 0 0,0 0.26582956291793863,-0.3606488561439721 l 4.07799676535533 3.0602047982689755" fill="#ff3404" stroke="none" /><path d="M 83.42222388311158 87.10902102172516 l -15.21648310946225 -11.832429301993121 a40.275573698523615,40.275573698523615 0 0,0 0.4290951362633109,-0.5421476872365227 l 15.011121542557378 12.091896933144326" fill="#fff116" stroke="none" /><path d="M 83.8745106332314 86.54754324733833 l -11.428560235614398 -9.534111419379522 a35.88325467148263,35.88325467148263 0 0,0 0.3986551616150299,-0.46961477797835943 l 11.263210510492254 9.728892979807437" fill="#ffb911" stroke="none" /><path d="M 84.34580500576568 86.00192230759919 l -9.486408247582359 -8.48280475108423 a33.72595449798622,33.72595449798622 0 0,0 0.38961876678638446,-0.428259275860244 l 9.33939177995411 8.64440160250213" fill="#ff9d0e" stroke="none" /><path d="M 84.58840730492382 85.73525988315684 l -5.037229573254033 -4.662384491532943 a27.863782551957186,27.863782551957186 0 0,0 0.3279224432265372,-0.3482422709052517 l 4.956451296291224 4.748168222382706" fill="#ff4d07" stroke="none" /><path d="M 85.08716467003674 85.21462403516908 l -16.340996520532567 -16.201330722845395 a44.0111121955257,44.0111121955257 0 0,0 0.5365333488628908,-0.5319476212996685 l 16.0604712515397 16.479458354373737" fill="#e0ff1b" stroke="none" /><line stroke="#e1ed5e" stroke-width="0.3" x1="56.869717070023135" x2="54.33264160355391" y1="26.7553504044142" y2="22.446841604673864" /><path d="M 56.362301976729285 25.89364864446614 a86.0,86.0 0 0,1 42.16139366436587,-11.88097634709845" fill="none" id="id60" stroke="none" /><text fill="#e1ed5e" style="font-size:6.75px; font-family:Arial;" text-anchor="middle"><textPath startOffset="22.145653131862474" xlink:href="#id60">December</textPath></text></svg>