<?xml version="1.0" encoding="utf-8" ?>
<svg baseProfile="full" height="200mm" version="1.1" viewBox="0,0,200,200" width="200mm" xmlns="http://www.w3.org/2000/svg" xmlns:ev="http://www.w3.org/2001/xml-events" xmlns:xlink="http://www.w3.org/1999/xlink"><defs /><rect fill="#1a1a1a" height="200" width="200" x="0" y="0" /><text alignment-baseline="middle" fill="#e1ed5e" style="dominant-baseline: central; font-size:9.0px; font-family:Arial;" text-anchor="middle" x="100.0" y="100.0">2025</text><line stroke="#e1ed5e" stroke-width="0.3" x1="100.0" x2="100.0" y1="15.0" y2="10.0" /><path d="M 100.0 14.0 a86.0,86.0 0 0,1 42.46469731375804,11.215312516191453" fill="none" id="id61" stroke="none" /><text fill="#e1ed5e" style="font-size:6.75px; font-family:Arial;" text-anchor="middle"><textPath startOffset="22.20632615414155" xlink:href="#id61">January</textPath></text><path d="M 100.0 79.0 l 0.0 -48.16626574444544 a69.16626574444544,69.16626574444544 0 0,0 1.1905835662282476,0.010247728635173054 l -0.8291030869557192 48.159129392418826" fill="#2fff30" stroke="none" /><path d="M 100.72285384407766 79.0124445844662 l 1.626767843906882 -47.232065723836776 a68.26007200754995,68.26007200754995 0 0,0 1.1739405136805252,0.05055234796855116 l -2.4395491899767388 47.19706564934403" fill="#3dff2e" stroke="none" /><path d="M 101.08401301168833 79.027996857942 l 2.661822593952629 -51.49730787551259 a72.56605489997278,72.56605489997278 0 0,0 1.2468850749475437,0.07521551281627488 l -3.547869717739785 51.44385909331601" fill="#36ff70" stroke="none" /><path d="M 102.52436894288641 79.15227682838746 l 2.9368518725389046 -24.254249762998345 a45.43140868814446,45.43140868814446 0 0,0 0.7755471846590698,0.10068828292198341 l -3.3539137857058203 24.200103156912224" fill="#ff0000" stroke="none" /><path d="M 103.59715602781102 79.31037775812273 l 10.019575220503695 -57.62920060558069 a79.49373171577955,79.49373171577955 0 0,0 1.346112325708013,0.24599342338968874 l -11.010082667314608 57.44819170084027" fill="#44ffe7" stroke="none" /><path d="M 104.307194497241 79.44645832069477 l 5.600351123297606 -26.724367869891548 a48.30486716227553,48.30486716227553 0 0,0 0.8123435855788061,0.1775468438666524 l -6.05953743302994 26.624007527929027" fill="#ff4206" stroke="none" /><path d="M 105.36241919743992 79.69619591428918 l 12.324626358451205 -46.664908094288215 a69.2649983147601,69.2649983147601 0 0,0 1.1501357673939505,0.3143755518590823 l -13.126060015068866 46.44584600160284" fill="#30ff32" stroke="none" /><path d="M 106.0581310904928 79.89281104454417 l 13.865364248933863 -46.01972039315132 a69.06311465999099,69.06311465999099 0 0,0 1.1353141612755104,0.3527476363344595 l -14.655463782920092 45.77423262193434" fill="#31ff2f" stroke="none" /><path d="M 108.43124777332544 80.76684994638697 l 11.597091744149617 -26.4549935783434 a49.88527690974095,49.88527690974095 0 0,0 0.7834788738128002,0.35152413281879913 l -12.050752736429198 26.25144911500807" fill="#ff6509" stroke="none" /><path d="M 109.73455568895987 81.39251694778311 l 25.075388098534795 -47.93129486129658 a75.09421517475502,75.09421517475502 0 0,0 1.1401982135971191,0.609054398138837 l -25.896731358660226 47.492561736655986" fill="#3bff9d" stroke="none" /><path d="M 110.05341064243156 81.56283822128135 l 23.07545638116754 -42.31856606172128 a69.20101368974966,69.20101368974966 0 0,0 1.0409015826851544,0.5792606038040566 l -23.800482052924732 41.915090060357045" fill="#2fff30" stroke="none" /><path d="M 110.36928655335952 81.73862282372117 l 31.107859660078564 -54.7841315288365 a84.0,84.0 0 0,0 1.2512130701386868,0.7247833704398019 l -32.04626946268258 54.24054400100664" fill="#4dd2ff" stroke="none" /><line stroke="#e1ed5e" stroke-width="0.3" x1="143.23703022742887" x2="145.7803849466894" y1="26.81831364943548" y2="22.513508569990506" /><path d="M 143.74570117128098 25.957352633546492 a86.0,86.0 0 0,1 28.547481713284135,27.462654790039103" fill="none" id="id62" stroke="none" /><text fill="#e1ed5e" style="font-size:6.75px; font-family:Arial;" text-anchor="middle"><textPath startOffset="19.985693538727396" xlink:href="#id62">February</textPath></text><path d="M 110.68208982089419 81.91981866633111 l 24.841055782657005 -42.04521779921019 a69.83521672092895,69.83521672092895 0 0,0 1.0296967719386634,0.6203807837372262 l -25.561114620813306 41.61139040601435" fill="#31ff3d" stroke="none" /><path d="M 110.99172775467656 82.1063720568725 l 15.300812095557943 -24.908462525296166 a50.23262485918183,50.23262485918183 0 0,0 0.7328721039486786,0.45892444425884654 l -15.727303351878884 24.641393739714378" fill="#ff6d0a" stroke="none" /><path d="M 111.2981086023043 82.29822771554956 l 25.607296174639202 -40.12127530899206 a68.59674726066507,68.59674726066507 0 0,0 0.9898607782820652,0.6438329849635255 l -26.29412397870555 39.67454339986901" fill="#38ff2e" stroke="none" /><path d="M 111.60114157652 82.49532879139004 l 21.413079502981635 -32.30965795832966 a59.76124315840847,59.76124315840847 0 0,0 0.8525803765089688,0.5756660760556492 l -21.966064573897146 31.936279969975338" fill="#d0ff1d" stroke="none" /><path d="M 111.90073688211348 82.69761687909136 l 14.17064351799848 -20.602581642380393 a46.005469562580544,46.005469562580544 0 0,0 0.6486089022053454,0.4543919858591247 l -14.523183559787475 20.355604813757335" fill="#ff0d01" stroke="none" /><path d="M 112.48926042617603 83.11751280151076 l 19.332171022315492 -26.132462505081726 a53.50597534324354,53.50597534324354 0 0,0 0.7357169608224142,0.5541267618792688 l -19.779134136896293 25.79581915369661" fill="#ffb310" stroke="none" /><path d="M 113.34407831869373 83.78471172551755 l 30.696057720139876 -37.30084708247918 a69.30736126749892,69.30736126749892 0 0,0 0.9146672765970915,0.7660075397273777 l -31.333582533696084 36.76693838535799" fill="#30ff32" stroke="none" /><path d="M 114.16331599549186 84.49514656593476 l 26.109466502736286 -28.58253332026315 a59.712600688425226,59.712600688425226 0 0,0 0.7529250428762573,0.6997617706179863 l -26.59759942940739 28.128866963570523" fill="#d1ff1d" stroke="none" /><path d="M 115.19652480421416 85.50635884689758 l 29.116207464781915 -27.769497840506652 a61.235538364064745,61.235538364064745 0 0,0 0.7209250543013421,0.7690325828829068 l -29.58989984105372 27.264195840745693" fill="#b5ff20" stroke="none" /><path d="M 116.15771136456269 86.58626213691792 l 36.76431070676338 -30.52083400988346 a68.7821708422953,68.7821708422953 0 0,0 0.7484204645582162,0.9174749953165248 l -37.284229663398 29.883474844958833" fill="#35ff2f" stroke="none" /><path d="M 116.82858285166822 87.43820079747576 l 23.45517838346556 -17.50826220541049 a50.26917556839611,50.26917556839611 0 0,0 0.5116382027182297,0.6978739335170883 l -23.753079198697417 17.10192582822191" fill="#ff6e0a" stroke="none" /><line stroke="#e1ed5e" stroke-width="0.3" x1="172.23445277983987" x2="176.4835382374775" y1="55.19839476539836" y2="52.563006222186495" /><path d="M 173.08426987136738 54.67131705675599 a86.0,86.0 0 0,1 12.851231095245387,41.99856678651699" fill="none" id="id63" stroke="none" /><text fill="#e1ed5e" style="font-size:6.75px; font-family:Arial;" text-anchor="middle"><textPath startOffset="22.20632615414155" xlink:href="#id63">March</textPath></text><line stroke="#e1ed5e" stroke-width="0.3" x1="184.98032266829074" x2="189.97916517819016" y1="98.17113171792111" y2="98.06355123074" /><path d="M 185.9800911702706 98.14961562048488 a86.0,86.0 0 0,1 -9.607161424134198,41.387399972396054" fill="none" id="id64" stroke="none" /><text fill="#e1ed5e" style="font-size:6.75px; font-family:Arial;" text-anchor="middle"><textPath startOffset="21.466115282336823" xlink:href="#id64">April</textPath></text><line stroke="#e1ed5e" stroke-width="0.3" x1="174.80103733775053" x2="179.2010983576182" y1="140.37084112569926" y2="142.7455964860345" /><path d="M 175.68104954172406 140.8457921977663 a86.0,86.0 0 0,1 -30.038265399797805,32.042727171017184" fill="none" id="id65" stroke="none" /><text fill="#e1ed5e" style="font-size:6.75px; font-family:Arial;" text-anchor="middle"><textPath startOffset="22.206326154141568" xlink:href="#id65">May</textPath></text><line stroke="#e1ed5e" stroke-width="0.3" x1="143.8653032363475" x2="146.44561519142675" y1="172.8068346515853" y2="177.08958963109032" /><path d="M 144.38136562736335 173.6633856474863 a86.0,86.0 0 0,1 -40.68145358897372,12.25698825130547" fill="none" id="id66" stroke="none" /><text fill="#e1ed5e" style="font-size:6.75px; font-family:Arial;" text-anchor="middle"><textPath startOffset="21.466115282336833" xlink:href="#id66">June</textPath></text><line stroke="#e1ed5e" stroke-width="0.3" x1="102.19456741930631" x2="102.32365962044197" y1="184.97166512339345" y2="189.96999836594603" /><path d="M 102.22038585953345 185.97133177190398 a86.0,86.0 0 0,1 -42.740103519485714,-10.115201625700543" fill="none" id="id67" stroke="none" /><text fill="#e1ed5e" style="font-size:6.75px; font-family:Arial;" text-anchor="middle"><textPath startOffset="22.20632615414155" xlink:href="#id67">July</textPath></text><line stroke="#e1ed5e" stroke-width="0.3" x1="58.666819895761336" x2="56.23545636021788" y1="174.27360380694188" y2="178.64263932499728" /><path d="M 58.180547188652646 175.14741091055294 a86.0,86.0 0 0,1 -31.652253787137756,-30.449443065178592" fill="none" id="id68" stroke="none" /><text fill="#e1ed5e" style="font-size:6.75px; font-family:Arial;" text-anchor="middle"><textPath startOffset="22.20632615414155" xlink:href="#id68">August</textPath></text><line stroke="#e1ed5e" stroke-width="0.3" x1="26.63291911575756" x2="22.317208475507996" y1="142.92168965132927" y2="145.44649492493687" /><path d="M 25.769776987707644 143.4266507060508 a86.0,86.0 0 0,1 -11.730757126820373,-40.83630448921669" fill="none" id="id69" stroke="none" /><text fill="#e1ed5e" style="font-size:6.75px; font-family:Arial;" text-anchor="middle"><textPath startOffset="21.46611528233685" xlink:href="#id69">September</textPath></text><line stroke="#e1ed5e" stroke-width="0.3" x1="15.007084014347285" x2="10.007500721073583" y1="101.09737516637583" y2="101.16192664675087" /><path d="M 14.007167355692545 101.11028546245083 a86.0,86.0 0 0,1 10.666146001902534,-42.60595125391555" fill="none" id="id70" stroke="none" /><text fill="#e1ed5e" style="font-size:6.75px; font-family:Arial;" text-anchor="middle"><textPath startOffset="22.20632615414155" xlink:href="#id70">October</textPath></text><line stroke="#e1ed5e" stroke-width="0.3" x1="26.266209847984243" x2="21.928928074336255" y1="57.711370442889674" y2="55.22380399835377" /><path d="M 25.398753493254645 57.213857153982495 a86.0,86.0 0 0,1 29.58750427330803,-30.492523968695096" fill="none" id="id71" stroke="none" /><text fill="#e1ed5e" style="font-size:6.75px; font-family:Arial;" text-anchor="middle"><textPath startOffset="21.46611528233685" xlink:href="#id71">November</textPath></text><line stroke="#e1ed5e" stroke-width="0.3" x1="56.762969772571076" x2="54.21961505331055" y1="26.818313649435495" y2="22.513508569990535" /><path d="M 56.25429882871897 25.957352633546506 a86.0,86.0 0 0,1 42.265352541879196,-11.944610805530505" fill="none" id="id72" stroke="none" /><text fill="#e1ed5e" style="font-size:6.75px; font-family:Arial;" text-anchor="middle"><textPath startOffset="22.20632615414155" xlink:href="#id72">December</textPath></text></svg>