<?xml version="1.0" encoding="utf-8" ?>
<svg baseProfile="full" height="300mm" version="1.1" viewBox="0,0,200,300" width="200mm" xmlns="http://www.w3.org/2000/svg" xmlns:ev="http://www.w3.org/2001/xml-events" xmlns:xlink="http://www.w3.org/1999/xlink"><defs /><rect fill="#222222" height="300" width="200" x="0" y="0" /><text fill="#FFFFFF" style="font-size:12px; font-family:Arial; font-weight:bold;" x="10" y="20">Over 10km Runs</text><text fill="#FFFFFF" style="font-size:4px; font-family:Arial" x="10" y="280">ATHLETE</text><text fill="#FFFFFF" style="font-size:9px; font-family:Arial" x="10" y="290">Abuqi</text><text fill="#FFFFFF" style="font-size:4px; font-family:Arial" x="120" y="280">STATISTICS</text><text fill="#FFFFFF" style="font-size:3px; font-family:Arial" x="120" y="285">Number: 1</text><text fill="#FFFFFF" style="font-size:3px; font-family:Arial" x="120" y="290">Weekly: 1.0</text><text fill="#FFFFFF" style="font-size:3px; font-family:Arial" x="141" y="285">Total: 10.4 km</text><text fill="#FFFFFF" style="font-size:3px; font-family:Arial" x="141" y="290">Avg: 10.4 km</text><text fill="#FFFFFF" style="font-size:3px; font-family:Arial" x="167" y="285">Min: 10.4 km</text><text fill="#FFFFFF" style="font-size:3px; font-family:Arial" x="167" y="290">Max: 10.4 km</text><polyline fill="none" points="164.79999999701977,165.6071520987898 110.125,103.17892218567431 27.099999994039536,139.5954152494669 27.099999994039536,183.81534610129893 138.47500000149012,168.20832376740873 116.20000000298023,95.37537862360477 65.57499999552965,103.17892218567431 19.0,170.8094950709492 65.57499999552965,215.0293512456119 150.625,178.61300678737462 150.625,110.98246245644987 110.125,95.37537862360477 35.20000000298023,170.8094950709492 140.5,168.20832376740873 162.77499999850988,136.9942395556718 122.27499999850988,84.9706487543881 37.225000001490116,147.39894014969468 63.54999999701977,196.82118798978627 140.5,181.2141766306013 164.79999999701977,144.79776554740965 124.30000000447035,92.77419670112431 49.375,121.38717768341303 37.225000001490116,181.2141766306013 146.57500000298023,163.00598005391657 162.77499999850988,129.1907102689147 114.17499999701977,84.9706487543881 35.20000000298023,126.58953310549259 37.225000001490116,165.6071520987898 152.65000000596046,181.2141766306013 172.89999999850988,116.1848208066076 144.54999999701977,97.97656018286943 51.400000005960464,134.39306349679828 79.75,204.62468872591853 162.77499999850988,170.8094950709492 170.875,121.38717768341303 65.57499999552965,97.97656018286943 27.099999994039536,134.39306349679828 132.39999999850988,163.00598005391657 166.82499999552965,150.0001143887639 148.60000000149012,90.17301441729069 55.45000000298023,92.77419670112431 33.17500000447035,147.39894014969468 146.57500000298023,165.6071520987898 170.875,134.39306349679828 140.5,90.17301441729069 33.17500000447035,126.58953310549259 61.524999998509884,186.41651521250606 150.625,168.20832376740873 168.85000000149012,105.7801026366651 140.5,87.57183176279068 47.350000001490116,103.17892218567431 33.17500000447035,139.5954152494669 75.70000000298023,176.01183658465743 162.77499999850988,152.60128824971616 162.77499999850988,100.57774136587977 124.30000000447035,87.57183176279068 51.400000005960464,103.17892218567431 45.32499999552965,170.8094950709492 156.70000000298023,170.8094950709492 176.95000000298023,131.79188707098365 132.39999999850988,87.57183176279068 41.274999998509884,108.38128272816539 49.375,176.01183658465743 164.79999999701977,150.0001143887639 172.89999999850988,116.1848208066076 118.22500000149012,90.17301441729069 61.524999998509884,95.37537862360477 35.20000000298023,152.60128824971616 77.7250000089407,183.81534610129893 164.79999999701977,150.0001143887639 124.30000000447035,87.57183176279068 47.350000001490116,105.7801026366651 35.20000000298023,147.39894014969468 77.7250000089407,183.81534610129893 142.52500000596046,170.8094950709492 172.89999999850988,147.39894014969468 152.65000000596046,95.37537862360477 37.225000001490116,126.58953310549259 53.42500000447035,181.2141766306013 148.60000000149012,163.00598005391657 172.89999999850988,139.5954152494669 142.52500000596046,87.57183176279068 59.5,95.37537862360477 37.225000001490116,131.79188707098365 75.70000000298023,186.41651521250606 154.67499999701977,168.20832376740873 174.92500000447035,142.1965905856341 138.47500000149012,95.37537862360477 47.350000001490116,103.17892218567431 35.20000000298023,131.79188707098365 51.400000005960464,178.61300678737462 138.47500000149012,181.2141766306013 168.85000000149012,165.6071520987898 156.70000000298023,103.17892218567431 73.67499999701977,95.37537862360477 39.25,126.58953310549259 53.42500000447035,178.61300678737462 140.5,181.2141766306013 176.95000000298023,129.1907102689147 154.67499999701977,103.17892218567431 67.60000000149012,97.97656018286943 37.225000001490116,134.39306349679828 49.375,178.61300678737462 152.65000000596046,168.20832376740873 166.82499999552965,108.38128272816539 134.42500000447035,95.37537862360477 39.25,113.58364181779325 37.225000001490116,150.0001143887639 59.5,189.01768395490944 138.47500000149012,181.2141766306013 170.875,160.4048076532781 150.625,103.17892218567431 37.225000001490116,126.58953310549259 63.54999999701977,189.01768395490944 142.52500000596046,178.61300678737462 172.89999999850988,155.20246174931526 142.52500000596046,92.77419670112431 49.375,105.7801026366651 39.25,142.1965905856341 79.75,191.6188523285091 162.77499999850988,170.8094950709492 146.57500000298023,90.17301441729069 49.375,105.7801026366651 41.274999998509884,150.0001143887639 55.45000000298023,183.81534610129893 138.47500000149012,186.41651521250606 174.92500000447035,126.58953310549259 150.625,97.97656018286943 43.30000000447035,113.58364181779325 65.57499999552965,194.22002034261823 142.52500000596046,191.6188523285091 170.875,170.8094950709492 158.7250000089407,110.98246245644987 39.25,123.98835558071733 67.60000000149012,199.42235526628792 136.45000000298023,191.6188523285091 168.85000000149012,170.8094950709492 162.77499999850988,113.58364181779325 69.625,97.97656018286943 37.225000001490116,136.9942395556718 51.400000005960464,183.81534610129893 152.65000000596046,178.61300678737462 176.95000000298023,123.98835558071733 144.54999999701977,95.37537862360477 51.400000005960464,103.17892218567431 43.30000000447035,134.39306349679828 71.65000000596046,199.42235526628792 142.52500000596046,191.6188523285091 166.82499999552965,118.78599942848086 43.30000000447035,121.38717768341303 51.400000005960464,176.01183658465743 97.97500000149012,194.22002034261823 168.85000000149012,168.20832376740873 158.7250000089407,105.7801026366651 31.150000005960464,123.98835558071733 65.57499999552965,196.82118798978627 110.125,194.22002034261823 156.70000000298023,181.2141766306013 170.875,116.1848208066076 47.350000001490116,118.78599942848086 51.400000005960464,183.81534610129893 124.30000000447035,196.82118798978627 174.92500000447035,163.00598005391657 148.60000000149012,108.38128272816539 55.45000000298023,105.7801026366651 31.150000005960464,136.9942395556718 79.75,183.81534610129893 144.54999999701977,178.61300678737462 170.875,116.1848208066076 144.54999999701977,92.77419670112431 37.225000001490116,123.98835558071733 53.42500000447035,173.41066600754857 112.15000000596046,194.22002034261823 174.92500000447035,152.60128824971616 164.79999999701977,113.58364181779325 45.32499999552965,116.1848208066076 53.42500000447035,186.41651521250606 130.375,196.82118798978627 172.89999999850988,139.5954152494669 150.625,110.98246245644987 85.82499999552965,103.17892218567431 35.20000000298023,142.1965905856341 75.70000000298023,194.22002034261823 140.5,191.6188523285091 176.95000000298023,136.9942395556718 152.65000000596046,103.17892218567431 49.375,113.58364181779325 55.45000000298023,178.61300678737462 108.10000000149012,191.6188523285091 166.82499999552965,168.20832376740873 156.70000000298023,110.98246245644987 41.274999998509884,118.78599942848086 61.524999998509884,191.6188523285091 150.625,191.6188523285091 176.95000000298023,142.1965905856341 120.25,97.97656018286943 65.57499999552965,100.57774136587977 41.274999998509884,157.80363488942385 59.5,191.6188523285091 148.60000000149012,189.01768395490944 154.67499999701977,108.38128272816539 71.65000000596046,97.97656018286943 35.20000000298023,155.20246174931526 83.79999999701977,191.6188523285091 152.65000000596046,183.81534610129893 148.60000000149012,103.17892218567431 65.57499999552965,100.57774136587977 39.25,131.79188707098365 57.475000001490116,189.01768395490944 136.45000000298023,191.6188523285091 170.875,134.39306349679828 148.60000000149012,108.38128272816539 65.57499999552965,97.97656018286943 31.150000005960464,147.39894014969468 69.625,189.01768395490944 156.70000000298023,178.61300678737462 164.79999999701977,110.98246245644987 130.375,97.97656018286943 75.70000000298023,95.37537862360477 37.225000001490116,157.80363488942385 140.5,183.81534610129893 174.92500000447035,129.1907102689147 134.42500000447035,92.77419670112431 47.350000001490116,110.98246245644987 45.32499999552965,170.8094950709492 156.70000000298023,181.2141766306013 174.92500000447035,150.0001143887639 134.42500000447035,97.97656018286943 33.17500000447035,139.5954152494669 61.524999998509884,183.81534610129893 150.625,181.2141766306013 172.89999999850988,121.38717768341303 142.52500000596046,105.7801026366651 37.225000001490116,134.39306349679828 63.54999999701977,186.41651521250606 146.57500000298023,178.61300678737462 172.89999999850988,152.60128824971616 154.67499999701977,100.57774136587977 43.30000000447035,110.98246245644987 29.125,150.0001143887639 63.54999999701977,189.01768395490944 144.54999999701977,176.01183658465743 168.85000000149012,116.1848208066076 138.47500000149012,97.97656018286943 51.400000005960464,100.57774136587977 33.17500000447035,134.39306349679828 67.60000000149012,186.41651521250606 152.65000000596046,176.01183658465743 170.875,118.78599942848086 142.52500000596046,105.7801026366651 65.57499999552965,100.57774136587977 33.17500000447035,142.1965905856341 67.60000000149012,189.01768395490944 148.60000000149012,181.2141766306013 174.92500000447035,155.20246174931526 142.52500000596046,95.37537862360477 53.42500000447035,100.57774136587977 39.25,131.79188707098365 75.70000000298023,186.41651521250606 164.79999999701977,176.01183658465743 181.0,144.79776554740965 144.54999999701977,103.17892218567431 51.400000005960464,108.38128272816539 37.225000001490116,144.79776554740965 79.75,191.6188523285091 158.7250000089407,176.01183658465743 178.97500000149012,142.1965905856341 134.42500000447035,95.37537862360477 49.375,108.38128272816539 35.20000000298023,155.20246174931526 71.65000000596046,191.6188523285091 156.70000000298023,176.01183658465743 152.65000000596046,103.17892218567431 73.67499999701977,97.97656018286943 35.20000000298023,150.0001143887639 61.524999998509884,186.41651521250606 164.79999999701977,168.20832376740873 162.77499999850988,110.98246245644987 124.30000000447035,95.37537862360477 67.60000000149012,97.97656018286943 39.25,157.80363488942385 100.0,189.01768395490944 162.77499999850988,173.41066600754857 146.57500000298023,97.97656018286943 41.274999998509884,121.38717768341303 83.79999999701977,191.6188523285091 154.67499999701977,181.2141766306013 181.0,155.20246174931526 152.65000000596046,100.57774136587977 63.54999999701977,100.57774136587977 41.274999998509884,152.60128824971616 71.65000000596046,186.41651521250606 158.7250000089407,181.2141766306013 178.97500000149012,150.0001143887639 134.42500000447035,100.57774136587977 49.375,110.98246245644987 37.225000001490116,144.79776554740965 79.75,191.6188523285091 164.79999999701977,176.01183658465743 178.97500000149012,144.79776554740965 134.42500000447035,97.97656018286943 47.350000001490116,110.98246245644987 51.400000005960464,176.01183658465743 172.89999999850988,168.20832376740873 160.75,108.38128272816539 122.27499999850988,95.37537862360477 53.42500000447035,103.17892218567431 35.20000000298023,155.20246174931526 65.57499999552965,186.41651521250606 166.82499999552965,170.8094950709492 176.95000000298023,136.9942395556718 124.30000000447035,97.97656018286943 43.30000000447035,116.1848208066076 47.350000001490116,176.01183658465743 162.77499999850988,176.01183658465743 158.7250000089407,108.38128272816539 116.20000000298023,100.57774136587977 59.5,103.17892218567431 31.150000005960464,152.60128824971616 142.52500000596046,186.41651521250606 170.875,131.79188707098365 148.60000000149012,108.38128272816539 55.45000000298023,105.7801026366651 33.17500000447035,160.4048076532781 146.57500000298023,186.41651521250606 176.95000000298023,134.39306349679828 116.20000000298023,97.97656018286943 67.60000000149012,100.57774136587977 37.225000001490116,160.4048076532781 93.92500000447035,194.22002034261823 164.79999999701977,178.61300678737462 158.7250000089407,108.38128272816539 122.27499999850988,97.97656018286943 45.32499999552965,121.38717768341303 37.225000001490116,163.00598005391657 83.79999999701977,189.01768395490944 172.89999999850988,160.4048076532781 142.52500000596046,100.57774136587977 97.97500000149012,97.97656018286943 51.400000005960464,108.38128272816539 39.25,170.8094950709492 158.7250000089407,178.61300678737462 160.75,110.98246245644987 122.27499999850988,95.37537862360477 41.274999998509884,113.58364181779325 49.375,181.2141766306013 168.85000000149012,168.20832376740873 158.7250000089407,108.38128272816539 122.27499999850988,97.97656018286943 61.524999998509884,105.7801026366651 35.20000000298023,168.20832376740873 158.7250000089407,181.2141766306013 168.85000000149012,121.38717768341303 93.92500000447035,97.97656018286943 51.400000005960464,108.38128272816539 45.32499999552965,170.8094950709492 170.875,165.6071520987898" stroke="#4DD2FF" stroke-linecap="round" stroke-linejoin="round" stroke-width="0.5"><title>2020-11-29 10.4km</title></polyline></svg>