<?xml version="1.0" encoding="utf-8" ?>
<svg baseProfile="full" height="300mm" version="1.1" viewBox="0,0,200,300" width="200mm" xmlns="http://www.w3.org/2000/svg" xmlns:ev="http://www.w3.org/2001/xml-events" xmlns:xlink="http://www.w3.org/1999/xlink"><defs /><rect fill="#222222" height="300" width="200" x="0" y="0" /><text fill="#FFFFFF" style="font-size:12px; font-family:Arial; font-weight:bold;" x="10" y="20">Over 10km Runs</text><text fill="#FFFFFF" style="font-size:4px; font-family:Arial" x="10" y="280">ATHLETE</text><text fill="#FFFFFF" style="font-size:9px; font-family:Arial" x="10" y="290">Abuqi</text><text fill="#FFFFFF" style="font-size:4px; font-family:Arial" x="120" y="280">STATISTICS</text><text fill="#FFFFFF" style="font-size:3px; font-family:Arial" x="120" y="285">Number: 16</text><text fill="#FFFFFF" style="font-size:3px; font-family:Arial" x="120" y="290">Weekly: 1.1</text><text fill="#FFFFFF" style="font-size:3px; font-family:Arial" x="141" y="285">Total: 215.3 km</text><text fill="#FFFFFF" style="font-size:3px; font-family:Arial" x="141" y="290">Avg: 13.5 km</text><text fill="#FFFFFF" style="font-size:3px; font-family:Arial" x="167" y="285">Min: 10.0 km</text><text fill="#FFFFFF" style="font-size:3px; font-family:Arial" x="167" y="290">Max: 21.6 km</text><polyline fill="none" points="24.650224424432963,32.75194310469669 19.958404540317133,41.36205514741596 18.424540347303264,46.07240586949047 17.191433839383535,47.6939833383658 19.50726801296696,49.62442023048061 19.296737633645535,52.75169921890483 16.138781942310743,58.27261106009246 15.627493878011592,62.98267195431981 12.619917029165663,66.10979894566117 12.860523177077994,67.49962174336542 14.003402379574254,68.69640796541353 17.401964218821377,69.81597745532054 18.30423727352172,70.6266973426682 13.822947768727317,69.08246692534885 12.319159344187938,67.1521667028137 12.680068566114642,65.14464009000221 15.326736193150282,62.86685175288585 15.507190804113634,58.31121844469453 19.116283022682182,52.520050143793924 19.20651032810565,50.242157172149746 19.77794992935378,49.16111661310424 22.57499639876187,47.46233000000939 23.958481749286875,44.37360016335151 25.9434824695345,43.67863116573426 29.25181700324174,45.53187792029348 29.61272622505203,47.616765580605716 27.296892051468603,50.47380816718214 26.996134366490878,52.98334809861262 26.214164385921322,54.41184520945535 24.048709054710343,55.95615805793204 21.79302641795948,59.276401297567645 22.063708334462717,61.32257773575839 22.84567831514869,62.0561089758412 26.69537668162957,63.13709881374962 29.071362392278388,68.271742483048 33.432348823174834,69.00525517674396 36.6203802828677,72.40255159666413 39.23697214142885,72.59557854165905 42.57538244361058,71.63044246128993 44.74083777482156,69.58434276262415 45.733338134828955,61.39979164270335 52.10940105444752,49.23833393689711 51.838719138060696,46.767368813510984 50.36500648211222,45.26161354701617 52.1996283599874,46.92180478462251 52.68084065581206,49.00668190032593 46.3047777361935,60.78207977980492 45.52280775539111,64.06365814807941 45.191974302055314,69.97040047548944 43.08667050790973,71.90068090546993 40.16932096448727,72.75 35.71810722828377,71.97789184065186 33.91356111888308,69.1982845076709 32.590227305539884,68.4261663708021 29.22174123476725,68.31034846312832 28.10893780074548,67.30659121944336 26.605149376322515,63.63898550759768 23.41711791662965,62.44217726311763 21.67272334417794,60.975114886066876 21.732874881126918,58.65868466219399 23.86825444374699,55.33843396001612 26.394618996884674,53.60107749016606 26.87583129259292,50.35798269396764 29.011210855212994,48.3889421816275 29.492423151270486,47.15345857857028 28.77060470741708,45.0299581582949 25.883330932585523,43.71724060061388 24.138936360133812,44.45081883226521 23.056208694702946,47.385112177202245 20.499768373090774,49.23833393689711 19.627571086981334,50.51241664745612 19.627571086981334,52.59726652377867 15.777872720384039,59.199186794110574 15.958327331463806,62.67381797530106 13.431962778326124,64.68136263545603 12.649992797523737,66.34143656661035 13.010902019450441,67.84707634465303 13.883099305676296,68.81222571030958 17.010979228420183,69.58434276262415 18.274161504930817,70.54948602773948 16.80044884898234,69.62294855827349 14.033478148048744,69.0438610536803 12.379310881136917,67.1521667028137 12.74022010306362,65.14464009000221 15.507190804113634,62.67381797530106 15.507190804113634,58.92893586109858 19.086207254091278,52.75169921890483 19.44711647601798,50.01050598171423 20.379465299192816,48.65920347944484 22.304314482375048,47.53954780116328 23.808102906798013,44.14194402610883 25.161512488732114,43.369755491643446 26.394618996884674,43.369755491643446 28.830756244366057,44.37360016335151 29.58265045657754,45.763532885786844 29.402195845730603,48.08007180155255 26.996134366490878,50.66685051389504 26.63522514468059,53.79411764035467 25.763027858687565,54.79792423520121 26.63522514468059,52.906131827039644 26.755528218694963,50.66685051389504 29.492423151270486,47.15345857857028 29.22174123476725,44.952739652013406 28.289392411708832,43.369755491643446 33.76318227651063,32.25" stroke="#4dd2ff" stroke-linecap="round" stroke-linejoin="round" stroke-width="0.5"><title>2023-08-16 10.2km</title></polyline><polyline fill="none" points="64.79215520550497,71.75770817531156 66.282682926103,72.75 67.65265325753717,72.27607089196681 76.12454978720052,67.15155876503559 78.09730706445407,64.61882029112166 80.73860986356158,60.05675541399978 78.8425709247822,59.31613943116827 73.83395939308684,58.08670392623753 73.50516651349608,57.686763584679284 73.65860319061903,56.901690523533034 74.6011427786434,56.67949883568508 75.26968830038095,55.96848188032891 75.36832616425818,55.42040261407237 75.03953328472562,54.60568424373196 75.09433209791314,54.10203660344996 74.61210254125763,53.43543995964865 74.04219488339731,53.45025327014446 73.39556888688821,52.87253241966391 73.20925292186439,52.36887542735349 73.31885054841405,51.9392834921091 73.79012034245534,51.33192600301845 74.338108475029,49.376504314597696 74.80937826901209,48.65061765522114 76.08071073662722,48.0580529315921 76.43142314138822,47.65806961632916 77.1986065270612,45.835901710270264 77.30820415361086,45.13961677458428 77.13284795114305,44.48777085020993 77.3739627294708,44.05814263816865 77.82331299822545,43.747031318933296 78.6233756717993,43.99888341921178 79.76319098751992,43.70258676006779 80.1029436297249,44.51740030921792 83.04016002034768,44.48777085020993 83.36895289982203,44.07295743700524 83.54430910234805,42.961840996671526 84.96907824696973,42.68035606499325 87.62134080863325,39.7617517346298 88.61867920996156,39.16913056989142 89.0241904280847,37.58385045603791 88.45428277022438,36.59118471108377 88.53100110875675,36.08743984640023 88.22412775451085,34.887330830300925 90.20784479443682,33.8501871491535 89.74753476306796,32.54633302385628 89.84617262694519,32.30926668002212 89.65985666186316,32.25 90.1092069306178,33.80573787666799 88.31180585571565,34.902147085085744 88.31180585571565,35.39108217341709 88.64059873530641,35.98372733082215 88.57484015933005,36.65044863404182 89.12282829196192,37.62829792895354 88.75019636179786,39.00615908986947 87.67613962193718,39.732120765795116 86.24041071464308,41.539592649460246 84.80468180723256,42.887766096966516 83.5223895770032,43.124805569066666 83.56622862757649,41.969232455827296 83.24839551071636,41.361810082053125 82.7442464287742,41.035874495508324 81.91130446724128,41.376625308919756 82.48121212510159,40.90253688200028 81.85650565399555,40.250661362486426 82.27297663473291,39.27283954543236 81.93322399246972,40.250661362486426 82.54697070101975,40.94698277432326 81.82362636603648,41.332179621225805 80.81532820203574,41.09513559591869 79.1494442790281,39.93953735021205 78.43705970665906,38.161665952990006 77.93291062465869,37.62829792895354 77.3739627294708,37.18382224693778 77.05612961261068,37.450507910245506 77.4616408306756,38.62095264199888 77.95483015006175,39.33210176539433 81.35235657199519,41.8210810219025 81.19891989487223,45.55442544687685 83.63198720349465,50.828260697308 84.53068774094572,51.835588590824045 85.18827350001084,52.19111348706792 81.95514351781458,58.42739249524311 77.54931893193861,65.87779244903504 76.43142314138822,67.0330696083256 75.25872853770852,67.8328684975495 67.13754441292258,72.60189741214708 66.20596458757063,72.75" stroke="#4dd2ff" stroke-linecap="round" stroke-linejoin="round" stroke-width="0.5"><title>2023-08-13 11.1km</title></polyline><polyline fill="none" points="109.65125914034434,32.25 106.185695447959,38.3358427543717 103.27592970617115,45.30293121089926 105.98953146545682,46.5620262468874 108.40888725058176,44.79929171054391 109.88011712022126,41.525614262209274 112.56102488213219,40.350439248170005 115.53617861808743,41.35773240032722 116.74585651070811,44.29565136117162 116.02658857451752,46.01641904943972 113.93417276022956,47.94702465747832 113.37837480951566,51.59835332579678 110.50130306498613,53.780735360021936 108.11464127665386,57.515929156623315 108.18002927105408,59.278588662389666 109.52048315189313,60.66352812136756 113.73800877761096,61.922558422142174 115.79773059475701,66.87469279606012 117.23626646725461,67.50419552269159 119.81909223785624,67.2943614278629 121.32301610440481,68.09173020435264 122.99040995643009,71.02938628187985 124.39625183166936,72.12050832581008 129.56190337310545,71.44904907804448 133.0601610626327,69.01499665528536 133.1909370510839,63.76912659933441 134.17175696394406,59.44646045390982 141.20096634002402,46.01641904943972 140.9394143631216,44.211711220414145 139.46818449383136,42.15517040368286 141.16827234288212,43.03654677292798 141.92023427621461,44.757321713870624 141.72407029359601,46.813844617368886 134.59677892620675,60.41172142449068 133.74673500168137,69.22482954181032 131.915871164063,71.07135258804192 129.85614934691694,72.0785421669134 127.46948755881749,72.75 124.42894582869485,72.41427127213683 122.99040995643009,71.57494780194247 121.64995607524179,68.93106345954584 120.30950219440274,67.75599624199094 117.1381844758289,67.79796300799353 115.53617861808743,67.1684609001968 113.50915079796687,62.510104080080055 112.20139091403689,61.29304393500206 108.93199120427016,60.705495883506956 107.95117129117716,59.53039631427964 108.04925328248646,57.180183309770655 110.37052707641851,53.36104774536216 113.05143483867869,51.72426041497965 113.67262078344356,47.863085542601766 116.05928257154301,45.638690405961825 116.38622254261281,43.288368115143385 115.37270863261074,41.819407293369295 112.82257685891818,40.72817457822384 110.46860906784423,41.69349602959119 109.09546118974686,45.17702141532209 105.85875547712203,47.737176826107316 105.30295752629172,51.22063173999777 105.76067348581273,47.27551107853651 108.89929720712826,44.757321713870624 110.04358710558154,41.609555157629075 111.384040986537,40.68620400963118 113.57453879213426,40.56029226825922 116.02658857451752,42.113200035557384 116.74585651070811,43.95989065658068 116.582386525115,45.13505147176329 113.86878476606216,48.1149028162763 112.98604684427846,52.10198136413237 110.40322107367683,53.99057894619182 108.18002927105408,57.390024508320494 108.14733527379576,59.488428387005115 109.32431916939095,60.66352812136756 112.16869691689499,61.04123776871711 113.90147876332048,62.21633139552432 115.24193264415953,66.1192877733265 116.38622254261281,67.37829508364666 120.34219619154464,67.63009590891306 123.84045388095547,71.86871128468192 127.0444655965548,72.16247447862406 130.57541728310753,71.19725147113786 133.32171303930227,68.72123036676203 133.158243053942,64.062897757045 133.91020498704165,59.656300060625654 140.74325038061943,47.107632447907235 141.16827234288212,45.638690405961825 140.80863837490324,43.87595042146859 141.4298243196681,44.00186076524551 141.7894582877634,46.47808674292173 134.69486091739964,59.866139519930584 133.94289898429997,64.6504392059287 134.04098097549286,68.51139712674194 133.158243053942,70.02219316622359 130.05231332953554,72.03657600237057 126.06364568357822,72.75 123.21926793607417,71.95264365529874 120.50566617690492,67.92386327032 115.83042459201533,67.4202619025018 113.41106880677398,62.30026647777413 109.65125914034434,61.04123776871711 107.98386528843548,59.656300060625654 108.04925328248646,57.054278519935906 110.53399706212804,53.31907895152108 112.72449486760888,52.14395032892935 113.50915079796687,50.423217934789136 113.57453879213426,47.863085542601766 115.99389457737561,45.764600006863475 116.41891653975472,44.04383086806047 115.47079062380362,41.819407293369295 113.11682283284608,40.68620400963118 111.2205710010603,41.189850444177864 108.53966323903296,44.84126170122181 105.33565152343363,46.813844617368886 103.07976572366897,45.38687104507699 103.96250364533626,43.624129574600374" stroke="#4dd2ff" stroke-linecap="round" stroke-linejoin="round" stroke-width="0.5"><title>2023-07-20 10.9km</title></polyline><polyline fill="none" points="150.34399141627364,33.9357142689114 147.25,41.79019706105464 148.9186695277458,43.129009981348645 150.4135193132097,43.08438297495013 152.63841201702598,41.70094266565866 153.75085836893413,38.62165066940361 156.1495708153816,36.836540191667154 159.97360515012406,37.99686314337305 161.25987124466337,40.58526060820441 160.91223175951745,42.19184152956586 158.27017167385202,44.86945834226208 157.6791845493717,48.796588841010816 154.58519313298166,51.38489830782055 152.0821888410719,55.088821724028094 152.2907725321129,57.23083001485793 153.85515021439642,58.52495302489842 157.74871244630776,59.77444610145176 159.03497854073066,61.47017884461093 159.62596566509455,64.14763316849712 160.9469957081601,65.57559958114871 164.31909871229436,65.21860857971478 166.12682403426152,66.24495662763366 168.108369098627,69.68096726527438 169.32510729599744,70.48418517230311 175.40879828319885,69.59172070582281 178.39849785412662,67.44979575733305 179.71952789684292,57.096954919805285 187.1937768239295,42.68273963496904 186.56802575092297,39.91584949276876 185.24699570820667,38.44314007306821 186.53326180239674,38.80016116533079 187.68047210294753,40.36212372640148 187.75,43.66453356962302 180.48433476383798,57.54320501725306 179.54570815444458,61.96104715997353 179.47618025739212,67.22667774462025 177.2512875534594,69.54709741676925 173.77489270374645,71.0642857311177 169.29034334758762,70.88579336434486 167.5173819741467,69.41322751168627 165.74442060070578,66.24495662763366 160.18218884116504,65.44172800262459 157.99206008575857,60.30994162973366 156.35815450630616,59.06045065954095 153.50751072959974,58.971201116393786 152.0821888410719,57.409330053895246 151.90836909867357,54.64256817888236 154.6547210299177,50.35850224949536 157.26201716728974,48.751962630864 158.30493562226184,44.11080253694672 160.59935622301418,42.147214391530724 161.0860515020322,40.40675111528253 160.2864806865109,38.71090592988185 157.0881974248914,37.32744657312287 155.69763948500622,37.50595779635478 154.37660944194067,38.62165066940361 152.7774678110145,42.54885840872885 150.37875536479987,44.11080253694672 150.5178111587884,43.57527970094816 153.09034334751777,41.5224337997206 153.88991416303907,38.53239538380876 156.08004291844554,36.88116807580809 157.50536480685696,36.88116807580809 160.70364806859288,38.80016116533079 160.98175965656992,42.10258724720916 158.4787553647766,44.78020481223939 157.60965665231925,49.24285059858812 154.6199570816243,51.251020749186864 152.39506437757518,54.86569502984639 152.25600858358666,56.829204560490325 153.125107296044,58.07870430659386 156.77532188838813,59.1497001775424 158.02682403416838,60.13144322071457 160.3560085836798,65.30785636763903 165.25772532168776,65.88796637830092 166.71781115874182,66.95893592271022 168.59506437752862,70.35031566221733 171.9671673818957,70.97503956023138 175.4783261801349,70.08257647263235 178.0508583689807,68.16377234485117 179.68476394854952,56.829204560490325 186.9504291843623,43.35214491956867 186.32467811147217,39.87122203485342 187.1937768239295,40.67451531693223 187.64570815430488,42.325722906331066 187.26330472086556,43.88766813170514 180.2757510729134,56.606079088611295 179.26759656646755,60.57768905546982 178.88519313302822,67.27130135986954 177.2512875534594,69.05624082268332 174.60922746779397,70.43956200862885 171.51523605140392,71.01966264890507 168.80364806845319,70.61805462604389 166.16158798267134,66.7804412493715 164.14527896989603,65.84334256898728 161.05128755350597,65.97721397824353 159.69549356214702,65.17398467642488 157.50536480685696,60.2653170369158 152.60364806861617,58.480328181321966 151.63025751069654,56.73995439050486 151.90836909867357,54.64256817888236 154.13326180237345,50.938639559579315 157.15772532182746,48.841215045016725 157.9225321887061,44.824831580364844 160.70364806859288,41.96870577640948 160.84270386269782,40.22824152218527 159.904077253188,38.62165066940361" stroke="#4dd2ff" stroke-linecap="round" stroke-linejoin="round" stroke-width="0.5"><title>2023-07-11 10.1km</title></polyline><polyline fill="none" points="28.847358490573242,112.90986838482786 27.135660377331078,114.59710082106176 26.677169811329804,118.24619657898438 23.956792452954687,120.05110804107971 22.153396226349287,123.07234677806264 21.847735849092714,124.52409922212246 22.306226415210404,125.42653612748836 26.86056603770703,127.19216511838022 29.580943396198563,132.21433767001145 32.91264150943607,132.09663153422298 34.28811320755631,132.68516171726515 36.06094339629635,135.94167298375396 37.161320754676126,136.72636881750077 41.501698113163,136.3340211760078 44.802830188767985,134.64692003882374 45.41415094328113,133.155984971032 45.444716981146485,128.72236788267037 46.208867924520746,125.11264536064118 52.688867924618535,112.83139220956946 52.046981132007204,109.81004269307596 50.97716981137637,108.51516860921402 25.362830188823864,97.99899914170965 24.537547169835307,98.78380158080836 22.428490565973334,104.31659619725542 17.996415094356053,110.98719574179268 17.660188679234125,112.00739103744854 19.555283018853515,113.77310485823546 19.005094339721836,117.57916113032843 15.85679245297797,122.60150652719312 15.734528301865794,127.46681751383585 13.564339622622356,128.76160374071333 12.586226415005513,130.4879760403128 13.075283018872142,132.01816074945964 14.328490565996617,133.43063150250237 16.712641509482637,133.54833707612124 18.088113207602873,134.52921492795576 14.175660377368331,133.5875722563942 12.311132075381465,131.6258064948779 12.25,130.1740909611981 13.044716981123202,128.84007544035558 15.337169811245985,127.03522077109665 15.520566037739627,122.40532285501831 18.791132075479254,117.1867865929089 19.555283018853515,113.69462892532465 22.336792452726513,111.5757704054995 23.37603773572482,108.82907802928821 24.415283019072376,107.92658749551629 25.76018867921084,107.41648286033887 28.541698113200255,108.31897504240624 29.61150943406392,109.96699671962415 29.61150943406392,112.94910646424978 27.899811320821755,114.44014939648332 26.616037735831924,118.48162047468941 24.47641509445384,119.77644835363026 22.153396226349287,123.26852998169488 22.153396226349287,124.95569984501344 23.406603773590177,126.05431660290924 26.677169811329804,127.11369295575423 27.716415094211698,128.17306529072812 28.939056603820063,131.70427738988656 30.131132075563073,132.41051445281482 32.7598113209242,132.21433767001145 34.593773584929295,133.78374807472574 35.877547169919126,136.0986123268085 36.88622641505208,136.647899333213 40.89037735841703,136.4124907484802 44.98622641514521,134.05839398896205 45.353018867899664,128.01612149458379 46.14773584913928,124.99493623219314 52.627735849120654,112.98834453820018 52.29150943388231,110.35938139996142 50.82433962263167,108.55440730601549 25.393396226339974,97.9205187765765 24.50698113196995,98.66608135559363 17.537924528238364,111.30110238341149 17.72132075461559,112.16434382900479 19.341320754843764,113.5769149849657 18.73000000009779,117.30449901189422 15.337169811245985,122.99387345806463 15.459433962241746,127.2706372589164 13.44207547174301,128.76160374071333 12.525094339624047,130.4879760403128 12.586226415005513,131.5865710391663 14.420188679243438,133.54833707612124 17.17113207548391,134.09762909749406 14.206226415000856,133.46986669916078 12.433396226377226,131.46886463882402 12.25,130.37026917689946 13.014150943374261,128.80083959325566 15.21490566036664,127.11369295575423 15.551132075488567,122.2876125855837 17.446226415107958,119.97263387223938 18.7605660376139,117.22602407139493 19.524716981104575,113.77310485823546 22.67301886784844,111.1441491067526 23.895660377456807,108.20125883622677 25.913018867955543,107.22028852184303 29.00018867920153,108.78983937110752 29.94773584906943,111.7327234398108 27.655283018830232,114.67557650030358 26.768867924576625,118.24619657898438 24.354150943341665,119.69797410754836 22.000566037721,123.19005671687773 22.214528301963583,125.38729980090284 27.135660377331078,127.42758147392306 29.366981132188812,132.09663153422298 33.76849056605715,133.07751448379713 35.72471698129084,136.25555158167845 36.82509433967061,137.0794812234235 41.92962264153175,136.37325596509618 44.92509433964733,134.25456947667408 45.65867924527265,126.17202528499183 46.97301886801142,122.75845336556085 52.597169811371714,112.90986838482786 52.046981132007204,110.16318912862334 51.19113207550254,109.06450986283016 46.7284905660199,106.94561621636967 25.240566037711687,98.116719648242 24.354150943341665,98.70532143613673 17.26283018873073,111.61500867237919 17.660188679234125,112.63520167471142 19.280188679345883,113.61615297058597 19.005094339721836,116.32356067010551 17.446226415107958,119.58026269718539 15.21490566036664,122.64074324499234 15.062075471738353,123.85707876592642 19.09679245285224,116.63746131438529 19.922075471724384,113.41996298692538 22.520188679220155,111.49729385529645 24.17075471696444,108.08354258048348 26.524339622585103,107.49496055717464 29.305849056574516,109.2999414979713 29.886603773687966,111.92891460855026 27.533018868067302,115.18566787766758 26.982830188702792,117.77534819228458 24.048490565968677,120.16881925301277 22.031132075586356,123.34700322456774 22.306226415210404,125.50500876409933 26.768867924576625,127.19216511838022 28.816792452824302,131.6258064948779 30.008867924450897,132.3320437562361 32.851509434054606,132.41051445281482 34.34924528305419,133.62680743113742 36.366603773552924,136.76560355126276 41.899056603899226,136.3340211760078 43.641320754773915,135.47085442542448 45.10849056614097,133.97992375530885 45.353018867899664,128.80083959325566 46.208867924520746,124.95569984501344 52.44433962274343,113.45920099478099 52.75,111.85043815744575 52.16924528311938,110.12395065787132 51.28283018874936,108.94679397091386 31.17037735856138,100.706558236212 31.506603773566894,100.98123667776235 30.803584905690514,103.37485166278202 28.75566037732642,107.6126770611445 30.131132075563073,110.35938139996142 29.580943396198563,113.06682066942449 30.222830188809894,110.04547369977809 28.35830188682303,106.78866049202043 31.262075471808203,100.47111935706926 25.60735849069897,97.95975896186428 24.690377358580008,98.74456151129561 17.629622641485184,111.85043815744575 19.524716981104575,113.89081871599774 18.974528301972896,117.1867865929089 15.673396226484329,122.79769006150309 15.581698113237508,127.23140119135496 12.555660377372988,130.25256226406782 12.80018867936451,131.86121911377995 14.08396226412151,133.35216109245084 12.83075471688062,132.25357303765486 12.433396226377226,129.86020552946138 15.459433962241746,127.11369295575423 15.642830188618973,122.75845336556085 19.0662264151033,117.02983662346378 19.524716981104575,114.20472209423315 22.734150943462737,111.4580555720313 24.048490565968677,108.31897504240624 25.60735849069897,107.53419939737068 28.816792452824302,108.90755532926414 29.642075471696444,110.16318912862334 29.489245282951742,111.9681528256915 27.533018868067302,113.85158076894004 29.397547169821337,113.2237728657492" stroke="#ff0a00" stroke-linecap="round" stroke-linejoin="round" stroke-width="0.5"><title>2023-07-01 21.2km</title></polyline><polyline fill="none" points="72.3028995716013,97.68696604837896 75.78508776798844,99.77094699027657 76.80618054745719,102.59437607915606 78.19381945277564,102.15741899496061 80.10509568080306,103.06494435408968 81.20473405858502,102.4935398997477 81.25709779094905,101.65323675228865 80.47164180676918,100.34235794794222 78.19381945277564,99.36759725710726 76.28254322463181,97.25 74.7639949885197,98.93063427871675 76.12545202788897,100.20790843367286 76.54436188586988,102.62798812953406 75.86363336653449,100.14068364819104 72.32908143778332,97.78780425385048 71.17707932775375,97.75419152347604 67.6948911313666,104.07330182613805 67.48543620225973,105.55221843016625 63.16542828944512,112.50972613391059 63.00833709270228,114.05581147830526 61.93488058098592,115.97159902182466 64.05561173823662,116.97990209313866 65.94070610019844,115.870768480876 66.96179887955077,113.58526482248271 69.03016630443744,112.20723000651924 71.46507985540666,112.64416873447772 72.66944569756743,113.71970681859239 72.93126435903832,115.60188683074375 70.47016894200351,118.32429957782733 70.1036228161538,121.28194745158544 67.85198232822586,122.89519451708475 65.8359786355868,125.88639466738096 65.75743303715717,126.72661270093522 66.90943514718674,128.30621461595 69.1610756352311,128.77673231948575 70.94144253258128,130.05384713607782 72.27671770565212,133.41464302697568 76.77999868127517,134.3556574168615 77.8272733266931,136.47292626272247 79.24109409819357,137.54835723155702 83.16837401897646,136.94342790634255 85.1320139792515,135.8007794525911 86.07456116029061,134.38926500518573 86.07456116029061,130.72601009088976 87.30510886874981,125.81917709721893 92.17493597033899,116.97990209313866 91.93929917516652,114.29108445903694 93.06511941901408,115.70271748502273 92.69857329316437,117.48405203515722 87.20038140425459,127.53321923717158 86.28401608939748,135.29666810584604 84.47746732574888,136.87621344235959 81.33564338926226,137.75 78.4032743817661,137.1786783812131 76.8585442797048,134.55730287609913 75.44472350832075,133.75072001955414 72.22435397328809,133.5490738806402 70.4178052097559,129.78498142534227 69.05634817061946,128.74312394273875 66.7785258165095,128.30621461595 65.99306983244605,127.43239356888807 65.8359786355868,125.58391545295308 67.66870926518459,122.52549302544503 69.86798602086492,121.08029080348206 70.36544147739187,118.22347002846072 72.3028995716013,116.07242952015076 72.61708196531981,114.89607106159383 72.22435397328809,113.65248582989443 71.51744358753785,113.01388549619878 69.47525802871678,112.442504805309 67.85198232822586,113.08110666426364 66.62143461988308,115.93798884618445 64.18652106891386,117.85376131755766 63.79379307676572,120.30727207796008 62.772700297413394,121.98774438124383 64.13415733666625,117.75293156999396 66.38579782459419,116.00520919261908 67.40689060394652,113.55165431159548 68.42798338318244,112.57694744353648 70.1036228161538,112.34167277695087 72.09344464249443,113.24915950176364 72.82653689442668,114.29108445903694 72.43380890239496,116.37492076029594 70.60107827268075,118.08903056338022 70.20835028064903,120.97946241573663 67.85198232822586,122.86158531424007 66.07161543087568,125.81917709721893 65.96688796626404,127.06269908817194 66.59525275358465,128.17178081643942 69.5014398948988,128.84394905866066 70.62726013874635,129.68415670601826 72.3028995716013,133.58268158223655 73.29781048488803,133.952365988589 75.20908671303187,133.61628927917627 76.88472614588682,134.3556574168615 77.85345519299153,136.67456993754604 78.84836610627826,137.48114293759863 82.77564602682833,137.3131071201642 85.89128809736576,135.26306064501114 86.33637982152868,134.15401178771572 86.28401608939748,130.55796952913806 87.72401872696355,125.48308896315575 92.4891183640575,116.84546192914422 92.17493597033899,114.4255260584614 92.51530023035593,114.96329170071112 91.33711625402793,113.38360168672807 92.4629364979919,114.76162972651946 92.72475515934639,116.61019146042236 92.38439089944586,114.29108445903694 90.55166026984807,112.47611547200358 74.7378131224541,105.7202765566035 76.2563613584498,103.09855633832922 77.43454533454496,102.19103110676224 80.4978236729512,102.99772037152434 81.49273458612151,102.29186741360172" stroke="#4dd2ff" stroke-linecap="round" stroke-linejoin="round" stroke-width="0.5"><title>2023-06-23 11.0km</title></polyline><polyline fill="none" points="141.2996145237703,131.33178572891484 138.4391320567811,130.76255454915372 137.29091022134526,129.9087011723168 134.85345685161883,129.11952660679526 133.66494653071277,128.44678228495468 131.0260507336934,127.45059415240394 128.50802039296832,126.75196227017295 124.06621487194207,126.2862047329545 121.56832877395209,125.21236586496525 118.53662024374353,122.15897236068122 117.12652325292584,121.49911552444973 112.81565530964872,118.4197210008715 111.3652698333608,116.56944695395941 110.15661526983604,115.68958329353336 109.59257647354389,114.49916611352091 108.41413827409269,112.76527003409865 106.47021885099821,110.99252157405135 105.10041034570895,108.81859358279326 104.42557821440278,108.32686464532162 103.85146729671396,107.53750479765586 103.08598607312888,106.07523012061574 102.25,103.55178105477535 104.02269335987512,107.66690851594467 105.40257398656104,109.09033739338338 106.46014672971796,110.85018262371159 108.49471524497494,112.80408896095469 109.66308132308768,114.4344690860089 110.28755284758518,115.72840098555025 111.64728923153598,116.82822878089064 112.8660159164574,118.40678215085791 117.16681173839606,121.44736184680369 118.57690872921376,122.15897236068122 121.48775180306984,124.97948349178478 122.59568515297724,125.62637751649163 121.66904998756945,125.26411742340133 118.46611539419973,122.10721905450919 116.75385476252995,121.22740839178732 112.52356379013509,118.13506587906886 111.56671226065373,116.7894115533054 110.03574981348356,115.50843384749169 109.49185525992652,114.33095374724508 108.39399403135758,112.72645109088626 106.48029097239487,110.94076198121184 105.97668490424985,110.20318461723946 106.92346431233454,111.32895821671991 108.47457100223983,112.68763213127386 109.69329768716125,114.47328730797744 110.22712011937983,115.6378263453953 111.58685650338884,116.71177704891306 112.73507833870826,118.26445468006568 116.7437826411915,121.1497776350152 118.4963317582733,122.06840405573166 121.59854513808386,125.14767637603654 123.98563790100161,126.11801393135102 127.50080825667828,126.67433617779898 128.34686645114562,126.60964771746512 130.28071375284344,127.16596698934882 137.08946779411053,129.75345425193518 138.53985327039845,130.8272400879432 139.1743969162344,130.76255454915372 140.6751429992728,131.17654121117084 142.75,131.33178572891484 141.8535811987822,131.44821894522465 141.23918179556495,131.38353384325455 141.460768465593,131.31884869579517" stroke="#4dd2ff" stroke-linecap="round" stroke-linejoin="round" stroke-width="0.5"><title>2023-05-28 13.0km</title></polyline><polyline fill="none" points="164.6853869272163,110.19626402415452 164.32024793385062,112.50088671492995 162.19027047336567,114.41488086999743 161.91641622851603,117.30537768168142 158.9648760331329,120.00054358286434 156.98703981982544,122.96910187776666 156.86532682192046,124.57054779748432 157.8086025546072,125.97668782956316 160.82099924888462,126.6016366725089 162.19027047336567,127.61717554644565 164.25939143507276,132.18705458191107 168.4584898572648,132.5385806277045 171.44045830215327,136.44439568149392 173.29658151778858,136.95214760894305 177.5565364388749,136.053816644795 180.3255071375752,133.39786464674398 180.69064613082446,126.99222898602602 182.54676934634335,121.99260593677172 187.62828700244427,112.8524376496498 187.75,111.32904705600231 187.11100676190108,109.84470973108546 186.0460180316586,108.79004418471595 168.58020285516977,101.13383361508022 160.15157776116394,98.24316867365269 156.9566115703201,105.19633894829894 154.46149511658587,108.28224082812085 152.78794139740057,111.71966082433937 155.0396318557905,112.73525405410328 157.2608940647915,111.2118628184835 158.3563110444229,108.55567351999343 159.60386927134823,107.42287918864167 162.00770097679924,106.95413535670377 163.71168294514064,107.65725080823177 165.02009767096024,109.4540933285316 165.20266716752667,111.68059947225265 163.25525920360815,114.45394183805911 162.1294139744714,118.2818900840939 159.33001502626576,120.11772411648417 157.35217881307472,123.32063957711216 157.62603305792436,125.42985643987777 161.9772727274103,127.03128818713594 162.85969196096994,128.0858845449984 163.62039819697384,130.89812194538536 164.62453042832203,132.06987913468038 168.1542073629098,132.14799610496266 169.49305033823475,132.77293107804144 171.9273102930747,136.4834535550035 174.39199849742,136.67874284018762 177.61739293776918,136.01475871095317 180.14293764100876,133.98373859171988 180.44722013524733,128.28117972784094 181.23835462064017,125.11738087717094 187.62828700244427,112.65713162976317 187.5065740045393,110.70406388503034 186.38072877540253,109.10253809689311 160.54714500391856,98.12597892060876 159.3604432757711,99.45412656411645 152.78794139740057,111.75872217107099 155.00920360628515,112.9696211956907 157.16960931639187,111.40716985356994 159.39087152516004,107.46194113898673 160.72971450036857,106.83694927516626 163.10311795643065,107.07132138867746 165.02009767096024,108.59473531111144 165.2939519159263,111.60247675154824 162.95097670925315,115.00079481420107 162.64669421489816,117.42255935104913 161.79470323072746,118.63343370956136 159.45172802428715,119.922423199896 157.35217881307472,123.00816164418939 157.29132231418043,124.80490496332641 158.2041697972454,125.93762848025654 162.524981217226,127.57811642758315 164.47238918114454,131.95270363785676 168.3063486102037,132.18705458191107 170.04075882793404,133.55409781937487 171.50131480093114,136.24910623175674 172.9314425245393,136.75685851587332 175.45698722777888,136.67874284018762 177.83039068372454,135.78041099276743 180.23422238929197,133.47598124397337 180.47764838475268,128.12494359258562 181.32963936892338,124.57054779748432 187.68914350122213,112.69619284465443 187.59785875293892,111.17280139488867 186.4415852742968,109.25878492146148 174.8484222390689,103.82915628061164 160.21243426005822,98.16504217713373 152.66622839972842,111.71966082433937 154.85706235910766,112.9696211956907 157.1087528174976,111.32904705600231 158.38673929392826,108.55567351999343 160.09072126226965,107.14944538273267 162.829263711581,107.11038338844082 165.0505259204656,108.5166117233457 165.38523666420951,110.78218685826869 164.95924117218237,112.38370297139045 163.07268970715813,114.53206375768059 162.2815552217653,117.89128553468618 159.3604432757711,120.00054358286434 157.29132231418043,123.28157985472353 157.29132231418043,125.0392619316408 158.3563110444229,126.01574717342737 160.39500375674106,126.44539959347458 162.34241172054317,127.65623465989484 164.2898196844617,131.95270363785676 168.64105935394764,132.3042299799272 170.0711870774394,133.55409781937487 171.65345604810864,136.36627991800196 175.27441773109604,136.63968499400653 178.07381667930167,135.85852692078333 180.3559353868477,133.5931560988247 180.47764838475268,128.2030616712873 181.29921111965086,124.88302397471853 187.59785875293892,113.08680469248793 187.47614575503394,110.58687938406365 186.13730278005823,108.82910594291752 160.30371900834143,98.04785239105695 152.54451540205628,111.95402882204507 154.4919233659748,113.0086823667225 156.74361382436473,111.75872217107099 158.41716754320078,108.20411715234513 160.09072126226965,107.14944538273267 163.10311795643065,107.26663133242982 164.8983846732881,108.55567351999343 165.26352366653737,111.28998564896756 164.65495867782738,112.7743152580515 162.76840721268672,114.61018565521226 162.40326821943745,117.89128553468618 159.1778737793211,120.1958444447373 157.16960931639187,123.28157985472353 157.23046581528615,124.80490496332641 158.05202855006792,125.89856912550749 160.5167167542968,126.36728102102643 162.1294139744714,127.38282075090683 164.62453042832203,132.06987913468038 168.70191585284192,132.34328843504773 170.16247182583902,133.78844741385547 170.86232156283222,135.89758487659856 171.77516904578079,136.4834535550035 175.5482719760621,136.63968499400653 178.1042449286906,135.85852692078333 180.20379413978662,133.82750566035975 180.8123591284966,125.46891586043057 187.59785875293892,112.42276422469877 187.23271975957323,110.19626402415452 185.92430503387004,108.63379709684523 167.81949661916588,100.86039362393785 160.21243426005822,98.16504217713373 152.69665664911736,111.64153811466531 152.94008264469448,112.50088671492995 154.67449286265764,113.75084357420565 154.3397821187973,116.60228662824375 150.59710743802134,122.93004210604704 150.77967693458777,126.99222898602602 147.76728024042677,130.23412401304813 148.13241923379246,132.030820641201 149.37997746060137,133.39786464674398 152.0272351616295,133.5931560988247 153.42693463573232,134.7258438167919 149.19740796403494,133.436922948109 147.82813673932105,132.06987913468038 147.25,130.54659382571117 148.40627347875852,128.47647477369173 150.44496619096026,127.14846575784031 150.65796393703204,122.5394440862292 154.1876408716198,116.79758987700916 154.3397821187973,114.21957594773266 155.07006010529585,113.0086823667225 157.38260706234723,111.64153811466531 158.41716754320078,108.907229442877 159.2691585274879,108.00880786732887 160.9731404959457,107.30569330466096 163.19440270471387,108.00880786732887 164.59410217881668,109.2978466139175 165.0505259204656,110.82124833666603 162.92054845986422,115.00079481420107 162.1294139744714,118.04752742033452 159.33001502626576,120.15678428328829" stroke="#ff0800" stroke-linecap="round" stroke-linejoin="round" stroke-width="0.5"><title>2023-05-21 21.2km</title></polyline><polyline fill="none" points="51.18070044711931,196.45674603970838 48.39418777945684,195.78485470611486 46.603576751134824,194.6736390209844 45.044336810766254,194.23431748332223 43.75670640839962,193.48488177459512 40.51751117740059,192.29610914031218 38.39493293594569,191.71463866053818 33.82786885247333,191.27530296735495 31.584575260872953,190.2803290685406 30.799925484403502,189.31118828352191 28.616989567875862,187.2694982258181 27.027570789854508,186.4295492633828 22.812593144597486,183.37982382252812 21.555141579767223,181.73861609094456 20.13673621462658,180.58846090642328 19.704172876372468,179.5933712006081 18.49701937410282,177.8874780417318 16.605812220601365,176.11693419740186 15.277943368128035,174.01033025193465 13.869597615499515,172.5240468515767 13.225782414374407,171.2962293712917 12.25,168.49157416017988 14.100968703452963,172.80838118951215 15.348360655712895,173.95863384191762 16.656110283220187,176.10401039418502 18.49701937410282,177.78408955887426 20.257451564830262,180.70476938889624 21.65573770494666,181.82907712352608 22.79247391957324,183.34105547427316 26.957153502269648,186.32617039854813 28.51639344263822,187.07566453182517 31.654992548457813,190.1898763613499 34.05923994042678,191.1848512402139 35.70901639346266,191.28822463536926 37.29843517142581,191.68879544268566 38.36475409840932,191.6629522174917 40.54769001493696,192.2573445561793 47.04619970195927,194.78992966443184 48.444485842075665,195.79777573967294 50.64754098362755,196.30169462976482 52.75,196.52135071656812 50.69783904624637,196.35337846216862 48.39418777945684,195.83653882937506 46.875186289136764,194.73824495216104 40.406855439709034,192.21857995572645 38.46535022358876,191.72756026677962 33.93852459016489,191.22361627702048 31.64493293594569,190.29325087659527 28.45603576756548,187.0885867908146 26.92697466473328,186.36493748653447 22.661698956799228,183.3669010416197 21.726154992589727,181.9583070154331 20.197093889815733,180.71769254453102 19.62369597615907,179.48998463866883 18.346125186304562,177.7065481203099 16.726527570805047,176.23324834454252 15.167287630378269,173.90693740278948 13.990312965761404,172.76960837708612 12.913934426207561,170.54660641508963 12.280178837594576,168.47864928343915 13.15536512673134,170.90849412372336 14.09090909094084,172.78253264968953 15.398658718389925,174.0749507235014 16.62593144562561,176.02646753664158 18.38636363641126,177.61608302589593 19.764530551445205,179.5546012535051 20.176974664675072,180.54969137955777 21.77645305520855,181.90661508053017 22.691877794393804,183.2118275284447 27.228763040271588,186.4295492633828 28.556631892744917,187.04982000838208 31.68517138605239,190.1898763613499 34.11959761555772,191.1590078732188 39.00856929959264,191.79216827054915 43.27384500752669,193.29106119940843 38.78725782415131,191.79216827054915 37.30849478393793,191.7017170524923 35.67883755592629,191.33991128938214 34.200074515654705,191.32698962856375 31.483979135693517,190.17695453878696 28.60692995530553,187.24365375695197 26.947093889757525,186.37785984553193 23.114381520194,183.5865880702404 27.208643815247342,186.48123865215894 28.546572280232795,187.114431303351 31.986959761590697,190.33201628978713 34.02906110289041,191.19777292095387 34.984724292182364,191.19777292095387 37.368852459068876,191.68879544268566 38.43517138599418,191.6629522174917 40.08494783908827,192.08936450267356 46.875186289136764,194.6994813989004 48.45454545458779,195.78485470611486 50.57712369604269,196.21124785309803" stroke="#ff0000" stroke-linecap="round" stroke-linejoin="round" stroke-width="0.5"><title>2023-05-14 21.6km</title></polyline><polyline fill="none" points="94.46100261958782,195.64635175809235 92.040069064009,195.18797118669318 90.59329602279468,194.20925873701344 88.47136222902918,193.55264808491484 87.45862110023154,192.90842155436985 84.1310431054444,191.55800833922694 82.56852822098881,191.22349911290803 81.34359371272149,191.21110985787527 79.77143367461395,190.80226346459676 78.11246725404635,190.75270619698858 75.94230769225396,189.8482811638969 75.23821147886338,188.9810155573432 72.83656823047204,186.76325465247646 71.75631102640182,186.3172177788656 70.46386044292012,185.3136265510766 69.62473207898438,184.9295330541645 67.36776613479014,183.1701156177296 66.4804120028275,181.86911532285012 65.03363896161318,180.70439398606686 63.20105977606727,177.80491436716693 61.09841628954746,175.9462233533486 60.114610621589236,174.28575952313986 59.07293403183576,173.34398999732366 58.07948321022559,171.42324460118107 57.25,169.01915581730282 58.880030959669966,172.91027695860248 59.36228864011355,173.59182505999343 60.191771850397345,174.27336788426328 61.49386758747278,176.30557334305195 63.20105977606727,177.79252322368848 64.44528459152207,179.58922081903438 64.88896165747428,180.59287730506912 66.28750893066172,181.73281894124375 67.42563705641078,183.28162903412885 71.62127887585666,186.23048812437628 73.07769707066473,187.02344178519706 76.00982376746833,189.9226178184108 78.20891879010014,190.7898741502795 81.19891640858259,191.27305611551856 82.56852822098881,191.2854453617765 84.34323648479767,191.8181813033225 90.53542510117404,194.20925873701344 92.12687544646906,195.23752595811675 94.02697070722934,195.6711290183448 96.66009764221963,195.9808441826899 97.75,195.65874038909533 97.72106453916058,195.47291074143868 97.12306501541752,195.5720199356656 97.07483924739063,195.86934684901644 96.47683972370578,195.86934684901644 92.19439152174164,195.23752595811675 90.12068349600304,194.02342603031866 84.77726839721436,191.8801271338525 82.44314122403739,191.19872060113994 81.16998094780138,191.18633134265838 79.89682067156537,190.88898861570487 78.33430578705156,190.9013779160523 75.69153369846754,189.81111281312042 72.90408430574462,187.01105193917465 71.55376280064229,186.3419976644509 67.28095975227188,183.24445791100152 66.21999285538914,181.83194360331981 64.83109073585365,180.67961251360975 64.37776851624949,179.71312964630488 63.10460824001348,177.81730550892098 61.41670635860646,176.31796469581604 60.17248154315166,174.38489257128094 59.03435341746081,173.30681467772956 57.992676827765536,171.23736379005277 57.34645153605379,169.1678642453262" stroke="#4dd2ff" stroke-linecap="round" stroke-linejoin="round" stroke-width="0.5"><title>2023-05-07 13.6km</title></polyline><polyline fill="none" points="102.25,175.8396944559645 118.09297520620748,185.57969155034516 121.55165289249271,196.89515954628587 127.79958677664399,194.74666262534447 137.1714876028709,199.18688460462727 141.41115702455863,196.46546052454505 139.96074380120263,189.16054943820927 129.1384297516197,183.2879359012004 120.65909090870991,174.40733409265522 116.30785123957321,176.8423455125885 114.52272727200761,181.7123509029625 118.98553718999028,186.15262965799775 122.77892562001944,196.75192655972205 127.24173553753644,194.60342933656648 136.6136363632977,199.18688460462727 139.96074380120263,198.1842555257026 142.0805785120465,194.17372934822924 138.51033057831228,187.87144204776268 127.68801652872935,182.71499618364032 119.76652892539278,175.123514526058 114.96900826413184,181.56911578262225 120.32438016543165,187.87144204776268 122.22107437998056,196.60869355208706 129.91942148748785,195.60606193740387 137.28305785078555,199.33011724962853 141.85743801668286,197.18162546074018 142.41528925625607,194.46019602706656 139.6260330574587,188.87408126995433 127.46487603290007,182.85823114297818 119.76652892539278,175.26675055210944 115.86157024791464,178.4179380380083 114.74586776876822,182.85823114297818 119.76652892539278,187.15527057088912 122.89049586746842,197.32485838746652 128.4690082645975,195.60606193740387 136.0557851237245,199.61658247932792 141.18801652872935,198.04102271946613 142.41528925625607,193.8872625892982 139.737603305839,188.58761302137282 129.58471074327826,183.71764047793113 120.32438016543165,174.98027847940102 115.63842975208536,181.28264548094012 120.43595041334629,187.58497351733968 123.1136363632977,196.89515954628587 127.91115702455863,195.60606193740387 137.61776859499514,199.33011724962853 141.96900826413184,196.60869355208706 142.30371900787577,194.03049597889185 138.62190082622692,187.7282077925047 129.1384297516197,183.4311707802117 120.1012396691367,174.98027847940102 116.97727272752672,177.12881706212647 115.08057851251215,182.57176120381337 119.98966942122206,186.7255674431799 122.3326446278952,196.60869355208706 128.3574380162172,195.46282876876649 138.1756198341027,199.33011724962853 140.74173553660512,198.1842555257026 141.96900826413184,193.31432882905938 137.72933884290978,187.44173922168557 129.36157024791464,183.5744056388503 119.43181818211451,175.123514526058 114.8574380162172,182.28529118432198 119.98966942122206,186.43909859051928 123.33677685959265,197.32485838746652 128.4690082645975,195.0331291431794 138.287190082483,199.18688460462727 142.19214875996113,196.46546052454505 142.75,193.6007957495749 139.737603305839,188.1579104977427 130.0309917354025,183.14470100181643 119.54338843002915,174.55057021952234 115.08057851251215,181.28264548094012 120.77066115709022,188.44437886669766 121.99793388415128,196.89515954628587 129.02685950417072,195.0331291431794 137.50619834661484,199.18688460462727 141.63429751992226,196.46546052454505 142.41528925625607,193.74402917921543 140.18388429749757,188.44437886669766 127.13016528915614,181.56911578262225 120.54752066126093,174.40733409265522 114.74586776876822,181.85558600362856 119.76652892539278,185.72292610746808 122.3326446278952,197.61132418061607 128.3574380162172,195.17636237188708 137.1714876028709,199.04365193960257 141.52272727247328,196.17899440939073 142.0805785120465,193.6007957495749 137.95247933873907,187.15527057088912 127.13016528915614,181.56911578262225 120.88223140500486,174.26409794553183 116.53099173586816,177.2720528068021 114.74586776876822,182.71499618364032 119.65495867747813,185.29322237614542 122.77892562001944,197.8977898930898 128.80371900834143,195.7492950859014 138.73347107460722,198.61395382345654 141.299586776644,197.03839251364116 142.30371900787577,192.7413947469322 139.40289256162941,188.014676282648 128.02272727247328,182.57176120381337 110.28305785125121,165.66989229014143 104.70454545412213,176.41263803781476 117.64669421501458,184.43381436984055 122.55578512419015,197.8977898930898 127.01859504077584,195.17636237188708 138.62190082622692,198.75718654843513 142.19214875996113,195.8925282137934 141.74586776830256,190.87935675610788 136.0557851237245,185.57969155034516 125.3450413220562,180.13676346978173 118.53925619833171,171.54260732792318 109.94834710750729,165.66989229014143 104.25826446292922,174.83704241295345 120.43595041334629,186.00939516117796 122.66735537163913,197.18162546074018 127.46487603290007,194.46019602706656 138.9566115704365,198.4707210775232 142.30371900787577,192.7413947469322 140.07231404958293,188.73084715555888 129.47314049582928,183.4311707802117 118.65082644624636,171.2561342085246 110.72933884337544,165.66989229014143 104.25826446292922,175.5532225446077 118.762396694161,184.57704908773303 122.22107437998056,197.03839251364116 130.14256198331714,195.31959558057133 137.61776859499514,199.04365193960257 141.85743801668286,196.32222747709602 141.96900826413184,191.73875932849478 139.0681818178855,187.7282077925047 125.45661156997085,180.27999879175331 118.98553718999028,171.82908036664594 110.05991735588759,165.3834175207885 104.0351239675656,175.4099865584867 118.53925619833171,184.43381436984055 122.77892562001944,197.46809129428584 127.68801652872935,195.17636237188708 139.17975206580013,198.4707210775232 142.41528925625607,193.45756229932886 138.287190082483,187.58497351733968 126.79545454541221,181.85558600362856 118.762396694161,172.11555332504213 109.725206611678,165.8131296450738 104.14669421454892,174.98027847940102 119.87809917377308,184.2905796318082 121.66322314040735,196.17899440939073 127.79958677664399,194.60342933656648 138.39876033039764,198.32748831145 140.85330578498542,197.32485838746652 142.19214875996113,193.31432882905938 137.72933884290978,187.44173922168557 128.24586776830256,182.57176120381337 120.32438016543165,174.69380632648245 116.86570247914642,176.55587388318963 114.96900826413184,181.7123509029625 119.98966942122206,184.2905796318082 122.3326446278952,196.60869355208706 128.13429752085358,194.74666262534447 139.17975206580013,198.4707210775232 142.5268595032394,193.0278618284501 138.9566115704365,187.7282077925047 127.91115702455863,181.9988210836891 109.94834710750729,166.24284158833325 104.25826446292922,174.83704241295345 119.43181818211451,184.00411009497475 122.44421487627551,196.89515954628587 128.58057851251215,194.88989589479752 138.1756198341027,199.04365193960257 141.85743801668286,196.89515954628587 141.63429751992226,191.88199302030262 138.39876033039764,187.58497351733968 128.13429752085358,182.14205614419188 118.98553718999028,171.68584385712165 110.28305785125121,166.09960429405328 105.59710743790492,171.39937077800278 105.26239669462666,175.8396944559645 119.32024793373421,183.71764047793113 122.66735537163913,197.18162546074018 127.57644628128037,195.46282876876649 134.9400826441124,198.61395382345654 140.07231404958293,198.4707210775232 142.5268595032394,195.0331291431794 141.74586776830256,191.5955256165471 135.60950413160026,185.57969155034516 127.46487603290007,182.57176120381337 119.98966942122206,175.26675055210944 116.1962809911929,178.13146685087122 114.52272727200761,182.57176120381337 118.762396694161,184.14734487328678 122.55578512419015,197.61132418061607 128.4690082645975,195.46282876876649 137.72933884290978,199.04365193960257 141.96900826413184,196.75192655972205 141.96900826413184,192.16846034268383 137.61776859499514,187.29850490647368 126.90702479332685,181.85558600362856 110.39462809916586,166.24284158833325 104.4814049587585,175.9829303814331 119.54338843002915,185.00675312126987 122.77892562001944,197.8977898930898 127.35330578451976,195.0331291431794 138.62190082622692,198.90041925373953 142.19214875996113,196.46546052454505 141.96900826413184,192.16846034268383 137.3946280987002,187.29850490647368 127.91115702455863,182.85823114297818 119.09710743790492,172.40202620241325 110.28305785125121,166.959027758101 104.70454545412213,173.97762559144758 119.65495867747813,186.15262965799775" stroke="#4dd2ff" stroke-linecap="round" stroke-linejoin="round" stroke-width="0.5"><title>2023-05-01 14.7km</title></polyline><polyline fill="none" points="147.25,175.76011626725085 163.63461538450792,184.79618387797382 167.32692307699472,197.38729647744913 173.55769230797887,195.46160664432682 183.4807692314498,199.01672358810902 187.51923076901585,195.01721618301235 185.78846153849736,189.9807778665563 172.0576923075132,183.3148666267516 164.90384615352377,174.7231855217833 163.17307692300528,174.87131854787003 158.4423076924868,183.01860292663332 164.32692307699472,186.57376183220185 167.7884615380317,197.97981571801938 172.98076923098415,195.60973675607238 181.40384615398943,199.46111236314755 184.63461538450792,199.01672358810902 187.51923076901585,194.42469527723733 185.55769230797887,189.3882541299099 163.40384615352377,174.57505247520749 158.21153846103698,182.5742072206922 163.40384615352377,185.68497322977055 167.7884615380317,197.97981571801938 172.75,195.31347651104443 182.90384615352377,199.60924191307276 187.4038461544551,195.31347651104443 184.40384615398943,188.64759899035562 174.71153846150264,183.75926202058326 165.01923076901585,173.98252007935662 161.4423076924868,176.20451484585647 158.32692307652906,182.42607527703512 165.4807692305185,188.0550745043438 166.98076923098415,197.6835561391199 173.78846153849736,195.60973675607238 183.25,199.31298279296607 185.90384615398943,197.97981571801938 187.17307692300528,193.98030437901616 182.21153846150264,187.01815585244913 173.90384615398943,183.1667347868206 164.67307692347094,174.13065320940223 159.82692307652906,178.5746374350274 158.55769230704755,183.3148666267516 164.5576923075132,186.27749904803932 167.09615384601057,197.23916661483236 172.98076923098415,195.31347651104443 183.4807692314498,199.16485320101492 187.17307692300528,197.09103673161007 187.51923076901585,194.5728255348513 184.75000000046566,189.24012314353604 170.67307692300528,180.94475469517056 164.4423076924868,174.27878631884232 160.40384615398943,178.13023985514883 159.01923076901585,183.61113024363294 164.32692307699472,185.68497322977055 167.7884615380317,197.53542631829623 174.25,195.75786684721243 182.4423076924868,199.60924191307276 186.25,197.83168593910523 187.51923076901585,193.68404367612675 184.75000000046566,188.64759899035562 171.59615384647623,181.68541524617467 167.32692307699472,175.46385044429917 163.5192307694815,173.83438692858908 158.4423076924868,182.72233914327808 164.4423076924868,186.42563045071438 167.21153846150264,197.83168593910523 174.25,195.75786684721243 183.94230769202113,199.46111236314755 187.51923076901585,196.2022569961846 187.4038461544551,193.09152202063706 181.75,186.27749904803932 171.01923076901585,181.53728317772038 163.63461538450792,174.27878631884232 158.90384615352377,182.1298113267403 166.05769230704755,188.20320565719157 166.75,197.23916661483236 172.63461538497359,195.90599691774696 182.5576923075132,199.75737144297455 186.36538461549208,198.42420493043028 187.75,194.5728255348513 184.17307692347094,188.0550745043438 171.82692307699472,181.98167932091746 163.75,174.57505247520749 159.13461538404226,182.5742072206922 164.5576923075132,187.01815585244913 166.75,197.83168593910523 173.09615384601057,195.31347651104443 183.94230769202113,199.16485320101492 187.75,194.5728255348513 183.36538461549208,187.1662871510489 174.01923076901585,182.87047104549129 163.75,173.98252007935662 159.82692307652906,182.87047104549129 164.7884615380317,185.68497322977055 167.21153846150264,198.2760752135655 173.67307692300528,196.2022569961846 181.17307692300528,199.46111236314755 186.01923076901585,197.53542631829623 187.4038461544551,194.5728255348513 182.78846153849736,186.87002453336027 172.5192307694815,181.98167932091746 165.36538461549208,174.27878631884232 163.40384615352377,174.42691940732766 159.4807692305185,182.72233914327808 165.01923076901585,187.01815585244913 166.17307692300528,197.23916661483236 172.0576923075132,195.31347651104443 184.17307692347094,199.31298279296607 187.75,196.0541269670939 187.75,193.38778289046604 182.21153846150264,185.68497322977055 173.78846153849736,182.5742072206922 165.25,173.98252007935662 163.5192307694815,174.42691940732766 159.13461538404226,183.1667347868206 164.90384615352377,187.75881213624962 166.51923076901585,197.53542631829623 173.44230769202113,195.31347651104443 180.13461538497359,198.72046430082992 185.2115384619683,198.42420493043028 187.28846153849736,196.49851699138526 186.59615384601057,190.27703961008228 172.75,181.8335472936742 154.75,165.24262855702545 149.44230769202113,172.64932097145356 149.09615384601057,175.16758453752846 164.90384615352377,186.87002453336027 167.21153846150264,197.23916661483236 172.86538461549208,195.01721618301235 179.78846153849736,198.2760752135655 185.2115384619683,198.2760752135655 187.4038461544551,195.60973675607238 185.55769230797887,189.3882541299099 163.5192307694815,174.13065320940223 159.82692307652906,180.35222587944008 164.67307692347094,186.57376183220185 167.32692307699472,197.53542631829623 173.21153846150264,194.72095577139407 180.01923076901585,198.57233462564182 184.98076923098415,198.57233462564182 187.28846153849736,195.31347651104443 186.25,189.9807778665563 174.9423076924868,183.61113024363294 167.4423076924868,175.46385044429917 163.63461538450792,174.7231855217833 160.05769230797887,178.5746374350274 159.36538461549208,183.46299844572786 164.90384615352377,188.0550745043438 167.5576923075132,197.97981571801938 173.44230769202113,195.01721618301235 183.0192307694815,199.31298279296607 186.9423076924868,196.49851699138526 185.78846153849736,189.3882541299099 171.94230769202113,181.53728317772038 165.82692307652906,173.83438692858908 163.28846153849736,174.87131854787003 159.82692307652906,181.98167932091746 164.2115384619683,185.24057864770293 166.51923076901585,191.90647771104705 170.32692307699472,190.72143206885085 175.75,183.46299844572786" stroke="#4dd2ff" stroke-linecap="round" stroke-linejoin="round" stroke-width="0.5"><title>2023-04-20 10.0km</title></polyline><polyline fill="none" points="13.382432017213432,252.1349155933858 13.183323091099737,251.87921639676642 12.343332309101243,251.59155342520535 12.25,251.3837959288685 12.405553848540876,251.14407479685542 13.02154708863236,250.8164542808081 13.811760639131535,250.6965926444209 16.823283146426547,250.6965926444209 17.88104931631824,250.4728502466205 25.951182977412827,246.2855085446863 27.506721462588757,245.66217556573974 28.70137501921272,245.5023454951297 29.83380703642615,245.56627757731985 43.354547549562994,247.7479167658421 44.98475188203156,247.92372286979662 45.89318635733798,247.883766984869 47.26828237823793,247.57211011791878 48.25138270089519,247.10861725651193 49.178483638039324,246.365422534549 51.15090643722215,243.96795393774664 52.183783991407836,243.57635778764597 52.72511138423579,243.60832492150075 52.75,243.70422621510443 52.49489168843138,243.74418503967172 51.014019050548086,243.13680787306657 50.71535566140665,242.8650844066142 49.89403134121676,244.59929714857572 48.81137655553175,246.1416630796266 47.492279920115834,247.15656496925294 46.68339990780805,247.50818029289076 45.79985404823674,247.73193436580186 44.6549777231412,247.80385513067085 43.31099247196107,247.68398713864735 31.62578737133299,245.79003929845567 29.441811338125262,245.47837094573697 28.365378706424963,245.47037942704264 27.413389153487515,245.63820108379878 26.268512828391977,246.02179158055515 17.81260562298121,250.36097871731909 16.673951451841276,250.53677673589118 13.444653556594858,250.52878592865818 12.374443078850163,250.88837114127455" stroke="#4dd2ff" stroke-linecap="round" stroke-linejoin="round" stroke-width="0.5"><title>2023-03-17 12.5km</title></polyline><polyline fill="none" points="58.27137475012569,252.09920479062566 57.25,251.5153499705957 57.362102106708335,251.2834059812958 57.81051053359988,251.02746668841792 58.919075811165385,250.82751331441978 61.80881900663371,250.82751331441978 62.823965861898614,250.60356470091574 70.93268491467461,246.40436489950662 72.47097493463662,245.78845618663763 73.89093495308771,245.62047992530643 74.78152391203912,245.676472067571 86.67057511917665,247.62816371428926 88.67595725052524,247.91611254910094 90.79344148855307,248.00409662447782 92.36909887744696,247.63616231273772 93.41538520681206,247.09225505639915 94.31842995542684,246.29238199336032 96.26153313854593,244.01268203357904 97.30781946794013,243.596726918262 97.73131631553406,243.66871936749158 97.75,243.7887065803552 97.23931262496626,243.7887065803552 95.87540365985478,243.13277339208798 95.75084576351219,243.0447817790009 95.75707365831477,242.90079520937797 94.7606104874867,244.93257196384002 93.60844994618674,246.40436489950662 92.47497308932361,247.22023370240277 90.99273412273033,247.74014398999498 89.7969783176959,247.85212404515914 88.45798093188205,247.73214540617482 75.342034445639,245.6524754419188 74.140050745802,245.5244932674941 73.21209441794781,245.57248661667109 72.10975703521399,245.7964550438337 71.10706596955424,246.2043952695385 62.80528217746178,250.45959726941146 61.77145163770183,250.6835464498181 58.234007381193805,250.67554828000357 57.343418422242394,251.01147044435857" stroke="#4dd2ff" stroke-linecap="round" stroke-linejoin="round" stroke-width="0.5"><title>2023-03-11 12.5km</title></polyline><polyline fill="none" points="108.83536585234106,239.46388663141988 109.4939024373889,251.30662027560174 125.9573170710355,244.11639469955117 122.66463414393365,236.08023987687193 109.4939024373889,235.65728376456536 107.51829268038273,250.03775818785653 125.9573170710355,244.11639469955117 122.66463414393365,236.92615192383528 107.51829268038273,236.92615192383528 104.55487804673612,243.69343971763737 109.16463414393365,249.6148040392436 120.35975609719753,247.92298685270362 123.65243902243674,239.46388663141988 105.5426829252392,237.34910785709508 108.17682926729321,250.88366630556993 122.00609756074846,248.34594123833813 125.29878048598766,240.73275318206288 106.85975609719753,236.50319593027234 103.89634146168828,242.00161919696257 109.4939024373889,250.46071227709763 122.00609756074846,247.92298685270362 125.29878048598766,239.88684220891446 118.38414634019136,234.81137136253528 106.53048780374229,236.50319593027234 111.14024390093982,250.88366630556993 125.9573170710355,242.00161919696257 121.01829268224537,235.23432759335265 107.84756097383797,235.65728376456536 109.4939024373889,250.46071227709763 117.39634146355093,250.46071227709763 125.6280487794429,242.00161919696257 109.16463414393365,234.81137136253528 103.56707317009568,237.34910785709508 106.53048780374229,246.23116871295497 124.96951219253242,243.69343971763737 123.65243902243674,237.77206373028457 110.15243902243674,234.38841507257894 103.89634146168828,247.92298685270362 122.9939024373889,247.50003240676597 126.28658536449075,242.00161919696257 110.81097560748458,234.81137136253528 102.9085365831852,242.847529577557 110.48170731589198,249.6148040392436 122.33536585047841,246.65412333700806 123.65243902243674,237.34910785709508 105.87195121869445,236.50319593027234 102.5792682915926,242.42457441682927 108.50609755888581,249.19184983242303 122.9939024373889,246.23116871295497 125.29878048598766,240.30979772517458 110.15243902243674,234.81137136253528 103.56707317009568,241.15570857957937 105.87195121869445,250.88366630556993 124.96951219253242,246.23116871295497 122.66463414393365,236.08023987687193 112.4573170710355,234.81137136253528 104.22560975514352,240.30979772517458 105.21341463178396,247.50003240676597 117.06707317009568,248.76889556529932 124.96951219253242,243.27048467705026 123.32317073084414,236.50319593027234 109.4939024373889,234.81137136253528 102.5792682915926,242.847529577557 105.21341463178396,248.76889556529932 117.06707317009568,249.6148040392436 126.61585365794599,240.73275318206288 110.48170731589198,235.65728376456536 103.89634146168828,242.00161919696257 108.17682926729321,250.03775818785653 124.31097560748458,244.96230448270217 124.64024390093982,238.6179752999451 110.48170731589198,235.23432759335265 103.23780487664044,244.53934962069616 107.84756097383797,249.6148040392436 121.01829268224537,247.92298685270362 125.9573170710355,240.73275318206288 108.83536585234106,236.08023987687193 103.56707317009568,239.46388663141988 107.18902438879013,249.6148040392436 125.9573170710355,242.42457441682927 121.67682926729321,236.08023987687193 108.83536585234106,236.08023987687193 103.89634146168828,240.30979772517458 106.85975609719753,249.19184983242303 119.0426829252392,248.76889556529932 125.9573170710355,239.88684220891446 107.51829268038273,236.08023987687193 103.56707317009568,240.30979772517458 108.83536585234106,249.19184983242303 124.31097560748458,247.077077902155 126.94512194953859,241.15570857957937 110.15243902243674,234.81137136253528 104.55487804673612,238.1950195445679 105.5426829252392,248.76889556529932 125.29878048598766,243.69343971763737 120.03048780374229,235.23432759335265 106.53048780374229,236.08023987687193 107.84756097383797,249.6148040392436 122.00609756074846,246.65412333700806 125.9573170710355,239.46388663141988 105.5426829252392,237.34910785709508 109.16463414393365,250.03775818785653 125.6280487794429,242.00161919696257 120.03048780374229,235.23432759335265 105.5426829252392,237.34910785709508 104.22560975514352,244.96230448270217 112.12804877758026,250.46071227709763 126.61585365794599,241.15570857957937 119.37195121869445,234.81137136253528 104.88414634019136,236.92615192383528 106.20121951028705,249.6148040392436 117.39634146355093,250.46071227709763 125.9573170710355,241.57866391842254 108.50609755888581,235.23432759335265 103.56707317009568,243.69343971763737 107.18902438879013,249.6148040392436 124.31097560748458,246.65412333700806 126.28658536449075,241.57866391842254 109.4939024373889,236.08023987687193 104.88414634019136,239.04093099501915 107.84756097383797,249.6148040392436 120.68902438879013,250.03775818785653 126.28658536449075,244.11639469955117 124.96951219253242,238.1950195445679 112.78658536449075,234.81137136253528 106.20121951028705,237.34910785709508 105.87195121869445,247.92298685270362 124.96951219253242,244.11639469955117 119.70121951028705,235.23432759335265 105.87195121869445,236.92615192383528 105.87195121869445,248.34594123833813 125.29878048598766,245.38525928673334 122.66463414393365,236.08023987687193 109.4939024373889,234.81137136253528 104.55487804673612,238.6179752999451 107.18902438879013,249.19184983242303 124.31097560748458,248.34594123833813 121.01829268224537,235.23432759335265 105.87195121869445,236.50319593027234 103.56707317009568,244.11639469955117 119.0426829252392,249.19184983242303 125.29878048598766,244.11639469955117 120.35975609719753,234.81137136253528 103.56707317009568,241.15570857957937 108.83536585234106,250.46071227709763 121.01829268224537,249.19184983242303 125.9573170710355,240.73275318206288 116.4085365831852,235.23432759335265 106.53048780374229,236.50319593027234 103.56707317009568,246.23116871295497 123.32317073084414,246.23116871295497 124.96951219253242,238.1950195445679 118.71341463178396,234.38841507257894 104.88414634019136,236.92615192383528 103.89634146168828,245.38525928673334 111.46951219439507,249.19184983242303 124.64024390093982,244.11639469955117 125.29878048598766,238.6179752999451 116.73780487664044,234.81137136253528 105.87195121869445,237.34910785709508 105.5426829252392,247.50003240676597 123.98170731589198,246.23116871295497 123.98170731589198,237.77206373028457 109.16463414393365,234.81137136253528 103.56707317009568,244.96230448270217 120.68902438879013,248.34594123833813 124.96951219253242,244.53934962069616 122.33536585047841,235.23432759335265 109.16463414393365,234.38841507257894 102.5792682915926,243.27048467705026 108.50609755888581,250.03775818785653 124.31097560748458,247.077077902155 124.31097560748458,236.92615192383528 118.38414634019136,234.38841507257894 105.21341463178396,236.50319593027234 104.55487804673612,245.80821402953006 121.34756097383797,248.34594123833813 125.6280487794429,240.73275318206288 120.68902438879013,235.23432759335265 107.18902438879013,234.81137136253528 103.89634146168828,244.11639469955117 120.68902438879013,248.76889556529932 125.9573170710355,240.73275318206288 117.72560975328088,234.81137136253528 108.17682926729321,235.23432759335265 103.89634146168828,244.11639469955117 107.51829268038273,248.76889556529932 123.32317073084414,247.92298685270362 126.94512194953859,242.847529577557 121.34756097383797,234.38841507257894 103.23780487664044,240.73275318206288 108.17682926729321,249.6148040392436 121.67682926729321,248.34594123833813 125.6280487794429,239.04093099501915 120.68902438879013,234.38841507257894 106.20121951028705,236.50319593027234 103.23780487664044,241.57866391842254 105.5426829252392,247.50003240676597 120.03048780374229,248.76889556529932 125.29878048598766,243.27048467705026 120.68902438879013,235.65728376456536 106.85975609719753,236.08023987687193 102.9085365831852,243.69343971763737 106.53048780374229,249.19184983242303 120.68902438879013,248.76889556529932 124.96951219253242,244.96230448270217 119.70121951028705,234.81137136253528 107.51829268038273,235.65728376456536 102.25,243.69343971763737 118.71341463178396,249.19184983242303 124.64024390093982,245.80821402953006 122.9939024373889,236.08023987687193 110.48170731589198,234.38841507257894 102.25,239.88684220891446 106.20121951028705,247.50003240676597 119.37195121869445,247.92298685270362 125.6280487794429,239.04093099501915 121.67682926729321,234.81137136253528 102.9085365831852,237.77206373028457 105.5426829252392,247.50003240676597 119.0426829252392,248.34594123833813 125.6280487794429,243.27048467705026 122.66463414393365,235.23432759335265 104.22560975514352,239.46388663141988 107.51829268038273,247.92298685270362 118.38414634019136,248.34594123833813 124.64024390093982,246.23116871295497 122.9939024373889,236.08023987687193 107.84756097383797,234.81137136253528 102.25,240.73275318206288 107.51829268038273,248.76889556529932 120.35975609719753,248.76889556529932 125.6280487794429,242.00161919696257 118.38414634019136,235.65728376456536 109.4939024373889,235.23432759335265 102.9085365831852,242.00161919696257 105.87195121869445,247.50003240676597 118.71341463178396,247.50003240676597 124.96951219253242,244.96230448270217 122.66463414393365,235.65728376456536 106.85975609719753,235.65728376456536 103.23780487664044,240.30979772517458 107.51829268038273,248.34594123833813 121.34756097383797,247.50003240676597 125.6280487794429,242.847529577557 121.67682926729321,234.81137136253528 107.51829268038273,234.38841507257894 103.23780487664044,240.30979772517458 108.50609755888581,248.34594123833813 121.34756097383797,247.50003240676597 126.28658536449075,242.00161919696257 120.68902438879013,235.23432759335265 103.23780487664044,239.88684220891446 108.50609755888581,247.92298685270362 122.33536585047841,246.65412333700806 125.9573170710355,242.00161919696257 120.35975609719753,233.96545872162096 105.5426829252392,235.65728376456536 103.56707317009568,245.80821402953006 124.31097560748458,246.23116871295497 123.98170731589198,236.92615192383528 118.05487804673612,234.38841507257894 105.87195121869445,236.08023987687193 102.9085365831852,242.42457441682927 110.15243902243674,249.6148040392436 124.96951219253242,246.65412333700806 122.9939024373889,236.92615192383528 110.15243902243674,235.23432759335265 104.55487804673612,236.92615192383528 103.89634146168828,246.65412333700806 123.98170731589198,246.23116871295497 125.29878048598766,240.30979772517458 115.09146341308951,235.23432759335265 106.53048780374229,236.08023987687193 102.5792682915926,244.53934962069616 121.34756097383797,247.92298685270362 125.29878048598766,239.46388663141988 116.4085365831852,234.38841507257894 106.85975609719753,235.65728376456536 102.9085365831852,245.38525928673334 112.4573170710355,249.6148040392436 124.64024390093982,245.80821402953006 122.33536585047841,236.08023987687193 116.0792682915926,234.81137136253528 104.22560975514352,238.1950195445679 103.89634146168828,246.23116871295497 122.66463414393365,248.34594123833813 124.96951219253242,238.1950195445679 120.35975609719753,234.38841507257894 104.55487804673612,237.34910785709508 103.56707317009568,244.53934962069616 122.9939024373889,246.23116871295497 124.31097560748458,236.92615192383528 119.37195121869445,233.542502311524 106.53048780374229,235.23432759335265 103.23780487664044,244.11639469955117 120.68902438879013,248.76889556529932 125.6280487794429,239.88684220891446 122.00609756074846,235.23432759335265 105.5426829252392,236.08023987687193 102.25,243.27048467705026 110.15243902243674,249.19184983242303 122.66463414393365,247.92298685270362 126.28658536449075,240.30979772517458 118.05487804673612,233.96545872162096 104.88414634019136,236.92615192383528 103.56707317009568,244.11639469955117 122.33536585047841,248.34594123833813 125.9573170710355,239.88684220891446 121.67682926729321,235.23432759335265 108.83536585234106,235.23432759335265 102.9085365831852,243.27048467705026 121.01829268224537,248.76889556529932 125.6280487794429,244.53934962069616 120.35975609719753,235.65728376456536 102.9085365831852,242.42457441682927 109.82317073084414,249.6148040392436 122.33536585047841,248.34594123833813 125.9573170710355,243.27048467705026 121.01829268224537,235.23432759335265 107.51829268038273,235.65728376456536 103.23780487664044,243.69343971763737 108.50609755888581,249.19184983242303 121.01829268224537,248.34594123833813 125.6280487794429,240.30979772517458 120.68902438879013,235.65728376456536 105.87195121869445,236.08023987687193 102.25,243.27048467705026 121.01829268224537,247.92298685270362 125.29878048598766,244.96230448270217 121.01829268224537,235.23432759335265 102.9085365831852,239.04093099501915 105.87195121869445,247.92298685270362 120.68902438879013,248.34594123833813 124.96951219253242,244.53934962069616 120.68902438879013,235.23432759335265 106.53048780374229,235.23432759335265 103.56707317009568,244.96230448270217 123.65243902243674,246.23116871295497 126.61585365794599,241.57866391842254 118.71341463178396,234.38841507257894 102.9085365831852,241.15570857957937 104.88414634019136,246.65412333700806 117.06707317009568,247.92298685270362 124.31097560748458,244.53934962069616 122.00609756074846,235.65728376456536 103.56707317009568,237.77206373028457 106.53048780374229,247.50003240676597 119.37195121869445,248.34594123833813 126.28658536449075,240.73275318206288 118.71341463178396,233.96545872162096 104.88414634019136,236.50319593027234 103.23780487664044,243.69343971763737 111.46951219439507,250.03775818785653 124.64024390093982,246.23116871295497 118.71341463178396,234.81137136253528 109.4939024373889,234.81137136253528 103.23780487664044,243.27048467705026 121.01829268224537,248.34594123833813 125.29878048598766,240.73275318206288 121.67682926729321,235.65728376456536 103.56707317009568,239.46388663141988 108.83536585234106,248.76889556529932 122.33536585047841,248.34594123833813 124.64024390093982,237.77206373028457 119.37195121869445,234.38841507257894 105.87195121869445,235.65728376456536 103.89634146168828,245.80821402953006 121.67682926729321,248.34594123833813 125.29878048598766,242.847529577557 120.68902438879013,235.23432759335265 107.18902438879013,235.23432759335265 102.5792682915926,242.847529577557 108.83536585234106,249.19184983242303 123.32317073084414,247.077077902155 120.03048780374229,234.81137136253528 113.77439024113119,234.81137136253528 117.39634146355093,242.00161919696257 130.23780487664044,250.03775818785653 133.20121951028705,260.18863988737576 142.75,261.4574976887088" stroke="#4dd2ff" stroke-linecap="round" stroke-linejoin="round" stroke-width="0.5"><title>2021-06-01 11.4km</title></polyline><polyline fill="none" points="183.69999999925494,251.40178802469745 170.03125,235.79473054641858 149.27499999850988,244.89885381236672 149.27499999850988,255.95383652532473 177.11875000037253,252.05208094185218 171.55000000074506,233.8438446559012 158.8937499988824,235.79473054641858 147.25,252.7023737677373 158.8937499988824,263.757337811403 180.15625,254.65325169684365 180.15625,237.74561561411247 170.03125,233.8438446559012 151.30000000074506,252.7023737677373 177.625,252.05208094185218 183.19374999962747,244.24855988891795 173.06874999962747,231.24266218859702 151.80625000037253,246.84973503742367 158.38749999925494,259.20529699744657 177.625,255.30354415765032 183.69999999925494,246.1994413868524 173.5750000011176,233.19354917528108 154.84375,240.34679442085326 151.80625000037253,255.30354415765032 179.14375000074506,250.75149501347914 183.19374999962747,242.29767756722867 171.04374999925494,231.24266218859702 151.30000000074506,241.64738327637315 151.80625000037253,251.40178802469745 180.66250000149012,255.30354415765032 185.72499999962747,239.0462052016519 178.63749999925494,234.49414004571736 155.35000000149012,243.59826587419957 162.4375,261.15617218147963 183.19374999962747,252.7023737677373 185.21875,240.34679442085326 158.8937499988824,234.49414004571736 149.27499999850988,243.59826587419957 175.59999999962747,250.75149501347914 184.2062499988824,247.50002859719098 179.65000000037253,232.54325360432267 156.36250000074506,233.19354917528108 150.7937500011176,246.84973503742367 179.14375000074506,251.40178802469745 185.21875,243.59826587419957 177.625,232.54325360432267 150.7937500011176,241.64738327637315 157.88124999962747,256.6041288031265 180.15625,252.05208094185218 184.71250000037253,236.44502565916628 177.625,231.89295794069767 154.33750000037253,235.79473054641858 150.7937500011176,244.89885381236672 161.42500000074506,254.00295914616436 183.19374999962747,248.15032206242904 183.19374999962747,235.14443534146994 173.5750000011176,231.89295794069767 155.35000000149012,235.79473054641858 153.8312499988824,252.7023737677373 181.67500000074506,252.7023737677373 186.73750000074506,242.9479717677459 175.59999999962747,231.89295794069767 152.81874999962747,237.09532068204135 154.84375,254.00295914616436 183.69999999925494,247.50002859719098 185.72499999962747,239.0462052016519 172.05625000037253,232.54325360432267 157.88124999962747,233.8438446559012 151.30000000074506,248.15032206242904 161.93125000223517,255.95383652532473 183.69999999925494,247.50002859719098 173.5750000011176,231.89295794069767 154.33750000037253,236.44502565916628 151.30000000074506,246.84973503742367 161.93125000223517,255.95383652532473 178.13125000149012,252.7023737677373 185.72499999962747,246.84973503742367 180.66250000149012,233.8438446559012 151.80625000037253,241.64738327637315 155.8562500011176,255.30354415765032 179.65000000037253,250.75149501347914 185.72499999962747,244.89885381236672 178.13125000149012,231.89295794069767 157.375,233.8438446559012 151.80625000037253,242.9479717677459 161.42500000074506,256.6041288031265 181.16874999925494,252.05208094185218 186.2312500011176,245.54914764640853 177.11875000037253,233.8438446559012 154.33750000037253,235.79473054641858 151.30000000074506,242.9479717677459 155.35000000149012,254.65325169684365 177.11875000037253,255.30354415765032 184.71250000037253,251.40178802469745 181.67500000074506,235.79473054641858 160.91874999925494,233.8438446559012 152.3125,241.64738327637315 155.8562500011176,254.65325169684365 177.625,255.30354415765032 186.73750000074506,242.29767756722867 181.16874999925494,235.79473054641858 159.40000000037253,234.49414004571736 151.80625000037253,243.59826587419957 154.84375,254.65325169684365 180.66250000149012,252.05208094185218 184.2062499988824,237.09532068204135 176.1062500011176,233.8438446559012 152.3125,238.3959104544483 151.80625000037253,247.50002859719098 157.375,257.25442098872736 177.11875000037253,255.30354415765032 185.21875,250.10120191331953 180.15625,235.79473054641858 151.80625000037253,241.64738327637315 158.38749999925494,257.25442098872736 178.13125000149012,254.65325169684365 185.72499999962747,248.80061543732882 178.13125000149012,233.19354917528108 154.84375,236.44502565916628 152.3125,245.54914764640853 162.4375,257.9047130821273 183.19374999962747,252.7023737677373 179.14375000074506,232.54325360432267 154.84375,236.44502565916628 152.81874999962747,247.50002859719098 156.36250000074506,255.95383652532473 177.11875000037253,256.6041288031265 186.2312500011176,241.64738327637315 180.15625,234.49414004571736 153.3250000011176,238.3959104544483 158.8937499988824,258.55500508565456 178.13125000149012,257.9047130821273 185.21875,252.7023737677373 182.18125000223517,237.74561561411247 152.3125,240.99708889517933 159.40000000037253,259.855588816572 176.61250000074506,257.9047130821273 184.71250000037253,252.7023737677373 183.19374999962747,238.3959104544483 159.90625,234.49414004571736 151.80625000037253,244.24855988891795 155.35000000149012,255.95383652532473 180.66250000149012,254.65325169684365 186.73750000074506,240.99708889517933 178.63749999925494,233.8438446559012 155.35000000149012,235.79473054641858 153.3250000011176,243.59826587419957 160.41250000149012,259.855588816572 178.13125000149012,257.9047130821273 184.2062499988824,239.69649985712022 153.3250000011176,240.34679442085326 155.35000000149012,254.00295914616436 166.99375000037253,258.55500508565456 184.71250000037253,252.05208094185218 182.18125000223517,236.44502565916628 150.28750000149012,240.99708889517933 158.8937499988824,259.20529699744657 170.03125,258.55500508565456 181.67500000074506,255.30354415765032 185.21875,239.0462052016519 154.33750000037253,239.69649985712022 155.35000000149012,255.95383652532473 173.5750000011176,259.20529699744657 186.2312500011176,250.75149501347914 179.65000000037253,237.09532068204135 156.36250000074506,236.44502565916628 150.28750000149012,244.24855988891795 162.4375,255.95383652532473 178.63749999925494,254.65325169684365 185.21875,239.0462052016519 178.63749999925494,233.19354917528108 151.80625000037253,240.99708889517933 155.8562500011176,253.35266650188714 170.53750000149012,258.55500508565456 186.2312500011176,248.15032206242904 183.69999999925494,238.3959104544483 153.8312499988824,239.0462052016519 155.8562500011176,256.6041288031265 175.09375,259.20529699744657 185.72499999962747,244.89885381236672 180.15625,237.74561561411247 163.9562499988824,235.79473054641858 151.30000000074506,245.54914764640853 161.42500000074506,258.55500508565456 177.625,257.9047130821273 186.73750000074506,244.24855988891795 180.66250000149012,235.79473054641858 154.84375,238.3959104544483 156.36250000074506,254.65325169684365 169.52500000037253,257.9047130821273 184.2062499988824,252.05208094185218 181.67500000074506,237.74561561411247 152.81874999962747,239.69649985712022 157.88124999962747,257.9047130821273 180.15625,257.9047130821273 186.73750000074506,245.54914764640853 172.5625,234.49414004571736 158.8937499988824,235.14443534146994 152.81874999962747,249.45090872235596 157.375,257.9047130821273 179.65000000037253,257.25442098872736 181.16874999925494,237.09532068204135 160.41250000149012,234.49414004571736 151.30000000074506,248.80061543732882 163.44999999925494,257.9047130821273 180.66250000149012,255.95383652532473 179.65000000037253,235.79473054641858 158.8937499988824,235.14443534146994 152.3125,242.9479717677459 156.86875000037253,257.25442098872736 176.61250000074506,257.9047130821273 185.21875,243.59826587419957 179.65000000037253,237.09532068204135 158.8937499988824,234.49414004571736 150.28750000149012,246.84973503742367 159.90625,257.25442098872736 181.67500000074506,254.65325169684365 183.69999999925494,237.74561561411247 175.09375,234.49414004571736 161.42500000074506,233.8438446559012 151.80625000037253,249.45090872235596 177.625,255.95383652532473 186.2312500011176,242.29767756722867 176.1062500011176,233.19354917528108 154.33750000037253,237.74561561411247 153.8312499988824,252.7023737677373 181.67500000074506,255.30354415765032 186.2312500011176,247.50002859719098 176.1062500011176,234.49414004571736 150.7937500011176,244.89885381236672 157.88124999962747,255.95383652532473 180.15625,255.30354415765032 185.72499999962747,240.34679442085326 178.13125000149012,236.44502565916628 151.80625000037253,243.59826587419957 158.38749999925494,256.6041288031265 179.14375000074506,254.65325169684365 185.72499999962747,248.15032206242904 181.16874999925494,235.14443534146994 153.3250000011176,237.74561561411247 149.78125,247.50002859719098 158.38749999925494,257.25442098872736 178.63749999925494,254.00295914616436 184.71250000037253,239.0462052016519 177.11875000037253,234.49414004571736 155.35000000149012,235.14443534146994 150.7937500011176,243.59826587419957 159.40000000037253,256.6041288031265 180.66250000149012,254.00295914616436 185.21875,239.69649985712022 178.13125000149012,236.44502565916628 158.8937499988824,235.14443534146994 150.7937500011176,245.54914764640853 159.40000000037253,257.25442098872736 179.65000000037253,255.30354415765032 186.2312500011176,248.80061543732882 178.13125000149012,233.8438446559012 155.8562500011176,235.14443534146994 152.3125,242.9479717677459 161.42500000074506,256.6041288031265 183.69999999925494,254.00295914616436 187.75,246.1994413868524 178.63749999925494,235.79473054641858 155.35000000149012,237.09532068204135 151.80625000037253,246.1994413868524 162.4375,257.9047130821273 182.18125000223517,254.00295914616436 187.24375000037253,245.54914764640853 176.1062500011176,233.8438446559012 154.84375,237.09532068204135 151.30000000074506,248.80061543732882 160.41250000149012,257.9047130821273 181.67500000074506,254.00295914616436 180.66250000149012,235.79473054641858 160.91874999925494,234.49414004571736 151.30000000074506,247.50002859719098 157.88124999962747,256.6041288031265 183.69999999925494,252.05208094185218 183.19374999962747,237.74561561411247 173.5750000011176,233.8438446559012 159.40000000037253,234.49414004571736 152.3125,249.45090872235596 167.5,257.25442098872736 183.19374999962747,253.35266650188714 179.14375000074506,234.49414004571736 152.81874999962747,240.34679442085326 163.44999999925494,257.9047130821273 181.16874999925494,255.30354415765032 187.75,248.80061543732882 180.66250000149012,235.14443534146994 158.38749999925494,235.14443534146994 152.81874999962747,248.15032206242904 160.41250000149012,256.6041288031265 182.18125000223517,255.30354415765032 187.24375000037253,247.50002859719098 176.1062500011176,235.14443534146994 154.84375,237.74561561411247 151.80625000037253,246.1994413868524 162.4375,257.9047130821273 183.69999999925494,254.00295914616436 187.24375000037253,246.1994413868524 176.1062500011176,234.49414004571736 154.33750000037253,237.74561561411247 155.35000000149012,254.00295914616436 185.72499999962747,252.05208094185218 182.6875,237.09532068204135 173.06874999962747,233.8438446559012 155.8562500011176,235.79473054641858 151.30000000074506,248.80061543732882 158.8937499988824,256.6041288031265 184.2062499988824,252.7023737677373 186.73750000074506,244.24855988891795 173.5750000011176,234.49414004571736 153.3250000011176,239.0462052016519 154.33750000037253,254.00295914616436 183.19374999962747,254.00295914616436 182.18125000223517,237.09532068204135 171.55000000074506,235.14443534146994 157.375,235.79473054641858 150.28750000149012,248.15032206242904 178.13125000149012,256.6041288031265 185.21875,242.9479717677459 179.65000000037253,237.09532068204135 156.36250000074506,236.44502565916628 150.7937500011176,250.10120191331953 179.14375000074506,256.6041288031265 186.73750000074506,243.59826587419957 171.55000000074506,234.49414004571736 159.40000000037253,235.14443534146994 151.80625000037253,250.10120191331953 165.9812500011176,258.55500508565456 183.69999999925494,254.65325169684365 182.18125000223517,237.09532068204135 173.06874999962747,234.49414004571736 153.8312499988824,240.34679442085326 151.80625000037253,250.75149501347914 163.44999999925494,257.25442098872736 185.72499999962747,250.10120191331953 178.13125000149012,235.14443534146994 166.99375000037253,234.49414004571736 155.35000000149012,237.09532068204135 152.3125,252.7023737677373 182.18125000223517,254.65325169684365 182.6875,237.74561561411247 173.06874999962747,233.8438446559012 152.81874999962747,238.3959104544483 154.84375,255.30354415765032 184.71250000037253,252.05208094185218 182.18125000223517,237.09532068204135 173.06874999962747,234.49414004571736 157.88124999962747,236.44502565916628 151.30000000074506,252.05208094185218 182.18125000223517,255.30354415765032 184.71250000037253,240.34679442085326 165.9812500011176,234.49414004571736 155.35000000149012,237.09532068204135 153.8312499988824,252.7023737677373 185.21875,251.40178802469745" stroke="#4dd2ff" stroke-linecap="round" stroke-linejoin="round" stroke-width="0.5"><title>2020-11-29 10.4km</title></polyline></svg>