<?xml version="1.0" encoding="utf-8" ?>
<svg baseProfile="full" height="300mm" version="1.1" viewBox="0,0,200,300" width="200mm" xmlns="http://www.w3.org/2000/svg" xmlns:ev="http://www.w3.org/2001/xml-events" xmlns:xlink="http://www.w3.org/1999/xlink"><defs /><rect fill="#222222" height="300" width="200" x="0" y="0" /><text fill="#FFFFFF" style="font-size:12px; font-family:Arial; font-weight:bold;" x="10" y="20">Over 10km Runs</text><text fill="#FFFFFF" style="font-size:4px; font-family:Arial" x="10" y="280">ATHLETE</text><text fill="#FFFFFF" style="font-size:9px; font-family:Arial" x="10" y="290">Abuqi</text><text fill="#FFFFFF" style="font-size:4px; font-family:Arial" x="120" y="280">STATISTICS</text><text fill="#FFFFFF" style="font-size:3px; font-family:Arial" x="120" y="285">Number: 13</text><text fill="#FFFFFF" style="font-size:3px; font-family:Arial" x="120" y="290">Weekly: 1.1</text><text fill="#FFFFFF" style="font-size:3px; font-family:Arial" x="141" y="285">Total: 183.1 km</text><text fill="#FFFFFF" style="font-size:3px; font-family:Arial" x="141" y="290">Avg: 14.1 km</text><text fill="#FFFFFF" style="font-size:3px; font-family:Arial" x="167" y="285">Min: 10.0 km</text><text fill="#FFFFFF" style="font-size:3px; font-family:Arial" x="167" y="290">Max: 21.6 km</text><polyline fill="none" points="15.700257510645315,34.19809522017022 12.399999999906868,42.57621019848739 14.179914162959903,44.004277313448256 15.774420600617304,43.9566751732782 18.14763948484324,42.481005510053365 19.334248926723376,39.19642738069524 21.892875536344945,37.29230953779188 25.971845493419096,38.529987352958415 27.343862660927698,41.29094464876107 26.97304721013643,43.00463096486055 24.154849785380065,45.86075556508149 23.52446351922117,50.04969476372935 20.224206008482724,52.810558194993064 17.55433476367034,56.76140983897494 17.77682403405197,59.046218682517065 19.44549356191419,60.42661655988195 23.59862660919316,61.759409174876055 24.970643776701763,63.56819076757529 25.601030042627826,66.42414204639499 27.010128755355254,67.94730621989584 30.60703862644732,67.56651581835467 32.535278969677165,68.6612870694662 34.648927038535476,72.32636508296127 35.94678111560643,73.18313085046248 42.43605150189251,72.23116875288542 45.62506437767297,69.94644880783744 47.034163089701906,58.903418581117876 55.0066952786874,43.52825561063946 54.339227467542514,40.57690612561419 52.93012875528075,39.00601607793942 54.30214592255652,39.38683857637807 55.52583690965548,41.052931974845706 55.5999999998603,44.57550247426843 47.849957081256434,59.37941868507187 46.8487553645391,64.09178363729734 46.77459227433428,69.70845626093796 44.40137339034118,72.18357057787944 40.693218883825466,73.80190477985889 35.90969957062043,73.61151292195427 34.01854077237658,72.04077601246536 32.1273819738999,68.6612870694662 26.194334763800725,67.80450986948563 23.858197424793616,62.330604405055055 22.115364806726575,60.99781403684756 19.07467811135575,60.902614524180535 17.55433476367034,59.23661872415687 17.368927038507536,56.28540605746093 20.298369098454714,51.71573573278147 23.079484978457913,50.00209347292548 24.19193133036606,45.05152270605322 26.639313304331154,42.95702868429362 27.158454935299233,41.10053452296415 26.30557939875871,39.29163299186621 22.894077253062278,37.81594301131554 21.410815450595692,38.00635498279007 20.001716738101095,39.19642738069524 18.29596566502005,43.38544896928943 15.73733905563131,45.05152270605322 15.88566523580812,44.480298347683856 18.629699570592493,42.29059605303337 19.482575107133016,39.101221742719645 21.818712446140125,37.33991261420306 23.339055793825537,37.33991261420306 26.7505579397548,39.38683857637807 27.04721030034125,42.9094263970328 24.377339055761695,45.76555179973366 23.45030042901635,50.525707305176184 20.26128755346872,52.66775546580902 17.888068669242784,56.523408031847794 17.739742489065975,58.617818197846645 18.666781115578488,59.950617927039275 22.560343347489834,61.09301352270995 23.89527896977961,62.14020610207808 26.37974248919636,67.66171345880139 31.608240343164653,68.28049747017212 33.16566523583606,69.42286498422618 35.168068669270724,73.04033670638455 38.76497854059562,73.70670886425069 42.51021459209733,72.75474823749391 45.2542489268817,70.70802383450791 46.99708154494874,58.617818197846645 54.74712446308695,44.242287914210465 54.07965665217489,40.529303503833944 55.0066952786874,41.38614967139438 55.488755364436656,43.147437766747316 55.08085836889222,44.81351267383434 47.627467811107635,58.379817694512894 46.55210300418548,62.61620165916975 46.14420600840822,69.75605478385114 44.40137339034118,71.6599902108428 41.583175965584815,73.1355328092177 38.28291845461354,73.75430682551814 35.39055793965235,73.32592493444099 32.57236051466316,69.23247066600015 30.421630901051685,68.2328987402434 27.121373390313238,68.37569491012255 25.675193132832646,67.51891698819236 23.339055793825537,62.28300483938074 18.110557939857244,60.37901672674343 17.072274677921087,58.52261801651912 17.368927038507536,56.28540605746093 19.74214592250064,52.33454886355321 22.968240343267098,50.09729604804306 23.784034334588796,45.81315368573996 26.7505579397548,42.766619494825136 26.89888411993161,40.91012429035618 25.897682403214276,39.19642738069524" stroke="#4dd2ff" stroke-linecap="round" stroke-linejoin="round" stroke-width="0.5"><title>2023-07-11 10.1km</title></polyline><polyline fill="none" points="96.1038490566425,49.10385961047723 94.2780377358431,50.90357420913642 93.78898113209289,54.79594301758334 90.88724528311286,56.72118191048503 88.96362264140043,59.94383656329592 88.63758490572218,61.49237250362057 89.12664150958881,62.45497186933062 93.98460377356969,64.33830945959198 96.88633962266613,69.69529351466917 100.44015094346832,69.56974030315178 101.90732075471897,70.19750583177665 103.79833962279372,73.67111784935696 104.97207547165453,74.50812673865585 109.60181132075377,74.08962258775136 113.1230188680347,72.29004804143915 113.77509433962405,70.69971730242833 113.80769811326172,65.97052574151894 114.6227924528066,62.1201550513797 121.5347924529342,49.0201516902016 120.85011320759077,45.79737887263764 119.7089811321348,44.4161798498244 92.3870188681176,33.19893241781392 91.50671698118094,34.0360550195619 89.25705660379026,39.937702610419365 84.52950943401083,47.05300879123388 84.17086792457849,48.14121710663312 86.19230188673828,50.02464518210036 85.60543396242429,54.08443853902281 82.24724528309889,59.441606962354854 82.11683018866461,64.63127201475436 79.8019622642314,66.01237732343725 78.75864150945563,67.85384110966697 79.28030188684352,69.4860381327453 80.61705660377629,70.99267360265367 83.16015094344039,71.11822621454485 84.62732075469103,72.16449592314893 80.45403773593716,71.1600770734949 78.4652075470658,69.06752692788723 78.40000000002328,67.51903035864234 79.24769811320584,66.09608046969515 81.69298113207333,64.17090215583448 81.88860377355013,59.23234437868814 85.3772075471934,53.66590569910477 86.19230188673828,49.94093752032495 89.15924528299365,47.68082176585449 90.26777358481195,44.75101656457991 91.37630188697949,43.788359995232895 92.81086792459246,43.244248384347884 95.77781132073142,44.20690671191551 96.9189433963038,45.964796500920784 96.9189433963038,49.145713561883895 95.0931320755044,50.736159356252756 93.72377358493395,55.04706183966482 91.44150943402201,56.42821157720755 88.96362264140043,60.15309864716255 88.96362264140043,61.95274650133797 90.30037735856604,63.1246043764404 93.78898113209289,64.25460581947118 94.89750943391118,65.3846029767883 96.20166037743911,69.15122921590228 97.47320754721295,69.9045487496769 100.2771320756292,69.69529351466917 102.23335849063005,71.36933127971133 103.6027169812005,73.83851981526823 104.67864150938112,74.42442595545435 108.94973584904801,74.17332346504554 113.31864150951151,71.66228692157893 113.70988679246511,65.21719626089907 114.55758490576409,61.99459864766686 121.46958490565885,49.18756750744069 121.11094339611009,46.38334015998407 119.54596226417925,44.45803445976344 92.41962264152244,33.11522002835409 91.47411320742685,33.910486779292114 84.0404528301442,47.38784254231723 84.236075471621,48.308633417618694 85.96407547185663,49.81537598394789 85.31200000015087,53.791465612710454 81.69298113207333,59.86013168859063 81.8233962263912,64.42201307616779 79.67154716991354,66.01237732343725 78.6934339622967,67.85384110966697 78.75864150945563,69.0256757751049 80.71486792445648,71.11822621454485 83.6492075471906,71.70413770398591 80.48664150934201,71.03452447912423 78.59562264150009,68.90012228139676 78.40000000002328,67.72828712203773 79.21509433956817,66.05422889947658 81.56256603775546,64.25460581947118 81.9212075471878,59.10678675796953 83.94264150946401,56.63747613041778 85.34460377355572,53.70775900949957 86.15969811321702,50.02464518210036 89.517886792426,47.22042571386555 90.82203773595393,44.08134275866905 92.973886792548,43.03497442329535 96.26686792448163,44.7091619958519 97.27758490573615,47.848238335805945 94.83230188675225,50.98728160033352 93.8867924528895,54.79594301758334 91.31109433958773,56.344505714747356 88.8006037735613,60.06939383133431 89.0288301887922,62.413119787641335 94.2780377358431,64.58942023882992 96.65811320766807,69.56974030315178 101.35305660380982,70.61601544939913 103.43969811336137,74.00592168714502 104.6134339623386,74.88477997164591 110.05826415098272,74.1314730294398 113.25343396235257,71.87154077514424 114.0359245283762,63.25016030398547 115.4378867924679,59.609016923292074 121.43698113213759,49.10385961047723 120.85011320759077,46.174068403895944 119.93720754724927,45.00214385369327 115.17705660371576,42.74199063080596 92.25660377368331,33.324500958115095 91.31109433958773,33.95234286520281 83.74701886798721,47.72267591723357 84.17086792457849,48.810881786368554 85.89886792458128,49.857229835295584 85.60543396242429,52.745131381438114 83.94264150946401,56.21894687699387 81.56256603775546,59.48345946133486 81.39954716991633,60.780884016974596 85.70324528310448,53.07995873535401 86.5835471698083,49.64796051941812 89.35486792447045,47.597113445663126 91.11547169811092,43.95577875254094 93.62596226413734,43.327957927656826 96.59290566039272,45.253270931192674 97.21237735857721,48.05750891577918 94.7018867925508,51.53137906952179 94.11501886800397,54.29370473846211 90.98505660379305,56.846740536537254 88.83320754719898,60.23680343956221 89.12664150958881,62.53867601507227 93.8867924528895,64.33830945959198 96.07124528312124,69.06752692788723 97.34279245277867,69.82084667333402 100.3749433964258,69.9045487496769 101.97252830199432,71.20192792656599 104.12437735847197,74.54997712135082 110.02566037746146,74.08962258775136 111.88407547178213,73.16891138712526 113.44905660382938,71.57858533898252 113.70988679246511,66.05422889947658 114.6227924528066,61.95274650133797 121.27396226429846,49.68981439442723 121.59999999997672,47.97380070129293 120.98052830202505,46.13221403508214 120.03501886792947,44.87658023563563 98.58173584914766,36.08699545197305 98.94037735846359,36.37998578962288 98.19049056607764,38.93317510696943 96.0060377358459,43.45352219854249 97.47320754721295,46.38334015998407 96.88633962266613,49.271275380742736 97.57101886800956,46.04850527975941 95.58218867925461,42.57457119150786 98.67954716994427,35.83586064755218 92.64784905675333,33.15707622599439 91.66973584913649,33.99419894538005 84.13826415094081,47.97380070129293 86.15969811321702,50.15020663040923 85.57283018878661,53.66590569910477 82.05162264162209,59.65086939893081 81.95381132082548,64.38016127076116 78.72603773581795,67.60273308170144 78.9868679245701,69.31863372135558 80.35622641514055,70.9089718319592 79.01947169797495,69.73714457347523 78.59562264150009,67.1842192314507 81.8233962263912,64.25460581947118 82.019018867868,59.609016923292074 85.6706415094668,53.49849239838659 86.15969811321702,50.48503690052894 89.58309433970135,47.55525927685085 90.98505660379305,44.20690671191551 92.64784905675333,43.36981269053649 96.07124528312124,44.83472568454454 96.95154716982506,46.174068403895944 96.78852830186952,48.09936301407288 94.7018867925508,50.10835282021435 96.69071698107291,49.438691056799144" stroke="#ff0a00" stroke-linecap="round" stroke-linejoin="round" stroke-width="0.5"><title>2023-07-01 21.2km</title></polyline><polyline fill="none" points="160.45642620965373,32.866097118268954 164.17076028580777,35.089010122959735 165.25992591725662,38.100667817750946 166.7400740828598,37.63458026127773 168.7787687261589,38.602607311011525 169.9517163290875,37.99310922640143 170.0075709769735,37.09678586910013 169.16975126054604,35.69851514446782 166.7400740828598,34.65877040757914 164.7013794395607,32.39999999999418 163.08159465447534,34.19267656398006 164.53381549636833,35.55510232926463 164.98065267829224,38.136520671483595 164.25454225763679,35.4833958914096 160.48435353359673,32.97365787078161 159.25555128289852,32.93780429169419 155.54121720674448,39.67818861454725 155.31779861578252,41.2556996588246 150.7097901754314,48.67704120950657 150.54222623223905,50.326198910188396 149.3972059530206,52.369705623277696 151.65931918739807,53.44522889936343 153.67008650687058,52.26215304626385 154.759252138203,49.824282477318775 156.96551072469447,48.35437867359724 159.5627518456895,48.82044665009016 160.84740874392446,49.96768727316521 161.12668198288884,51.975345952785574 158.50151353818364,54.87925288302358 158.1105310037965,58.03407728168531 155.70878115005326,59.7548741515493 153.55837721121497,62.945487645221874 153.4745952396188,63.84172021431732 154.703397490317,65.52662892368971 157.10514734417666,66.02851447410649 159.00420536810998,67.39077027849271 160.42849888594355,70.97561922878958 165.23199859331362,71.97936791132088 166.34909154847264,74.23778801356093 167.85716703801882,75.38491438032361 172.0462656202726,74.73965643343399 174.14081491122488,73.5208314160991 175.14619857096113,72.01521600552951 175.14619857096113,68.10774409695296 176.45878279337194,62.87378890370019 181.65326503501274,53.44522889936343 181.40191912010778,50.57715675630607 182.6027940469794,52.082898650696734 182.21181151270866,53.98298883749521 176.34707349783275,64.70210051964386 175.3696171619231,72.98311264623771 173.44263181416318,74.66796100517968 170.09135294845328,75.60000000000582 166.96349267393816,74.99059027328622 165.31578056502622,72.19445640116464 163.80770507548004,71.33410135420854 160.37264423817396,71.11901213935926 158.44565889029764,67.10398018703563 156.99343804863747,65.99266553891357 154.5637608708348,65.52662892368971 153.72594115452375,64.59455314013758 153.55837721121497,62.62284314981662 155.51328988280147,59.36052589380415 157.85918508889154,57.818976857030066 158.38980424252804,54.77170136370114 160.45642620965373,52.47725815483136 160.79155409627128,51.22247579903342 160.37264423817396,49.89598488522461 159.61860649334267,49.21481119593955 157.44027523056138,48.605338458990445 155.70878115005326,49.28651377520873 154.39619692775887,52.33385476926924 151.79895580676384,54.37734540540259 151.3800459485501,56.994423549826024 150.29088031721767,58.78692733999924 151.74310115911067,54.26979367466993 154.1448510128539,52.40555647210567 155.23401664406992,49.78843126571155 156.32318227540236,48.74874393976643 158.1105310037965,48.49778429541038 160.23300761869177,49.465770135226194 161.01497268734965,50.57715675630607 160.59606282913592,52.799915477633476 158.641150157433,54.628299267584225 158.22224029933568,57.7114265767741 155.70878115005326,59.71902433517971 153.80972312623635,62.87378890370019 153.69801383058075,64.20021236070897 154.36826960381586,65.38323287086678 157.4682025546208,66.10021232924191 158.669077481376,66.99643381976057 160.45642620965373,71.15486035437789 161.51766451715957,71.54919038782828 163.55635916045867,71.19070856444887 165.3437078888528,71.97936791132088 166.37701887241565,74.45287460004329 167.4382571799215,75.31321913344436 171.62735576194245,75.13398092816351 174.95070730382577,72.94726468800218 175.42547180969268,71.76427924024756 175.3696171619231,67.92850083106896 176.90561997541226,62.5152948940231 181.9883929216303,53.301826057751896 181.65326503501274,50.720561129041016 182.0163202455733,51.29417781409575 180.75959067093208,49.60917513250024 181.9604655978037,51.07907170828548 182.23973883665167,53.05087089110748 181.8766836260911,50.57715675630607 179.9217709545046,48.641189836809644 163.05366733064875,41.43496166038676 164.6734521156177,38.63846009419649 165.9301816902589,37.67043318055221 169.19767858448904,38.53090172962402 170.25891689176206,37.77799190784572" stroke="#4dd2ff" stroke-linecap="round" stroke-linejoin="round" stroke-width="0.5"><title>2023-06-23 11.0km</title></polyline><polyline fill="none" points="54.052922158676665,116.75390477750625 51.00174086051993,116.14672485242772 49.77697090274887,115.23594791713549 47.17702064168407,114.39416171390621 45.90927629946964,113.67656777061347 43.09445411589695,112.61396709589462 40.40855508582899,111.86875975484872 35.670629196742084,111.37195171514759 33.00621735886671,110.2265235892919 29.77239492663648,106.96957051805657 28.268291469779797,106.26572322607535 23.67003233032301,102.9810357342576 22.122954488906544,101.00741008421755 20.833722954499535,100.06888884643558 20.23208157182671,98.79911052108218 18.975080825737678,96.94962136969843 16.90156677440973,95.05868967898277 15.440437702054624,92.73983315497753 14.720616762002464,92.2153222883353 14.108231783146039,91.37333845083049 13.291718477965333,89.81357879532152 12.400000000023283,87.1218997917531 14.290872917161323,91.51136908367334 15.762745585700031,93.029693219607 16.890823178342544,94.90686146528606 19.061029594682623,96.991028225013 20.307286744588055,98.73010035840707 20.97338970407145,100.11029438458354 22.423775180301163,101.28344403294614 23.723750310891774,102.9672342942431 28.311265854281373,106.21051930325484 29.815369311196264,106.96957051805657 32.92026858992176,109.97811572456703 34.102064163191244,110.66813601758622 33.11365332006244,110.28172525162518 29.69718975381693,106.91436699147744 27.870778413314838,105.97590228456829 23.358468042802997,102.67740360433527 22.337826411356218,101.24203899018903 20.704799801053014,99.87566277065343 20.12464561057277,98.61968399705802 18.95359363342868,96.9082144969434 16.91231037059333,95.00347944662644 16.375130564556457,94.2167302583839 17.385028599819634,95.41755543116597 19.039542402373627,96.86680760668969 20.339517532964237,98.77150646183873 20.908928127377294,100.01368143508444 22.359313603607006,101.15922885217151 23.584083561319858,102.81541832540097 27.86003481724765,105.89309614401282 29.72942054219311,106.87296432611038 33.03844814724289,110.15752146777231 35.58468042773893,111.19254819343769 39.33419547381345,111.785958589644 40.236657547880895,111.71695756528788 42.29942800302524,112.31036478863825 49.56209898041561,115.07035120205546 51.109176821715664,116.21572276046936 51.78602337726625,116.14672485242772 53.38681919925148,116.58831062525132 55.600000000034925,116.75390477750625 54.64381994534051,116.87810020823963 53.98846058198251,116.80910276613577 54.22481969662476,116.74010527550854" stroke="#4dd2ff" stroke-linecap="round" stroke-linejoin="round" stroke-width="0.5"><title>2023-05-28 13.0km</title></polyline><polyline fill="none" points="96.99774605559651,94.20934829243924 96.60826446278952,96.66761249591946 94.33628850488458,98.70920626132283 94.04417731030844,101.7924028604757 90.89586776867509,104.66724648838863 88.78617580770515,107.83370866961195 88.65634861006401,109.54191765064024 89.66250939154997,111.0418003515515 92.87573253212031,111.70841245068004 94.33628850488458,112.79165391621063 96.54335086408537,117.66619155404624 101.02238918107469,118.04115266955341 104.20315552235115,122.20735539359157 106.18302028556354,122.7489574495412 110.72697220148984,121.79073775443248 113.68054094677791,118.95772228986607 114.07002253946848,112.12504425176303 116.04988730279729,106.79211299921735 121.47017280256841,97.04260015964974 121.59999999997672,95.41765019306331 120.91840721271001,93.83435704646399 119.78241923381574,92.70938046369702 101.15221637883224,84.54275585609139 92.16168294521049,81.45937991855317 88.75371900829487,88.87609487818554 86.09226145758294,92.16772354999557 84.30713749059942,95.83430487930309 86.70894064614549,96.91760432437877 89.0782870023977,95.29265367303742 90.24673178070225,92.45938508800464 91.57746055605821,91.25107113455306 94.14154770853929,90.75107771382318 95.95912847481668,91.50106752876309 97.35477084899321,93.417699550424 97.54951164545491,95.79263943704427 95.47227648389526,98.75087129394524 94.27137490618043,102.83401608970598 91.28534936136566,104.79223905759864 89.17565740062855,108.20868221556884 89.46776859508827,110.45851353585022 94.10909090924542,112.16670739962137 95.05033809167799,113.29161018130253 95.86175807670224,116.29133007509517 96.93283245689236,117.5412044103432 100.69782118708827,117.62452917860355 102.1259203607915,118.29112648323644 104.72246431256644,122.24901712534484 107.35146506386809,122.4573256962176 110.791885800194,121.74907595835975 113.48580015031621,119.58265449781902 113.81036814418621,113.49992504302645 114.65424492862076,110.12520626900368 121.47017280256841,96.83427373840823 121.34034560492728,94.75100147738704 120.13944402709603,93.0427073033643 92.58362133742776,81.33437751533347 91.31780616089236,82.7510683350556 84.30713749059942,95.87597031579935 86.67648384673521,97.16759594206815 88.98091660416685,95.50098117714515 91.35026296018623,91.29273721494246 92.77836213377304,90.62607922684401 95.30999248684384,90.87607614792068 97.35477084899321,92.50105099851498 97.64688204356935,95.70930853500613 95.14770848990884,99.33418113514199 94.82314049592242,101.91739664110355 93.91435011278372,103.20899595684023 91.41517655923963,104.58391807987937 89.17565740062855,107.87537242047256 89.11074380180798,109.79189862756175 90.08444778376725,111.00013704560115 94.69331329828128,112.74999085607124 96.77054845984094,117.41621721370029 100.86010518413968,117.66619155404624 102.71014274982736,119.12437100731768 104.2680691210553,121.99904664719361 105.79353869275656,122.5406490835885 108.48745304287877,122.4573256962176 111.01908339594956,121.49910505893058 113.58317054854706,119.04104666024796 113.84282494371291,113.33327316542272 114.7516153268516,109.54191765064024 121.53508640127257,96.87593903430388 121.43771600304171,95.25098815455567 120.20435762580018,93.20937058288837 107.83831705490593,87.4177666993346 92.22659654414747,81.37604498895234 84.1773102930747,95.83430487930309 86.51419984968379,97.16759594206815 88.91600300534628,95.41765019306331 90.27918858011253,92.45938508800464 92.09676934638992,90.9594084082346 95.0178812922677,90.91774228098802 97.38722764851991,92.41771917158621 97.7442524418002,94.83433264881023 97.28985725028906,96.54261650281842 95.27753568754997,98.83420134152402 94.43365890323184,102.41737123698113 91.31780616089236,104.66724648838863 89.11074380180798,108.16701851168182 89.11074380180798,110.04187939374242 90.24673178070225,111.08346365165198 92.42133734049276,111.54175956637482 94.498572501936,112.83331697055837 96.57580766337924,117.41621721370029 101.21712997753639,117.79117864527507 102.74259954923764,119.12437100731768 104.43035311799031,122.12403191253543 108.29271224653348,122.41566399359726 111.27873779123183,121.58242871548282 113.71299774595536,119.16603317207773 113.84282494371291,113.4165991160553 114.71915852755774,109.87522557302145 121.43771600304171,97.29259167198325 121.30788880540058,94.62600467633456 119.87978963193018,92.75104633910814 92.32396694214549,81.2510425504588 84.04748309543356,96.08429741015425 86.12471825699322,97.20926119116484 88.52652141265571,95.87597031579935 90.3116453794064,92.08439162917784 92.09676934638992,90.9594084082346 95.30999248684384,91.08440675461316 97.22494365158491,92.45938508800464 97.61442524427548,95.37598469224758 96.96528925630264,96.95926960857469 94.95296769344714,98.9175313655578 94.56348610075656,102.41737123698113 91.12306536454707,104.87556740772561 88.98091660416685,108.16701851168182 89.045830202871,109.79189862756175 89.92216378671583,110.95847373388824 92.55116453801747,111.45843308910844 94.27137490618043,112.54167546762619 96.93283245689236,117.5412044103432 101.28204357635695,117.83284099740558 102.83996994746849,119.37434390810085 103.58647633367218,121.62409053504234 104.56018031551503,122.24901712534484 108.58482344110962,122.41566399359726 111.31119459064212,121.58242871548282 113.55071374913678,119.41600603770348 114.19984973710962,110.50017691779067 121.43771600304171,96.58428183969227 121.04823441023473,94.20934829243924 119.6525920360582,92.54271690329188 100.34079639380798,84.2510865321965 92.22659654414747,81.37604498895234 84.20976709236857,95.75097398896469 84.46942148765083,96.66761249591946 86.31945905357134,98.00089981249766 85.96243426005822,101.04243907012278 81.97024793399032,107.7920449131052 82.16498873021919,112.12504425176303 78.95176558976527,115.58306561392965 79.34124718268868,117.4995420172636 80.67197595792823,118.95772228986607 83.49571750569157,119.16603317207773 84.98873027809896,120.3742334045819 80.47723516169935,118.9993844779965 79.01667918870226,117.5412044103432 78.40000000002328,115.91636674743495 79.63335837726481,113.70823975859093 81.80796393705532,112.29169680835912 82.03516153281089,107.37540702530532 85.8001502630068,101.25076253546285 85.96243426005822,98.50088101092842 86.74139744555578,97.20926119116484 89.208114199806,95.75097398896469 90.3116453794064,92.83437807240989 91.22043576266151,91.87606172516826 93.03801652905531,91.12607285831473 95.40736288507469,91.87606172516826 96.90037565736566,93.25103638818837 97.38722764851991,94.87599822576158 95.11525169049855,99.33418113514199 94.27137490618043,102.58402924836264 91.28534936136566,104.83390323549975" stroke="#ff0800" stroke-linecap="round" stroke-linejoin="round" stroke-width="0.5"><title>2023-05-21 21.2km</title></polyline><polyline fill="none" points="185.9260804769001,116.88719577569282 182.95380029809894,116.1705116865196 181.0438152012066,114.98521495571913 179.38062593148788,114.51660531554808 178.007153502258,113.71720722623286 174.5520119225257,112.44918308299384 172.2879284649971,111.82894790457067 167.4163934426033,111.36032316517958 165.02354694489622,110.29901767310366 164.1865871833288,109.26526750242192 161.85812220571097,107.08746477420209 160.16274217586033,106.19151921426965 155.66676602087682,102.93847874402854 154.32548435172066,101.18785716367711 152.8125186288962,99.9610249668549 152.3511177347391,98.89959594731772 151.06348733237246,97.0799765778429 149.04619970195927,95.19139647722477 147.62980625929777,92.94435226872884 146.12757078988943,91.35898330834607 145.4408345753327,90.04931132937054 144.40000000002328,87.05767910418945 146.37436661700485,91.66227326881199 147.7049180327449,92.88920943137782 149.0998509687488,95.17761108712875 151.06348733237246,96.96969552946393 152.94128166913288,100.08508734815405 154.4327868852415,101.28434893176018 155.645305514161,102.89712583922665 160.0876304024132,106.08124842511461 161.7508196721319,106.88070883394539 165.09865871828515,110.20253478544328 167.66318926977692,111.2638413228924 169.4229508197168,111.37410627772624 171.11833084950922,111.80138180552603 172.25573770492338,111.77381569865975 174.58420268259943,112.40783419325453 181.51594634872163,115.10925830872293 183.00745156488847,116.1842941223149 185.35737704922212,116.7218076050849 187.59999999997672,116.95610743100406 185.41102831601165,116.77693702631223 182.95380029809894,116.22564141800103 181.33353204175364,115.05412794896984 174.43397913564695,112.36648528610385 172.36304023850244,111.84273095122626 167.53442622948205,111.30519069549337 165.08792846498545,110.31280093503301 161.68643815204268,106.89449257686647 160.05543964233948,106.1225999856324 155.50581222056644,102.92469444439485 154.50789865874685,101.42219414979627 152.87690014910186,100.09887204749975 152.26527570787584,98.7893169479139 150.90253353206208,96.88698466166534 149.17496274219593,95.31546490084293 147.511773472419,92.83406656297302 146.2563338301261,91.62091560222325 145.10819672129583,89.2497135094236 144.4321907600388,87.04389256900322 145.36572280176915,89.63572706530249 146.36363636364695,91.63470149300701 147.75856929959264,93.01328077173093 149.06766020867508,95.09489870574907 150.9454545454355,96.79048856095324 152.41549925482832,98.85824133706774 152.85543964232784,99.91967080485483 154.56154992553638,101.36705608590273 155.53800298064016,102.75928269700671 160.37734724296024,106.19151921426965 161.79374068556353,106.8531413422752 165.13084947841708,110.20253478544328 167.72757078986615,111.23627506476623 172.94247391953832,111.91164615524758 177.49210134131135,113.51046527936705 172.7064083457808,111.91164615524758 171.12906110280892,111.81516485598695 169.39076005964307,111.42923870866798 167.8134128166712,111.41545560379745 164.91624441137537,110.18875150803797 161.84739195229486,107.05989734074683 160.0769001490553,106.13638383523357 155.98867362149758,103.15902727492357 160.35588673624443,106.24665456230287 161.78301043220563,106.92206005690241 165.45275707897963,110.35415070910676 167.6309985097032,111.277624449016 168.6503725782968,111.277624449016 171.19344262301456,111.80138180552603 172.3308494783705,111.77381569865975 174.09061102836858,112.22865546951653 181.33353204175364,115.01278015882417 183.01818181818817,116.1705116865196 185.28226527571678,116.62533104330214" stroke="#ff0000" stroke-linecap="round" stroke-linejoin="round" stroke-width="0.5"><title>2023-05-14 21.6km</title></polyline><polyline fill="none" points="52.091736127622426,164.02277520863572 49.50940700166393,163.53383593247418 47.96618242439581,162.48987598614622 45.702786377689335,161.78949129057582 44.622529173619114,161.10231632466457 41.073112645884976,159.66187556184013 39.40643010241911,159.30506572044396 38.09983329358511,159.29185051506647 36.422862586332485,158.8557476955757 34.653298404417,158.8028866101231 32.33846153848572,157.83816657482384 31.587425577512477,156.91308326116996 29.025672779243905,154.54747162931017 27.873398428200744,154.0716989641296 26.49478447251022,153.00120165448607 25.599714217649307,152.5915019244494 23.19228387711337,150.71478999224928 22.24577280302765,149.32705634437298 20.70254822575953,148.0846869184752 18.74779709451832,144.99190865831042 16.504977375618182,143.00930491024337 15.455584663082846,141.238143491355 14.344462967361324,140.2335893304844 13.284782090922818,138.18479424126417 12.400000000023283,135.6204328718013 14.138699690345675,139.77096208917646 14.653107882826589,140.49794673066208 15.537889973842539,141.2249257432195 16.92679209331982,143.39261156592693 18.74779709451832,144.9786914386059 20.074970230984036,146.89516887364152 20.548225768026896,147.96573579208052 22.040009526070207,149.18167353733588 23.25401286018314,150.83373763640702 27.729364134313073,153.9791873326758 29.282876875426155,154.82500457088463 32.41047868540045,157.91745900631213 34.75618004286662,158.84253242697014 37.94551083591068,159.35792652322561 39.40643010241911,159.37114171923167 41.29945225053234,159.93939339021745 47.90445344126783,162.48987598614622 49.602000476268586,163.58669435533375 51.628768754482735,164.04920428623882 54.437437485088594,164.37956712820596 55.600000000034925,164.03598974837223 55.56913550850004,163.83777145753265 54.93126934982138,163.9434879313776 54.87982853059657,164.2606366389591 54.241962371976115,164.2606366389591 49.674017623241525,163.58669435533375 47.462062395818066,162.29165443234524 41.76241962373024,160.00546894277795 39.2726839723764,159.27863530789182 37.9146463443758,159.26542009883997 36.556608716375194,158.94825452342047 34.88992617290933,158.96146977713215 32.0709692784003,157.79852033399948 29.097689926216844,154.81178873512545 27.65734698739834,154.09813084208872 23.099690402508713,150.79408843840793 21.967992379155476,149.28740651021508 20.486496784957126,148.05825334785186 20.002953084069304,147.0273382893938 18.644915456068702,145.00512587618869 16.844486782560125,143.4058290088724 15.517313646094408,141.34388540936925 14.303310311981477,140.1939356562507 13.192188616318163,137.98652137605677 12.502881638531107,135.77905519501655" stroke="#4dd2ff" stroke-linecap="round" stroke-linejoin="round" stroke-width="0.5"><title>2023-05-07 13.6km</title></polyline><polyline fill="none" points="78.39999999990687,142.89567408629227 95.29917355347425,153.2850043203216 98.98842975217849,165.35483684926294 105.65289256209508,163.0631068001967 115.64958677627146,167.7993435781682 120.17190082604066,164.8964912260417 118.62479338794947,157.10458606726024 107.08099173521623,150.84046496113297 98.0363636361435,141.3678230320802 93.3950413223356,143.96516854665242 91.49090909026563,149.15984096296597 96.25123966904357,153.8961383018177 100.29752066126093,165.20205499697477 105.05785124003887,162.9103246255545 115.05454545421526,167.7993435781682 118.62479338794947,166.72987256059423 120.8859504130669,162.45197797124274 117.07768594985828,155.72953818412498 105.53388429712504,150.22932926239446 97.08429752057418,142.13174882763997 91.96694214828312,149.00705683464184 97.67933884309605,155.72953818412498 99.70247933873907,165.04927312210202 107.91404958674684,163.97979939973447 115.7685950412415,167.95212506619282 120.64793388452381,165.66040049132425 121.24297520658001,162.75754242879339 118.26776859443635,156.79902002122253 105.29586776858196,150.3821132191224 97.08429752057418,142.28453392209485 92.91900826431811,145.64580057375133 91.72892561974004,150.3821132191224 97.08429752057418,154.9656219421886 100.41652892529964,165.81318227981683 106.36694214865565,163.97979939973447 114.45950413215905,168.2576879778644 119.93388429749757,166.5770909007406 121.24297520658001,162.14641342847608 118.38677685940638,156.49345388938673 107.55702479276806,151.29881650966126 97.67933884309605,141.9789637111826 92.68099173530936,148.701488512801 97.79834710713476,155.4239717517048 100.65454545430839,165.35483684926294 105.77190082613379,163.97979939973447 116.12561983428895,167.95212506619282 120.76694214809686,165.04927312210202 121.12396694160998,162.29919571068604 117.19669421482831,155.5767549785087 107.08099173521623,150.99324883206282 97.4413223140873,141.9789637111826 94.10909090889618,144.27073819946963 92.08595041325316,150.07654528389685 97.32231404911727,154.5072719391901 99.82148760324344,165.04927312210202 106.24793388415128,163.82701735326555 116.72066115634516,167.95212506619282 119.45785123948008,166.72987256059423 120.76694214809686,161.53528408426791 116.24462809925899,155.27118850301486 107.31900826422498,151.14603268133942 96.72727272752672,142.13174882763997 91.84793388424441,149.77097726322245 97.32231404911727,154.2017051631119 100.89256198331714,165.81318227981683 106.36694214865565,163.36867108591832 116.8396694213152,167.7993435781682 121.0049586771056,164.8964912260417 121.60000000009313,161.84084879932925 118.38677685940638,156.03510453086346 108.03305785125121,150.68768106843345 96.8462809920311,141.52060823410284 92.08595041325316,148.701488512801 98.15537190064788,156.34067079110537 99.46446280973032,165.35483684926294 106.96198347071186,163.36867108591832 116.00661156978458,167.7993435781682 120.40991735458374,164.8964912260417 121.24297520658001,161.99363112438004 118.86280991695821,156.34067079110537 104.93884297506884,149.00705683464184 97.9173553721048,141.3678230320802 91.72892561974004,149.31262507045176 97.08429752057418,153.43778784794267 99.82148760324344,166.11874579254072 106.24793388415128,163.5214531965321 115.64958677627146,167.64656206883956 120.29090909054503,164.5909273698926 120.8859504130669,161.84084879932925 116.48264462780207,154.9656219421886 104.93884297506884,149.00705683464184 98.27438016561791,141.2150378084043 93.63305785134435,144.42352299380582 91.72892561974004,150.22932926239446 96.96528925606981,152.97943720116746 100.29752066126093,166.4243092192337 106.72396694216877,164.13258142478298 117.31570247979835,167.18821741151623 120.05289256200194,165.507618681062 121.12396694160998,160.92415439663455 118.0297520654276,155.88232136808801 105.89090909063816,150.07654528389685 86.96859504142776,132.04788510932121 81.01818181760609,143.50681390683167 94.82314049592242,152.0627353276359 100.05950413225219,166.4243092192337 104.8198347100988,163.5214531965321 117.19669421482831,167.3409989848733 121.0049586771056,164.2853634279454 120.52892561955377,158.9379805396311 114.45950413215905,153.2850043203216 103.03471074346453,147.47921436757315 95.77520661149174,138.31211448297836 86.61157024791464,132.04788510932121 80.54214876051992,141.82617857365403 97.79834710713476,153.7433548384579 100.17851239675656,165.66040049132425 105.29586776858196,162.75754242879339 117.55371900834143,167.03543581592385 121.12396694160998,160.92415439663455 118.7438016529195,156.646236965782 107.43801652872935,150.99324883206282 95.89421487599611,138.00654315564316 87.44462809944525,132.04788510932121 80.54214876051992,142.59010404744186 96.01322314050049,152.21551902673673 99.70247933873907,165.507618681062 108.15206611575559,163.67423528572544 116.12561983428895,167.64656206883956 120.64793388452381,164.74370930867735 120.76694214809686,159.8546766169602 117.67272727238014,155.5767549785087 103.1537190079689,147.6319987110328 96.25123966904357,138.61768572439905 86.73057851288468,131.74231202201918 80.30413223197684,142.43731899559498 95.77520661149174,152.0627353276359 100.29752066126093,165.96596404712182 105.53388429712504,163.5214531965321 117.79173553688452,167.03543581592385 121.24297520658001,161.68806645239238 116.8396694213152,155.4239717517048 104.58181818155572,149.31262507045176 96.01322314050049,138.92325687990524 86.37355371937156,132.20067162124906 80.42314049554989,141.9789637111826 97.20330578507856,151.90995160711464 99.1074380162172,164.5909273698926 105.65289256209508,162.9103246255545 116.95867768581957,166.8826541986782 119.57685950398445,165.81318227981683 121.0049586771056,161.53528408426791 116.24462809925899,155.27118850301486 106.1289256196469,150.07654528389685 97.67933884309605,141.67339341482148 93.9900826443918,143.6595988086192 91.96694214828312,149.15984096296597 97.32231404911727,151.90995160711464 99.82148760324344,165.04927312210202 106.0099173556082,163.0631068001967 117.79173553688452,167.03543581592385 121.36198347015306,161.2297192835249 117.55371900834143,155.5767549785087 105.77190082613379,149.46540915581863 86.61157024791464,132.65903102746233 80.54214876051992,141.82617857365403 96.72727272752672,151.6043841012288 99.94049586774781,165.35483684926294 106.48595041316003,163.21588895423338 116.72066115634516,167.64656206883956 120.64793388452381,165.35483684926294 120.40991735458374,160.0074592215242 116.95867768581957,155.4239717517048 106.0099173556082,149.61819322034717 96.25123966904357,138.46490011410788 86.96859504142776,132.506244580145 81.97024793364108,138.15932882972993 81.61322314059362,142.89567408629227 96.60826446255669,151.29881650966126 100.17851239675656,165.66040049132425 105.41487603308633,163.82701735326555 113.26942148711532,167.18821741151623 118.7438016529195,167.03543581592385 121.36198347015306,163.36867108591832 120.52892561955377,159.7018939908594 113.9834710736759,153.2850043203216 105.29586776858196,150.07654528389685 97.32231404911727,142.28453392209485 93.27603305736557,145.340231307433 91.49090909026563,150.07654528389685 96.01322314050049,151.7571678647073 100.05950413225219,166.11874579254072 106.36694214865565,163.82701735326555 116.24462809925899,167.64656206883956 120.76694214809686,165.20205499697477 120.76694214809686,160.31302436545957 116.12561983428895,155.11840523348656 104.70082644606009,149.31262507045176 87.08760330546647,132.65903102746233 80.780165289063,143.04845907341223 96.8462809920311,152.67386999586597 100.29752066126093,166.4243092192337 105.17685950361192,163.36867108591832 117.19669421482831,167.49378053715918 121.0049586771056,164.8964912260417 120.76694214809686,160.31302436545957 115.88760330528021,155.11840523348656 105.77190082613379,150.3821132191224 96.37024793354794,139.22882794914767 86.96859504142776,133.42296294192784 81.01818181760609,140.90946729737334 96.96528925606981,153.8961383018177" stroke="#4dd2ff" stroke-linecap="round" stroke-linejoin="round" stroke-width="0.5"><title>2023-05-01 14.7km</title></polyline><polyline fill="none" points="144.39999999990687,142.81079068488907 161.87692307680845,152.44926280307118 165.81538461521268,165.87978290917818 172.46153846150264,163.8257137539331 183.04615384619683,167.61783849389758 187.35384615324438,163.35169726179447 185.50769230769947,157.9794963907916 170.86153846094385,150.86919106845744 163.2307692305185,141.70473122317344 161.38461538450792,141.8627397842938 156.3384615383111,150.5531764549669 162.61538461502641,154.3453459541779 166.30769230704755,166.51180343248416 171.84615384601057,163.9837192062987 180.83076923061162,168.09185318730306 184.27692307671532,167.61783849389758 187.35384615324438,162.7196749622235 185.26153846178204,157.34747107187286 161.63076923042536,141.54672264005058 156.09230769146234,150.0791543686064 161.63076923042536,153.39730477833655 166.30769230704755,166.51180343248416 171.59999999962747,163.66770827840082 182.4307692302391,168.24985804059543 187.23076923098415,163.66770827840082 184.0307692307979,156.557438923046 173.69230769202113,151.3432128218701 163.35384615324438,140.91468808462378 159.53846153849736,143.28481583553366 156.21538461511955,149.9211469620932 163.8461538455449,155.9254128044704 165.4461538461037,166.19579321495257 172.70769230742007,163.9837192062987 182.79999999934807,167.93384831235744 185.63076923042536,166.51180343248416 186.9846153841354,162.24565800419077 181.69230769202113,154.81936624250375 172.83076923061162,150.7111837725388 162.98461538460106,141.07269675657153 157.81538461474702,145.81294659723062 156.46153846103698,150.86919106845744 162.86153846094385,154.02933231776115 165.56923076882958,165.7217777223559 171.84615384601057,163.66770827840082 183.04615384619683,167.7758434143616 186.9846153841354,165.56377251364756 187.35384615324438,162.87768057035282 184.39999999990687,157.18946468632203 169.38461538450792,148.34107167471666 162.73846153821796,141.2307054066332 158.43076923070475,145.33892251201905 156.9538461533375,151.1852055931231 162.61538461502641,153.39730477833655 166.30769230704755,166.03778807271738 173.1999999997206,164.14172463701107 181.93846153840423,168.24985804059543 185.99999999953434,166.35379833495244 187.35384615324438,161.9296465876978 184.39999999990687,156.557438923046 170.36923076910898,149.13110959576443 165.81538461521268,142.4947738071205 161.7538461536169,140.7566793904407 156.3384615383111,150.23716175276786 162.73846153821796,154.18733914732002 165.69230769202113,166.35379833495244 173.1999999997206,164.14172463701107 183.5384615380317,168.09185318730306 187.35384615324438,164.61574079585262 187.23076923098415,161.2976234885864 181.20000000018626,154.02933231776115 169.75384615315124,148.9731020560721 161.87692307680845,141.2307054066332 156.83076923014596,149.60513208177872 164.46153846057132,156.0834193675546 165.1999999997206,165.7217777223559 171.47692307690158,164.2997300454881 182.0615384611301,168.40786287246738 186.12307692319155,166.98581859236583 187.59999999962747,162.87768057035282 183.78461538488045,155.9254128044704 170.61538461502641,149.44712460890878 161.99999999953434,141.54672264005058 157.0769230760634,150.0791543686064 162.86153846094385,154.81936624250375 165.1999999997206,166.35379833495244 171.96923076873645,163.66770827840082 183.5384615380317,167.7758434143616 187.59999999962747,162.87768057035282 182.92307692300528,154.9773729610024 172.9538461533375,150.39516911515966 161.99999999953434,140.91468808462378 157.81538461474702,150.39516911515966 163.10769230686128,153.39730477833655 165.69230769202113,166.82781356107444 172.5846153846942,164.61574079585262 180.58461538422853,168.09185318730306 185.75384615315124,166.03778807271738 187.23076923098415,162.87768057035282 182.3076923075132,154.661359502119 171.35384615371004,149.44712460890878 163.72307692328468,141.2307054066332 161.63076923042536,141.38871403434314 157.44615384563804,150.23716175276786 163.35384615324438,154.81936624250375 164.58461538422853,165.7217777223559 170.86153846094385,163.66770827840082 183.78461538488045,167.93384831235744 187.59999999962747,164.45773543149699 187.59999999962747,161.613635082962 181.69230769202113,153.39730477833655 172.70769230742007,150.0791543686064 163.59999999962747,140.91468808462378 161.7538461536169,141.38871403434314 157.0769230760634,150.7111837725388 163.2307692305185,155.60939961194526 164.9538461533375,166.03778807271738 172.3384615383111,163.66770827840082 179.47692307690158,167.30182858742774 184.8923076922074,166.98581859236583 187.1076923077926,164.93175145739224 186.36923076910898,158.2955089173047 171.59999999962747,149.28911711310502 152.3999999994412,131.5921371274162 146.7384615377523,139.49260903603863 146.36923076864332,142.17875683994498 163.2307692305185,154.661359502119 165.69230769202113,165.7217777223559 171.72307692281902,163.35169726179447 179.1076923077926,166.82781356107444 184.8923076922074,166.82781356107444 187.23076923098415,163.9837192062987 185.26153846178204,157.34747107187286 161.7538461536169,141.07269675657153 157.81538461474702,147.70904093806166 162.98461538460106,154.3453459541779 165.81538461521268,166.03778807271738 172.09230769239366,163.0356861561304 179.35384615371004,167.143823600607 184.6461538458243,167.143823600607 187.1076923077926,163.66770827840082 185.99999999953434,157.9794963907916 173.93846153840423,151.1852055931231 165.93846153840423,142.4947738071205 161.87692307680845,141.70473122317344 158.06153846159577,145.81294659723062 157.32307692291215,151.02719834202435 163.2307692305185,155.9254128044704 166.0615384611301,166.51180343248416 172.3384615383111,163.35169726179447 182.5538461538963,167.93384831235744 186.73846153821796,164.93175145739224 185.50769230769947,157.34747107187286 170.73846153821796,148.9731020560721 164.21538461465389,140.7566793904407 161.5076923072338,141.8627397842938 157.81538461474702,149.44712460890878 162.49230769230053,152.92328389082104 164.9538461533375,160.03357622493058 169.01538461493328,158.76952754007652 174.79999999981374,151.02719834202435" stroke="#4dd2ff" stroke-linecap="round" stroke-linejoin="round" stroke-width="0.5"><title>2023-04-20 10.0km</title></polyline><polyline fill="none" points="13.607927485049004,202.94390996627772 13.395544630504446,202.6711641565489 12.499554463021923,202.36432365354995 12.39999999999418,202.1427156574573 12.565924105088925,201.88701311664408 13.222983561223373,201.53755123285737 14.065878015040653,201.40969882071659 17.27816868951777,201.40969882071659 18.40645260407473,201.1710402630597 27.014595175918657,196.70454244766734 28.6738362267497,196.03965393678664 29.94813335381332,195.86916852813738 31.156060838868143,195.93736274914045 45.578184052865254,198.2644445502301 47.31706867413595,198.451971061113 48.2860654478427,198.40935145052572 49.75283453677548,198.07691745911143 50.80147488095099,197.5825250736125 51.79038254724583,196.7897840368496 53.89430019969586,194.23248420026357 54.99603625747841,193.81478164015425 55.5734521431732,193.84887991626601 55.60000000000582,193.95117462944472 55.3278844676679,193.9937973756496 53.74828698724741,193.3459283979355 53.42971270548878,193.05609003372228 52.55363343062345,194.9059169584798 51.39880165923387,196.5511072849331 49.991765248123556,197.63366930053598 49.12895990165998,198.00872564575184 48.186510984785855,198.2473966568541 46.96530957132927,198.3241121393803 45.53172530341544,198.19625294789148 33.067506529419916,196.17604191835198 30.737932094023563,195.84359567545107 29.589737286849413,195.83507138884306 28.574281763721956,196.01408115604863 27.353080350265373,196.4232443525907 18.333445997850504,201.05171063180387 17.11888154860935,201.2392285182832 13.674297127028694,201.23070499056848 12.53273928409908,201.6142625506909" stroke="#4dd2ff" stroke-linecap="round" stroke-linejoin="round" stroke-width="0.5"><title>2023-03-17 12.5km</title></polyline><polyline fill="none" points="79.48946640011854,202.90581844333428 78.39999999999418,202.28303996863906 78.51957558048889,202.03563304671843 78.99787790249684,201.76263113431196 80.1803475319175,201.54934753538328 83.2627402737271,201.54934753538328 84.34556358604459,201.31046901431182 92.99486390897073,196.83132255947567 94.6357065969496,196.17435326574923 96.15033061662689,195.9951785869962 97.1002921728359,196.05490353874484 109.78194679378066,198.13670796191218 111.92102106721723,198.4438533857101 114.1796709211194,198.53770306611113 115.86037213593954,198.14523980025479 116.97641088726232,197.5650720601625 117.9396586191142,196.7118741262566 120.01230201445287,194.28019416915413 121.12834076580475,193.83650871281498 121.58007073658518,193.91330065865986 121.60000000000582,194.04128701904847 121.05526679995819,194.04128701904847 119.6004305704846,193.34162495156488 119.46756881440524,193.247767230936 119.47421190221212,193.09418155666935 118.41131785331527,195.26141009476487 117.18234660927556,196.83132255947567 115.97330462862737,197.70158261589677 114.39224973091041,198.2561535893292 113.11677687219344,198.37559898150357 111.68851299400558,198.24762176658987 97.69817007536767,196.02930713804744 96.41605412884383,195.89279281866402 95.42623404579354,195.9439857244506 94.25040750423796,196.18288538009074 93.18087036753423,196.61802162084132 84.32563432262396,201.15690375404301 83.22288174688583,201.3957828798084 79.44960787327727,201.3872514986724 78.49964631706825,201.74556847398344" stroke="#4dd2ff" stroke-linecap="round" stroke-linejoin="round" stroke-width="0.5"><title>2023-03-11 12.5km</title></polyline><polyline fill="none" points="151.42439024336636,189.4281457401812 152.12682926654816,202.06039496068843 169.68780487775803,194.39082101290114 166.17560975439847,185.81892253551632 152.12682926654816,185.36776934866793 150.01951219327748,200.70694206724875 169.68780487775803,194.39082101290114 166.17560975439847,186.72122871875763 150.01951219327748,186.72122871875763 146.85853658430278,193.9396690321155 151.77560975402594,200.25579097517766 163.7170731704682,198.45118597638793 167.22926829196513,189.4281457401812 147.91219512186944,187.17238171421923 150.72195121832192,201.60924405930564 165.47317073121667,198.90233732084744 168.98536585271358,190.78160339407623 149.31707317009568,186.27007565880194 146.15609755925834,192.13506047683768 152.12682926654816,201.15809309552424 165.47317073121667,198.45118597638793 168.98536585271358,189.87929835612886 161.60975609719753,184.46546278661117 148.96585365757346,186.27007565880194 153.88292682729661,201.60924405930564 169.68780487775803,192.13506047683768 164.41951219551265,184.91661609965377 150.3707317057997,185.36776934866793 152.12682926654816,201.15809309552424 160.55609756149352,201.15809309552424 169.3365853652358,192.13506047683768 151.77560975402594,184.46546278661117 145.80487804859877,187.17238171421923 148.96585365757346,196.64657996036112 168.63414634019136,193.9396690321155 167.22926829196513,187.6235346456524 152.8292682915926,184.01430941093713 146.15609755925834,198.45118597638793 166.52682926878333,198.0000345672015 170.0390243884176,192.13506047683768 153.53170731663704,184.46546278661117 145.10243902355433,193.03736488264985 153.18048780411482,200.25579097517766 165.82439024187624,197.09773155930452 167.22926829196513,187.17238171421923 148.26341463439167,186.27007565880194 144.7512195110321,192.58621271140873 151.07317073084414,199.80463982117362 166.52682926878333,196.64657996036112 168.98536585271358,190.33045090688393 152.8292682915926,184.46546278661117 145.80487804859877,191.23275581817143 148.26341463439167,201.60924405930564 168.63414634019136,196.64657996036112 166.17560975439847,185.81892253551632 155.2878048773855,184.46546278661117 146.5073170736432,190.33045090688393 147.56097560934722,198.0000345672015 160.20487804710865,199.35348860314116 168.63414634019136,193.48851698893122 166.8780487794429,186.27007565880194 152.12682926654816,184.46546278661117 144.7512195110321,193.03736488264985 147.56097560934722,199.35348860314116 160.20487804710865,200.25579097517766 170.39024390280247,190.78160339407623 153.18048780411482,185.36776934866793 146.15609755925834,192.13506047683768 150.72195121832192,200.70694206724875 167.93170731514692,195.29312478168868 168.28292682766914,188.52584031992592 153.18048780411482,184.91661609965377 145.45365853607655,194.84197292895988 150.3707317057997,200.25579097517766 164.41951219551265,198.45118597638793 169.68780487775803,190.78160339407623 151.42439024336636,185.81892253551632 145.80487804859877,189.4281457401812 149.6682926826179,200.25579097517766 169.68780487775803,192.58621271140873 165.12195121869445,185.81892253551632 151.42439024336636,185.81892253551632 146.15609755925834,190.33045090688393 149.31707317009568,199.80463982117362 162.31219512224197,199.35348860314116 169.68780487775803,189.87929835612886 150.01951219327748,185.81892253551632 145.80487804859877,190.33045090688393 151.42439024336636,199.80463982117362 167.93170731514692,197.54888309561647 170.74146341346204,191.23275581817143 152.8292682915926,184.46546278661117 146.85853658430278,188.0746875142213 147.91219512186944,199.35348860314116 168.98536585271358,193.9396690321155 163.365853657946,184.91661609965377 148.96585365757346,185.81892253551632 150.3707317057997,200.25579097517766 165.47317073121667,197.09773155930452 169.68780487775803,189.4281457401812 147.91219512186944,187.17238171421923 151.77560975402594,200.70694206724875 169.3365853652358,192.13506047683768 163.365853657946,184.91661609965377 147.91219512186944,187.17238171421923 146.5073170736432,195.29312478168868 154.93658536486328,201.15809309552424 170.39024390280247,191.23275581817143 162.66341463290155,184.46546278661117 147.209756096825,186.72122871875763 148.61463414505124,200.25579097517766 160.55609756149352,201.15809309552424 169.68780487775803,191.683908179868 151.07317073084414,184.91661609965377 145.80487804859877,193.9396690321155 149.6682926826179,200.25579097517766 167.93170731514692,197.09773155930452 170.0390243884176,191.683908179868 152.12682926654816,185.81892253551632 147.209756096825,188.97699306136928 150.3707317057997,200.25579097517766 164.0682926811278,200.70694206724875 170.0390243884176,194.39082101290114 168.63414634019136,188.0746875142213 155.63902438990772,184.46546278661117 148.61463414505124,187.17238171421923 148.26341463439167,198.45118597638793 168.63414634019136,194.39082101290114 163.01463414542377,184.91661609965377 148.26341463439167,186.72122871875763 148.26341463439167,198.90233732084744 168.98536585271358,195.74427657248452 166.17560975439847,185.81892253551632 152.12682926654816,184.46546278661117 146.85853658430278,188.52584031992592 149.6682926826179,199.80463982117362 167.93170731514692,198.90233732084744 164.41951219551265,184.91661609965377 148.26341463439167,186.27007565880194 145.80487804859877,194.39082101290114 162.31219512224197,199.80463982117362 168.98536585271358,194.39082101290114 163.7170731704682,184.46546278661117 145.80487804859877,191.23275581817143 151.42439024336636,201.15809309552424 164.41951219551265,199.80463982117362 169.68780487775803,190.78160339407623 159.5024390220642,184.91661609965377 148.96585365757346,186.27007565880194 145.80487804859877,196.64657996036112 166.8780487794429,196.64657996036112 168.63414634019136,188.0746875142213 161.9609756078571,184.01430941093713 147.209756096825,186.72122871875763 146.15609755925834,195.74427657248452 154.23414634168148,199.80463982117362 168.28292682766914,194.39082101290114 168.98536585271358,188.52584031992592 159.85365853644907,184.46546278661117 148.26341463439167,187.17238171421923 147.91219512186944,198.0000345672015 167.58048780448735,196.64657996036112 167.58048780448735,187.6235346456524 151.77560975402594,184.46546278661117 145.80487804859877,195.29312478168868 164.0682926811278,198.90233732084744 168.63414634019136,194.84197292895988 165.82439024187624,184.91661609965377 151.77560975402594,184.01430941093713 144.7512195110321,193.48851698893122 151.07317073084414,200.70694206724875 167.93170731514692,197.54888309561647 167.93170731514692,186.72122871875763 161.60975609719753,184.01430941093713 147.56097560934722,186.27007565880194 146.85853658430278,196.19542829832062 164.77073170617223,198.90233732084744 169.3365853652358,190.78160339407623 164.0682926811278,184.91661609965377 149.6682926826179,184.46546278661117 146.15609755925834,194.39082101290114 164.0682926811278,199.35348860314116 169.68780487775803,190.78160339407623 160.9073170721531,184.46546278661117 150.72195121832192,184.91661609965377 146.15609755925834,194.39082101290114 150.01951219327748,199.35348860314116 166.8780487794429,198.45118597638793 170.74146341346204,193.03736488264985 164.77073170617223,184.01430941093713 145.45365853607655,190.78160339407623 150.72195121832192,200.25579097517766 165.12195121869445,198.90233732084744 169.3365853652358,188.97699306136928 164.0682926811278,184.01430941093713 148.61463414505124,186.27007565880194 145.45365853607655,191.683908179868 147.91219512186944,198.0000345672015 163.365853657946,199.35348860314116 168.98536585271358,193.48851698893122 164.0682926811278,185.36776934866793 149.31707317009568,185.81892253551632 145.10243902355433,193.9396690321155 148.96585365757346,199.80463982117362 164.0682926811278,199.35348860314116 168.63414634019136,195.29312478168868 163.01463414542377,184.46546278661117 150.01951219327748,185.36776934866793 144.40000000037253,193.9396690321155 161.9609756078571,199.80463982117362 168.28292682766914,196.19542829832062 166.52682926878333,185.81892253551632 153.18048780411482,184.01430941093713 144.40000000037253,189.87929835612886 148.61463414505124,198.0000345672015 162.66341463290155,198.45118597638793 169.3365853652358,188.97699306136928 165.12195121869445,184.46546278661117 145.10243902355433,187.6235346456524 147.91219512186944,198.0000345672015 162.31219512224197,198.90233732084744 169.3365853652358,193.48851698893122 166.17560975439847,184.91661609965377 146.5073170736432,189.4281457401812 150.01951219327748,198.45118597638793 161.60975609719753,198.90233732084744 168.28292682766914,196.64657996036112 166.52682926878333,185.81892253551632 150.3707317057997,184.46546278661117 144.40000000037253,190.78160339407623 150.01951219327748,199.35348860314116 163.7170731704682,199.35348860314116 169.3365853652358,192.13506047683768 161.60975609719753,185.36776934866793 152.12682926654816,184.91661609965377 145.10243902355433,192.13506047683768 148.26341463439167,198.0000345672015 161.9609756078571,198.0000345672015 168.63414634019136,195.29312478168868 166.17560975439847,185.36776934866793 149.31707317009568,185.36776934866793 145.45365853607655,190.33045090688393 150.01951219327748,198.90233732084744 164.77073170617223,198.0000345672015 169.3365853652358,193.03736488264985 165.12195121869445,184.46546278661117 150.01951219327748,184.01430941093713 145.45365853607655,190.33045090688393 151.07317073084414,198.90233732084744 164.77073170617223,198.0000345672015 170.0390243884176,192.13506047683768 164.0682926811278,184.91661609965377 145.45365853607655,189.87929835612886 151.07317073084414,198.45118597638793 165.82439024187624,197.09773155930452 169.68780487775803,192.13506047683768 163.7170731704682,183.56315596983768 147.91219512186944,185.36776934866793 145.80487804859877,196.19542829832062 167.93170731514692,196.64657996036112 167.58048780448735,186.72122871875763 161.2585365846753,184.01430941093713 148.26341463439167,185.81892253551632 145.10243902355433,192.58621271140873 152.8292682915926,200.25579097517766 168.63414634019136,197.09773155930452 166.52682926878333,186.72122871875763 152.8292682915926,184.91661609965377 146.85853658430278,186.72122871875763 146.15609755925834,197.09773155930452 167.58048780448735,196.64657996036112 168.98536585271358,190.33045090688393 158.09756097383797,184.91661609965377 148.96585365757346,185.81892253551632 144.7512195110321,194.84197292895988 164.77073170617223,198.45118597638793 168.98536585271358,189.4281457401812 159.5024390220642,184.01430941093713 149.31707317009568,185.36776934866793 145.10243902355433,195.74427657248452 155.2878048773855,200.25579097517766 168.28292682766914,196.19542829832062 165.82439024187624,185.81892253551632 159.15121951140463,184.46546278661117 146.5073170736432,188.0746875142213 146.15609755925834,196.64657996036112 166.17560975439847,198.90233732084744 168.63414634019136,188.0746875142213 163.7170731704682,184.01430941093713 146.85853658430278,187.17238171421923 145.80487804859877,194.84197292895988 166.52682926878333,196.64657996036112 167.93170731514692,186.72122871875763 162.66341463290155,183.11200246564113 148.96585365757346,184.91661609965377 145.45365853607655,194.39082101290114 164.0682926811278,199.35348860314116 169.3365853652358,189.87929835612886 165.47317073121667,184.91661609965377 147.91219512186944,185.81892253551632 144.40000000037253,193.48851698893122 152.8292682915926,199.80463982117362 166.17560975439847,198.45118597638793 170.0390243884176,190.33045090688393 161.2585365846753,183.56315596983768 147.209756096825,186.72122871875763 145.80487804859877,194.39082101290114 165.82439024187624,198.90233732084744 169.68780487775803,189.87929835612886 165.12195121869445,184.91661609965377 151.42439024336636,184.91661609965377 145.10243902355433,193.48851698893122 164.41951219551265,199.35348860314116 169.3365853652358,194.84197292895988 163.7170731704682,185.36776934866793 145.10243902355433,192.58621271140873 152.47804878093302,200.25579097517766 165.82439024187624,198.90233732084744 169.68780487775803,193.48851698893122 164.41951219551265,184.91661609965377 150.01951219327748,185.36776934866793 145.45365853607655,193.9396690321155 151.07317073084414,199.80463982117362 164.41951219551265,198.90233732084744 169.3365853652358,190.33045090688393 164.0682926811278,185.36776934866793 148.26341463439167,185.81892253551632 144.40000000037253,193.48851698893122 164.41951219551265,198.45118597638793 168.98536585271358,195.29312478168868 164.41951219551265,184.91661609965377 145.10243902355433,188.97699306136928 148.26341463439167,198.45118597638793 164.0682926811278,198.90233732084744 168.63414634019136,194.84197292895988 164.0682926811278,184.91661609965377 148.96585365757346,184.91661609965377 145.80487804859877,195.29312478168868 167.22926829196513,196.64657996036112 170.39024390280247,191.683908179868 161.9609756078571,184.01430941093713 145.10243902355433,191.23275581817143 147.209756096825,197.09773155930452 160.20487804710865,198.45118597638793 167.93170731514692,194.84197292895988 165.47317073121667,185.36776934866793 145.80487804859877,187.6235346456524 148.96585365757346,198.0000345672015 162.66341463290155,198.90233732084744 170.0390243884176,190.78160339407623 161.9609756078571,183.56315596983768 147.209756096825,186.27007565880194 145.45365853607655,193.9396690321155 154.23414634168148,200.70694206724875 168.28292682766914,196.64657996036112 161.9609756078571,184.46546278661117 152.12682926654816,184.46546278661117 145.45365853607655,193.48851698893122 164.41951219551265,198.90233732084744 168.98536585271358,190.78160339407623 165.12195121869445,185.36776934866793 145.80487804859877,189.4281457401812 151.42439024336636,199.35348860314116 165.82439024187624,198.90233732084744 168.28292682766914,187.6235346456524 162.66341463290155,184.01430941093713 148.26341463439167,185.36776934866793 146.15609755925834,196.19542829832062 165.12195121869445,198.90233732084744 168.98536585271358,193.03736488264985 164.0682926811278,184.91661609965377 149.6682926826179,184.91661609965377 144.7512195110321,193.03736488264985 151.42439024336636,199.80463982117362 166.8780487794429,197.54888309561647 163.365853657946,184.46546278661117 156.6926829237491,184.46546278661117 160.55609756149352,192.13506047683768 174.25365853495896,200.70694206724875 177.4146341457963,211.53454921324737 187.59999999962747,212.8879975345917" stroke="#4dd2ff" stroke-linecap="round" stroke-linejoin="round" stroke-width="0.5"><title>2021-06-01 11.4km</title></polyline><polyline fill="none" points="51.27999999932945,250.1619072263129 36.69999999925494,233.51437924895436 14.559999998658895,243.22544406633824 14.559999998658895,255.017425626982 44.25999999977648,250.85555300442502 38.32000000029802,231.43343429919332 24.819999998435378,233.51437924895436 12.400000000372529,251.54919868521392 24.819999998435378,263.34116033185273 47.5,253.63013514317572 47.5,235.59532332140952 36.69999999925494,231.43343429919332 16.720000000670552,251.54919868521392 44.80000000074506,250.85555300442502 50.74000000022352,242.5317972144112 39.93999999947846,228.6588396676816 17.259999999776483,245.3063840395771 24.279999999329448,258.4856501305476 44.80000000074506,254.3237804346718 51.27999999932945,244.61273747915402 40.48000000230968,230.73978578671813 20.5,238.369914048817 17.259999999776483,254.3237804346718 46.42000000178814,249.46826134761795 50.74000000022352,240.4508560714312 37.77999999932945,228.6588396676816 16.720000000670552,239.75720882741734 17.259999999776483,250.1619072263129 48.040000000968575,254.3237804346718 53.43999999947846,236.9826188813895 45.87999999895692,232.12708271527663 21.040000000968575,241.83815026516095 28.600000001490116,260.56658365996554 50.74000000022352,251.54919868521392 52.90000000037253,238.369914048817 24.819999998435378,232.12708271527663 14.559999998658895,241.83815026516095 42.6399999987334,249.46826134761795 51.81999999843538,246.00003050314263 46.96000000089407,230.04613717785105 22.119999999180436,230.73978578671813 16.180000001564622,245.3063840395771 46.42000000178814,250.1619072263129 52.90000000037253,241.83815026516095 44.80000000074506,230.04613717785105 16.180000001564622,239.75720882741734 23.740000000223517,255.71107072290033 47.5,250.85555300442502 52.3600000012666,234.2080273698084 44.80000000074506,229.35248846979812 19.96000000089407,233.51437924895436 16.180000001564622,243.22544406633824 27.519999999552965,252.93648975528777 50.74000000022352,246.69367686612532 50.74000000022352,232.82073103031144 40.48000000230968,229.35248846979812 21.040000000968575,233.51437924895436 19.41999999806285,251.54919868521392 49.119999999180436,251.54919868521392 54.519999999552965,241.1445032185875 42.6399999987334,229.35248846979812 18.33999999985099,234.90167539427057 20.5,252.93648975528777 51.27999999932945,246.00003050314263 53.43999999947846,236.9826188813895 38.85999999940395,230.04613717785105 23.740000000223517,231.43343429919332 16.720000000670552,246.69367686612532 28.060000002384186,255.017425626982 51.27999999932945,246.00003050314263 40.48000000230968,229.35248846979812 19.96000000089407,234.2080273698084 16.720000000670552,245.3063840395771 28.060000002384186,255.017425626982 45.34000000171363,251.54919868521392 53.43999999947846,245.3063840395771 48.040000000968575,231.43343429919332 17.259999999776483,239.75720882741734 21.580000000074506,254.3237804346718 46.96000000089407,249.46826134761795 53.43999999947846,243.22544406633824 45.34000000171363,229.35248846979812 23.200000001117587,231.43343429919332 17.259999999776483,241.1445032185875 27.519999999552965,255.71107072290033 48.57999999821186,250.85555300442502 53.980000000447035,243.91909082233906 44.25999999977648,231.43343429919332 19.96000000089407,233.51437924895436 16.720000000670552,241.1445032185875 21.040000000968575,253.63013514317572 44.25999999977648,254.3237804346718 52.3600000012666,250.1619072263129 49.119999999180436,233.51437924895436 26.97999999858439,231.43343429919332 17.800000000745058,239.75720882741734 21.580000000074506,253.63013514317572 44.80000000074506,254.3237804346718 54.519999999552965,240.4508560714312 48.57999999821186,233.51437924895436 25.3600000012666,232.12708271527663 17.259999999776483,241.83815026516095 20.5,253.63013514317572 48.040000000968575,250.85555300442502 51.81999999843538,234.90167539427057 43.18000000156462,231.43343429919332 17.800000000745058,236.28897115122527 17.259999999776483,246.00003050314263 23.200000001117587,256.4047157210298 44.25999999977648,254.3237804346718 52.90000000037253,248.7746153739281 47.5,233.51437924895436 17.259999999776483,239.75720882741734 24.279999999329448,256.4047157210298 45.34000000171363,253.63013514317572 53.43999999947846,247.38732313271612 45.34000000171363,230.73978578671813 20.5,234.2080273698084 17.800000000745058,243.91909082233906 28.600000001490116,257.09836062043905 50.74000000022352,251.54919868521392 46.42000000178814,230.04613717785105 20.5,234.2080273698084 18.33999999985099,246.00003050314263 22.119999999180436,255.017425626982 44.25999999977648,255.71107072290033 53.980000000447035,239.75720882741734 47.5,232.12708271527663 18.88000000268221,236.28897115122527 24.819999998435378,257.79200542438775 45.34000000171363,257.09836062043905 52.90000000037253,251.54919868521392 49.66000000201166,235.59532332140952 17.800000000745058,239.06356148794293 25.3600000012666,259.1792947370559 43.72000000067055,257.09836062043905 52.3600000012666,251.54919868521392 50.74000000022352,236.28897115122527 25.90000000037253,232.12708271527663 17.259999999776483,242.5317972144112 21.040000000968575,255.017425626982 48.040000000968575,253.63013514317572 54.519999999552965,239.06356148794293 45.87999999895692,231.43343429919332 21.040000000968575,233.51437924895436 18.88000000268221,241.83815026516095 26.440000001341105,259.1792947370559 45.34000000171363,257.09836062043905 51.81999999843538,237.67626651376486 18.88000000268221,238.369914048817 21.040000000968575,252.93648975528777 33.459999999031425,257.79200542438775 52.3600000012666,250.85555300442502 49.66000000201166,234.2080273698084 15.640000000596046,239.06356148794293 24.819999998435378,258.4856501305476 36.69999999925494,257.79200542438775 49.119999999180436,254.3237804346718 52.90000000037253,236.9826188813895 19.96000000089407,237.67626651376486 21.040000000968575,255.017425626982 40.48000000230968,258.4856501305476 53.980000000447035,249.46826134761795 46.96000000089407,234.90167539427057 22.119999999180436,234.2080273698084 15.640000000596046,242.5317972144112 28.600000001490116,255.017425626982 45.87999999895692,253.63013514317572 52.90000000037253,236.9826188813895 45.87999999895692,230.73978578671813 17.259999999776483,239.06356148794293 21.580000000074506,252.24284426867962 37.24000000208616,257.79200542438775 53.980000000447035,246.69367686612532 51.27999999932945,236.28897115122527 19.41999999806285,236.9826188813895 21.580000000074506,255.71107072290033 42.09999999962747,258.4856501305476 53.43999999947846,243.22544406633824 47.5,235.59532332140952 30.219999998807907,233.51437924895436 16.720000000670552,243.91909082233906 27.519999999552965,257.79200542438775 44.80000000074506,257.09836062043905 54.519999999552965,242.5317972144112 48.040000000968575,233.51437924895436 20.5,236.28897115122527 22.119999999180436,253.63013514317572 36.16000000014901,257.09836062043905 51.81999999843538,250.85555300442502 49.119999999180436,235.59532332140952 18.33999999985099,237.67626651376486 23.740000000223517,257.09836062043905 47.5,257.09836062043905 54.519999999552965,243.91909082233906 39.40000000037253,232.12708271527663 24.819999998435378,232.82073103031144 18.33999999985099,248.0809693033807 23.200000001117587,257.09836062043905 46.96000000089407,256.4047157210298 48.57999999821186,234.90167539427057 26.440000001341105,232.12708271527663 16.720000000670552,247.38732313271612 29.679999999701977,257.09836062043905 48.040000000968575,255.017425626982 46.96000000089407,233.51437924895436 24.819999998435378,232.82073103031144 17.800000000745058,241.1445032185875 22.66000000014901,256.4047157210298 43.72000000067055,257.09836062043905 52.90000000037253,241.83815026516095 46.96000000089407,234.90167539427057 24.819999998435378,232.12708271527663 15.640000000596046,245.3063840395771 25.90000000037253,256.4047157210298 49.119999999180436,253.63013514317572 51.27999999932945,235.59532332140952 42.09999999962747,232.12708271527663 27.519999999552965,231.43343429919332 17.259999999776483,248.0809693033807 44.80000000074506,255.017425626982 53.980000000447035,240.4508560714312 43.18000000156462,230.73978578671813 19.96000000089407,235.59532332140952 19.41999999806285,251.54919868521392 49.119999999180436,254.3237804346718 53.980000000447035,246.00003050314263 43.18000000156462,232.12708271527663 16.180000001564622,243.22544406633824 23.740000000223517,255.017425626982 47.5,254.3237804346718 53.43999999947846,238.369914048817 45.34000000171363,234.2080273698084 17.259999999776483,241.83815026516095 24.279999999329448,255.71107072290033 46.42000000178814,253.63013514317572 53.43999999947846,246.69367686612532 48.57999999821186,232.82073103031144 18.88000000268221,235.59532332140952 15.099999999627471,246.00003050314263 24.279999999329448,256.4047157210298 45.87999999895692,252.93648975528777 52.3600000012666,236.9826188813895 44.25999999977648,232.12708271527663 21.040000000968575,232.82073103031144 16.180000001564622,241.83815026516095 25.3600000012666,255.71107072290033 48.040000000968575,252.93648975528777 52.90000000037253,237.67626651376486 45.34000000171363,234.2080273698084 24.819999998435378,232.82073103031144 16.180000001564622,243.91909082233906 25.3600000012666,256.4047157210298 46.96000000089407,254.3237804346718 53.980000000447035,247.38732313271612 45.34000000171363,231.43343429919332 21.580000000074506,232.82073103031144 17.800000000745058,241.1445032185875 27.519999999552965,255.71107072290033 51.27999999932945,252.93648975528777 55.600000001490116,244.61273747915402 45.87999999895692,233.51437924895436 21.040000000968575,234.90167539427057 17.259999999776483,244.61273747915402 28.600000001490116,257.09836062043905 49.66000000201166,252.93648975528777 55.059999998658895,243.91909082233906 43.18000000156462,231.43343429919332 20.5,234.90167539427057 16.720000000670552,247.38732313271612 26.440000001341105,257.09836062043905 49.119999999180436,252.93648975528777 48.040000000968575,233.51437924895436 26.97999999858439,232.12708271527663 16.720000000670552,246.00003050314263 23.740000000223517,255.71107072290033 51.27999999932945,250.85555300442502 50.74000000022352,235.59532332140952 40.48000000230968,231.43343429919332 25.3600000012666,232.12708271527663 17.800000000745058,248.0809693033807 34.0,256.4047157210298 50.74000000022352,252.24284426867962 46.42000000178814,232.12708271527663 18.33999999985099,238.369914048817 29.679999999701977,257.09836062043905 48.57999999821186,254.3237804346718 55.600000001490116,247.38732313271612 48.040000000968575,232.82073103031144 24.279999999329448,232.82073103031144 18.33999999985099,246.69367686612532 26.440000001341105,255.71107072290033 49.66000000201166,254.3237804346718 55.059999998658895,246.00003050314263 43.18000000156462,232.82073103031144 20.5,235.59532332140952 17.259999999776483,244.61273747915402 28.600000001490116,257.09836062043905 51.27999999932945,252.93648975528777 55.059999998658895,244.61273747915402 43.18000000156462,232.12708271527663 19.96000000089407,235.59532332140952 21.040000000968575,252.93648975528777 53.43999999947846,250.85555300442502 50.20000000111759,234.90167539427057 39.93999999947846,231.43343429919332 21.580000000074506,233.51437924895436 16.720000000670552,247.38732313271612 24.819999998435378,255.71107072290033 51.81999999843538,251.54919868521392 54.519999999552965,242.5317972144112 40.48000000230968,232.12708271527663 18.88000000268221,236.9826188813895 19.96000000089407,252.93648975528777 50.74000000022352,252.93648975528777 49.66000000201166,234.90167539427057 38.32000000029802,232.82073103031144 23.200000001117587,233.51437924895436 15.640000000596046,246.69367686612532 45.34000000171363,255.71107072290033 52.90000000037253,241.1445032185875 46.96000000089407,234.90167539427057 22.119999999180436,234.2080273698084 16.180000001564622,248.7746153739281 46.42000000178814,255.71107072290033 54.519999999552965,241.83815026516095 38.32000000029802,232.12708271527663 25.3600000012666,232.82073103031144 17.259999999776483,248.7746153739281 32.380000000819564,257.79200542438775 51.27999999932945,253.63013514317572 49.66000000201166,234.90167539427057 39.93999999947846,232.12708271527663 19.41999999806285,238.369914048817 17.259999999776483,249.46826134761795 29.679999999701977,256.4047157210298 53.43999999947846,248.7746153739281 45.34000000171363,232.82073103031144 33.459999999031425,232.12708271527663 21.040000000968575,234.90167539427057 17.800000000745058,251.54919868521392 49.66000000201166,253.63013514317572 50.20000000111759,235.59532332140952 39.93999999947846,231.43343429919332 18.33999999985099,236.28897115122527 20.5,254.3237804346718 52.3600000012666,250.85555300442502 49.66000000201166,234.90167539427057 39.93999999947846,232.12708271527663 23.740000000223517,234.2080273698084 16.720000000670552,250.85555300442502 49.66000000201166,254.3237804346718 52.3600000012666,238.369914048817 32.380000000819564,232.12708271527663 21.040000000968575,234.90167539427057 19.41999999806285,251.54919868521392 52.90000000037253,250.1619072263129" stroke="#4dd2ff" stroke-linecap="round" stroke-linejoin="round" stroke-width="0.5"><title>2020-11-29 10.4km</title></polyline></svg>