<?xml version="1.0" encoding="utf-8" ?>
<svg baseProfile="full" height="300mm" version="1.1" viewBox="0,0,200,300" width="200mm" xmlns="http://www.w3.org/2000/svg" xmlns:ev="http://www.w3.org/2001/xml-events" xmlns:xlink="http://www.w3.org/1999/xlink"><defs /><rect fill="#222222" height="300" width="200" x="0" y="0" /><text fill="#FFFFFF" style="font-size:12px; font-family:Arial; font-weight:bold;" x="10" y="20">Over 10km Runs</text><text fill="#FFFFFF" style="font-size:4px; font-family:Arial" x="10" y="280">ATHLETE</text><text fill="#FFFFFF" style="font-size:9px; font-family:Arial" x="10" y="290">Abuqi</text><text fill="#FFFFFF" style="font-size:4px; font-family:Arial" x="120" y="280">STATISTICS</text><text fill="#FFFFFF" style="font-size:3px; font-family:Arial" x="120" y="285">Number: 12</text><text fill="#FFFFFF" style="font-size:3px; font-family:Arial" x="120" y="290">Weekly: 1.1</text><text fill="#FFFFFF" style="font-size:3px; font-family:Arial" x="141" y="285">Total: 173.0 km</text><text fill="#FFFFFF" style="font-size:3px; font-family:Arial" x="141" y="290">Avg: 14.4 km</text><text fill="#FFFFFF" style="font-size:3px; font-family:Arial" x="167" y="285">Min: 10.0 km</text><text fill="#FFFFFF" style="font-size:3px; font-family:Arial" x="167" y="290">Max: 21.6 km</text><polyline fill="none" points="35.12981132091954,53.87982451310381 32.84754716977477,56.12946776140598 32.236226415261626,60.994928771979176 28.609056604094803,63.40147738810629 26.20452830195427,67.42979570411262 25.79698113212362,69.36546562949661 26.408301887102425,70.56871483667055 32.48075471702032,72.92288682449725 36.10792452841997,79.61911689332919 40.550188679480925,79.46217537895427 42.38415094348602,80.24688228970626 44.74792452855036,84.58889731168165 46.215094339801,85.63515842330526 52.002264150884,85.11202823466738 56.40377358510159,82.86256005178438 57.21886792453006,80.87464662801358 57.259622641606256,74.96315717688412 58.27849056618288,70.15019381421735 66.91849056631327,53.77518961273017 66.06264150957577,49.74672359076794 64.6362264151685,48.020224812295055 30.483773585176095,33.998665522260126 29.383396226447076,35.04506877443055 26.571320754708722,42.422128262987826 20.661886792629957,51.3162609890569 20.21358490572311,52.676521383284125 22.740377358626574,55.030806477647275 22.00679245311767,60.105548173742136 17.809056604048237,66.80200870291446 17.64603773597628,73.2890900184284 14.752452830318362,75.01547165427473 13.448301886906847,77.31730138708372 14.10037735849619,79.35754766594619 15.771320754662156,81.24084200331708 18.950188679387793,81.39778276818106 20.784150943392888,82.70561990395072 15.567547169979662,81.45009634186863 13.081509433919564,78.83440865983721 13.0,76.89878794827382 14.059622641652822,75.12010058714077 17.116226415149868,72.71362769478583 17.36075471714139,66.54043047336745 21.72150943404995,59.58238212388824 22.740377358626574,54.926171900413465 26.44905660371296,52.10102720733266 27.83471698104404,48.438770705717616 29.22037735884078,47.235449994012015 31.013584905769676,46.55531048044213 34.72226415108889,47.758633389894385 36.14867924549617,49.95599562613643 36.14867924549617,53.93214195233304 33.86641509458423,55.9201991953305 32.15471698110923,61.30882729959558 29.301886792760342,63.03526447151671 26.20452830195427,67.69137330894591 26.20452830195427,69.94093312666519 27.875471698353067,71.40575547053595 32.236226415261626,72.81825727433898 33.621886792359874,74.23075372097082 35.252075471915305,78.93903651984874 36.84150943416171,79.88068593706703 40.3464150945656,79.61911689332919 42.79169811331667,81.71166409965372 44.503396226558834,84.7981497690489 45.848301886813715,85.53053244430339 51.18716981145553,85.21665433130693 56.64830188709311,82.0778586519591 57.137358490610495,74.02149532610201 58.19698113226332,69.99324830959085 66.83698113216087,53.98445938428631 66.38867924525402,50.47917519995826 64.43245283025317,48.07254307466792 30.524528302019462,33.89402503546444 29.34264150937088,34.88810847411514 20.05056603765115,51.734803177881986 20.295094339642674,52.88579177198699 22.455094339791685,54.76921997993486 21.640000000130385,59.73933201585896 17.116226415149868,67.32516461075284 17.279245282988995,73.02751634520246 14.589433962479234,75.01547165427473 13.366792452987283,77.31730138708372 13.448301886906847,78.7820947188884 15.893584905657917,81.39778276818106 19.561509434133768,82.13017212998238 15.608301886823028,81.29315559889073 13.244528301991522,78.62515285174595 13.0,77.16035890253261 14.018867924576625,75.06778612436028 16.95320754731074,72.81825727433898 17.401509433984756,66.38348344745464 19.92830188688822,63.29684516301495 21.680754716973752,59.63469876188901 22.699622641550377,55.030806477647275 26.89735849061981,51.52553214234649 28.52754716994241,47.60167844832176 31.217358490685,46.29371802910464 35.33358490560204,48.38645249482943 36.596981132170185,52.31029791975743 33.54037735844031,56.23410200039507 32.35849056625739,60.994928771979176 29.138867924688384,62.930632143397816 26.000754717038944,67.58674228916061 26.286037736106664,70.51639973453712 32.84754716977477,73.23677529854467 35.82264150958508,79.46217537895427 41.69132075482048,80.7700193117198 44.29962264187634,85.007402108924 45.76679245289415,86.10597496456467 52.57283018878661,85.1643412867852 56.56679245294072,82.33942596890847 57.544905660441145,71.56270037996 59.29735849075951,67.01127115410054 66.7962264153175,53.87982451310381 66.06264150957577,50.21758550484083 64.92150943400338,48.75267981711659 58.97132075484842,45.927488288492896 30.320754717104137,34.15562619763659 29.138867924688384,34.940428581496235 19.68377358512953,52.15334489650559 20.21358490572311,53.51360223296797 22.37358490587212,54.82153729410493 22.00679245311767,58.43141422679764 19.92830188688822,62.773683596227784 16.95320754731074,66.85432432664675 16.749433962395415,68.47610502122552 22.1290566038806,58.84994841917069 23.22943396237679,54.55995064924355 26.693584905704483,51.99639180707163 28.89433962269686,47.44472344065434 32.0324528303463,46.65994740955648 35.74113207543269,49.06658866396174 36.51547169848345,52.571886144723976 33.37735849083401,56.914223836909514 32.643773585092276,60.36713092305581 28.731320754857734,63.55842567066429 26.04150943411514,67.79600429942366 26.408301887102425,70.67334501881851 32.35849056625739,72.92288682449725 35.089056603843346,78.83440865983721 36.67849056608975,79.77605834166752 40.46867924556136,79.88068593706703 42.465660377638415,81.50240990819293 45.155471698148176,85.68747140170308 52.532075471943244,85.11202823466738 54.855094339931384,83.9611392338993 56.81132075493224,81.97323167373543 57.137358490610495,75.06778612436028 58.27849056618288,69.94093312666519 66.59245283040218,54.612267993041314 67.0,52.46725087662344 66.22566037764773,50.16526754383813 65.04377358499914,48.59572529455181 38.227169811492786,37.60874431495904 38.6754716981668,37.974982237035874 37.73811320774257,41.16646888368996 35.00754716992378,46.81690274816356 36.84150943416171,50.47917519995826 36.10792452841997,54.089094225899316 36.96377358515747,50.06063159968471 34.47773584909737,45.71821398937027 38.34943396248855,37.294825809425674 30.80981132085435,33.94634528248571 29.58716981159523,34.992748681717785 20.172830188646913,52.46725087662344 22.699622641550377,55.187758287996985 21.96603773604147,59.58238212388824 17.564528302056715,67.06358674867079 17.442264151060954,72.97520158844418 13.40754716983065,77.00341635209043 13.733584905974567,79.1482921516872 15.4452830189839,81.13621478993446 13.774339622585103,79.67143071684404 13.244528301991522,76.48027403929154 17.279245282988995,72.81825727433898 17.523773584980518,67.01127115410054 22.088301887037233,59.37311549796141 22.699622641550377,55.6062961256539 26.978867924772203,51.94407409604173 28.731320754857734,47.758633389894385 30.80981132085435,46.71226586314151 35.089056603843346,48.54340710569522 36.189433962339535,50.21758550484083 35.98566037742421,52.62420376756927 33.37735849083401,55.135441025253385 35.86339622642845,54.29836382099893" stroke="#ff0a00" stroke-linecap="round" stroke-linejoin="round" stroke-width="0.5"><title>2023-07-01 21.2km</title></polyline><polyline fill="none" points="93.07053276221268,33.582621397828916 97.71345035731792,36.36126265369239 99.0749073966872,40.125834772217786 100.92509260377847,39.54322532660444 103.47346090781502,40.753259138786234 104.93964541144669,39.991386532987235 105.00946372118779,38.870982336375164 103.96218907576986,37.123143930599326 100.92509260377847,35.823463009495754 98.37672429950908,33.0 96.35199331818148,35.24084570497507 98.16726937051862,36.94387791157351 98.72581584798172,40.170650839369046 97.81817782204598,36.854244864254724 93.10544191719964,33.71707233847701 91.56943910382688,33.672255364625016 86.9265215084888,42.097735768184066 86.64724826975726,44.0696245735453 80.88723771949299,53.34630151189049 80.6777827902697,55.40774863772094 79.24650744139217,57.962132029089844 82.0741489843931,59.306536124204285 84.58760813367553,57.82769130784436 85.94906517281197,54.78035309663392 88.70688840583898,52.94297334202565 91.95343980728649,53.525558312627254 93.55926093016751,54.959609091456514 93.90835247887298,57.46918244101107 90.62689192290418,61.09906610377948 90.13816375494935,65.04259660211392 87.13597643771209,67.19359268943663 84.44797151419334,71.18185955652734 84.34324404969811,72.30215026790393 85.87924686307088,74.40828615461942 88.88143418030813,75.03564309264766 91.25525671010837,76.73846284812316 93.03562360745855,81.21952403598698 99.03999824193306,82.47420988915837 100.43636443582363,85.29723501697299 102.32145879766904,86.73114297541906 107.55783202545717,85.92457054179977 110.17601863923483,84.40103927013115 111.43274821387604,82.51902000690461 111.43274821387604,77.63468012117664 113.07347849174403,71.09223612962523 119.56658129394054,59.306536124204285 119.25239890022203,55.721445945382584 120.75349255884066,57.60362331336364 120.26476439088583,59.97873604687629 112.93384187249467,73.3776256495621 111.71202145260759,83.72889080777531 109.30328976782039,85.83495125648915 105.11419118568301,87.0 101.20436584251001,86.23823784163687 99.14472570642829,82.7430705014558 97.25963134458289,81.66762669273885 92.96580529771745,81.39876517420635 90.55707361316308,76.37997523377999 88.74179756082594,74.99083192364196 85.70470108883455,74.40828615461942 84.65742644341663,73.2431914251647 84.44797151419334,70.77855393727077 86.89161235373467,66.70065736726974 89.82398136123084,64.77372107130941 90.48725530318916,60.9646267046046 93.07053276221268,58.09657269352465 93.48944262042642,56.52809474879177 92.96580529771745,54.86998110651621 92.02325811679475,54.01851399493171 89.30034403828904,53.25667307374533 87.13597643771209,54.10814221901819 85.4952461598441,57.91731846157927 82.24869475862943,60.47168175675324 81.72505743568763,63.743029437289806 80.36360039678402,65.98365917499177 82.17887644888833,60.33724209331558 85.18106376612559,58.00694559013937 86.54252080526203,54.735539082146715 87.90397784439847,53.43592992471531 90.13816375494935,53.12223036927753 92.79125952348113,54.33221266901819 93.7687158593908,55.721445945382584 93.245078536449,58.49989434707095 90.80143769690767,60.78537408448756 90.2778003741987,64.63928322098218 87.13597643771209,67.14878041899647 84.76215390791185,71.09223612962523 84.62251728842966,72.75026545088622 85.46033700485714,74.2290410885762 89.335253193276,75.12526541153784 90.83634685189463,76.24554227470071 93.07053276221268,81.44357544297236 94.39708064659499,81.93648798478534 96.94544895086437,81.48838570556836 99.17963486118242,82.47420988915837 100.47127359057777,85.56609325006139 101.7978214751929,86.64152391679818 107.03419470251538,86.41747616021894 111.18838412989862,83.68408085999545 111.78183976211585,82.20534905028762 111.71202145260759,77.41062603885075 113.63202496943995,70.6441186175507 119.98549115215428,59.127282572182594 119.56658129394054,55.90070141130127 120.02040030714124,56.61772226760513 118.44948833878152,54.51146891564713 119.95058199740015,56.34883963534958 120.29967354587279,58.81358861390618 119.84585453267209,55.721445945382584 117.40221369336359,53.30148729600478 96.31708416342735,44.293702075461624 98.34181514475495,40.79807511775289 99.91272711288184,39.588041475682985 103.99709823075682,40.66362716202275 105.3236461149063,39.722489884792594" stroke="#4dd2ff" stroke-linecap="round" stroke-linejoin="round" stroke-width="0.5"><title>2023-06-23 11.0km</title></polyline><polyline fill="none" points="185.06615269836038,78.44238097189373 181.2521760756499,77.68340606553829 179.72121362842154,76.5449348964321 176.47127580211964,75.49270214239368 174.8865953743225,74.59570971327048 171.36806764488574,73.26745886987192 168.0106938572717,72.33594969356636 162.08828649594216,71.71493964394176 158.75777169852518,70.28315448662761 154.7154936583247,66.21196314757981 152.83536433719564,65.33215403259965 147.08754041284556,61.2262946678311 145.15369311114773,58.75926260527922 143.54215369309532,57.586111058051756 142.79010196472518,55.998888151363644 141.218851032143,53.68702671213396 138.6269584679976,51.32336209873756 136.80054712755373,48.42479144372919 135.90077095251763,47.7691528604264 135.13528972893255,46.71667306355084 134.11464809748577,44.766973494159174 133.0,41.40237473970046 135.36359114648076,46.88921135459532 137.20343198208138,48.78711652451602 138.61352897289908,51.13357683161303 141.32628699328052,53.73878528127534 142.88410843070596,55.912625448014296 143.71673713007476,57.63786798073852 145.5297189753619,59.104305041189946 147.15468788857106,61.20904286780569 152.88908231788082,65.26314912907401 154.76921163895167,66.21196314757981 158.65033573738765,69.97264465571061 160.12758020398906,70.83517002199369 158.8920666500344,70.35215656454238 154.6214871922275,66.14295873935043 152.338473016629,64.969877855714 146.69808505347464,60.84675450543 145.42228301422438,59.05254873773811 143.3809997512726,57.34457846332225 142.65580701315776,55.77460499633162 141.1919920417713,53.63526812118653 138.64038796321256,51.25434930829215 137.96891320566647,50.270912822990795 139.23128574976,51.77194428896473 141.29942800290883,53.58350950836757 142.9243969161762,55.96438307730568 143.6361601591925,57.51710179386282 145.44914200447965,58.94903606521984 146.98010445159161,61.01927290675667 152.32504352158867,64.86637018002511 154.66177567769773,66.09120540764707 158.7980601840536,70.19690183471539 161.98085053468822,71.4906852418062 166.6677443422377,72.23244823706045 167.79582193482202,72.14619695662259 170.37428500375245,72.88795598580327 179.4526237254613,76.33793900258024 181.38647102715913,77.7696534505958 182.23252922156826,77.68340606553829 184.2335239990498,78.23538828156597 187.0,78.44238097189373 185.80477493163198,78.59762526030681 184.98557572741993,78.51137845767516 185.28102462075185,78.42513159439841" stroke="#4dd2ff" stroke-linecap="round" stroke-linejoin="round" stroke-width="0.5"><title>2023-05-28 13.0km</title></polyline><polyline fill="none" points="36.24718256946653,110.26168536551995 35.76033057831228,113.3345156198775 32.92036063107662,115.88650782665354 32.55522163794376,119.74050357556553 28.61983471084386,123.33405811048578 25.982719759689644,127.29213583702222 25.820435762405396,129.42739706329303 27.078136739321053,131.30225043941755 31.09466566494666,132.1355155633064 32.92036063107662,133.48956739524147 35.6791885800194,139.5827394425287 41.27798647619784,140.05144083691994 45.25394440279342,145.25919424195308 47.72877535689622,145.93619681193377 53.4087152518332,144.7384221930115 57.10067618335597,141.1971528622962 57.587528174277395,132.65630531468196 60.062359128380194,125.99014124902897 66.83771600318141,113.80325019953307 67.0,111.77206274130731 66.14800901571289,109.79294630809454 64.72802404221147,108.38672557959217 41.44027047348209,98.17844482007786 30.202103681396693,94.32422489818418 25.94214876019396,103.59511859773193 22.615326822036877,107.70965443746536 20.383921863278374,112.29288109909976 23.38617580756545,113.64700540545164 26.347858752822503,111.61581709128222 27.808414725819603,108.07423135996214 29.471825695130974,106.5638389181695 32.67693463573232,105.9388471422717 34.94891059352085,106.87633441094658 36.6934635611251,109.27212443802273 36.936889556702226,112.24079929629806 34.340345604810864,115.93858911740244 32.83921863255091,121.0425201121252 29.106686701532453,123.49029882196919 26.469571750611067,127.76085276945378 26.834710743743926,130.57314191979822 32.63636363646947,132.7083842495049 33.812922614626586,134.11451272663544 34.82719759573229,137.86416259384714 36.16604057117365,139.42650551290717 40.872276483802125,139.53066147325444 42.65740045090206,140.36390810404555 45.90308039076626,145.31127140665194 49.18933132989332,145.57165712025017 53.48985725012608,144.68634494792786 56.857250187778845,141.97831812227378 57.26296018017456,134.3749063037685 58.317806160775945,130.15650783621822 66.83771600318141,113.54284217298846 66.67543200613,110.93875184669741 65.17430503387004,108.80338412916171 30.7295266718138,94.16797189414501 29.14725770102814,95.93883541881223 20.383921863278374,112.34496289474191 23.345604808302596,113.95949492757791 26.22614575526677,111.87622647138778 29.187828700290993,106.61592151864897 30.972952667158097,105.78259903355502 34.13749060849659,106.09509518486448 36.6934635611251,108.12631374810007 37.05860255449079,112.13663566872128 33.93463561218232,116.66772641890566 33.528925619786605,119.89674580137944 32.39293764089234,121.511244946043 29.2689706988167,123.22989759984193 26.469571750611067,127.34421552557615 26.388429752085358,129.7398732844449 27.60555972950533,131.2501713070087 33.36664162273519,133.43748857008177 35.96318557485938,139.27027151710354 41.0751314801164,139.5827394425287 43.38767843716778,141.4054637591471 45.33508640131913,144.9988083089993 47.2419233659748,145.67581135447836 50.609316303627566,145.57165712025017 53.77385424496606,144.3738813236705 56.97896318556741,141.30130832528812 57.303531179670244,134.16659145677113 58.43951915856451,129.42739706329303 66.91885800147429,113.59492379284347 66.79714500368573,111.56373519316548 65.25544703216292,109.01171322859591 49.79789631860331,101.77220837413915 30.283245680155233,94.2200562361686 20.221637866226956,112.29288109909976 23.142749811988324,113.95949492757791 26.14500375650823,111.77206274130731 27.848985725082457,108.07423135996214 30.120961682870984,106.19926051030052 33.77235161536373,106.14717785123503 36.734034560620785,108.02214896446094 37.18031555227935,111.04291581100551 36.61232156283222,113.1782706285012 34.09691960946657,116.04275167686865 33.04207362886518,120.52171404621913 29.14725770102814,123.33405811048578 26.388429752085358,127.70877313960227 26.388429752085358,130.05234924214892 27.808414725819603,131.35432956455043 30.52667167549953,131.9271994579467 33.12321562739089,133.5416462131834 35.719759579282254,139.27027151710354 41.521412471774966,139.73897330655018 43.42824943643063,141.4054637591471 45.53794139740057,145.1550398906693 50.36589030805044,145.5195799919893 54.098422239068896,144.47803589433897 57.141247182385996,141.45754146506079 57.303531179670244,134.27074889504001 58.398948159534484,129.84403196626226 66.79714500368573,114.1157395899645 66.63486100663431,110.7825058454182 64.84973704000004,108.43880792387063 30.404958677710965,94.06380318806623 20.05935386917554,112.60537176267826 22.6558978210669,114.01157648893422 25.65815176581964,112.34496289474191 27.88955672411248,107.60548953645048 30.120961682870984,106.19926051030052 34.13749060849659,106.35550844323006 36.53117956430651,108.07423135996214 37.018031555227935,111.71998086528038 36.20661157020368,113.69908701069653 33.69120961683802,116.14691420691088 33.2043576259166,120.52171404621913 28.903831705683842,123.59445925964974 26.22614575526677,127.70877313960227 26.30728775355965,129.7398732844449 27.402704733191058,131.19809216732392 30.688955672318116,131.82304136134917 32.83921863255091,133.17709433453274 36.16604057117365,139.42650551290717 41.602554470300674,139.7910512467206 43.549962434219196,141.71792988511152 44.48309541703202,144.53011316878838 45.70022539421916,145.31127140665194 50.73102930141613,145.5195799919893 54.13899323833175,144.47803589433897 56.938392186304554,141.77000754710753 57.74981217132881,130.62522114723106 66.79714500368573,113.23035229960806 66.3102930127643,110.26168536551995 64.56574004492722,108.17839612910757 40.42599549214356,97.81385816523107 30.283245680155233,94.2200562361686 20.26220886548981,112.18871748622041 20.586776859592646,113.3345156198775 22.89932381687686,115.00112476557842 22.45304282498546,118.80304883763893 17.462809917284176,127.24005614136695 17.706235912628472,132.65630531468196 13.689706987235695,136.9788320173975 14.176558978157118,139.37442752157222 15.83996994746849,141.1971528622962 19.369646881939843,141.45754146506079 21.235912847565487,142.96779175568372 15.596543952124193,141.24923059745925 13.770848985761404,139.42650551290717 13.0,137.39545843427186 14.541697971522808,134.63529969821684 17.259954921202734,132.86462101043435 17.543951915809885,126.71925878160982 22.250187828671187,119.06345316930674 22.45304282498546,115.62610126362415 23.426746806828305,114.01157648893422 26.51014274964109,112.18871748622041 27.88955672411248,108.54297259048326 29.025544703239575,107.34507715643849 31.297520661260933,106.40759107287158 34.259203606285155,107.34507715643849 36.12546957167797,109.06379548521363 36.734034560620785,111.09499778220197 33.894064613152295,116.66772641890566 32.83921863255091,120.73003656041692 29.106686701532453,123.54237904437468" stroke="#ff0800" stroke-linecap="round" stroke-linejoin="round" stroke-width="0.5"><title>2023-05-21 21.2km</title></polyline><polyline fill="none" points="124.90760059619788,138.60899471960875 121.19225037260912,137.71313960814587 118.8047690014937,136.23151869465073 116.72578241437441,135.64575664442964 115.00894187786616,134.64650903279107 110.69001490320079,133.0614788537423 107.85991058126092,132.28618488071515 101.77049180329777,131.70040395647084 98.77943368110573,130.37377209138504 97.73323397920467,129.08158437802922 94.82265275710961,126.35933096775261 92.70342771982541,125.23939901783888 87.08345752611058,121.1730984300375 85.40685543965083,118.98482145459275 83.51564828614937,117.4512812085668 82.93889716849662,116.1244949341417 81.32935916550923,113.8499707223018 78.80774962750729,111.48924559653096 77.03725782415131,108.68044033590559 75.15946348733269,106.69872913543077 74.30104321916588,105.061639161715 73.0,101.32209888023499 75.46795827127062,107.07784158601135 77.13114754093112,108.61151178921864 78.87481371092144,111.47201385890367 81.32935916550923,113.71211941182992 83.67660208645975,117.60635918518528 85.54098360659555,119.10543616470386 87.05663189274492,121.12140729902603 92.6095380030456,125.1015605313878 94.68852459016489,126.10088604243356 98.87332339788554,130.25316848180228 102.0789865872357,131.57980165361369 104.27868852461688,131.71763284716144 106.39791356190108,132.25172725690936 107.81967213121243,132.21726962332468 110.73025335324928,133.00979274156998 119.39493293594569,136.38657288590184 121.25931445608148,137.73036765289726 124.196721311484,138.40225950635067 127.0,138.69513428875507 124.26378539501457,138.47117128288664 121.19225037260912,137.78205177249765 119.16691505216295,136.3176599362123 110.54247391957324,132.95810660763527 107.95380029809894,132.30341368903464 101.91803278686712,131.63148836936307 98.85991058120271,130.391001168784 94.6080476900679,126.11811572108127 92.5692995529389,125.15324998203869 86.8822652757517,121.15586805549538 85.63487332343357,119.2777426872417 83.59612518636277,117.62359005937469 82.83159463485936,115.9866461848942 81.12816691509215,113.60873082707985 78.96870342775946,111.64433112605911 76.88971684052376,108.54258320371446 75.32041728764307,107.02614450277906 73.88524590159068,104.06214188678132 73.0402384501067,101.3048657112522 74.20715350226965,104.5446588316263 75.45454545458779,107.04337686625513 77.1982116245199,108.76660096466367 78.83457526081474,111.36862338218634 81.18181818182347,113.488110701197 83.0193740685936,116.07280167133285 83.5692995529389,117.39958850607218 85.70193740690593,119.20882010737841 86.9225037258002,120.94910337125475 92.97168405371485,125.23939901783888 94.74217585695442,126.06642667784035 98.91356184805045,130.25316848180228 102.1594634873909,131.54534383096325 108.67809239943745,132.38955769405584 114.36512667668285,134.38808159920882 108.38301043218235,132.38955769405584 106.4113263785257,132.26895606998733 104.23845007456839,131.78654838584043 102.26676602091175,131.76931950474682 98.64530551421922,130.235939385042 94.80923994042678,126.32487167593354 92.59612518630456,125.17047979404015 87.48584202688653,121.44878409364901 92.94485842029098,125.30831820287858 94.72876304027159,126.15257507112983 99.31594634870999,130.442688386378 102.038748137129,131.59703056126455 103.31296572287101,131.59703056126455 106.4918032787391,132.25172725690936 107.91356184799224,132.21726962332468 110.11326378543163,132.78581933689566 119.16691505216295,136.26597519853385 121.27272727276431,137.71313960814587 124.10283159470418,138.28166380412586" stroke="#ff0000" stroke-linecap="round" stroke-linejoin="round" stroke-width="0.5"><title>2023-05-14 21.6km</title></polyline><polyline fill="none" points="182.61467015952803,137.52846901079465 179.38675875210902,136.9172949155909 177.4577280304511,135.6123449826773 174.62848297209712,134.73686411321978 173.2781614669948,133.8778954058289 168.841390807298,132.07734445230017 166.75803762802389,131.63133215054404 165.12479161698138,131.61481314383127 163.0285782329156,131.06968461946235 160.81662300549215,131.0036082626466 157.9230769230635,129.79770821853162 156.98428197187604,128.64135407646245 153.78209097404033,125.68433953663043 152.34174803522183,125.08962370515655 150.61848059057957,123.75150206810213 149.4996427720762,123.23937740555266 146.49035484640626,120.89348749030614 145.30721600377,119.1588204304644 143.3781852821703,117.60585864808672 140.9347463681479,113.73988582288439 138.13122171949362,111.2616311377933 136.81948082882445,109.04767936418648 135.43057870917255,107.79198666309821 134.10597761365352,105.23099280157476 133.0,102.02554108974437 135.1733746129321,107.2137026114724 135.81638485356234,108.12243341332214 136.92236246727407,109.03115717901528 138.65849011664977,111.74076445740502 140.9347463681479,113.72336429825373 142.5937127887155,116.11896109204827 143.18528221006272,117.45716974008974 145.05001190758776,118.97709192166076 146.56751607521437,121.04217204550514 152.1617051679059,124.97398416583746 154.10359609429725,126.03125571359851 158.01309835672146,129.89682375788834 160.94522505352506,131.05316553371085 164.9318885448738,131.69740815402474 166.75803762802389,131.71392714903777 169.12431531312177,132.42424173776817 177.3805668015848,135.6123449826773 179.50250059535028,136.9833679441581 182.03596094303066,137.56150535779307 185.54679685633164,137.97445891025563 187.0,137.544987185458 186.96141938556684,137.29721432191582 186.16408668726217,137.42935991421837 186.0997856631875,137.82579579868616 185.30245296499925,137.82579579868616 179.59252202906646,136.9833679441581 176.82757799472893,135.36456804042245 169.70302452961914,132.50683617846516 166.5908549654414,131.59829413485568 164.89330793044064,131.58177512353723 163.1957608954399,131.18531815426832 161.11240771610755,131.2018372214079 157.58871159801492,129.7481504174939 153.8721124076983,126.01473591889953 152.07168373418972,125.12266355260363 146.3746130031068,120.99261054799717 144.9599904739298,119.10925813776703 143.1081209811964,117.572816684813 142.50369135505753,116.28417286174226 140.80614432005677,113.7564073452304 138.55560847820016,111.75728626109048 136.89664205757435,109.17985676170065 135.37913789000595,107.74241957030608 133.99023577041226,104.98315172006551 133.12860204814933,102.22381899376342" stroke="#4dd2ff" stroke-linecap="round" stroke-linejoin="round" stroke-width="0.5"><title>2023-05-07 13.6km</title></polyline><polyline fill="none" points="13.0,171.11959260783624 34.1239669425413,184.1062554004602 38.735537190921605,199.19354606163688 47.06611570343375,196.32888350030407 59.56198347080499,202.24917947279755 65.21487603336573,198.62061403261032 63.280991735868156,188.88073258416262 48.851239670068026,181.0505812014453 37.545454545877874,169.20977879012935 31.743801653385162,172.45646068337373 29.3636363632977,178.94980120379478 35.31404958758503,184.87017287721392 40.371900827623904,199.00256874621846 46.32231405004859,196.13790578197222 58.81818181835115,202.24917947279755 63.280991735868156,200.9123407008592 66.10743801668286,195.56497246411163 61.347107438370585,187.16192273015622 46.91735537163913,180.2866615781095 36.35537190083414,170.16468603454996 29.958677685819566,178.75882104341872 37.099173554219306,187.16192273015622 39.62809917423874,198.81159140274394 49.89256198424846,197.4747492497554 59.710743801668286,202.44015633279923 65.80991735588759,199.5755006141262 66.55371900834143,195.94692803604994 62.83471074420959,188.49877502652816 46.61983471084386,180.4776415239321 36.35537190083414,170.35566740273498 31.148760330863297,174.55725071718916 29.661157025024295,180.4776415239321 36.35537190083414,186.20702742773574 40.52066115755588,199.76647784980014 47.95867768675089,197.4747492497554 58.07438016589731,202.8221099723596 64.91735537257046,200.72136362595484 66.55371900834143,195.1830167856533 62.983471075072885,188.11681736179162 49.44628099165857,181.62352063704748 37.099173554219306,169.97370463912375 30.851239670068026,178.37686064105947 37.2479338850826,186.77996468963102 40.81818181835115,199.19354606163688 47.21487603336573,197.4747492497554 60.157024793326855,202.44015633279923 65.95867768581957,198.81159140274394 66.40495867747813,195.37399463844486 61.49586776923388,186.97094372322317 48.851239670068026,181.24156104004942 36.80165289249271,169.97370463912375 32.6363636367023,172.83842274942435 30.107438017614186,180.09568160492927 36.652892561629415,185.63408992404584 39.776859504170716,198.81159140274394 47.80991735588759,197.28377169161104 60.90082644671202,202.44015633279923 64.32231405004859,200.9123407008592 65.95867768581957,194.4191051053349 60.305785125121474,186.5889856289141 49.1487603308633,181.43254085164517 35.9090909101069,170.16468603454996 29.809917355887592,179.71372157905716 36.652892561629415,185.2521314539481 41.11570248007774,199.76647784980014 47.95867768675089,196.7108388574561 61.049586777575314,202.24917947279755 66.25619834754616,198.62061403261032 67.0,194.80106099927798 62.983471075072885,187.54388066357933 50.041322314180434,180.85960133571643 36.05785124003887,169.40076029265765 30.107438017614186,178.37686064105947 37.69421487674117,187.9258384888526 39.33057851251215,199.19354606163688 48.70247933920473,196.7108388574561 60.00826446246356,202.24917947279755 65.512396694161,198.62061403261032 66.55371900834143,194.99203890550416 63.57851239666343,187.9258384888526 46.17355371918529,178.75882104341872 37.3966942159459,169.20977879012935 29.661157025024295,179.1407813380938 36.35537190083414,184.29723480995744 39.776859504170716,200.148432240705 47.80991735588759,196.90181649569422 59.56198347080499,202.05820258602034 65.3636363632977,198.23865921248216 66.10743801668286,194.80106099927798 60.603305785916746,186.20702742773574 46.17355371918529,178.75882104341872 37.84297520760447,169.0187972605927 32.041322315111756,173.02940374228638 29.661157025024295,180.2866615781095 36.20661157090217,183.72429650148842 40.371900827623904,200.53038652404211 48.40495867840946,197.66572678100783 61.64462810009718,201.4852717644535 65.06611570250243,199.38452335132752 66.40495867747813,193.6551929957932 62.537190082482994,187.3529017100809 47.36363636422902,180.09568160492927 23.71074380259961,157.55985638673883 16.272727272473276,171.8835173835978 33.52892562095076,182.57841915963218 40.07438016589731,200.53038652404211 46.024793388321996,196.90181649569422 61.49586776923388,201.67624873109162 66.25619834754616,197.85670428490266 65.6611570250243,191.1724756746553 58.07438016589731,184.1062554004602 43.793388430029154,176.84901795955375 34.71900826506317,165.39014310378116 23.26446281094104,157.55985638673883 15.677685950882733,169.78272321715485 37.2479338850826,184.67919354815967 40.22314049676061,199.5755006141262 46.61983471084386,195.94692803604994 61.94214876089245,201.29429476999212 66.40495867747813,193.6551929957932 63.42975206673145,188.30779620737303 49.297520661726594,181.24156104004942 34.86776859499514,165.00817894469947 24.305785125121474,157.55985638673883 15.677685950882733,170.73763005936053 35.01652892678976,182.76939878345001 39.62809917423874,199.38452335132752 50.19008264504373,197.09279410727322 60.157024793326855,202.05820258602034 65.80991735588759,198.429636635934 65.95867768581957,192.31834577128757 62.090909090824425,186.97094372322317 43.94214876089245,177.0399983888492 35.31404958758503,165.77210715552792 23.413223141804338,157.1778900276404 15.380165290087461,170.54664874449372 34.71900826506317,182.57841915963218 40.371900827623904,199.95745505893137 46.91735537163913,196.90181649569422 62.23966942168772,201.29429476999212 66.55371900834143,194.61008306557778 61.049586777575314,186.77996468963102 45.727272727526724,179.1407813380938 35.01652892678976,166.15407109993976 22.96694215014577,157.75083952664863 15.528925620019436,169.97370463912375 36.50413223169744,182.3874395089224 38.88429752085358,198.23865921248216 47.06611570343375,196.13790578197222 61.19834710750729,201.10331774840597 64.47107438091189,199.76647784980014 66.25619834754616,194.4191051053349 60.305785125121474,186.5889856289141 47.661157025024295,180.09568160492927 37.099173554219306,169.59174176852684 32.487603305839,172.0744985108031 29.958677685819566,178.94980120379478 36.652892561629415,182.3874395089224 39.776859504170716,198.81159140274394 47.51239669509232,196.32888350030407 62.23966942168772,201.29429476999212 66.7024793382734,194.03714910452254 61.94214876089245,186.97094372322317 47.21487603336573,179.3317614448024 23.26446281094104,158.32378878432792 15.677685950882733,169.78272321715485 35.9090909101069,182.0054801265942 39.925619835965335,199.19354606163688 48.10743801668286,196.51986119290814 60.90082644671202,202.05820258602034 65.80991735588759,199.19354606163688 65.512396694161,192.50932402699254 61.19834710750729,186.77996468963102 47.51239669509232,179.52274152543396 35.31404958758503,165.58112514263485 23.71074380259961,158.13280572521035 17.462809917517006,165.19916103722062 17.01652892678976,171.11959260783624 35.7603305792436,181.62352063704748 40.22314049676061,199.5755006141262 46.76859504263848,197.28377169161104 56.586776859126985,201.4852717644535 63.42975206673145,201.29429476999212 66.7024793382734,196.7108388574561 65.6611570250243,192.12736748857424 57.479338843375444,184.1062554004602 46.61983471084386,180.09568160492927 36.652892561629415,170.35566740273498 31.595041322521865,174.17528913437854 29.3636363632977,180.09568160492927 35.01652892678976,182.19645983097143 40.07438016589731,200.148432240705 47.95867768675089,197.28377169161104 60.305785125121474,202.05820258602034 65.95867768581957,199.00256874621846 65.95867768581957,192.89128045691177 60.157024793326855,186.3980065418873 45.87603305839002,179.1407813380938 23.859504132531583,158.32378878432792 15.975206611678004,171.3105738417944 36.05785124003887,183.34233749494888 40.371900827623904,200.53038652404211 46.471074379980564,196.7108388574561 61.49586776923388,201.8672256715363 66.25619834754616,198.62061403261032 65.95867768581957,192.89128045691177 59.85950413253158,186.3980065418873 47.21487603336573,180.4776415239321 35.462809917517006,166.5360349364346 23.71074380259961,159.2787036773516 16.272727272473276,168.63683412177488 36.20661157090217,184.87017287721392" stroke="#4dd2ff" stroke-linecap="round" stroke-linejoin="round" stroke-width="0.5"><title>2023-05-01 14.7km</title></polyline><polyline fill="none" points="73.0,171.01348835625686 94.84615384601057,183.06157850392628 99.76923076994717,199.84972863656003 108.07692307699472,197.28214219247457 121.30769230797887,202.0222981175175 126.69230769202113,196.6896215772722 124.38461538497359,189.97437048866414 106.0769230760634,181.08648883563 96.5384615380317,169.63091402908321 94.23076923098415,169.82842473045457 87.92307692300528,180.69147056876682 95.76923076901585,185.431682442897 100.38461538404226,200.6397542906925 107.30769230797887,197.4796490080189 118.53846153896302,202.61481648415793 122.84615384601057,202.0222981175175 126.69230769202113,195.8995937028667 124.07692307699472,189.1843388399575 94.5384615380317,169.43340330023784 87.61538461502641,180.0989429608453 94.5384615380317,184.2466309729498 100.38461538404226,200.6397542906925 107.0,197.08463534805924 120.5384615380317,202.8123225508025 126.53846153896302,197.08463534805924 122.53846153896302,188.1967986538075 109.61538461502641,181.67901602736674 96.69230769202113,168.64336010580882 91.92307692300528,171.6060197944753 87.76923076901585,179.9014337026747 97.30769230704755,187.40676600579172 99.30769230797887,200.24474151886534 108.38461538497359,197.4796490080189 121.0,202.417310390505 124.5384615380317,200.6397542906925 126.23076923005283,195.30707250523847 119.61538461595774,186.0242078031879 108.53846153896302,180.8889797157608 96.23076923098415,168.84087094583083 89.76923076808453,174.7661832466256 88.0769230760634,181.08648883563 96.07692307699472,185.03666539734695 99.4615384619683,199.6522221530322 107.30769230797887,197.08463534805924 121.30769230797887,202.2198042679811 126.23076923005283,199.45471564214677 126.69230769202113,196.09710071305744 123.0,188.98683085793164 104.23076923098415,177.92633959348314 95.92307692300528,169.03838175837882 90.53846153896302,174.17365314008202 88.69230769202113,181.48150699143298 95.76923076901585,184.2466309729498 100.38461538404226,200.04723509098403 109.0,197.67715579632204 119.9230769239366,202.8123225508025 125.0,200.44224791880697 126.69230769202113,194.91205823479686 123.0,188.1967986538075 105.4615384619683,178.91388699482195 99.76923076994717,170.61846725898795 94.69230769202113,168.4458492381964 87.92307692300528,180.29645219107624 95.92307692300528,185.23417393420823 99.61538461502641,200.44224791880697 109.0,197.67715579632204 121.92307692300528,202.61481648415793 126.69230769202113,198.26967599487398 126.53846153896302,194.1220293608494 119.0,185.03666539734695 104.69230769202113,178.71637757017743 94.84615384601057,169.03838175837882 88.5384615380317,179.50641510239802 98.0769230760634,187.60427420958877 99.0,199.6522221530322 106.84615384694189,197.87466255691834 120.0769230760634,203.00982859055512 125.15384615398943,201.2322732405737 127.0,196.09710071305744 122.23076923191547,187.40676600579172 105.76923076901585,179.30890576110687 95.0,169.43340330023784 88.84615384507924,180.0989429608453 96.07692307699472,186.0242078031879 99.0,200.44224791880697 107.46153846103698,197.08463534805924 121.92307692300528,202.2198042679811 127.0,196.09710071305744 121.15384615398943,186.2217162012821 108.69230769202113,180.493961394066 95.0,168.64336010580882 89.76923076808453,180.493961394066 96.38461538404226,184.2466309729498 99.61538461502641,201.03476695145946 108.23076923098415,198.26967599487398 118.23076923098415,202.61481648415793 124.69230769202113,200.04723509098403 126.53846153896302,196.09710071305744 120.38461538404226,185.82669937773608 106.69230769202113,179.30890576110687 97.15384615398943,169.03838175837882 94.5384615380317,169.23589254310355 89.30769230704755,180.29645219107624 96.69230769202113,186.0242078031879 98.23076923005283,199.6522221530322 106.0769230760634,197.08463534805924 122.23076923191547,202.417310390505 127.0,198.07216928945854 127.0,194.5170438538771 119.61538461595774,184.2466309729498 108.38461538497359,180.0989429608453 97.0,168.64336010580882 94.69230769202113,169.23589254310355 88.84615384507924,180.8889797157608 96.5384615380317,187.01174951496068 98.69230769202113,200.04723509098403 107.92307692300528,197.08463534805924 116.84615384694189,201.62728573440108 123.61538461595774,201.2322732405737 126.38461538497359,198.66468932188582 125.4615384619683,190.36938614665996 107.0,179.1113963915268 83.0,156.99017140944488 75.92307692300528,166.8657612951938 75.46153846103698,170.22344605007675 96.5384615380317,185.82669937773608 99.61538461502641,199.6522221530322 107.15384615398943,196.6896215772722 116.38461538497359,201.03476695145946 123.61538461595774,201.03476695145946 126.53846153896302,197.4796490080189 124.07692307699472,189.1843388399575 94.69230769202113,168.84087094583083 89.76923076808453,177.13630117254797 96.23076923098415,185.431682442897 99.76923076994717,200.04723509098403 107.61538461595774,196.2946076951921 116.69230769202113,201.42977950093336 123.30769230797887,201.42977950093336 126.38461538497359,197.08463534805924 125.0,189.97437048866414 109.92307692300528,181.48150699143298 99.92307692300528,170.61846725898795 94.84615384601057,169.63091402908321 90.07692307699472,174.7661832466256 89.15384615398943,181.28399792755954 96.5384615380317,187.40676600579172 100.07692307699472,200.6397542906925 107.92307692300528,196.6896215772722 120.69230769202113,202.417310390505 125.92307692300528,198.66468932188582 124.38461538497359,189.1843388399575 105.92307692300528,178.71637757017743 97.76923076901585,168.4458492381964 94.38461538497359,169.82842473045457 89.76923076808453,179.30890576110687 95.61538461595774,183.6541048635263 98.69230769202113,192.54197028127965 103.76923076901585,190.96190942509566 111.0,181.28399792755954" stroke="#4dd2ff" stroke-linecap="round" stroke-linejoin="round" stroke-width="0.5"><title>2023-04-20 10.0km</title></polyline><polyline fill="none" points="134.50990935630398,186.17988745784533 134.24443078815239,185.83895519568614 133.12444307879196,185.4554045669356 133.0,185.17839457182708 133.20740513136843,184.85876639580965 134.02872945152922,184.42193904107262 135.08234751882264,184.26212352589937 139.09771086191176,184.26212352589937 140.5080657551007,183.96380032882735 151.26824396988377,178.38067805958417 153.34229528342257,177.54956742098875 154.93516669227392,177.33646066017536 156.4450760485779,177.42170343642647 174.4727300660743,180.33055568778946 176.64633584266994,180.56496382639307 177.85758180977427,180.51168931315624 179.6910431709839,180.09614682388928 181.0018436011742,179.47815634201834 182.23797818404273,178.4872300460629 184.86787524964893,175.29060525033128 186.245045321848,174.76847705019463 186.96681517898105,174.81109989533434 187.0,174.9389682868059 186.65985558458488,174.99224671956472 184.68535873407382,174.1824104974221 184.28714088187553,173.82011254215467 183.1920417882793,176.1323961980961 181.74850207404234,178.18888410616637 179.98970656015445,179.54208662566816 178.9111998770968,180.01090705719253 177.73313873098232,180.30924582106672 176.20663696416887,180.40514017422538 174.41465662926203,180.245316184868 158.83438316176762,177.7200523979409 155.92241511750035,177.30449459431838 154.48717160854721,177.29383923605928 153.21785220465972,177.5176014450626 151.69135043784627,178.0290554407402 140.41680749729858,183.8146382897612 138.89860193576897,184.0490356478549 134.59287140879314,184.03838123821333 133.16592410512385,184.51782818836364" stroke="#4dd2ff" stroke-linecap="round" stroke-linejoin="round" stroke-width="0.5"><title>2023-03-17 12.5km</title></polyline><polyline fill="none" points="14.36183300014818,246.13227305416513 13.0,245.35379996079428 13.149469475611113,245.0445413083944 13.747347378113773,244.70328891788813 15.225434414867777,244.43668441922637 19.07842534215888,244.43668441922637 20.431954482541187,244.13808626788523 31.24357988621341,238.53915319934458 33.29463324617245,237.71794158218108 35.18791327078361,237.49397323374433 36.37536521605216,237.5686294234256 52.22743349222583,240.17088495238568 54.901276334014256,240.55481673213217 57.72458865138469,240.6721288326371 59.82546516993898,240.1815497503194 61.22051360909245,239.4563400752013 62.42457327386364,238.3898426578162 65.01537751808064,235.35024271144357 66.41042595723411,234.795635891016 66.97508842070238,234.8916258233221 67.0,235.05160877380695 66.31908349992591,235.05160877380695 64.50053821312031,234.17703118945064 64.33446101800655,234.05970903866546 64.34276487774332,233.86772694583487 63.01414731665864,236.57676261845336 61.477933261572616,238.53915319934458 59.966630785755115,239.62697826987278 57.99031216363073,240.3201919866624 56.3959710902418,240.46949872688128 54.610641242499696,240.30952720823552 37.122712594195036,237.5366339225584 35.520067661069334,237.36599102332548 34.28279255723464,237.42998215556145 32.813009380275616,237.7286067251116 31.476087959395954,238.27252702604892 20.407042903272668,243.94612969255104 19.028602183621842,244.24472859975504 14.31200984158204,244.23406437333324 13.12455789631349,244.68196059247566" stroke="#4dd2ff" stroke-linecap="round" stroke-linejoin="round" stroke-width="0.5"><title>2023-03-11 12.5km</title></polyline><polyline fill="none" points="81.78048780560493,229.28518217499368 82.65853658504784,245.07549370080233 104.60975609719753,235.48852626606822 100.21951219439507,224.77365316916257 82.65853658504784,224.2097116857767 80.02439024299383,243.3836775838863 104.60975609719753,235.48852626606822 100.21951219439507,225.90153589844704 80.02439024299383,225.90153589844704 76.07317073084414,234.92458629002795 82.21951219439507,242.81973871891387 97.14634146541357,240.5639824704267 101.53658536635339,229.28518217499368 77.39024390280247,226.46547714271583 80.90243902429938,244.51155507401563 99.34146341495216,241.1279216511175 103.73170731589198,230.97700424259529 79.14634146355093,225.33759457361884 75.19512195140123,232.66882559587248 82.65853658504784,243.94761636923067 99.34146341495216,240.5639824704267 103.73170731589198,229.84912294498645 94.51219512149692,223.08182848314755 78.70731707289815,225.33759457361884 84.85365853458643,244.51155507401563 104.60975609719753,232.66882559587248 98.02439024485648,223.64577012439258 80.46341463364661,224.2097116857767 82.65853658504784,243.94761636923067 93.19512195326388,243.94761636923067 104.1707317084074,232.66882559587248 82.21951219439507,223.08182848314755 74.75609756074846,226.46547714271583 78.70731707289815,238.3082249504514 103.29268292710185,234.92458629002795 101.53658536635339,227.0294183071237 83.53658536635339,222.51788676343858 75.19512195140123,240.5639824704267 100.65853658691049,240.00004320894368 105.04878048785031,232.66882559587248 84.4146341457963,223.08182848314755 73.8780487794429,233.7967061032541 83.97560975514352,242.81973871891387 99.78048780374229,238.87216444918886 101.53658536635339,226.46547714271583 77.82926829345524,225.33759457361884 73.43902439065278,233.2327658890281 81.34146341495216,242.25579977640882 100.65853658691049,238.3082249504514 103.73170731589198,230.4130636334885 83.53658536635339,223.08182848314755 74.75609756074846,231.54094477253966 77.82926829345524,244.51155507401563 103.29268292710185,238.3082249504514 100.21951219439507,224.77365316916257 86.60975609719753,223.08182848314755 75.63414634205401,230.4130636334885 76.95121951214969,240.00004320894368 92.75609756074846,241.6918607535772 103.29268292710185,234.3606462359894 101.09756097570062,225.33759457361884 82.65853658504784,223.08182848314755 73.43902439065278,233.7967061032541 76.95121951214969,241.6918607535772 92.75609756074846,242.81973871891387 105.48780487850308,230.97700424259529 83.97560975514352,224.2097116857767 75.19512195140123,232.66882559587248 80.90243902429938,243.3836775838863 102.4146341457963,236.61640597693622 102.85365853644907,228.1573003998492 83.97560975514352,223.64577012439258 74.31707317009568,236.0524661608506 80.46341463364661,242.81973871891387 98.02439024485648,240.5639824704267 104.60975609719753,230.97700424259529 81.78048780560493,224.77365316916257 74.75609756074846,229.28518217499368 79.5853658542037,242.81973871891387 104.60975609719753,233.2327658890281 98.90243902429938,224.77365316916257 81.78048780560493,224.77365316916257 75.19512195140123,230.4130636334885 79.14634146355093,242.25579977640882 95.39024390280247,241.6918607535772 104.60975609719753,229.84912294498645 80.02439024299383,224.77365316916257 74.75609756074846,230.4130636334885 81.78048780560493,242.25579977640882 102.4146341457963,239.43610386946239 105.92682926729321,231.54094477253966 83.53658536635339,223.08182848314755 76.07317073084414,227.593359392602 77.39024390280247,241.6918607535772 103.73170731589198,234.92458629002795 96.70731707289815,223.64577012439258 78.70731707289815,224.77365316916257 80.46341463364661,242.81973871891387 99.34146341495216,238.87216444918886 104.60975609719753,229.28518217499368 77.39024390280247,226.46547714271583 82.21951219439507,243.3836775838863 104.1707317084074,232.66882559587248 96.70731707289815,223.64577012439258 77.39024390280247,226.46547714271583 75.63414634205401,236.61640597693622 86.17073170654476,243.94761636923067 105.48780487850308,231.54094477253966 95.8292682915926,223.08182848314755 76.51219512149692,225.90153589844704 78.26829268224537,242.81973871891387 93.19512195326388,243.94761636923067 104.60975609719753,232.1048852247186 81.34146341495216,223.64577012439258 74.75609756074846,234.92458629002795 79.5853658542037,242.81973871891387 102.4146341457963,238.87216444918886 105.04878048785031,232.1048852247186 82.65853658504784,224.77365316916257 76.51219512149692,228.72124132653698 80.46341463364661,242.81973871891387 97.58536585234106,243.3836775838863 105.04878048785031,235.48852626606822 103.29268292710185,227.593359392602 87.04878048785031,223.08182848314755 78.26829268224537,226.46547714271583 77.82926829345524,240.5639824704267 103.29268292710185,235.48852626606822 96.26829268224537,223.64577012439258 77.82926829345524,225.90153589844704 77.82926829345524,241.1279216511175 103.73170731589198,237.18034571548924 100.21951219439507,224.77365316916257 82.65853658504784,223.08182848314755 76.07317073084414,228.1573003998492 79.5853658542037,242.25579977640882 102.4146341457963,241.1279216511175 98.02439024485648,223.64577012439258 77.82926829345524,225.33759457361884 74.75609756074846,235.48852626606822 95.39024390280247,242.25579977640882 103.73170731589198,235.48852626606822 97.14634146541357,223.08182848314755 74.75609756074846,231.54094477253966 81.78048780560493,243.94761636923067 98.02439024485648,242.25579977640882 104.60975609719753,230.97700424259529 91.8780487794429,223.64577012439258 78.70731707289815,225.33759457361884 74.75609756074846,238.3082249504514 101.09756097570062,238.3082249504514 103.29268292710185,227.593359392602 94.95121951214969,222.51788676343858 76.51219512149692,225.90153589844704 75.19512195140123,237.18034571548924 85.29268292710185,242.25579977640882 102.85365853644907,235.48852626606822 103.73170731589198,228.1573003998492 92.31707317195833,223.08182848314755 77.82926829345524,226.46547714271583 77.39024390280247,240.00004320894368 101.97560975514352,238.3082249504514 101.97560975514352,227.0294183071237 82.21951219439507,223.08182848314755 74.75609756074846,236.61640597693622 97.58536585234106,241.1279216511175 103.29268292710185,236.0524661608506 99.78048780374229,223.64577012439258 82.21951219439507,222.51788676343858 73.43902439065278,234.3606462359894 81.34146341495216,243.3836775838863 102.4146341457963,239.43610386946239 102.4146341457963,225.90153589844704 94.51219512149692,222.51788676343858 76.95121951214969,225.33759457361884 76.07317073084414,237.74428537278436 98.46341463364661,241.1279216511175 104.1707317084074,230.97700424259529 97.58536585234106,223.64577012439258 79.5853658542037,223.08182848314755 75.19512195140123,235.48852626606822 97.58536585234106,241.6918607535772 104.60975609719753,230.97700424259529 93.63414634019136,223.08182848314755 80.90243902429938,223.64577012439258 75.19512195140123,235.48852626606822 80.02439024299383,241.6918607535772 101.09756097570062,240.5639824704267 105.92682926729321,233.7967061032541 98.46341463364661,222.51788676343858 74.31707317009568,230.97700424259529 80.90243902429938,242.81973871891387 98.90243902429938,241.1279216511175 104.1707317084074,228.72124132653698 97.58536585234106,222.51788676343858 78.26829268224537,225.33759457361884 74.31707317009568,232.1048852247186 77.39024390280247,240.00004320894368 96.70731707289815,241.6918607535772 103.73170731589198,234.3606462359894 97.58536585234106,224.2097116857767 79.14634146355093,224.77365316916257 73.8780487794429,234.92458629002795 78.70731707289815,242.25579977640882 97.58536585234106,241.6918607535772 103.29268292710185,236.61640597693622 96.26829268224537,223.08182848314755 80.02439024299383,224.2097116857767 73.0,234.92458629002795 94.95121951214969,242.25579977640882 102.85365853644907,237.74428537278436 100.65853658691049,224.77365316916257 83.97560975514352,222.51788676343858 73.0,229.84912294498645 78.26829268224537,240.00004320894368 95.8292682915926,240.5639824704267 104.1707317084074,228.72124132653698 98.90243902429938,223.08182848314755 73.8780487794429,227.0294183071237 77.39024390280247,240.00004320894368 95.39024390280247,241.1279216511175 104.1707317084074,234.3606462359894 100.21951219439507,223.64577012439258 75.63414634205401,229.28518217499368 80.02439024299383,240.5639824704267 94.51219512149692,241.1279216511175 102.85365853644907,238.3082249504514 100.65853658691049,224.77365316916257 80.46341463364661,223.08182848314755 73.0,230.97700424259529 80.02439024299383,241.6918607535772 97.14634146541357,241.6918607535772 104.1707317084074,232.66882559587248 94.51219512149692,224.2097116857767 82.65853658504784,223.64577012439258 73.8780487794429,232.66882559587248 77.82926829345524,240.00004320894368 94.95121951214969,240.00004320894368 103.29268292710185,236.61640597693622 100.21951219439507,224.2097116857767 79.14634146355093,224.2097116857767 74.31707317009568,230.4130636334885 80.02439024299383,241.1279216511175 98.46341463364661,240.00004320894368 104.1707317084074,233.7967061032541 98.90243902429938,223.08182848314755 80.02439024299383,222.51788676343858 74.31707317009568,230.4130636334885 81.34146341495216,241.1279216511175 98.46341463364661,240.00004320894368 105.04878048785031,232.66882559587248 97.58536585234106,223.64577012439258 74.31707317009568,229.84912294498645 81.34146341495216,240.5639824704267 99.78048780374229,238.87216444918886 104.60975609719753,232.66882559587248 97.14634146541357,221.95394496200606 77.39024390280247,224.2097116857767 74.75609756074846,237.74428537278436 102.4146341457963,238.3082249504514 101.97560975514352,225.90153589844704 94.07317073270679,222.51788676343858 77.82926829345524,224.77365316916257 73.8780487794429,233.2327658890281 83.53658536635339,242.81973871891387 103.29268292710185,238.87216444918886 100.65853658691049,225.90153589844704 83.53658536635339,223.64577012439258 76.07317073084414,225.90153589844704 75.19512195140123,238.87216444918886 101.97560975514352,238.3082249504514 103.73170731589198,230.4130636334885 90.12195121869445,223.64577012439258 78.70731707289815,224.77365316916257 73.43902439065278,236.0524661608506 98.46341463364661,240.5639824704267 103.73170731589198,229.28518217499368 91.8780487794429,222.51788676343858 79.14634146355093,224.2097116857767 73.8780487794429,237.18034571548924 86.60975609719753,242.81973871891387 102.85365853644907,237.74428537278436 99.78048780374229,224.77365316916257 91.43902439065278,223.08182848314755 75.63414634205401,227.593359392602 75.19512195140123,238.3082249504514 100.21951219439507,241.1279216511175 103.29268292710185,227.593359392602 97.14634146541357,222.51788676343858 76.07317073084414,226.46547714271583 74.75609756074846,236.0524661608506 100.65853658691049,238.3082249504514 102.4146341457963,225.90153589844704 95.8292682915926,221.39000308187678 78.70731707289815,223.64577012439258 74.31707317009568,235.48852626606822 97.58536585234106,241.6918607535772 104.1707317084074,229.84912294498645 99.34146341495216,223.64577012439258 77.39024390280247,224.77365316916257 73.0,234.3606462359894 83.53658536635339,242.25579977640882 100.21951219439507,240.5639824704267 105.04878048785031,230.4130636334885 94.07317073270679,221.95394496200606 76.51219512149692,225.90153589844704 74.75609756074846,235.48852626606822 99.78048780374229,241.1279216511175 104.60975609719753,229.84912294498645 98.90243902429938,223.64577012439258 81.78048780560493,223.64577012439258 73.8780487794429,234.3606462359894 98.02439024485648,241.6918607535772 104.1707317084074,236.0524661608506 97.14634146541357,224.2097116857767 73.8780487794429,233.2327658890281 83.09756097756326,242.81973871891387 99.78048780374229,241.1279216511175 104.60975609719753,234.3606462359894 98.02439024485648,223.64577012439258 80.02439024299383,224.2097116857767 74.31707317009568,234.92458629002795 81.34146341495216,242.25579977640882 98.02439024485648,241.1279216511175 104.1707317084074,230.4130636334885 97.58536585234106,224.2097116857767 77.82926829345524,224.77365316916257 73.0,234.3606462359894 98.02439024485648,240.5639824704267 103.73170731589198,236.61640597693622 98.02439024485648,223.64577012439258 73.8780487794429,228.72124132653698 77.82926829345524,240.5639824704267 97.58536585234106,241.1279216511175 103.29268292710185,236.0524661608506 97.58536585234106,223.64577012439258 78.70731707289815,223.64577012439258 74.75609756074846,236.61640597693622 101.53658536635339,238.3082249504514 105.48780487850308,232.1048852247186 94.95121951214969,222.51788676343858 73.8780487794429,231.54094477253966 76.51219512149692,238.87216444918886 92.75609756074846,240.5639824704267 102.4146341457963,236.0524661608506 99.34146341495216,224.2097116857767 74.75609756074846,227.0294183071237 78.70731707289815,240.00004320894368 95.8292682915926,241.1279216511175 105.04878048785031,230.97700424259529 94.95121951214969,221.95394496200606 76.51219512149692,225.33759457361884 74.31707317009568,234.92458629002795 85.29268292710185,243.3836775838863 102.85365853644907,238.3082249504514 94.95121951214969,223.08182848314755 82.65853658504784,223.08182848314755 74.31707317009568,234.3606462359894 98.02439024485648,241.1279216511175 103.73170731589198,230.97700424259529 98.90243902429938,224.2097116857767 74.75609756074846,229.28518217499368 81.78048780560493,241.6918607535772 99.78048780374229,241.1279216511175 102.85365853644907,227.0294183071237 95.8292682915926,222.51788676343858 77.82926829345524,224.2097116857767 75.19512195140123,237.74428537278436 98.90243902429938,241.1279216511175 103.73170731589198,233.7967061032541 97.58536585234106,223.64577012439258 79.5853658542037,223.64577012439258 73.43902439065278,233.7967061032541 81.78048780560493,242.25579977640882 101.09756097570062,239.43610386946239 96.70731707289815,223.08182848314755 88.36585365608335,223.08182848314755 93.19512195326388,232.66882559587248 110.31707317009568,243.3836775838863 114.26829268410802,256.9181865162682 127.0,258.6099969181232" stroke="#4dd2ff" stroke-linecap="round" stroke-linejoin="round" stroke-width="0.5"><title>2021-06-01 11.4km</title></polyline><polyline fill="none" points="181.59999999776483,245.20238403324038 163.375,224.39297406189144 135.69999999925494,236.5318050836213 135.69999999925494,251.27178203407675 172.82499999925494,246.06944125611335 165.39999999850988,221.79179287469015 148.52499999850988,224.39297406189144 133.0,246.93649835698307 148.52499999850988,261.67645041504875 176.875,249.5376689294353 176.875,226.9941541524604 163.375,221.79179287469015 138.39999999850988,246.93649835698307 173.5,246.06944125611335 180.92500000074506,235.6647465187125 167.42500000074506,218.3235495854169 139.07499999925494,239.13298005005345 147.84999999776483,255.6070626634173 173.5,250.40472554368898 181.59999999776483,238.26592184929177 168.10000000149012,220.92473223386332 143.125,230.46239256160334 139.07499999925494,250.40472554368898 175.52500000223517,244.33532668510452 180.92500000074506,233.06357008963823 164.72499999776483,218.3235495854169 138.39999999850988,232.19651103531942 139.07499999925494,245.20238403324038 177.55000000074506,250.40472554368898 184.29999999701977,228.7282736026682 174.84999999776483,222.65885339444503 143.80000000074506,234.7976878322661 153.25,258.20822957577184 180.92500000074506,246.93649835698307 183.625,230.46239256160334 148.52499999850988,222.65885339444503 135.69999999925494,234.7976878322661 170.79999999701977,244.33532668510452 182.27499999850988,240.00003812927753 176.19999999925494,220.0576714728959 145.14999999850988,220.92473223386332 137.72500000149012,239.13298005005345 175.52500000223517,245.20238403324038 183.625,234.7976878322661 173.5,220.0576714728959 137.72500000149012,232.19651103531942 147.17500000074506,252.1388384043239 176.875,246.06944125611335 182.94999999925494,225.26003421237692 173.5,219.1906105875969 142.44999999925494,224.39297406189144 137.72500000149012,236.5318050836213 151.89999999850988,248.67061219504103 180.92500000074506,240.86709608323872 180.92500000074506,223.52591378847137 168.10000000149012,219.1906105875969 143.80000000074506,224.39297406189144 141.77499999850988,246.93649835698307 178.89999999850988,246.93649835698307 185.64999999850988,233.93062902381644 170.79999999701977,219.1906105875969 140.42500000074506,226.12709424318746 143.125,248.67061219504103 181.59999999776483,240.00003812927753 184.29999999701977,228.7282736026682 166.07499999925494,220.0576714728959 147.17500000074506,221.79179287469015 138.39999999850988,240.86709608323872 152.57500000298023,251.27178203407675 181.59999999776483,240.00003812927753 168.10000000149012,219.1906105875969 142.44999999925494,225.26003421237692 138.39999999850988,239.13298005005345 152.57500000298023,251.27178203407675 174.17500000447035,246.93649835698307 184.29999999701977,239.13298005005345 177.55000000074506,221.79179287469015 139.07499999925494,232.19651103531942 144.47500000149012,250.40472554368898 176.19999999925494,244.33532668510452 184.29999999701977,236.5318050836213 174.17500000447035,219.1906105875969 146.5,221.79179287469015 139.07499999925494,233.93062902381644 151.89999999850988,252.1388384043239 178.22499999776483,246.06944125611335 184.97500000149012,237.39886352838948 172.82499999925494,221.79179287469015 142.44999999925494,224.39297406189144 138.39999999850988,233.93062902381644 143.80000000074506,249.5376689294353 172.82499999925494,250.40472554368898 182.94999999925494,245.20238403324038 178.89999999850988,224.39297406189144 151.22499999776483,221.79179287469015 139.75,232.19651103531942 144.47500000149012,249.5376689294353 173.5,250.40472554368898 185.64999999850988,233.06357008963823 178.22499999776483,224.39297406189144 149.19999999925494,222.65885339444503 139.07499999925494,234.7976878322661 143.125,249.5376689294353 177.55000000074506,246.06944125611335 182.27499999850988,226.12709424318746 171.47500000149012,221.79179287469015 139.75,227.86121393926442 139.07499999925494,240.00003812927753 146.5,253.00589465210214 172.82499999925494,250.40472554368898 183.625,243.46826921822503 176.875,224.39297406189144 139.07499999925494,232.19651103531942 147.84999999776483,253.00589465210214 174.17500000447035,249.5376689294353 184.29999999701977,241.73415391659364 174.17500000447035,220.92473223386332 143.125,225.26003421237692 139.75,237.39886352838948 153.25,253.87295077601448 180.92500000074506,246.93649835698307 175.52500000223517,220.0576714728959 143.125,225.26003421237692 140.42500000074506,240.00003812927753 145.14999999850988,251.27178203407675 172.82499999925494,252.1388384043239 184.97500000149012,232.19651103531942 176.875,222.65885339444503 141.10000000149012,227.86121393926442 148.52499999850988,254.74000678071752 174.17500000447035,253.87295077601448 183.625,246.93649835698307 179.57500000298023,226.9941541524604 139.75,231.32945186039433 149.19999999925494,256.4741184222512 172.14999999850988,253.87295077601448 182.94999999925494,246.93649835698307 180.92500000074506,227.86121393926442 149.875,222.65885339444503 139.07499999925494,235.6647465187125 143.80000000074506,251.27178203407675 177.55000000074506,249.5376689294353 185.64999999850988,231.32945186039433 174.84999999776483,221.79179287469015 143.80000000074506,224.39297406189144 141.10000000149012,234.7976878322661 150.55000000074506,256.4741184222512 174.17500000447035,253.87295077601448 182.27499999850988,229.59533314267173 141.10000000149012,230.46239256160334 143.80000000074506,248.67061219504103 159.32499999925494,254.74000678071752 182.94999999925494,246.06944125611335 179.57500000298023,225.26003421237692 137.05000000074506,231.32945186039433 148.52499999850988,255.6070626634173 163.375,254.74000678071752 178.89999999850988,250.40472554368898 183.625,228.7282736026682 142.44999999925494,229.59533314267173 143.80000000074506,251.27178203407675 168.10000000149012,255.6070626634173 184.97500000149012,244.33532668510452 176.19999999925494,226.12709424318746 145.14999999850988,225.26003421237692 137.05000000074506,235.6647465187125 153.25,251.27178203407675 174.84999999776483,249.5376689294353 183.625,228.7282736026682 174.84999999776483,220.92473223386332 139.07499999925494,231.32945186039433 144.47500000149012,247.80355533631518 164.05000000074506,254.74000678071752 184.97500000149012,240.86709608323872 181.59999999776483,227.86121393926442 141.77499999850988,228.7282736026682 144.47500000149012,252.1388384043239 170.125,255.6070626634173 184.29999999701977,236.5318050836213 176.875,226.9941541524604 155.27499999850988,224.39297406189144 138.39999999850988,237.39886352838948 151.89999999850988,254.74000678071752 173.5,253.87295077601448 185.64999999850988,235.6647465187125 177.55000000074506,224.39297406189144 143.125,227.86121393926442 145.14999999850988,249.5376689294353 162.69999999925494,253.87295077601448 182.27499999850988,246.06944125611335 178.89999999850988,226.9941541524604 140.42500000074506,229.59533314267173 147.17500000074506,253.87295077601448 176.875,253.87295077601448 185.64999999850988,237.39886352838948 166.75,222.65885339444503 148.52499999850988,223.52591378847137 140.42500000074506,242.60121162980795 146.5,253.87295077601448 176.19999999925494,253.00589465210214 178.22499999776483,226.12709424318746 150.55000000074506,222.65885339444503 138.39999999850988,241.73415391659364 154.59999999776483,253.87295077601448 177.55000000074506,251.27178203407675 176.19999999925494,224.39297406189144 148.52499999850988,223.52591378847137 139.75,233.93062902381644 145.82499999925494,253.00589465210214 172.14999999850988,253.87295077601448 183.625,234.7976878322661 176.19999999925494,226.12709424318746 148.52499999850988,222.65885339444503 137.05000000074506,239.13298005005345 149.875,253.00589465210214 178.89999999850988,249.5376689294353 181.59999999776483,226.9941541524604 170.125,222.65885339444503 151.89999999850988,221.79179287469015 139.07499999925494,242.60121162980795 173.5,251.27178203407675 184.97500000149012,233.06357008963823 171.47500000149012,220.92473223386332 142.44999999925494,226.9941541524604 141.77499999850988,246.93649835698307 178.89999999850988,250.40472554368898 184.97500000149012,240.00003812927753 171.47500000149012,222.65885339444503 137.72500000149012,236.5318050836213 147.17500000074506,251.27178203407675 176.875,250.40472554368898 184.29999999701977,230.46239256160334 174.17500000447035,225.26003421237692 139.07499999925494,234.7976878322661 147.84999999776483,252.1388384043239 175.52500000223517,249.5376689294353 184.29999999701977,240.86709608323872 178.22499999776483,223.52591378847137 141.10000000149012,226.9941541524604 136.375,240.00003812927753 147.84999999776483,253.00589465210214 174.84999999776483,248.67061219504103 182.94999999925494,228.7282736026682 172.82499999925494,222.65885339444503 143.80000000074506,223.52591378847137 137.72500000149012,234.7976878322661 149.19999999925494,252.1388384043239 177.55000000074506,248.67061219504103 183.625,229.59533314267173 174.17500000447035,225.26003421237692 148.52499999850988,223.52591378847137 137.72500000149012,237.39886352838948 149.19999999925494,253.00589465210214 176.19999999925494,250.40472554368898 184.97500000149012,241.73415391659364 174.17500000447035,221.79179287469015 144.47500000149012,223.52591378847137 139.75,233.93062902381644 151.89999999850988,252.1388384043239 181.59999999776483,248.67061219504103 187.0,238.26592184929177 174.84999999776483,224.39297406189144 143.80000000074506,226.12709424318746 139.07499999925494,238.26592184929177 153.25,253.87295077601448 179.57500000298023,248.67061219504103 186.32499999925494,237.39886352838948 171.47500000149012,221.79179287469015 143.125,226.12709424318746 138.39999999850988,241.73415391659364 150.55000000074506,253.87295077601448 178.89999999850988,248.67061219504103 177.55000000074506,224.39297406189144 151.22499999776483,222.65885339444503 138.39999999850988,240.00003812927753 147.17500000074506,252.1388384043239 181.59999999776483,246.06944125611335 180.92500000074506,226.9941541524604 168.10000000149012,221.79179287469015 149.19999999925494,222.65885339444503 139.75,242.60121162980795 160.0,253.00589465210214 180.92500000074506,247.80355533631518 175.52500000223517,222.65885339444503 140.42500000074506,230.46239256160334 154.59999999776483,253.87295077601448 178.22499999776483,250.40472554368898 187.0,241.73415391659364 177.55000000074506,223.52591378847137 147.84999999776483,223.52591378847137 140.42500000074506,240.86709608323872 150.55000000074506,252.1388384043239 179.57500000298023,250.40472554368898 186.32499999925494,240.00003812927753 171.47500000149012,223.52591378847137 143.125,226.9941541524604 139.07499999925494,238.26592184929177 153.25,253.87295077601448 181.59999999776483,248.67061219504103 186.32499999925494,238.26592184929177 171.47500000149012,222.65885339444503 142.44999999925494,226.9941541524604 143.80000000074506,248.67061219504103 184.29999999701977,246.06944125611335 180.25,226.12709424318746 167.42500000074506,221.79179287469015 144.47500000149012,224.39297406189144 138.39999999850988,241.73415391659364 148.52499999850988,252.1388384043239 182.27499999850988,246.93649835698307 185.64999999850988,235.6647465187125 168.10000000149012,222.65885339444503 141.10000000149012,228.7282736026682 142.44999999925494,248.67061219504103 180.92500000074506,248.67061219504103 179.57500000298023,226.12709424318746 165.39999999850988,223.52591378847137 146.5,224.39297406189144 137.05000000074506,240.86709608323872 174.17500000447035,252.1388384043239 183.625,233.93062902381644 176.19999999925494,226.12709424318746 145.14999999850988,225.26003421237692 137.72500000149012,243.46826921822503 175.52500000223517,252.1388384043239 185.64999999850988,234.7976878322661 165.39999999850988,222.65885339444503 149.19999999925494,223.52591378847137 139.07499999925494,243.46826921822503 157.97500000149012,254.74000678071752 181.59999999776483,249.5376689294353 179.57500000298023,226.12709424318746 167.42500000074506,222.65885339444503 141.77499999850988,230.46239256160334 139.07499999925494,244.33532668510452 154.59999999776483,253.00589465210214 184.29999999701977,243.46826921822503 174.17500000447035,223.52591378847137 159.32499999925494,222.65885339444503 143.80000000074506,226.12709424318746 139.75,246.93649835698307 179.57500000298023,249.5376689294353 180.25,226.9941541524604 167.42500000074506,221.79179287469015 140.42500000074506,227.86121393926442 143.125,250.40472554368898 182.94999999925494,246.06944125611335 179.57500000298023,226.12709424318746 167.42500000074506,222.65885339444503 147.17500000074506,225.26003421237692 138.39999999850988,246.06944125611335 179.57500000298023,250.40472554368898 182.94999999925494,230.46239256160334 157.97500000149012,222.65885339444503 143.80000000074506,226.12709424318746 141.77499999850988,246.93649835698307 183.625,245.20238403324038" stroke="#4dd2ff" stroke-linecap="round" stroke-linejoin="round" stroke-width="0.5"><title>2020-11-29 10.4km</title></polyline></svg>