<?xml version="1.0" encoding="utf-8" ?>
<svg baseProfile="full" height="300mm" version="1.1" viewBox="0,0,200,300" width="200mm" xmlns="http://www.w3.org/2000/svg" xmlns:ev="http://www.w3.org/2001/xml-events" xmlns:xlink="http://www.w3.org/1999/xlink"><defs /><rect fill="#222222" height="300" width="200" x="0" y="0" /><text fill="#FFFFFF" style="font-size:12px; font-family:Arial; font-weight:bold;" x="10" y="20">Over 10km Runs</text><text fill="#FFFFFF" style="font-size:4px; font-family:Arial" x="10" y="280">ATHLETE</text><text fill="#FFFFFF" style="font-size:9px; font-family:Arial" x="10" y="290">Abuqi</text><text fill="#FFFFFF" style="font-size:4px; font-family:Arial" x="120" y="280">STATISTICS</text><text fill="#FFFFFF" style="font-size:3px; font-family:Arial" x="120" y="285">Number: 17</text><text fill="#FFFFFF" style="font-size:3px; font-family:Arial" x="120" y="290">Weekly: 1.1</text><text fill="#FFFFFF" style="font-size:3px; font-family:Arial" x="141" y="285">Total: 225.4 km</text><text fill="#FFFFFF" style="font-size:3px; font-family:Arial" x="141" y="290">Avg: 13.3 km</text><text fill="#FFFFFF" style="font-size:3px; font-family:Arial" x="167" y="285">Min: 10.0 km</text><text fill="#FFFFFF" style="font-size:3px; font-family:Arial" x="167" y="290">Max: 21.6 km</text><polyline fill="none" points="25.389162029139698,32.25 24.653558101155795,34.453537364679505 24.953248590347357,35.81762214854825 24.27213384199422,37.11174695666705 24.326623021857813,38.51079323509475 22.03807746816892,41.83349663327681 19.558819784782827,48.338871710016974 17.678943079779856,51.66144393195282 14.92723949730862,54.17957439206657 16.943339151795954,52.325953055071295 18.27832405816298,50.2624715592101 20.539625022094697,51.871289109883946 20.26717912289314,54.56428652496834 17.16129587125033,60.16003215612727 17.079562101513147,63.86714437496266 15.30866375635378,65.05620641357382 14.40959228866268,66.66492836775433 15.608354245312512,69.04302004257625 18.469036187743768,69.88234109277255 19.586064374656416,70.93148842689698 18.469036187743768,70.02222765953047 15.608354245312512,69.46268092135142 14.273369339061901,67.85397704444767 14.218880159198307,65.93051311296585 16.80711620207876,63.86714437496266 16.888849972048774,59.67040943450411 20.049222403438762,54.529312719241716 20.485135842347518,51.731392344270716 22.991638115607202,50.05262502528785 23.917954173055477,47.5344528202113 25.034982359968126,46.485206883444334 26.179255136987194,46.10048226527579 28.631268230383284,46.834956020480604 29.748296417295933,49.388109834035276 29.285138388513587,50.68216409657907 27.26903873414267,52.745642113543 26.77863611537032,55.75339299537882 24.844270230503753,57.187307949890965 22.664703036425635,60.12505913649511 22.69194762618281,62.048567919788184 23.6182636837475,63.02780304632324 25.852320057922043,63.517419165262254 27.40526168362703,64.46167610416887 29.14891543891281,68.3086118024512 33.09938097826671,68.97307649397408 36.25975340988953,72.36531596718123 38.466565193841234,72.54017241937981 41.00031205709092,72.05057404370746 43.4523251503706,69.9522843859304 43.69752645981498,65.40592946170364 44.623842517263256,61.41905759027577 50.31796181201935,50.577241028498975 50.04551591258496,49.00338970206212 48.71053100633435,47.1147549761954 50.37245099176653,48.618668975512264 50.78111984068528,50.717138442676514 45.41393562511075,60.82451859529829 44.29690743808169,64.74145525009953 44.16068448848091,69.53262433240889 43.5340589202242,70.65171623670904 40.15572976926342,72.54017241937981 36.88637897814624,72.75 35.14272522274405,72.05057404370746 32.74520130921155,68.90313292574137 29.14891543891281,68.55341478984337 28.358822331065312,67.81900510564446 26.887614475097507,64.32178641318751 25.934053827659227,63.55239170839195 23.836220403318293,63.30758380367479 22.555724676698446,62.048567919788184 22.392257137224078,59.98516700894106 24.5173351514386,56.767626379049034 26.724146935506724,55.158840470176074 26.99659283470828,52.325953055071295 28.93095871945843,50.43734353571199 29.44860592810437,49.17826256300032 28.767491179867648,46.90490578878962 26.47894562606234,46.17043224007648 25.25293907930609,46.52018181922904 24.081421712529846,47.604402392025804 23.400306964293122,49.807803845382296 20.866560101276264,51.76636654297181 20.239934532903135,54.914024311787216 17.215785051113926,60.02014004817465 17.079562101513147,63.86714437496266 15.036217856919393,65.54581854345452 14.436836878652684,66.69990046878229 14.518570648389868,68.02883666506386 15.744577195029706,69.56759603059618 18.33281323814299,70.05719928890176 19.531575194909237,71.07137440399674 18.305568648152985,70.19708575721597 15.7173326050397,69.84736943888129 14.382347698672675,67.85397704444767 14.273369339061901,66.42012352358142 14.92723949730862,65.30101259885123 16.80711620207876,63.93708935796167 16.997828331659548,60.19500517086999 20.049222403438762,54.63423412163684 20.59411420195829,51.62646971842332 23.23683942493517,49.8427783142979 20.675847971928306,51.66144393195282 18.550769957480952,50.43734353571199 19.17739552585408,46.59013167618832 23.945198763045482,38.475817174010444 23.59101909387391,37.77629491937114 24.29937843210064,36.13240988328471" stroke="#4dd2ff" stroke-linecap="round" stroke-linejoin="round" stroke-width="0.5"><title>2023-08-19 10.1km</title></polyline><polyline fill="none" points="69.65022442443296,32.75194310469669 64.95840454031713,41.36205514741596 63.424540347303264,46.07240586949047 62.191433839383535,47.6939833383658 64.50726801296696,49.62442023048061 64.29673763364553,52.75169921890483 61.13878194231074,58.27261106009246 60.62749387801159,62.98267195431981 57.61991702916566,66.10979894566117 57.860523177077994,67.49962174336542 59.003402379574254,68.69640796541353 62.40196421882138,69.81597745532054 63.30423727352172,70.6266973426682 58.82294776872732,69.08246692534885 57.31915934418794,67.1521667028137 57.68006856611464,65.14464009000221 60.32673619315028,62.86685175288585 60.507190804113634,58.31121844469453 64.11628302268218,52.520050143793924 64.20651032810565,50.242157172149746 64.77794992935378,49.16111661310424 67.57499639876187,47.46233000000939 68.95848174928688,44.37360016335151 70.9434824695345,43.67863116573426 74.25181700324174,45.53187792029348 74.61272622505203,47.616765580605716 72.2968920514686,50.47380816718214 71.99613436649088,52.98334809861262 71.21416438592132,54.41184520945535 69.04870905471034,55.95615805793204 66.79302641795948,59.276401297567645 67.06370833446272,61.32257773575839 67.84567831514869,62.0561089758412 71.69537668162957,63.13709881374962 74.07136239227839,68.271742483048 78.43234882317483,69.00525517674396 81.6203802828677,72.40255159666413 84.23697214142885,72.59557854165905 87.57538244361058,71.63044246128993 89.74083777482156,69.58434276262415 90.73333813482895,61.39979164270335 97.10940105444752,49.23833393689711 96.8387191380607,46.767368813510984 95.36500648211222,45.26161354701617 97.1996283599874,46.92180478462251 97.68084065581206,49.00668190032593 91.3047777361935,60.78207977980492 90.52280775539111,64.06365814807941 90.19197430205531,69.97040047548944 88.08667050790973,71.90068090546993 85.16932096448727,72.75 80.71810722828377,71.97789184065186 78.91356111888308,69.1982845076709 77.59022730553988,68.4261663708021 74.22174123476725,68.31034846312832 73.10893780074548,67.30659121944336 71.60514937632252,63.63898550759768 68.41711791662965,62.44217726311763 66.67272334417794,60.975114886066876 66.73287488112692,58.65868466219399 68.86825444374699,55.33843396001612 71.39461899688467,53.60107749016606 71.87583129259292,50.35798269396764 74.011210855213,48.3889421816275 74.49242315127049,47.15345857857028 73.77060470741708,45.0299581582949 70.88333093258552,43.71724060061388 69.13893636013381,44.45081883226521 68.05620869470295,47.385112177202245 65.49976837309077,49.23833393689711 64.62757108698133,50.51241664745612 64.62757108698133,52.59726652377867 60.77787272038404,59.199186794110574 60.958327331463806,62.67381797530106 58.431962778326124,64.68136263545603 57.64999279752374,66.34143656661035 58.01090201945044,67.84707634465303 58.883099305676296,68.81222571030958 62.01097922842018,69.58434276262415 63.27416150493082,70.54948602773948 61.80044884898234,69.62294855827349 59.033478148048744,69.0438610536803 57.37931088113692,67.1521667028137 57.74022010306362,65.14464009000221 60.507190804113634,62.67381797530106 60.507190804113634,58.92893586109858 64.08620725409128,52.75169921890483 64.44711647601798,50.01050598171423 65.37946529919282,48.65920347944484 67.30431448237505,47.53954780116328 68.80810290679801,44.14194402610883 70.16151248873211,43.369755491643446 71.39461899688467,43.369755491643446 73.83075624436606,44.37360016335151 74.58265045657754,45.763532885786844 74.4021958457306,48.08007180155255 71.99613436649088,50.66685051389504 71.63522514468059,53.79411764035467 70.76302785868756,54.79792423520121 71.63522514468059,52.906131827039644 71.75552821869496,50.66685051389504 74.49242315127049,47.15345857857028 74.22174123476725,44.952739652013406 73.28939241170883,43.369755491643446 78.76318227651063,32.25" stroke="#4dd2ff" stroke-linecap="round" stroke-linejoin="round" stroke-width="0.5"><title>2023-08-16 10.2km</title></polyline><polyline fill="none" points="109.79215520550497,71.75770817531156 111.282682926103,72.75 112.65265325753717,72.27607089196681 121.12454978720052,67.15155876503559 123.09730706445407,64.61882029112166 125.73860986356158,60.05675541399978 123.8425709247822,59.31613943116827 118.83395939308684,58.08670392623753 118.50516651349608,57.686763584679284 118.65860319061903,56.901690523533034 119.6011427786434,56.67949883568508 120.26968830038095,55.96848188032891 120.36832616425818,55.42040261407237 120.03953328472562,54.60568424373196 120.09433209791314,54.10203660344996 119.61210254125763,53.43543995964865 119.04219488339731,53.45025327014446 118.39556888688821,52.87253241966391 118.20925292186439,52.36887542735349 118.31885054841405,51.9392834921091 118.79012034245534,51.33192600301845 119.338108475029,49.376504314597696 119.80937826901209,48.65061765522114 121.08071073662722,48.0580529315921 121.43142314138822,47.65806961632916 122.1986065270612,45.835901710270264 122.30820415361086,45.13961677458428 122.13284795114305,44.48777085020993 122.3739627294708,44.05814263816865 122.82331299822545,43.747031318933296 123.6233756717993,43.99888341921178 124.76319098751992,43.70258676006779 125.1029436297249,44.51740030921792 128.04016002034768,44.48777085020993 128.36895289982203,44.07295743700524 128.54430910234805,42.961840996671526 129.96907824696973,42.68035606499325 132.62134080863325,39.7617517346298 133.61867920996156,39.16913056989142 134.0241904280847,37.58385045603791 133.45428277022438,36.59118471108377 133.53100110875675,36.08743984640023 133.22412775451085,34.887330830300925 135.20784479443682,33.8501871491535 134.74753476306796,32.54633302385628 134.8461726269452,32.30926668002212 134.65985666186316,32.25 135.1092069306178,33.80573787666799 133.31180585571565,34.902147085085744 133.31180585571565,35.39108217341709 133.6405987353064,35.98372733082215 133.57484015933005,36.65044863404182 134.12282829196192,37.62829792895354 133.75019636179786,39.00615908986947 132.67613962193718,39.732120765795116 131.24041071464308,41.539592649460246 129.80468180723256,42.887766096966516 128.5223895770032,43.124805569066666 128.5662286275765,41.969232455827296 128.24839551071636,41.361810082053125 127.7442464287742,41.035874495508324 126.91130446724128,41.376625308919756 127.48121212510159,40.90253688200028 126.85650565399555,40.250661362486426 127.27297663473291,39.27283954543236 126.93322399246972,40.250661362486426 127.54697070101975,40.94698277432326 126.82362636603648,41.332179621225805 125.81532820203574,41.09513559591869 124.1494442790281,39.93953735021205 123.43705970665906,38.161665952990006 122.93291062465869,37.62829792895354 122.3739627294708,37.18382224693778 122.05612961261068,37.450507910245506 122.4616408306756,38.62095264199888 122.95483015006175,39.33210176539433 126.35235657199519,41.8210810219025 126.19891989487223,45.55442544687685 128.63198720349465,50.828260697308 129.53068774094572,51.835588590824045 130.18827350001084,52.19111348706792 126.95514351781458,58.42739249524311 122.54931893193861,65.87779244903504 121.43142314138822,67.0330696083256 120.25872853770852,67.8328684975495 112.13754441292258,72.60189741214708 111.20596458757063,72.75" stroke="#4dd2ff" stroke-linecap="round" stroke-linejoin="round" stroke-width="0.5"><title>2023-08-13 11.1km</title></polyline><polyline fill="none" points="154.65125914034434,32.25 151.185695447959,38.3358427543717 148.27592970617115,45.30293121089926 150.98953146545682,46.5620262468874 153.40888725058176,44.79929171054391 154.88011712022126,41.525614262209274 157.5610248821322,40.350439248170005 160.53617861808743,41.35773240032722 161.7458565107081,44.29565136117162 161.02658857451752,46.01641904943972 158.93417276022956,47.94702465747832 158.37837480951566,51.59835332579678 155.50130306498613,53.780735360021936 153.11464127665386,57.515929156623315 153.18002927105408,59.278588662389666 154.52048315189313,60.66352812136756 158.73800877761096,61.922558422142174 160.797730594757,66.87469279606012 162.2362664672546,67.50419552269159 164.81909223785624,67.2943614278629 166.32301610440481,68.09173020435264 167.99040995643009,71.02938628187985 169.39625183166936,72.12050832581008 174.56190337310545,71.44904907804448 178.0601610626327,69.01499665528536 178.1909370510839,63.76912659933441 179.17175696394406,59.44646045390982 186.20096634002402,46.01641904943972 185.9394143631216,44.211711220414145 184.46818449383136,42.15517040368286 186.16827234288212,43.03654677292798 186.92023427621461,44.757321713870624 186.72407029359601,46.813844617368886 179.59677892620675,60.41172142449068 178.74673500168137,69.22482954181032 176.915871164063,71.07135258804192 174.85614934691694,72.0785421669134 172.4694875588175,72.75 169.42894582869485,72.41427127213683 167.99040995643009,71.57494780194247 166.6499560752418,68.93106345954584 165.30950219440274,67.75599624199094 162.1381844758289,67.79796300799353 160.53617861808743,67.1684609001968 158.50915079796687,62.510104080080055 157.2013909140369,61.29304393500206 153.93199120427016,60.705495883506956 152.95117129117716,59.53039631427964 153.04925328248646,57.180183309770655 155.3705270764185,53.36104774536216 158.0514348386787,51.72426041497965 158.67262078344356,47.863085542601766 161.059282571543,45.638690405961825 161.3862225426128,43.288368115143385 160.37270863261074,41.819407293369295 157.82257685891818,40.72817457822384 155.46860906784423,41.69349602959119 154.09546118974686,45.17702141532209 150.85875547712203,47.737176826107316 150.30295752629172,51.22063173999777 150.76067348581273,47.27551107853651 153.89929720712826,44.757321713870624 155.04358710558154,41.609555157629075 156.384040986537,40.68620400963118 158.57453879213426,40.56029226825922 161.02658857451752,42.113200035557384 161.7458565107081,43.95989065658068 161.582386525115,45.13505147176329 158.86878476606216,48.1149028162763 157.98604684427846,52.10198136413237 155.40322107367683,53.99057894619182 153.18002927105408,57.390024508320494 153.14733527379576,59.488428387005115 154.32431916939095,60.66352812136756 157.168696916895,61.04123776871711 158.90147876332048,62.21633139552432 160.24193264415953,66.1192877733265 161.3862225426128,67.37829508364666 165.34219619154464,67.63009590891306 168.84045388095547,71.86871128468192 172.0444655965548,72.16247447862406 175.57541728310753,71.19725147113786 178.32171303930227,68.72123036676203 178.158243053942,64.062897757045 178.91020498704165,59.656300060625654 185.74325038061943,47.107632447907235 186.16827234288212,45.638690405961825 185.80863837490324,43.87595042146859 186.4298243196681,44.00186076524551 186.7894582877634,46.47808674292173 179.69486091739964,59.866139519930584 178.94289898429997,64.6504392059287 179.04098097549286,68.51139712674194 178.158243053942,70.02219316622359 175.05231332953554,72.03657600237057 171.06364568357822,72.75 168.21926793607417,71.95264365529874 165.50566617690492,67.92386327032 160.83042459201533,67.4202619025018 158.41106880677398,62.30026647777413 154.65125914034434,61.04123776871711 152.98386528843548,59.656300060625654 153.04925328248646,57.054278519935906 155.53399706212804,53.31907895152108 157.72449486760888,52.14395032892935 158.50915079796687,50.423217934789136 158.57453879213426,47.863085542601766 160.9938945773756,45.764600006863475 161.41891653975472,44.04383086806047 160.47079062380362,41.819407293369295 158.11682283284608,40.68620400963118 156.2205710010603,41.189850444177864 153.53966323903296,44.84126170122181 150.33565152343363,46.813844617368886 148.07976572366897,45.38687104507699 148.96250364533626,43.624129574600374" stroke="#4dd2ff" stroke-linecap="round" stroke-linejoin="round" stroke-width="0.5"><title>2023-07-20 10.9km</title></polyline><polyline fill="none" points="15.343991416273639,82.6857142689114 12.25,90.54019706105464 13.918669527745806,91.87900998134864 15.41351931320969,91.83438297495013 17.638412017025985,90.45094266565866 18.750858368934132,87.3716506694036 21.149570815381594,85.58654019166715 24.973605150124058,86.74686314337305 26.259871244663373,89.33526060820441 25.912231759517454,90.94184152956586 23.27017167385202,93.61945834226208 22.679184549371712,97.54658884101082 19.585193132981658,100.13489830782055 17.08218884107191,103.8388217240281 17.290772532112896,105.98083001485793 18.855150214396417,107.27495302489842 22.748712446307763,108.52444610145176 24.034978540730663,110.22017884461093 24.625965665094554,112.89763316849712 25.946995708160102,114.32559958114871 29.319098712294362,113.96860857971478 31.126824034261517,114.99495662763366 33.10836909862701,118.43096726527438 34.32510729599744,119.23418517230311 40.40879828319885,118.34172070582281 43.39849785412662,116.19979575733305 44.71952789684292,105.84695491980528 52.19377682392951,91.43273963496904 51.56802575092297,88.66584949276876 50.24699570820667,87.19314007306821 51.53326180239674,87.55016116533079 52.68047210294753,89.11212372640148 52.75,92.41453356962302 45.48433476383798,106.29320501725306 44.54570815444458,110.71104715997353 44.476180257392116,115.97667774462025 42.251287553459406,118.29709741676925 38.774892703746445,119.8142857311177 34.29034334758762,119.63579336434486 32.5173819741467,118.16322751168627 30.74442060070578,114.99495662763366 25.182188841165043,114.19172800262459 22.992060085758567,109.05994162973366 21.358154506306164,107.81045065954095 18.507510729599744,107.72120111639379 17.08218884107191,106.15933005389525 16.908369098673575,103.39256817888236 19.65472102991771,99.10850224949536 22.26201716728974,97.501962630864 23.304935622261837,92.86080253694672 25.599356223014183,90.89721439153072 26.086051502032205,89.15675111528253 25.286480686510913,87.46090592988185 22.088197424891405,86.07744657312287 20.69763948500622,86.25595779635478 19.376609441940673,87.3716506694036 17.777467811014503,91.29885840872885 15.378755364799872,92.86080253694672 15.51781115878839,92.32527970094816 18.090343347517774,90.2724337997206 18.889914163039066,87.28239538380876 21.080042918445542,85.63116807580809 22.50536480685696,85.63116807580809 25.703648068592884,87.55016116533079 25.98175965656992,90.85258724720916 23.47875536477659,93.53020481223939 22.609656652319245,97.99285059858812 19.619957081624307,100.00102074918686 17.39506437757518,103.61569502984639 17.256008583586663,105.57920456049033 18.125107296044007,106.82870430659386 21.775321888388135,107.8997001775424 23.026824034168385,108.88144322071457 25.356008583679795,114.05785636763903 30.257725321687758,114.63796637830092 31.717811158741824,115.70893592271022 33.595064377528615,119.10031566221733 36.967167381895706,119.72503956023138 40.4783261801349,118.83257647263235 43.0508583689807,116.91377234485117 44.68476394854952,105.57920456049033 51.95042918436229,92.10214491956867 51.32467811147217,88.62122203485342 52.19377682392951,89.42451531693223 52.645708154304884,91.07572290633107 52.26330472086556,92.63766813170514 45.27575107291341,105.3560790886113 44.267596566467546,109.32768905546982 43.885193133028224,116.02130135986954 42.251287553459406,117.80624082268332 39.60922746779397,119.18956200862885 36.51523605140392,119.76966264890507 33.803648068453185,119.36805462604389 31.161587982671335,115.5304412493715 29.145278969896026,114.59334256898728 26.051287553505972,114.72721397824353 24.69549356214702,113.92398467642488 22.50536480685696,109.0153170369158 17.603648068616167,107.23032818132197 16.630257510696538,105.48995439050486 16.908369098673575,103.39256817888236 19.133261802373454,99.68863955957931 22.157725321827456,97.59121504501672 22.9225321887061,93.57483158036484 25.703648068592884,90.71870577640948 25.842703862697817,88.97824152218527 24.904077253188007,87.3716506694036" stroke="#4dd2ff" stroke-linecap="round" stroke-linejoin="round" stroke-width="0.5"><title>2023-07-11 10.1km</title></polyline><polyline fill="none" points="73.84735849057324,96.65986838482786 72.13566037733108,98.34710082106176 71.6771698113298,101.99619657898438 68.95679245295469,103.80110804107971 67.15339622634929,106.82234677806264 66.84773584909271,108.27409922212246 67.3062264152104,109.17653612748836 71.86056603770703,110.94216511838022 74.58094339619856,115.96433767001145 77.91264150943607,115.84663153422298 79.28811320755631,116.43516171726515 81.06094339629635,119.69167298375396 82.16132075467613,120.47636881750077 86.501698113163,120.08402117600781 89.80283018876798,118.39692003882374 90.41415094328113,116.90598497103201 90.44471698114648,112.47236788267037 91.20886792452075,108.86264536064118 97.68886792461853,96.58139220956946 97.0469811320072,93.56004269307596 95.97716981137637,92.26516860921402 70.36283018882386,81.74899914170965 69.5375471698353,82.53380158080836 67.42849056597333,88.06659619725542 62.99641509435605,94.73719574179268 62.660188679234125,95.75739103744854 64.55528301885352,97.52310485823546 64.00509433972184,101.32916113032843 60.85679245297797,106.35150652719312 60.734528301865794,111.21681751383585 58.564339622622356,112.51160374071333 57.58622641500551,114.23797604031279 58.07528301887214,115.76816074945964 59.32849056599662,117.18063150250237 61.71264150948264,117.29833707612124 63.08811320760287,118.27921492795576 59.17566037736833,117.3375722563942 57.311132075381465,115.3758064948779 57.25,113.92409096119809 58.0447169811232,112.59007544035558 60.337169811245985,110.78522077109665 60.52056603773963,106.15532285501831 63.791132075479254,100.9367865929089 64.55528301885352,97.44462892532465 67.33679245272651,95.3257704054995 68.37603773572482,92.57907802928821 69.41528301907238,91.67658749551629 70.76018867921084,91.16648286033887 73.54169811320025,92.06897504240624 74.61150943406392,93.71699671962415 74.61150943406392,96.69910646424978 72.89981132082175,98.19014939648332 71.61603773583192,102.23162047468941 69.47641509445384,103.52644835363026 67.15339622634929,107.01852998169488 67.15339622634929,108.70569984501344 68.40660377359018,109.80431660290924 71.6771698113298,110.86369295575423 72.7164150942117,111.92306529072812 73.93905660382006,115.45427738988656 75.13113207556307,116.16051445281482 77.7598113209242,115.96433767001145 79.5937735849293,117.53374807472574 80.87754716991913,119.8486123268085 81.88622641505208,120.39789933321299 85.89037735841703,120.1624907484802 89.98622641514521,117.80839398896205 90.35301886789966,111.76612149458379 91.14773584913928,108.74493623219314 97.62773584912065,96.73834453820018 97.29150943388231,94.10938139996142 95.82433962263167,92.30440730601549 70.39339622633997,81.6705187765765 69.50698113196995,82.41608135559363 62.537924528238364,95.05110238341149 62.72132075461559,95.91434382900479 64.34132075484376,97.3269149849657 63.73000000009779,101.05449901189422 60.337169811245985,106.74387345806463 60.45943396224175,111.0206372589164 58.44207547174301,112.51160374071333 57.52509433962405,114.23797604031279 57.58622641500551,115.3365710391663 59.42018867924344,117.29833707612124 62.17113207548391,117.84762909749406 59.206226415000856,117.21986669916078 57.433396226377226,115.21886463882402 57.25,114.12026917689946 58.01415094337426,112.55083959325566 60.21490566036664,110.86369295575423 60.55113207548857,106.0376125855837 62.44622641510796,103.72263387223938 63.7605660376139,100.97602407139493 64.52471698110458,97.52310485823546 67.67301886784844,94.8941491067526 68.8956603774568,91.95125883622677 70.91301886795554,90.97028852184303 74.00018867920153,92.53983937110752 74.94773584906943,95.4827234398108 72.65528301883023,98.42557650030358 71.76886792457663,101.99619657898438 69.35415094334166,103.44797410754836 67.000566037721,106.94005671687773 67.21452830196358,109.13729980090284 72.13566037733108,111.17758147392306 74.36698113218881,115.84663153422298 78.76849056605715,116.82751448379713 80.72471698129084,120.00555158167845 81.82509433967061,120.8294812234235 86.92962264153175,120.12325596509618 89.92509433964733,118.00456947667408 90.65867924527265,109.92202528499183 91.97301886801142,106.50845336556085 97.59716981137171,96.65986838482786 97.0469811320072,93.91318912862334 96.19113207550254,92.81450986283016 91.7284905660199,90.69561621636967 70.24056603771169,81.866719648242 69.35415094334166,82.45532143613673 62.26283018873073,95.36500867237919 62.660188679234125,96.38520167471142 64.28018867934588,97.36615297058597 64.00509433972184,100.07356067010551 62.44622641510796,103.33026269718539 60.21490566036664,106.39074324499234 60.06207547173835,107.60707876592642 64.09679245285224,100.38746131438529 64.92207547172438,97.16996298692538 67.52018867922015,95.24729385529645 69.17075471696444,91.83354258048348 71.5243396225851,91.24496055717464 74.30584905657452,93.0499414979713 74.88660377368797,95.67891460855026 72.5330188680673,98.93566787766758 71.98283018870279,101.52534819228458 69.04849056596868,103.91881925301277 67.03113207558636,107.09700322456774 67.3062264152104,109.25500876409933 71.76886792457663,110.94216511838022 73.8167924528243,115.3758064948779 75.0088679244509,116.08204375623609 77.8515094340546,116.16051445281482 79.34924528305419,117.37680743113742 81.36660377355292,120.51560355126276 86.89905660389923,120.08402117600781 88.64132075477391,119.22085442542448 90.10849056614097,117.72992375530885 90.35301886789966,112.55083959325566 91.20886792452075,108.70569984501344 97.44433962274343,97.20920099478099 97.75,95.60043815744575 97.16924528311938,93.87395065787132 96.28283018874936,92.69679397091386 76.17037735856138,84.456558236212 76.5066037735669,84.73123667776235 75.80358490569051,87.12485166278202 73.75566037732642,91.3626770611445 75.13113207556307,94.10938139996142 74.58094339619856,96.81682066942449 75.2228301888099,93.79547369977809 73.35830188682303,90.53866049202043 76.2620754718082,84.22111935706926 70.60735849069897,81.70975896186428 69.69037735858001,82.49456151129561 62.629622641485184,95.60043815744575 64.52471698110458,97.64081871599774 63.974528301972896,100.9367865929089 60.67339622648433,106.54769006150309 60.58169811323751,110.98140119135496 57.55566037737299,114.00256226406782 57.80018867936451,115.61121911377995 59.08396226412151,117.10216109245084 57.83075471688062,116.00357303765486 57.433396226377226,113.61020552946138 60.45943396224175,110.86369295575423 60.64283018861897,106.50845336556085 64.0662264151033,100.77983662346378 64.52471698110458,97.95472209423315 67.73415094346274,95.2080555720313 69.04849056596868,92.06897504240624 70.60735849069897,91.28419939737068 73.8167924528243,92.65755532926414 74.64207547169644,93.91318912862334 74.48924528295174,95.7181528256915 72.5330188680673,97.60158076894004 74.39754716982134,96.9737728657492" stroke="#ff0a00" stroke-linecap="round" stroke-linejoin="round" stroke-width="0.5"><title>2023-07-01 21.2km</title></polyline><polyline fill="none" points="117.3028995716013,81.43696604837896 120.78508776798844,83.52094699027657 121.80618054745719,86.34437607915606 123.19381945277564,85.90741899496061 125.10509568080306,86.81494435408968 126.20473405858502,86.2435398997477 126.25709779094905,85.40323675228865 125.47164180676918,84.09235794794222 123.19381945277564,83.11759725710726 121.28254322463181,81.0 119.7639949885197,82.68063427871675 121.12545202788897,83.95790843367286 121.54436188586988,86.37798812953406 120.86363336653449,83.89068364819104 117.32908143778332,81.53780425385048 116.17707932775375,81.50419152347604 112.6948911313666,87.82330182613805 112.48543620225973,89.30221843016625 108.16542828944512,96.25972613391059 108.00833709270228,97.80581147830526 106.93488058098592,99.72159902182466 109.05561173823662,100.72990209313866 110.94070610019844,99.620768480876 111.96179887955077,97.33526482248271 114.03016630443744,95.95723000651924 116.46507985540666,96.39416873447772 117.66944569756743,97.46970681859239 117.93126435903832,99.35188683074375 115.47016894200351,102.07429957782733 115.1036228161538,105.03194745158544 112.85198232822586,106.64519451708475 110.8359786355868,109.63639466738096 110.75743303715717,110.47661270093522 111.90943514718674,112.05621461595001 114.1610756352311,112.52673231948575 115.94144253258128,113.80384713607782 117.27671770565212,117.16464302697568 121.77999868127517,118.1056574168615 122.8272733266931,120.22292626272247 124.24109409819357,121.29835723155702 128.16837401897646,120.69342790634255 130.1320139792515,119.55077945259109 131.0745611602906,118.13926500518573 131.0745611602906,114.47601009088976 132.3051088687498,109.56917709721893 137.174935970339,100.72990209313866 136.93929917516652,98.04108445903694 138.06511941901408,99.45271748502273 137.69857329316437,101.23405203515722 132.20038140425459,111.28321923717158 131.28401608939748,119.04666810584604 129.47746732574888,120.62621344235959 126.33564338926226,121.5 123.4032743817661,120.9286783812131 121.8585442797048,118.30730287609913 120.44472350832075,117.50072001955414 117.22435397328809,117.29907388064021 115.4178052097559,113.53498142534227 114.05634817061946,112.49312394273875 111.7785258165095,112.05621461595001 110.99306983244605,111.18239356888807 110.8359786355868,109.33391545295308 112.66870926518459,106.27549302544503 114.86798602086492,104.83029080348206 115.36544147739187,101.97347002846072 117.3028995716013,99.82242952015076 117.61708196531981,98.64607106159383 117.22435397328809,97.40248582989443 116.51744358753785,96.76388549619878 114.47525802871678,96.192504805309 112.85198232822586,96.83110666426364 111.62143461988308,99.68798884618445 109.18652106891386,101.60376131755766 108.79379307676572,104.05727207796008 107.7727002974134,105.73774438124383 109.13415733666625,101.50293156999396 111.38579782459419,99.75520919261908 112.40689060394652,97.30165431159548 113.42798338318244,96.32694744353648 115.1036228161538,96.09167277695087 117.09344464249443,96.99915950176364 117.82653689442668,98.04108445903694 117.43380890239496,100.12492076029594 115.60107827268075,101.83903056338022 115.20835028064903,104.72946241573663 112.85198232822586,106.61158531424007 111.07161543087568,109.56917709721893 110.96688796626404,110.81269908817194 111.59525275358465,111.92178081643942 114.5014398948988,112.59394905866066 115.62726013874635,113.43415670601826 117.3028995716013,117.33268158223655 118.29781048488803,117.70236598858901 120.20908671303187,117.36628927917627 121.88472614588682,118.1056574168615 122.85345519299153,120.42456993754604 123.84836610627826,121.23114293759863 127.77564602682833,121.0631071201642 130.89128809736576,119.01306064501114 131.33637982152868,117.90401178771572 131.28401608939748,114.30796952913806 132.72401872696355,109.23308896315575 137.4891183640575,100.59546192914422 137.174935970339,98.1755260584614 137.51530023035593,98.71329170071112 136.33711625402793,97.13360168672807 137.4629364979919,98.51162972651946 137.7247551593464,100.36019146042236 137.38439089944586,98.04108445903694 135.55166026984807,96.22611547200358 119.7378131224541,89.4702765566035 121.2563613584498,86.84855633832922 122.43454533454496,85.94103110676224 125.4978236729512,86.74772037152434 126.49273458612151,86.04186741360172" stroke="#4dd2ff" stroke-linecap="round" stroke-linejoin="round" stroke-width="0.5"><title>2023-06-23 11.0km</title></polyline><polyline fill="none" points="186.2996145237703,115.08178572891484 183.4391320567811,114.51255454915372 182.29091022134526,113.6587011723168 179.85345685161883,112.86952660679526 178.66494653071277,112.19678228495468 176.0260507336934,111.20059415240394 173.50802039296832,110.50196227017295 169.06621487194207,110.0362047329545 166.5683287739521,108.96236586496525 163.53662024374353,105.90897236068122 162.12652325292584,105.24911552444973 157.81565530964872,102.1697210008715 156.3652698333608,100.31944695395941 155.15661526983604,99.43958329353336 154.5925764735439,98.24916611352091 153.4141382740927,96.51527003409865 151.4702188509982,94.74252157405135 150.10041034570895,92.56859358279326 149.42557821440278,92.07686464532162 148.85146729671396,91.28750479765586 148.08598607312888,89.82523012061574 147.25,87.30178105477535 149.02269335987512,91.41690851594467 150.40257398656104,92.84033739338338 151.46014672971796,94.60018262371159 153.49471524497494,96.55408896095469 154.66308132308768,98.1844690860089 155.28755284758518,99.47840098555025 156.64728923153598,100.57822878089064 157.8660159164574,102.15678215085791 162.16681173839606,105.19736184680369 163.57690872921376,105.90897236068122 166.48775180306984,108.72948349178478 167.59568515297724,109.37637751649163 166.66904998756945,109.01411742340133 163.46611539419973,105.85721905450919 161.75385476252995,104.97740839178732 157.52356379013509,101.88506587906886 156.56671226065373,100.5394115533054 155.03574981348356,99.25843384749169 154.49185525992652,98.08095374724508 153.39399403135758,96.47645109088626 151.48029097239487,94.69076198121184 150.97668490424985,93.95318461723946 151.92346431233454,95.07895821671991 153.47457100223983,96.43763213127386 154.69329768716125,98.22328730797744 155.22712011937983,99.3878263453953 156.58685650338884,100.46177704891306 157.73507833870826,102.01445468006568 161.7437826411915,104.8997776350152 163.4963317582733,105.81840405573166 166.59854513808386,108.89767637603654 168.9856379010016,109.86801393135102 172.50080825667828,110.42433617779898 173.34686645114562,110.35964771746512 175.28071375284344,110.91596698934882 182.08946779411053,113.50345425193518 183.53985327039845,114.57724008794321 184.1743969162344,114.51255454915372 185.6751429992728,114.92654121117084 187.75,115.08178572891484 186.8535811987822,115.19821894522465 186.23918179556495,115.13353384325455 186.460768465593,115.06884869579517" stroke="#4dd2ff" stroke-linecap="round" stroke-linejoin="round" stroke-width="0.5"><title>2023-05-28 13.0km</title></polyline><polyline fill="none" points="29.685386927216314,142.69626402415452 29.320247933850624,145.00088671492995 27.190270473365672,146.91488086999743 26.916416228516027,149.80537768168142 23.964876033132896,152.50054358286434 21.98703981982544,155.46910187776666 21.865326821920462,157.07054779748432 22.808602554607205,158.47668782956316 25.82099924888462,159.1016366725089 27.190270473365672,160.11717554644565 29.259391435072757,164.68705458191107 33.458489857264794,165.0385806277045 36.440458302153274,168.94439568149392 38.29658151778858,169.45214760894305 42.5565364388749,168.553816644795 45.32550713757519,165.89786464674398 45.69064613082446,159.49222898602602 47.54676934634335,154.49260593677172 52.62828700244427,145.3524376496498 52.75,143.8290470560023 52.11100676190108,142.34470973108546 51.046018031658605,141.29004418471595 33.58020285516977,133.63383361508022 25.151577761163935,130.7431686736527 21.956611570320092,137.69633894829894 19.461495116585866,140.78224082812085 17.787941397400573,144.21966082433937 20.039631855790503,145.23525405410328 22.2608940647915,143.7118628184835 23.35631104442291,141.05567351999343 24.60386927134823,139.92287918864167 27.007700976799242,139.45413535670377 28.711682945140637,140.15725080823177 30.02009767096024,141.9540933285316 30.20266716752667,144.18059947225265 28.255259203608148,146.9539418380591 27.12941397447139,150.7818900840939 24.330015026265755,152.61772411648417 22.352178813074715,155.82063957711216 22.62603305792436,157.92985643987777 26.97727272741031,159.53128818713594 27.85969196096994,160.5858845449984 28.620398196973838,163.39812194538536 29.624530428322032,164.56987913468038 33.1542073629098,164.64799610496266 34.49305033823475,165.27293107804144 36.9273102930747,168.9834535550035 39.39199849741999,169.17874284018762 42.61739293776918,168.51475871095317 45.14293764100876,166.48373859171988 45.447220135247335,160.78117972784094 46.238354620640166,157.61738087717094 52.62828700244427,145.15713162976317 52.50657400453929,143.20406388503034 51.38072877540253,141.6025380968931 25.54714500391856,130.62597892060876 24.360443275771104,131.95412656411645 17.787941397400573,144.25872217107099 20.009203606285155,145.4696211956907 22.16960931639187,143.90716985356994 24.390871525160037,139.96194113898673 25.729714500368573,139.33694927516626 28.10311795643065,139.57132138867746 30.02009767096024,141.09473531111144 30.2939519159263,144.10247675154824 27.950976709253155,147.50079481420107 27.64669421489816,149.92255935104913 26.794703230727464,151.13343370956136 24.45172802428715,152.422423199896 22.352178813074715,155.50816164418939 22.291322314180434,157.3049049633264 23.204169797245413,158.43762848025654 27.524981217226014,160.07811642758315 29.472389181144536,164.45270363785676 33.30634861020371,164.68705458191107 35.04075882793404,166.05409781937487 36.50131480093114,168.74910623175674 37.93144252453931,169.25685851587332 40.45698722777888,169.17874284018762 42.830390683724545,168.28041099276743 45.23422238929197,165.97598124397337 45.47764838475268,160.62494359258562 46.32963936892338,157.07054779748432 52.689143501222134,145.19619284465443 52.59785875293892,143.67280139488867 51.44158527429681,141.75878492146148 39.848422239068896,136.32915628061164 25.212434260058217,130.66504217713373 17.666228399728425,144.21966082433937 19.85706235910766,145.4696211956907 22.10875281749759,143.8290470560023 23.386739293928258,141.05567351999343 25.090721262269653,139.64944538273267 27.829263711581007,139.61038338844082 30.05052592046559,141.0166117233457 30.385236664209515,143.2821868582687 29.959241172182374,144.88370297139045 28.072689707158133,147.0320637576806 27.281555221765302,150.39128553468618 24.360443275771104,152.50054358286434 22.291322314180434,155.78157985472353 22.291322314180434,157.5392619316408 23.35631104442291,158.51574717342737 25.395003756741062,158.94539959347458 27.34241172054317,160.15623465989484 29.28981968446169,164.45270363785676 33.64105935394764,164.8042299799272 35.07118707743939,166.05409781937487 36.65345604810864,168.86627991800196 40.27441773109604,169.13968499400653 43.07381667930167,168.35852692078333 45.355935386847705,166.0931560988247 45.47764838475268,160.7030616712873 46.29921111965086,157.38302397471853 52.59785875293892,145.58680469248793 52.47614575503394,143.08687938406365 51.137302780058235,141.32910594291752 25.30371900834143,130.54785239105695 17.544515402056277,144.45402882204507 19.4919233659748,145.5086823667225 21.74361382436473,144.25872217107099 23.417167543200776,140.70411715234513 25.090721262269653,139.64944538273267 28.10311795643065,139.76663133242982 29.898384673288092,141.05567351999343 30.263523666537367,143.78998564896756 29.65495867782738,145.2743152580515 27.768407212686725,147.11018565521226 27.40326821943745,150.39128553468618 24.17787377932109,152.6958444447373 22.16960931639187,155.78157985472353 22.230465815286152,157.3049049633264 23.052028550067917,158.3985691255075 25.516716754296795,158.86728102102643 27.12941397447139,159.88282075090683 29.624530428322032,164.56987913468038 33.70191585284192,164.84328843504773 35.16247182583902,166.28844741385547 35.86232156283222,168.39758487659856 36.775169045780785,168.9834535550035 40.5482719760621,169.13968499400653 43.104244928690605,168.35852692078333 45.20379413978662,166.32750566035975 45.81235912849661,157.96891586043057 52.59785875293892,144.92276422469877 52.23271975957323,142.69626402415452 50.92430503387004,141.13379709684523 32.819496619165875,133.36039362393785 25.212434260058217,130.66504217713373 17.696656649117358,144.1415381146653 17.940082644694485,145.00088671492995 19.674492862657644,146.25084357420565 19.339782118797302,149.10228662824375 15.59710743802134,155.43004210604704 15.77967693458777,159.49222898602602 12.767280240426771,162.73412401304813 13.132419233792461,164.530820641201 14.379977460601367,165.89786464674398 17.027235161629505,166.0931560988247 18.426934635732323,167.2258438167919 14.197407964034937,165.936922948109 12.828136739321053,164.56987913468038 12.25,163.04659382571117 13.406273478758521,160.97647477369173 15.444966190960258,159.6484657578403 15.657963937032036,155.0394440862292 19.187640871619806,149.29758987700916 19.339782118797302,146.71957594773266 20.070060105295852,145.5086823667225 22.382607062347233,144.1415381146653 23.417167543200776,141.407229442877 24.26915852748789,140.50880786732887 25.9731404959457,139.80569330466096 28.194402704713866,140.50880786732887 29.594102178816684,141.7978466139175 30.05052592046559,143.32124833666603 27.92054845986422,147.50079481420107 27.12941397447139,150.54752742033452 24.330015026265755,152.6567842832883" stroke="#ff0800" stroke-linecap="round" stroke-linejoin="round" stroke-width="0.5"><title>2023-05-21 21.2km</title></polyline><polyline fill="none" points="96.1807004471193,163.95674603970838 93.39418777945684,163.28485470611486 91.60357675113482,162.1736390209844 90.04433681076625,161.73431748332223 88.75670640839962,160.98488177459512 85.51751117740059,159.79610914031218 83.39493293594569,159.21463866053818 78.82786885247333,158.77530296735495 76.58457526087295,157.7803290685406 75.7999254844035,156.81118828352191 73.61698956787586,154.7694982258181 72.02757078985451,153.9295492633828 67.81259314459749,150.87982382252812 66.55514157976722,149.23861609094456 65.13673621462658,148.08846090642328 64.70417287637247,147.0933712006081 63.49701937410282,145.3874780417318 61.605812220601365,143.61693419740186 60.277943368128035,141.51033025193465 58.869597615499515,140.0240468515767 58.22578241437441,138.7962293712917 57.25,135.99157416017988 59.10096870345296,140.30838118951215 60.348360655712895,141.45863384191762 61.65611028322019,143.60401039418502 63.49701937410282,145.28408955887426 65.25745156483026,148.20476938889624 66.65573770494666,149.32907712352608 67.79247391957324,150.84105547427316 71.95715350226965,153.82617039854813 73.51639344263822,154.57566453182517 76.65499254845781,157.6898763613499 79.05923994042678,158.6848512402139 80.70901639346266,158.78822463536926 82.29843517142581,159.18879544268566 83.36475409840932,159.1629522174917 85.54769001493696,159.7573445561793 92.04619970195927,162.28992966443184 93.44448584207566,163.29777573967294 95.64754098362755,163.80169462976482 97.75,164.02135071656812 95.69783904624637,163.85337846216862 93.39418777945684,163.33653882937506 91.87518628913676,162.23824495216104 85.40685543970903,159.71857995572645 83.46535022358876,159.22756026677962 78.93852459016489,158.72361627702048 76.64493293594569,157.79325087659527 73.45603576756548,154.5885867908146 71.92697466473328,153.86493748653447 67.66169895679923,150.8669010416197 66.72615499258973,149.4583070154331 65.19709388981573,148.21769254453102 64.62369597615907,146.98998463866883 63.34612518630456,145.2065481203099 61.72652757080505,143.73324834454252 60.16728763037827,141.40693740278948 58.990312965761404,140.26960837708612 57.91393442620756,138.04660641508963 57.280178837594576,135.97864928343915 58.15536512673134,138.40849412372336 59.09090909094084,140.28253264968953 60.398658718389925,141.5749507235014 61.62593144562561,143.52646753664158 63.38636363641126,145.11608302589593 64.7645305514452,147.0546012535051 65.17697466467507,148.04969137955777 66.77645305520855,149.40661508053017 67.6918777943938,150.7118275284447 72.22876304027159,153.9295492633828 73.55663189274492,154.54982000838208 76.68517138605239,157.6898763613499 79.11959761555772,158.6590078732188 84.00856929959264,159.29216827054915 88.27384500752669,160.79106119940843 83.78725782415131,159.29216827054915 82.30849478393793,159.2017170524923 80.6788375559263,158.83991128938214 79.2000745156547,158.82698962856375 76.48397913569352,157.67695453878696 73.60692995530553,154.74365375695197 71.94709388975753,153.87785984553193 68.114381520194,151.0865880702404 72.20864381524734,153.98123865215894 73.5465722802328,154.614431303351 76.9869597615907,157.83201628978713 79.02906110289041,158.69777292095387 79.98472429218236,158.69777292095387 82.36885245906888,159.18879544268566 83.43517138599418,159.1629522174917 85.08494783908827,159.58936450267356 91.87518628913676,162.1994813989004 93.45454545458779,163.28485470611486 95.57712369604269,163.71124785309803" stroke="#ff0000" stroke-linecap="round" stroke-linejoin="round" stroke-width="0.5"><title>2023-05-14 21.6km</title></polyline><polyline fill="none" points="139.46100261958782,163.14635175809235 137.040069064009,162.68797118669318 135.59329602279468,161.70925873701344 133.47136222902918,161.05264808491484 132.45862110023154,160.40842155436985 129.1310431054444,159.05800833922694 127.56852822098881,158.72349911290803 126.34359371272149,158.71110985787527 124.77143367461395,158.30226346459676 123.11246725404635,158.25270619698858 120.94230769225396,157.3482811638969 120.23821147886338,156.4810155573432 117.83656823047204,154.26325465247646 116.75631102640182,153.8172177788656 115.46386044292012,152.8136265510766 114.62473207898438,152.4295330541645 112.36776613479014,150.6701156177296 111.4804120028275,149.36911532285012 110.03363896161318,148.20439398606686 108.20105977606727,145.30491436716693 106.09841628954746,143.4462233533486 105.11461062158924,141.78575952313986 104.07293403183576,140.84398999732366 103.07948321022559,138.92324460118107 102.25,136.51915581730282 103.88003095966997,140.41027695860248 104.36228864011355,141.09182505999343 105.19177185039734,141.77336788426328 106.49386758747278,143.80557334305195 108.20105977606727,145.29252322368848 109.44528459152207,147.08922081903438 109.88896165747428,148.09287730506912 111.28750893066172,149.23281894124375 112.42563705641078,150.78162903412885 116.62127887585666,153.73048812437628 118.07769707066473,154.52344178519706 121.00982376746833,157.4226178184108 123.20891879010014,158.2898741502795 126.19891640858259,158.77305611551856 127.56852822098881,158.7854453617765 129.34323648479767,159.3181813033225 135.53542510117404,161.70925873701344 137.12687544646906,162.73752595811675 139.02697070722934,163.1711290183448 141.66009764221963,163.4808441826899 142.75,163.15874038909533 142.72106453916058,162.97291074143868 142.12306501541752,163.0720199356656 142.07483924739063,163.36934684901644 141.47683972370578,163.36934684901644 137.19439152174164,162.73752595811675 135.12068349600304,161.52342603031866 129.77726839721436,159.3801271338525 127.44314122403739,158.69872060113994 126.16998094780138,158.68633134265838 124.89682067156537,158.38898861570487 123.33430578705156,158.4013779160523 120.69153369846754,157.31111281312042 117.90408430574462,154.51105193917465 116.55376280064229,153.8419976644509 112.28095975227188,150.74445791100152 111.21999285538914,149.33194360331981 109.83109073585365,148.17961251360975 109.37776851624949,147.21312964630488 108.10460824001348,145.31730550892098 106.41670635860646,143.81796469581604 105.17248154315166,141.88489257128094 104.0343534174608,140.80681467772956 102.99267682776554,138.73736379005277 102.34645153605379,136.6678642453262" stroke="#4dd2ff" stroke-linecap="round" stroke-linejoin="round" stroke-width="0.5"><title>2023-05-07 13.6km</title></polyline><polyline fill="none" points="147.25,143.3396944559645 163.09297520620748,153.07969155034516 166.5516528924927,164.39515954628587 172.799586776644,162.24666262534447 182.1714876028709,166.68688460462727 186.41115702455863,163.96546052454505 184.96074380120263,156.66054943820927 174.1384297516197,150.7879359012004 165.6590909087099,141.90733409265522 161.3078512395732,144.3423455125885 159.52272727200761,149.2123509029625 163.98553718999028,153.65262965799775 167.77892562001944,164.25192655972205 172.24173553753644,162.10342933656648 181.6136363632977,166.68688460462727 184.96074380120263,165.6842555257026 187.0805785120465,161.67372934822924 183.51033057831228,155.37144204776268 172.68801652872935,150.21499618364032 164.76652892539278,142.623514526058 159.96900826413184,149.06911578262225 165.32438016543165,155.37144204776268 167.22107437998056,164.10869355208706 174.91942148748785,163.10606193740387 182.28305785078555,166.83011724962853 186.85743801668286,164.68162546074018 187.41528925625607,161.96019602706656 184.6260330574587,156.37408126995433 172.46487603290007,150.35823114297818 164.76652892539278,142.76675055210944 160.86157024791464,145.9179380380083 159.74586776876822,150.35823114297818 164.76652892539278,154.65527057088912 167.89049586746842,164.82485838746652 173.4690082645975,163.10606193740387 181.0557851237245,167.11658247932792 186.18801652872935,165.54102271946613 187.41528925625607,161.3872625892982 184.737603305839,156.08761302137282 174.58471074327826,151.21764047793113 165.32438016543165,142.48027847940102 160.63842975208536,148.78264548094012 165.4359504133463,155.08497351733968 168.1136363632977,164.39515954628587 172.91115702455863,163.10606193740387 182.61776859499514,166.83011724962853 186.96900826413184,164.10869355208706 187.30371900787577,161.53049597889185 183.62190082622692,155.2282077925047 174.1384297516197,150.9311707802117 165.1012396691367,142.48027847940102 161.97727272752672,144.62881706212647 160.08057851251215,150.07176120381337 164.98966942122206,154.2255674431799 167.3326446278952,164.10869355208706 173.3574380162172,162.96282876876649 183.1756198341027,166.83011724962853 185.74173553660512,165.6842555257026 186.96900826413184,160.81432882905938 182.72933884290978,154.94173922168557 174.36157024791464,151.0744056388503 164.4318181821145,142.623514526058 159.8574380162172,149.78529118432198 164.98966942122206,153.93909859051928 168.33677685959265,164.82485838746652 173.4690082645975,162.5331291431794 183.287190082483,166.68688460462727 187.19214875996113,163.96546052454505 187.75,161.1007957495749 184.737603305839,155.6579104977427 175.0309917354025,150.64470100181643 164.54338843002915,142.05057021952234 160.08057851251215,148.78264548094012 165.77066115709022,155.94437886669766 166.99793388415128,164.39515954628587 174.02685950417072,162.5331291431794 182.50619834661484,166.68688460462727 186.63429751992226,163.96546052454505 187.41528925625607,161.24402917921543 185.18388429749757,155.94437886669766 172.13016528915614,149.06911578262225 165.54752066126093,141.90733409265522 159.74586776876822,149.35558600362856 164.76652892539278,153.22292610746808 167.3326446278952,165.11132418061607 173.3574380162172,162.67636237188708 182.1714876028709,166.54365193960257 186.52272727247328,163.67899440939073 187.0805785120465,161.1007957495749 182.95247933873907,154.65527057088912 172.13016528915614,149.06911578262225 165.88223140500486,141.76409794553183 161.53099173586816,144.7720528068021 159.74586776876822,150.21499618364032 164.65495867747813,152.79322237614542 167.77892562001944,165.3977898930898 173.80371900834143,163.2492950859014 183.73347107460722,166.11395382345654 186.299586776644,164.53839251364116 187.30371900787577,160.2413947469322 184.40289256162941,155.514676282648 173.02272727247328,150.07176120381337 155.28305785125121,133.16989229014143 149.70454545412213,143.91263803781476 162.64669421501458,151.93381436984055 167.55578512419015,165.3977898930898 172.01859504077584,162.67636237188708 183.62190082622692,166.25718654843513 187.19214875996113,163.3925282137934 186.74586776830256,158.37935675610788 181.0557851237245,153.07969155034516 170.3450413220562,147.63676346978173 163.5392561983317,139.04260732792318 154.9483471075073,133.16989229014143 149.25826446292922,142.33704241295345 165.4359504133463,153.50939516117796 167.66735537163913,164.68162546074018 172.46487603290007,161.96019602706656 183.9566115704365,165.9707210775232 187.30371900787577,160.2413947469322 185.07231404958293,156.23084715555888 174.47314049582928,150.9311707802117 163.65082644624636,138.7561342085246 155.72933884337544,133.16989229014143 149.25826446292922,143.0532225446077 163.762396694161,152.07704908773303 167.22107437998056,164.53839251364116 175.14256198331714,162.81959558057133 182.61776859499514,166.54365193960257 186.85743801668286,163.82222747709602 186.96900826413184,159.23875932849478 184.0681818178855,155.2282077925047 170.45661156997085,147.77999879175331 163.98553718999028,139.32908036664594 155.0599173558876,132.8834175207885 149.0351239675656,142.9099865584867 163.5392561983317,151.93381436984055 167.77892562001944,164.96809129428584 172.68801652872935,162.67636237188708 184.17975206580013,165.9707210775232 187.41528925625607,160.95756229932886 183.287190082483,155.08497351733968 171.7954545454122,149.35558600362856 163.762396694161,139.61555332504213 154.725206611678,133.3131296450738 149.14669421454892,142.48027847940102 164.87809917377308,151.7905796318082 166.66322314040735,163.67899440939073 172.799586776644,162.10342933656648 183.39876033039764,165.82748831145 185.85330578498542,164.82485838746652 187.19214875996113,160.81432882905938 182.72933884290978,154.94173922168557 173.24586776830256,150.07176120381337 165.32438016543165,142.19380632648245 161.86570247914642,144.05587388318963 159.96900826413184,149.2123509029625 164.98966942122206,151.7905796318082 167.3326446278952,164.10869355208706 173.13429752085358,162.24666262534447 184.17975206580013,165.9707210775232 187.5268595032394,160.5278618284501 183.9566115704365,155.2282077925047 172.91115702455863,149.4988210836891 154.9483471075073,133.74284158833325 149.25826446292922,142.33704241295345 164.4318181821145,151.50411009497475 167.4442148762755,164.39515954628587 173.58057851251215,162.38989589479752 183.1756198341027,166.54365193960257 186.85743801668286,164.39515954628587 186.63429751992226,159.38199302030262 183.39876033039764,155.08497351733968 173.13429752085358,149.64205614419188 163.98553718999028,139.18584385712165 155.28305785125121,133.59960429405328 150.59710743790492,138.89937077800278 150.26239669462666,143.3396944559645 164.3202479337342,151.21764047793113 167.66735537163913,164.68162546074018 172.57644628128037,162.96282876876649 179.9400826441124,166.11395382345654 185.07231404958293,165.9707210775232 187.5268595032394,162.5331291431794 186.74586776830256,159.0955256165471 180.60950413160026,153.07969155034516 172.46487603290007,150.07176120381337 164.98966942122206,142.76675055210944 161.1962809911929,145.63146685087122 159.52272727200761,150.07176120381337 163.762396694161,151.64734487328678 167.55578512419015,165.11132418061607 173.4690082645975,162.96282876876649 182.72933884290978,166.54365193960257 186.96900826413184,164.25192655972205 186.96900826413184,159.66846034268383 182.61776859499514,154.79850490647368 171.90702479332685,149.35558600362856 155.39462809916586,133.74284158833325 149.4814049587585,143.4829303814331 164.54338843002915,152.50675312126987 167.77892562001944,165.3977898930898 172.35330578451976,162.5331291431794 183.62190082622692,166.40041925373953 187.19214875996113,163.96546052454505 186.96900826413184,159.66846034268383 182.3946280987002,154.79850490647368 172.91115702455863,150.35823114297818 164.09710743790492,139.90202620241325 155.28305785125121,134.459027758101 149.70454545412213,141.47762559144758 164.65495867747813,153.65262965799775" stroke="#4dd2ff" stroke-linecap="round" stroke-linejoin="round" stroke-width="0.5"><title>2023-05-01 14.7km</title></polyline><polyline fill="none" points="12.25,192.01011626725085 28.634615384507924,201.04618387797382 32.32692307699472,213.63729647744913 38.55769230797887,211.71160664432682 48.48076923144981,215.26672358810902 52.51923076901585,211.26721618301235 50.78846153849736,206.2307778665563 37.05769230751321,199.5648666267516 29.903846153523773,190.9731855217833 28.173076923005283,191.12131854787003 23.442307692486793,199.26860292663332 29.326923076994717,202.82376183220185 32.7884615380317,214.22981571801938 37.98076923098415,211.85973675607238 46.403846153989434,215.71111236314755 49.634615384507924,215.26672358810902 52.51923076901585,210.67469527723733 50.55769230797887,205.6382541299099 28.403846153523773,190.82505247520749 23.21153846103698,198.8242072206922 28.403846153523773,201.93497322977055 32.7884615380317,214.22981571801938 37.75,211.56347651104443 47.90384615352377,215.85924191307276 52.403846154455096,211.56347651104443 49.403846153989434,204.89759899035562 39.71153846150264,200.00926202058326 30.01923076901585,190.23252007935662 26.442307692486793,192.45451484585647 23.326923076529056,198.67607527703512 30.48076923051849,204.3050745043438 31.98076923098415,213.9335561391199 38.78846153849736,211.85973675607238 48.25,215.56298279296607 50.903846153989434,214.22981571801938 52.17307692300528,210.23030437901616 47.21153846150264,203.26815585244913 38.903846153989434,199.4167347868206 29.673076923470944,190.38065320940223 24.826923076529056,194.8246374350274 23.557692307047546,199.5648666267516 29.557692307513207,202.52749904803932 32.096153846010566,213.48916661483236 37.98076923098415,211.56347651104443 48.48076923144981,215.41485320101492 52.17307692300528,213.34103673161007 52.51923076901585,210.8228255348513 49.75000000046566,205.49012314353604 35.67307692300528,197.19475469517056 29.442307692486793,190.52878631884232 25.403846153989434,194.38023985514883 24.01923076901585,199.86113024363294 29.326923076994717,201.93497322977055 32.7884615380317,213.78542631829623 39.25,212.00786684721243 47.44230769248679,215.85924191307276 51.25,214.08168593910523 52.51923076901585,209.93404367612675 49.75000000046566,204.89759899035562 36.59615384647623,197.93541524617467 32.32692307699472,191.71385044429917 28.51923076948151,190.08438692858908 23.442307692486793,198.97233914327808 29.442307692486793,202.67563045071438 32.21153846150264,214.08168593910523 39.25,212.00786684721243 48.94230769202113,215.71111236314755 52.51923076901585,212.4522569961846 52.403846154455096,209.34152202063706 46.75,202.52749904803932 36.01923076901585,197.78728317772038 28.634615384507924,190.52878631884232 23.903846153523773,198.3798113267403 31.057692307047546,204.45320565719157 31.75,213.48916661483236 37.634615384973586,212.15599691774696 47.55769230751321,216.00737144297455 51.365384615492076,214.67420493043028 52.75,210.8228255348513 49.173076923470944,204.3050745043438 36.82692307699472,198.23167932091746 28.75,190.82505247520749 24.134615384042263,198.8242072206922 29.557692307513207,203.26815585244913 31.75,214.08168593910523 38.096153846010566,211.56347651104443 48.94230769202113,215.41485320101492 52.75,210.8228255348513 48.365384615492076,203.4162871510489 39.01923076901585,199.12047104549129 28.75,190.23252007935662 24.826923076529056,199.12047104549129 29.788461538031697,201.93497322977055 32.21153846150264,214.5260752135655 38.67307692300528,212.4522569961846 46.17307692300528,215.71111236314755 51.01923076901585,213.78542631829623 52.403846154455096,210.8228255348513 47.78846153849736,203.12002453336027 37.51923076948151,198.23167932091746 30.365384615492076,190.52878631884232 28.403846153523773,190.67691940732766 24.48076923051849,198.97233914327808 30.01923076901585,203.26815585244913 31.173076923005283,213.48916661483236 37.05769230751321,211.56347651104443 49.173076923470944,215.56298279296607 52.75,212.3041269670939 52.75,209.63778289046604 47.21153846150264,201.93497322977055 38.78846153849736,198.8242072206922 30.25,190.23252007935662 28.51923076948151,190.67691940732766 24.134615384042263,199.4167347868206 29.903846153523773,204.00881213624962 31.51923076901585,213.78542631829623 38.44230769202113,211.56347651104443 45.134615384973586,214.97046430082992 50.2115384619683,214.67420493043028 52.28846153849736,212.74851699138526 51.596153846010566,206.52703961008228 37.75,198.0835472936742 19.75,181.49262855702545 14.442307692021132,188.89932097145356 14.096153846010566,191.41758453752846 29.903846153523773,203.12002453336027 32.21153846150264,213.48916661483236 37.865384615492076,211.26721618301235 44.78846153849736,214.5260752135655 50.2115384619683,214.5260752135655 52.403846154455096,211.85973675607238 50.55769230797887,205.6382541299099 28.51923076948151,190.38065320940223 24.826923076529056,196.60222587944008 29.673076923470944,202.82376183220185 32.32692307699472,213.78542631829623 38.21153846150264,210.97095577139407 45.01923076901585,214.82233462564182 49.98076923098415,214.82233462564182 52.28846153849736,211.56347651104443 51.25,206.2307778665563 39.94230769248679,199.86113024363294 32.44230769248679,191.71385044429917 28.634615384507924,190.9731855217833 25.05769230797887,194.8246374350274 24.365384615492076,199.71299844572786 29.903846153523773,204.3050745043438 32.55769230751321,214.22981571801938 38.44230769202113,211.26721618301235 48.01923076948151,215.56298279296607 51.94230769248679,212.74851699138526 50.78846153849736,205.6382541299099 36.94230769202113,197.78728317772038 30.826923076529056,190.08438692858908 28.28846153849736,191.12131854787003 24.826923076529056,198.23167932091746 29.211538461968303,201.49057864770293 31.51923076901585,208.15647771104705 35.32692307699472,206.97143206885085 40.75,199.71299844572786" stroke="#4dd2ff" stroke-linecap="round" stroke-linejoin="round" stroke-width="0.5"><title>2023-04-20 10.0km</title></polyline><polyline fill="none" points="58.38243201721343,203.3849155933858 58.18332309109974,203.12921639676642 57.34333230910124,202.84155342520535 57.25,202.6337959288685 57.405553848540876,202.39407479685542 58.02154708863236,202.0664542808081 58.811760639131535,201.9465926444209 61.82328314642655,201.9465926444209 62.88104931631824,201.7228502466205 70.95118297741283,197.5355085446863 72.50672146258876,196.91217556573974 73.70137501921272,196.7523454951297 74.83380703642615,196.81627757731985 88.354547549563,198.9979167658421 89.98475188203156,199.17372286979662 90.89318635733798,199.133766984869 92.26828237823793,198.82211011791878 93.25138270089519,198.35861725651193 94.17848363803932,197.615422534549 96.15090643722215,195.21795393774664 97.18378399140784,194.82635778764597 97.72511138423579,194.85832492150075 97.75,194.95422621510443 97.49489168843138,194.99418503967172 96.01401905054809,194.38680787306657 95.71535566140665,194.1150844066142 94.89403134121676,195.84929714857572 93.81137655553175,197.3916630796266 92.49227992011583,198.40656496925294 91.68339990780805,198.75818029289076 90.79985404823674,198.98193436580186 89.6549777231412,199.05385513067085 88.31099247196107,198.93398713864735 76.62578737133299,197.04003929845567 74.44181133812526,196.72837094573697 73.36537870642496,196.72037942704264 72.41338915348751,196.88820108379878 71.26851282839198,197.27179158055515 62.81260562298121,201.61097871731909 61.673951451841276,201.78677673589118 58.44465355659486,201.77878592865818 57.37444307885016,202.13837114127455" stroke="#4dd2ff" stroke-linecap="round" stroke-linejoin="round" stroke-width="0.5"><title>2023-03-17 12.5km</title></polyline><polyline fill="none" points="103.27137475012569,203.34920479062566 102.25,202.7653499705957 102.36210210670833,202.5334059812958 102.81051053359988,202.27746668841792 103.91907581116538,202.07751331441978 106.80881900663371,202.07751331441978 107.82396586189861,201.85356470091574 115.93268491467461,197.65436489950662 117.47097493463662,197.03845618663763 118.89093495308771,196.87047992530643 119.78152391203912,196.926472067571 131.67057511917665,198.87816371428926 133.67595725052524,199.16611254910094 135.79344148855307,199.25409662447782 137.36909887744696,198.88616231273772 138.41538520681206,198.34225505639915 139.31842995542684,197.54238199336032 141.26153313854593,195.26268203357904 142.30781946794013,194.846726918262 142.73131631553406,194.91871936749158 142.75,195.0387065803552 142.23931262496626,195.0387065803552 140.87540365985478,194.38277339208798 140.7508457635122,194.2947817790009 140.75707365831477,194.15079520937797 139.7606104874867,196.18257196384002 138.60844994618674,197.65436489950662 137.4749730893236,198.47023370240277 135.99273412273033,198.99014398999498 134.7969783176959,199.10212404515914 133.45798093188205,198.98214540617482 120.342034445639,196.9024754419188 119.140050745802,196.7744932674941 118.21209441794781,196.82248661667109 117.10975703521399,197.0464550438337 116.10706596955424,197.4543952695385 107.80528217746178,201.70959726941146 106.77145163770183,201.9335464498181 103.2340073811938,201.92554828000357 102.3434184222424,202.26147044435857" stroke="#4dd2ff" stroke-linecap="round" stroke-linejoin="round" stroke-width="0.5"><title>2023-03-11 12.5km</title></polyline><polyline fill="none" points="153.83536585234106,190.71388663141988 154.4939024373889,202.55662027560174 170.9573170710355,195.36639469955117 167.66463414393365,187.33023987687193 154.4939024373889,186.90728376456536 152.51829268038273,201.28775818785653 170.9573170710355,195.36639469955117 167.66463414393365,188.17615192383528 152.51829268038273,188.17615192383528 149.55487804673612,194.94343971763737 154.16463414393365,200.8648040392436 165.35975609719753,199.17298685270362 168.65243902243674,190.71388663141988 150.5426829252392,188.59910785709508 153.17682926729321,202.13366630556993 167.00609756074846,199.59594123833813 170.29878048598766,191.98275318206288 151.85975609719753,187.75319593027234 148.89634146168828,193.25161919696257 154.4939024373889,201.71071227709763 167.00609756074846,199.17298685270362 170.29878048598766,191.13684220891446 163.38414634019136,186.06137136253528 151.5304878037423,187.75319593027234 156.14024390093982,202.13366630556993 170.9573170710355,193.25161919696257 166.01829268224537,186.48432759335265 152.84756097383797,186.90728376456536 154.4939024373889,201.71071227709763 162.39634146355093,201.71071227709763 170.6280487794429,193.25161919696257 154.16463414393365,186.06137136253528 148.56707317009568,188.59910785709508 151.5304878037423,197.48116871295497 169.96951219253242,194.94343971763737 168.65243902243674,189.02206373028457 155.15243902243674,185.63841507257894 148.89634146168828,199.17298685270362 167.9939024373889,198.75003240676597 171.28658536449075,193.25161919696257 155.81097560748458,186.06137136253528 147.9085365831852,194.097529577557 155.48170731589198,200.8648040392436 167.3353658504784,197.90412333700806 168.65243902243674,188.59910785709508 150.87195121869445,187.75319593027234 147.5792682915926,193.67457441682927 153.5060975588858,200.44184983242303 167.9939024373889,197.48116871295497 170.29878048598766,191.55979772517458 155.15243902243674,186.06137136253528 148.56707317009568,192.40570857957937 150.87195121869445,202.13366630556993 169.96951219253242,197.48116871295497 167.66463414393365,187.33023987687193 157.4573170710355,186.06137136253528 149.22560975514352,191.55979772517458 150.21341463178396,198.75003240676597 162.06707317009568,200.01889556529932 169.96951219253242,194.52048467705026 168.32317073084414,187.75319593027234 154.4939024373889,186.06137136253528 147.5792682915926,194.097529577557 150.21341463178396,200.01889556529932 162.06707317009568,200.8648040392436 171.615853657946,191.98275318206288 155.48170731589198,186.90728376456536 148.89634146168828,193.25161919696257 153.17682926729321,201.28775818785653 169.31097560748458,196.21230448270217 169.64024390093982,189.8679752999451 155.48170731589198,186.48432759335265 148.23780487664044,195.78934962069616 152.84756097383797,200.8648040392436 166.01829268224537,199.17298685270362 170.9573170710355,191.98275318206288 153.83536585234106,187.33023987687193 148.56707317009568,190.71388663141988 152.18902438879013,200.8648040392436 170.9573170710355,193.67457441682927 166.67682926729321,187.33023987687193 153.83536585234106,187.33023987687193 148.89634146168828,191.55979772517458 151.85975609719753,200.44184983242303 164.0426829252392,200.01889556529932 170.9573170710355,191.13684220891446 152.51829268038273,187.33023987687193 148.56707317009568,191.55979772517458 153.83536585234106,200.44184983242303 169.31097560748458,198.327077902155 171.9451219495386,192.40570857957937 155.15243902243674,186.06137136253528 149.55487804673612,189.4450195445679 150.5426829252392,200.01889556529932 170.29878048598766,194.94343971763737 165.0304878037423,186.48432759335265 151.5304878037423,187.33023987687193 152.84756097383797,200.8648040392436 167.00609756074846,197.90412333700806 170.9573170710355,190.71388663141988 150.5426829252392,188.59910785709508 154.16463414393365,201.28775818785653 170.6280487794429,193.25161919696257 165.0304878037423,186.48432759335265 150.5426829252392,188.59910785709508 149.22560975514352,196.21230448270217 157.12804877758026,201.71071227709763 171.615853657946,192.40570857957937 164.37195121869445,186.06137136253528 149.88414634019136,188.17615192383528 151.20121951028705,200.8648040392436 162.39634146355093,201.71071227709763 170.9573170710355,192.82866391842254 153.5060975588858,186.48432759335265 148.56707317009568,194.94343971763737 152.18902438879013,200.8648040392436 169.31097560748458,197.90412333700806 171.28658536449075,192.82866391842254 154.4939024373889,187.33023987687193 149.88414634019136,190.29093099501915 152.84756097383797,200.8648040392436 165.68902438879013,201.28775818785653 171.28658536449075,195.36639469955117 169.96951219253242,189.4450195445679 157.78658536449075,186.06137136253528 151.20121951028705,188.59910785709508 150.87195121869445,199.17298685270362 169.96951219253242,195.36639469955117 164.70121951028705,186.48432759335265 150.87195121869445,188.17615192383528 150.87195121869445,199.59594123833813 170.29878048598766,196.63525928673334 167.66463414393365,187.33023987687193 154.4939024373889,186.06137136253528 149.55487804673612,189.8679752999451 152.18902438879013,200.44184983242303 169.31097560748458,199.59594123833813 166.01829268224537,186.48432759335265 150.87195121869445,187.75319593027234 148.56707317009568,195.36639469955117 164.0426829252392,200.44184983242303 170.29878048598766,195.36639469955117 165.35975609719753,186.06137136253528 148.56707317009568,192.40570857957937 153.83536585234106,201.71071227709763 166.01829268224537,200.44184983242303 170.9573170710355,191.98275318206288 161.4085365831852,186.48432759335265 151.5304878037423,187.75319593027234 148.56707317009568,197.48116871295497 168.32317073084414,197.48116871295497 169.96951219253242,189.4450195445679 163.71341463178396,185.63841507257894 149.88414634019136,188.17615192383528 148.89634146168828,196.63525928673334 156.46951219439507,200.44184983242303 169.64024390093982,195.36639469955117 170.29878048598766,189.8679752999451 161.73780487664044,186.06137136253528 150.87195121869445,188.59910785709508 150.5426829252392,198.75003240676597 168.98170731589198,197.48116871295497 168.98170731589198,189.02206373028457 154.16463414393365,186.06137136253528 148.56707317009568,196.21230448270217 165.68902438879013,199.59594123833813 169.96951219253242,195.78934962069616 167.3353658504784,186.48432759335265 154.16463414393365,185.63841507257894 147.5792682915926,194.52048467705026 153.5060975588858,201.28775818785653 169.31097560748458,198.327077902155 169.31097560748458,188.17615192383528 163.38414634019136,185.63841507257894 150.21341463178396,187.75319593027234 149.55487804673612,197.05821402953006 166.34756097383797,199.59594123833813 170.6280487794429,191.98275318206288 165.68902438879013,186.48432759335265 152.18902438879013,186.06137136253528 148.89634146168828,195.36639469955117 165.68902438879013,200.01889556529932 170.9573170710355,191.98275318206288 162.72560975328088,186.06137136253528 153.17682926729321,186.48432759335265 148.89634146168828,195.36639469955117 152.51829268038273,200.01889556529932 168.32317073084414,199.17298685270362 171.9451219495386,194.097529577557 166.34756097383797,185.63841507257894 148.23780487664044,191.98275318206288 153.17682926729321,200.8648040392436 166.67682926729321,199.59594123833813 170.6280487794429,190.29093099501915 165.68902438879013,185.63841507257894 151.20121951028705,187.75319593027234 148.23780487664044,192.82866391842254 150.5426829252392,198.75003240676597 165.0304878037423,200.01889556529932 170.29878048598766,194.52048467705026 165.68902438879013,186.90728376456536 151.85975609719753,187.33023987687193 147.9085365831852,194.94343971763737 151.5304878037423,200.44184983242303 165.68902438879013,200.01889556529932 169.96951219253242,196.21230448270217 164.70121951028705,186.06137136253528 152.51829268038273,186.90728376456536 147.25,194.94343971763737 163.71341463178396,200.44184983242303 169.64024390093982,197.05821402953006 167.9939024373889,187.33023987687193 155.48170731589198,185.63841507257894 147.25,191.13684220891446 151.20121951028705,198.75003240676597 164.37195121869445,199.17298685270362 170.6280487794429,190.29093099501915 166.67682926729321,186.06137136253528 147.9085365831852,189.02206373028457 150.5426829252392,198.75003240676597 164.0426829252392,199.59594123833813 170.6280487794429,194.52048467705026 167.66463414393365,186.48432759335265 149.22560975514352,190.71388663141988 152.51829268038273,199.17298685270362 163.38414634019136,199.59594123833813 169.64024390093982,197.48116871295497 167.9939024373889,187.33023987687193 152.84756097383797,186.06137136253528 147.25,191.98275318206288 152.51829268038273,200.01889556529932 165.35975609719753,200.01889556529932 170.6280487794429,193.25161919696257 163.38414634019136,186.90728376456536 154.4939024373889,186.48432759335265 147.9085365831852,193.25161919696257 150.87195121869445,198.75003240676597 163.71341463178396,198.75003240676597 169.96951219253242,196.21230448270217 167.66463414393365,186.90728376456536 151.85975609719753,186.90728376456536 148.23780487664044,191.55979772517458 152.51829268038273,199.59594123833813 166.34756097383797,198.75003240676597 170.6280487794429,194.097529577557 166.67682926729321,186.06137136253528 152.51829268038273,185.63841507257894 148.23780487664044,191.55979772517458 153.5060975588858,199.59594123833813 166.34756097383797,198.75003240676597 171.28658536449075,193.25161919696257 165.68902438879013,186.48432759335265 148.23780487664044,191.13684220891446 153.5060975588858,199.17298685270362 167.3353658504784,197.90412333700806 170.9573170710355,193.25161919696257 165.35975609719753,185.21545872162096 150.5426829252392,186.90728376456536 148.56707317009568,197.05821402953006 169.31097560748458,197.48116871295497 168.98170731589198,188.17615192383528 163.05487804673612,185.63841507257894 150.87195121869445,187.33023987687193 147.9085365831852,193.67457441682927 155.15243902243674,200.8648040392436 169.96951219253242,197.90412333700806 167.9939024373889,188.17615192383528 155.15243902243674,186.48432759335265 149.55487804673612,188.17615192383528 148.89634146168828,197.90412333700806 168.98170731589198,197.48116871295497 170.29878048598766,191.55979772517458 160.0914634130895,186.48432759335265 151.5304878037423,187.33023987687193 147.5792682915926,195.78934962069616 166.34756097383797,199.17298685270362 170.29878048598766,190.71388663141988 161.4085365831852,185.63841507257894 151.85975609719753,186.90728376456536 147.9085365831852,196.63525928673334 157.4573170710355,200.8648040392436 169.64024390093982,197.05821402953006 167.3353658504784,187.33023987687193 161.0792682915926,186.06137136253528 149.22560975514352,189.4450195445679 148.89634146168828,197.48116871295497 167.66463414393365,199.59594123833813 169.96951219253242,189.4450195445679 165.35975609719753,185.63841507257894 149.55487804673612,188.59910785709508 148.56707317009568,195.78934962069616 167.9939024373889,197.48116871295497 169.31097560748458,188.17615192383528 164.37195121869445,184.792502311524 151.5304878037423,186.48432759335265 148.23780487664044,195.36639469955117 165.68902438879013,200.01889556529932 170.6280487794429,191.13684220891446 167.00609756074846,186.48432759335265 150.5426829252392,187.33023987687193 147.25,194.52048467705026 155.15243902243674,200.44184983242303 167.66463414393365,199.17298685270362 171.28658536449075,191.55979772517458 163.05487804673612,185.21545872162096 149.88414634019136,188.17615192383528 148.56707317009568,195.36639469955117 167.3353658504784,199.59594123833813 170.9573170710355,191.13684220891446 166.67682926729321,186.48432759335265 153.83536585234106,186.48432759335265 147.9085365831852,194.52048467705026 166.01829268224537,200.01889556529932 170.6280487794429,195.78934962069616 165.35975609719753,186.90728376456536 147.9085365831852,193.67457441682927 154.82317073084414,200.8648040392436 167.3353658504784,199.59594123833813 170.9573170710355,194.52048467705026 166.01829268224537,186.48432759335265 152.51829268038273,186.90728376456536 148.23780487664044,194.94343971763737 153.5060975588858,200.44184983242303 166.01829268224537,199.59594123833813 170.6280487794429,191.55979772517458 165.68902438879013,186.90728376456536 150.87195121869445,187.33023987687193 147.25,194.52048467705026 166.01829268224537,199.17298685270362 170.29878048598766,196.21230448270217 166.01829268224537,186.48432759335265 147.9085365831852,190.29093099501915 150.87195121869445,199.17298685270362 165.68902438879013,199.59594123833813 169.96951219253242,195.78934962069616 165.68902438879013,186.48432759335265 151.5304878037423,186.48432759335265 148.56707317009568,196.21230448270217 168.65243902243674,197.48116871295497 171.615853657946,192.82866391842254 163.71341463178396,185.63841507257894 147.9085365831852,192.40570857957937 149.88414634019136,197.90412333700806 162.06707317009568,199.17298685270362 169.31097560748458,195.78934962069616 167.00609756074846,186.90728376456536 148.56707317009568,189.02206373028457 151.5304878037423,198.75003240676597 164.37195121869445,199.59594123833813 171.28658536449075,191.98275318206288 163.71341463178396,185.21545872162096 149.88414634019136,187.75319593027234 148.23780487664044,194.94343971763737 156.46951219439507,201.28775818785653 169.64024390093982,197.48116871295497 163.71341463178396,186.06137136253528 154.4939024373889,186.06137136253528 148.23780487664044,194.52048467705026 166.01829268224537,199.59594123833813 170.29878048598766,191.98275318206288 166.67682926729321,186.90728376456536 148.56707317009568,190.71388663141988 153.83536585234106,200.01889556529932 167.3353658504784,199.59594123833813 169.64024390093982,189.02206373028457 164.37195121869445,185.63841507257894 150.87195121869445,186.90728376456536 148.89634146168828,197.05821402953006 166.67682926729321,199.59594123833813 170.29878048598766,194.097529577557 165.68902438879013,186.48432759335265 152.18902438879013,186.48432759335265 147.5792682915926,194.097529577557 153.83536585234106,200.44184983242303 168.32317073084414,198.327077902155 165.0304878037423,186.06137136253528 158.7743902411312,186.06137136253528 162.39634146355093,193.25161919696257 175.23780487664044,201.28775818785653 178.20121951028705,211.43863988737576 187.75,212.70749768870883" stroke="#4dd2ff" stroke-linecap="round" stroke-linejoin="round" stroke-width="0.5"><title>2021-06-01 11.4km</title></polyline><polyline fill="none" points="48.69999999925494,251.40178802469745 35.03125,235.79473054641858 14.274999998509884,244.89885381236672 14.274999998509884,255.95383652532473 42.11875000037253,252.05208094185218 36.55000000074506,233.8438446559012 23.893749998882413,235.79473054641858 12.25,252.7023737677373 23.893749998882413,263.757337811403 45.15625,254.65325169684365 45.15625,237.74561561411247 35.03125,233.8438446559012 16.300000000745058,252.7023737677373 42.625,252.05208094185218 48.19374999962747,244.24855988891795 38.06874999962747,231.24266218859702 16.80625000037253,246.84973503742367 23.387499999254942,259.20529699744657 42.625,255.30354415765032 48.69999999925494,246.1994413868524 38.57500000111759,233.19354917528108 19.84375,240.34679442085326 16.80625000037253,255.30354415765032 44.14375000074506,250.75149501347914 48.19374999962747,242.29767756722867 36.04374999925494,231.24266218859702 16.300000000745058,241.64738327637315 16.80625000037253,251.40178802469745 45.662500001490116,255.30354415765032 50.72499999962747,239.0462052016519 43.63749999925494,234.49414004571736 20.350000001490116,243.59826587419957 27.4375,261.15617218147963 48.19374999962747,252.7023737677373 50.21875,240.34679442085326 23.893749998882413,234.49414004571736 14.274999998509884,243.59826587419957 40.59999999962747,250.75149501347914 49.20624999888241,247.50002859719098 44.65000000037253,232.54325360432267 21.362500000745058,233.19354917528108 15.793750001117587,246.84973503742367 44.14375000074506,251.40178802469745 50.21875,243.59826587419957 42.625,232.54325360432267 15.793750001117587,241.64738327637315 22.88124999962747,256.6041288031265 45.15625,252.05208094185218 49.71250000037253,236.44502565916628 42.625,231.89295794069767 19.33750000037253,235.79473054641858 15.793750001117587,244.89885381236672 26.425000000745058,254.00295914616436 48.19374999962747,248.15032206242904 48.19374999962747,235.14443534146994 38.57500000111759,231.89295794069767 20.350000001490116,235.79473054641858 18.831249998882413,252.7023737677373 46.67500000074506,252.7023737677373 51.73750000074506,242.9479717677459 40.59999999962747,231.89295794069767 17.81874999962747,237.09532068204135 19.84375,254.00295914616436 48.69999999925494,247.50002859719098 50.72499999962747,239.0462052016519 37.05625000037253,232.54325360432267 22.88124999962747,233.8438446559012 16.300000000745058,248.15032206242904 26.931250002235174,255.95383652532473 48.69999999925494,247.50002859719098 38.57500000111759,231.89295794069767 19.33750000037253,236.44502565916628 16.300000000745058,246.84973503742367 26.931250002235174,255.95383652532473 43.131250001490116,252.7023737677373 50.72499999962747,246.84973503742367 45.662500001490116,233.8438446559012 16.80625000037253,241.64738327637315 20.856250001117587,255.30354415765032 44.65000000037253,250.75149501347914 50.72499999962747,244.89885381236672 43.131250001490116,231.89295794069767 22.375,233.8438446559012 16.80625000037253,242.9479717677459 26.425000000745058,256.6041288031265 46.16874999925494,252.05208094185218 51.23125000111759,245.54914764640853 42.11875000037253,233.8438446559012 19.33750000037253,235.79473054641858 16.300000000745058,242.9479717677459 20.350000001490116,254.65325169684365 42.11875000037253,255.30354415765032 49.71250000037253,251.40178802469745 46.67500000074506,235.79473054641858 25.918749999254942,233.8438446559012 17.3125,241.64738327637315 20.856250001117587,254.65325169684365 42.625,255.30354415765032 51.73750000074506,242.29767756722867 46.16874999925494,235.79473054641858 24.40000000037253,234.49414004571736 16.80625000037253,243.59826587419957 19.84375,254.65325169684365 45.662500001490116,252.05208094185218 49.20624999888241,237.09532068204135 41.10625000111759,233.8438446559012 17.3125,238.3959104544483 16.80625000037253,247.50002859719098 22.375,257.25442098872736 42.11875000037253,255.30354415765032 50.21875,250.10120191331953 45.15625,235.79473054641858 16.80625000037253,241.64738327637315 23.387499999254942,257.25442098872736 43.131250001490116,254.65325169684365 50.72499999962747,248.80061543732882 43.131250001490116,233.19354917528108 19.84375,236.44502565916628 17.3125,245.54914764640853 27.4375,257.9047130821273 48.19374999962747,252.7023737677373 44.14375000074506,232.54325360432267 19.84375,236.44502565916628 17.81874999962747,247.50002859719098 21.362500000745058,255.95383652532473 42.11875000037253,256.6041288031265 51.23125000111759,241.64738327637315 45.15625,234.49414004571736 18.325000001117587,238.3959104544483 23.893749998882413,258.55500508565456 43.131250001490116,257.9047130821273 50.21875,252.7023737677373 47.181250002235174,237.74561561411247 17.3125,240.99708889517933 24.40000000037253,259.855588816572 41.61250000074506,257.9047130821273 49.71250000037253,252.7023737677373 48.19374999962747,238.3959104544483 24.90625,234.49414004571736 16.80625000037253,244.24855988891795 20.350000001490116,255.95383652532473 45.662500001490116,254.65325169684365 51.73750000074506,240.99708889517933 43.63749999925494,233.8438446559012 20.350000001490116,235.79473054641858 18.325000001117587,243.59826587419957 25.412500001490116,259.855588816572 43.131250001490116,257.9047130821273 49.20624999888241,239.69649985712022 18.325000001117587,240.34679442085326 20.350000001490116,254.00295914616436 31.99375000037253,258.55500508565456 49.71250000037253,252.05208094185218 47.181250002235174,236.44502565916628 15.287500001490116,240.99708889517933 23.893749998882413,259.20529699744657 35.03125,258.55500508565456 46.67500000074506,255.30354415765032 50.21875,239.0462052016519 19.33750000037253,239.69649985712022 20.350000001490116,255.95383652532473 38.57500000111759,259.20529699744657 51.23125000111759,250.75149501347914 44.65000000037253,237.09532068204135 21.362500000745058,236.44502565916628 15.287500001490116,244.24855988891795 27.4375,255.95383652532473 43.63749999925494,254.65325169684365 50.21875,239.0462052016519 43.63749999925494,233.19354917528108 16.80625000037253,240.99708889517933 20.856250001117587,253.35266650188714 35.537500001490116,258.55500508565456 51.23125000111759,248.15032206242904 48.69999999925494,238.3959104544483 18.831249998882413,239.0462052016519 20.856250001117587,256.6041288031265 40.09375,259.20529699744657 50.72499999962747,244.89885381236672 45.15625,237.74561561411247 28.956249998882413,235.79473054641858 16.300000000745058,245.54914764640853 26.425000000745058,258.55500508565456 42.625,257.9047130821273 51.73750000074506,244.24855988891795 45.662500001490116,235.79473054641858 19.84375,238.3959104544483 21.362500000745058,254.65325169684365 34.52500000037253,257.9047130821273 49.20624999888241,252.05208094185218 46.67500000074506,237.74561561411247 17.81874999962747,239.69649985712022 22.88124999962747,257.9047130821273 45.15625,257.9047130821273 51.73750000074506,245.54914764640853 37.5625,234.49414004571736 23.893749998882413,235.14443534146994 17.81874999962747,249.45090872235596 22.375,257.9047130821273 44.65000000037253,257.25442098872736 46.16874999925494,237.09532068204135 25.412500001490116,234.49414004571736 16.300000000745058,248.80061543732882 28.449999999254942,257.9047130821273 45.662500001490116,255.95383652532473 44.65000000037253,235.79473054641858 23.893749998882413,235.14443534146994 17.3125,242.9479717677459 21.86875000037253,257.25442098872736 41.61250000074506,257.9047130821273 50.21875,243.59826587419957 44.65000000037253,237.09532068204135 23.893749998882413,234.49414004571736 15.287500001490116,246.84973503742367 24.90625,257.25442098872736 46.67500000074506,254.65325169684365 48.69999999925494,237.74561561411247 40.09375,234.49414004571736 26.425000000745058,233.8438446559012 16.80625000037253,249.45090872235596 42.625,255.95383652532473 51.23125000111759,242.29767756722867 41.10625000111759,233.19354917528108 19.33750000037253,237.74561561411247 18.831249998882413,252.7023737677373 46.67500000074506,255.30354415765032 51.23125000111759,247.50002859719098 41.10625000111759,234.49414004571736 15.793750001117587,244.89885381236672 22.88124999962747,255.95383652532473 45.15625,255.30354415765032 50.72499999962747,240.34679442085326 43.131250001490116,236.44502565916628 16.80625000037253,243.59826587419957 23.387499999254942,256.6041288031265 44.14375000074506,254.65325169684365 50.72499999962747,248.15032206242904 46.16874999925494,235.14443534146994 18.325000001117587,237.74561561411247 14.78125,247.50002859719098 23.387499999254942,257.25442098872736 43.63749999925494,254.00295914616436 49.71250000037253,239.0462052016519 42.11875000037253,234.49414004571736 20.350000001490116,235.14443534146994 15.793750001117587,243.59826587419957 24.40000000037253,256.6041288031265 45.662500001490116,254.00295914616436 50.21875,239.69649985712022 43.131250001490116,236.44502565916628 23.893749998882413,235.14443534146994 15.793750001117587,245.54914764640853 24.40000000037253,257.25442098872736 44.65000000037253,255.30354415765032 51.23125000111759,248.80061543732882 43.131250001490116,233.8438446559012 20.856250001117587,235.14443534146994 17.3125,242.9479717677459 26.425000000745058,256.6041288031265 48.69999999925494,254.00295914616436 52.75,246.1994413868524 43.63749999925494,235.79473054641858 20.350000001490116,237.09532068204135 16.80625000037253,246.1994413868524 27.4375,257.9047130821273 47.181250002235174,254.00295914616436 52.24375000037253,245.54914764640853 41.10625000111759,233.8438446559012 19.84375,237.09532068204135 16.300000000745058,248.80061543732882 25.412500001490116,257.9047130821273 46.67500000074506,254.00295914616436 45.662500001490116,235.79473054641858 25.918749999254942,234.49414004571736 16.300000000745058,247.50002859719098 22.88124999962747,256.6041288031265 48.69999999925494,252.05208094185218 48.19374999962747,237.74561561411247 38.57500000111759,233.8438446559012 24.40000000037253,234.49414004571736 17.3125,249.45090872235596 32.5,257.25442098872736 48.19374999962747,253.35266650188714 44.14375000074506,234.49414004571736 17.81874999962747,240.34679442085326 28.449999999254942,257.9047130821273 46.16874999925494,255.30354415765032 52.75,248.80061543732882 45.662500001490116,235.14443534146994 23.387499999254942,235.14443534146994 17.81874999962747,248.15032206242904 25.412500001490116,256.6041288031265 47.181250002235174,255.30354415765032 52.24375000037253,247.50002859719098 41.10625000111759,235.14443534146994 19.84375,237.74561561411247 16.80625000037253,246.1994413868524 27.4375,257.9047130821273 48.69999999925494,254.00295914616436 52.24375000037253,246.1994413868524 41.10625000111759,234.49414004571736 19.33750000037253,237.74561561411247 20.350000001490116,254.00295914616436 50.72499999962747,252.05208094185218 47.6875,237.09532068204135 38.06874999962747,233.8438446559012 20.856250001117587,235.79473054641858 16.300000000745058,248.80061543732882 23.893749998882413,256.6041288031265 49.20624999888241,252.7023737677373 51.73750000074506,244.24855988891795 38.57500000111759,234.49414004571736 18.325000001117587,239.0462052016519 19.33750000037253,254.00295914616436 48.19374999962747,254.00295914616436 47.181250002235174,237.09532068204135 36.55000000074506,235.14443534146994 22.375,235.79473054641858 15.287500001490116,248.15032206242904 43.131250001490116,256.6041288031265 50.21875,242.9479717677459 44.65000000037253,237.09532068204135 21.362500000745058,236.44502565916628 15.793750001117587,250.10120191331953 44.14375000074506,256.6041288031265 51.73750000074506,243.59826587419957 36.55000000074506,234.49414004571736 24.40000000037253,235.14443534146994 16.80625000037253,250.10120191331953 30.981250001117587,258.55500508565456 48.69999999925494,254.65325169684365 47.181250002235174,237.09532068204135 38.06874999962747,234.49414004571736 18.831249998882413,240.34679442085326 16.80625000037253,250.75149501347914 28.449999999254942,257.25442098872736 50.72499999962747,250.10120191331953 43.131250001490116,235.14443534146994 31.99375000037253,234.49414004571736 20.350000001490116,237.09532068204135 17.3125,252.7023737677373 47.181250002235174,254.65325169684365 47.6875,237.74561561411247 38.06874999962747,233.8438446559012 17.81874999962747,238.3959104544483 19.84375,255.30354415765032 49.71250000037253,252.05208094185218 47.181250002235174,237.09532068204135 38.06874999962747,234.49414004571736 22.88124999962747,236.44502565916628 16.300000000745058,252.05208094185218 47.181250002235174,255.30354415765032 49.71250000037253,240.34679442085326 30.981250001117587,234.49414004571736 20.350000001490116,237.09532068204135 18.831249998882413,252.7023737677373 50.21875,251.40178802469745" stroke="#4dd2ff" stroke-linecap="round" stroke-linejoin="round" stroke-width="0.5"><title>2020-11-29 10.4km</title></polyline></svg>