<?xml version="1.0" encoding="utf-8" ?>
<svg baseProfile="full" height="300mm" version="1.1" viewBox="0,0,200,300" width="200mm" xmlns="http://www.w3.org/2000/svg" xmlns:ev="http://www.w3.org/2001/xml-events" xmlns:xlink="http://www.w3.org/1999/xlink"><defs /><rect fill="#222222" height="300" width="200" x="0" y="0" /><text fill="#FFFFFF" style="font-size:12px; font-family:Arial; font-weight:bold;" x="10" y="20">Over 10km Runs</text><text fill="#FFFFFF" style="font-size:4px; font-family:Arial" x="10" y="280">ATHLETE</text><text fill="#FFFFFF" style="font-size:9px; font-family:Arial" x="10" y="290">Abuqi</text><text fill="#FFFFFF" style="font-size:4px; font-family:Arial" x="120" y="280">STATISTICS</text><text fill="#FFFFFF" style="font-size:3px; font-family:Arial" x="120" y="285">Number: 3</text><text fill="#FFFFFF" style="font-size:3px; font-family:Arial" x="120" y="290">Weekly: 1.0</text><text fill="#FFFFFF" style="font-size:3px; font-family:Arial" x="141" y="285">Total: 34.2 km</text><text fill="#FFFFFF" style="font-size:3px; font-family:Arial" x="141" y="290">Avg: 11.4 km</text><text fill="#FFFFFF" style="font-size:3px; font-family:Arial" x="167" y="285">Min: 10.4 km</text><text fill="#FFFFFF" style="font-size:3px; font-family:Arial" x="167" y="290">Max: 12.5 km</text><polyline fill="none" points="16.542749500251375,84.19840958125133 14.5,83.03069994119141 14.72420421341667,82.5668119625916 15.621021067199763,82.05493337683583 17.83815162233077,81.65502662883955 23.617638013267424,81.65502662883955 25.647931723797228,81.20712940183148 41.86536982934922,72.80872979901324 44.94194986927323,71.57691237327526 47.781869906175416,71.24095985061285 49.56304782407824,71.35294413514202 73.3411502383533,75.25632742857852 77.35191450105049,75.83222509820189 81.58688297710614,76.00819324895565 84.73819775489392,75.27232462547545 86.83077041362412,74.1845101127983 88.63685991085367,72.58476398672065 92.52306627709186,68.02536406715808 94.61563893588027,67.19345383652399 95.46263263106812,67.33743873498315 95.5,67.57741316071042 94.47862524993252,67.57741316071042 91.75080731970957,66.26554678417597 91.50169152702438,66.08956355800183 91.51414731662953,65.80159041875595 89.5212209749734,69.86514392768004 87.21689989237348,72.80872979901324 84.94994617864722,74.44046740480553 81.98546824546065,75.48028797998995 79.5939566353918,75.70424809031829 76.9159618637641,75.46429081234965 50.684068891278,71.30495088383759 48.280101491604,71.04898653498822 46.42418883589562,71.14497323334217 44.21951407042798,71.5929100876674 42.21413193910848,72.40879053907702 25.610564354923554,80.91919453882292 23.54290327540366,81.36709289963619 16.46801476238761,81.35109656000714 14.686836844484787,82.02294088871713" stroke="#4dd2ff" stroke-linecap="round" stroke-linejoin="round" stroke-width="0.5"><title>2023-03-11 12.5km</title></polyline><polyline fill="none" points="117.67073170468211,58.927773262839764 118.9878048747778,82.61324055120349 151.914634142071,68.23278939910233 145.3292682878673,52.16047975374386 118.9878048747778,51.31456752913073 115.03658536076546,80.07551637571305 151.914634142071,68.23278939910233 145.3292682878673,53.852303847670555 115.03658536076546,53.852303847670555 109.10975609347224,67.38687943527475 118.32926828786731,79.22960807848722 140.71951219439507,75.84597370540723 147.30487804487348,58.927773262839764 111.08536585047841,54.698215714190155 116.35365853458643,81.76733261113986 144.01219512149692,76.69188247667626 150.59756097197533,61.46550636412576 113.71951219439507,53.00639186054468 107.79268292337656,64.00323839392513 118.9878048747778,80.92142455419526 144.01219512149692,75.84597370540723 150.59756097197533,59.77368441782892 136.76829268038273,49.622742725070566 113.06097560748458,53.00639186054468 122.28048780187964,81.76733261113986 151.914634142071,64.00323839392513 142.03658536449075,50.46865518670529 115.69512194767594,51.31456752913073 118.9878048747778,80.92142455419526 134.79268292710185,80.92142455419526 151.2560975588858,64.00323839392513 118.32926828786731,49.622742725070566 107.13414634019136,54.698215714190155 113.06097560748458,72.46233742590994 149.93902438506484,67.38687943527475 147.30487804487348,55.54412746056914 120.30487804487348,48.776830145157874 107.79268292337656,75.84597370540723 145.9878048747778,75.00006481353194 152.5731707289815,64.00323839392513 121.62195121496916,49.622742725070566 105.81707316637039,65.695059155114 120.96341463178396,79.22960807848722 144.67073170095682,73.30824667401612 147.30487804487348,54.698215714190155 111.7439024373889,53.00639186054468 105.1585365831852,64.84914883365855 117.01219511777163,78.38369966484606 145.9878048747778,72.46233742590994 150.59756097197533,60.61959545034915 120.30487804487348,49.622742725070566 107.13414634019136,62.31141715915874 111.7439024373889,81.76733261113986 149.93902438506484,72.46233742590994 145.3292682878673,52.16047975374386 124.91463414207101,49.622742725070566 108.45121951028705,60.61959545034915 110.42682926356792,75.00006481353194 134.13414634019136,77.53779113059863 149.93902438506484,66.54096935410053 146.64634146168828,53.00639186054468 118.9878048747778,49.622742725070566 105.1585365831852,65.695059155114 110.42682926356792,77.53779113059863 134.13414634019136,79.22960807848722 153.23170731589198,61.46550636412576 120.96341463178396,51.31456752913073 107.79268292337656,64.00323839392513 116.35365853458643,80.07551637571305 148.62195121496916,69.92460896540433 149.28048780187964,57.2359505998902 120.96341463178396,50.46865518670529 106.47560975328088,69.07869924139231 115.69512194767594,79.22960807848722 142.03658536449075,75.84597370540723 151.914634142071,61.46550636412576 117.67073170468211,52.16047975374386 107.13414634019136,58.927773262839764 114.37804877758026,79.22960807848722 151.914634142071,64.84914883365855 143.35365853458643,52.16047975374386 117.67073170468211,52.16047975374386 107.79268292337656,60.61959545034915 113.71951219439507,78.38369966484606 138.0853658504784,77.53779113059863 151.914634142071,59.77368441782892 115.03658536076546,52.16047975374386 107.13414634019136,60.61959545034915 117.67073170468211,78.38369966484606 148.62195121496916,74.15415580431 153.89024389907718,62.31141715915874 120.30487804487348,49.622742725070566 109.10975609347224,56.390039089135826 111.08536585047841,77.53779113059863 150.59756097197533,67.38687943527475 140.06097560748458,50.46865518670529 113.06097560748458,52.16047975374386 115.69512194767594,79.22960807848722 144.01219512149692,73.30824667401612 151.914634142071,58.927773262839764 111.08536585047841,54.698215714190155 118.32926828786731,80.07551637571305 151.2560975588858,64.00323839392513 140.06097560748458,50.46865518670529 111.08536585047841,54.698215714190155 108.45121951028705,69.92460896540433 124.25609755516052,80.92142455419526 153.23170731589198,62.31141715915874 138.7439024373889,49.622742725070566 109.76829268038273,53.852303847670555 112.40243902057409,79.22960807848722 134.79268292710185,80.92142455419526 151.914634142071,63.15732783684507 117.01219511777163,50.46865518670529 107.13414634019136,67.38687943527475 114.37804877758026,79.22960807848722 148.62195121496916,73.30824667401612 152.5731707289815,63.15732783684507 118.9878048747778,52.16047975374386 109.76829268038273,58.081861990038306 115.69512194767594,79.22960807848722 141.37804877758026,80.07551637571305 152.5731707289815,68.23278939910233 149.93902438506484,56.390039089135826 125.5731707289815,49.622742725070566 112.40243902057409,54.698215714190155 111.7439024373889,75.84597370540723 149.93902438506484,68.23278939910233 139.4024390205741,50.46865518670529 111.7439024373889,53.852303847670555 111.7439024373889,76.69188247667626 150.59756097197533,70.77051857346669 145.3292682878673,52.16047975374386 118.9878048747778,49.622742725070566 109.10975609347224,57.2359505998902 114.37804877758026,78.38369966484606 148.62195121496916,76.69188247667626 142.03658536449075,50.46865518670529 111.7439024373889,53.00639186054468 107.13414634019136,68.23278939910233 138.0853658504784,78.38369966484606 150.59756097197533,68.23278939910233 140.71951219439507,49.622742725070566 107.13414634019136,62.31141715915874 117.67073170468211,80.92142455419526 142.03658536449075,78.38369966484606 151.914634142071,61.46550636412576 132.8170731663704,50.46865518670529 113.06097560748458,53.00639186054468 107.13414634019136,72.46233742590994 146.64634146168828,72.46233742590994 149.93902438506484,56.390039089135826 137.42682926356792,48.776830145157874 109.76829268038273,53.852303847670555 107.79268292337656,70.77051857346669 122.93902438879013,78.38369966484606 149.28048780187964,68.23278939910233 150.59756097197533,57.2359505998902 133.47560975328088,49.622742725070566 111.7439024373889,54.698215714190155 111.08536585047841,75.00006481353194 147.96341463178396,72.46233742590994 147.96341463178396,55.54412746056914 118.32926828786731,49.622742725070566 107.13414634019136,69.92460896540433 141.37804877758026,76.69188247667626 149.93902438506484,69.07869924139231 144.67073170095682,50.46865518670529 118.32926828786731,48.776830145157874 105.1585365831852,66.54096935410053 117.01219511777163,80.07551637571305 148.62195121496916,74.15415580431 148.62195121496916,53.852303847670555 136.76829268038273,48.776830145157874 110.42682926356792,53.00639186054468 109.10975609347224,71.61642805906013 142.69512194767594,76.69188247667626 151.2560975588858,61.46550636412576 141.37804877758026,50.46865518670529 114.37804877758026,49.622742725070566 107.79268292337656,68.23278939910233 141.37804877758026,77.53779113059863 151.914634142071,61.46550636412576 135.45121950656176,49.622742725070566 116.35365853458643,50.46865518670529 107.79268292337656,68.23278939910233 115.03658536076546,77.53779113059863 146.64634146168828,75.84597370540723 153.89024389907718,65.695059155114 142.69512194767594,48.776830145157874 106.47560975328088,61.46550636412576 116.35365853458643,79.22960807848722 143.35365853458643,76.69188247667626 151.2560975588858,58.081861990038306 141.37804877758026,48.776830145157874 112.40243902057409,53.00639186054468 106.47560975328088,63.15732783684507 111.08536585047841,75.00006481353194 140.06097560748458,77.53779113059863 150.59756097197533,66.54096935410053 141.37804877758026,51.31456752913073 113.71951219439507,52.16047975374386 105.81707316637039,67.38687943527475 113.06097560748458,78.38369966484606 141.37804877758026,77.53779113059863 149.93902438506484,69.92460896540433 139.4024390205741,49.622742725070566 115.03658536076546,51.31456752913073 104.5,67.38687943527475 137.42682926356792,78.38369966484606 149.28048780187964,71.61642805906013 145.9878048747778,52.16047975374386 120.96341463178396,48.776830145157874 104.5,59.77368441782892 112.40243902057409,75.00006481353194 138.7439024373889,75.84597370540723 151.2560975588858,58.081861990038306 143.35365853458643,49.622742725070566 105.81707316637039,55.54412746056914 111.08536585047841,75.00006481353194 138.0853658504784,76.69188247667626 151.2560975588858,66.54096935410053 145.3292682878673,50.46865518670529 108.45121951028705,58.927773262839764 115.03658536076546,75.84597370540723 136.76829268038273,76.69188247667626 149.28048780187964,72.46233742590994 145.9878048747778,52.16047975374386 115.69512194767594,49.622742725070566 104.5,61.46550636412576 115.03658536076546,77.53779113059863 140.71951219439507,77.53779113059863 151.2560975588858,64.00323839392513 136.76829268038273,51.31456752913073 118.9878048747778,50.46865518670529 105.81707316637039,64.00323839392513 111.7439024373889,75.00006481353194 137.42682926356792,75.00006481353194 149.93902438506484,69.92460896540433 145.3292682878673,51.31456752913073 113.71951219439507,51.31456752913073 106.47560975328088,60.61959545034915 115.03658536076546,76.69188247667626 142.69512194767594,75.00006481353194 151.2560975588858,65.695059155114 143.35365853458643,49.622742725070566 115.03658536076546,48.776830145157874 106.47560975328088,60.61959545034915 117.01219511777163,76.69188247667626 142.69512194767594,75.00006481353194 152.5731707289815,64.00323839392513 141.37804877758026,50.46865518670529 106.47560975328088,59.77368441782892 117.01219511777163,75.84597370540723 144.67073170095682,73.30824667401612 151.914634142071,64.00323839392513 140.71951219439507,47.930917443241924 111.08536585047841,51.31456752913073 107.13414634019136,71.61642805906013 148.62195121496916,72.46233742590994 147.96341463178396,53.852303847670555 136.10975609347224,48.776830145157874 111.7439024373889,52.16047975374386 105.81707316637039,64.84914883365855 120.30487804487348,79.22960807848722 149.93902438506484,73.30824667401612 145.9878048747778,53.852303847670555 120.30487804487348,50.46865518670529 109.10975609347224,53.852303847670555 107.79268292337656,73.30824667401612 147.96341463178396,72.46233742590994 150.59756097197533,60.61959545034915 130.18292682617903,50.46865518670529 113.06097560748458,52.16047975374386 105.1585365831852,69.07869924139231 142.69512194767594,75.84597370540723 150.59756097197533,58.927773262839764 132.8170731663704,48.776830145157874 113.71951219439507,51.31456752913073 105.81707316637039,70.77051857346669 124.91463414207101,79.22960807848722 149.28048780187964,71.61642805906013 144.67073170095682,52.16047975374386 132.1585365831852,49.622742725070566 108.45121951028705,56.390039089135826 107.79268292337656,72.46233742590994 145.3292682878673,76.69188247667626 149.93902438506484,56.390039089135826 140.71951219439507,48.776830145157874 109.10975609347224,54.698215714190155 107.13414634019136,69.07869924139231 145.9878048747778,72.46233742590994 148.62195121496916,53.852303847670555 138.7439024373889,47.08500462304801 113.06097560748458,50.46865518670529 106.47560975328088,68.23278939910233 141.37804877758026,77.53779113059863 151.2560975588858,59.77368441782892 144.01219512149692,50.46865518670529 111.08536585047841,52.16047975374386 104.5,66.54096935410053 120.30487804487348,78.38369966484606 145.3292682878673,75.84597370540723 152.5731707289815,60.61959545034915 136.10975609347224,47.930917443241924 109.76829268038273,53.852303847670555 107.13414634019136,68.23278939910233 144.67073170095682,76.69188247667626 151.914634142071,59.77368441782892 143.35365853458643,50.46865518670529 117.67073170468211,50.46865518670529 105.81707316637039,66.54096935410053 142.03658536449075,77.53779113059863 151.2560975588858,69.07869924139231 140.71951219439507,51.31456752913073 105.81707316637039,64.84914883365855 119.64634146168828,79.22960807848722 144.67073170095682,76.69188247667626 151.914634142071,66.54096935410053 142.03658536449075,50.46865518670529 115.03658536076546,51.31456752913073 106.47560975328088,67.38687943527475 117.01219511777163,78.38369966484606 142.03658536449075,76.69188247667626 151.2560975588858,60.61959545034915 141.37804877758026,51.31456752913073 111.7439024373889,52.16047975374386 104.5,66.54096935410053 142.03658536449075,75.84597370540723 150.59756097197533,69.92460896540433 142.03658536449075,50.46865518670529 105.81707316637039,58.081861990038306 111.7439024373889,75.84597370540723 141.37804877758026,76.69188247667626 149.93902438506484,69.07869924139231 141.37804877758026,50.46865518670529 113.06097560748458,50.46865518670529 107.13414634019136,69.92460896540433 147.30487804487348,72.46233742590994 153.23170731589198,63.15732783684507 137.42682926356792,48.776830145157874 105.81707316637039,62.31141715915874 109.76829268038273,73.30824667401612 134.13414634019136,75.84597370540723 148.62195121496916,69.07869924139231 144.01219512149692,51.31456752913073 107.13414634019136,55.54412746056914 113.06097560748458,75.00006481353194 138.7439024373889,76.69188247667626 152.5731707289815,61.46550636412576 137.42682926356792,47.930917443241924 109.76829268038273,53.00639186054468 106.47560975328088,67.38687943527475 122.93902438879013,80.07551637571305 149.28048780187964,72.46233742590994 137.42682926356792,49.622742725070566 118.9878048747778,49.622742725070566 106.47560975328088,66.54096935410053 142.03658536449075,76.69188247667626 150.59756097197533,61.46550636412576 143.35365853458643,51.31456752913073 107.13414634019136,58.927773262839764 117.67073170468211,77.53779113059863 144.67073170095682,76.69188247667626 149.28048780187964,55.54412746056914 138.7439024373889,48.776830145157874 111.7439024373889,51.31456752913073 107.79268292337656,71.61642805906013 143.35365853458643,76.69188247667626 150.59756097197533,65.695059155114 141.37804877758026,50.46865518670529 114.37804877758026,50.46865518670529 105.1585365831852,65.695059155114 117.67073170468211,78.38369966484606 146.64634146168828,74.15415580431 140.06097560748458,49.622742725070566 127.54878048226237,49.622742725070566 134.79268292710185,64.00323839392513 160.47560975328088,80.07551637571305 166.4024390205741,100.37727977475151 185.5,102.91499537741765" stroke="#4dd2ff" stroke-linecap="round" stroke-linejoin="round" stroke-width="0.5"><title>2021-06-01 11.4km</title></polyline><polyline fill="none" points="87.39999999850988,232.8035760493949 60.0625,201.58946109283715 18.549999997019768,219.79770762473345 18.549999997019768,241.90767305064946 74.23750000074506,234.10416188370436 63.100000001490116,197.6876893118024 37.787499997764826,201.58946109283715 14.5,235.4047475354746 37.787499997764826,257.51467562280595 80.3125,239.3065033936873 80.3125,205.49123122822493 60.0625,197.6876893118024 22.600000001490116,235.4047475354746 75.25,234.10416188370436 86.38749999925494,218.4971197778359 66.13749999925494,192.48532437719405 23.612500000745058,223.69947007484734 36.774999998509884,248.41059399489313 75.25,240.60708831530064 87.39999999850988,222.39888277370483 67.15000000223517,196.38709835056216 29.6875,210.69358884170651 23.612500000745058,240.60708831530064 78.28750000149012,231.5029900269583 86.38749999925494,214.59535513445735 62.087499998509884,192.48532437719405 22.600000001490116,213.2947665527463 23.612500000745058,232.8035760493949 81.32500000298023,240.60708831530064 91.44999999925494,208.0924104033038 77.27499999850988,198.98828009143472 30.700000002980232,217.19653174839914 44.875,252.31234436295927 86.38749999925494,235.4047475354746 90.4375,210.69358884170651 37.787499997764826,198.98828009143472 18.549999997019768,217.19653174839914 71.19999999925494,231.5029900269583 88.41249999776483,225.00005719438195 79.30000000074506,195.08650720864534 32.725000001490116,196.38709835056216 21.587500002235174,223.69947007484734 78.28750000149012,232.8035760493949 90.4375,217.19653174839914 75.25,195.08650720864534 21.587500002235174,213.2947665527463 35.76249999925494,243.20825760625303 80.3125,234.10416188370436 89.42500000074506,202.89005131833255 75.25,193.78591588139534 28.675000000745058,201.58946109283715 21.587500002235174,219.79770762473345 42.850000001490116,238.00591829232872 86.38749999925494,226.30064412485808 86.38749999925494,200.2888706829399 67.15000000223517,193.78591588139534 30.700000002980232,201.58946109283715 27.662499997764826,235.4047475354746 83.35000000149012,235.4047475354746 93.47500000149012,215.89594353549182 71.19999999925494,193.78591588139534 25.637499999254942,204.1906413640827 29.6875,238.00591829232872 87.39999999850988,225.00005719438195 91.44999999925494,208.0924104033038 64.11250000074506,195.08650720864534 35.76249999925494,197.6876893118024 22.600000001490116,226.30064412485808 43.86250000447035,241.90767305064946 87.39999999850988,225.00005719438195 67.15000000223517,193.78591588139534 28.675000000745058,202.89005131833255 22.600000001490116,223.69947007484734 43.86250000447035,241.90767305064946 76.26250000298023,235.4047475354746 91.44999999925494,223.69947007484734 81.32500000298023,197.6876893118024 23.612500000745058,213.2947665527463 31.712500002235174,240.60708831530064 79.30000000074506,231.5029900269583 91.44999999925494,219.79770762473345 76.26250000298023,193.78591588139534 34.75,197.6876893118024 23.612500000745058,215.89594353549182 42.850000001490116,243.20825760625303 82.33749999850988,234.10416188370436 92.46250000223517,221.09829529281706 74.23750000074506,197.6876893118024 28.675000000745058,201.58946109283715 22.600000001490116,215.89594353549182 30.700000002980232,239.3065033936873 74.23750000074506,240.60708831530064 89.42500000074506,232.8035760493949 83.35000000149012,201.58946109283715 41.837499998509884,197.6876893118024 24.625,213.2947665527463 31.712500002235174,239.3065033936873 75.25,240.60708831530064 93.47500000149012,214.59535513445735 82.33749999850988,201.58946109283715 38.80000000074506,198.98828009143472 23.612500000745058,217.19653174839914 29.6875,239.3065033936873 81.32500000298023,234.10416188370436 88.41249999776483,204.1906413640827 72.21250000223517,197.6876893118024 24.625,206.79182090889663 23.612500000745058,225.00005719438195 34.75,244.50884197745472 74.23750000074506,240.60708831530064 90.4375,230.20240382663906 80.3125,201.58946109283715 23.612500000745058,213.2947665527463 36.774999998509884,244.50884197745472 76.26250000298023,239.3065033936873 91.44999999925494,227.60123087465763 76.26250000298023,196.38709835056216 29.6875,202.89005131833255 24.625,221.09829529281706 44.875,245.80942616425455 86.38749999925494,235.4047475354746 78.28750000149012,195.08650720864534 29.6875,202.89005131833255 25.637499999254942,225.00005719438195 32.725000001490116,241.90767305064946 74.23750000074506,243.20825760625303 92.46250000223517,213.2947665527463 80.3125,198.98828009143472 26.650000002235174,206.79182090889663 37.787499997764826,247.1100101713091 76.26250000298023,245.80942616425455 90.4375,235.4047475354746 84.36250000447035,205.49123122822493 24.625,211.99417779035866 38.80000000074506,249.71117763314396 73.22500000149012,245.80942616425455 89.42500000074506,235.4047475354746 86.38749999925494,206.79182090889663 39.8125,198.98828009143472 23.612500000745058,218.4971197778359 30.700000002980232,241.90767305064946 81.32500000298023,239.3065033936873 93.47500000149012,211.99417779035866 77.27499999850988,197.6876893118024 30.700000002980232,201.58946109283715 26.650000002235174,217.19653174839914 40.82500000298023,249.71117763314396 76.26250000298023,245.80942616425455 88.41249999776483,209.39299971424043 26.650000002235174,210.69358884170651 30.700000002980232,238.00591829232872 53.98750000074506,247.1100101713091 89.42500000074506,234.10416188370436 84.36250000447035,202.89005131833255 20.575000002980232,211.99417779035866 37.787499997764826,248.41059399489313 60.0625,247.1100101713091 83.35000000149012,240.60708831530064 90.4375,208.0924104033038 28.675000000745058,209.39299971424043 30.700000002980232,241.90767305064946 67.15000000223517,248.41059399489313 92.46250000223517,231.5029900269583 79.30000000074506,204.1906413640827 32.725000001490116,202.89005131833255 20.575000002980232,218.4971197778359 44.875,241.90767305064946 77.27499999850988,239.3065033936873 90.4375,208.0924104033038 77.27499999850988,196.38709835056216 23.612500000745058,211.99417779035866 31.712500002235174,236.70533300377429 61.07500000298023,247.1100101713091 92.46250000223517,226.30064412485808 87.39999999850988,206.79182090889663 27.662499997764826,208.0924104033038 31.712500002235174,243.20825760625303 70.1875,248.41059399489313 91.44999999925494,219.79770762473345 80.3125,205.49123122822493 47.912499997764826,201.58946109283715 22.600000001490116,221.09829529281706 42.850000001490116,247.1100101713091 75.25,245.80942616425455 93.47500000149012,218.4971197778359 81.32500000298023,201.58946109283715 29.6875,206.79182090889663 32.725000001490116,239.3065033936873 59.05000000074506,245.80942616425455 88.41249999776483,234.10416188370436 83.35000000149012,205.49123122822493 25.637499999254942,209.39299971424043 35.76249999925494,245.80942616425455 80.3125,245.80942616425455 93.47500000149012,221.09829529281706 65.125,198.98828009143472 37.787499997764826,200.2888706829399 25.637499999254942,228.90181744471192 34.75,245.80942616425455 79.30000000074506,244.50884197745472 82.33749999850988,204.1906413640827 40.82500000298023,198.98828009143472 22.600000001490116,227.60123087465763 46.899999998509884,245.80942616425455 81.32500000298023,241.90767305064946 79.30000000074506,201.58946109283715 37.787499997764826,200.2888706829399 24.625,215.89594353549182 33.73750000074506,244.50884197745472 73.22500000149012,245.80942616425455 90.4375,217.19653174839914 79.30000000074506,204.1906413640827 37.787499997764826,198.98828009143472 20.575000002980232,223.69947007484734 39.8125,244.50884197745472 83.35000000149012,239.3065033936873 87.39999999850988,205.49123122822493 70.1875,198.98828009143472 42.850000001490116,197.6876893118024 23.612500000745058,228.90181744471192 75.25,241.90767305064946 92.46250000223517,214.59535513445735 72.21250000223517,196.38709835056216 28.675000000745058,205.49123122822493 27.662499997764826,235.4047475354746 83.35000000149012,240.60708831530064 92.46250000223517,225.00005719438195 72.21250000223517,198.98828009143472 21.587500002235174,219.79770762473345 35.76249999925494,241.90767305064946 80.3125,240.60708831530064 91.44999999925494,210.69358884170651 76.26250000298023,202.89005131833255 23.612500000745058,217.19653174839914 36.774999998509884,243.20825760625303 78.28750000149012,239.3065033936873 91.44999999925494,226.30064412485808 82.33749999850988,200.2888706829399 26.650000002235174,205.49123122822493 19.5625,225.00005719438195 36.774999998509884,244.50884197745472 77.27499999850988,238.00591829232872 89.42500000074506,208.0924104033038 74.23750000074506,198.98828009143472 30.700000002980232,200.2888706829399 21.587500002235174,217.19653174839914 38.80000000074506,243.20825760625303 81.32500000298023,238.00591829232872 90.4375,209.39299971424043 76.26250000298023,202.89005131833255 37.787499997764826,200.2888706829399 21.587500002235174,221.09829529281706 38.80000000074506,244.50884197745472 79.30000000074506,240.60708831530064 92.46250000223517,227.60123087465763 76.26250000298023,197.6876893118024 31.712500002235174,200.2888706829399 24.625,215.89594353549182 42.850000001490116,243.20825760625303 87.39999999850988,238.00591829232872 95.5,222.39888277370483 77.27499999850988,201.58946109283715 30.700000002980232,204.1906413640827 23.612500000745058,222.39888277370483 44.875,245.80942616425455 84.36250000447035,238.00591829232872 94.48750000074506,221.09829529281706 72.21250000223517,197.6876893118024 29.6875,204.1906413640827 22.600000001490116,227.60123087465763 40.82500000298023,245.80942616425455 83.35000000149012,238.00591829232872 81.32500000298023,201.58946109283715 41.837499998509884,198.98828009143472 22.600000001490116,225.00005719438195 35.76249999925494,243.20825760625303 87.39999999850988,234.10416188370436 86.38749999925494,205.49123122822493 67.15000000223517,197.6876893118024 38.80000000074506,198.98828009143472 24.625,228.90181744471192 55.0,244.50884197745472 86.38749999925494,236.70533300377429 78.28750000149012,198.98828009143472 25.637499999254942,210.69358884170651 46.899999998509884,245.80942616425455 82.33749999850988,240.60708831530064 95.5,227.60123087465763 81.32500000298023,200.2888706829399 36.774999998509884,200.2888706829399 25.637499999254942,226.30064412485808 40.82500000298023,243.20825760625303 84.36250000447035,240.60708831530064 94.48750000074506,225.00005719438195 72.21250000223517,200.2888706829399 29.6875,205.49123122822493 23.612500000745058,222.39888277370483 44.875,245.80942616425455 87.39999999850988,238.00591829232872 94.48750000074506,222.39888277370483 72.21250000223517,198.98828009143472 28.675000000745058,205.49123122822493 30.700000002980232,238.00591829232872 91.44999999925494,234.10416188370436 85.375,204.1906413640827 66.13749999925494,197.6876893118024 31.712500002235174,201.58946109283715 22.600000001490116,227.60123087465763 37.787499997764826,243.20825760625303 88.41249999776483,235.4047475354746 93.47500000149012,218.4971197778359 67.15000000223517,198.98828009143472 26.650000002235174,208.0924104033038 28.675000000745058,238.00591829232872 86.38749999925494,238.00591829232872 84.36250000447035,204.1906413640827 63.100000001490116,200.2888706829399 34.75,201.58946109283715 20.575000002980232,226.30064412485808 76.26250000298023,243.20825760625303 90.4375,215.89594353549182 79.30000000074506,204.1906413640827 32.725000001490116,202.89005131833255 21.587500002235174,230.20240382663906 78.28750000149012,243.20825760625303 93.47500000149012,217.19653174839914 63.100000001490116,198.98828009143472 38.80000000074506,200.2888706829399 23.612500000745058,230.20240382663906 51.962500002235174,247.1100101713091 87.39999999850988,239.3065033936873 84.36250000447035,204.1906413640827 66.13749999925494,198.98828009143472 27.662499997764826,210.69358884170651 23.612500000745058,231.5029900269583 46.899999998509884,244.50884197745472 91.44999999925494,230.20240382663906 76.26250000298023,200.2888706829399 53.98750000074506,198.98828009143472 30.700000002980232,204.1906413640827 24.625,235.4047475354746 84.36250000447035,239.3065033936873 85.375,205.49123122822493 66.13749999925494,197.6876893118024 25.637499999254942,206.79182090889663 29.6875,240.60708831530064 89.42500000074506,234.10416188370436 84.36250000447035,204.1906413640827 66.13749999925494,198.98828009143472 35.76249999925494,202.89005131833255 22.600000001490116,234.10416188370436 84.36250000447035,240.60708831530064 89.42500000074506,210.69358884170651 51.962500002235174,198.98828009143472 30.700000002980232,204.1906413640827 27.662499997764826,235.4047475354746 90.4375,232.8035760493949" stroke="#4dd2ff" stroke-linecap="round" stroke-linejoin="round" stroke-width="0.5"><title>2020-11-29 10.4km</title></polyline></svg>