<?xml version="1.0" encoding="utf-8" ?>
<svg baseProfile="full" height="300mm" version="1.1" viewBox="0,0,200,300" width="200mm" xmlns="http://www.w3.org/2000/svg" xmlns:ev="http://www.w3.org/2001/xml-events" xmlns:xlink="http://www.w3.org/1999/xlink"><defs /><rect fill="#222222" height="300" width="200" x="0" y="0" /><text fill="#FFFFFF" style="font-size:12px; font-family:Arial; font-weight:bold;" x="10" y="20">Over 10km Runs</text><text fill="#FFFFFF" style="font-size:4px; font-family:Arial" x="10" y="280">ATHLETE</text><text fill="#FFFFFF" style="font-size:9px; font-family:Arial" x="10" y="290">Abuqi</text><text fill="#FFFFFF" style="font-size:4px; font-family:Arial" x="120" y="280">STATISTICS</text><text fill="#FFFFFF" style="font-size:3px; font-family:Arial" x="120" y="285">Number: 10</text><text fill="#FFFFFF" style="font-size:3px; font-family:Arial" x="120" y="290">Weekly: 1.1</text><text fill="#FFFFFF" style="font-size:3px; font-family:Arial" x="141" y="285">Total: 140.8 km</text><text fill="#FFFFFF" style="font-size:3px; font-family:Arial" x="141" y="290">Avg: 14.1 km</text><text fill="#FFFFFF" style="font-size:3px; font-family:Arial" x="167" y="285">Min: 10.0 km</text><text fill="#FFFFFF" style="font-size:3px; font-family:Arial" x="167" y="290">Max: 21.6 km</text><polyline fill="none" points="65.06615269836038,78.44238097189373 61.25217607564991,77.68340606553829 59.72121362842154,76.5449348964321 56.471275802119635,75.49270214239368 54.886595374322496,74.59570971327048 51.36806764488574,73.26745886987192 48.01069385727169,72.33594969356636 42.08828649594216,71.71493964394176 38.757771698525175,70.28315448662761 34.715493658324704,66.21196314757981 32.83536433719564,65.33215403259965 27.087540412845556,61.2262946678311 25.15369311114773,58.75926260527922 23.542153693095315,57.586111058051756 22.79010196472518,55.998888151363644 21.218851032142993,53.68702671213396 18.62695846799761,51.32336209873756 16.800547127553727,48.42479144372919 15.900770952517632,47.7691528604264 15.135289728932548,46.71667306355084 14.11464809748577,44.766973494159174 13.0,41.40237473970046 15.363591146480758,46.88921135459532 17.203431982081383,48.78711652451602 18.613528972899076,51.13357683161303 21.32628699328052,53.73878528127534 22.884108430705965,55.912625448014296 23.716737130074762,57.63786798073852 25.529718975361902,59.104305041189946 27.15468788857106,61.20904286780569 32.88908231788082,65.26314912907401 34.769211638951674,66.21196314757981 38.65033573738765,69.97264465571061 40.127580203989055,70.83517002199369 38.892066650034394,70.35215656454238 34.621487192227505,66.14295873935043 32.338473016628996,64.969877855714 26.698085053474642,60.84675450543 25.422283014224377,59.05254873773811 23.38099975127261,57.34457846332225 22.655807013157755,55.77460499633162 21.1919920417713,53.63526812118653 18.64038796321256,51.25434930829215 17.968913205666468,50.270912822990795 19.23128574975999,51.77194428896473 21.299428002908826,53.58350950836757 22.924396916176192,55.96438307730568 23.636160159192514,57.51710179386282 25.449142004479654,58.94903606521984 26.980104451591615,61.01927290675667 32.32504352158867,64.86637018002511 34.66177567769773,66.09120540764707 38.79806018405361,70.19690183471539 41.980850534688216,71.4906852418062 46.66774434223771,72.23244823706045 47.795821934822015,72.14619695662259 50.37428500375245,72.88795598580327 59.45262372546131,76.33793900258024 61.38647102715913,77.7696534505958 62.23252922156826,77.68340606553829 64.2335239990498,78.23538828156597 67.0,78.44238097189373 65.80477493163198,78.59762526030681 64.98557572741993,78.51137845767516 65.28102462075185,78.42513159439841" stroke="#4dd2ff" stroke-linecap="round" stroke-linejoin="round" stroke-width="0.5"><title>2023-05-28 13.0km</title></polyline><polyline fill="none" points="96.24718256946653,50.26168536551995 95.76033057831228,53.33451561987749 92.92036063107662,55.88650782665354 92.55522163794376,59.740503575565526 88.61983471084386,63.334058110485785 85.98271975968964,67.29213583702222 85.8204357624054,69.42739706329303 87.07813673932105,71.30225043941755 91.09466566494666,72.1355155633064 92.92036063107662,73.48956739524147 95.6791885800194,79.58273944252869 101.27798647619784,80.05144083691994 105.25394440279342,85.25919424195308 107.72877535689622,85.93619681193377 113.4087152518332,84.7384221930115 117.10067618335597,81.1971528622962 117.5875281742774,72.65630531468196 120.0623591283802,65.99014124902897 126.83771600318141,53.80325019953307 127.0,51.77206274130731 126.14800901571289,49.79294630809454 124.72802404221147,48.38672557959217 101.44027047348209,38.17844482007786 90.2021036813967,34.324224898184184 85.94214876019396,43.595118597731926 82.61532682203688,47.70965443746536 80.38392186327837,52.29288109909976 83.38617580756545,53.64700540545164 86.3478587528225,51.615817091282224 87.8084147258196,48.07423135996214 89.47182569513097,46.563838918169495 92.67693463573232,45.9388471422717 94.94891059352085,46.87633441094658 96.6934635611251,49.27212443802273 96.93688955670223,52.240799296298064 94.34034560481086,55.938589117402444 92.83921863255091,61.0425201121252 89.10668670153245,63.49029882196919 86.46957175061107,67.76085276945378 86.83471074374393,70.57314191979822 92.63636363646947,72.70838424950489 93.81292261462659,74.11451272663544 94.82719759573229,77.86416259384714 96.16604057117365,79.42650551290717 100.87227648380212,79.53066147325444 102.65740045090206,80.36390810404555 105.90308039076626,85.31127140665194 109.18933132989332,85.57165712025017 113.48985725012608,84.68634494792786 116.85725018777885,81.97831812227378 117.26296018017456,74.37490630376851 118.31780616077594,70.15650783621822 126.83771600318141,53.54284217298846 126.67543200613,50.938751846697414 125.17430503387004,48.803384129161714 90.7295266718138,34.16797189414501 89.14725770102814,35.93883541881223 80.38392186327837,52.34496289474191 83.3456048083026,53.95949492757791 86.22614575526677,51.87622647138778 89.18782870029099,46.615921518648975 90.9729526671581,45.782599033555016 94.13749060849659,46.095095184864476 96.6934635611251,48.126313748100074 97.05860255449079,52.13663566872128 93.93463561218232,56.66772641890566 93.5289256197866,59.89674580137944 92.39293764089234,61.51124494604301 89.2689706988167,63.229897599841934 86.46957175061107,67.34421552557615 86.38842975208536,69.73987328444491 87.60555972950533,71.25017130700871 93.36664162273519,73.43748857008177 95.96318557485938,79.27027151710354 101.0751314801164,79.58273944252869 103.38767843716778,81.4054637591471 105.33508640131913,84.99880830899929 107.2419233659748,85.67581135447836 110.60931630362757,85.57165712025017 113.77385424496606,84.3738813236705 116.97896318556741,81.30130832528812 117.30353117967024,74.16659145677113 118.43951915856451,69.42739706329303 126.91885800147429,53.594923792843474 126.79714500368573,51.563735193165485 125.25544703216292,49.01171322859591 109.7978963186033,41.772208374139154 90.28324568015523,34.2200562361686 80.22163786622696,52.29288109909976 83.14274981198832,53.95949492757791 86.14500375650823,51.77206274130731 87.84898572508246,48.07423135996214 90.12096168287098,46.19926051030052 93.77235161536373,46.14717785123503 96.73403456062078,48.02214896446094 97.18031555227935,51.042915811005514 96.61232156283222,53.178270628501195 94.09691960946657,56.04275167686865 93.04207362886518,60.52171404621913 89.14725770102814,63.334058110485785 86.38842975208536,67.70877313960227 86.38842975208536,70.05234924214892 87.8084147258196,71.35432956455043 90.52667167549953,71.9271994579467 93.12321562739089,73.54164621318341 95.71975957928225,79.27027151710354 101.52141247177497,79.73897330655018 103.42824943643063,81.4054637591471 105.53794139740057,85.15503989066929 110.36589030805044,85.5195799919893 114.0984222390689,84.47803589433897 117.141247182386,81.45754146506079 117.30353117967024,74.27074889504001 118.39894815953448,69.84403196626226 126.79714500368573,54.115739589964505 126.63486100663431,50.7825058454182 124.84973704000004,48.43880792387063 90.40495867771097,34.06380318806623 80.05935386917554,52.60537176267826 82.6558978210669,54.011576488934224 85.65815176581964,52.34496289474191 87.88955672411248,47.60548953645048 90.12096168287098,46.19926051030052 94.13749060849659,46.355508443230065 96.53117956430651,48.07423135996214 97.01803155522794,51.71998086528038 96.20661157020368,53.69908701069653 93.69120961683802,56.14691420691088 93.2043576259166,60.52171404621913 88.90383170568384,63.59445925964974 86.22614575526677,67.70877313960227 86.30728775355965,69.73987328444491 87.40270473319106,71.19809216732392 90.68895567231812,71.82304136134917 92.83921863255091,73.17709433453274 96.16604057117365,79.42650551290717 101.60255447030067,79.7910512467206 103.5499624342192,81.71792988511152 104.48309541703202,84.53011316878838 105.70022539421916,85.31127140665194 110.73102930141613,85.5195799919893 114.13899323833175,84.47803589433897 116.93839218630455,81.77000754710753 117.74981217132881,70.62522114723106 126.79714500368573,53.23035229960806 126.3102930127643,50.26168536551995 124.56574004492722,48.17839612910757 100.42599549214356,37.81385816523107 90.28324568015523,34.2200562361686 80.26220886548981,52.18871748622041 80.58677685959265,53.33451561987749 82.89932381687686,55.001124765578425 82.45304282498546,58.803048837638926 77.46280991728418,67.24005614136695 77.70623591262847,72.65630531468196 73.6897069872357,76.97883201739751 74.17655897815712,79.37442752157222 75.83996994746849,81.1971528622962 79.36964688193984,81.45754146506079 81.23591284756549,82.96779175568372 75.5965439521242,81.24923059745925 73.7708489857614,79.42650551290717 73.0,77.39545843427186 74.54169797152281,74.63529969821684 77.25995492120273,72.86462101043435 77.54395191580988,66.71925878160982 82.25018782867119,59.06345316930674 82.45304282498546,55.62610126362415 83.4267468068283,54.011576488934224 86.51014274964109,52.18871748622041 87.88955672411248,48.54297259048326 89.02554470323958,47.34507715643849 91.29752066126093,46.40759107287158 94.25920360628515,47.34507715643849 96.12546957167797,49.06379548521363 96.73403456062078,51.09499778220197 93.8940646131523,56.66772641890566 92.83921863255091,60.73003656041692 89.10668670153245,63.542379044374684" stroke="#ff0800" stroke-linecap="round" stroke-linejoin="round" stroke-width="0.5"><title>2023-05-21 21.2km</title></polyline><polyline fill="none" points="184.90760059619788,78.60899471960875 181.19225037260912,77.71313960814587 178.8047690014937,76.23151869465073 176.7257824143744,75.64575664442964 175.00894187786616,74.64650903279107 170.6900149032008,73.0614788537423 167.85991058126092,72.28618488071515 161.77049180329777,71.70040395647084 158.77943368110573,70.37377209138504 157.73323397920467,69.08158437802922 154.8226527571096,66.35933096775261 152.7034277198254,65.23939901783888 147.08345752611058,61.1730984300375 145.40685543965083,58.98482145459275 143.51564828614937,57.4512812085668 142.93889716849662,56.124494934141694 141.32935916550923,53.849970722301805 138.8077496275073,51.489245596530964 137.0372578241513,48.68044033590559 135.1594634873327,46.69872913543077 134.30104321916588,45.06163916171499 133.0,41.32209888023499 135.46795827127062,47.077841586011345 137.13114754093112,48.61151178921864 138.87481371092144,51.472013858903665 141.32935916550923,53.71211941182992 143.67660208645975,57.60635918518528 145.54098360659555,59.10543616470386 147.05663189274492,61.12140729902603 152.6095380030456,65.1015605313878 154.6885245901649,66.10088604243356 158.87332339788554,70.25316848180228 162.0789865872357,71.57980165361369 164.27868852461688,71.71763284716144 166.39791356190108,72.25172725690936 167.81967213121243,72.21726962332468 170.73025335324928,73.00979274156998 179.3949329359457,76.38657288590184 181.25931445608148,77.73036765289726 184.196721311484,78.40225950635067 187.0,78.69513428875507 184.26378539501457,78.47117128288664 181.19225037260912,77.78205177249765 179.16691505216295,76.3176599362123 170.54247391957324,72.95810660763527 167.95380029809894,72.30341368903464 161.91803278686712,71.63148836936307 158.8599105812027,70.39100116878399 154.6080476900679,66.11811572108127 152.5692995529389,65.15324998203869 146.8822652757517,61.155868055495375 145.63487332343357,59.2777426872417 143.59612518636277,57.62359005937469 142.83159463485936,55.9866461848942 141.12816691509215,53.60873082707985 138.96870342775946,51.644331126059114 136.88971684052376,48.54258320371446 135.32041728764307,47.02614450277906 133.88524590159068,44.06214188678132 133.0402384501067,41.304865711252205 134.20715350226965,44.54465883162629 135.4545454545878,47.04337686625513 137.1982116245199,48.76660096466367 138.83457526081474,51.36862338218634 141.18181818182347,53.488110701197 143.0193740685936,56.072801671332854 143.5692995529389,57.39958850607218 145.70193740690593,59.208820107378415 146.9225037258002,60.94910337125475 152.97168405371485,65.23939901783888 154.74217585695442,66.06642667784035 158.91356184805045,70.25316848180228 162.1594634873909,71.54534383096325 168.67809239943745,72.38955769405584 174.36512667668285,74.38808159920882 168.38301043218235,72.38955769405584 166.4113263785257,72.26895606998733 164.2384500745684,71.78654838584043 162.26676602091175,71.76931950474682 158.64530551421922,70.235939385042 154.80923994042678,66.32487167593354 152.59612518630456,65.17047979404015 147.48584202688653,61.44878409364901 152.94485842029098,65.30831820287858 154.7287630402716,66.15257507112983 159.31594634870999,70.442688386378 162.038748137129,71.59703056126455 163.312965722871,71.59703056126455 166.4918032787391,72.25172725690936 167.91356184799224,72.21726962332468 170.11326378543163,72.78581933689566 179.16691505216295,76.26597519853385 181.2727272727643,77.71313960814587 184.10283159470418,78.28166380412586" stroke="#ff0000" stroke-linecap="round" stroke-linejoin="round" stroke-width="0.5"><title>2023-05-14 21.6km</title></polyline><polyline fill="none" points="62.61467015952803,137.52846901079465 59.38675875210902,136.9172949155909 57.45772803045111,135.6123449826773 54.62848297209712,134.73686411321978 53.27816146699479,133.8778954058289 48.84139080729801,132.07734445230017 46.758037628023885,131.63133215054404 45.12479161698138,131.61481314383127 43.028578232915606,131.06968461946235 40.81662300549215,131.0036082626466 37.92307692306349,129.79770821853162 36.984281971876044,128.64135407646245 33.78209097404033,125.68433953663043 32.341748035221826,125.08962370515655 30.618480590579566,123.75150206810213 29.499642772076186,123.23937740555266 26.490354846406262,120.89348749030614 25.30721600377001,119.1588204304644 23.378185282170307,117.60585864808672 20.9347463681479,113.73988582288439 18.131221719493624,111.2616311377933 16.819480828824453,109.04767936418648 15.43057870917255,107.79198666309821 14.105977613653522,105.23099280157476 13.0,102.02554108974437 15.173374612932093,107.2137026114724 15.81638485356234,108.12243341332214 16.92236246727407,109.03115717901528 18.658490116649773,111.74076445740502 20.9347463681479,113.72336429825373 22.593712788715493,116.11896109204827 23.185282210062724,117.45716974008974 25.05001190758776,118.97709192166076 26.56751607521437,121.04217204550514 32.16170516790589,124.97398416583746 34.103596094297245,126.03125571359851 38.01309835672146,129.89682375788834 40.945225053525064,131.05316553371085 44.9318885448738,131.69740815402474 46.758037628023885,131.71392714903777 49.12431531312177,132.42424173776817 57.38056680158479,135.6123449826773 59.502500595350284,136.9833679441581 62.03596094303066,137.56150535779307 65.54679685633164,137.97445891025563 67.0,137.544987185458 66.96141938556684,137.29721432191582 66.16408668726217,137.42935991421837 66.0997856631875,137.82579579868616 65.30245296499925,137.82579579868616 59.59252202906646,136.9833679441581 56.82757799472893,135.36456804042245 49.70302452961914,132.50683617846516 46.590854965441395,131.59829413485568 44.89330793044064,131.58177512353723 43.19576089543989,131.18531815426832 41.112407716107555,131.2018372214079 37.588711598014925,129.7481504174939 33.872112407698296,126.01473591889953 32.07168373418972,125.12266355260363 26.374613003106788,120.99261054799717 24.959990473929793,119.10925813776703 23.108120981196407,117.572816684813 22.503691355057526,116.28417286174226 20.806144320056774,113.7564073452304 18.555608478200156,111.75728626109048 16.896642057574354,109.17985676170065 15.37913789000595,107.74241957030608 13.990235770412255,104.98315172006551 13.128602048149332,102.22381899376342" stroke="#4dd2ff" stroke-linecap="round" stroke-linejoin="round" stroke-width="0.5"><title>2023-05-07 13.6km</title></polyline><polyline fill="none" points="73.0,111.11959260783624 94.1239669425413,124.10625540046021 98.7355371909216,139.19354606163688 107.06611570343375,136.32888350030407 119.56198347080499,142.24917947279755 125.21487603336573,138.62061403261032 123.28099173586816,128.88073258416262 108.85123967006803,121.05058120144531 97.54545454587787,109.20977879012935 91.74380165338516,112.45646068337373 89.3636363632977,118.94980120379478 95.31404958758503,124.87017287721392 100.3719008276239,139.00256874621846 106.32231405004859,136.13790578197222 118.81818181835115,142.24917947279755 123.28099173586816,140.9123407008592 126.10743801668286,135.56497246411163 121.34710743837059,127.16192273015622 106.91735537163913,120.28666157810949 96.35537190083414,110.16468603454996 89.95867768581957,118.75882104341872 97.0991735542193,127.16192273015622 99.62809917423874,138.81159140274394 109.89256198424846,137.4747492497554 119.71074380166829,142.44015633279923 125.80991735588759,139.5755006141262 126.55371900834143,135.94692803604994 122.83471074420959,128.49877502652816 106.61983471084386,120.4776415239321 96.35537190083414,110.35566740273498 91.1487603308633,114.55725071718916 89.6611570250243,120.4776415239321 96.35537190083414,126.20702742773574 100.52066115755588,139.76647784980014 107.95867768675089,137.4747492497554 118.07438016589731,142.8221099723596 124.91735537257046,140.72136362595484 126.55371900834143,135.1830167856533 122.98347107507288,128.11681736179162 109.44628099165857,121.62352063704748 97.0991735542193,109.97370463912375 90.85123967006803,118.37686064105947 97.2479338850826,126.77996468963102 100.81818181835115,139.19354606163688 107.21487603336573,137.4747492497554 120.15702479332685,142.44015633279923 125.95867768581957,138.81159140274394 126.40495867747813,135.37399463844486 121.49586776923388,126.97094372322317 108.85123967006803,121.24156104004942 96.80165289249271,109.97370463912375 92.6363636367023,112.83842274942435 90.10743801761419,120.09568160492927 96.65289256162941,125.63408992404584 99.77685950417072,138.81159140274394 107.80991735588759,137.28377169161104 120.90082644671202,142.44015633279923 124.32231405004859,140.9123407008592 125.95867768581957,134.4191051053349 120.30578512512147,126.58898562891409 109.1487603308633,121.43254085164517 95.9090909101069,110.16468603454996 89.80991735588759,119.71372157905716 96.65289256162941,125.2521314539481 101.11570248007774,139.76647784980014 107.95867768675089,136.7108388574561 121.04958677757531,142.24917947279755 126.25619834754616,138.62061403261032 127.0,134.80106099927798 122.98347107507288,127.54388066357933 110.04132231418043,120.85960133571643 96.05785124003887,109.40076029265765 90.10743801761419,118.37686064105947 97.69421487674117,127.9258384888526 99.33057851251215,139.19354606163688 108.70247933920473,136.7108388574561 120.00826446246356,142.24917947279755 125.512396694161,138.62061403261032 126.55371900834143,134.99203890550416 123.57851239666343,127.9258384888526 106.17355371918529,118.75882104341872 97.3966942159459,109.20977879012935 89.6611570250243,119.1407813380938 96.35537190083414,124.29723480995744 99.77685950417072,140.148432240705 107.80991735588759,136.90181649569422 119.56198347080499,142.05820258602034 125.3636363632977,138.23865921248216 126.10743801668286,134.80106099927798 120.60330578591675,126.20702742773574 106.17355371918529,118.75882104341872 97.84297520760447,109.01879726059269 92.04132231511176,113.02940374228638 89.6611570250243,120.28666157810949 96.20661157090217,123.72429650148842 100.3719008276239,140.53038652404211 108.40495867840946,137.66572678100783 121.64462810009718,141.4852717644535 125.06611570250243,139.38452335132752 126.40495867747813,133.6551929957932 122.537190082483,127.35290171008091 107.36363636422902,120.09568160492927 83.71074380259961,97.55985638673883 76.27272727247328,111.88351738359779 93.52892562095076,122.57841915963218 100.07438016589731,140.53038652404211 106.024793388322,136.90181649569422 121.49586776923388,141.67624873109162 126.25619834754616,137.85670428490266 125.6611570250243,131.1724756746553 118.07438016589731,124.10625540046021 103.79338843002915,116.84901795955375 94.71900826506317,105.39014310378116 83.26446281094104,97.55985638673883 75.67768595088273,109.78272321715485 97.2479338850826,124.67919354815967 100.2231404967606,139.5755006141262 106.61983471084386,135.94692803604994 121.94214876089245,141.29429476999212 126.40495867747813,133.6551929957932 123.42975206673145,128.30779620737303 109.2975206617266,121.24156104004942 94.86776859499514,105.00817894469947 84.30578512512147,97.55985638673883 75.67768595088273,110.73763005936053 95.01652892678976,122.76939878345001 99.62809917423874,139.38452335132752 110.19008264504373,137.09279410727322 120.15702479332685,142.05820258602034 125.80991735588759,138.429636635934 125.95867768581957,132.31834577128757 122.09090909082443,126.97094372322317 103.94214876089245,117.0399983888492 95.31404958758503,105.77210715552792 83.41322314180434,97.17789002764039 75.38016529008746,110.54664874449372 94.71900826506317,122.57841915963218 100.3719008276239,139.95745505893137 106.91735537163913,136.90181649569422 122.23966942168772,141.29429476999212 126.55371900834143,134.61008306557778 121.04958677757531,126.77996468963102 105.72727272752672,119.1407813380938 95.01652892678976,106.15407109993976 82.96694215014577,97.75083952664863 75.52892562001944,109.97370463912375 96.50413223169744,122.3874395089224 98.88429752085358,138.23865921248216 107.06611570343375,136.13790578197222 121.19834710750729,141.10331774840597 124.47107438091189,139.76647784980014 126.25619834754616,134.4191051053349 120.30578512512147,126.58898562891409 107.6611570250243,120.09568160492927 97.0991735542193,109.59174176852684 92.487603305839,112.0744985108031 89.95867768581957,118.94980120379478 96.65289256162941,122.3874395089224 99.77685950417072,138.81159140274394 107.51239669509232,136.32888350030407 122.23966942168772,141.29429476999212 126.7024793382734,134.03714910452254 121.94214876089245,126.97094372322317 107.21487603336573,119.3317614448024 83.26446281094104,98.32378878432792 75.67768595088273,109.78272321715485 95.9090909101069,122.0054801265942 99.92561983596534,139.19354606163688 108.10743801668286,136.51986119290814 120.90082644671202,142.05820258602034 125.80991735588759,139.19354606163688 125.512396694161,132.50932402699254 121.19834710750729,126.77996468963102 107.51239669509232,119.52274152543396 95.31404958758503,105.58112514263485 83.71074380259961,98.13280572521035 77.462809917517,105.19916103722062 77.01652892678976,111.11959260783624 95.7603305792436,121.62352063704748 100.2231404967606,139.5755006141262 106.76859504263848,137.28377169161104 116.58677685912699,141.4852717644535 123.42975206673145,141.29429476999212 126.7024793382734,136.7108388574561 125.6611570250243,132.12736748857424 117.47933884337544,124.10625540046021 106.61983471084386,120.09568160492927 96.65289256162941,110.35566740273498 91.59504132252187,114.17528913437854 89.3636363632977,120.09568160492927 95.01652892678976,122.19645983097143 100.07438016589731,140.148432240705 107.95867768675089,137.28377169161104 120.30578512512147,142.05820258602034 125.95867768581957,139.00256874621846 125.95867768581957,132.89128045691177 120.15702479332685,126.3980065418873 105.87603305839002,119.1407813380938 83.85950413253158,98.32378878432792 75.975206611678,111.3105738417944 96.05785124003887,123.34233749494888 100.3719008276239,140.53038652404211 106.47107437998056,136.7108388574561 121.49586776923388,141.8672256715363 126.25619834754616,138.62061403261032 125.95867768581957,132.89128045691177 119.85950413253158,126.3980065418873 107.21487603336573,120.4776415239321 95.462809917517,106.53603493643459 83.71074380259961,99.27870367735159 76.27272727247328,108.63683412177488 96.20661157090217,124.87017287721392" stroke="#4dd2ff" stroke-linecap="round" stroke-linejoin="round" stroke-width="0.5"><title>2023-05-01 14.7km</title></polyline><polyline fill="none" points="133.0,111.01348835625686 154.84615384601057,123.06157850392628 159.76923076994717,139.84972863656003 168.07692307699472,137.28214219247457 181.30769230797887,142.0222981175175 186.69230769202113,136.6896215772722 184.38461538497359,129.97437048866414 166.0769230760634,121.08648883563 156.5384615380317,109.63091402908321 154.23076923098415,109.82842473045457 147.92307692300528,120.69147056876682 155.76923076901585,125.431682442897 160.38461538404226,140.6397542906925 167.30769230797887,137.4796490080189 178.53846153896302,142.61481648415793 182.84615384601057,142.0222981175175 186.69230769202113,135.8995937028667 184.07692307699472,129.1843388399575 154.5384615380317,109.43340330023784 147.61538461502641,120.0989429608453 154.5384615380317,124.24663097294979 160.38461538404226,140.6397542906925 167.0,137.08463534805924 180.5384615380317,142.8123225508025 186.53846153896302,137.08463534805924 182.53846153896302,128.1967986538075 169.61538461502641,121.67901602736674 156.69230769202113,108.64336010580882 151.92307692300528,111.60601979447529 147.76923076901585,119.9014337026747 157.30769230704755,127.40676600579172 159.30769230797887,140.24474151886534 168.38461538497359,137.4796490080189 181.0,142.417310390505 184.5384615380317,140.6397542906925 186.23076923005283,135.30707250523847 179.61538461595774,126.02420780318789 168.53846153896302,120.8889797157608 156.23076923098415,108.84087094583083 149.76923076808453,114.76618324662559 148.0769230760634,121.08648883563 156.07692307699472,125.03666539734695 159.4615384619683,139.6522221530322 167.30769230797887,137.08463534805924 181.30769230797887,142.2198042679811 186.23076923005283,139.45471564214677 186.69230769202113,136.09710071305744 183.0,128.98683085793164 164.23076923098415,117.92633959348314 155.92307692300528,109.03838175837882 150.53846153896302,114.17365314008202 148.69230769202113,121.48150699143298 155.76923076901585,124.24663097294979 160.38461538404226,140.04723509098403 169.0,137.67715579632204 179.9230769239366,142.8123225508025 185.0,140.44224791880697 186.69230769202113,134.91205823479686 183.0,128.1967986538075 165.4615384619683,118.91388699482195 159.76923076994717,110.61846725898795 154.69230769202113,108.44584923819639 147.92307692300528,120.29645219107624 155.92307692300528,125.23417393420823 159.61538461502641,140.44224791880697 169.0,137.67715579632204 181.92307692300528,142.61481648415793 186.69230769202113,138.26967599487398 186.53846153896302,134.1220293608494 179.0,125.03666539734695 164.69230769202113,118.71637757017743 154.84615384601057,109.03838175837882 148.5384615380317,119.50641510239802 158.0769230760634,127.60427420958877 159.0,139.6522221530322 166.8461538469419,137.87466255691834 180.0769230760634,143.00982859055512 185.15384615398943,141.2322732405737 187.0,136.09710071305744 182.23076923191547,127.40676600579172 165.76923076901585,119.30890576110687 155.0,109.43340330023784 148.84615384507924,120.0989429608453 156.07692307699472,126.02420780318789 159.0,140.44224791880697 167.46153846103698,137.08463534805924 181.92307692300528,142.2198042679811 187.0,136.09710071305744 181.15384615398943,126.2217162012821 168.69230769202113,120.49396139406599 155.0,108.64336010580882 149.76923076808453,120.49396139406599 156.38461538404226,124.24663097294979 159.61538461502641,141.03476695145946 168.23076923098415,138.26967599487398 178.23076923098415,142.61481648415793 184.69230769202113,140.04723509098403 186.53846153896302,136.09710071305744 180.38461538404226,125.82669937773608 166.69230769202113,119.30890576110687 157.15384615398943,109.03838175837882 154.5384615380317,109.23589254310355 149.30769230704755,120.29645219107624 156.69230769202113,126.02420780318789 158.23076923005283,139.6522221530322 166.0769230760634,137.08463534805924 182.23076923191547,142.417310390505 187.0,138.07216928945854 187.0,134.5170438538771 179.61538461595774,124.24663097294979 168.38461538497359,120.0989429608453 157.0,108.64336010580882 154.69230769202113,109.23589254310355 148.84615384507924,120.8889797157608 156.5384615380317,127.01174951496068 158.69230769202113,140.04723509098403 167.92307692300528,137.08463534805924 176.8461538469419,141.62728573440108 183.61538461595774,141.2322732405737 186.38461538497359,138.66468932188582 185.4615384619683,130.36938614665996 167.0,119.1113963915268 143.0,96.99017140944488 135.92307692300528,106.8657612951938 135.46153846103698,110.22344605007675 156.5384615380317,125.82669937773608 159.61538461502641,139.6522221530322 167.15384615398943,136.6896215772722 176.38461538497359,141.03476695145946 183.61538461595774,141.03476695145946 186.53846153896302,137.4796490080189 184.07692307699472,129.1843388399575 154.69230769202113,108.84087094583083 149.76923076808453,117.13630117254797 156.23076923098415,125.431682442897 159.76923076994717,140.04723509098403 167.61538461595774,136.2946076951921 176.69230769202113,141.42977950093336 183.30769230797887,141.42977950093336 186.38461538497359,137.08463534805924 185.0,129.97437048866414 169.92307692300528,121.48150699143298 159.92307692300528,110.61846725898795 154.84615384601057,109.63091402908321 150.07692307699472,114.76618324662559 149.15384615398943,121.28399792755954 156.5384615380317,127.40676600579172 160.07692307699472,140.6397542906925 167.92307692300528,136.6896215772722 180.69230769202113,142.417310390505 185.92307692300528,138.66468932188582 184.38461538497359,129.1843388399575 165.92307692300528,118.71637757017743 157.76923076901585,108.44584923819639 154.38461538497359,109.82842473045457 149.76923076808453,119.30890576110687 155.61538461595774,123.6541048635263 158.69230769202113,132.54197028127965 163.76923076901585,130.96190942509566 171.0,121.28399792755954" stroke="#4dd2ff" stroke-linecap="round" stroke-linejoin="round" stroke-width="0.5"><title>2023-04-20 10.0km</title></polyline><polyline fill="none" points="14.509909356303979,186.17988745784533 14.244430788152386,185.83895519568614 13.124443078791955,185.4554045669356 13.0,185.17839457182708 13.207405131368432,184.85876639580965 14.028729451529216,184.42193904107262 15.082347518822644,184.26212352589937 19.097710861911764,184.26212352589937 20.508065755100688,183.96380032882735 31.26824396988377,178.38067805958417 33.34229528342257,177.54956742098875 34.935166692273924,177.33646066017536 36.4450760485779,177.42170343642647 54.47273006607429,180.33055568778946 56.64633584266994,180.56496382639307 57.857581809774274,180.51168931315624 59.6910431709839,180.09614682388928 61.00184360117419,179.47815634201834 62.23797818404273,178.4872300460629 64.86787524964893,175.29060525033128 66.24504532184801,174.76847705019463 66.96681517898105,174.81109989533434 67.0,174.9389682868059 66.65985558458488,174.99224671956472 64.68535873407382,174.1824104974221 64.28714088187553,173.82011254215467 63.19204178827931,176.1323961980961 61.748502074042335,178.18888410616637 59.989706560154445,179.54208662566816 58.911199877096806,180.01090705719253 57.73313873098232,180.30924582106672 56.206636964168865,180.40514017422538 54.414656629262026,180.245316184868 38.83438316176762,177.7200523979409 35.92241511750035,177.30449459431838 34.487171608547214,177.29383923605928 33.21785220465972,177.5176014450626 31.691350437846268,178.0290554407402 20.416807497298578,183.8146382897612 18.898601935768966,184.0490356478549 14.592871408793144,184.03838123821333 13.16592410512385,184.51782818836364" stroke="#4dd2ff" stroke-linecap="round" stroke-linejoin="round" stroke-width="0.5"><title>2023-03-17 12.5km</title></polyline><polyline fill="none" points="74.36183300014818,186.13227305416513 73.0,185.35379996079428 73.14946947561111,185.0445413083944 73.74734737811377,184.70328891788813 75.22543441486778,184.43668441922637 79.07842534215888,184.43668441922637 80.43195448254119,184.13808626788523 91.24357988621341,178.53915319934458 93.29463324617245,177.71794158218108 95.18791327078361,177.49397323374433 96.37536521605216,177.5686294234256 112.22743349222583,180.17088495238568 114.90127633401426,180.55481673213217 117.72458865138469,180.6721288326371 119.82546516993898,180.1815497503194 121.22051360909245,179.4563400752013 122.42457327386364,178.3898426578162 125.01537751808064,175.35024271144357 126.41042595723411,174.795635891016 126.97508842070238,174.8916258233221 127.0,175.05160877380695 126.31908349992591,175.05160877380695 124.50053821312031,174.17703118945064 124.33446101800655,174.05970903866546 124.34276487774332,173.86772694583487 123.01414731665864,176.57676261845336 121.47793326157262,178.53915319934458 119.96663078575511,179.62697826987278 117.99031216363073,180.3201919866624 116.3959710902418,180.46949872688128 114.6106412424997,180.30952720823552 97.12271259419504,177.5366339225584 95.52006766106933,177.36599102332548 94.28279255723464,177.42998215556145 92.81300938027562,177.7286067251116 91.47608795939595,178.27252702604892 80.40704290327267,183.94612969255104 79.02860218362184,184.24472859975504 74.31200984158204,184.23406437333324 73.12455789631349,184.68196059247566" stroke="#4dd2ff" stroke-linecap="round" stroke-linejoin="round" stroke-width="0.5"><title>2023-03-11 12.5km</title></polyline><polyline fill="none" points="141.78048780560493,169.28518217499368 142.65853658504784,185.07549370080233 164.60975609719753,175.48852626606822 160.21951219439507,164.77365316916257 142.65853658504784,164.2097116857767 140.02439024299383,183.3836775838863 164.60975609719753,175.48852626606822 160.21951219439507,165.90153589844704 140.02439024299383,165.90153589844704 136.07317073084414,174.92458629002795 142.21951219439507,182.81973871891387 157.14634146541357,180.5639824704267 161.5365853663534,169.28518217499368 137.39024390280247,166.46547714271583 140.90243902429938,184.51155507401563 159.34146341495216,181.1279216511175 163.73170731589198,170.97700424259529 139.14634146355093,165.33759457361884 135.19512195140123,172.66882559587248 142.65853658504784,183.94761636923067 159.34146341495216,180.5639824704267 163.73170731589198,169.84912294498645 154.51219512149692,163.08182848314755 138.70731707289815,165.33759457361884 144.85365853458643,184.51155507401563 164.60975609719753,172.66882559587248 158.02439024485648,163.64577012439258 140.4634146336466,164.2097116857767 142.65853658504784,183.94761636923067 153.19512195326388,183.94761636923067 164.1707317084074,172.66882559587248 142.21951219439507,163.08182848314755 134.75609756074846,166.46547714271583 138.70731707289815,178.3082249504514 163.29268292710185,174.92458629002795 161.5365853663534,167.0294183071237 143.5365853663534,162.51788676343858 135.19512195140123,180.5639824704267 160.6585365869105,180.00004320894368 165.0487804878503,172.66882559587248 144.4146341457963,163.08182848314755 133.8780487794429,173.7967061032541 143.97560975514352,182.81973871891387 159.7804878037423,178.87216444918886 161.5365853663534,166.46547714271583 137.82926829345524,165.33759457361884 133.43902439065278,173.2327658890281 141.34146341495216,182.25579977640882 160.6585365869105,178.3082249504514 163.73170731589198,170.4130636334885 143.5365853663534,163.08182848314755 134.75609756074846,171.54094477253966 137.82926829345524,184.51155507401563 163.29268292710185,178.3082249504514 160.21951219439507,164.77365316916257 146.60975609719753,163.08182848314755 135.634146342054,170.4130636334885 136.9512195121497,180.00004320894368 152.75609756074846,181.6918607535772 163.29268292710185,174.3606462359894 161.09756097570062,165.33759457361884 142.65853658504784,163.08182848314755 133.43902439065278,173.7967061032541 136.9512195121497,181.6918607535772 152.75609756074846,182.81973871891387 165.48780487850308,170.97700424259529 143.97560975514352,164.2097116857767 135.19512195140123,172.66882559587248 140.90243902429938,183.3836775838863 162.4146341457963,176.61640597693622 162.85365853644907,168.1573003998492 143.97560975514352,163.64577012439258 134.31707317009568,176.0524661608506 140.4634146336466,182.81973871891387 158.02439024485648,180.5639824704267 164.60975609719753,170.97700424259529 141.78048780560493,164.77365316916257 134.75609756074846,169.28518217499368 139.5853658542037,182.81973871891387 164.60975609719753,173.2327658890281 158.90243902429938,164.77365316916257 141.78048780560493,164.77365316916257 135.19512195140123,170.4130636334885 139.14634146355093,182.25579977640882 155.39024390280247,181.6918607535772 164.60975609719753,169.84912294498645 140.02439024299383,164.77365316916257 134.75609756074846,170.4130636334885 141.78048780560493,182.25579977640882 162.4146341457963,179.43610386946239 165.92682926729321,171.54094477253966 143.5365853663534,163.08182848314755 136.07317073084414,167.593359392602 137.39024390280247,181.6918607535772 163.73170731589198,174.92458629002795 156.70731707289815,163.64577012439258 138.70731707289815,164.77365316916257 140.4634146336466,182.81973871891387 159.34146341495216,178.87216444918886 164.60975609719753,169.28518217499368 137.39024390280247,166.46547714271583 142.21951219439507,183.3836775838863 164.1707317084074,172.66882559587248 156.70731707289815,163.64577012439258 137.39024390280247,166.46547714271583 135.634146342054,176.61640597693622 146.17073170654476,183.94761636923067 165.48780487850308,171.54094477253966 155.8292682915926,163.08182848314755 136.51219512149692,165.90153589844704 138.26829268224537,182.81973871891387 153.19512195326388,183.94761636923067 164.60975609719753,172.1048852247186 141.34146341495216,163.64577012439258 134.75609756074846,174.92458629002795 139.5853658542037,182.81973871891387 162.4146341457963,178.87216444918886 165.0487804878503,172.1048852247186 142.65853658504784,164.77365316916257 136.51219512149692,168.72124132653698 140.4634146336466,182.81973871891387 157.58536585234106,183.3836775838863 165.0487804878503,175.48852626606822 163.29268292710185,167.593359392602 147.0487804878503,163.08182848314755 138.26829268224537,166.46547714271583 137.82926829345524,180.5639824704267 163.29268292710185,175.48852626606822 156.26829268224537,163.64577012439258 137.82926829345524,165.90153589844704 137.82926829345524,181.1279216511175 163.73170731589198,177.18034571548924 160.21951219439507,164.77365316916257 142.65853658504784,163.08182848314755 136.07317073084414,168.1573003998492 139.5853658542037,182.25579977640882 162.4146341457963,181.1279216511175 158.02439024485648,163.64577012439258 137.82926829345524,165.33759457361884 134.75609756074846,175.48852626606822 155.39024390280247,182.25579977640882 163.73170731589198,175.48852626606822 157.14634146541357,163.08182848314755 134.75609756074846,171.54094477253966 141.78048780560493,183.94761636923067 158.02439024485648,182.25579977640882 164.60975609719753,170.97700424259529 151.8780487794429,163.64577012439258 138.70731707289815,165.33759457361884 134.75609756074846,178.3082249504514 161.09756097570062,178.3082249504514 163.29268292710185,167.593359392602 154.9512195121497,162.51788676343858 136.51219512149692,165.90153589844704 135.19512195140123,177.18034571548924 145.29268292710185,182.25579977640882 162.85365853644907,175.48852626606822 163.73170731589198,168.1573003998492 152.31707317195833,163.08182848314755 137.82926829345524,166.46547714271583 137.39024390280247,180.00004320894368 161.97560975514352,178.3082249504514 161.97560975514352,167.0294183071237 142.21951219439507,163.08182848314755 134.75609756074846,176.61640597693622 157.58536585234106,181.1279216511175 163.29268292710185,176.0524661608506 159.7804878037423,163.64577012439258 142.21951219439507,162.51788676343858 133.43902439065278,174.3606462359894 141.34146341495216,183.3836775838863 162.4146341457963,179.43610386946239 162.4146341457963,165.90153589844704 154.51219512149692,162.51788676343858 136.9512195121497,165.33759457361884 136.07317073084414,177.74428537278436 158.4634146336466,181.1279216511175 164.1707317084074,170.97700424259529 157.58536585234106,163.64577012439258 139.5853658542037,163.08182848314755 135.19512195140123,175.48852626606822 157.58536585234106,181.6918607535772 164.60975609719753,170.97700424259529 153.63414634019136,163.08182848314755 140.90243902429938,163.64577012439258 135.19512195140123,175.48852626606822 140.02439024299383,181.6918607535772 161.09756097570062,180.5639824704267 165.92682926729321,173.7967061032541 158.4634146336466,162.51788676343858 134.31707317009568,170.97700424259529 140.90243902429938,182.81973871891387 158.90243902429938,181.1279216511175 164.1707317084074,168.72124132653698 157.58536585234106,162.51788676343858 138.26829268224537,165.33759457361884 134.31707317009568,172.1048852247186 137.39024390280247,180.00004320894368 156.70731707289815,181.6918607535772 163.73170731589198,174.3606462359894 157.58536585234106,164.2097116857767 139.14634146355093,164.77365316916257 133.8780487794429,174.92458629002795 138.70731707289815,182.25579977640882 157.58536585234106,181.6918607535772 163.29268292710185,176.61640597693622 156.26829268224537,163.08182848314755 140.02439024299383,164.2097116857767 133.0,174.92458629002795 154.9512195121497,182.25579977640882 162.85365853644907,177.74428537278436 160.6585365869105,164.77365316916257 143.97560975514352,162.51788676343858 133.0,169.84912294498645 138.26829268224537,180.00004320894368 155.8292682915926,180.5639824704267 164.1707317084074,168.72124132653698 158.90243902429938,163.08182848314755 133.8780487794429,167.0294183071237 137.39024390280247,180.00004320894368 155.39024390280247,181.1279216511175 164.1707317084074,174.3606462359894 160.21951219439507,163.64577012439258 135.634146342054,169.28518217499368 140.02439024299383,180.5639824704267 154.51219512149692,181.1279216511175 162.85365853644907,178.3082249504514 160.6585365869105,164.77365316916257 140.4634146336466,163.08182848314755 133.0,170.97700424259529 140.02439024299383,181.6918607535772 157.14634146541357,181.6918607535772 164.1707317084074,172.66882559587248 154.51219512149692,164.2097116857767 142.65853658504784,163.64577012439258 133.8780487794429,172.66882559587248 137.82926829345524,180.00004320894368 154.9512195121497,180.00004320894368 163.29268292710185,176.61640597693622 160.21951219439507,164.2097116857767 139.14634146355093,164.2097116857767 134.31707317009568,170.4130636334885 140.02439024299383,181.1279216511175 158.4634146336466,180.00004320894368 164.1707317084074,173.7967061032541 158.90243902429938,163.08182848314755 140.02439024299383,162.51788676343858 134.31707317009568,170.4130636334885 141.34146341495216,181.1279216511175 158.4634146336466,180.00004320894368 165.0487804878503,172.66882559587248 157.58536585234106,163.64577012439258 134.31707317009568,169.84912294498645 141.34146341495216,180.5639824704267 159.7804878037423,178.87216444918886 164.60975609719753,172.66882559587248 157.14634146541357,161.95394496200606 137.39024390280247,164.2097116857767 134.75609756074846,177.74428537278436 162.4146341457963,178.3082249504514 161.97560975514352,165.90153589844704 154.07317073270679,162.51788676343858 137.82926829345524,164.77365316916257 133.8780487794429,173.2327658890281 143.5365853663534,182.81973871891387 163.29268292710185,178.87216444918886 160.6585365869105,165.90153589844704 143.5365853663534,163.64577012439258 136.07317073084414,165.90153589844704 135.19512195140123,178.87216444918886 161.97560975514352,178.3082249504514 163.73170731589198,170.4130636334885 150.12195121869445,163.64577012439258 138.70731707289815,164.77365316916257 133.43902439065278,176.0524661608506 158.4634146336466,180.5639824704267 163.73170731589198,169.28518217499368 151.8780487794429,162.51788676343858 139.14634146355093,164.2097116857767 133.8780487794429,177.18034571548924 146.60975609719753,182.81973871891387 162.85365853644907,177.74428537278436 159.7804878037423,164.77365316916257 151.43902439065278,163.08182848314755 135.634146342054,167.593359392602 135.19512195140123,178.3082249504514 160.21951219439507,181.1279216511175 163.29268292710185,167.593359392602 157.14634146541357,162.51788676343858 136.07317073084414,166.46547714271583 134.75609756074846,176.0524661608506 160.6585365869105,178.3082249504514 162.4146341457963,165.90153589844704 155.8292682915926,161.39000308187678 138.70731707289815,163.64577012439258 134.31707317009568,175.48852626606822 157.58536585234106,181.6918607535772 164.1707317084074,169.84912294498645 159.34146341495216,163.64577012439258 137.39024390280247,164.77365316916257 133.0,174.3606462359894 143.5365853663534,182.25579977640882 160.21951219439507,180.5639824704267 165.0487804878503,170.4130636334885 154.07317073270679,161.95394496200606 136.51219512149692,165.90153589844704 134.75609756074846,175.48852626606822 159.7804878037423,181.1279216511175 164.60975609719753,169.84912294498645 158.90243902429938,163.64577012439258 141.78048780560493,163.64577012439258 133.8780487794429,174.3606462359894 158.02439024485648,181.6918607535772 164.1707317084074,176.0524661608506 157.14634146541357,164.2097116857767 133.8780487794429,173.2327658890281 143.09756097756326,182.81973871891387 159.7804878037423,181.1279216511175 164.60975609719753,174.3606462359894 158.02439024485648,163.64577012439258 140.02439024299383,164.2097116857767 134.31707317009568,174.92458629002795 141.34146341495216,182.25579977640882 158.02439024485648,181.1279216511175 164.1707317084074,170.4130636334885 157.58536585234106,164.2097116857767 137.82926829345524,164.77365316916257 133.0,174.3606462359894 158.02439024485648,180.5639824704267 163.73170731589198,176.61640597693622 158.02439024485648,163.64577012439258 133.8780487794429,168.72124132653698 137.82926829345524,180.5639824704267 157.58536585234106,181.1279216511175 163.29268292710185,176.0524661608506 157.58536585234106,163.64577012439258 138.70731707289815,163.64577012439258 134.75609756074846,176.61640597693622 161.5365853663534,178.3082249504514 165.48780487850308,172.1048852247186 154.9512195121497,162.51788676343858 133.8780487794429,171.54094477253966 136.51219512149692,178.87216444918886 152.75609756074846,180.5639824704267 162.4146341457963,176.0524661608506 159.34146341495216,164.2097116857767 134.75609756074846,167.0294183071237 138.70731707289815,180.00004320894368 155.8292682915926,181.1279216511175 165.0487804878503,170.97700424259529 154.9512195121497,161.95394496200606 136.51219512149692,165.33759457361884 134.31707317009568,174.92458629002795 145.29268292710185,183.3836775838863 162.85365853644907,178.3082249504514 154.9512195121497,163.08182848314755 142.65853658504784,163.08182848314755 134.31707317009568,174.3606462359894 158.02439024485648,181.1279216511175 163.73170731589198,170.97700424259529 158.90243902429938,164.2097116857767 134.75609756074846,169.28518217499368 141.78048780560493,181.6918607535772 159.7804878037423,181.1279216511175 162.85365853644907,167.0294183071237 155.8292682915926,162.51788676343858 137.82926829345524,164.2097116857767 135.19512195140123,177.74428537278436 158.90243902429938,181.1279216511175 163.73170731589198,173.7967061032541 157.58536585234106,163.64577012439258 139.5853658542037,163.64577012439258 133.43902439065278,173.7967061032541 141.78048780560493,182.25579977640882 161.09756097570062,179.43610386946239 156.70731707289815,163.08182848314755 148.36585365608335,163.08182848314755 153.19512195326388,172.66882559587248 170.31707317009568,183.3836775838863 174.26829268410802,196.91818651626818 187.0,198.60999691812322" stroke="#4dd2ff" stroke-linecap="round" stroke-linejoin="round" stroke-width="0.5"><title>2021-06-01 11.4km</title></polyline><polyline fill="none" points="61.599999997764826,245.20238403324038 43.375,224.39297406189144 15.699999999254942,236.5318050836213 15.699999999254942,251.27178203407675 52.82499999925494,246.06944125611335 45.399999998509884,221.79179287469015 28.524999998509884,224.39297406189144 13.0,246.93649835698307 28.524999998509884,261.67645041504875 56.875,249.5376689294353 56.875,226.9941541524604 43.375,221.79179287469015 18.399999998509884,246.93649835698307 53.5,246.06944125611335 60.92500000074506,235.6647465187125 47.42500000074506,218.3235495854169 19.074999999254942,239.13298005005345 27.849999997764826,255.6070626634173 53.5,250.40472554368898 61.599999997764826,238.26592184929177 48.100000001490116,220.92473223386332 23.125,230.46239256160334 19.074999999254942,250.40472554368898 55.525000002235174,244.33532668510452 60.92500000074506,233.06357008963823 44.724999997764826,218.3235495854169 18.399999998509884,232.19651103531942 19.074999999254942,245.20238403324038 57.55000000074506,250.40472554368898 64.29999999701977,228.7282736026682 54.849999997764826,222.65885339444503 23.800000000745058,234.7976878322661 33.25,258.20822957577184 60.92500000074506,246.93649835698307 63.625,230.46239256160334 28.524999998509884,222.65885339444503 15.699999999254942,234.7976878322661 50.79999999701977,244.33532668510452 62.274999998509884,240.00003812927753 56.19999999925494,220.0576714728959 25.149999998509884,220.92473223386332 17.725000001490116,239.13298005005345 55.525000002235174,245.20238403324038 63.625,234.7976878322661 53.5,220.0576714728959 17.725000001490116,232.19651103531942 27.175000000745058,252.1388384043239 56.875,246.06944125611335 62.94999999925494,225.26003421237692 53.5,219.1906105875969 22.449999999254942,224.39297406189144 17.725000001490116,236.5318050836213 31.899999998509884,248.67061219504103 60.92500000074506,240.86709608323872 60.92500000074506,223.52591378847137 48.100000001490116,219.1906105875969 23.800000000745058,224.39297406189144 21.774999998509884,246.93649835698307 58.899999998509884,246.93649835698307 65.64999999850988,233.93062902381644 50.79999999701977,219.1906105875969 20.425000000745058,226.12709424318746 23.125,248.67061219504103 61.599999997764826,240.00003812927753 64.29999999701977,228.7282736026682 46.07499999925494,220.0576714728959 27.175000000745058,221.79179287469015 18.399999998509884,240.86709608323872 32.57500000298023,251.27178203407675 61.599999997764826,240.00003812927753 48.100000001490116,219.1906105875969 22.449999999254942,225.26003421237692 18.399999998509884,239.13298005005345 32.57500000298023,251.27178203407675 54.17500000447035,246.93649835698307 64.29999999701977,239.13298005005345 57.55000000074506,221.79179287469015 19.074999999254942,232.19651103531942 24.475000001490116,250.40472554368898 56.19999999925494,244.33532668510452 64.29999999701977,236.5318050836213 54.17500000447035,219.1906105875969 26.5,221.79179287469015 19.074999999254942,233.93062902381644 31.899999998509884,252.1388384043239 58.224999997764826,246.06944125611335 64.97500000149012,237.39886352838948 52.82499999925494,221.79179287469015 22.449999999254942,224.39297406189144 18.399999998509884,233.93062902381644 23.800000000745058,249.5376689294353 52.82499999925494,250.40472554368898 62.94999999925494,245.20238403324038 58.899999998509884,224.39297406189144 31.224999997764826,221.79179287469015 19.75,232.19651103531942 24.475000001490116,249.5376689294353 53.5,250.40472554368898 65.64999999850988,233.06357008963823 58.224999997764826,224.39297406189144 29.199999999254942,222.65885339444503 19.074999999254942,234.7976878322661 23.125,249.5376689294353 57.55000000074506,246.06944125611335 62.274999998509884,226.12709424318746 51.475000001490116,221.79179287469015 19.75,227.86121393926442 19.074999999254942,240.00003812927753 26.5,253.00589465210214 52.82499999925494,250.40472554368898 63.625,243.46826921822503 56.875,224.39297406189144 19.074999999254942,232.19651103531942 27.849999997764826,253.00589465210214 54.17500000447035,249.5376689294353 64.29999999701977,241.73415391659364 54.17500000447035,220.92473223386332 23.125,225.26003421237692 19.75,237.39886352838948 33.25,253.87295077601448 60.92500000074506,246.93649835698307 55.525000002235174,220.0576714728959 23.125,225.26003421237692 20.425000000745058,240.00003812927753 25.149999998509884,251.27178203407675 52.82499999925494,252.1388384043239 64.97500000149012,232.19651103531942 56.875,222.65885339444503 21.100000001490116,227.86121393926442 28.524999998509884,254.74000678071752 54.17500000447035,253.87295077601448 63.625,246.93649835698307 59.57500000298023,226.9941541524604 19.75,231.32945186039433 29.199999999254942,256.4741184222512 52.149999998509884,253.87295077601448 62.94999999925494,246.93649835698307 60.92500000074506,227.86121393926442 29.875,222.65885339444503 19.074999999254942,235.6647465187125 23.800000000745058,251.27178203407675 57.55000000074506,249.5376689294353 65.64999999850988,231.32945186039433 54.849999997764826,221.79179287469015 23.800000000745058,224.39297406189144 21.100000001490116,234.7976878322661 30.550000000745058,256.4741184222512 54.17500000447035,253.87295077601448 62.274999998509884,229.59533314267173 21.100000001490116,230.46239256160334 23.800000000745058,248.67061219504103 39.32499999925494,254.74000678071752 62.94999999925494,246.06944125611335 59.57500000298023,225.26003421237692 17.050000000745058,231.32945186039433 28.524999998509884,255.6070626634173 43.375,254.74000678071752 58.899999998509884,250.40472554368898 63.625,228.7282736026682 22.449999999254942,229.59533314267173 23.800000000745058,251.27178203407675 48.100000001490116,255.6070626634173 64.97500000149012,244.33532668510452 56.19999999925494,226.12709424318746 25.149999998509884,225.26003421237692 17.050000000745058,235.6647465187125 33.25,251.27178203407675 54.849999997764826,249.5376689294353 63.625,228.7282736026682 54.849999997764826,220.92473223386332 19.074999999254942,231.32945186039433 24.475000001490116,247.80355533631518 44.05000000074506,254.74000678071752 64.97500000149012,240.86709608323872 61.599999997764826,227.86121393926442 21.774999998509884,228.7282736026682 24.475000001490116,252.1388384043239 50.125,255.6070626634173 64.29999999701977,236.5318050836213 56.875,226.9941541524604 35.274999998509884,224.39297406189144 18.399999998509884,237.39886352838948 31.899999998509884,254.74000678071752 53.5,253.87295077601448 65.64999999850988,235.6647465187125 57.55000000074506,224.39297406189144 23.125,227.86121393926442 25.149999998509884,249.5376689294353 42.69999999925494,253.87295077601448 62.274999998509884,246.06944125611335 58.899999998509884,226.9941541524604 20.425000000745058,229.59533314267173 27.175000000745058,253.87295077601448 56.875,253.87295077601448 65.64999999850988,237.39886352838948 46.75,222.65885339444503 28.524999998509884,223.52591378847137 20.425000000745058,242.60121162980795 26.5,253.87295077601448 56.19999999925494,253.00589465210214 58.224999997764826,226.12709424318746 30.550000000745058,222.65885339444503 18.399999998509884,241.73415391659364 34.599999997764826,253.87295077601448 57.55000000074506,251.27178203407675 56.19999999925494,224.39297406189144 28.524999998509884,223.52591378847137 19.75,233.93062902381644 25.824999999254942,253.00589465210214 52.149999998509884,253.87295077601448 63.625,234.7976878322661 56.19999999925494,226.12709424318746 28.524999998509884,222.65885339444503 17.050000000745058,239.13298005005345 29.875,253.00589465210214 58.899999998509884,249.5376689294353 61.599999997764826,226.9941541524604 50.125,222.65885339444503 31.899999998509884,221.79179287469015 19.074999999254942,242.60121162980795 53.5,251.27178203407675 64.97500000149012,233.06357008963823 51.475000001490116,220.92473223386332 22.449999999254942,226.9941541524604 21.774999998509884,246.93649835698307 58.899999998509884,250.40472554368898 64.97500000149012,240.00003812927753 51.475000001490116,222.65885339444503 17.725000001490116,236.5318050836213 27.175000000745058,251.27178203407675 56.875,250.40472554368898 64.29999999701977,230.46239256160334 54.17500000447035,225.26003421237692 19.074999999254942,234.7976878322661 27.849999997764826,252.1388384043239 55.525000002235174,249.5376689294353 64.29999999701977,240.86709608323872 58.224999997764826,223.52591378847137 21.100000001490116,226.9941541524604 16.375,240.00003812927753 27.849999997764826,253.00589465210214 54.849999997764826,248.67061219504103 62.94999999925494,228.7282736026682 52.82499999925494,222.65885339444503 23.800000000745058,223.52591378847137 17.725000001490116,234.7976878322661 29.199999999254942,252.1388384043239 57.55000000074506,248.67061219504103 63.625,229.59533314267173 54.17500000447035,225.26003421237692 28.524999998509884,223.52591378847137 17.725000001490116,237.39886352838948 29.199999999254942,253.00589465210214 56.19999999925494,250.40472554368898 64.97500000149012,241.73415391659364 54.17500000447035,221.79179287469015 24.475000001490116,223.52591378847137 19.75,233.93062902381644 31.899999998509884,252.1388384043239 61.599999997764826,248.67061219504103 67.0,238.26592184929177 54.849999997764826,224.39297406189144 23.800000000745058,226.12709424318746 19.074999999254942,238.26592184929177 33.25,253.87295077601448 59.57500000298023,248.67061219504103 66.32499999925494,237.39886352838948 51.475000001490116,221.79179287469015 23.125,226.12709424318746 18.399999998509884,241.73415391659364 30.550000000745058,253.87295077601448 58.899999998509884,248.67061219504103 57.55000000074506,224.39297406189144 31.224999997764826,222.65885339444503 18.399999998509884,240.00003812927753 27.175000000745058,252.1388384043239 61.599999997764826,246.06944125611335 60.92500000074506,226.9941541524604 48.100000001490116,221.79179287469015 29.199999999254942,222.65885339444503 19.75,242.60121162980795 40.0,253.00589465210214 60.92500000074506,247.80355533631518 55.525000002235174,222.65885339444503 20.425000000745058,230.46239256160334 34.599999997764826,253.87295077601448 58.224999997764826,250.40472554368898 67.0,241.73415391659364 57.55000000074506,223.52591378847137 27.849999997764826,223.52591378847137 20.425000000745058,240.86709608323872 30.550000000745058,252.1388384043239 59.57500000298023,250.40472554368898 66.32499999925494,240.00003812927753 51.475000001490116,223.52591378847137 23.125,226.9941541524604 19.074999999254942,238.26592184929177 33.25,253.87295077601448 61.599999997764826,248.67061219504103 66.32499999925494,238.26592184929177 51.475000001490116,222.65885339444503 22.449999999254942,226.9941541524604 23.800000000745058,248.67061219504103 64.29999999701977,246.06944125611335 60.25,226.12709424318746 47.42500000074506,221.79179287469015 24.475000001490116,224.39297406189144 18.399999998509884,241.73415391659364 28.524999998509884,252.1388384043239 62.274999998509884,246.93649835698307 65.64999999850988,235.6647465187125 48.100000001490116,222.65885339444503 21.100000001490116,228.7282736026682 22.449999999254942,248.67061219504103 60.92500000074506,248.67061219504103 59.57500000298023,226.12709424318746 45.399999998509884,223.52591378847137 26.5,224.39297406189144 17.050000000745058,240.86709608323872 54.17500000447035,252.1388384043239 63.625,233.93062902381644 56.19999999925494,226.12709424318746 25.149999998509884,225.26003421237692 17.725000001490116,243.46826921822503 55.525000002235174,252.1388384043239 65.64999999850988,234.7976878322661 45.399999998509884,222.65885339444503 29.199999999254942,223.52591378847137 19.074999999254942,243.46826921822503 37.975000001490116,254.74000678071752 61.599999997764826,249.5376689294353 59.57500000298023,226.12709424318746 47.42500000074506,222.65885339444503 21.774999998509884,230.46239256160334 19.074999999254942,244.33532668510452 34.599999997764826,253.00589465210214 64.29999999701977,243.46826921822503 54.17500000447035,223.52591378847137 39.32499999925494,222.65885339444503 23.800000000745058,226.12709424318746 19.75,246.93649835698307 59.57500000298023,249.5376689294353 60.25,226.9941541524604 47.42500000074506,221.79179287469015 20.425000000745058,227.86121393926442 23.125,250.40472554368898 62.94999999925494,246.06944125611335 59.57500000298023,226.12709424318746 47.42500000074506,222.65885339444503 27.175000000745058,225.26003421237692 18.399999998509884,246.06944125611335 59.57500000298023,250.40472554368898 62.94999999925494,230.46239256160334 37.975000001490116,222.65885339444503 23.800000000745058,226.12709424318746 21.774999998509884,246.93649835698307 63.625,245.20238403324038" stroke="#4dd2ff" stroke-linecap="round" stroke-linejoin="round" stroke-width="0.5"><title>2020-11-29 10.4km</title></polyline></svg>