<?xml version="1.0" encoding="utf-8" ?>
<svg baseProfile="full" height="300mm" version="1.1" viewBox="0,0,200,300" width="200mm" xmlns="http://www.w3.org/2000/svg" xmlns:ev="http://www.w3.org/2001/xml-events" xmlns:xlink="http://www.w3.org/1999/xlink"><defs /><rect fill="#222222" height="300" width="200" x="0" y="0" /><text fill="#FFFFFF" style="font-size:12px; font-family:Arial; font-weight:bold;" x="10" y="20">Over 10km Runs</text><text fill="#FFFFFF" style="font-size:4px; font-family:Arial" x="10" y="280">ATHLETE</text><text fill="#FFFFFF" style="font-size:9px; font-family:Arial" x="10" y="290">Abuqi</text><text fill="#FFFFFF" style="font-size:4px; font-family:Arial" x="120" y="280">STATISTICS</text><text fill="#FFFFFF" style="font-size:3px; font-family:Arial" x="120" y="285">Number: 11</text><text fill="#FFFFFF" style="font-size:3px; font-family:Arial" x="120" y="290">Weekly: 1.1</text><text fill="#FFFFFF" style="font-size:3px; font-family:Arial" x="141" y="285">Total: 151.8 km</text><text fill="#FFFFFF" style="font-size:3px; font-family:Arial" x="141" y="290">Avg: 13.8 km</text><text fill="#FFFFFF" style="font-size:3px; font-family:Arial" x="167" y="285">Min: 10.0 km</text><text fill="#FFFFFF" style="font-size:3px; font-family:Arial" x="167" y="290">Max: 21.6 km</text><polyline fill="none" points="33.07053276221268,33.582621397828916 37.713450357317924,36.36126265369239 39.074907396687195,40.125834772217786 40.92509260377847,39.54322532660444 43.473460907815024,40.753259138786234 44.93964541144669,39.991386532987235 45.009463721187785,38.870982336375164 43.96218907576986,37.123143930599326 40.92509260377847,35.823463009495754 38.37672429950908,33.0 36.351993318181485,35.24084570497507 38.167269370518625,36.94387791157351 38.72581584798172,40.170650839369046 37.81817782204598,36.854244864254724 33.10544191719964,33.71707233847701 31.56943910382688,33.672255364625016 26.926521508488804,42.097735768184066 26.647248269757256,44.0696245735453 20.887237719492987,53.34630151189049 20.677782790269703,55.40774863772094 19.24650744139217,57.962132029089844 22.074148984393105,59.306536124204285 24.58760813367553,57.82769130784436 25.94906517281197,54.78035309663392 28.70688840583898,52.94297334202565 31.953439807286486,53.525558312627254 33.55926093016751,54.959609091456514 33.908352478872985,57.46918244101107 30.62689192290418,61.09906610377948 30.138163754949346,65.04259660211392 27.13597643771209,67.19359268943663 24.44797151419334,71.18185955652734 24.343244049698114,72.30215026790393 25.879246863070875,74.40828615461942 28.881434180308133,75.03564309264766 31.25525671010837,76.73846284812316 33.03562360745855,81.21952403598698 39.03999824193306,82.47420988915837 40.436364435823634,85.29723501697299 42.32145879766904,86.73114297541906 47.557832025457174,85.92457054179977 50.176018639234826,84.40103927013115 51.43274821387604,82.51902000690461 51.43274821387604,77.63468012117664 53.07347849174403,71.09223612962523 59.566581293940544,59.306536124204285 59.25239890022203,55.721445945382584 60.75349255884066,57.60362331336364 60.26476439088583,59.97873604687629 52.93384187249467,73.3776256495621 51.71202145260759,83.72889080777531 49.30328976782039,85.83495125648915 45.11419118568301,87.0 41.204365842510015,86.23823784163687 39.14472570642829,82.7430705014558 37.259631344582886,81.66762669273885 32.96580529771745,81.39876517420635 30.557073613163084,76.37997523377999 28.741797560825944,74.99083192364196 25.704701088834554,74.40828615461942 24.657426443416625,73.2431914251647 24.44797151419334,70.77855393727077 26.891612353734672,66.70065736726974 29.823981361230835,64.77372107130941 30.48725530318916,60.9646267046046 33.07053276221268,58.09657269352465 33.489442620426416,56.52809474879177 32.96580529771745,54.86998110651621 32.02325811679475,54.01851399493171 29.30034403828904,53.25667307374533 27.13597643771209,54.10814221901819 25.4952461598441,57.91731846157927 22.248694758629426,60.47168175675324 21.72505743568763,63.743029437289806 20.363600396784022,65.98365917499177 22.17887644888833,60.33724209331558 25.18106376612559,58.00694559013937 26.54252080526203,54.735539082146715 27.90397784439847,53.43592992471531 30.138163754949346,53.12223036927753 32.79125952348113,54.33221266901819 33.768715859390795,55.721445945382584 33.245078536449,58.49989434707095 30.80143769690767,60.78537408448756 30.277800374198705,64.63928322098218 27.13597643771209,67.14878041899647 24.762153907911852,71.09223612962523 24.622517288429663,72.75026545088622 25.460337004857138,74.2290410885762 29.335253193276003,75.12526541153784 30.836346851894632,76.24554227470071 33.07053276221268,81.44357544297236 34.397080646594986,81.93648798478534 36.945448950864375,81.48838570556836 39.17963486118242,82.47420988915837 40.471273590577766,85.56609325006139 41.797821475192904,86.64152391679818 47.03419470251538,86.41747616021894 51.18838412989862,83.68408085999545 51.78183976211585,82.20534905028762 51.71202145260759,77.41062603885075 53.632024969439954,70.6441186175507 59.98549115215428,59.127282572182594 59.566581293940544,55.90070141130127 60.020400307141244,56.61772226760513 58.44948833878152,54.51146891564713 59.95058199740015,56.34883963534958 60.29967354587279,58.81358861390618 59.84585453267209,55.721445945382584 57.40221369336359,53.30148729600478 36.31708416342735,44.293702075461624 38.341815144754946,40.79807511775289 39.91272711288184,39.588041475682985 43.99709823075682,40.66362716202275 45.323646114906296,39.722489884792594" stroke="#4dd2ff" stroke-linecap="round" stroke-linejoin="round" stroke-width="0.5"><title>2023-06-23 11.0km</title></polyline><polyline fill="none" points="125.06615269836038,78.44238097189373 121.25217607564991,77.68340606553829 119.72121362842154,76.5449348964321 116.47127580211964,75.49270214239368 114.8865953743225,74.59570971327048 111.36806764488574,73.26745886987192 108.01069385727169,72.33594969356636 102.08828649594216,71.71493964394176 98.75777169852518,70.28315448662761 94.7154936583247,66.21196314757981 92.83536433719564,65.33215403259965 87.08754041284556,61.2262946678311 85.15369311114773,58.75926260527922 83.54215369309532,57.586111058051756 82.79010196472518,55.998888151363644 81.218851032143,53.68702671213396 78.62695846799761,51.32336209873756 76.80054712755373,48.42479144372919 75.90077095251763,47.7691528604264 75.13528972893255,46.71667306355084 74.11464809748577,44.766973494159174 73.0,41.40237473970046 75.36359114648076,46.88921135459532 77.20343198208138,48.78711652451602 78.61352897289908,51.13357683161303 81.32628699328052,53.73878528127534 82.88410843070596,55.912625448014296 83.71673713007476,57.63786798073852 85.5297189753619,59.104305041189946 87.15468788857106,61.20904286780569 92.88908231788082,65.26314912907401 94.76921163895167,66.21196314757981 98.65033573738765,69.97264465571061 100.12758020398906,70.83517002199369 98.8920666500344,70.35215656454238 94.6214871922275,66.14295873935043 92.338473016629,64.969877855714 86.69808505347464,60.84675450543 85.42228301422438,59.05254873773811 83.38099975127261,57.34457846332225 82.65580701315776,55.77460499633162 81.1919920417713,53.63526812118653 78.64038796321256,51.25434930829215 77.96891320566647,50.270912822990795 79.23128574975999,51.77194428896473 81.29942800290883,53.58350950836757 82.92439691617619,55.96438307730568 83.63616015919251,57.51710179386282 85.44914200447965,58.94903606521984 86.98010445159161,61.01927290675667 92.32504352158867,64.86637018002511 94.66177567769773,66.09120540764707 98.79806018405361,70.19690183471539 101.98085053468822,71.4906852418062 106.66774434223771,72.23244823706045 107.79582193482202,72.14619695662259 110.37428500375245,72.88795598580327 119.45262372546131,76.33793900258024 121.38647102715913,77.7696534505958 122.23252922156826,77.68340606553829 124.2335239990498,78.23538828156597 127.0,78.44238097189373 125.80477493163198,78.59762526030681 124.98557572741993,78.51137845767516 125.28102462075185,78.42513159439841" stroke="#4dd2ff" stroke-linecap="round" stroke-linejoin="round" stroke-width="0.5"><title>2023-05-28 13.0km</title></polyline><polyline fill="none" points="156.24718256946653,50.26168536551995 155.76033057831228,53.33451561987749 152.92036063107662,55.88650782665354 152.55522163794376,59.740503575565526 148.61983471084386,63.334058110485785 145.98271975968964,67.29213583702222 145.8204357624054,69.42739706329303 147.07813673932105,71.30225043941755 151.09466566494666,72.1355155633064 152.92036063107662,73.48956739524147 155.6791885800194,79.58273944252869 161.27798647619784,80.05144083691994 165.25394440279342,85.25919424195308 167.72877535689622,85.93619681193377 173.4087152518332,84.7384221930115 177.10067618335597,81.1971528622962 177.5875281742774,72.65630531468196 180.0623591283802,65.99014124902897 186.8377160031814,53.80325019953307 187.0,51.77206274130731 186.1480090157129,49.79294630809454 184.72802404221147,48.38672557959217 161.4402704734821,38.17844482007786 150.2021036813967,34.324224898184184 145.94214876019396,43.595118597731926 142.61532682203688,47.70965443746536 140.38392186327837,52.29288109909976 143.38617580756545,53.64700540545164 146.3478587528225,51.615817091282224 147.8084147258196,48.07423135996214 149.47182569513097,46.563838918169495 152.67693463573232,45.9388471422717 154.94891059352085,46.87633441094658 156.6934635611251,49.27212443802273 156.93688955670223,52.240799296298064 154.34034560481086,55.938589117402444 152.8392186325509,61.0425201121252 149.10668670153245,63.49029882196919 146.46957175061107,67.76085276945378 146.83471074374393,70.57314191979822 152.63636363646947,72.70838424950489 153.8129226146266,74.11451272663544 154.8271975957323,77.86416259384714 156.16604057117365,79.42650551290717 160.87227648380212,79.53066147325444 162.65740045090206,80.36390810404555 165.90308039076626,85.31127140665194 169.18933132989332,85.57165712025017 173.48985725012608,84.68634494792786 176.85725018777885,81.97831812227378 177.26296018017456,74.37490630376851 178.31780616077594,70.15650783621822 186.8377160031814,53.54284217298846 186.67543200613,50.938751846697414 185.17430503387004,48.803384129161714 150.7295266718138,34.16797189414501 149.14725770102814,35.93883541881223 140.38392186327837,52.34496289474191 143.3456048083026,53.95949492757791 146.22614575526677,51.87622647138778 149.187828700291,46.615921518648975 150.9729526671581,45.782599033555016 154.1374906084966,46.095095184864476 156.6934635611251,48.126313748100074 157.0586025544908,52.13663566872128 153.93463561218232,56.66772641890566 153.5289256197866,59.89674580137944 152.39293764089234,61.51124494604301 149.2689706988167,63.229897599841934 146.46957175061107,67.34421552557615 146.38842975208536,69.73987328444491 147.60555972950533,71.25017130700871 153.3666416227352,73.43748857008177 155.96318557485938,79.27027151710354 161.0751314801164,79.58273944252869 163.38767843716778,81.4054637591471 165.33508640131913,84.99880830899929 167.2419233659748,85.67581135447836 170.60931630362757,85.57165712025017 173.77385424496606,84.3738813236705 176.9789631855674,81.30130832528812 177.30353117967024,74.16659145677113 178.4395191585645,69.42739706329303 186.9188580014743,53.594923792843474 186.79714500368573,51.563735193165485 185.25544703216292,49.01171322859591 169.7978963186033,41.772208374139154 150.28324568015523,34.2200562361686 140.22163786622696,52.29288109909976 143.14274981198832,53.95949492757791 146.14500375650823,51.77206274130731 147.84898572508246,48.07423135996214 150.12096168287098,46.19926051030052 153.77235161536373,46.14717785123503 156.73403456062078,48.02214896446094 157.18031555227935,51.042915811005514 156.61232156283222,53.178270628501195 154.09691960946657,56.04275167686865 153.04207362886518,60.52171404621913 149.14725770102814,63.334058110485785 146.38842975208536,67.70877313960227 146.38842975208536,70.05234924214892 147.8084147258196,71.35432956455043 150.52667167549953,71.9271994579467 153.1232156273909,73.54164621318341 155.71975957928225,79.27027151710354 161.52141247177497,79.73897330655018 163.42824943643063,81.4054637591471 165.53794139740057,85.15503989066929 170.36589030805044,85.5195799919893 174.0984222390689,84.47803589433897 177.141247182386,81.45754146506079 177.30353117967024,74.27074889504001 178.39894815953448,69.84403196626226 186.79714500368573,54.115739589964505 186.6348610066343,50.7825058454182 184.84973704000004,48.43880792387063 150.40495867771097,34.06380318806623 140.05935386917554,52.60537176267826 142.6558978210669,54.011576488934224 145.65815176581964,52.34496289474191 147.88955672411248,47.60548953645048 150.12096168287098,46.19926051030052 154.1374906084966,46.355508443230065 156.5311795643065,48.07423135996214 157.01803155522794,51.71998086528038 156.20661157020368,53.69908701069653 153.69120961683802,56.14691420691088 153.2043576259166,60.52171404621913 148.90383170568384,63.59445925964974 146.22614575526677,67.70877313960227 146.30728775355965,69.73987328444491 147.40270473319106,71.19809216732392 150.68895567231812,71.82304136134917 152.8392186325509,73.17709433453274 156.16604057117365,79.42650551290717 161.60255447030067,79.7910512467206 163.5499624342192,81.71792988511152 164.48309541703202,84.53011316878838 165.70022539421916,85.31127140665194 170.73102930141613,85.5195799919893 174.13899323833175,84.47803589433897 176.93839218630455,81.77000754710753 177.7498121713288,70.62522114723106 186.79714500368573,53.23035229960806 186.3102930127643,50.26168536551995 184.56574004492722,48.17839612910757 160.42599549214356,37.81385816523107 150.28324568015523,34.2200562361686 140.2622088654898,52.18871748622041 140.58677685959265,53.33451561987749 142.89932381687686,55.001124765578425 142.45304282498546,58.803048837638926 137.46280991728418,67.24005614136695 137.70623591262847,72.65630531468196 133.6897069872357,76.97883201739751 134.17655897815712,79.37442752157222 135.8399699474685,81.1971528622962 139.36964688193984,81.45754146506079 141.2359128475655,82.96779175568372 135.5965439521242,81.24923059745925 133.7708489857614,79.42650551290717 133.0,77.39545843427186 134.5416979715228,74.63529969821684 137.25995492120273,72.86462101043435 137.54395191580988,66.71925878160982 142.2501878286712,59.06345316930674 142.45304282498546,55.62610126362415 143.4267468068283,54.011576488934224 146.5101427496411,52.18871748622041 147.88955672411248,48.54297259048326 149.02554470323958,47.34507715643849 151.29752066126093,46.40759107287158 154.25920360628515,47.34507715643849 156.12546957167797,49.06379548521363 156.73403456062078,51.09499778220197 153.8940646131523,56.66772641890566 152.8392186325509,60.73003656041692 149.10668670153245,63.542379044374684" stroke="#ff0800" stroke-linecap="round" stroke-linejoin="round" stroke-width="0.5"><title>2023-05-21 21.2km</title></polyline><polyline fill="none" points="64.90760059619788,138.60899471960875 61.192250372609124,137.71313960814587 58.804769001493696,136.23151869465073 56.72578241437441,135.64575664442964 55.008941877866164,134.64650903279107 50.69001490320079,133.0614788537423 47.85991058126092,132.28618488071515 41.77049180329777,131.70040395647084 38.77943368110573,130.37377209138504 37.73323397920467,129.08158437802922 34.82265275710961,126.35933096775261 32.70342771982541,125.23939901783888 27.08345752611058,121.1730984300375 25.406855439650826,118.98482145459275 23.51564828614937,117.4512812085668 22.938897168496624,116.1244949341417 21.32935916550923,113.8499707223018 18.80774962750729,111.48924559653096 17.03725782415131,108.68044033590559 15.159463487332687,106.69872913543077 14.301043219165877,105.061639161715 13.0,101.32209888023499 15.467958271270618,107.07784158601135 17.131147540931124,108.61151178921864 18.874813710921444,111.47201385890367 21.32935916550923,113.71211941182992 23.676602086459752,117.60635918518528 25.540983606595546,119.10543616470386 27.056631892744917,121.12140729902603 32.6095380030456,125.1015605313878 34.68852459016489,126.10088604243356 38.87332339788554,130.25316848180228 42.078986587235704,131.57980165361369 44.27868852461688,131.71763284716144 46.39791356190108,132.25172725690936 47.81967213121243,132.21726962332468 50.73025335324928,133.00979274156998 59.39493293594569,136.38657288590184 61.25931445608148,137.73036765289726 64.196721311484,138.40225950635067 67.0,138.69513428875507 64.26378539501457,138.47117128288664 61.192250372609124,137.78205177249765 59.16691505216295,136.3176599362123 50.54247391957324,132.95810660763527 47.95380029809894,132.30341368903464 41.918032786867116,131.63148836936307 38.85991058120271,130.391001168784 34.608047690067906,126.11811572108127 32.5692995529389,125.15324998203869 26.882265275751706,121.15586805549538 25.634873323433567,119.2777426872417 23.59612518636277,117.62359005937469 22.831594634859357,115.9866461848942 21.12816691509215,113.60873082707985 18.968703427759465,111.64433112605911 16.88971684052376,108.54258320371446 15.320417287643068,107.02614450277906 13.885245901590679,104.06214188678132 13.040238450106699,101.3048657112522 14.207153502269648,104.5446588316263 15.454545454587787,107.04337686625513 17.1982116245199,108.76660096466367 18.834575260814745,111.36862338218634 21.181818181823473,113.488110701197 23.019374068593606,116.07280167133285 23.5692995529389,117.39958850607218 25.701937406905927,119.20882010737841 26.922503725800198,120.94910337125475 32.97168405371485,125.23939901783888 34.74217585695442,126.06642667784035 38.91356184805045,130.25316848180228 42.159463487390894,131.54534383096325 48.678092399437446,132.38955769405584 54.36512667668285,134.38808159920882 48.383010432182346,132.38955769405584 46.4113263785257,132.26895606998733 44.23845007456839,131.78654838584043 42.266766020911746,131.76931950474682 38.64530551421922,130.235939385042 34.80923994042678,126.32487167593354 32.59612518630456,125.17047979404015 27.48584202688653,121.44878409364901 32.944858420290984,125.30831820287858 34.72876304027159,126.15257507112983 39.315946348709986,130.442688386378 42.038748137129005,131.59703056126455 43.31296572287101,131.59703056126455 46.4918032787391,132.25172725690936 47.91356184799224,132.21726962332468 50.11326378543163,132.78581933689566 59.16691505216295,136.26597519853385 61.272727272764314,137.71313960814587 64.10283159470418,138.28166380412586" stroke="#ff0000" stroke-linecap="round" stroke-linejoin="round" stroke-width="0.5"><title>2023-05-14 21.6km</title></polyline><polyline fill="none" points="122.61467015952803,137.52846901079465 119.38675875210902,136.9172949155909 117.45772803045111,135.6123449826773 114.62848297209712,134.73686411321978 113.27816146699479,133.8778954058289 108.84139080729801,132.07734445230017 106.75803762802389,131.63133215054404 105.12479161698138,131.61481314383127 103.0285782329156,131.06968461946235 100.81662300549215,131.0036082626466 97.92307692306349,129.79770821853162 96.98428197187604,128.64135407646245 93.78209097404033,125.68433953663043 92.34174803522183,125.08962370515655 90.61848059057957,123.75150206810213 89.49964277207619,123.23937740555266 86.49035484640626,120.89348749030614 85.30721600377001,119.1588204304644 83.3781852821703,117.60585864808672 80.9347463681479,113.73988582288439 78.13122171949362,111.2616311377933 76.81948082882445,109.04767936418648 75.43057870917255,107.79198666309821 74.10597761365352,105.23099280157476 73.0,102.02554108974437 75.1733746129321,107.2137026114724 75.81638485356234,108.12243341332214 76.92236246727407,109.03115717901528 78.65849011664977,111.74076445740502 80.9347463681479,113.72336429825373 82.5937127887155,116.11896109204827 83.18528221006272,117.45716974008974 85.05001190758776,118.97709192166076 86.56751607521437,121.04217204550514 92.1617051679059,124.97398416583746 94.10359609429725,126.03125571359851 98.01309835672146,129.89682375788834 100.94522505352506,131.05316553371085 104.9318885448738,131.69740815402474 106.75803762802389,131.71392714903777 109.12431531312177,132.42424173776817 117.38056680158479,135.6123449826773 119.50250059535028,136.9833679441581 122.03596094303066,137.56150535779307 125.54679685633164,137.97445891025563 127.0,137.544987185458 126.96141938556684,137.29721432191582 126.16408668726217,137.42935991421837 126.0997856631875,137.82579579868616 125.30245296499925,137.82579579868616 119.59252202906646,136.9833679441581 116.82757799472893,135.36456804042245 109.70302452961914,132.50683617846516 106.5908549654414,131.59829413485568 104.89330793044064,131.58177512353723 103.19576089543989,131.18531815426832 101.11240771610755,131.2018372214079 97.58871159801492,129.7481504174939 93.8721124076983,126.01473591889953 92.07168373418972,125.12266355260363 86.37461300310679,120.99261054799717 84.95999047392979,119.10925813776703 83.10812098119641,117.572816684813 82.50369135505753,116.28417286174226 80.80614432005677,113.7564073452304 78.55560847820016,111.75728626109048 76.89664205757435,109.17985676170065 75.37913789000595,107.74241957030608 73.99023577041226,104.98315172006551 73.12860204814933,102.22381899376342" stroke="#4dd2ff" stroke-linecap="round" stroke-linejoin="round" stroke-width="0.5"><title>2023-05-07 13.6km</title></polyline><polyline fill="none" points="133.0,111.11959260783624 154.1239669425413,124.10625540046021 158.7355371909216,139.19354606163688 167.06611570343375,136.32888350030407 179.561983470805,142.24917947279755 185.21487603336573,138.62061403261032 183.28099173586816,128.88073258416262 168.85123967006803,121.05058120144531 157.54545454587787,109.20977879012935 151.74380165338516,112.45646068337373 149.3636363632977,118.94980120379478 155.31404958758503,124.87017287721392 160.3719008276239,139.00256874621846 166.3223140500486,136.13790578197222 178.81818181835115,142.24917947279755 183.28099173586816,140.9123407008592 186.10743801668286,135.56497246411163 181.34710743837059,127.16192273015622 166.91735537163913,120.28666157810949 156.35537190083414,110.16468603454996 149.95867768581957,118.75882104341872 157.0991735542193,127.16192273015622 159.62809917423874,138.81159140274394 169.89256198424846,137.4747492497554 179.7107438016683,142.44015633279923 185.8099173558876,139.5755006141262 186.55371900834143,135.94692803604994 182.8347107442096,128.49877502652816 166.61983471084386,120.4776415239321 156.35537190083414,110.35566740273498 151.1487603308633,114.55725071718916 149.6611570250243,120.4776415239321 156.35537190083414,126.20702742773574 160.52066115755588,139.76647784980014 167.9586776867509,137.4747492497554 178.0743801658973,142.8221099723596 184.91735537257046,140.72136362595484 186.55371900834143,135.1830167856533 182.98347107507288,128.11681736179162 169.44628099165857,121.62352063704748 157.0991735542193,109.97370463912375 150.85123967006803,118.37686064105947 157.2479338850826,126.77996468963102 160.81818181835115,139.19354606163688 167.21487603336573,137.4747492497554 180.15702479332685,142.44015633279923 185.95867768581957,138.81159140274394 186.40495867747813,135.37399463844486 181.49586776923388,126.97094372322317 168.85123967006803,121.24156104004942 156.8016528924927,109.97370463912375 152.6363636367023,112.83842274942435 150.1074380176142,120.09568160492927 156.65289256162941,125.63408992404584 159.77685950417072,138.81159140274394 167.8099173558876,137.28377169161104 180.90082644671202,142.44015633279923 184.3223140500486,140.9123407008592 185.95867768581957,134.4191051053349 180.30578512512147,126.58898562891409 169.1487603308633,121.43254085164517 155.9090909101069,110.16468603454996 149.8099173558876,119.71372157905716 156.65289256162941,125.2521314539481 161.11570248007774,139.76647784980014 167.9586776867509,136.7108388574561 181.0495867775753,142.24917947279755 186.25619834754616,138.62061403261032 187.0,134.80106099927798 182.98347107507288,127.54388066357933 170.04132231418043,120.85960133571643 156.05785124003887,109.40076029265765 150.1074380176142,118.37686064105947 157.69421487674117,127.9258384888526 159.33057851251215,139.19354606163688 168.70247933920473,136.7108388574561 180.00826446246356,142.24917947279755 185.512396694161,138.62061403261032 186.55371900834143,134.99203890550416 183.57851239666343,127.9258384888526 166.1735537191853,118.75882104341872 157.3966942159459,109.20977879012935 149.6611570250243,119.1407813380938 156.35537190083414,124.29723480995744 159.77685950417072,140.148432240705 167.8099173558876,136.90181649569422 179.561983470805,142.05820258602034 185.3636363632977,138.23865921248216 186.10743801668286,134.80106099927798 180.60330578591675,126.20702742773574 166.1735537191853,118.75882104341872 157.84297520760447,109.01879726059269 152.04132231511176,113.02940374228638 149.6611570250243,120.28666157810949 156.20661157090217,123.72429650148842 160.3719008276239,140.53038652404211 168.40495867840946,137.66572678100783 181.64462810009718,141.4852717644535 185.06611570250243,139.38452335132752 186.40495867747813,133.6551929957932 182.537190082483,127.35290171008091 167.36363636422902,120.09568160492927 143.7107438025996,97.55985638673883 136.27272727247328,111.88351738359779 153.52892562095076,122.57841915963218 160.0743801658973,140.53038652404211 166.024793388322,136.90181649569422 181.49586776923388,141.67624873109162 186.25619834754616,137.85670428490266 185.6611570250243,131.1724756746553 178.0743801658973,124.10625540046021 163.79338843002915,116.84901795955375 154.71900826506317,105.39014310378116 143.26446281094104,97.55985638673883 135.67768595088273,109.78272321715485 157.2479338850826,124.67919354815967 160.2231404967606,139.5755006141262 166.61983471084386,135.94692803604994 181.94214876089245,141.29429476999212 186.40495867747813,133.6551929957932 183.42975206673145,128.30779620737303 169.2975206617266,121.24156104004942 154.86776859499514,105.00817894469947 144.30578512512147,97.55985638673883 135.67768595088273,110.73763005936053 155.01652892678976,122.76939878345001 159.62809917423874,139.38452335132752 170.19008264504373,137.09279410727322 180.15702479332685,142.05820258602034 185.8099173558876,138.429636635934 185.95867768581957,132.31834577128757 182.09090909082443,126.97094372322317 163.94214876089245,117.0399983888492 155.31404958758503,105.77210715552792 143.41322314180434,97.17789002764039 135.38016529008746,110.54664874449372 154.71900826506317,122.57841915963218 160.3719008276239,139.95745505893137 166.91735537163913,136.90181649569422 182.23966942168772,141.29429476999212 186.55371900834143,134.61008306557778 181.0495867775753,126.77996468963102 165.72727272752672,119.1407813380938 155.01652892678976,106.15407109993976 142.96694215014577,97.75083952664863 135.52892562001944,109.97370463912375 156.50413223169744,122.3874395089224 158.88429752085358,138.23865921248216 167.06611570343375,136.13790578197222 181.1983471075073,141.10331774840597 184.4710743809119,139.76647784980014 186.25619834754616,134.4191051053349 180.30578512512147,126.58898562891409 167.6611570250243,120.09568160492927 157.0991735542193,109.59174176852684 152.487603305839,112.0744985108031 149.95867768581957,118.94980120379478 156.65289256162941,122.3874395089224 159.77685950417072,138.81159140274394 167.51239669509232,136.32888350030407 182.23966942168772,141.29429476999212 186.7024793382734,134.03714910452254 181.94214876089245,126.97094372322317 167.21487603336573,119.3317614448024 143.26446281094104,98.32378878432792 135.67768595088273,109.78272321715485 155.9090909101069,122.0054801265942 159.92561983596534,139.19354606163688 168.10743801668286,136.51986119290814 180.90082644671202,142.05820258602034 185.8099173558876,139.19354606163688 185.512396694161,132.50932402699254 181.1983471075073,126.77996468963102 167.51239669509232,119.52274152543396 155.31404958758503,105.58112514263485 143.7107438025996,98.13280572521035 137.462809917517,105.19916103722062 137.01652892678976,111.11959260783624 155.7603305792436,121.62352063704748 160.2231404967606,139.5755006141262 166.76859504263848,137.28377169161104 176.58677685912699,141.4852717644535 183.42975206673145,141.29429476999212 186.7024793382734,136.7108388574561 185.6611570250243,132.12736748857424 177.47933884337544,124.10625540046021 166.61983471084386,120.09568160492927 156.65289256162941,110.35566740273498 151.59504132252187,114.17528913437854 149.3636363632977,120.09568160492927 155.01652892678976,122.19645983097143 160.0743801658973,140.148432240705 167.9586776867509,137.28377169161104 180.30578512512147,142.05820258602034 185.95867768581957,139.00256874621846 185.95867768581957,132.89128045691177 180.15702479332685,126.3980065418873 165.87603305839002,119.1407813380938 143.85950413253158,98.32378878432792 135.975206611678,111.3105738417944 156.05785124003887,123.34233749494888 160.3719008276239,140.53038652404211 166.47107437998056,136.7108388574561 181.49586776923388,141.8672256715363 186.25619834754616,138.62061403261032 185.95867768581957,132.89128045691177 179.85950413253158,126.3980065418873 167.21487603336573,120.4776415239321 155.462809917517,106.53603493643459 143.7107438025996,99.27870367735159 136.27272727247328,108.63683412177488 156.20661157090217,124.87017287721392" stroke="#4dd2ff" stroke-linecap="round" stroke-linejoin="round" stroke-width="0.5"><title>2023-05-01 14.7km</title></polyline><polyline fill="none" points="13.0,171.01348835625686 34.846153846010566,183.06157850392628 39.76923076994717,199.84972863656003 48.07692307699472,197.28214219247457 61.30769230797887,202.0222981175175 66.69230769202113,196.6896215772722 64.38461538497359,189.97437048866414 46.076923076063395,181.08648883563 36.5384615380317,169.63091402908321 34.23076923098415,169.82842473045457 27.923076923005283,180.69147056876682 35.76923076901585,185.431682442897 40.38461538404226,200.6397542906925 47.30769230797887,197.4796490080189 58.53846153896302,202.61481648415793 62.846153846010566,202.0222981175175 66.69230769202113,195.8995937028667 64.07692307699472,189.1843388399575 34.5384615380317,169.43340330023784 27.615384615026414,180.0989429608453 34.5384615380317,184.2466309729498 40.38461538404226,200.6397542906925 47.0,197.08463534805924 60.5384615380317,202.8123225508025 66.53846153896302,197.08463534805924 62.53846153896302,188.1967986538075 49.615384615026414,181.67901602736674 36.69230769202113,168.64336010580882 31.923076923005283,171.6060197944753 27.76923076901585,179.9014337026747 37.307692307047546,187.40676600579172 39.30769230797887,200.24474151886534 48.384615384973586,197.4796490080189 61.0,202.417310390505 64.5384615380317,200.6397542906925 66.23076923005283,195.30707250523847 59.61538461595774,186.0242078031879 48.53846153896302,180.8889797157608 36.23076923098415,168.84087094583083 29.769230768084526,174.7661832466256 28.076923076063395,181.08648883563 36.07692307699472,185.03666539734695 39.4615384619683,199.6522221530322 47.30769230797887,197.08463534805924 61.30769230797887,202.2198042679811 66.23076923005283,199.45471564214677 66.69230769202113,196.09710071305744 63.0,188.98683085793164 44.23076923098415,177.92633959348314 35.92307692300528,169.03838175837882 30.53846153896302,174.17365314008202 28.69230769202113,181.48150699143298 35.76923076901585,184.2466309729498 40.38461538404226,200.04723509098403 49.0,197.67715579632204 59.923076923936605,202.8123225508025 65.0,200.44224791880697 66.69230769202113,194.91205823479686 63.0,188.1967986538075 45.4615384619683,178.91388699482195 39.76923076994717,170.61846725898795 34.69230769202113,168.4458492381964 27.923076923005283,180.29645219107624 35.92307692300528,185.23417393420823 39.615384615026414,200.44224791880697 49.0,197.67715579632204 61.92307692300528,202.61481648415793 66.69230769202113,198.26967599487398 66.53846153896302,194.1220293608494 59.0,185.03666539734695 44.69230769202113,178.71637757017743 34.846153846010566,169.03838175837882 28.538461538031697,179.50641510239802 38.076923076063395,187.60427420958877 39.0,199.6522221530322 46.84615384694189,197.87466255691834 60.076923076063395,203.00982859055512 65.15384615398943,201.2322732405737 67.0,196.09710071305744 62.230769231915474,187.40676600579172 45.76923076901585,179.30890576110687 35.0,169.43340330023784 28.846153845079243,180.0989429608453 36.07692307699472,186.0242078031879 39.0,200.44224791880697 47.46153846103698,197.08463534805924 61.92307692300528,202.2198042679811 67.0,196.09710071305744 61.153846153989434,186.2217162012821 48.69230769202113,180.493961394066 35.0,168.64336010580882 29.769230768084526,180.493961394066 36.38461538404226,184.2466309729498 39.615384615026414,201.03476695145946 48.23076923098415,198.26967599487398 58.23076923098415,202.61481648415793 64.69230769202113,200.04723509098403 66.53846153896302,196.09710071305744 60.38461538404226,185.82669937773608 46.69230769202113,179.30890576110687 37.153846153989434,169.03838175837882 34.5384615380317,169.23589254310355 29.307692307047546,180.29645219107624 36.69230769202113,186.0242078031879 38.23076923005283,199.6522221530322 46.076923076063395,197.08463534805924 62.230769231915474,202.417310390505 67.0,198.07216928945854 67.0,194.5170438538771 59.61538461595774,184.2466309729498 48.384615384973586,180.0989429608453 37.0,168.64336010580882 34.69230769202113,169.23589254310355 28.846153845079243,180.8889797157608 36.5384615380317,187.01174951496068 38.69230769202113,200.04723509098403 47.92307692300528,197.08463534805924 56.84615384694189,201.62728573440108 63.61538461595774,201.2322732405737 66.38461538497359,198.66468932188582 65.4615384619683,190.36938614665996 47.0,179.1113963915268 23.0,156.99017140944488 15.923076923005283,166.8657612951938 15.46153846103698,170.22344605007675 36.5384615380317,185.82669937773608 39.615384615026414,199.6522221530322 47.153846153989434,196.6896215772722 56.384615384973586,201.03476695145946 63.61538461595774,201.03476695145946 66.53846153896302,197.4796490080189 64.07692307699472,189.1843388399575 34.69230769202113,168.84087094583083 29.769230768084526,177.13630117254797 36.23076923098415,185.431682442897 39.76923076994717,200.04723509098403 47.61538461595774,196.2946076951921 56.69230769202113,201.42977950093336 63.30769230797887,201.42977950093336 66.38461538497359,197.08463534805924 65.0,189.97437048866414 49.92307692300528,181.48150699143298 39.92307692300528,170.61846725898795 34.846153846010566,169.63091402908321 30.076923076994717,174.7661832466256 29.153846153989434,181.28399792755954 36.5384615380317,187.40676600579172 40.07692307699472,200.6397542906925 47.92307692300528,196.6896215772722 60.69230769202113,202.417310390505 65.92307692300528,198.66468932188582 64.38461538497359,189.1843388399575 45.92307692300528,178.71637757017743 37.76923076901585,168.4458492381964 34.384615384973586,169.82842473045457 29.769230768084526,179.30890576110687 35.61538461595774,183.6541048635263 38.69230769202113,192.54197028127965 43.76923076901585,190.96190942509566 51.0,181.28399792755954" stroke="#4dd2ff" stroke-linecap="round" stroke-linejoin="round" stroke-width="0.5"><title>2023-04-20 10.0km</title></polyline><polyline fill="none" points="74.50990935630398,186.17988745784533 74.24443078815239,185.83895519568614 73.12444307879196,185.4554045669356 73.0,185.17839457182708 73.20740513136843,184.85876639580965 74.02872945152922,184.42193904107262 75.08234751882264,184.26212352589937 79.09771086191176,184.26212352589937 80.50806575510069,183.96380032882735 91.26824396988377,178.38067805958417 93.34229528342257,177.54956742098875 94.93516669227392,177.33646066017536 96.4450760485779,177.42170343642647 114.47273006607429,180.33055568778946 116.64633584266994,180.56496382639307 117.85758180977427,180.51168931315624 119.6910431709839,180.09614682388928 121.00184360117419,179.47815634201834 122.23797818404273,178.4872300460629 124.86787524964893,175.29060525033128 126.24504532184801,174.76847705019463 126.96681517898105,174.81109989533434 127.0,174.9389682868059 126.65985558458488,174.99224671956472 124.68535873407382,174.1824104974221 124.28714088187553,173.82011254215467 123.19204178827931,176.1323961980961 121.74850207404234,178.18888410616637 119.98970656015445,179.54208662566816 118.9111998770968,180.01090705719253 117.73313873098232,180.30924582106672 116.20663696416887,180.40514017422538 114.41465662926203,180.245316184868 98.83438316176762,177.7200523979409 95.92241511750035,177.30449459431838 94.48717160854721,177.29383923605928 93.21785220465972,177.5176014450626 91.69135043784627,178.0290554407402 80.41680749729858,183.8146382897612 78.89860193576897,184.0490356478549 74.59287140879314,184.03838123821333 73.16592410512385,184.51782818836364" stroke="#4dd2ff" stroke-linecap="round" stroke-linejoin="round" stroke-width="0.5"><title>2023-03-17 12.5km</title></polyline><polyline fill="none" points="134.36183300014818,186.13227305416513 133.0,185.35379996079428 133.1494694756111,185.0445413083944 133.74734737811377,184.70328891788813 135.22543441486778,184.43668441922637 139.07842534215888,184.43668441922637 140.4319544825412,184.13808626788523 151.2435798862134,178.53915319934458 153.29463324617245,177.71794158218108 155.1879132707836,177.49397323374433 156.37536521605216,177.5686294234256 172.22743349222583,180.17088495238568 174.90127633401426,180.55481673213217 177.7245886513847,180.6721288326371 179.82546516993898,180.1815497503194 181.22051360909245,179.4563400752013 182.42457327386364,178.3898426578162 185.01537751808064,175.35024271144357 186.4104259572341,174.795635891016 186.97508842070238,174.8916258233221 187.0,175.05160877380695 186.3190834999259,175.05160877380695 184.5005382131203,174.17703118945064 184.33446101800655,174.05970903866546 184.34276487774332,173.86772694583487 183.01414731665864,176.57676261845336 181.47793326157262,178.53915319934458 179.96663078575511,179.62697826987278 177.99031216363073,180.3201919866624 176.3959710902418,180.46949872688128 174.6106412424997,180.30952720823552 157.12271259419504,177.5366339225584 155.52006766106933,177.36599102332548 154.28279255723464,177.42998215556145 152.81300938027562,177.7286067251116 151.47608795939595,178.27252702604892 140.40704290327267,183.94612969255104 139.02860218362184,184.24472859975504 134.31200984158204,184.23406437333324 133.1245578963135,184.68196059247566" stroke="#4dd2ff" stroke-linecap="round" stroke-linejoin="round" stroke-width="0.5"><title>2023-03-11 12.5km</title></polyline><polyline fill="none" points="21.780487805604935,229.28518217499368 22.65853658504784,245.07549370080233 44.60975609719753,235.48852626606822 40.219512194395065,224.77365316916257 22.65853658504784,224.2097116857767 20.02439024299383,243.3836775838863 44.60975609719753,235.48852626606822 40.219512194395065,225.90153589844704 20.02439024299383,225.90153589844704 16.07317073084414,234.92458629002795 22.219512194395065,242.81973871891387 37.14634146541357,240.5639824704267 41.53658536635339,229.28518217499368 17.390243902802467,226.46547714271583 20.902439024299383,244.51155507401563 39.34146341495216,241.1279216511175 43.73170731589198,230.97700424259529 19.146341463550925,225.33759457361884 15.195121951401234,232.66882559587248 22.65853658504784,243.94761636923067 39.34146341495216,240.5639824704267 43.73170731589198,229.84912294498645 34.512195121496916,223.08182848314755 18.70731707289815,225.33759457361884 24.85365853458643,244.51155507401563 44.60975609719753,232.66882559587248 38.02439024485648,223.64577012439258 20.463414633646607,224.2097116857767 22.65853658504784,243.94761636923067 33.19512195326388,243.94761636923067 44.1707317084074,232.66882559587248 22.219512194395065,223.08182848314755 14.756097560748458,226.46547714271583 18.70731707289815,238.3082249504514 43.29268292710185,234.92458629002795 41.53658536635339,227.0294183071237 23.536585366353393,222.51788676343858 15.195121951401234,240.5639824704267 40.658536586910486,240.00004320894368 45.04878048785031,232.66882559587248 24.4146341457963,223.08182848314755 13.878048779442906,233.7967061032541 23.975609755143523,242.81973871891387 39.78048780374229,238.87216444918886 41.53658536635339,226.46547714271583 17.829268293455243,225.33759457361884 13.439024390652776,233.2327658890281 21.34146341495216,242.25579977640882 40.658536586910486,238.3082249504514 43.73170731589198,230.4130636334885 23.536585366353393,223.08182848314755 14.756097560748458,231.54094477253966 17.829268293455243,244.51155507401563 43.29268292710185,238.3082249504514 40.219512194395065,224.77365316916257 26.609756097197533,223.08182848314755 15.63414634205401,230.4130636334885 16.95121951214969,240.00004320894368 32.75609756074846,241.6918607535772 43.29268292710185,234.3606462359894 41.09756097570062,225.33759457361884 22.65853658504784,223.08182848314755 13.439024390652776,233.7967061032541 16.95121951214969,241.6918607535772 32.75609756074846,242.81973871891387 45.487804878503084,230.97700424259529 23.975609755143523,224.2097116857767 15.195121951401234,232.66882559587248 20.902439024299383,243.3836775838863 42.4146341457963,236.61640597693622 42.853658536449075,228.1573003998492 23.975609755143523,223.64577012439258 14.317073170095682,236.0524661608506 20.463414633646607,242.81973871891387 38.02439024485648,240.5639824704267 44.60975609719753,230.97700424259529 21.780487805604935,224.77365316916257 14.756097560748458,229.28518217499368 19.5853658542037,242.81973871891387 44.60975609719753,233.2327658890281 38.90243902429938,224.77365316916257 21.780487805604935,224.77365316916257 15.195121951401234,230.4130636334885 19.146341463550925,242.25579977640882 35.39024390280247,241.6918607535772 44.60975609719753,229.84912294498645 20.02439024299383,224.77365316916257 14.756097560748458,230.4130636334885 21.780487805604935,242.25579977640882 42.4146341457963,239.43610386946239 45.926829267293215,231.54094477253966 23.536585366353393,223.08182848314755 16.07317073084414,227.593359392602 17.390243902802467,241.6918607535772 43.73170731589198,234.92458629002795 36.70731707289815,223.64577012439258 18.70731707289815,224.77365316916257 20.463414633646607,242.81973871891387 39.34146341495216,238.87216444918886 44.60975609719753,229.28518217499368 17.390243902802467,226.46547714271583 22.219512194395065,243.3836775838863 44.1707317084074,232.66882559587248 36.70731707289815,223.64577012439258 17.390243902802467,226.46547714271583 15.63414634205401,236.61640597693622 26.170731706544757,243.94761636923067 45.487804878503084,231.54094477253966 35.8292682915926,223.08182848314755 16.512195121496916,225.90153589844704 18.268292682245374,242.81973871891387 33.19512195326388,243.94761636923067 44.60975609719753,232.1048852247186 21.34146341495216,223.64577012439258 14.756097560748458,234.92458629002795 19.5853658542037,242.81973871891387 42.4146341457963,238.87216444918886 45.04878048785031,232.1048852247186 22.65853658504784,224.77365316916257 16.512195121496916,228.72124132653698 20.463414633646607,242.81973871891387 37.585365852341056,243.3836775838863 45.04878048785031,235.48852626606822 43.29268292710185,227.593359392602 27.04878048785031,223.08182848314755 18.268292682245374,226.46547714271583 17.829268293455243,240.5639824704267 43.29268292710185,235.48852626606822 36.268292682245374,223.64577012439258 17.829268293455243,225.90153589844704 17.829268293455243,241.1279216511175 43.73170731589198,237.18034571548924 40.219512194395065,224.77365316916257 22.65853658504784,223.08182848314755 16.07317073084414,228.1573003998492 19.5853658542037,242.25579977640882 42.4146341457963,241.1279216511175 38.02439024485648,223.64577012439258 17.829268293455243,225.33759457361884 14.756097560748458,235.48852626606822 35.39024390280247,242.25579977640882 43.73170731589198,235.48852626606822 37.14634146541357,223.08182848314755 14.756097560748458,231.54094477253966 21.780487805604935,243.94761636923067 38.02439024485648,242.25579977640882 44.60975609719753,230.97700424259529 31.878048779442906,223.64577012439258 18.70731707289815,225.33759457361884 14.756097560748458,238.3082249504514 41.09756097570062,238.3082249504514 43.29268292710185,227.593359392602 34.95121951214969,222.51788676343858 16.512195121496916,225.90153589844704 15.195121951401234,237.18034571548924 25.29268292710185,242.25579977640882 42.853658536449075,235.48852626606822 43.73170731589198,228.1573003998492 32.31707317195833,223.08182848314755 17.829268293455243,226.46547714271583 17.390243902802467,240.00004320894368 41.97560975514352,238.3082249504514 41.97560975514352,227.0294183071237 22.219512194395065,223.08182848314755 14.756097560748458,236.61640597693622 37.585365852341056,241.1279216511175 43.29268292710185,236.0524661608506 39.78048780374229,223.64577012439258 22.219512194395065,222.51788676343858 13.439024390652776,234.3606462359894 21.34146341495216,243.3836775838863 42.4146341457963,239.43610386946239 42.4146341457963,225.90153589844704 34.512195121496916,222.51788676343858 16.95121951214969,225.33759457361884 16.07317073084414,237.74428537278436 38.46341463364661,241.1279216511175 44.1707317084074,230.97700424259529 37.585365852341056,223.64577012439258 19.5853658542037,223.08182848314755 15.195121951401234,235.48852626606822 37.585365852341056,241.6918607535772 44.60975609719753,230.97700424259529 33.634146340191364,223.08182848314755 20.902439024299383,223.64577012439258 15.195121951401234,235.48852626606822 20.02439024299383,241.6918607535772 41.09756097570062,240.5639824704267 45.926829267293215,233.7967061032541 38.46341463364661,222.51788676343858 14.317073170095682,230.97700424259529 20.902439024299383,242.81973871891387 38.90243902429938,241.1279216511175 44.1707317084074,228.72124132653698 37.585365852341056,222.51788676343858 18.268292682245374,225.33759457361884 14.317073170095682,232.1048852247186 17.390243902802467,240.00004320894368 36.70731707289815,241.6918607535772 43.73170731589198,234.3606462359894 37.585365852341056,224.2097116857767 19.146341463550925,224.77365316916257 13.878048779442906,234.92458629002795 18.70731707289815,242.25579977640882 37.585365852341056,241.6918607535772 43.29268292710185,236.61640597693622 36.268292682245374,223.08182848314755 20.02439024299383,224.2097116857767 13.0,234.92458629002795 34.95121951214969,242.25579977640882 42.853658536449075,237.74428537278436 40.658536586910486,224.77365316916257 23.975609755143523,222.51788676343858 13.0,229.84912294498645 18.268292682245374,240.00004320894368 35.8292682915926,240.5639824704267 44.1707317084074,228.72124132653698 38.90243902429938,223.08182848314755 13.878048779442906,227.0294183071237 17.390243902802467,240.00004320894368 35.39024390280247,241.1279216511175 44.1707317084074,234.3606462359894 40.219512194395065,223.64577012439258 15.63414634205401,229.28518217499368 20.02439024299383,240.5639824704267 34.512195121496916,241.1279216511175 42.853658536449075,238.3082249504514 40.658536586910486,224.77365316916257 20.463414633646607,223.08182848314755 13.0,230.97700424259529 20.02439024299383,241.6918607535772 37.14634146541357,241.6918607535772 44.1707317084074,232.66882559587248 34.512195121496916,224.2097116857767 22.65853658504784,223.64577012439258 13.878048779442906,232.66882559587248 17.829268293455243,240.00004320894368 34.95121951214969,240.00004320894368 43.29268292710185,236.61640597693622 40.219512194395065,224.2097116857767 19.146341463550925,224.2097116857767 14.317073170095682,230.4130636334885 20.02439024299383,241.1279216511175 38.46341463364661,240.00004320894368 44.1707317084074,233.7967061032541 38.90243902429938,223.08182848314755 20.02439024299383,222.51788676343858 14.317073170095682,230.4130636334885 21.34146341495216,241.1279216511175 38.46341463364661,240.00004320894368 45.04878048785031,232.66882559587248 37.585365852341056,223.64577012439258 14.317073170095682,229.84912294498645 21.34146341495216,240.5639824704267 39.78048780374229,238.87216444918886 44.60975609719753,232.66882559587248 37.14634146541357,221.95394496200606 17.390243902802467,224.2097116857767 14.756097560748458,237.74428537278436 42.4146341457963,238.3082249504514 41.97560975514352,225.90153589844704 34.073170732706785,222.51788676343858 17.829268293455243,224.77365316916257 13.878048779442906,233.2327658890281 23.536585366353393,242.81973871891387 43.29268292710185,238.87216444918886 40.658536586910486,225.90153589844704 23.536585366353393,223.64577012439258 16.07317073084414,225.90153589844704 15.195121951401234,238.87216444918886 41.97560975514352,238.3082249504514 43.73170731589198,230.4130636334885 30.12195121869445,223.64577012439258 18.70731707289815,224.77365316916257 13.439024390652776,236.0524661608506 38.46341463364661,240.5639824704267 43.73170731589198,229.28518217499368 31.878048779442906,222.51788676343858 19.146341463550925,224.2097116857767 13.878048779442906,237.18034571548924 26.609756097197533,242.81973871891387 42.853658536449075,237.74428537278436 39.78048780374229,224.77365316916257 31.439024390652776,223.08182848314755 15.63414634205401,227.593359392602 15.195121951401234,238.3082249504514 40.219512194395065,241.1279216511175 43.29268292710185,227.593359392602 37.14634146541357,222.51788676343858 16.07317073084414,226.46547714271583 14.756097560748458,236.0524661608506 40.658536586910486,238.3082249504514 42.4146341457963,225.90153589844704 35.8292682915926,221.39000308187678 18.70731707289815,223.64577012439258 14.317073170095682,235.48852626606822 37.585365852341056,241.6918607535772 44.1707317084074,229.84912294498645 39.34146341495216,223.64577012439258 17.390243902802467,224.77365316916257 13.0,234.3606462359894 23.536585366353393,242.25579977640882 40.219512194395065,240.5639824704267 45.04878048785031,230.4130636334885 34.073170732706785,221.95394496200606 16.512195121496916,225.90153589844704 14.756097560748458,235.48852626606822 39.78048780374229,241.1279216511175 44.60975609719753,229.84912294498645 38.90243902429938,223.64577012439258 21.780487805604935,223.64577012439258 13.878048779442906,234.3606462359894 38.02439024485648,241.6918607535772 44.1707317084074,236.0524661608506 37.14634146541357,224.2097116857767 13.878048779442906,233.2327658890281 23.097560977563262,242.81973871891387 39.78048780374229,241.1279216511175 44.60975609719753,234.3606462359894 38.02439024485648,223.64577012439258 20.02439024299383,224.2097116857767 14.317073170095682,234.92458629002795 21.34146341495216,242.25579977640882 38.02439024485648,241.1279216511175 44.1707317084074,230.4130636334885 37.585365852341056,224.2097116857767 17.829268293455243,224.77365316916257 13.0,234.3606462359894 38.02439024485648,240.5639824704267 43.73170731589198,236.61640597693622 38.02439024485648,223.64577012439258 13.878048779442906,228.72124132653698 17.829268293455243,240.5639824704267 37.585365852341056,241.1279216511175 43.29268292710185,236.0524661608506 37.585365852341056,223.64577012439258 18.70731707289815,223.64577012439258 14.756097560748458,236.61640597693622 41.53658536635339,238.3082249504514 45.487804878503084,232.1048852247186 34.95121951214969,222.51788676343858 13.878048779442906,231.54094477253966 16.512195121496916,238.87216444918886 32.75609756074846,240.5639824704267 42.4146341457963,236.0524661608506 39.34146341495216,224.2097116857767 14.756097560748458,227.0294183071237 18.70731707289815,240.00004320894368 35.8292682915926,241.1279216511175 45.04878048785031,230.97700424259529 34.95121951214969,221.95394496200606 16.512195121496916,225.33759457361884 14.317073170095682,234.92458629002795 25.29268292710185,243.3836775838863 42.853658536449075,238.3082249504514 34.95121951214969,223.08182848314755 22.65853658504784,223.08182848314755 14.317073170095682,234.3606462359894 38.02439024485648,241.1279216511175 43.73170731589198,230.97700424259529 38.90243902429938,224.2097116857767 14.756097560748458,229.28518217499368 21.780487805604935,241.6918607535772 39.78048780374229,241.1279216511175 42.853658536449075,227.0294183071237 35.8292682915926,222.51788676343858 17.829268293455243,224.2097116857767 15.195121951401234,237.74428537278436 38.90243902429938,241.1279216511175 43.73170731589198,233.7967061032541 37.585365852341056,223.64577012439258 19.5853658542037,223.64577012439258 13.439024390652776,233.7967061032541 21.780487805604935,242.25579977640882 41.09756097570062,239.43610386946239 36.70731707289815,223.08182848314755 28.365853656083345,223.08182848314755 33.19512195326388,232.66882559587248 50.31707317009568,243.3836775838863 54.26829268410802,256.9181865162682 67.0,258.6099969181232" stroke="#4dd2ff" stroke-linecap="round" stroke-linejoin="round" stroke-width="0.5"><title>2021-06-01 11.4km</title></polyline><polyline fill="none" points="121.59999999776483,245.20238403324038 103.375,224.39297406189144 75.69999999925494,236.5318050836213 75.69999999925494,251.27178203407675 112.82499999925494,246.06944125611335 105.39999999850988,221.79179287469015 88.52499999850988,224.39297406189144 73.0,246.93649835698307 88.52499999850988,261.67645041504875 116.875,249.5376689294353 116.875,226.9941541524604 103.375,221.79179287469015 78.39999999850988,246.93649835698307 113.5,246.06944125611335 120.92500000074506,235.6647465187125 107.42500000074506,218.3235495854169 79.07499999925494,239.13298005005345 87.84999999776483,255.6070626634173 113.5,250.40472554368898 121.59999999776483,238.26592184929177 108.10000000149012,220.92473223386332 83.125,230.46239256160334 79.07499999925494,250.40472554368898 115.52500000223517,244.33532668510452 120.92500000074506,233.06357008963823 104.72499999776483,218.3235495854169 78.39999999850988,232.19651103531942 79.07499999925494,245.20238403324038 117.55000000074506,250.40472554368898 124.29999999701977,228.7282736026682 114.84999999776483,222.65885339444503 83.80000000074506,234.7976878322661 93.25,258.20822957577184 120.92500000074506,246.93649835698307 123.625,230.46239256160334 88.52499999850988,222.65885339444503 75.69999999925494,234.7976878322661 110.79999999701977,244.33532668510452 122.27499999850988,240.00003812927753 116.19999999925494,220.0576714728959 85.14999999850988,220.92473223386332 77.72500000149012,239.13298005005345 115.52500000223517,245.20238403324038 123.625,234.7976878322661 113.5,220.0576714728959 77.72500000149012,232.19651103531942 87.17500000074506,252.1388384043239 116.875,246.06944125611335 122.94999999925494,225.26003421237692 113.5,219.1906105875969 82.44999999925494,224.39297406189144 77.72500000149012,236.5318050836213 91.89999999850988,248.67061219504103 120.92500000074506,240.86709608323872 120.92500000074506,223.52591378847137 108.10000000149012,219.1906105875969 83.80000000074506,224.39297406189144 81.77499999850988,246.93649835698307 118.89999999850988,246.93649835698307 125.64999999850988,233.93062902381644 110.79999999701977,219.1906105875969 80.42500000074506,226.12709424318746 83.125,248.67061219504103 121.59999999776483,240.00003812927753 124.29999999701977,228.7282736026682 106.07499999925494,220.0576714728959 87.17500000074506,221.79179287469015 78.39999999850988,240.86709608323872 92.57500000298023,251.27178203407675 121.59999999776483,240.00003812927753 108.10000000149012,219.1906105875969 82.44999999925494,225.26003421237692 78.39999999850988,239.13298005005345 92.57500000298023,251.27178203407675 114.17500000447035,246.93649835698307 124.29999999701977,239.13298005005345 117.55000000074506,221.79179287469015 79.07499999925494,232.19651103531942 84.47500000149012,250.40472554368898 116.19999999925494,244.33532668510452 124.29999999701977,236.5318050836213 114.17500000447035,219.1906105875969 86.5,221.79179287469015 79.07499999925494,233.93062902381644 91.89999999850988,252.1388384043239 118.22499999776483,246.06944125611335 124.97500000149012,237.39886352838948 112.82499999925494,221.79179287469015 82.44999999925494,224.39297406189144 78.39999999850988,233.93062902381644 83.80000000074506,249.5376689294353 112.82499999925494,250.40472554368898 122.94999999925494,245.20238403324038 118.89999999850988,224.39297406189144 91.22499999776483,221.79179287469015 79.75,232.19651103531942 84.47500000149012,249.5376689294353 113.5,250.40472554368898 125.64999999850988,233.06357008963823 118.22499999776483,224.39297406189144 89.19999999925494,222.65885339444503 79.07499999925494,234.7976878322661 83.125,249.5376689294353 117.55000000074506,246.06944125611335 122.27499999850988,226.12709424318746 111.47500000149012,221.79179287469015 79.75,227.86121393926442 79.07499999925494,240.00003812927753 86.5,253.00589465210214 112.82499999925494,250.40472554368898 123.625,243.46826921822503 116.875,224.39297406189144 79.07499999925494,232.19651103531942 87.84999999776483,253.00589465210214 114.17500000447035,249.5376689294353 124.29999999701977,241.73415391659364 114.17500000447035,220.92473223386332 83.125,225.26003421237692 79.75,237.39886352838948 93.25,253.87295077601448 120.92500000074506,246.93649835698307 115.52500000223517,220.0576714728959 83.125,225.26003421237692 80.42500000074506,240.00003812927753 85.14999999850988,251.27178203407675 112.82499999925494,252.1388384043239 124.97500000149012,232.19651103531942 116.875,222.65885339444503 81.10000000149012,227.86121393926442 88.52499999850988,254.74000678071752 114.17500000447035,253.87295077601448 123.625,246.93649835698307 119.57500000298023,226.9941541524604 79.75,231.32945186039433 89.19999999925494,256.4741184222512 112.14999999850988,253.87295077601448 122.94999999925494,246.93649835698307 120.92500000074506,227.86121393926442 89.875,222.65885339444503 79.07499999925494,235.6647465187125 83.80000000074506,251.27178203407675 117.55000000074506,249.5376689294353 125.64999999850988,231.32945186039433 114.84999999776483,221.79179287469015 83.80000000074506,224.39297406189144 81.10000000149012,234.7976878322661 90.55000000074506,256.4741184222512 114.17500000447035,253.87295077601448 122.27499999850988,229.59533314267173 81.10000000149012,230.46239256160334 83.80000000074506,248.67061219504103 99.32499999925494,254.74000678071752 122.94999999925494,246.06944125611335 119.57500000298023,225.26003421237692 77.05000000074506,231.32945186039433 88.52499999850988,255.6070626634173 103.375,254.74000678071752 118.89999999850988,250.40472554368898 123.625,228.7282736026682 82.44999999925494,229.59533314267173 83.80000000074506,251.27178203407675 108.10000000149012,255.6070626634173 124.97500000149012,244.33532668510452 116.19999999925494,226.12709424318746 85.14999999850988,225.26003421237692 77.05000000074506,235.6647465187125 93.25,251.27178203407675 114.84999999776483,249.5376689294353 123.625,228.7282736026682 114.84999999776483,220.92473223386332 79.07499999925494,231.32945186039433 84.47500000149012,247.80355533631518 104.05000000074506,254.74000678071752 124.97500000149012,240.86709608323872 121.59999999776483,227.86121393926442 81.77499999850988,228.7282736026682 84.47500000149012,252.1388384043239 110.125,255.6070626634173 124.29999999701977,236.5318050836213 116.875,226.9941541524604 95.27499999850988,224.39297406189144 78.39999999850988,237.39886352838948 91.89999999850988,254.74000678071752 113.5,253.87295077601448 125.64999999850988,235.6647465187125 117.55000000074506,224.39297406189144 83.125,227.86121393926442 85.14999999850988,249.5376689294353 102.69999999925494,253.87295077601448 122.27499999850988,246.06944125611335 118.89999999850988,226.9941541524604 80.42500000074506,229.59533314267173 87.17500000074506,253.87295077601448 116.875,253.87295077601448 125.64999999850988,237.39886352838948 106.75,222.65885339444503 88.52499999850988,223.52591378847137 80.42500000074506,242.60121162980795 86.5,253.87295077601448 116.19999999925494,253.00589465210214 118.22499999776483,226.12709424318746 90.55000000074506,222.65885339444503 78.39999999850988,241.73415391659364 94.59999999776483,253.87295077601448 117.55000000074506,251.27178203407675 116.19999999925494,224.39297406189144 88.52499999850988,223.52591378847137 79.75,233.93062902381644 85.82499999925494,253.00589465210214 112.14999999850988,253.87295077601448 123.625,234.7976878322661 116.19999999925494,226.12709424318746 88.52499999850988,222.65885339444503 77.05000000074506,239.13298005005345 89.875,253.00589465210214 118.89999999850988,249.5376689294353 121.59999999776483,226.9941541524604 110.125,222.65885339444503 91.89999999850988,221.79179287469015 79.07499999925494,242.60121162980795 113.5,251.27178203407675 124.97500000149012,233.06357008963823 111.47500000149012,220.92473223386332 82.44999999925494,226.9941541524604 81.77499999850988,246.93649835698307 118.89999999850988,250.40472554368898 124.97500000149012,240.00003812927753 111.47500000149012,222.65885339444503 77.72500000149012,236.5318050836213 87.17500000074506,251.27178203407675 116.875,250.40472554368898 124.29999999701977,230.46239256160334 114.17500000447035,225.26003421237692 79.07499999925494,234.7976878322661 87.84999999776483,252.1388384043239 115.52500000223517,249.5376689294353 124.29999999701977,240.86709608323872 118.22499999776483,223.52591378847137 81.10000000149012,226.9941541524604 76.375,240.00003812927753 87.84999999776483,253.00589465210214 114.84999999776483,248.67061219504103 122.94999999925494,228.7282736026682 112.82499999925494,222.65885339444503 83.80000000074506,223.52591378847137 77.72500000149012,234.7976878322661 89.19999999925494,252.1388384043239 117.55000000074506,248.67061219504103 123.625,229.59533314267173 114.17500000447035,225.26003421237692 88.52499999850988,223.52591378847137 77.72500000149012,237.39886352838948 89.19999999925494,253.00589465210214 116.19999999925494,250.40472554368898 124.97500000149012,241.73415391659364 114.17500000447035,221.79179287469015 84.47500000149012,223.52591378847137 79.75,233.93062902381644 91.89999999850988,252.1388384043239 121.59999999776483,248.67061219504103 127.0,238.26592184929177 114.84999999776483,224.39297406189144 83.80000000074506,226.12709424318746 79.07499999925494,238.26592184929177 93.25,253.87295077601448 119.57500000298023,248.67061219504103 126.32499999925494,237.39886352838948 111.47500000149012,221.79179287469015 83.125,226.12709424318746 78.39999999850988,241.73415391659364 90.55000000074506,253.87295077601448 118.89999999850988,248.67061219504103 117.55000000074506,224.39297406189144 91.22499999776483,222.65885339444503 78.39999999850988,240.00003812927753 87.17500000074506,252.1388384043239 121.59999999776483,246.06944125611335 120.92500000074506,226.9941541524604 108.10000000149012,221.79179287469015 89.19999999925494,222.65885339444503 79.75,242.60121162980795 100.0,253.00589465210214 120.92500000074506,247.80355533631518 115.52500000223517,222.65885339444503 80.42500000074506,230.46239256160334 94.59999999776483,253.87295077601448 118.22499999776483,250.40472554368898 127.0,241.73415391659364 117.55000000074506,223.52591378847137 87.84999999776483,223.52591378847137 80.42500000074506,240.86709608323872 90.55000000074506,252.1388384043239 119.57500000298023,250.40472554368898 126.32499999925494,240.00003812927753 111.47500000149012,223.52591378847137 83.125,226.9941541524604 79.07499999925494,238.26592184929177 93.25,253.87295077601448 121.59999999776483,248.67061219504103 126.32499999925494,238.26592184929177 111.47500000149012,222.65885339444503 82.44999999925494,226.9941541524604 83.80000000074506,248.67061219504103 124.29999999701977,246.06944125611335 120.25,226.12709424318746 107.42500000074506,221.79179287469015 84.47500000149012,224.39297406189144 78.39999999850988,241.73415391659364 88.52499999850988,252.1388384043239 122.27499999850988,246.93649835698307 125.64999999850988,235.6647465187125 108.10000000149012,222.65885339444503 81.10000000149012,228.7282736026682 82.44999999925494,248.67061219504103 120.92500000074506,248.67061219504103 119.57500000298023,226.12709424318746 105.39999999850988,223.52591378847137 86.5,224.39297406189144 77.05000000074506,240.86709608323872 114.17500000447035,252.1388384043239 123.625,233.93062902381644 116.19999999925494,226.12709424318746 85.14999999850988,225.26003421237692 77.72500000149012,243.46826921822503 115.52500000223517,252.1388384043239 125.64999999850988,234.7976878322661 105.39999999850988,222.65885339444503 89.19999999925494,223.52591378847137 79.07499999925494,243.46826921822503 97.97500000149012,254.74000678071752 121.59999999776483,249.5376689294353 119.57500000298023,226.12709424318746 107.42500000074506,222.65885339444503 81.77499999850988,230.46239256160334 79.07499999925494,244.33532668510452 94.59999999776483,253.00589465210214 124.29999999701977,243.46826921822503 114.17500000447035,223.52591378847137 99.32499999925494,222.65885339444503 83.80000000074506,226.12709424318746 79.75,246.93649835698307 119.57500000298023,249.5376689294353 120.25,226.9941541524604 107.42500000074506,221.79179287469015 80.42500000074506,227.86121393926442 83.125,250.40472554368898 122.94999999925494,246.06944125611335 119.57500000298023,226.12709424318746 107.42500000074506,222.65885339444503 87.17500000074506,225.26003421237692 78.39999999850988,246.06944125611335 119.57500000298023,250.40472554368898 122.94999999925494,230.46239256160334 97.97500000149012,222.65885339444503 83.80000000074506,226.12709424318746 81.77499999850988,246.93649835698307 123.625,245.20238403324038" stroke="#4dd2ff" stroke-linecap="round" stroke-linejoin="round" stroke-width="0.5"><title>2020-11-29 10.4km</title></polyline></svg>