<?xml version="1.0" encoding="utf-8" ?>
<svg baseProfile="full" height="300mm" version="1.1" viewBox="0,0,200,300" width="200mm" xmlns="http://www.w3.org/2000/svg" xmlns:ev="http://www.w3.org/2001/xml-events" xmlns:xlink="http://www.w3.org/1999/xlink"><defs /><rect fill="#222222" height="300" width="200" x="0" y="0" /><text fill="#FFFFFF" style="font-size:12px; font-family:Arial; font-weight:bold;" x="10" y="20">Over 10km Runs</text><text fill="#FFFFFF" style="font-size:4px; font-family:Arial" x="10" y="280">ATHLETE</text><text fill="#FFFFFF" style="font-size:9px; font-family:Arial" x="10" y="290">Abuqi</text><text fill="#FFFFFF" style="font-size:4px; font-family:Arial" x="120" y="280">STATISTICS</text><text fill="#FFFFFF" style="font-size:3px; font-family:Arial" x="120" y="285">Number: 2</text><text fill="#FFFFFF" style="font-size:3px; font-family:Arial" x="120" y="290">Weekly: 1.0</text><text fill="#FFFFFF" style="font-size:3px; font-family:Arial" x="141" y="285">Total: 21.8 km</text><text fill="#FFFFFF" style="font-size:3px; font-family:Arial" x="141" y="290">Avg: 10.9 km</text><text fill="#FFFFFF" style="font-size:3px; font-family:Arial" x="167" y="285">Min: 10.4 km</text><text fill="#FFFFFF" style="font-size:3px; font-family:Arial" x="167" y="290">Max: 11.4 km</text><polyline fill="none" points="143.19999999552965,100.40476806648076 106.75,58.78594812378287 51.399999998509884,83.06361016724259 51.399999998509884,112.5435640681535 125.64999999850988,102.1388825122267 110.79999999701977,53.58358574938029 77.04999999701977,58.78594812378287 46.0,103.87299671396613 77.04999999701977,133.3529008300975 133.75,109.07533785887063 133.75,63.98830830492079 106.75,53.58358574938029 56.79999999701977,103.87299671396613 127.0,102.1388825122267 141.85000000149012,81.32949303742498 114.85000000149012,46.647099170833826 58.149999998509884,88.2659601001069 75.69999999552965,121.21412532683462 127.0,110.80945108737797 143.19999999552965,86.53184369858354 116.20000000298023,51.84946446772665 66.25,70.92478512320668 58.149999998509884,110.80945108737797 131.05000000447035,98.67065337020904 141.85000000149012,76.12714017927647 109.44999999552965,46.647099170833826 56.79999999701977,74.39302207063884 58.149999998509884,100.40476806648076 135.10000000149012,110.80945108737797 148.59999999403954,67.45654720533639 129.69999999552965,55.317706788890064 67.60000000149012,79.59537566453218 86.5,126.41645915154368 141.85000000149012,103.87299671396613 147.25,70.92478512320668 77.04999999701977,55.317706788890064 51.399999998509884,79.59537566453218 121.59999999403954,98.67065337020904 144.54999999701977,90.00007625855505 132.39999999850988,50.11534294579178 70.29999999701977,51.84946446772665 55.45000000298023,88.2659601001069 131.05000000447035,100.40476806648076 147.25,79.59537566453218 127.0,50.11534294579178 55.45000000298023,74.39302207063884 74.35000000149012,114.27767680864781 133.75,102.1388825122267 145.89999999850988,60.520068424753845 127.0,48.38122117519379 64.89999999850988,58.78594812378287 55.45000000298023,83.06361016724259 83.79999999701977,107.34122439008206 141.85000000149012,91.73419216647744 141.85000000149012,57.05182757694274 116.20000000298023,48.38122117519379 67.60000000149012,58.78594812378287 63.54999999701977,103.87299671396613 137.79999999701977,103.87299671396613 151.29999999701977,77.86125804763287 121.59999999403954,48.38122117519379 60.850000001490116,62.254188486374915 66.25,107.34122439008206 143.19999999552965,90.00007625855505 148.59999999403954,67.45654720533639 112.14999999850988,50.11534294579178 74.35000000149012,53.58358574938029 56.79999999701977,91.73419216647744 85.15000000596046,112.5435640681535 143.19999999552965,90.00007625855505 116.20000000298023,48.38122117519379 64.89999999850988,60.520068424753845 56.79999999701977,88.2659601001069 85.15000000596046,112.5435640681535 128.3500000089407,103.87299671396613 148.59999999403954,88.2659601001069 135.10000000149012,53.58358574938029 58.149999998509884,74.39302207063884 68.95000000298023,110.80945108737797 132.39999999850988,98.67065337020904 148.59999999403954,83.06361016724259 128.3500000089407,48.38122117519379 73.0,53.58358574938029 58.149999998509884,77.86125804763287 83.79999999701977,114.27767680864781 136.44999999552965,102.1388825122267 149.95000000298023,84.79772705677897 125.64999999850988,53.58358574938029 64.89999999850988,58.78594812378287 56.79999999701977,77.86125804763287 67.60000000149012,109.07533785887063 125.64999999850988,110.80945108737797 145.89999999850988,100.40476806648076 137.79999999701977,58.78594812378287 82.44999999552965,53.58358574938029 59.5,74.39302207063884 68.95000000298023,109.07533785887063 127.0,110.80945108737797 151.29999999701977,76.12714017927647 136.44999999552965,58.78594812378287 78.39999999850988,55.317706788890064 58.149999998509884,79.59537566453218 66.25,109.07533785887063 135.10000000149012,102.1388825122267 144.54999999701977,62.254188486374915 122.95000000298023,53.58358574938029 59.5,65.72242787852883 58.149999998509884,90.00007625855505 73.0,116.01178930420429 125.64999999850988,110.80945108737797 147.25,96.93653843645006 133.75,58.78594812378287 58.149999998509884,74.39302207063884 75.69999999552965,116.01178930420429 128.3500000089407,109.07533785887063 148.59999999403954,93.46830783318728 128.3500000089407,51.84946446772665 66.25,60.520068424753845 59.5,84.79772705677897 86.5,117.74590155202895 141.85000000149012,103.87299671396613 131.05000000447035,50.11534294579178 66.25,60.520068424753845 60.850000001490116,90.00007625855505 70.29999999701977,112.5435640681535 125.64999999850988,114.27767680864781 149.95000000298023,74.39302207063884 133.75,55.317706788890064 62.20000000298023,65.72242787852883 77.04999999701977,119.48001356143504 128.3500000089407,117.74590155202895 147.25,103.87299671396613 139.15000000596046,63.98830830492079 59.5,72.65890372078866 78.39999999850988,122.94823684450239 124.29999999701977,117.74590155202895 145.89999999850988,103.87299671396613 141.85000000149012,65.72242787852883 79.75,55.317706788890064 58.149999998509884,81.32949303742498 67.60000000149012,112.5435640681535 135.10000000149012,109.07533785887063 151.29999999701977,72.65890372078866 129.69999999552965,53.58358574938029 67.60000000149012,58.78594812378287 62.20000000298023,79.59537566453218 81.10000000149012,122.94823684450239 128.3500000089407,117.74590155202895 144.54999999701977,69.19066628534347 62.20000000298023,70.92478512320668 67.60000000149012,107.34122439008206 98.64999999850988,119.48001356143504 145.89999999850988,102.1388825122267 139.15000000596046,60.520068424753845 54.100000001490116,72.65890372078866 77.04999999701977,121.21412532683462 106.75,119.48001356143504 137.79999999701977,110.80945108737797 147.25,67.45654720533639 64.89999999850988,69.19066628534347 67.60000000149012,112.5435640681535 116.20000000298023,121.21412532683462 149.95000000298023,98.67065337020904 132.39999999850988,62.254188486374915 70.29999999701977,60.520068424753845 54.100000001490116,81.32949303742498 86.5,112.5435640681535 129.69999999552965,109.07533785887063 147.25,67.45654720533639 129.69999999552965,51.84946446772665 58.149999998509884,72.65890372078866 68.95000000298023,105.60711067263037 108.10000000149012,119.48001356143504 149.95000000298023,91.73419216647744 143.19999999552965,65.72242787852883 63.54999999701977,67.45654720533639 68.95000000298023,114.27767680864781 120.25,121.21412532683462 148.59999999403954,83.06361016724259 133.75,63.98830830492079 90.54999999701977,58.78594812378287 56.79999999701977,84.79772705677897 83.79999999701977,119.48001356143504 127.0,117.74590155202895 151.29999999701977,81.32949303742498 135.10000000149012,58.78594812378287 66.25,65.72242787852883 70.29999999701977,109.07533785887063 105.39999999850988,117.74590155202895 144.54999999701977,102.1388825122267 137.79999999701977,63.98830830492079 60.850000001490116,69.19066628534347 74.35000000149012,117.74590155202895 133.75,117.74590155202895 151.29999999701977,84.79772705677897 113.5,55.317706788890064 77.04999999701977,57.05182757694274 60.850000001490116,95.2024232596159 73.0,117.74590155202895 132.39999999850988,116.01178930420429 136.44999999552965,62.254188486374915 81.10000000149012,55.317706788890064 56.79999999701977,93.46830783318728 89.19999999552965,117.74590155202895 135.10000000149012,112.5435640681535 132.39999999850988,58.78594812378287 77.04999999701977,57.05182757694274 59.5,77.86125804763287 71.64999999850988,116.01178930420429 124.29999999701977,117.74590155202895 147.25,79.59537566453218 132.39999999850988,62.254188486374915 77.04999999701977,55.317706788890064 54.100000001490116,88.2659601001069 79.75,116.01178930420429 137.79999999701977,109.07533785887063 143.19999999552965,63.98830830492079 120.25,55.317706788890064 83.79999999701977,53.58358574938029 58.149999998509884,95.2024232596159 127.0,112.5435640681535 149.95000000298023,76.12714017927647 122.95000000298023,51.84946446772665 64.89999999850988,63.98830830492079 63.54999999701977,103.87299671396613 137.79999999701977,110.80945108737797 149.95000000298023,90.00007625855505 122.95000000298023,55.317706788890064 55.45000000298023,83.06361016724259 74.35000000149012,112.5435640681535 133.75,110.80945108737797 148.59999999403954,70.92478512320668 128.3500000089407,60.520068424753845 58.149999998509884,79.59537566453218 75.69999999552965,114.27767680864781 131.05000000447035,109.07533785887063 148.59999999403954,91.73419216647744 136.44999999552965,57.05182757694274 62.20000000298023,63.98830830492079 52.75,90.00007625855505 75.69999999552965,116.01178930420429 129.69999999552965,107.34122439008206 145.89999999850988,67.45654720533639 125.64999999850988,55.317706788890064 67.60000000149012,57.05182757694274 55.45000000298023,79.59537566453218 78.39999999850988,114.27767680864781 135.10000000149012,107.34122439008206 147.25,69.19066628534347 128.3500000089407,60.520068424753845 77.04999999701977,57.05182757694274 55.45000000298023,84.79772705677897 78.39999999850988,116.01178930420429 132.39999999850988,110.80945108737797 149.95000000298023,93.46830783318728 128.3500000089407,53.58358574938029 68.95000000298023,57.05182757694274 59.5,77.86125804763287 83.79999999701977,114.27767680864781 143.19999999552965,107.34122439008206 154.0,86.53184369858354 129.69999999552965,58.78594812378287 67.60000000149012,62.254188486374915 58.149999998509884,86.53184369858354 86.5,117.74590155202895 139.15000000596046,107.34122439008206 152.64999999850988,84.79772705677897 122.95000000298023,53.58358574938029 66.25,62.254188486374915 56.79999999701977,93.46830783318728 81.10000000149012,117.74590155202895 137.79999999701977,107.34122439008206 135.10000000149012,58.78594812378287 82.44999999552965,55.317706788890064 56.79999999701977,90.00007625855505 74.35000000149012,114.27767680864781 143.19999999552965,102.1388825122267 141.85000000149012,63.98830830492079 116.20000000298023,53.58358574938029 78.39999999850988,55.317706788890064 59.5,95.2024232596159 100.0,116.01178930420429 141.85000000149012,105.60711067263037 131.05000000447035,55.317706788890064 60.850000001490116,70.92478512320668 89.19999999552965,117.74590155202895 136.44999999552965,110.80945108737797 154.0,93.46830783318728 135.10000000149012,57.05182757694274 75.69999999552965,57.05182757694274 60.850000001490116,91.73419216647744 81.10000000149012,114.27767680864781 139.15000000596046,110.80945108737797 152.64999999850988,90.00007625855505 122.95000000298023,57.05182757694274 66.25,63.98830830492079 58.149999998509884,86.53184369858354 86.5,117.74590155202895 143.19999999552965,107.34122439008206 152.64999999850988,86.53184369858354 122.95000000298023,55.317706788890064 64.89999999850988,63.98830830492079 67.60000000149012,107.34122439008206 148.59999999403954,102.1388825122267 140.5,62.254188486374915 114.85000000149012,53.58358574938029 68.95000000298023,58.78594812378287 56.79999999701977,93.46830783318728 77.04999999701977,114.27767680864781 144.54999999701977,103.87299671396613 151.29999999701977,81.32949303742498 116.20000000298023,55.317706788890064 62.20000000298023,67.45654720533639 64.89999999850988,107.34122439008206 141.85000000149012,107.34122439008206 139.15000000596046,62.254188486374915 110.79999999701977,57.05182757694274 73.0,58.78594812378287 54.100000001490116,91.73419216647744 128.3500000089407,114.27767680864781 147.25,77.86125804763287 132.39999999850988,62.254188486374915 70.29999999701977,60.520068424753845 55.45000000298023,96.93653843645006 131.05000000447035,114.27767680864781 151.29999999701977,79.59537566453218 110.79999999701977,55.317706788890064 78.39999999850988,57.05182757694274 58.149999998509884,96.93653843645006 95.95000000298023,119.48001356143504 143.19999999552965,109.07533785887063 139.15000000596046,62.254188486374915 114.85000000149012,55.317706788890064 63.54999999701977,70.92478512320668 58.149999998509884,98.67065337020904 89.19999999552965,116.01178930420429 148.59999999403954,96.93653843645006 128.3500000089407,57.05182757694274 98.64999999850988,55.317706788890064 67.60000000149012,62.254188486374915 59.5,103.87299671396613 139.15000000596046,109.07533785887063 140.5,63.98830830492079 114.85000000149012,53.58358574938029 60.850000001490116,65.72242787852883 66.25,110.80945108737797 145.89999999850988,102.1388825122267 139.15000000596046,62.254188486374915 114.85000000149012,55.317706788890064 74.35000000149012,60.520068424753845 56.79999999701977,102.1388825122267 139.15000000596046,110.80945108737797 145.89999999850988,70.92478512320668 95.95000000298023,55.317706788890064 67.60000000149012,62.254188486374915 63.54999999701977,103.87299671396613 147.25,100.40476806648076" stroke="#4dd2ff" stroke-linecap="round" stroke-linejoin="round" stroke-width="0.5"><title>2020-11-29 10.4km</title></polyline><polyline fill="none" points="63.56097561120987,188.57036434998736 65.31707317009568,220.15098740160465 109.21951219439507,200.97705253213644 100.43902438879013,179.54730633832514 65.31707317009568,178.41942337155342 60.04878048598766,216.76735516777262 109.21951219439507,200.97705253213644 100.43902438879013,181.80307179689407 60.04878048598766,181.80307179689407 52.14634146168828,199.8491725800559 64.43902438879013,215.63947743782774 94.29268293082714,211.12796494085342 103.07317073270679,188.57036434998736 54.780487805604935,182.93095428543165 61.804878048598766,219.02311014803126 98.68292682990432,212.255843302235 107.46341463178396,191.95400848519057 58.29268292710185,180.6751891472377 50.39024390280247,195.33765119174495 65.31707317009568,217.89523273846135 98.68292682990432,211.12796494085342 107.46341463178396,189.6982458899729 89.02439024299383,176.1636569662951 57.4146341457963,180.6751891472377 69.70731706917286,219.02311014803126 109.21951219439507,195.33765119174495 96.04878048971295,177.29154024878517 60.926829267293215,178.41942337155342 65.31707317009568,217.89523273846135 86.39024390652776,217.89523273846135 108.3414634168148,195.33765119174495 64.43902438879013,176.1636569662951 49.512195121496916,182.93095428543165 57.4146341457963,206.6164499009028 106.5853658542037,199.8491725800559 103.07317073270679,184.0588366142474 67.07317073270679,175.03577352687716 50.39024390280247,211.12796494085342 101.31707317382097,210.00008641788736 110.09756097570062,195.33765119174495 68.8292682915926,176.1636569662951 47.75609755888581,197.59341220650822 67.95121951028705,215.63947743782774 99.56097560748458,207.74432889837772 103.07317073270679,182.93095428543165 55.658536586910486,180.6751891472377 46.87804878130555,196.46553177805617 62.68292682990432,214.51159955281764 101.31707317382097,206.6164499009028 107.46341463178396,190.82612726697698 67.07317073270679,176.1636569662951 49.512195121496916,193.08188954507932 55.658536586910486,219.02311014803126 106.5853658542037,206.6164499009028 100.43902438879013,179.54730633832514 73.21951219439507,176.1636569662951 51.26829268410802,190.82612726697698 53.90243902429938,210.00008641788736 85.51219512149692,213.3837215071544 106.5853658542037,198.7212924719788 102.19512195140123,180.6751891472377 65.31707317009568,176.1636569662951 46.87804878130555,197.59341220650822 53.90243902429938,213.3837215071544 85.51219512149692,215.63947743782774 110.97560975700617,191.95400848519057 67.95121951028705,178.41942337155342 50.39024390280247,195.33765119174495 61.804878048598766,216.76735516777262 104.8292682915926,203.23281195387244 105.70731707289815,186.31460079969838 67.95121951028705,177.29154024878517 48.634146340191364,202.1049323217012 60.926829267293215,215.63947743782774 96.04878048971295,211.12796494085342 109.21951219439507,191.95400848519057 63.56097561120987,179.54730633832514 49.512195121496916,188.57036434998736 59.1707317084074,215.63947743782774 109.21951219439507,196.46553177805617 97.80487804859877,179.54730633832514 63.56097561120987,179.54730633832514 50.39024390280247,190.82612726697698 58.29268292710185,214.51159955281764 90.78048780560493,213.3837215071544 109.21951219439507,189.6982458899729 60.04878048598766,179.54730633832514 49.512195121496916,190.82612726697698 63.56097561120987,214.51159955281764 104.8292682915926,208.87220773892477 111.85365853458643,193.08188954507932 67.07317073270679,176.1636569662951 52.14634146168828,185.186718785204 54.780487805604935,213.3837215071544 107.46341463178396,199.8491725800559 93.4146341457963,177.29154024878517 57.4146341457963,179.54730633832514 60.926829267293215,215.63947743782774 98.68292682990432,207.74432889837772 109.21951219439507,188.57036434998736 54.780487805604935,182.93095428543165 64.43902438879013,216.76735516777262 108.3414634168148,195.33765119174495 93.4146341457963,177.29154024878517 54.780487805604935,182.93095428543165 51.26829268410802,203.23281195387244 72.34146341308951,217.89523273846135 110.97560975700617,193.08188954507932 91.6585365831852,176.1636569662951 53.02439024299383,181.80307179689407 56.53658536449075,215.63947743782774 86.39024390652776,217.89523273846135 109.21951219439507,194.2097704494372 62.68292682990432,177.29154024878517 49.512195121496916,199.8491725800559 59.1707317084074,215.63947743782774 104.8292682915926,207.74432889837772 110.09756097570062,194.2097704494372 65.31707317009568,179.54730633832514 53.02439024299383,187.44248265307397 60.926829267293215,215.63947743782774 95.17073170468211,216.76735516777262 110.09756097570062,200.97705253213644 106.5853658542037,185.186718785204 74.09756097570062,176.1636569662951 56.53658536449075,182.93095428543165 55.658536586910486,211.12796494085342 106.5853658542037,200.97705253213644 92.53658536449075,177.29154024878517 55.658536586910486,181.80307179689407 55.658536586910486,212.255843302235 107.46341463178396,204.36069143097848 100.43902438879013,179.54730633832514 65.31707317009568,176.1636569662951 52.14634146168828,186.31460079969838 59.1707317084074,214.51159955281764 104.8292682915926,212.255843302235 96.04878048971295,177.29154024878517 55.658536586910486,180.6751891472377 49.512195121496916,200.97705253213644 90.78048780560493,214.51159955281764 107.46341463178396,200.97705253213644 94.29268293082714,176.1636569662951 49.512195121496916,193.08188954507932 63.56097561120987,217.89523273846135 96.04878048971295,214.51159955281764 109.21951219439507,191.95400848519057 83.75609755888581,177.29154024878517 57.4146341457963,180.6751891472377 49.512195121496916,206.6164499009028 102.19512195140123,206.6164499009028 106.5853658542037,185.186718785204 89.90243902429938,175.03577352687716 53.02439024299383,181.80307179689407 50.39024390280247,204.36069143097848 70.5853658542037,214.51159955281764 105.70731707289815,200.97705253213644 107.46341463178396,186.31460079969838 84.63414634391665,176.1636569662951 55.658536586910486,182.93095428543165 54.780487805604935,210.00008641788736 103.95121951028705,206.6164499009028 103.95121951028705,184.0588366142474 64.43902438879013,176.1636569662951 49.512195121496916,203.23281195387244 95.17073170468211,212.255843302235 106.5853658542037,202.1049323217012 99.56097560748458,177.29154024878517 64.43902438879013,175.03577352687716 46.87804878130555,198.7212924719788 62.68292682990432,216.76735516777262 104.8292682915926,208.87220773892477 104.8292682915926,181.80307179689407 89.02439024299383,175.03577352687716 53.90243902429938,180.6751891472377 52.14634146168828,205.48857074556872 96.92682926729321,212.255843302235 108.3414634168148,191.95400848519057 95.17073170468211,177.29154024878517 59.1707317084074,176.1636569662951 50.39024390280247,200.97705253213644 95.17073170468211,213.3837215071544 109.21951219439507,191.95400848519057 87.26829268038273,176.1636569662951 61.804878048598766,177.29154024878517 50.39024390280247,200.97705253213644 60.04878048598766,213.3837215071544 102.19512195140123,211.12796494085342 111.85365853458643,197.59341220650822 96.92682926729321,175.03577352687716 48.634146340191364,191.95400848519057 61.804878048598766,215.63947743782774 97.80487804859877,212.255843302235 108.3414634168148,187.44248265307397 95.17073170468211,175.03577352687716 56.53658536449075,180.6751891472377 48.634146340191364,194.2097704494372 54.780487805604935,210.00008641788736 93.4146341457963,213.3837215071544 107.46341463178396,198.7212924719788 95.17073170468211,178.41942337155342 58.29268292710185,179.54730633832514 47.75609755888581,199.8491725800559 57.4146341457963,214.51159955281764 95.17073170468211,213.3837215071544 106.5853658542037,203.23281195387244 92.53658536449075,176.1636569662951 60.04878048598766,178.41942337155342 46.0,199.8491725800559 89.90243902429938,214.51159955281764 105.70731707289815,205.48857074556872 101.31707317382097,179.54730633832514 67.95121951028705,175.03577352687716 46.0,189.6982458899729 56.53658536449075,210.00008641788736 91.6585365831852,211.12796494085342 108.3414634168148,187.44248265307397 97.80487804859877,176.1636569662951 47.75609755888581,184.0588366142474 54.780487805604935,210.00008641788736 90.78048780560493,212.255843302235 108.3414634168148,198.7212924719788 100.43902438879013,177.29154024878517 51.26829268410802,188.57036434998736 60.04878048598766,211.12796494085342 89.02439024299383,212.255843302235 105.70731707289815,206.6164499009028 101.31707317382097,179.54730633832514 60.926829267293215,176.1636569662951 46.0,191.95400848519057 60.04878048598766,213.3837215071544 94.29268293082714,213.3837215071544 108.3414634168148,195.33765119174495 89.02439024299383,178.41942337155342 65.31707317009568,177.29154024878517 47.75609755888581,195.33765119174495 55.658536586910486,210.00008641788736 89.90243902429938,210.00008641788736 106.5853658542037,203.23281195387244 100.43902438879013,178.41942337155342 58.29268292710185,178.41942337155342 48.634146340191364,190.82612726697698 60.04878048598766,212.255843302235 96.92682926729321,210.00008641788736 108.3414634168148,197.59341220650822 97.80487804859877,176.1636569662951 60.04878048598766,175.03577352687716 48.634146340191364,190.82612726697698 62.68292682990432,212.255843302235 96.92682926729321,210.00008641788736 110.09756097570062,195.33765119174495 95.17073170468211,177.29154024878517 48.634146340191364,189.6982458899729 62.68292682990432,211.12796494085342 99.56097560748458,207.74432889837772 109.21951219439507,195.33765119174495 94.29268293082714,173.90788992401212 54.780487805604935,178.41942337155342 49.512195121496916,205.48857074556872 104.8292682915926,206.6164499009028 103.95121951028705,181.80307179689407 88.14634146541357,175.03577352687716 55.658536586910486,179.54730633832514 47.75609755888581,196.46553177805617 67.07317073270679,215.63947743782774 106.5853658542037,207.74432889837772 101.31707317382097,181.80307179689407 67.07317073270679,177.29154024878517 52.14634146168828,181.80307179689407 50.39024390280247,207.74432889837772 103.95121951028705,206.6164499009028 107.46341463178396,190.82612726697698 80.2439024373889,177.29154024878517 57.4146341457963,179.54730633832514 46.87804878130555,202.1049323217012 96.92682926729321,211.12796494085342 107.46341463178396,188.57036434998736 83.75609755888581,175.03577352687716 58.29268292710185,178.41942337155342 47.75609755888581,204.36069143097848 73.21951219439507,215.63947743782774 105.70731707289815,205.48857074556872 99.56097560748458,179.54730633832514 82.87804878130555,176.1636569662951 51.26829268410802,185.186718785204 50.39024390280247,206.6164499009028 100.43902438879013,212.255843302235 106.5853658542037,185.186718785204 94.29268293082714,175.03577352687716 52.14634146168828,182.93095428543165 49.512195121496916,202.1049323217012 101.31707317382097,206.6164499009028 104.8292682915926,181.80307179689407 91.6585365831852,172.78000616375357 57.4146341457963,177.29154024878517 48.634146340191364,200.97705253213644 95.17073170468211,213.3837215071544 108.3414634168148,189.6982458899729 98.68292682990432,177.29154024878517 54.780487805604935,179.54730633832514 46.0,198.7212924719788 67.07317073270679,214.51159955281764 100.43902438879013,211.12796494085342 110.09756097570062,190.82612726697698 88.14634146541357,173.90788992401212 53.02439024299383,181.80307179689407 49.512195121496916,200.97705253213644 99.56097560748458,212.255843302235 109.21951219439507,189.6982458899729 97.80487804859877,177.29154024878517 63.56097561120987,177.29154024878517 47.75609755888581,198.7212924719788 96.04878048971295,213.3837215071544 108.3414634168148,202.1049323217012 94.29268293082714,178.41942337155342 47.75609755888581,196.46553177805617 66.19512195512652,215.63947743782774 99.56097560748458,212.255843302235 109.21951219439507,198.7212924719788 96.04878048971295,177.29154024878517 60.04878048598766,178.41942337155342 48.634146340191364,199.8491725800559 62.68292682990432,214.51159955281764 96.04878048971295,212.255843302235 108.3414634168148,190.82612726697698 95.17073170468211,178.41942337155342 55.658536586910486,179.54730633832514 46.0,198.7212924719788 96.04878048971295,211.12796494085342 107.46341463178396,203.23281195387244 96.04878048971295,177.29154024878517 47.75609755888581,187.44248265307397 55.658536586910486,211.12796494085342 95.17073170468211,212.255843302235 106.5853658542037,202.1049323217012 95.17073170468211,177.29154024878517 57.4146341457963,177.29154024878517 49.512195121496916,203.23281195387244 103.07317073270679,206.6164499009028 110.97560975700617,194.2097704494372 89.90243902429938,175.03577352687716 47.75609755888581,193.08188954507932 53.02439024299383,207.74432889837772 85.51219512149692,211.12796494085342 104.8292682915926,202.1049323217012 98.68292682990432,178.41942337155342 49.512195121496916,184.0588366142474 57.4146341457963,210.00008641788736 91.6585365831852,212.255843302235 110.09756097570062,191.95400848519057 89.90243902429938,173.90788992401212 53.02439024299383,180.6751891472377 48.634146340191364,199.8491725800559 70.5853658542037,216.76735516777262 105.70731707289815,206.6164499009028 89.90243902429938,176.1636569662951 65.31707317009568,176.1636569662951 48.634146340191364,198.7212924719788 96.04878048971295,212.255843302235 107.46341463178396,191.95400848519057 97.80487804859877,178.41942337155342 49.512195121496916,188.57036434998736 63.56097561120987,213.3837215071544 99.56097560748458,212.255843302235 105.70731707289815,184.0588366142474 91.6585365831852,175.03577352687716 55.658536586910486,178.41942337155342 50.39024390280247,205.48857074556872 97.80487804859877,212.255843302235 107.46341463178396,197.59341220650822 95.17073170468211,177.29154024878517 59.1707317084074,177.29154024878517 46.87804878130555,197.59341220650822 63.56097561120987,214.51159955281764 102.19512195140123,208.87220773892477 93.4146341457963,176.1636569662951 76.73170731216669,176.1636569662951 86.39024390652776,195.33765119174495 120.63414634019136,216.76735516777262 128.53658536821604,243.83637303253636 154.0,247.21999383624643" stroke="#4dd2ff" stroke-linecap="round" stroke-linejoin="round" stroke-width="0.5"><title>2021-06-01 11.4km</title></polyline></svg>