<?xml version="1.0" encoding="utf-8" ?>
<svg baseProfile="full" height="300mm" version="1.1" viewBox="0,0,200,300" width="200mm" xmlns="http://www.w3.org/2000/svg" xmlns:ev="http://www.w3.org/2001/xml-events" xmlns:xlink="http://www.w3.org/1999/xlink"><defs /><rect fill="#222222" height="300" width="200" x="0" y="0" /><text fill="#FFFFFF" style="font-size:12px; font-family:Arial; font-weight:bold;" x="10" y="20">Over 10km Runs</text><text fill="#FFFFFF" style="font-size:4px; font-family:Arial" x="10" y="280">ATHLETE</text><text fill="#FFFFFF" style="font-size:9px; font-family:Arial" x="10" y="290">Abuqi</text><text fill="#FFFFFF" style="font-size:4px; font-family:Arial" x="120" y="280">STATISTICS</text><text fill="#FFFFFF" style="font-size:3px; font-family:Arial" x="120" y="285">Number: 5</text><text fill="#FFFFFF" style="font-size:3px; font-family:Arial" x="120" y="290">Weekly: 1.0</text><text fill="#FFFFFF" style="font-size:3px; font-family:Arial" x="141" y="285">Total: 56.7 km</text><text fill="#FFFFFF" style="font-size:3px; font-family:Arial" x="141" y="290">Avg: 11.3 km</text><text fill="#FFFFFF" style="font-size:3px; font-family:Arial" x="167" y="285">Min: 10.0 km</text><text fill="#FFFFFF" style="font-size:3px; font-family:Arial" x="167" y="290">Max: 12.5 km</text><polyline fill="none" points="14.0,58.01798447500914 43.12820512894541,74.08210467186291 49.692307692952454,96.46630484878551 60.76923076994717,93.04285625659395 78.41025641188025,99.3630641567288 85.58974358998239,92.25282876973506 82.51282051298767,83.29916065151338 58.10256410203874,71.44865178084001 45.384615384973586,56.17455203877762 42.30769230797887,56.437899640528485 33.89743589796126,70.92196075827815 44.35897435992956,77.24224325711839 50.51282051298767,97.51967238762882 59.743589743971825,93.30619867728092 74.7179487189278,100.1530886455439 80.4615384619683,99.3630641567288 85.58974358998239,91.19945827056654 82.10256410390139,82.2457851198269 42.71794871799648,55.91120440023951 33.48717948701233,70.13192394771613 42.71794871799648,75.66217463067733 50.51282051298767,97.51967238762882 59.33333333302289,92.77951379737351 77.38461538497359,100.41643006773666 85.38461538590491,92.77951379737351 80.0512820519507,80.92906487174332 62.82051282096654,72.23868803645018 45.58974358998239,54.85781347437296 39.230769231915474,58.80802639259491 33.69230769202113,69.86857827019412 46.41025641001761,79.8756880076835 49.07692307792604,96.99298869178165 61.17948717996478,93.30619867728092 78.0,99.88974718737882 82.71794871799648,97.51967238762882 84.97435897402465,90.40943000698462 76.15384615398943,78.03227707091719 61.38461538590491,71.18530628771987 44.974358974955976,55.12116126110777 36.35897435806692,63.021577662206255 34.10256410203874,71.44865178084001 44.76923076901585,76.71555386309046 49.282051282934844,96.20296287082601 59.743589743971825,92.77951379737351 78.41025641188025,99.62640569068026 84.97435897402465,95.93962085607927 85.58974358998239,91.46280095074326 80.66666666790843,81.98244114394765 55.64102564100176,67.23511945793871 44.564102564007044,55.38450901128817 37.384615384973586,62.231537520186976 34.92307692300528,71.97534265532158 44.35897435992956,75.66217463067733 50.51282051298767,96.72964678797871 62.0,93.56954106176272 76.56410256493837,100.41643006773666 83.33333333395422,97.2563305584481 85.58974358998239,89.88274431298487 80.66666666790843,80.92906487174332 57.282051282934844,68.55184932646807 49.692307692952454,57.49128967872821 42.923076923936605,54.59446565085091 33.89743589796126,70.39526958798524 44.564102564007044,76.97889857902192 49.48717948701233,97.2563305584481 62.0,93.56954106176272 79.23076923098415,100.1530886455439 85.58974358998239,94.35956799320411 85.38461538590491,88.82937248121016 75.33333333395422,76.71555386309046 56.256410256028175,68.28850342694204 43.12820512894541,55.38450901128817 34.71794871799648,69.34188680315856 47.435897435061634,80.13903227937408 48.66666666697711,96.20296287082601 59.12820512894541,93.83288340922445 76.76923076901585,100.6797714541899 83.53846153896302,98.30969765409827 86.0,91.46280095074326 79.6410256428644,79.8756880076835 57.692307692952454,69.07854101492558 43.33333333302289,55.91120440023951 35.128205127082765,70.13192394771613 44.76923076901585,78.03227707091719 48.66666666697711,97.2563305584481 59.94871794898063,92.77951379737351 79.23076923098415,99.62640569068026 86.0,91.46280095074326 78.20512820594013,78.29562160174828 61.58974358998239,70.65861519204918 43.33333333302289,54.85781347437296 36.35897435806692,70.65861519204918 45.17948717903346,75.66217463067733 49.48717948701233,98.04635593527928 60.974358974955976,94.35956799320411 74.30769230797887,100.1530886455439 82.92307692300528,96.72964678797871 85.38461538590491,91.46280095074326 77.17948717996478,77.7689325036481 58.923076923936605,69.07854101492558 46.20512820594013,55.38450901128817 42.71794871799648,55.647856724099256 35.743589743971825,70.39526958798524 45.58974358998239,78.03227707091719 47.64102564100176,96.20296287082601 58.10256410203874,92.77951379737351 79.6410256428644,99.88974718737882 86.0,94.09622571931686 86.0,89.35605847183615 76.15384615398943,75.66217463067733 61.17948717996478,70.13192394771613 46.0,54.85781347437296 42.923076923936605,55.647856724099256 35.128205127082765,71.18530628771987 45.384615384973586,79.34899935335852 48.256410256028175,96.72964678797871 60.564102564007044,92.77951379737351 72.4615384619683,98.83638097916264 81.48717948794365,98.30969765409827 85.17948717996478,94.8862524292199 83.94871794898063,83.82584819558542 59.33333333302289,68.8151951887412 27.333333333954215,39.320228545810096 17.897435897029936,52.487681726925075 17.282051282003522,56.96459473343566 45.384615384973586,77.7689325036481 49.48717948701233,96.20296287082601 59.53846153896302,92.25282876973506 71.84615384694189,98.04635593527928 81.48717948794365,98.04635593527928 85.38461538590491,93.30619867728092 82.10256410390139,82.2457851198269 42.923076923936605,55.12116126110777 36.35897435806692,66.18173489684705 44.974358974955976,77.24224325711839 49.692307692952454,96.72964678797871 60.15384615492076,91.72614359355066 72.2564102569595,98.57303933450021 81.07692307699472,98.57303933450021 85.17948717996478,92.77951379737351 83.33333333395422,83.29916065151338 63.23076923098415,71.97534265532158 49.89743589796126,57.49128967872821 43.12820512894541,56.17455203877762 36.76923076994717,63.021577662206255 35.53846153896302,71.71199723682366 45.384615384973586,79.8756880076835 50.102564102970064,97.51967238762882 60.564102564007044,92.25282876973506 77.58974358998239,99.88974718737882 84.56410256493837,94.8862524292199 82.51282051298767,82.2457851198269 57.89743589796126,68.28850342694204 47.025641025044024,54.59446565085091 42.51282051298767,56.437899640528485 36.35897435806692,69.07854101492558 44.15384615492076,74.87213981815148 48.256410256028175,86.722627041745 55.02564102597535,84.61587923346087 64.66666666697711,71.71199723682366" stroke="#4dd2ff" stroke-linecap="round" stroke-linejoin="round" stroke-width="0.5"><title>2023-04-20 10.0km</title></polyline><polyline fill="none" points="116.01321247505257,78.23984994379862 115.65924105088925,77.78527359425061 114.16592410509475,77.273872755919 114.0,76.9045260957646 114.27654017519671,76.47835519441287 115.37163926870562,75.89591872143501 116.77646335843019,75.6828313678634 122.13028114923509,75.6828313678634 124.01075434015365,75.28506710510555 138.3576586265117,67.84090407945041 141.12306037789676,66.73275656131591 143.2468889230513,66.44861421356472 145.26010139810387,66.56227124857105 169.2969734214712,70.44074091705261 172.19511445693206,70.75328510186228 173.81010907975724,70.68225241754408 176.25472422799794,70.12819576518814 178.00245813489892,69.30420845602202 179.65063757874304,67.98297339475539 183.1571669995319,63.72080700044171 184.99339376250282,63.02463606693345 185.95575357199414,63.0814665271173 186.0,63.25195771574363 185.54647411277983,63.322995626083866 182.91381164541235,62.24321399656037 182.38285450916737,61.76015005620866 180.92272238439182,64.84319493079965 178.99800276540918,67.5851788082291 176.65294208022533,69.38944883422664 175.2149331694818,70.01454274292337 173.6441849746625,70.41232776142715 171.6088492855779,70.54018689897202 169.21954217238817,70.3270882464858 148.44584421569016,66.96006986392604 144.56322015670594,66.40599279242451 142.64956214476842,66.39178564807662 140.95713627291843,66.69013526008348 138.92180058383383,67.37207392098935 123.88907666312298,75.08618438634585 121.86480258102529,75.39871419714473 116.12382854509633,75.3845083176202 114.22123214014573,76.02377091781818" stroke="#4dd2ff" stroke-linecap="round" stroke-linejoin="round" stroke-width="0.5"><title>2023-03-17 12.5km</title></polyline><polyline fill="none" points="15.815777333511505,158.17636407222017 14.0,157.1383999477257 14.19929263414815,156.72605507785192 14.996463170857169,156.27105189051508 16.967245886509772,155.91557922562788 22.104567122878507,155.91557922562788 23.90927264338825,155.51744835717545 38.32477318163728,148.05220426578308 41.05951099493541,146.95725544290326 43.58388436102541,146.65863097831607 45.16715362138348,146.75817256456503 66.3032446563011,150.22784660317848 69.86836844537174,150.73975564284046 73.63278486853233,150.89617177683976 76.43395355989924,150.24206633375434 78.2940181454178,149.27512010026112 79.8994310318376,147.85312354374764 83.35383669077419,143.80032361525082 85.21390127635095,143.0608478546783 85.9667845609365,143.1888344310937 86.0,143.40214503173775 85.09211133321514,143.40214503173775 82.66738428414101,142.23604158592934 82.44594802398933,142.07961205155152 82.4570198369911,141.82363592777256 80.68552975554485,145.43568349126872 78.63724434876349,148.05220426578308 76.62217438104562,149.50263769315643 73.98708288482158,150.42692264887592 71.86129478702787,150.6259983025011 69.480854990019,150.41270294430433 46.163616792240646,146.71551189673482 44.02675688144518,146.4879880310982 42.37705674301833,146.57330954074132 40.41734584036749,146.9714756334797 38.63478394586127,147.69670270139613 23.876057204324752,155.26150625672744 22.03813624480972,155.65963813300186 15.74934645544272,155.64541916444432 14.166077195084654,156.24261412330088" stroke="#4dd2ff" stroke-linecap="round" stroke-linejoin="round" stroke-width="0.5"><title>2023-03-11 12.5km</title></polyline><polyline fill="none" points="125.70731707289815,135.71357623348013 126.87804877758026,156.76732493424788 156.14634146168828,143.98470168793574 150.29268292337656,129.69820422539487 126.87804877758026,128.94628224801272 123.36585365608335,154.5115701118484 156.14634146168828,143.98470168793574 150.29268292337656,131.20204786444083 123.36585365608335,131.20204786444083 118.09756097197533,143.23278171988204 126.29268292337656,153.75965162506327 146.19512195140123,150.75197662692517 152.04878048598766,135.71357623348013 119.85365853458643,131.95396952377632 124.53658536449075,156.0154067655094 149.12195121869445,151.50389553466812 154.97560975328088,137.96933899028227 122.19512195140123,130.45012609800324 116.92682926729321,140.22510079434142 126.87804877758026,155.26348849246278 149.12195121869445,150.75197662692517 154.97560975328088,136.46549725998193 142.68292682617903,127.44243797753006 121.60975609347224,130.45012609800324 129.80487804487348,156.0154067655094 156.14634146168828,140.22510079434142 147.36585365608335,128.19436016585678 123.95121951028705,128.94628224801272 126.87804877758026,155.26348849246278 140.92682926729321,155.26348849246278 155.56097560748458,140.22510079434142 126.29268292337656,127.44243797753006 116.34146341308951,131.95396952377632 121.60975609347224,147.74429993377998 154.39024389907718,143.23278171988204 152.04878048598766,132.70589107600972 128.04878048598766,126.69051568442956 116.92682926729321,150.75197662692517 150.87804878130555,150.00005761208013 156.7317073121667,140.22510079434142 129.21951219066978,127.44243797753006 115.17073170468211,141.72894147085026 128.63414634019136,153.75965162506327 149.70731706917286,148.49621926574036 152.04878048598766,131.95396952377632 120.43902438879013,130.45012609800324 114.58536585047841,140.97702118521556 125.12195121496916,153.00773303536698 150.87804878130555,147.74429993377998 154.97560975328088,137.21741817798465 128.04878048598766,127.44243797753006 116.34146341308951,138.72125969687477 120.43902438879013,156.0154067655094 154.39024389907718,147.74429993377998 150.29268292337656,129.69820422539487 132.14634146168828,127.44243797753006 117.51219512149692,137.21741817798465 119.26829268038273,150.00005761208013 140.3414634130895,152.25581433810294 154.39024389907718,142.48086164798588 151.46341463178396,130.45012609800324 126.87804877758026,127.44243797753006 114.58536585047841,141.72894147085026 119.26829268038273,152.25581433810294 140.3414634130895,153.75965162506327 157.31707317009568,137.96933899028227 128.63414634019136,128.94628224801272 116.92682926729321,140.22510079434142 124.53658536449075,154.5115701118484 153.21951219066978,145.4885413022712 153.80487804487348,134.2097338666208 128.63414634019136,128.19436016585678 115.75609755888581,144.73662154795602 123.95121951028705,153.75965162506327 147.36585365608335,150.75197662692517 156.14634146168828,137.96933899028227 125.70731707289815,129.69820422539487 116.34146341308951,135.71357623348013 122.78048780187964,153.75965162506327 156.14634146168828,140.97702118521556 148.53658536449075,129.69820422539487 125.70731707289815,129.69820422539487 116.92682926729321,137.21741817798465 122.19512195140123,153.00773303536698 143.85365853458643,152.25581433810294 156.14634146168828,136.46549725998193 123.36585365608335,129.69820422539487 116.34146341308951,137.21741817798465 125.70731707289815,153.00773303536698 153.21951219066978,149.2481384924613 157.9024390205741,138.72125969687477 128.04878048598766,127.44243797753006 118.09756097197533,133.45781252346933 119.85365853458643,152.25581433810294 154.97560975328088,143.23278171988204 145.60975609719753,128.19436016585678 121.60975609347224,129.69820422539487 123.95121951028705,153.75965162506327 149.12195121869445,148.49621926574036 156.14634146168828,135.71357623348013 119.85365853458643,131.95396952377632 126.29268292337656,154.5115701118484 155.56097560748458,140.22510079434142 145.60975609719753,128.19436016585678 119.85365853458643,131.95396952377632 117.51219512149692,145.4885413022712 131.56097560748458,155.26348849246278 157.31707317009568,138.72125969687477 144.43902438879013,127.44243797753006 118.68292682617903,131.20204786444083 121.02439024299383,153.75965162506327 140.92682926729321,155.26348849246278 156.14634146168828,139.4731802996248 125.12195121496916,128.19436016585678 116.34146341308951,143.23278171988204 122.78048780187964,153.75965162506327 153.21951219066978,148.49621926574036 156.7317073121667,139.4731802996248 126.87804877758026,129.69820422539487 118.68292682617903,134.96165510220453 123.95121951028705,153.75965162506327 146.78048780187964,154.5115701118484 156.7317073121667,143.98470168793574 154.39024389907718,133.45781252346933 132.73170731589198,127.44243797753006 121.02439024299383,131.95396952377632 120.43902438879013,150.75197662692517 154.39024389907718,143.98470168793574 145.02439023926854,128.19436016585678 120.43902438879013,131.20204786444083 120.43902438879013,151.50389553466812 154.97560975328088,146.24046095414087 150.29268292337656,129.69820422539487 126.87804877758026,127.44243797753006 118.09756097197533,134.2097338666208 122.78048780187964,153.00773303536698 153.21951219066978,151.50389553466812 147.36585365608335,128.19436016585678 120.43902438879013,130.45012609800324 116.34146341308951,143.98470168793574 143.85365853458643,153.00773303536698 154.97560975328088,143.98470168793574 146.19512195140123,127.44243797753006 116.34146341308951,138.72125969687477 125.70731707289815,155.26348849246278 147.36585365608335,153.00773303536698 156.14634146168828,137.96933899028227 139.1707317046821,128.19436016585678 121.60975609347224,130.45012609800324 116.34146341308951,147.74429993377998 151.46341463178396,147.74429993377998 154.39024389907718,133.45781252346933 143.26829268038273,126.69051568442956 118.68292682617903,131.20204786444083 116.92682926729321,146.24046095414087 130.39024389907718,153.00773303536698 153.80487804487348,143.98470168793574 154.97560975328088,134.2097338666208 139.7560975588858,127.44243797753006 120.43902438879013,131.95396952377632 119.85365853458643,150.00005761208013 152.63414634019136,147.74429993377998 152.63414634019136,132.70589107600972 126.29268292337656,127.44243797753006 116.34146341308951,145.4885413022712 146.78048780187964,151.50389553466812 154.39024389907718,144.73662154795602 149.70731706917286,128.19436016585678 126.29268292337656,126.69051568442956 114.58536585047841,142.48086164798588 125.12195121496916,154.5115701118484 153.21951219066978,149.2481384924613 153.21951219066978,131.20204786444083 142.68292682617903,126.69051568442956 119.26829268038273,130.45012609800324 118.09756097197533,146.99238049704581 147.95121951028705,151.50389553466812 155.56097560748458,137.96933899028227 146.78048780187964,128.19436016585678 122.78048780187964,127.44243797753006 116.92682926729321,143.98470168793574 146.78048780187964,152.25581433810294 156.14634146168828,137.96933899028227 141.51219511777163,127.44243797753006 124.53658536449075,128.19436016585678 116.92682926729321,143.98470168793574 123.36585365608335,152.25581433810294 151.46341463178396,150.75197662692517 157.9024390205741,141.72894147085026 147.95121951028705,126.69051568442956 115.75609755888581,137.96933899028227 124.53658536449075,153.75965162506327 148.53658536449075,151.50389553466812 155.56097560748458,134.96165510220453 146.78048780187964,126.69051568442956 121.02439024299383,130.45012609800324 115.75609755888581,139.4731802996248 119.85365853458643,150.00005761208013 145.60975609719753,152.25581433810294 154.97560975328088,142.48086164798588 146.78048780187964,128.94628224801272 122.19512195140123,129.69820422539487 115.17073170468211,143.23278171988204 121.60975609347224,153.00773303536698 146.78048780187964,152.25581433810294 154.39024389907718,145.4885413022712 145.02439023926854,127.44243797753006 123.36585365608335,128.94628224801272 114.0,143.23278171988204 143.26829268038273,153.00773303536698 153.80487804487348,146.99238049704581 150.87804878130555,129.69820422539487 128.63414634019136,126.69051568442956 114.0,136.46549725998193 121.02439024299383,150.00005761208013 144.43902438879013,150.75197662692517 155.56097560748458,134.96165510220453 148.53658536449075,127.44243797753006 115.17073170468211,132.70589107600972 119.85365853458643,150.00005761208013 143.85365853458643,151.50389553466812 155.56097560748458,142.48086164798588 150.29268292337656,128.19436016585678 117.51219512149692,135.71357623348013 123.36585365608335,150.75197662692517 142.68292682617903,151.50389553466812 153.80487804487348,147.74429993377998 150.87804878130555,129.69820422539487 123.95121951028705,127.44243797753006 114.0,137.96933899028227 123.36585365608335,152.25581433810294 146.19512195140123,152.25581433810294 155.56097560748458,140.22510079434142 142.68292682617903,128.94628224801272 126.87804877758026,128.19436016585678 115.17073170468211,140.22510079434142 120.43902438879013,150.00005761208013 143.26829268038273,150.00005761208013 154.39024389907718,145.4885413022712 150.29268292337656,128.94628224801272 122.19512195140123,128.94628224801272 115.75609755888581,137.21741817798465 123.36585365608335,151.50389553466812 147.95121951028705,150.00005761208013 155.56097560748458,141.72894147085026 148.53658536449075,127.44243797753006 123.36585365608335,126.69051568442956 115.75609755888581,137.21741817798465 125.12195121496916,151.50389553466812 147.95121951028705,150.00005761208013 156.7317073121667,140.22510079434142 146.78048780187964,128.19436016585678 115.75609755888581,136.46549725998193 125.12195121496916,150.75197662692517 149.70731706917286,148.49621926574036 156.14634146168828,140.22510079434142 146.19512195140123,125.93859328282997 119.85365853458643,128.94628224801272 116.34146341308951,146.99238049704581 153.21951219066978,147.74429993377998 152.63414634019136,131.20204786444083 142.09756097197533,126.69051568442956 120.43902438879013,129.69820422539487 115.17073170468211,140.97702118521556 128.04878048598766,153.75965162506327 154.39024389907718,148.49621926574036 150.87804878130555,131.20204786444083 128.04878048598766,128.19436016585678 118.09756097197533,131.20204786444083 116.92682926729321,148.49621926574036 152.63414634019136,147.74429993377998 154.97560975328088,137.21741817798465 136.8292682915926,128.19436016585678 121.60975609347224,129.69820422539487 114.58536585047841,144.73662154795602 147.95121951028705,150.75197662692517 154.97560975328088,135.71357623348013 139.1707317046821,126.69051568442956 122.19512195140123,128.94628224801272 115.17073170468211,146.24046095414087 132.14634146168828,153.75965162506327 153.80487804487348,146.99238049704581 149.70731706917286,129.69820422539487 138.5853658504784,127.44243797753006 117.51219512149692,133.45781252346933 116.92682926729321,147.74429993377998 150.29268292337656,151.50389553466812 154.39024389907718,133.45781252346933 146.19512195140123,126.69051568442956 118.09756097197533,131.95396952377632 116.34146341308951,144.73662154795602 150.87804878130555,147.74429993377998 153.21951219066978,131.20204786444083 144.43902438879013,125.18667077552527 121.60975609347224,128.19436016585678 115.75609755888581,143.98470168793574 146.78048780187964,152.25581433810294 155.56097560748458,136.46549725998193 149.12195121869445,128.19436016585678 119.85365853458643,129.69820422539487 114.0,142.48086164798588 128.04878048598766,153.00773303536698 150.29268292337656,150.75197662692517 156.7317073121667,137.21741817798465 142.09756097197533,125.93859328282997 118.68292682617903,131.20204786444083 116.34146341308951,143.98470168793574 149.70731706917286,151.50389553466812 156.14634146168828,136.46549725998193 148.53658536449075,128.19436016585678 125.70731707289815,128.19436016585678 115.17073170468211,142.48086164798588 147.36585365608335,152.25581433810294 155.56097560748458,144.73662154795602 146.19512195140123,128.94628224801272 115.17073170468211,140.97702118521556 127.46341463178396,153.75965162506327 149.70731706917286,151.50389553466812 156.14634146168828,142.48086164798588 147.36585365608335,128.19436016585678 123.36585365608335,128.94628224801272 115.75609755888581,143.23278171988204 125.12195121496916,153.00773303536698 147.36585365608335,151.50389553466812 155.56097560748458,137.21741817798465 146.78048780187964,128.94628224801272 120.43902438879013,129.69820422539487 114.0,142.48086164798588 147.36585365608335,150.75197662692517 154.97560975328088,145.4885413022712 147.36585365608335,128.19436016585678 115.17073170468211,134.96165510220453 120.43902438879013,150.75197662692517 146.78048780187964,151.50389553466812 154.39024389907718,144.73662154795602 146.78048780187964,128.19436016585678 121.60975609347224,128.19436016585678 116.34146341308951,145.4885413022712 152.04878048598766,147.74429993377998 157.31707317009568,139.4731802996248 143.26829268038273,126.69051568442956 115.17073170468211,138.72125969687477 118.68292682617903,148.49621926574036 140.3414634130895,150.75197662692517 153.21951219066978,144.73662154795602 149.12195121869445,128.94628224801272 116.34146341308951,132.70589107600972 121.60975609347224,150.00005761208013 144.43902438879013,151.50389553466812 156.7317073121667,137.96933899028227 143.26829268038273,125.93859328282997 118.68292682617903,130.45012609800324 115.75609755888581,143.23278171988204 130.39024389907718,154.5115701118484 153.80487804487348,147.74429993377998 143.26829268038273,127.44243797753006 126.87804877758026,127.44243797753006 115.75609755888581,142.48086164798588 147.36585365608335,151.50389553466812 154.97560975328088,137.96933899028227 148.53658536449075,128.94628224801272 116.34146341308951,135.71357623348013 125.70731707289815,152.25581433810294 149.70731706917286,151.50389553466812 153.80487804487348,132.70589107600972 144.43902438879013,126.69051568442956 120.43902438879013,128.94628224801272 116.92682926729321,146.99238049704581 148.53658536449075,151.50389553466812 154.97560975328088,141.72894147085026 146.78048780187964,128.19436016585678 122.78048780187964,128.19436016585678 114.58536585047841,141.72894147085026 125.70731707289815,153.00773303536698 151.46341463178396,149.2481384924613 145.60975609719753,127.44243797753006 134.4878048747778,127.44243797753006 140.92682926729321,140.22510079434142 163.7560975588858,154.5115701118484 169.02439024299383,172.5575820216909 186.0,174.81332922447473" stroke="#4dd2ff" stroke-linecap="round" stroke-linejoin="round" stroke-width="0.5"><title>2021-06-01 11.4km</title></polyline><polyline fill="none" points="78.79999999701977,236.93651204369962 54.5,209.19063208252192 17.599999997764826,225.37574011087418 17.599999997764826,245.02904271148145 67.09999999776483,238.09258834086359 57.19999999925494,205.7223904998973 34.69999999552965,209.19063208252192 14.0,239.24866447597742 34.69999999552965,258.9019338870421 72.5,242.71689190529287 72.5,212.6588722029701 54.5,205.7223904998973 21.199999999254942,239.24866447597742 68.0,238.09258834086359 77.89999999850988,224.21966202463955 59.899999998509884,201.0980661129579 22.099999997764826,228.84397340007126 33.79999999701977,250.8094168845564 68.0,243.87296739127487 78.79999999701977,227.6878957990557 60.80000000074506,204.56630964484066 27.5,217.28319008182734 22.099999997764826,243.87296739127487 70.69999999925494,235.78043557982892 77.89999999850988,220.7514267861843 56.29999999701977,201.0980661129579 21.199999999254942,219.59534804616123 22.099999997764826,236.93651204369962 73.40000000223517,243.87296739127487 82.39999999850988,214.97103146929294 69.79999999701977,206.8784711919725 28.400000002235174,223.06358377542347 41.0,254.27763943374157 77.89999999850988,239.24866447597742 81.5,217.28319008182734 34.69999999552965,206.8784711919725 17.599999997764826,223.06358377542347 64.39999999850988,235.78043557982892 79.69999999552965,230.0000508390367 71.60000000149012,203.41022863052785 30.199999999254942,204.56630964484066 20.300000000745058,228.84397340007126 70.69999999925494,236.93651204369962 81.5,223.06358377542347 68.0,203.41022863052785 20.300000000745058,219.59534804616123 32.899999998509884,246.18511787243187 72.5,238.09258834086359 80.60000000149012,210.3467122828588 68.0,202.2541474495083 26.600000001490116,209.19063208252192 20.300000000745058,225.37574011087418 39.19999999925494,241.56081625912338 77.89999999850988,231.1561281112954 77.89999999850988,208.03455171734095 60.80000000074506,202.2541474495083 28.400000002235174,209.19063208252192 25.69999999552965,239.24866447597742 75.19999999925494,239.24866447597742 84.19999999925494,221.90750536415726 64.39999999850988,202.2541474495083 23.899999998509884,211.5027923239395 27.5,241.56081625912338 78.79999999701977,230.0000508390367 82.39999999850988,214.97103146929294 58.099999997764826,203.41022863052785 32.899999998509884,205.7223904998973 21.199999999254942,231.1561281112954 40.100000001490116,245.02904271148145 78.79999999701977,230.0000508390367 60.80000000074506,202.2541474495083 26.600000001490116,210.3467122828588 21.199999999254942,228.84397340007126 40.100000001490116,245.02904271148145 68.90000000223517,239.24866447597742 82.39999999850988,228.84397340007126 73.40000000223517,205.7223904998973 22.099999997764826,219.59534804616123 29.300000000745058,243.87296739127487 71.60000000149012,235.78043557982892 82.39999999850988,225.37574011087418 68.90000000223517,202.2541474495083 32.0,205.7223904998973 22.099999997764826,221.90750536415726 39.19999999925494,246.18511787243187 74.29999999701977,238.09258834086359 83.30000000074506,226.53181803785264 67.09999999776483,205.7223904998973 26.600000001490116,209.19063208252192 21.199999999254942,221.90750536415726 28.400000002235174,242.71689190529287 67.09999999776483,243.87296739127487 80.60000000149012,236.93651204369962 75.19999999925494,209.19063208252192 38.29999999701977,205.7223904998973 23.0,219.59534804616123 29.300000000745058,242.71689190529287 68.0,243.87296739127487 84.19999999925494,220.7514267861843 74.29999999701977,209.19063208252192 35.600000001490116,206.8784711919725 22.099999997764826,223.06358377542347 27.5,242.71689190529287 73.40000000223517,238.09258834086359 79.69999999552965,211.5027923239395 65.30000000074506,205.7223904998973 23.0,213.81495191901922 22.099999997764826,230.0000508390367 32.0,247.3411928685382 67.09999999776483,243.87296739127487 81.5,234.62435895670205 72.5,209.19063208252192 22.099999997764826,219.59534804616123 33.79999999701977,247.3411928685382 68.90000000223517,242.71689190529287 82.39999999850988,232.31220522150397 68.90000000223517,204.56630964484066 27.5,210.3467122828588 23.0,226.53181803785264 41.0,248.49726770073175 77.89999999850988,239.24866447597742 70.69999999925494,203.41022863052785 27.5,210.3467122828588 23.899999998509884,230.0000508390367 30.199999999254942,245.02904271148145 67.09999999776483,246.18511787243187 83.30000000074506,219.59534804616123 72.5,206.8784711919725 24.800000000745058,213.81495191901922 34.69999999552965,249.65334237366915 68.90000000223517,248.49726770073175 81.5,239.24866447597742 76.10000000149012,212.6588722029701 23.0,218.439269146882 35.600000001490116,251.96549122873694 66.19999999925494,248.49726770073175 80.60000000149012,239.24866447597742 77.89999999850988,213.81495191901922 36.5,206.8784711919725 22.099999997764826,224.21966202463955 28.400000002235174,245.02904271148145 73.40000000223517,242.71689190529287 84.19999999925494,218.439269146882 69.79999999701977,205.7223904998973 28.400000002235174,209.19063208252192 24.800000000745058,223.06358377542347 37.400000002235174,251.96549122873694 68.90000000223517,248.49726770073175 79.69999999552965,216.1271108565852 24.800000000745058,217.28319008182734 28.400000002235174,241.56081625912338 49.099999997764826,249.65334237366915 80.60000000149012,238.09258834086359 76.10000000149012,210.3467122828588 19.400000002235174,218.439269146882 34.69999999552965,250.8094168845564 54.5,249.65334237366915 75.19999999925494,243.87296739127487 81.5,214.97103146929294 26.600000001490116,216.1271108565852 28.400000002235174,245.02904271148145 60.80000000074506,250.8094168845564 83.30000000074506,235.78043557982892 71.60000000149012,211.5027923239395 30.199999999254942,210.3467122828588 19.400000002235174,224.21966202463955 41.0,245.02904271148145 69.79999999701977,242.71689190529287 81.5,214.97103146929294 69.79999999701977,204.56630964484066 22.099999997764826,218.439269146882 29.300000000745058,240.4047404481098 55.400000002235174,249.65334237366915 83.30000000074506,231.1561281112954 78.79999999701977,213.81495191901922 25.69999999552965,214.97103146929294 29.300000000745058,246.18511787243187 63.5,250.8094168845564 82.39999999850988,225.37574011087418 72.5,212.6588722029701 43.69999999552965,209.19063208252192 21.199999999254942,226.53181803785264 39.19999999925494,249.65334237366915 68.0,248.49726770073175 84.19999999925494,224.21966202463955 73.40000000223517,209.19063208252192 27.5,213.81495191901922 30.199999999254942,242.71689190529287 53.600000001490116,248.49726770073175 79.69999999552965,238.09258834086359 75.19999999925494,212.6588722029701 23.899999998509884,216.1271108565852 32.899999998509884,248.49726770073175 72.5,248.49726770073175 84.19999999925494,226.53181803785264 59.0,206.8784711919725 34.69999999552965,208.03455171734095 23.899999998509884,233.46828217245638 32.0,248.49726770073175 71.60000000149012,247.3411928685382 74.29999999701977,211.5027923239395 37.400000002235174,206.8784711919725 21.199999999254942,232.31220522150397 42.79999999701977,248.49726770073175 73.40000000223517,245.02904271148145 71.60000000149012,209.19063208252192 34.69999999552965,208.03455171734095 23.0,221.90750536415726 31.099999997764826,247.3411928685382 66.19999999925494,248.49726770073175 81.5,223.06358377542347 71.60000000149012,211.5027923239395 34.69999999552965,206.8784711919725 19.400000002235174,228.84397340007126 36.5,247.3411928685382 75.19999999925494,242.71689190529287 78.79999999701977,212.6588722029701 63.5,206.8784711919725 39.19999999925494,205.7223904998973 22.099999997764826,233.46828217245638 68.0,245.02904271148145 83.30000000074506,220.7514267861843 65.30000000074506,204.56630964484066 26.600000001490116,212.6588722029701 25.69999999552965,239.24866447597742 75.19999999925494,243.87296739127487 83.30000000074506,230.0000508390367 65.30000000074506,206.8784711919725 20.300000000745058,225.37574011087418 32.899999998509884,245.02904271148145 72.5,243.87296739127487 82.39999999850988,217.28319008182734 68.90000000223517,210.3467122828588 22.099999997764826,223.06358377542347 33.79999999701977,246.18511787243187 70.69999999925494,242.71689190529287 82.39999999850988,231.1561281112954 74.29999999701977,208.03455171734095 24.800000000745058,212.6588722029701 18.5,230.0000508390367 33.79999999701977,247.3411928685382 69.79999999701977,241.56081625912338 80.60000000149012,214.97103146929294 67.09999999776483,206.8784711919725 28.400000002235174,208.03455171734095 20.300000000745058,223.06358377542347 35.600000001490116,246.18511787243187 73.40000000223517,241.56081625912338 81.5,216.1271108565852 68.90000000223517,210.3467122828588 34.69999999552965,208.03455171734095 20.300000000745058,226.53181803785264 35.600000001490116,247.3411928685382 71.60000000149012,243.87296739127487 83.30000000074506,232.31220522150397 68.90000000223517,205.7223904998973 29.300000000745058,208.03455171734095 23.0,221.90750536415726 39.19999999925494,246.18511787243187 78.79999999701977,241.56081625912338 86.0,227.6878957990557 69.79999999701977,209.19063208252192 28.400000002235174,211.5027923239395 22.099999997764826,227.6878957990557 41.0,248.49726770073175 76.10000000149012,241.56081625912338 85.09999999776483,226.53181803785264 65.30000000074506,205.7223904998973 27.5,211.5027923239395 21.199999999254942,232.31220522150397 37.400000002235174,248.49726770073175 75.19999999925494,241.56081625912338 73.40000000223517,209.19063208252192 38.29999999701977,206.8784711919725 21.199999999254942,230.0000508390367 32.899999998509884,246.18511787243187 78.79999999701977,238.09258834086359 77.89999999850988,212.6588722029701 60.80000000074506,205.7223904998973 35.600000001490116,206.8784711919725 23.0,233.46828217245638 50.0,247.3411928685382 77.89999999850988,240.4047404481098 70.69999999925494,206.8784711919725 23.899999998509884,217.28319008182734 42.79999999701977,248.49726770073175 74.29999999701977,243.87296739127487 86.0,232.31220522150397 73.40000000223517,208.03455171734095 33.79999999701977,208.03455171734095 23.899999998509884,231.1561281112954 37.400000002235174,246.18511787243187 76.10000000149012,243.87296739127487 85.09999999776483,230.0000508390367 65.30000000074506,208.03455171734095 27.5,212.6588722029701 22.099999997764826,227.6878957990557 41.0,248.49726770073175 78.79999999701977,241.56081625912338 85.09999999776483,227.6878957990557 65.30000000074506,206.8784711919725 26.600000001490116,212.6588722029701 28.400000002235174,241.56081625912338 82.39999999850988,238.09258834086359 77.0,211.5027923239395 59.899999998509884,205.7223904998973 29.300000000745058,209.19063208252192 21.199999999254942,232.31220522150397 34.69999999552965,246.18511787243187 79.69999999552965,239.24866447597742 84.19999999925494,224.21966202463955 60.80000000074506,206.8784711919725 24.800000000745058,214.97103146929294 26.600000001490116,241.56081625912338 77.89999999850988,241.56081625912338 76.10000000149012,211.5027923239395 57.19999999925494,208.03455171734095 32.0,209.19063208252192 19.400000002235174,231.1561281112954 68.90000000223517,246.18511787243187 81.5,221.90750536415726 71.60000000149012,211.5027923239395 30.199999999254942,210.3467122828588 20.300000000745058,234.62435895670205 70.69999999925494,246.18511787243187 84.19999999925494,223.06358377542347 57.19999999925494,206.8784711919725 35.600000001490116,208.03455171734095 22.099999997764826,234.62435895670205 47.30000000074506,249.65334237366915 78.79999999701977,242.71689190529287 76.10000000149012,211.5027923239395 59.899999998509884,206.8784711919725 25.69999999552965,217.28319008182734 22.099999997764826,235.78043557982892 42.79999999701977,247.3411928685382 82.39999999850988,234.62435895670205 68.90000000223517,208.03455171734095 49.099999997764826,206.8784711919725 28.400000002235174,211.5027923239395 23.0,239.24866447597742 76.10000000149012,242.71689190529287 77.0,212.6588722029701 59.899999998509884,205.7223904998973 23.899999998509884,213.81495191901922 27.5,243.87296739127487 80.60000000149012,238.09258834086359 76.10000000149012,211.5027923239395 59.899999998509884,206.8784711919725 32.899999998509884,210.3467122828588 21.199999999254942,238.09258834086359 76.10000000149012,243.87296739127487 80.60000000149012,217.28319008182734 47.30000000074506,206.8784711919725 28.400000002235174,211.5027923239395 25.69999999552965,239.24866447597742 81.5,236.93651204369962" stroke="#4dd2ff" stroke-linecap="round" stroke-linejoin="round" stroke-width="0.5"><title>2020-11-29 10.4km</title></polyline></svg>