<?xml version="1.0" encoding="utf-8" ?>
<svg baseProfile="full" height="200mm" version="1.1" viewBox="0,0,200,200" width="200mm" xmlns="http://www.w3.org/2000/svg" xmlns:ev="http://www.w3.org/2001/xml-events" xmlns:xlink="http://www.w3.org/1999/xlink"><defs /><rect fill="#1a1a1a" height="200" width="200" x="0" y="0" /><text alignment-baseline="middle" fill="#e1ed5e" style="dominant-baseline: central; font-size:9.0px; font-family:Arial;" text-anchor="middle" x="100.0" y="100.0">2023</text><line stroke="#e1ed5e" stroke-width="0.3" x1="100.0" x2="100.0" y1="15.0" y2="10.0" /><path d="M 100.0 14.0 a86.0,86.0 0 0,1 42.46469731375804,11.215312516191453" fill="none" id="id37" stroke="none" /><text fill="#e1ed5e" style="font-size:6.75px; font-family:Arial;" text-anchor="middle"><textPath startOffset="22.20632615414155" xlink:href="#id37">January</textPath></text><path d="M 105.71112130821622 79.79150937346287 l 8.280110400141568 -29.298718128649945 a51.446265981571756,51.446265981571756 0 0,0 0.8501122646289463,0.24817108165838456 l -8.783212882493943 29.151848718072856" fill="#f8ff18" stroke="none" /><path d="M 106.0581310904928 79.89281104454417 l 8.655585860540235 -28.728249326129593 a51.00385768419537,51.00385768419537 0 0,0 0.8384417962269083,0.2605079474132339 l -9.14881302947786 28.57500124383384" fill="#ffff18" stroke="none" /><line stroke="#e1ed5e" stroke-width="0.3" x1="143.23703022742887" x2="145.7803849466894" y1="26.81831364943548" y2="22.513508569990506" /><path d="M 143.74570117128098 25.957352633546492 a86.0,86.0 0 0,1 28.547481713284135,27.462654790039103" fill="none" id="id38" stroke="none" /><text fill="#e1ed5e" style="font-size:6.75px; font-family:Arial;" text-anchor="middle"><textPath startOffset="19.985693538727396" xlink:href="#id38">February</textPath></text><path d="M 112.48926042617603 83.11751280151076 l 11.800941146942339 -15.952044480217408 a40.842629237387655,40.842629237387655 0 0,0 0.5615936325198099,0.42298068095691715 l -12.073780933220531 15.746547209754644" fill="#ff5407" stroke="none" /><path d="M 112.77801427241765 83.33499621200491 l 12.291428248878198 -16.03040143487563 a41.200321248945116,41.200321248945116 0 0,0 0.5590833463296437,0.43637341984338096 l -12.565544150367273 15.816449625809023" fill="#ff5a08" stroke="none" /><path d="M 114.94478906791727 85.2469230424477 l 17.758803767044885 -17.530993409048847 a45.95417482395524,45.95417482395524 0 0,0 0.5508718112011629,0.567721824442072 l -18.057939841949157 17.22270738905666" fill="#ffad10" stroke="none" /><path d="M 115.19652480421416 85.50635884689758 l 18.004551233747435 -17.171788159896796 a45.88039737900117,45.88039737900117 0 0,0 0.5401492149080863,0.5761935216490736 l -18.297467770625985 16.85932522136967" fill="#ffac0f" stroke="none" /><path d="M 115.4437574822437 85.77008943001954 l 21.949901277994336 -20.22468512373851 a50.846876795873754,50.846876795873754 0 0,0 0.587538952825319,0.6487751863572865 l -22.29478387143569 19.843857150111674" fill="#fffd17" stroke="none" /><path d="M 115.9244219780498 86.31012108654704 l 18.89963139573519 -16.247601682067128 a45.92349548746664,45.92349548746664 0 0,0 0.5101649566094396,0.6038743943148582 l -19.17650696583175 15.91986833812316" fill="#ffad10" stroke="none" /><path d="M 116.15771136456269 86.58626213691792 l 23.690636302638342 -19.667388406885756 a51.790459807725995,51.790459807725995 0 0,0 0.563533245815311,0.690825126448545 l -24.02566804053006 19.25667911082911" fill="#f2ff19" stroke="none" /><path d="M 116.60985879189232 87.15038557335679 l 19.862555709296704 -15.365945345469493 a46.11241516988899,46.11241516988899 0 0,0 0.4802806977156807,0.6319931003232584 l -20.124112347236498 15.021767469265201" fill="#ffb010" stroke="none" /><path d="M 117.65298651832404 88.62581576622439 l 15.565928929634785 -10.029449874203642 a39.51723543679252,39.51723543679252 0 0,0 0.3635066361447482,0.5749802020734992 l -15.73626316202549 9.760022024415937" fill="#ff3c05" stroke="none" /><line stroke="#e1ed5e" stroke-width="0.3" x1="172.23445277983987" x2="176.4835382374775" y1="55.19839476539836" y2="52.563006222186495" /><path d="M 173.08426987136738 54.67131705675599 a86.0,86.0 0 0,1 12.851231095245387,41.99856678651699" fill="none" id="id39" stroke="none" /><text fill="#e1ed5e" style="font-size:6.75px; font-family:Arial;" text-anchor="middle"><textPath startOffset="22.20632615414155" xlink:href="#id39">March</textPath></text><path d="M 117.84615892207809 88.93136811851018 l 26.287956004206332 -16.304444513681258 a51.93366356865605,51.93366356865605 0 0,0 0.4646435676985122,0.7637518554963009 l -26.56471537019107 15.849524884977876" fill="#f0ff19" stroke="none" /><path d="M 118.03404312379186 89.2402003453031 l 13.149034767027471 -7.845216892001738 a36.311582001447356,36.311582001447356 0 0,0 0.3156346666210288,0.5395219597357772 l -13.282129108118827 7.617715519912066" fill="#ff0000" stroke="none" /><path d="M 118.3937258080291 89.86733742301442 l 32.870676975754435 -18.10766790527129 a58.5282432550737,58.5282432550737 0 0,0 0.4785154920889366,0.8866165329325095 l -33.177500567061834 17.53917038900632" fill="#8eff24" stroke="none" /><path d="M 118.73160827565052 90.50648371742162 l 22.789953186051 -11.550358541942161 a46.549809170907956,46.549809170907956 0 0,0 0.3560838448683799,0.7178433027239138 l -22.985397043872787 11.156355650719298" fill="#ffb711" stroke="none" /><path d="M 118.89224826269711 90.83032412892265 l 23.502558666239754 -11.407368890865474 a47.124668971535826,47.124668971535826 0 0,0 0.34791875199791733,0.7328056220516153 l -23.695435612079425 11.001120853173319" fill="#ffc111" stroke="none" /><path d="M 119.04729006885535 91.15688171328212 l 22.67386961219704 -10.526836640458955 a45.99837300397411,45.99837300397411 0 0,0 0.32724049286902196,0.7210310486657946 l -22.851712422029408 10.134983582951097" fill="#ffae10" stroke="none" /><path d="M 119.196687751892 91.48605970444005 l 14.768451265760023 -6.549969138409042 a37.155780652857345,37.155780652857345 0 0,0 0.25426813632681833,0.5868859155288255 l -14.87901011192952 6.294784078293614" fill="#ff1001" stroke="none" /><path d="M 119.47837535516314 92.15188598940014 l 58.34736083158437 -23.508980172851135 a83.90537866334336,83.90537866334336 0 0,0 0.5282301075672543,1.3442880069465664 l -58.743384489033325 22.501143161008788" fill="#4dd3ff" stroke="none" /><path d="M 119.7369772167798 92.82701384747503 l 29.49281266721468 -10.71853782559413 a52.38013786047013,52.38013786047013 0 0,0 0.30067924980176797,0.8500607290928271 l -29.672944997826256 10.209279470074687" fill="#e9ff1a" stroke="none" /><path d="M 119.85752413597 93.16781622104841 l 37.52196283206362 -12.909814136964 a60.68073834773894,60.68073834773894 0 0,0 0.33132465118470844,0.9906185352446805 l -37.7386247770201 12.262022498797005" fill="#70ff27" stroke="none" /><path d="M 120.08093135843002 93.85539295169968 l 25.223404784150755 -7.71816346823776 a47.37783532110926,47.37783532110926 0 0,0 0.23191247993442526,0.7818935924694644 l -25.352523161196885 7.282840489021766" fill="#ffc512" stroke="none" /><path d="M 120.18372546131832 94.20196356495316 l 60.551176383954946 -17.394109305140535 a84.0,84.0 0 0,0 0.3872529177345476,1.3931547863241924 l -60.84161607225586 16.349243215397394" fill="#4dd2ff" stroke="none" /><path d="M 120.6074358757038 95.95851677861258 l 24.758960819942153 -4.855670804282805 a46.230609977624304,46.230609977624304 0 0,0 0.14642835980320557,0.7822261532060902 l -24.83887490365522 4.428766573614151" fill="#ffb210" stroke="none" /><path d="M 120.67395015179393 96.31383870115 l 24.45821994164044 -4.360895867779431 a45.84395168815287,45.84395168815287 0 0,0 0.13183004300020862,0.7780683762580866 l -24.529661846160874 3.9392417032055063" fill="#ffab0f" stroke="none" /><path d="M 120.73433829027371 96.67025291283417 l 24.438626840364016 -3.9246223051259257 a45.751750283170935,45.751750283170935 0 0,0 0.11817918179518408,0.7786531505152905 l -24.502561915598502 3.503370042218553" fill="#ffaa0f" stroke="none" /><path d="M 120.83666639777658 97.38593545837742 l 29.419272727439846 -3.69079564883425 a50.64988331061254,50.64988331061254 0 0,0 0.10108184428367546,0.8660075121805224 l -29.478444924727114 3.183844398328875" fill="#fffa17" stroke="none" /><path d="M 120.87857604477298 97.74499172005257 l 48.96061054281955 -5.288032188046661 a70.2453517516879,70.2453517516879 0 0,0 0.11949361295396119,1.2032843752074391 l -49.04438128145574 4.444472282134787" fill="#37ff76" stroke="none" /><path d="M 120.94382443527127 98.46500227214037 l 29.997473215456534 -2.1985503826946875 a51.07793249372834,51.07793249372834 0 0,0 0.05671939040333838,0.8774238649432313 l -30.030873196864288 1.6818674534984208" fill="#fdff18" stroke="none" /><path d="M 120.96714384426684 98.82574320788733 l 29.57777133486428 -1.6564916587347536 a50.6241206072514,50.6241206072514 0 0,0 0.04123790666392223,0.8704670327741048 l -29.6019028497617 1.147113519337649" fill="#fff917" stroke="none" /><line stroke="#e1ed5e" stroke-width="0.3" x1="184.98032266829074" x2="189.97916517819016" y1="98.17113171792111" y2="98.06355123074" /><path d="M 185.9800911702706 98.14961562048488 a86.0,86.0 0 0,1 -9.607161424134198,41.387399972396054" fill="none" id="id40" stroke="none" /><text fill="#e1ed5e" style="font-size:6.75px; font-family:Arial;" text-anchor="middle"><textPath startOffset="21.466115282336823" xlink:href="#id40">April</textPath></text><line stroke="#e1ed5e" stroke-width="0.3" x1="174.80103733775053" x2="179.2010983576182" y1="140.37084112569926" y2="142.7455964860345" /><path d="M 175.68104954172406 140.8457921977663 a86.0,86.0 0 0,1 -30.038265399797805,32.042727171017184" fill="none" id="id41" stroke="none" /><text fill="#e1ed5e" style="font-size:6.75px; font-family:Arial;" text-anchor="middle"><textPath startOffset="22.206326154141568" xlink:href="#id41">May</textPath></text><line stroke="#e1ed5e" stroke-width="0.3" x1="143.8653032363475" x2="146.44561519142675" y1="172.8068346515853" y2="177.08958963109032" /><path d="M 144.38136562736335 173.6633856474863 a86.0,86.0 0 0,1 -40.68145358897372,12.25698825130547" fill="none" id="id42" stroke="none" /><text fill="#e1ed5e" style="font-size:6.75px; font-family:Arial;" text-anchor="middle"><textPath startOffset="21.466115282336833" xlink:href="#id42">June</textPath></text><line stroke="#e1ed5e" stroke-width="0.3" x1="102.19456741930631" x2="102.32365962044197" y1="184.97166512339345" y2="189.96999836594603" /><path d="M 102.22038585953345 185.97133177190398 a86.0,86.0 0 0,1 -42.740103519485714,-10.115201625700543" fill="none" id="id43" stroke="none" /><text fill="#e1ed5e" style="font-size:6.75px; font-family:Arial;" text-anchor="middle"><textPath startOffset="22.20632615414155" xlink:href="#id43">July</textPath></text><line stroke="#e1ed5e" stroke-width="0.3" x1="58.666819895761336" x2="56.23545636021788" y1="174.27360380694188" y2="178.64263932499728" /><path d="M 58.180547188652646 175.14741091055294 a86.0,86.0 0 0,1 -31.652253787137756,-30.449443065178592" fill="none" id="id44" stroke="none" /><text fill="#e1ed5e" style="font-size:6.75px; font-family:Arial;" text-anchor="middle"><textPath startOffset="22.20632615414155" xlink:href="#id44">August</textPath></text><line stroke="#e1ed5e" stroke-width="0.3" x1="26.63291911575756" x2="22.317208475507996" y1="142.92168965132927" y2="145.44649492493687" /><path d="M 25.769776987707644 143.4266507060508 a86.0,86.0 0 0,1 -11.730757126820373,-40.83630448921669" fill="none" id="id45" stroke="none" /><text fill="#e1ed5e" style="font-size:6.75px; font-family:Arial;" text-anchor="middle"><textPath startOffset="21.46611528233685" xlink:href="#id45">September</textPath></text><line stroke="#e1ed5e" stroke-width="0.3" x1="15.007084014347285" x2="10.007500721073583" y1="101.09737516637583" y2="101.16192664675087" /><path d="M 14.007167355692545 101.11028546245083 a86.0,86.0 0 0,1 10.666146001902534,-42.60595125391555" fill="none" id="id46" stroke="none" /><text fill="#e1ed5e" style="font-size:6.75px; font-family:Arial;" text-anchor="middle"><textPath startOffset="22.20632615414155" xlink:href="#id46">October</textPath></text><line stroke="#e1ed5e" stroke-width="0.3" x1="26.266209847984243" x2="21.928928074336255" y1="57.711370442889674" y2="55.22380399835377" /><path d="M 25.398753493254645 57.213857153982495 a86.0,86.0 0 0,1 29.58750427330803,-30.492523968695096" fill="none" id="id47" stroke="none" /><text fill="#e1ed5e" style="font-size:6.75px; font-family:Arial;" text-anchor="middle"><textPath startOffset="21.46611528233685" xlink:href="#id47">November</textPath></text><line stroke="#e1ed5e" stroke-width="0.3" x1="56.762969772571076" x2="54.21961505331055" y1="26.818313649435495" y2="22.513508569990535" /><path d="M 56.25429882871897 25.957352633546506 a86.0,86.0 0 0,1 42.265352541879196,-11.944610805530505" fill="none" id="id48" stroke="none" /><text fill="#e1ed5e" style="font-size:6.75px; font-family:Arial;" text-anchor="middle"><textPath startOffset="22.20632615414155" xlink:href="#id48">December</textPath></text></svg>