<?xml version="1.0" encoding="utf-8" ?>
<svg baseProfile="full" height="200mm" version="1.1" viewBox="0,0,200,200" width="200mm" xmlns="http://www.w3.org/2000/svg" xmlns:ev="http://www.w3.org/2001/xml-events" xmlns:xlink="http://www.w3.org/1999/xlink"><defs /><rect fill="#1a1a1a" height="200" width="200" x="0" y="0" /><text alignment-baseline="middle" fill="#e1ed5e" style="dominant-baseline: central; font-size:9.0px; font-family:Arial;" text-anchor="middle" x="100.0" y="100.0">2023</text><line stroke="#e1ed5e" stroke-width="0.3" x1="100.0" x2="100.0" y1="15.0" y2="10.0" /><path d="M 100.0 14.0 a86.0,86.0 0 0,1 42.46469731375804,11.215312516191453" fill="none" id="id37" stroke="none" /><text fill="#e1ed5e" style="font-size:6.75px; font-family:Arial;" text-anchor="middle"><textPath startOffset="22.20632615414155" xlink:href="#id37">January</textPath></text><path d="M 105.71112130821622 79.79150937346287 l 16.863406885225345 -59.67024364922775 a83.00735818380646,83.00735818380646 0 0,0 1.3716364424150562,0.4004182902887299 l -17.88803354536383 59.37112703002031" fill="#4be4ff" stroke="none" /><path d="M 106.0581310904928 79.89281104454417 l 17.628106286336195 -58.50841765086141 a82.10634228335056,82.10634228335056 0 0,0 1.349729064258717,0.4193673904096085 l -18.63262072330563 58.196310125569276" fill="#48f4ff" stroke="none" /><line stroke="#e1ed5e" stroke-width="0.3" x1="143.23703022742887" x2="145.7803849466894" y1="26.81831364943548" y2="22.513508569990506" /><path d="M 143.74570117128098 25.957352633546492 a86.0,86.0 0 0,1 28.547481713284135,27.462654790039103" fill="none" id="id38" stroke="none" /><text fill="#e1ed5e" style="font-size:6.75px; font-family:Arial;" text-anchor="middle"><textPath startOffset="19.985693538727396" xlink:href="#id38">February</textPath></text><path d="M 112.48926042617603 83.11751280151076 l 24.033987781863885 -32.488192031415416 a61.411819931412474,61.411819931412474 0 0,0 0.8444237718996643,0.6360024782541126 l -24.58965770752193 32.06967296365546" fill="#fff216" stroke="none" /><path d="M 112.77801427241765 83.33499621200491 l 25.032921754019377 -32.647775073770276 a62.140301272722255,62.140301272722255 0 0,0 0.8432363273957553,0.658159328725382 l -25.59119063657456 32.21203735582167" fill="#fbff18" stroke="none" /><path d="M 114.94478906791727 85.2469230424477 l 36.16786724406843 -35.70390498101813 a71.82207642233962,71.82207642233962 0 0,0 0.8609611090737731,0.8872961035186118 l -36.777092616845316 35.0760446819494" fill="#30ff31" stroke="none" /><path d="M 115.19652480421416 85.50635884689758 l 36.668360513089034 -34.972341755525825 a71.67182008358455,71.67182008358455 0 0,0 0.8437912389769413,0.9000976620978521 l -37.26491907403644 34.33597467654992" fill="#31ff2f" stroke="none" /><path d="M 115.4437574822437 85.77008943001954 l 44.70352428332569 -41.18992113454615 a81.78663246487686,81.78663246487686 0 0,0 0.9450498323905412,1.0435476289320746 l -45.405917756332265 40.41432071834452" fill="#48faff" stroke="none" /><path d="M 115.9244219780498 86.31012108654704 l 38.49129526118549 -33.090128613392054 a71.75959438898806,71.75959438898806 0 0,0 0.7971786548295395,0.9436080842268778 l -39.05518452950215 32.42266157953607" fill="#2fff30" stroke="none" /><path d="M 116.15771136456269 86.58626213691792 l 48.24873341476828 -40.0549216190895 a83.70834890220584,83.70834890220584 0 0,0 0.9108325690451485,1.1165730315941051 l -48.93106447588983 39.2184644178873" fill="#4cd7ff" stroke="none" /><path d="M 116.60985879189232 87.15038557335679 l 40.452402506686276 -31.29453304539952 a72.14435127257516,72.14435127257516 0 0,0 0.7514145428683469,0.9887734585920791 l -40.985092989778735 30.593574810926405" fill="#30ff39" stroke="none" /><path d="M 117.65298651832404 88.62581576622439 l 31.701822850386588 -20.426139977647697 a58.71250146070598,58.71250146070598 0 0,0 0.5400778589322577,0.8542734728524675 l -32.0487283055648 19.877418857081025" fill="#ffaf10" stroke="none" /><line stroke="#e1ed5e" stroke-width="0.3" x1="172.23445277983987" x2="176.4835382374775" y1="55.19839476539836" y2="52.563006222186495" /><path d="M 173.08426987136738 54.67131705675599 a86.0,86.0 0 0,1 12.851231095245387,41.99856678651699" fill="none" id="id39" stroke="none" /><text fill="#e1ed5e" style="font-size:6.75px; font-family:Arial;" text-anchor="middle"><textPath startOffset="22.20632615414155" xlink:href="#id39">March</textPath></text><path d="M 117.84615892207809 88.93136811851018 l 53.538476766234254 -33.20589564446945 a84.0,84.0 0 0,0 0.7515368068551043,1.2353289071716742 l -54.10212937137558 32.279398964090696" fill="#4dd2ff" stroke="none" /><path d="M 118.03404312379186 89.2402003453031 l 26.77953707242446 -15.977695726183354 a52.183815778891685,52.183815778891685 0 0,0 0.4536024152218742,0.7753535649974216 l -27.050599162116665 15.514362748832038" fill="#ff0000" stroke="none" /><line stroke="#e1ed5e" stroke-width="0.3" x1="184.98032266829074" x2="189.97916517819016" y1="98.17113171792111" y2="98.06355123074" /><path d="M 185.9800911702706 98.14961562048488 a86.0,86.0 0 0,1 -9.607161424134198,41.387399972396054" fill="none" id="id40" stroke="none" /><text fill="#e1ed5e" style="font-size:6.75px; font-family:Arial;" text-anchor="middle"><textPath startOffset="21.466115282336823" xlink:href="#id40">April</textPath></text><line stroke="#e1ed5e" stroke-width="0.3" x1="174.80103733775053" x2="179.2010983576182" y1="140.37084112569926" y2="142.7455964860345" /><path d="M 175.68104954172406 140.8457921977663 a86.0,86.0 0 0,1 -30.038265399797805,32.042727171017184" fill="none" id="id41" stroke="none" /><text fill="#e1ed5e" style="font-size:6.75px; font-family:Arial;" text-anchor="middle"><textPath startOffset="22.206326154141568" xlink:href="#id41">May</textPath></text><line stroke="#e1ed5e" stroke-width="0.3" x1="143.8653032363475" x2="146.44561519142675" y1="172.8068346515853" y2="177.08958963109032" /><path d="M 144.38136562736335 173.6633856474863 a86.0,86.0 0 0,1 -40.68145358897372,12.25698825130547" fill="none" id="id42" stroke="none" /><text fill="#e1ed5e" style="font-size:6.75px; font-family:Arial;" text-anchor="middle"><textPath startOffset="21.466115282336833" xlink:href="#id42">June</textPath></text><line stroke="#e1ed5e" stroke-width="0.3" x1="102.19456741930631" x2="102.32365962044197" y1="184.97166512339345" y2="189.96999836594603" /><path d="M 102.22038585953345 185.97133177190398 a86.0,86.0 0 0,1 -42.740103519485714,-10.115201625700543" fill="none" id="id43" stroke="none" /><text fill="#e1ed5e" style="font-size:6.75px; font-family:Arial;" text-anchor="middle"><textPath startOffset="22.20632615414155" xlink:href="#id43">July</textPath></text><line stroke="#e1ed5e" stroke-width="0.3" x1="58.666819895761336" x2="56.23545636021788" y1="174.27360380694188" y2="178.64263932499728" /><path d="M 58.180547188652646 175.14741091055294 a86.0,86.0 0 0,1 -31.652253787137756,-30.449443065178592" fill="none" id="id44" stroke="none" /><text fill="#e1ed5e" style="font-size:6.75px; font-family:Arial;" text-anchor="middle"><textPath startOffset="22.20632615414155" xlink:href="#id44">August</textPath></text><line stroke="#e1ed5e" stroke-width="0.3" x1="26.63291911575756" x2="22.317208475507996" y1="142.92168965132927" y2="145.44649492493687" /><path d="M 25.769776987707644 143.4266507060508 a86.0,86.0 0 0,1 -11.730757126820373,-40.83630448921669" fill="none" id="id45" stroke="none" /><text fill="#e1ed5e" style="font-size:6.75px; font-family:Arial;" text-anchor="middle"><textPath startOffset="21.46611528233685" xlink:href="#id45">September</textPath></text><line stroke="#e1ed5e" stroke-width="0.3" x1="15.007084014347285" x2="10.007500721073583" y1="101.09737516637583" y2="101.16192664675087" /><path d="M 14.007167355692545 101.11028546245083 a86.0,86.0 0 0,1 10.666146001902534,-42.60595125391555" fill="none" id="id46" stroke="none" /><text fill="#e1ed5e" style="font-size:6.75px; font-family:Arial;" text-anchor="middle"><textPath startOffset="22.20632615414155" xlink:href="#id46">October</textPath></text><line stroke="#e1ed5e" stroke-width="0.3" x1="26.266209847984243" x2="21.928928074336255" y1="57.711370442889674" y2="55.22380399835377" /><path d="M 25.398753493254645 57.213857153982495 a86.0,86.0 0 0,1 29.58750427330803,-30.492523968695096" fill="none" id="id47" stroke="none" /><text fill="#e1ed5e" style="font-size:6.75px; font-family:Arial;" text-anchor="middle"><textPath startOffset="21.46611528233685" xlink:href="#id47">November</textPath></text><line stroke="#e1ed5e" stroke-width="0.3" x1="56.762969772571076" x2="54.21961505331055" y1="26.818313649435495" y2="22.513508569990535" /><path d="M 56.25429882871897 25.957352633546506 a86.0,86.0 0 0,1 42.265352541879196,-11.944610805530505" fill="none" id="id48" stroke="none" /><text fill="#e1ed5e" style="font-size:6.75px; font-family:Arial;" text-anchor="middle"><textPath startOffset="22.20632615414155" xlink:href="#id48">December</textPath></text></svg>