<?xml version="1.0" encoding="utf-8" ?>
<svg baseProfile="full" height="200mm" version="1.1" viewBox="0,0,200,200" width="200mm" xmlns="http://www.w3.org/2000/svg" xmlns:ev="http://www.w3.org/2001/xml-events" xmlns:xlink="http://www.w3.org/1999/xlink"><defs /><rect fill="#1a1a1a" height="200" width="200" x="0" y="0" /><text alignment-baseline="middle" fill="#e1ed5e" style="dominant-baseline: central; font-size:9.0px; font-family:Arial;" text-anchor="middle" x="100.0" y="100.0">2021</text><line stroke="#e1ed5e" stroke-width="0.3" x1="100.0" x2="100.0" y1="15.0" y2="10.0" /><path d="M 100.0 14.0 a86.0,86.0 0 0,1 42.46469731375804,11.215312516191453" fill="none" id="id13" stroke="none" /><text fill="#e1ed5e" style="font-size:6.75px; font-family:Arial;" text-anchor="middle"><textPath startOffset="22.20632615414155" xlink:href="#id13">January</textPath></text><path d="M 100.72285384407766 79.0124445844662 l 0.40821687589595435 -11.852291268305091 a32.85931909202663,32.85931909202663 0 0,0 0.5651163967395088,0.024335100797521252 l -0.6121741050247946 11.843508440983376" fill="#ff1602" stroke="none" /><path d="M 105.36241919743992 79.69619591428918 l 6.802275114678891 -25.755551026574434 a47.63868156306275,47.63868156306275 0 0,0 0.791033753125689,0.2162194062023895 l -7.244606757028291 25.63464507954575" fill="#fffe18" stroke="none" /><line stroke="#e1ed5e" stroke-width="0.3" x1="143.23703022742887" x2="145.7803849466894" y1="26.81831364943548" y2="22.513508569990506" /><path d="M 143.74570117128098 25.957352633546492 a86.0,86.0 0 0,1 28.547481713284135,27.462654790039103" fill="none" id="id14" stroke="none" /><text fill="#e1ed5e" style="font-size:6.75px; font-family:Arial;" text-anchor="middle"><textPath startOffset="19.985693538727396" xlink:href="#id14">February</textPath></text><path d="M 113.89432698308785 84.25364557470407 l 17.497130381079458 -19.829389127047914 a47.44530666724022,47.44530666724022 0 0,0 0.6077269611250636,0.5456232661611035 l -17.835868329800512 19.525266852117515" fill="#fffc17" stroke="none" /><path d="M 114.16331599549186 84.49514656593476 l 19.42557909699317 -21.265553692834974 a49.80237658798984,49.80237658798984 0 0,0 0.6279655566085622,0.5836255467089521 l -19.788752537396583 20.928023560051383" fill="#e1ff1b" stroke="none" /><path d="M 114.94478906791727 85.2469230424477 l 19.104577382063873 -18.859503408058515 a47.84521830318832,47.84521830318832 0 0,0 0.5735405360875521,0.5910839380746693 l -19.42638218185453 18.52785527443373" fill="#fdff18" stroke="none" /><path d="M 115.68641384162765 86.03803664274999 l 20.124171001410936 -17.911865704518377 a47.940994627346825,47.940994627346825 0 0,0 0.5433498471180576,0.6211428027742443 l -20.429512712106842 17.562807345541184" fill="#fbff18" stroke="none" /><path d="M 116.38621287248628 86.86637796730983 l 21.03143113720858 -16.856785000422 a47.953150024247606,47.953150024247606 0 0,0 0.5106917297899253,0.6485266352760649 l -21.31847694759247 16.492265971192897" fill="#fbff18" stroke="none" /><path d="M 117.45458315368197 88.32363383020206 l 22.765757136096713 -15.229313362186014 a48.38999239619091,48.38999239619091 0 0,0 0.45717796697184315,0.6963134088755526 l -23.024531738426482 14.835181889332787" fill="#f5ff19" stroke="none" /><line stroke="#e1ed5e" stroke-width="0.3" x1="172.23445277983987" x2="176.4835382374775" y1="55.19839476539836" y2="52.563006222186495" /><path d="M 173.08426987136738 54.67131705675599 a86.0,86.0 0 0,1 12.851231095245387,41.99856678651699" fill="none" id="id15" stroke="none" /><text fill="#e1ed5e" style="font-size:6.75px; font-family:Arial;" text-anchor="middle"><textPath startOffset="22.20632615414155" xlink:href="#id15">March</textPath></text><path d="M 119.196687751892 91.48605970444005 l 24.50316305898522 -10.867419944152026 a47.80495879753914,47.80495879753914 0 0,0 0.3271436521330593,0.7550926536259973 l -24.686597420960958 10.444028145939425" fill="#fdff18" stroke="none" /><path d="M 119.7369772167798 92.82701384747503 l 25.469743466684353 -9.25643857153409 a48.09962153402321,48.09962153402321 0 0,0 0.2761076757209828,0.7805935803226968 l -25.625304223215146 8.816647364784778" fill="#f9ff18" stroke="none" /><path d="M 120.6074358757038 95.95851677861258 l 52.109079332521986 -10.219513532619041 a74.10173825522526,74.10173825522526 0 0,0 0.23470587986035213,1.253808195248219 l -52.2772709362922 9.32102725990826" fill="#3effb9" stroke="none" /><path d="M 120.67395015179393 96.31383870115 l 26.048996198777985 -4.644530965626517 a47.4598161530766,47.4598161530766 0 0,0 0.13647666428936886,0.80549299813686 l -26.125084724587577 4.195452179173819" fill="#fffc17" stroke="none" /><line stroke="#e1ed5e" stroke-width="0.3" x1="184.98032266829074" x2="189.97916517819016" y1="98.17113171792111" y2="98.06355123074" /><path d="M 185.9800911702706 98.14961562048488 a86.0,86.0 0 0,1 -9.607161424134198,41.387399972396054" fill="none" id="id16" stroke="none" /><text fill="#e1ed5e" style="font-size:6.75px; font-family:Arial;" text-anchor="middle"><textPath startOffset="21.466115282336823" xlink:href="#id16">April</textPath></text><path d="M 120.89721153311464 102.0752229133903 l 26.651492110381753 2.6466587188372883 a47.782584529573285,47.782584529573285 0 0,0 -0.0883242837985466,0.817773172846643 l -26.601985525082153 -3.1050282135687226" fill="#feff18" stroke="none" /><path d="M 120.49622156327973 104.57218783832717 l 26.84829673525667 5.989174903957109 a48.50820338761846,48.50820338761846 0 0,0 -0.1888110996490273,0.8133932756424276 l -26.74122506967709 -6.450436836948102" fill="#f3ff19" stroke="none" /><path d="M 120.41448212921028 104.9243191809786 l 26.782477633047748 6.460387654597303 a48.55063913618659,48.55063913618659 0 0,0 -0.20296175237621916,0.8107313106916142 l -26.667304566376465 -6.920446804686313" fill="#f3ff19" stroke="none" /><path d="M 120.02730092923936 106.31721596034902 l 25.275853139956695 7.972767944683633 a47.503467332642224,47.503467332642224 0 0,0 -0.2526907335548909,0.7777021106586317 l -25.134870155385556 -8.40666895532006" fill="#fffc17" stroke="none" /><line stroke="#e1ed5e" stroke-width="0.3" x1="174.80103733775053" x2="179.2010983576182" y1="140.37084112569926" y2="142.7455964860345" /><path d="M 175.68104954172406 140.8457921977663 a86.0,86.0 0 0,1 -30.038265399797805,32.042727171017184" fill="none" id="id17" stroke="none" /><text fill="#e1ed5e" style="font-size:6.75px; font-family:Arial;" text-anchor="middle"><textPath startOffset="22.206326154141568" xlink:href="#id17">May</textPath></text><path d="M 117.35343817320211 111.8261652097733 l 22.17708745829929 15.113425796995474 a47.83726602048621,47.83726602048621 0 0,0 -0.46957764863364737,0.6764616256127316 l -21.913648902503507 -15.492928684795224" fill="#fdff18" stroke="none" /><path d="M 115.07121518719521 114.62390073753431 l 9.366936158451013 9.088925006683635 a34.05174512368427,34.05174512368427 0 0,0 -0.41179809082757485,0.4171492918864441 l -9.209097442567904 -9.248814792550743" fill="#ff2b04" stroke="none" /><path d="M 114.55890576462653 115.13401014063108 l 11.982768548568723 12.456110621135418 a38.28413821671565,38.28413821671565 0 0,0 -0.47885101051240997,0.45278351881256823 l -11.766581703665505 -12.660528776693907" fill="#ff700a" stroke="none" /><path d="M 114.29624159901734 115.38237550388516 l 14.694677655772985 15.81108209763242 a42.58526971119764,42.58526971119764 0 0,0 -0.5412394129520839,0.49440937106910865 l -14.420338693354037 -16.061684235288112" fill="#ffb410" stroke="none" /><path d="M 113.75828350139079 115.86535959552629 l 17.306393448154417 19.956861284976 a47.41566895859531,47.41566895859531 0 0,0 -0.6212232134144579,0.5294198996215965 l -16.96030475816291 -20.251805574820544" fill="#fffb17" stroke="none" /><path d="M 112.92097659922987 116.55440617244103 l 16.252465350960975 20.822722698791083 a47.41454922149792,47.41454922149792 0 0,0 -0.6477081915751874,0.496635021605675 l -15.891628430892295 -21.099397062224128" fill="#fffb17" stroke="none" /><path d="M 111.7513745106137 117.40417183066458 l 20.50795929561016 30.37296166118308 a57.648235899454974,57.648235899454974 0 0,0 -0.8271843833101374,0.5482127042721742 l -19.98210021356006 -30.721472386546573" fill="#79ff26" stroke="none" /><line stroke="#e1ed5e" stroke-width="0.3" x1="143.8653032363475" x2="146.44561519142675" y1="172.8068346515853" y2="177.08958963109032" /><path d="M 144.38136562736335 173.6633856474863 a86.0,86.0 0 0,1 -40.68145358897372,12.25698825130547" fill="none" id="id18" stroke="none" /><text fill="#e1ed5e" style="font-size:6.75px; font-family:Arial;" text-anchor="middle"><textPath startOffset="21.466115282336833" xlink:href="#id18">June</textPath></text><path d="M 110.8373102113329 117.98757091392108 l 32.51193063399873 53.96271274176323 a84.0,84.0 0 0,0 -1.2449285158864716,0.735525710825002 l -31.578234247083873 -54.514357024881974" fill="#4dd2ff" stroke="none" /><path d="M 108.92500713936063 119.00905698771935 l 11.071349060121609 23.580474718797973 a47.050212244335476,47.050212244335476 0 0,0 -0.7360714537238017,0.3378943023796114 l -10.663809610630388 -23.767556091511658" fill="#fff617" stroke="none" /><path d="M 108.59647513512805 119.15986991738527 l 11.066990469191317 24.666167752893735 a48.03512732833094,48.03512732833094 0 0,0 -0.7573065499329857,0.33198093630262215 l -10.640763244600578 -24.85301324249081" fill="#faff18" stroke="none" /><path d="M 107.93186726928326 119.44442032107085 l 9.914925175226587 24.30574869875421 a47.2502411615081,47.2502411615081 0 0,0 -0.7557314360995077,0.30072113494332425 l -9.495072663085214 -24.472816678103605" fill="#fff917" stroke="none" /><path d="M 107.2578585660854 119.70592522655815 l 4.265237010391911 11.580611668720465 a33.34110259970808,33.34110259970808 0 0,0 -0.5402535734151312,0.19371571012520766 l -4.065263876347045 -11.652314919885633" fill="#ff1f03" stroke="none" /><path d="M 104.83641907484287 120.43548508189849 l 4.0125220573232525 16.954245150040496 a38.42259343117945,38.42259343117945 0 0,0 -0.6449138091695682,0.14678028330789628 l -3.7200880987608227 -17.020802166926078" fill="#ff720a" stroke="none" /><path d="M 103.41894727170886 120.7198165907248 l 4.515956684204275 27.36801324859338 a48.73809679752365,48.73809679752365 0 0,0 -0.8289285834310491,0.12946159695459394 l -4.044192237164708 -27.44169315289508" fill="#f0ff19" stroke="none" /><path d="M 102.70371172650421 120.8252237178851 l 3.5519648326206097 27.358856919641113 a48.58846690415341,48.58846690415341 0 0,0 -0.8303365870417264,0.10054219711265579 l -3.0805008225275032 -27.41594464547912" fill="#f2ff19" stroke="none" /><path d="M 101.26447882468166 120.96189622390904 l 1.0768803063819383 17.85198200818626 a38.88443269480134,38.88443269480134 0 0,0 -0.6684640074188705,0.034551953715578454 l -0.7694282305495882 -17.86787376866404" fill="#ff7a0b" stroke="none" /><line stroke="#e1ed5e" stroke-width="0.3" x1="102.19456741930631" x2="102.32365962044197" y1="184.97166512339345" y2="189.96999836594603" /><path d="M 102.22038585953345 185.97133177190398 a86.0,86.0 0 0,1 -42.740103519485714,-10.115201625700543" fill="none" id="id19" stroke="none" /><text fill="#e1ed5e" style="font-size:6.75px; font-family:Arial;" text-anchor="middle"><textPath startOffset="22.20632615414155" xlink:href="#id19">July</textPath></text><path d="M 100.54218724476979 120.99299961872073 l 0.6799789147284956 26.328168423981147 a47.33694788478713,47.33694788478713 0 0,0 -0.8147371963339084,0.014026439702301094 l -0.2266820285019192 -26.33597234096261" fill="#fffa17" stroke="none" /><path d="M 98.73552117531835 120.96189622390904 l -1.6652545110539319 27.605754691777648 a48.65593543326982,48.65593543326982 0 0,0 -0.83557820125586,-0.05762636492067431 l 2.140195473088722 -27.572999982340686" fill="#f1ff19" stroke="none" /><path d="M 95.16358092515715 120.4354850818985 l -3.937639153989392 16.63783988608644 a38.097447709587506,38.097447709587506 0 0,0 -0.6368563751484757,-0.15652380237286914 l 4.223448813881078 -16.56759482539954" fill="#ff6d0a" stroke="none" /><path d="M 91.7346041902142 119.30500536409082 l -4.155167425678493 9.70498343787091 a31.55708860741295,31.55708860741295 0 0,0 -0.4975190288527664,-0.21809772151254436 l 4.321607129189003 -9.632021163063913" fill="#ff0000" stroke="none" /><line stroke="#e1ed5e" stroke-width="0.3" x1="58.666819895761336" x2="56.23545636021788" y1="174.27360380694188" y2="178.64263932499728" /><path d="M 58.180547188652646 175.14741091055294 a86.0,86.0 0 0,1 -31.652253787137756,-30.449443065178592" fill="none" id="id20" stroke="none" /><text fill="#e1ed5e" style="font-size:6.75px; font-family:Arial;" text-anchor="middle"><textPath startOffset="22.20632615414155" xlink:href="#id20">August</textPath></text><line stroke="#e1ed5e" stroke-width="0.3" x1="26.63291911575756" x2="22.317208475507996" y1="142.92168965132927" y2="145.44649492493687" /><path d="M 25.769776987707644 143.4266507060508 a86.0,86.0 0 0,1 -11.730757126820373,-40.83630448921669" fill="none" id="id21" stroke="none" /><text fill="#e1ed5e" style="font-size:6.75px; font-family:Arial;" text-anchor="middle"><textPath startOffset="21.46611528233685" xlink:href="#id21">September</textPath></text><line stroke="#e1ed5e" stroke-width="0.3" x1="15.007084014347285" x2="10.007500721073583" y1="101.09737516637583" y2="101.16192664675087" /><path d="M 14.007167355692545 101.11028546245083 a86.0,86.0 0 0,1 10.666146001902534,-42.60595125391555" fill="none" id="id22" stroke="none" /><text fill="#e1ed5e" style="font-size:6.75px; font-family:Arial;" text-anchor="middle"><textPath startOffset="22.20632615414155" xlink:href="#id22">October</textPath></text><line stroke="#e1ed5e" stroke-width="0.3" x1="26.266209847984243" x2="21.928928074336255" y1="57.711370442889674" y2="55.22380399835377" /><path d="M 25.398753493254645 57.213857153982495 a86.0,86.0 0 0,1 29.58750427330803,-30.492523968695096" fill="none" id="id23" stroke="none" /><text fill="#e1ed5e" style="font-size:6.75px; font-family:Arial;" text-anchor="middle"><textPath startOffset="21.46611528233685" xlink:href="#id23">November</textPath></text><line stroke="#e1ed5e" stroke-width="0.3" x1="56.762969772571076" x2="54.21961505331055" y1="26.818313649435495" y2="22.513508569990535" /><path d="M 56.25429882871897 25.957352633546506 a86.0,86.0 0 0,1 42.265352541879196,-11.944610805530505" fill="none" id="id24" stroke="none" /><text fill="#e1ed5e" style="font-size:6.75px; font-family:Arial;" text-anchor="middle"><textPath startOffset="22.20632615414155" xlink:href="#id24">December</textPath></text></svg>