<?xml version="1.0" encoding="utf-8" ?>
<svg baseProfile="full" height="200mm" version="1.1" viewBox="0,0,200,200" width="200mm" xmlns="http://www.w3.org/2000/svg" xmlns:ev="http://www.w3.org/2001/xml-events" xmlns:xlink="http://www.w3.org/1999/xlink"><defs /><rect fill="#1a1a1a" height="200" width="200" x="0" y="0" /><text alignment-baseline="middle" fill="#e1ed5e" style="dominant-baseline: central; font-size:9.0px; font-family:Arial;" text-anchor="middle" x="100.0" y="100.0">2021</text><line stroke="#e1ed5e" stroke-width="0.3" x1="100.0" x2="100.0" y1="15.0" y2="10.0" /><path d="M 100.0 14.0 a86.0,86.0 0 0,1 42.46469731375804,11.215312516191453" fill="none" id="id13" stroke="none" /><text fill="#e1ed5e" style="font-size:6.75px; font-family:Arial;" text-anchor="middle"><textPath startOffset="22.20632615414155" xlink:href="#id13">January</textPath></text><path d="M 100.72285384407766 79.0124445844662 l 0.48430925288805393 -14.06158017491538 a35.06991799791336,35.06991799791336 0 0,0 0.6031343996333709,0.025972235975124405 l -0.7262844849107564 14.051160212416061" fill="#ff0000" stroke="none" /><path d="M 105.36241919743992 79.69619591428918 l 8.070231715674602 -30.556433141141557 a52.604180835037226,52.604180835037226 0 0,0 0.8734851853730999,0.2387564972565042 l -8.595014790271412 30.412990103058757" fill="#d9ff1c" stroke="none" /><line stroke="#e1ed5e" stroke-width="0.3" x1="143.23703022742887" x2="145.7803849466894" y1="26.81831364943548" y2="22.513508569990506" /><path d="M 143.74570117128098 25.957352633546492 a86.0,86.0 0 0,1 28.547481713284135,27.462654790039103" fill="none" id="id14" stroke="none" /><text fill="#e1ed5e" style="font-size:6.75px; font-family:Arial;" text-anchor="middle"><textPath startOffset="19.985693538727396" xlink:href="#id14">February</textPath></text><path d="M 113.89432698308785 84.25364557470407 l 20.758627687664013 -23.52562375641426 a52.37476050272598,52.37476050272598 0 0,0 0.6708683382154671,0.6023122179466178 l -21.16050701347547 23.164812529698345" fill="#ddff1b" stroke="none" /><path d="M 114.16331599549186 84.49514656593476 l 23.046542793543033 -25.229492040531706 a55.171192594901676,55.171192594901676 0 0,0 0.6956617543221949,0.6465417846856217 l -23.477412431660078 24.829045669771446" fill="#b4ff20" stroke="none" /><path d="M 114.94478906791727 85.2469230424477 l 22.665705768145738 -22.374949554325973 a52.84921640365406,52.84921640365406 0 0,0 0.6335255430517897,0.6529037605822898 l -23.047495574900637 21.981481598193568" fill="#d6ff1c" stroke="none" /><path d="M 115.68641384162765 86.03803664274999 l 23.875353514705985 -21.250670438714277 a52.962845610912495,52.962845610912495 0 0,0 0.6002661039746393,0.6862079233311559 l -24.237611482258473 20.836546959180172" fill="#d4ff1c" stroke="none" /><path d="M 116.38621287248628 86.86637796730983 l 24.95172860963288 -19.998920749493294 a52.97726679616764,52.97726679616764 0 0,0 0.5641975971546559,0.7164736532233695 l -25.292280287381498 19.566454702316886" fill="#d4ff1c" stroke="none" /><path d="M 117.45458315368197 88.32363383020206 l 27.00933616674898 -18.068085402520865 a53.495537390251634,53.495537390251634 0 0,0 0.5054140291219932,0.7697802408162366 l -27.3163468312289 17.60048709772695" fill="#ccff1d" stroke="none" /><line stroke="#e1ed5e" stroke-width="0.3" x1="172.23445277983987" x2="176.4835382374775" y1="55.19839476539836" y2="52.563006222186495" /><path d="M 173.08426987136738 54.67131705675599 a86.0,86.0 0 0,1 12.851231095245387,41.99856678651699" fill="none" id="id15" stroke="none" /><text fill="#e1ed5e" style="font-size:6.75px; font-family:Arial;" text-anchor="middle"><textPath startOffset="22.20632615414155" xlink:href="#id15">March</textPath></text><path d="M 119.196687751892 91.48605970444005 l 29.07059775136773 -12.893127023279844 a52.801452452054065,52.801452452054065 0 0,0 0.36133615481714926,0.8340136640674359 l -29.28822461602756 12.390814214625804" fill="#d6ff1c" stroke="none" /><path d="M 119.7369772167798 92.82701384747503 l 30.2173505260578 -10.981855757787077 a53.15104086494692,53.15104086494692 0 0,0 0.30510448704863175,0.8625714706985674 l -30.40190809391624 10.460086660661895" fill="#d1ff1c" stroke="none" /><path d="M 120.6074358757038 95.95851677861258 l 61.822307627111385 -12.124449664162288 a84.0,84.0 0 0,0 0.26605710436056285,1.4212876901497489 l -62.02185045538181 11.058483896549978" fill="#4dd2ff" stroke="none" /><path d="M 120.67395015179393 96.31383870115 l 30.90457703353109 -5.510280085900542 a52.39197458342704,52.39197458342704 0 0,0 0.15065970554156896,0.8892021104632766 l -30.994848600592885 4.9774921871214275" fill="#dcff1b" stroke="none" /><line stroke="#e1ed5e" stroke-width="0.3" x1="184.98032266829074" x2="189.97916517819016" y1="98.17113171792111" y2="98.06355123074" /><path d="M 185.9800911702706 98.14961562048488 a86.0,86.0 0 0,1 -9.607161424134198,41.387399972396054" fill="none" id="id16" stroke="none" /><text fill="#e1ed5e" style="font-size:6.75px; font-family:Arial;" text-anchor="middle"><textPath startOffset="21.466115282336823" xlink:href="#id16">April</textPath></text><path d="M 120.89721153311464 102.0752229133903 l 31.619379291954385 3.1400007752164676 a52.774907579359436,52.774907579359436 0 0,0 -0.0975524024154965,0.9032140902958086 l -31.560644588037835 -3.6838111873970676" fill="#d7ff1c" stroke="none" /><path d="M 120.49622156327973 104.57218783832717 l 31.852868661125818 7.105568129159492 a53.63578312804916,53.63578312804916 0 0,0 -0.20876945517896864,0.8993733489067209 l -31.725838640016295 -7.652810135414778" fill="#caff1d" stroke="none" /><path d="M 120.41448212921028 104.9243191809786 l 31.77478075712479 7.66461580378832 a53.6861289782536,53.6861289782536 0 0,0 -0.2244302239803205,0.8964871830092506 l -31.63813921884941 -8.210430826194967" fill="#c9ff1d" stroke="none" /><path d="M 120.02730092923936 106.31721596034902 l 29.987318685572042 9.458906563489828 a52.44376242320389,52.44376242320389 0 0,0 -0.2789702213588019,0.8585820576381269 l -29.820056213196995 -9.973687521105749" fill="#dcff1b" stroke="none" /><line stroke="#e1ed5e" stroke-width="0.3" x1="174.80103733775053" x2="179.2010983576182" y1="140.37084112569926" y2="142.7455964860345" /><path d="M 175.68104954172406 140.8457921977663 a86.0,86.0 0 0,1 -30.038265399797805,32.042727171017184" fill="none" id="id17" stroke="none" /><text fill="#e1ed5e" style="font-size:6.75px; font-family:Arial;" text-anchor="middle"><textPath startOffset="22.206326154141568" xlink:href="#id17">May</textPath></text><path d="M 117.35343817320211 111.8261652097733 l 26.310937377560784 17.930596181887193 a52.83978180082006,52.83978180082006 0 0,0 -0.5186830802938911,0.7472016623754676 l -25.998393390104756 -18.380839106449677" fill="#d6ff1c" stroke="none" /><path d="M 115.07121518719521 114.62390073753431 l 11.112950298276651 10.78311735613899 a36.48461443653774,36.48461443653774 0 0,0 -0.4412195179710908,0.4469530422499814 l -10.925690155250024 -10.972810892369635" fill="#ff1a02" stroke="none" /><line stroke="#e1ed5e" stroke-width="0.3" x1="143.8653032363475" x2="146.44561519142675" y1="172.8068346515853" y2="177.08958963109032" /><path d="M 144.38136562736335 173.6633856474863 a86.0,86.0 0 0,1 -40.68145358897372,12.25698825130547" fill="none" id="id18" stroke="none" /><text fill="#e1ed5e" style="font-size:6.75px; font-family:Arial;" text-anchor="middle"><textPath startOffset="21.466115282336833" xlink:href="#id18">June</textPath></text><line stroke="#e1ed5e" stroke-width="0.3" x1="102.19456741930631" x2="102.32365962044197" y1="184.97166512339345" y2="189.96999836594603" /><path d="M 102.22038585953345 185.97133177190398 a86.0,86.0 0 0,1 -42.740103519485714,-10.115201625700543" fill="none" id="id19" stroke="none" /><text fill="#e1ed5e" style="font-size:6.75px; font-family:Arial;" text-anchor="middle"><textPath startOffset="22.20632615414155" xlink:href="#id19">July</textPath></text><line stroke="#e1ed5e" stroke-width="0.3" x1="58.666819895761336" x2="56.23545636021788" y1="174.27360380694188" y2="178.64263932499728" /><path d="M 58.180547188652646 175.14741091055294 a86.0,86.0 0 0,1 -31.652253787137756,-30.449443065178592" fill="none" id="id20" stroke="none" /><text fill="#e1ed5e" style="font-size:6.75px; font-family:Arial;" text-anchor="middle"><textPath startOffset="22.20632615414155" xlink:href="#id20">August</textPath></text><line stroke="#e1ed5e" stroke-width="0.3" x1="26.63291911575756" x2="22.317208475507996" y1="142.92168965132927" y2="145.44649492493687" /><path d="M 25.769776987707644 143.4266507060508 a86.0,86.0 0 0,1 -11.730757126820373,-40.83630448921669" fill="none" id="id21" stroke="none" /><text fill="#e1ed5e" style="font-size:6.75px; font-family:Arial;" text-anchor="middle"><textPath startOffset="21.46611528233685" xlink:href="#id21">September</textPath></text><line stroke="#e1ed5e" stroke-width="0.3" x1="15.007084014347285" x2="10.007500721073583" y1="101.09737516637583" y2="101.16192664675087" /><path d="M 14.007167355692545 101.11028546245083 a86.0,86.0 0 0,1 10.666146001902534,-42.60595125391555" fill="none" id="id22" stroke="none" /><text fill="#e1ed5e" style="font-size:6.75px; font-family:Arial;" text-anchor="middle"><textPath startOffset="22.20632615414155" xlink:href="#id22">October</textPath></text><line stroke="#e1ed5e" stroke-width="0.3" x1="26.266209847984243" x2="21.928928074336255" y1="57.711370442889674" y2="55.22380399835377" /><path d="M 25.398753493254645 57.213857153982495 a86.0,86.0 0 0,1 29.58750427330803,-30.492523968695096" fill="none" id="id23" stroke="none" /><text fill="#e1ed5e" style="font-size:6.75px; font-family:Arial;" text-anchor="middle"><textPath startOffset="21.46611528233685" xlink:href="#id23">November</textPath></text><line stroke="#e1ed5e" stroke-width="0.3" x1="56.762969772571076" x2="54.21961505331055" y1="26.818313649435495" y2="22.513508569990535" /><path d="M 56.25429882871897 25.957352633546506 a86.0,86.0 0 0,1 42.265352541879196,-11.944610805530505" fill="none" id="id24" stroke="none" /><text fill="#e1ed5e" style="font-size:6.75px; font-family:Arial;" text-anchor="middle"><textPath startOffset="22.20632615414155" xlink:href="#id24">December</textPath></text></svg>