<?xml version="1.0" encoding="utf-8" ?>
<svg baseProfile="full" height="200mm" version="1.1" viewBox="0,0,200,200" width="200mm" xmlns="http://www.w3.org/2000/svg" xmlns:ev="http://www.w3.org/2001/xml-events" xmlns:xlink="http://www.w3.org/1999/xlink"><defs /><rect fill="#1a1a1a" height="200" width="200" x="0" y="0" /><text alignment-baseline="middle" fill="#e1ed5e" style="dominant-baseline: central; font-size:9.0px; font-family:Arial;" text-anchor="middle" x="100.0" y="100.0">2024</text><line stroke="#e1ed5e" stroke-width="0.3" x1="100.0" x2="100.0" y1="15.0" y2="10.0" /><path d="M 100.0 14.0 a86.0,86.0 0 0,1 42.35913384403234,11.155469271406648" fill="none" id="id49" stroke="none" /><text fill="#e1ed5e" style="font-size:6.75px; font-family:Arial;" text-anchor="middle"><textPath startOffset="22.145653131862478" xlink:href="#id49">January</textPath></text><path d="M 101.08105385017728 79.02784411241856 l 1.520903893101571 -29.505129213429157 a50.54430230269793,50.54430230269793 0 0,0 0.8661263167214304,0.05210400843258519 l -2.0271745619554635 29.47467322717188" fill="#a2ff22" stroke="none" /><path d="M 101.80034050326958 79.07731436759882 l 0.9032440221951419 -10.497064689381562 a31.53585387411445,31.53585387411445 0 0,0 0.5389634154498146,0.0510403958012477 l -1.0833070010299695 10.480012538075131" fill="#ff6609" stroke="none" /><path d="M 102.15924093988457 79.11130261209362 l 3.819346983617627 -36.94871743422327 a58.14559370120962,58.14559370120962 0 0,0 0.9919751763452506,0.11115288757170123 l -4.453058061563674 36.8777087861446" fill="#4eff2b" stroke="none" /><path d="M 103.23170211078529 79.25015418208739 l 4.864682176547516 -31.23474926096451 a52.61130642782962,52.61130642782962 0 0,0 0.8911916804832187,0.14664525188530625 l -5.400151360083806 31.146638010583537" fill="#8bff24" stroke="none" /><path d="M 103.94208987418118 79.37332000966035 l 5.976389763926861 -31.270996626799743 a52.836966951072625,52.836966951072625 0 0,0 0.8894311195756597,0.17791113388642463 l -6.512317369033477 31.163796096250458" fill="#88ff25" stroke="none" /><path d="M 104.9986988182912 79.60360301121754 l 4.913094303332776 -20.04710135513974 a41.640367447714844,41.640367447714844 0 0,0 0.6928059035419599,0.17610855148395527 l -5.256505500100131 19.95980757182052" fill="#ffef16" stroke="none" /><path d="M 106.38641147887787 79.99465700312896 l 10.265037894875162 -32.15508500228027 a54.753821924147985,54.753821924147985 0 0,0 0.8929494779002488,0.2935302296161129 l -10.815510110423153 31.974133851262142" fill="#73ff27" stroke="none" /><path d="M 108.07796709384702 80.6158196554323 l 9.3677486879666 -22.47918664195177 a45.35299873864824,45.35299873864824 0 0,0 0.7160696960750231,0.30564757311828145 l -9.752253459212053 22.315064419174085" fill="#e0ff1b" stroke="none" /><path d="M 108.4095320186766 80.7573450057729 l 16.338781337101945 -37.386329179521525 a61.80065422393584,61.80065422393584 0 0,0 0.9684650952309896,0.4331821187181204 l -16.978159835188567 37.100343309893546" fill="#30ff38" stroke="none" /><path d="M 109.3889696526874 81.21577127319529 l 20.613089846652553 -41.23998785477694 a67.10462093205322,67.10462093205322 0 0,0 1.02597462278626,0.5238699527532776 l -21.31799169115239 40.88005995035083" fill="#37ff78" stroke="none" /><path d="M 109.71004243097381 81.37971332152246 l 7.07072147395087 -13.559040735873335 a36.29191576746558,36.29191576746558 0 0,0 0.5499282616066502,0.2928058244730222 l -7.30243855134408 13.43566444367774" fill="#ffa80f" stroke="none" /><path d="M 110.02825361518725 81.54914285379988 l 14.490142459134372 -26.660230066048737 a51.34356761589938,51.34356761589938 0 0,0 0.7707789567482152,0.4275380942977839 l -14.945665604038687 26.407559056317808" fill="#99ff23" stroke="none" /><line stroke="#e1ed5e" stroke-width="0.3" x1="143.13028292997686" x2="145.6673583964461" y1="26.7553504044142" y2="22.446841604673864" /><path d="M 143.63769802327073 25.89364864446614 a86.0,86.0 0 0,1 29.32050498858742,28.57503671076993" fill="none" id="id50" stroke="none" /><text fill="#e1ed5e" style="font-size:6.75px; font-family:Arial;" text-anchor="middle"><textPath startOffset="20.669276256404974" xlink:href="#id50">February</textPath></text><path d="M 110.96478420261332 82.08984904055464 l 9.929393805647365 -16.218918558610632 a40.016997148826434,40.016997148826434 0 0,0 0.5827920564871867,0.3637053463621385 l -10.206349990924263 16.04607741540695" fill="#ffda14" stroke="none" /><path d="M 111.5731344415666 82.4767994020092 l 17.642788951604288 -26.71343113379821 a53.01367527996481,53.01367527996481 0 0,0 0.7550755741837016,0.5080485442629991 l -18.09876081388499 26.40663291547809" fill="#86ff25" stroke="none" /><path d="M 112.16784306229584 82.88440491214696 l 18.41547777907785 -25.903675729737838 a52.78254612429783,52.78254612429783 0 0,0 0.7339764661479472,0.5313423588400793 l -18.857435255599768 25.583732599524684" fill="#89ff24" stroke="none" /><path d="M 112.45986205192187 83.09580414077388 l 18.948948295329938 -25.707887613506827 a52.936783292119216,52.936783292119216 0 0,0 0.7268649161410028,0.5454529839172761 l -19.387466200381706 25.378815602325535" fill="#87ff25" stroke="none" /><path d="M 113.31354834802062 83.75963576809568 l 20.96420022869616 -25.57291554773346 a54.06768363282151,54.06768363282151 0 0,0 0.7127296439038072,0.5945844180527485 l -21.40010420676186 25.20926894576884" fill="#7aff26" stroke="none" /><path d="M 113.86319453409587 84.22622945171908 l 22.783321290951417 -25.92323735249879 a55.512229193152805,55.512229193152805 0 0,0 0.7103846391998355,0.6352303248215506 l -23.22497095697463 25.528311497793855" fill="#6aff28" stroke="none" /><path d="M 114.13192950727249 84.46653392183569 l 21.257054008686065 -23.365226043316177 a52.58791118740612,52.58791118740612 0 0,0 0.6625331280463305,0.613230772274405 l -21.655016908046363 22.996877524909397" fill="#8bff24" stroke="none" /><path d="M 114.91283532996326 85.21462403516908 l 23.519815589406097 -23.318792732469433 a54.12020259387825,54.12020259387825 0 0,0 0.6484455855719923,0.6653622957350426 l -23.916647976128903 22.911607744666647" fill="#7aff26" stroke="none" /><path d="M 116.57777611688842 87.10902102172516 l 40.229032479186266 -31.282338978942857 a71.96037466703822,71.96037466703822 0 0,0 0.7499231287964072,0.9816734484503373 l -40.76010758533698 30.58714461725164" fill="#3dffb0" stroke="none" /><path d="M 117.21940702142032 87.97951657250589 l 29.553494309779108 -20.630634268260604 a57.04208784503022,57.04208784503022 0 0,0 0.553607758871379,0.807730264961665 l -29.903291805465813 20.120269268228892" fill="#5aff2a" stroke="none" /><path d="M 117.62189284568427 88.57770195909679 l 15.815460026533968 -10.251390112232144 a39.847275004203254,39.847275004203254 0 0,0 0.3671306071538677,0.5771902932189045 l -15.989108325313724 9.978386144334568" fill="#ffd814" stroke="none" /><line stroke="#e1ed5e" stroke-width="0.3" x1="172.87174338648825" x2="177.1583165268699" y1="56.24261187166439" y2="53.66864786411523" /><path d="M 173.72905801456457 55.72781907015455 a86.0,86.0 0 0,1 12.242430191666344,42.057860355516425" fill="none" id="id51" stroke="none" /><text fill="#e1ed5e" style="font-size:6.75px; font-family:Arial;" text-anchor="middle"><textPath startOffset="22.145653131862474" xlink:href="#id51">March</textPath></text><path d="M 118.00360718960297 89.18935116829356 l 31.126775000312296 -18.69073404280024 a57.307294872776716,57.307294872776716 0 0,0 0.4991909920750681,0.8477354381183213 l -31.443039702517133 18.15364743638836" fill="#57ff2a" stroke="none" /><path d="M 118.18653347947321 89.5 l 31.59935938057659 -18.243898644595625 a57.48779728919124,57.48779728919124 0 0,0 0.4860911769988073,0.858876533399906 l -31.907883922596774 17.6987653410966" fill="#55ff2b" stroke="none" /><path d="M 118.53625476483649 90.13048839642627 l 31.891075952934475 -16.98020167294103 a57.12987647764084,57.12987647764084 0 0,0 0.4534804490133735,0.869608554621612 l -32.17786447092279 16.43024687521492" fill="#59ff2a" stroke="none" /><path d="M 118.8641267826498 90.77261029715802 l 26.99123033914055 -13.202763306674328 a51.04728730106276,51.04728730106276 0 0,0 0.37828651090118803,0.7904733158950673 l -27.213896108001652 12.737477488714156" fill="#9cff22" stroke="none" /><path d="M 119.0197475246899 91.09779779509293 l 32.72910496217889 -15.318873711689523 a57.136715448695874,57.136715448695874 0 0,0 0.4081616640219411,0.8919068973403319 l -32.98725109105588 14.754777832134508" fill="#59ff2a" stroke="none" /><path d="M 119.71291397450082 92.76114493625339 l 28.327587463791392 -10.402282494675363 a51.17713857571292,51.17713857571292 0 0,0 0.295754706437432,0.8272785513763928 l -28.501982340272768 9.914468986918052" fill="#9bff22" stroke="none" /><path d="M 119.83427380445688 93.10060997987247 l 21.61667907205049 -7.519403096295444 a43.88716314942949,43.88716314942949 0 0,0 0.24140986426624697,0.7136853679814024 l -21.742574357889104 7.14721605383988" fill="#f3ff19" stroke="none" /><path d="M 120.05942366710727 93.78553927170692 l 28.884685104440205 -8.948549280854857 a51.239073527715064,51.239073527715064 0 0,0 0.2530812031380632,0.8424250150461917 l -29.034042627581897 8.451386662217944" fill="#9aff22" stroke="none" /><path d="M 120.35273937422433 94.82641323984039 l 3.55566944124772 -0.9038372676279804 a24.668747331416554,24.668747331416554 0 0,0 0.1008041060120712,0.41131515201476704 l -3.5706610737760824 0.8426662910051185" fill="#ff0000" stroke="none" /><path d="M 120.51834098615036 95.52812308129327 l 61.555022958451104 -13.415630756120196 a84.0,84.0 0 0,0 0.29496915670253276,1.4115341948583824 l -61.776249825978 12.35698010997641" fill="#4dd2ff" stroke="none" /><path d="M 120.65975698304385 96.23510406497455 l 36.01202423497926 -6.562590439257719 a57.60510186810262,57.60510186810262 0 0,0 0.1689343196155016,0.9743682629937636 l -36.11937337208699 5.943429143343363" fill="#54ff2b" stroke="none" /><path d="M 120.77682067341334 96.94652285012252 l 32.49303301476535 -4.775356894125842 a53.84206491627629,53.84206491627629 0 0,0 0.1265429116004022,0.9156014710596305 l -32.57022044292096 4.216867114866126" fill="#7dff26" stroke="none" /><path d="M 120.9064616781168 98.02013634271609 l 17.854310588961496 -1.6908217758313846 a38.93419317629673,38.93419317629673 0 0,0 0.057300707822174876,0.6659210822064717 l -17.880704919481413 1.3840796462492508" fill="#ffcb13" stroke="none" /><path d="M 120.98066250479742 99.09900007780936 l 30.39732843406935 -1.3053920746133423 a51.42534509906411,51.42534509906411 0 0,0 0.030304987709334295,0.8822966515152874 l -30.415258108775532 0.783389158533935" fill="#98ff23" stroke="none" /><path d="M 120.99303781780057 99.45929381324524 l 36.83276297427573 -0.9486813194122644 a57.844978281510485,57.844978281510485 0 0,0 0.017046552608038366,0.9928762293939443 l -36.84362095848244 0.31625817404925366" fill="#51ff2b" stroke="none" /><line stroke="#e1ed5e" stroke-width="0.3" x1="184.99686870605535" x2="189.99668451229388" y1="99.2704041080226" y2="99.22748670261217" /><path d="M 185.99683186730306 99.26182062694052 a86.0,86.0 0 0,1 -10.086455211305974,41.156179273409016" fill="none" id="id52" stroke="none" /><text fill="#e1ed5e" style="font-size:6.75px; font-family:Arial;" text-anchor="middle"><textPath startOffset="21.40746469413373" xlink:href="#id52">April</textPath></text><path d="M 120.99922638620191 100.18025310272382 l 20.769620377797086 0.17828221128916796 a41.7703855328847,41.7703855328847 0 0,0 -0.012309470858107168,0.7169649660232947 l -20.76349947534031 -0.5347940932815338" fill="#fff016" stroke="none" /><path d="M 120.98066250479742 100.90099992219065 l 30.4190693008652 1.3063257209787513 a51.447106004021634,51.447106004021634 0 0,0 -0.04546554830923136,0.8820194909802449 l -30.392162163099396 -1.828317005335727" fill="#98ff23" stroke="none" /><line stroke="#e1ed5e" stroke-width="0.3" x1="174.33088141563837" x2="178.70328620479359" y1="141.23008692659167" y2="143.65538615756765" /><path d="M 175.20536237346943 141.71514677278685 a86.0,86.0 0 0,1 -30.301960400862466,31.631185727798858" fill="none" id="id53" stroke="none" /><text fill="#e1ed5e" style="font-size:6.75px; font-family:Arial;" text-anchor="middle"><textPath startOffset="22.145653131862474" xlink:href="#id53">May</textPath></text><line stroke="#e1ed5e" stroke-width="0.3" x1="143.1302829299769" x2="145.66735839644613" y1="173.24464959558577" y2="177.55315839532614" /><path d="M 143.63769802327073 174.10635135553383 a86.0,86.0 0 0,1 -40.68552437913181,11.842963189579606" fill="none" id="id54" stroke="none" /><text fill="#e1ed5e" style="font-size:6.75px; font-family:Arial;" text-anchor="middle"><textPath startOffset="21.407464694133747" xlink:href="#id54">June</textPath></text><line stroke="#e1ed5e" stroke-width="0.3" x1="101.45913802915013" x2="101.54496967792366" y1="184.9874750549273" y2="189.98673829345242" /><path d="M 101.47630435890484 185.9873277026323 a86.0,86.0 0 0,1 -42.54439059252881,-10.42667462771756" fill="none" id="id55" stroke="none" /><text fill="#e1ed5e" style="font-size:6.75px; font-family:Arial;" text-anchor="middle"><textPath startOffset="22.145653131862474" xlink:href="#id55">July</textPath></text><line stroke="#e1ed5e" stroke-width="0.3" x1="58.13341422392154" x2="55.67067388415222" y1="173.97424548756322" y2="178.32567169271397" /><path d="M 57.64086615596768 174.84453072859336 a86.0,86.0 0 0,1 -31.369924170532247,-30.572349798747897" fill="none" id="id56" stroke="none" /><text fill="#e1ed5e" style="font-size:6.75px; font-family:Arial;" text-anchor="middle"><textPath startOffset="22.145653131862474" xlink:href="#id56">August</textPath></text><line stroke="#e1ed5e" stroke-width="0.3" x1="26.387840678322732" x2="22.057713659400548" y1="142.50000000000003" y2="145.00000000000006" /><path d="M 25.521815274538298 143.00000000000003 a86.0,86.0 0 0,1 -11.493303480769221,-40.785679425670985" fill="none" id="id57" stroke="none" /><text fill="#e1ed5e" style="font-size:6.75px; font-family:Arial;" text-anchor="middle"><textPath startOffset="21.40746469413373" xlink:href="#id57">September</textPath></text><line stroke="#e1ed5e" stroke-width="0.3" x1="15.003131293944662" x2="10.003315487706104" y1="100.72959589197737" y2="100.7725132973878" /><path d="M 14.003168132696942 100.73817937305945 a86.0,86.0 0 0,1 10.791469493833604,-42.45332614584628" fill="none" id="id58" stroke="none" /><text fill="#e1ed5e" style="font-size:6.75px; font-family:Arial;" text-anchor="middle"><textPath startOffset="22.145653131862435" xlink:href="#id58">October</textPath></text><line stroke="#e1ed5e" stroke-width="0.3" x1="26.387840678322718" x2="22.05771365940052" y1="57.49999999999999" y2="54.99999999999999" /><path d="M 25.521815274538284 56.99999999999999 a86.0,86.0 0 0,1 29.574782752854787,-30.34633250058573" fill="none" id="id59" stroke="none" /><text fill="#e1ed5e" style="font-size:6.75px; font-family:Arial;" text-anchor="middle"><textPath startOffset="21.40746469413373" xlink:href="#id59">November</textPath></text><line stroke="#e1ed5e" stroke-width="0.3" x1="56.869717070023135" x2="54.33264160355391" y1="26.7553504044142" y2="22.446841604673864" /><path d="M 56.362301976729285 25.89364864446614 a86.0,86.0 0 0,1 42.16139366436587,-11.88097634709845" fill="none" id="id60" stroke="none" /><text fill="#e1ed5e" style="font-size:6.75px; font-family:Arial;" text-anchor="middle"><textPath startOffset="22.145653131862474" xlink:href="#id60">December</textPath></text></svg>